<svg width="125" height="33" viewBox="0 0 125 33" fill="none" xmlns="http://www.w3.org/2000/svg">
<path fill-rule="evenodd" clip-rule="evenodd" d="M85.5667 32.4968H101.1V28.478H85.5667V32.4968ZM98.4687 10.2395C98.4687 6.36659 95.6958 4.61346 93.1313 4.61346C90.5406 4.61346 87.7667 6.36659 87.7667 10.2395C87.7667 14.1124 90.5406 15.8395 93.1313 15.8395C95.6958 15.8395 98.4687 14.1124 98.4687 10.2395ZM102.76 10.2655C102.76 16.127 98.3385 19.9208 93.1313 19.9208C87.8979 19.9208 83.475 16.127 83.475 10.2655C83.475 4.37804 87.8979 0.583252 93.1313 0.583252C98.3385 0.583252 102.76 4.37804 102.76 10.2655ZM73.3458 23.3489C73.3458 19.6333 71.0177 17.9583 68.1646 17.9583H65.7573V28.7135H68.1646C71.0177 28.7135 73.3458 27.0645 73.3458 23.3489ZM77.6635 23.3489C77.6635 29.0801 73.9219 32.6124 68.3219 32.6124H61.6229V14.0593H68.3479C73.9219 14.0593 77.6635 17.6187 77.6635 23.3489ZM49.325 26.0968C49.325 23.9249 47.9385 22.878 46.3948 22.878C44.85 22.878 43.4635 23.9249 43.4635 26.0968C43.4635 28.2426 44.85 29.3416 46.3948 29.3416C47.9385 29.3416 49.325 28.2426 49.325 26.0968ZM53.1979 30.2833C53.1979 31.4614 53.2761 32.3249 53.3021 32.6124H49.4823C49.4562 32.4551 49.3771 31.8801 49.3771 31.3562C48.775 32.2458 47.4667 32.8999 45.8969 32.8999C42.2333 32.8999 39.4604 30.0739 39.4604 26.0707C39.4604 22.1978 42.0771 19.2937 45.7667 19.2937C47.9906 19.2937 48.9583 20.1301 49.2729 20.628V13.6676H53.1979V30.2833ZM109.43 14.0593V18.0114H115.134V32.6124H119.269V18.0114H125V14.0593H109.43ZM9.18541 19.8947C9.18541 18.5083 8.26874 17.6447 6.5677 17.6447H4.13437V22.1458H6.5677C8.26874 22.1458 9.18541 21.203 9.18541 19.8947ZM9.70834 25.102L13.4761 32.6124H8.92293L5.60001 25.7041H4.13437V32.6124H0V14.0593H7.35311C11.0167 14.0593 13.3719 16.5718 13.3719 19.8687C13.3719 22.3812 11.9844 24.2905 9.70834 25.102ZM25.1469 28.6874H32.7875V32.6124H21.0125V14.0593H32.7614V17.9583H25.1469V21.4916H32.0542V25.128H25.1469V28.6874Z" fill="white"/>
</svg>
