<?xml version="1.0" encoding="UTF-8"?>
<svg width="126px" height="36px" viewBox="0 0 126 36" version="1.1" xmlns="http://www.w3.org/2000/svg" xmlns:xlink="http://www.w3.org/1999/xlink">
    <!-- Generator: Sketch 54.1 (76490) - https://sketchapp.com -->
    <title>upwest-labs</title>
    <desc>Created with Sketch.</desc>
    <defs>
        <polygon id="path-1" points="0.992808696 0.311235294 0.992808696 10.7104118 7.68957391 10.7104118 7.68957391 9.24347059 2.62834783 9.24347059 2.62834783 0.311235294"></polygon>
        <path d="M4.25173913,0.311235294 L0.199886957,10.7104118 L1.94033913,10.7104118 L3.07008696,7.64376471 L7.17494783,7.64376471 L8.37316522,10.7104118 L10.2229478,10.7104118 L5.93918261,0.397205882 L5.90494783,0.311235294 L4.25173913,0.311235294 Z M4.62390435,3.49214706 C4.80170435,3.01658824 4.9507913,2.53232353 5.07006087,2.04697059 L5.07006087,2.04697059 C5.21914783,2.50729412 5.4124087,3.04705882 5.64653043,3.65973529 L5.64653043,3.65973529 L6.65038261,6.28020588 L3.56483478,6.28020588 L4.62390435,3.49214706 Z" id="path-3"></path>
        <path d="M1.06017391,0.311235294 L1.06017391,10.7104118 L5.11644348,10.7104118 C5.77905217,10.7104118 6.3477913,10.6516471 6.80830435,10.5362941 L6.80830435,10.5362941 C7.27433913,10.4198529 7.66969565,10.2446471 7.98222609,10.0128529 L7.98222609,10.0128529 C8.29696522,9.78105882 8.56421739,9.44805882 8.77735652,9.02038235 L8.77735652,9.02038235 C8.98828696,8.59597059 9.0954087,8.13129412 9.0954087,7.63832353 L9.0954087,7.63832353 C9.0954087,7.02238235 8.9176087,6.47935294 8.56753043,6.02120588 L8.56753043,6.02120588 C8.27156522,5.64032353 7.86847826,5.35085294 7.36268696,5.15714706 L7.36268696,5.15714706 C7.73043478,4.93297059 8.01866957,4.65655882 8.21966087,4.33226471 L8.21966087,4.33226471 C8.47034783,3.92852941 8.59734783,3.49323529 8.59734783,3.03726471 L8.59734783,3.03726471 C8.59734783,2.54973529 8.4559913,2.07526471 8.17327826,1.62908824 L8.17327826,1.62908824 C7.89166957,1.18182353 7.49631304,0.846647059 6.99825217,0.630088235 L6.99825217,0.630088235 C6.51013043,0.417882353 5.85414783,0.311235294 5.05349565,0.311235294 L5.05349565,0.311235294 L1.06017391,0.311235294 Z M2.69571304,1.77817647 L4.61175652,1.77817647 C5.3317913,1.77817647 5.8442087,1.82388235 6.13244348,1.91420588 L6.13244348,1.91420588 C6.40853043,2.00017647 6.61283478,2.15252941 6.7586087,2.38214706 L6.7586087,2.38214706 C6.90769565,2.61394118 6.98389565,2.88817647 6.98389565,3.19723529 L6.98389565,3.19723529 C6.98389565,3.52044118 6.90438261,3.78923529 6.74756522,4.00035294 L6.74756522,4.00035294 C6.59074783,4.20929412 6.35110435,4.36273529 6.03636522,4.45523529 L6.03636522,4.45523529 C5.7889913,4.53032353 5.36602609,4.56623529 4.78072174,4.56623529 L4.78072174,4.56623529 L2.69571304,4.56623529 L2.69571304,1.77817647 Z M2.69571304,6.03426471 L4.93422609,6.03426471 C5.57143478,6.03426471 6.06286957,6.08758824 6.39527826,6.19641176 L6.39527826,6.19641176 C6.71222609,6.29870588 6.96291304,6.47935294 7.14071304,6.73182353 L7.14071304,6.73182353 C7.32072174,6.98538235 7.41127826,7.29117647 7.41127826,7.63832353 L7.41127826,7.63832353 C7.41127826,7.93541176 7.34833043,8.20094118 7.22464348,8.42620588 L7.22464348,8.42620588 C7.10095652,8.65147059 6.94303478,8.82341176 6.7541913,8.93876471 L6.7541913,8.93876471 C6.55872174,9.05847059 6.31134783,9.14444118 6.01648696,9.19667647 L6.01648696,9.19667647 C5.89832174,9.21844118 5.64542609,9.24347059 5.11644348,9.24347059 L5.11644348,9.24347059 L2.69571304,9.24347059 L2.69571304,6.03426471 Z" id="path-5"></path>
        <path d="M2.58748696,0.494058824 C1.99776522,0.734558824 1.54277391,1.09258824 1.23466087,1.55835294 L1.23466087,1.55835294 C0.927652174,2.02302941 0.770834783,2.52905882 0.770834783,3.06447059 L0.770834783,3.06447059 C0.770834783,3.55417647 0.900043478,4.00361765 1.15293913,4.39864706 L1.15293913,4.39864706 C1.40693913,4.79476471 1.79346087,5.12667647 2.30256522,5.38894118 L2.30256522,5.38894118 C2.69129565,5.59352941 3.37046957,5.81008824 4.31910435,6.03317647 L4.31910435,6.03317647 C5.25227826,6.25408824 5.86077391,6.4195 6.13133913,6.52288235 L6.13133913,6.52288235 C6.53442609,6.67305882 6.82486957,6.86023529 6.99604348,7.07679412 L6.99604348,7.07679412 C7.16611304,7.29117647 7.24783478,7.53602941 7.24783478,7.82441176 L7.24783478,7.82441176 C7.24783478,8.11170588 7.16169565,8.36961765 6.9827913,8.61229412 L6.9827913,8.61229412 C6.80609565,8.85497059 6.5278,9.04758824 6.15894783,9.19123529 L6.15894783,9.19123529 C5.77794783,9.33597059 5.33289565,9.40888235 4.83483478,9.40888235 L4.83483478,9.40888235 C4.27272174,9.40888235 3.76251304,9.31094118 3.31193913,9.1205 L3.31193913,9.1205 C2.87130435,8.93005882 2.54331304,8.68302941 2.33790435,8.38158824 L2.33790435,8.38158824 C2.12918261,8.07579412 1.99445217,7.67532353 1.93592174,7.19432353 L1.93592174,7.19432353 L1.92046087,7.06264706 L0.374373913,7.19541176 L0.377686957,7.32382353 C0.397565217,8.02247059 0.59413913,8.65908824 0.9652,9.21517647 L0.9652,9.21517647 C1.33626087,9.77126471 1.85530435,10.1945882 2.50576522,10.4720882 L2.50576522,10.4720882 C3.1473913,10.7441471 3.95246087,10.8823529 4.89778261,10.8823529 L4.89778261,10.8823529 C5.64873913,10.8823529 6.33453913,10.7452353 6.93530435,10.4731765 L6.93530435,10.4731765 C7.54269565,10.1989412 8.01756522,9.80826471 8.34334783,9.31094118 L8.34334783,9.31094118 C8.66913043,8.81579412 8.83478261,8.27820588 8.83478261,7.7145 L8.83478261,7.7145 C8.83478261,7.14535294 8.68348696,6.63605882 8.3842087,6.1975 L8.3842087,6.1975 C8.08603478,5.76329412 7.62,5.39982353 7.00156522,5.11797059 L7.00156522,5.11797059 C6.58191304,4.93079412 5.80666087,4.70988235 4.70010435,4.46176471 L4.70010435,4.46176471 C3.35721739,4.1625 2.87903478,3.92308824 2.71117391,3.77291176 L2.71117391,3.77291176 C2.47263478,3.56179412 2.35778261,3.30170588 2.35778261,2.97523529 L2.35778261,2.97523529 C2.35778261,2.59761765 2.52564348,2.27985294 2.8702,2.00779412 L2.8702,2.00779412 C3.21917391,1.73247059 3.79564348,1.59208824 4.58193913,1.59208824 L4.58193913,1.59208824 C5.33510435,1.59208824 5.90826087,1.74770588 6.28594783,2.05241176 L6.28594783,2.05241176 C6.65921739,2.35385294 6.8811913,2.81091176 6.94634783,3.41161765 L6.94634783,3.41161765 L6.9618087,3.54220588 L8.53108696,3.42576471 L8.52556522,3.29626471 C8.50237391,2.67923529 8.32567826,2.11770588 7.9987913,1.63017647 L7.9987913,1.63017647 C7.67190435,1.13938235 7.19924348,0.762852941 6.59626957,0.512558824 L6.59626957,0.512558824 C5.99881739,0.263352941 5.30307826,0.138205882 4.52561739,0.138205882 L4.52561739,0.138205882 C3.82104348,0.138205882 3.16837391,0.259 2.58748696,0.494058824" id="path-7"></path>
        <polygon id="path-9" points="0.420535652 0.285117647 9.93903486 0.285117647 9.93903486 21.4302912 0.420535652 21.4302912"></polygon>
        <path d="M2.88786957,0.956558824 C1.7294087,0.956558824 0.790713043,1.88155882 0.790713043,3.02311765 L0.790713043,3.02311765 L0.790713043,16.0993529 C0.790713043,17.2398235 1.7294087,18.1659118 2.88786957,18.1659118 L2.88786957,18.1659118 C4.04633043,18.1659118 4.98502609,17.2398235 4.98502609,16.0993529 L4.98502609,16.0993529 L4.98502609,7.85270588 L13.9711043,16.7065882 C14.7905304,17.5140588 16.1168522,17.5140588 16.9373826,16.7065882 L16.9373826,16.7065882 C17.7557043,15.9002059 17.7557043,14.5910588 16.9373826,13.7846765 L16.9373826,13.7846765 L8.11364348,5.09076471 L16.157713,5.09076471 C17.3150696,5.09076471 18.2537652,4.16467647 18.2537652,3.02311765 L18.2537652,3.02311765 C18.2537652,1.88155882 17.3150696,0.956558824 16.157713,0.956558824 L16.157713,0.956558824 L2.88786957,0.956558824 Z" id="path-11"></path>
    </defs>
    <g id="upwest-labs" stroke="none" stroke-width="1" fill="none" fill-rule="evenodd">
        <g id="Group-30" transform="translate(0.000000, -1.000000)">
            <g id="Group-3" transform="translate(82.826087, 25.833074)">
                <mask id="mask-2" fill="white">
                    <use xlink:href="#path-1"></use>
                </mask>
                <g id="Clip-2"></g>
                <polygon id="Fill-1" fill="#FFFFFF" mask="url(#mask-2)" points="0.992808696 0.311235294 0.992808696 10.7104118 7.68957391 10.7104118 7.68957391 9.24347059 2.62834783 9.24347059 2.62834783 0.311235294"></polygon>
            </g>
            <g id="Group-6" transform="translate(92.765217, 25.833074)">
                <mask id="mask-4" fill="white">
                    <use xlink:href="#path-3"></use>
                </mask>
                <g id="Clip-5"></g>
                <path d="M4.25173913,0.311235294 L0.199886957,10.7104118 L1.94033913,10.7104118 L3.07008696,7.64376471 L7.17494783,7.64376471 L8.37316522,10.7104118 L10.2229478,10.7104118 L5.93918261,0.397205882 L5.90494783,0.311235294 L4.25173913,0.311235294 Z M4.62390435,3.49214706 C4.80170435,3.01658824 4.9507913,2.53232353 5.07006087,2.04697059 L5.07006087,2.04697059 C5.21914783,2.50729412 5.4124087,3.04705882 5.64653043,3.65973529 L5.64653043,3.65973529 L6.65038261,6.28020588 L3.56483478,6.28020588 L4.62390435,3.49214706 Z" id="Fill-4" fill="#FFFFFF" mask="url(#mask-4)"></path>
            </g>
            <g id="Group-9" transform="translate(104.913043, 25.833074)">
                <mask id="mask-6" fill="white">
                    <use xlink:href="#path-5"></use>
                </mask>
                <g id="Clip-8"></g>
                <path d="M1.06017391,0.311235294 L1.06017391,10.7104118 L5.11644348,10.7104118 C5.77905217,10.7104118 6.3477913,10.6516471 6.80830435,10.5362941 L6.80830435,10.5362941 C7.27433913,10.4198529 7.66969565,10.2446471 7.98222609,10.0128529 L7.98222609,10.0128529 C8.29696522,9.78105882 8.56421739,9.44805882 8.77735652,9.02038235 L8.77735652,9.02038235 C8.98828696,8.59597059 9.0954087,8.13129412 9.0954087,7.63832353 L9.0954087,7.63832353 C9.0954087,7.02238235 8.9176087,6.47935294 8.56753043,6.02120588 L8.56753043,6.02120588 C8.27156522,5.64032353 7.86847826,5.35085294 7.36268696,5.15714706 L7.36268696,5.15714706 C7.73043478,4.93297059 8.01866957,4.65655882 8.21966087,4.33226471 L8.21966087,4.33226471 C8.47034783,3.92852941 8.59734783,3.49323529 8.59734783,3.03726471 L8.59734783,3.03726471 C8.59734783,2.54973529 8.4559913,2.07526471 8.17327826,1.62908824 L8.17327826,1.62908824 C7.89166957,1.18182353 7.49631304,0.846647059 6.99825217,0.630088235 L6.99825217,0.630088235 C6.51013043,0.417882353 5.85414783,0.311235294 5.05349565,0.311235294 L5.05349565,0.311235294 L1.06017391,0.311235294 Z M2.69571304,1.77817647 L4.61175652,1.77817647 C5.3317913,1.77817647 5.8442087,1.82388235 6.13244348,1.91420588 L6.13244348,1.91420588 C6.40853043,2.00017647 6.61283478,2.15252941 6.7586087,2.38214706 L6.7586087,2.38214706 C6.90769565,2.61394118 6.98389565,2.88817647 6.98389565,3.19723529 L6.98389565,3.19723529 C6.98389565,3.52044118 6.90438261,3.78923529 6.74756522,4.00035294 L6.74756522,4.00035294 C6.59074783,4.20929412 6.35110435,4.36273529 6.03636522,4.45523529 L6.03636522,4.45523529 C5.7889913,4.53032353 5.36602609,4.56623529 4.78072174,4.56623529 L4.78072174,4.56623529 L2.69571304,4.56623529 L2.69571304,1.77817647 Z M2.69571304,6.03426471 L4.93422609,6.03426471 C5.57143478,6.03426471 6.06286957,6.08758824 6.39527826,6.19641176 L6.39527826,6.19641176 C6.71222609,6.29870588 6.96291304,6.47935294 7.14071304,6.73182353 L7.14071304,6.73182353 C7.32072174,6.98538235 7.41127826,7.29117647 7.41127826,7.63832353 L7.41127826,7.63832353 C7.41127826,7.93541176 7.34833043,8.20094118 7.22464348,8.42620588 L7.22464348,8.42620588 C7.10095652,8.65147059 6.94303478,8.82341176 6.7541913,8.93876471 L6.7541913,8.93876471 C6.55872174,9.05847059 6.31134783,9.14444118 6.01648696,9.19667647 L6.01648696,9.19667647 C5.89832174,9.21844118 5.64542609,9.24347059 5.11644348,9.24347059 L5.11644348,9.24347059 L2.69571304,9.24347059 L2.69571304,6.03426471 Z" id="Fill-7" fill="#FFFFFF" mask="url(#mask-6)"></path>
            </g>
            <g id="Group-12" transform="translate(117.060870, 25.833074)">
                <mask id="mask-8" fill="white">
                    <use xlink:href="#path-7"></use>
                </mask>
                <g id="Clip-11"></g>
                <path d="M2.58748696,0.494058824 C1.99776522,0.734558824 1.54277391,1.09258824 1.23466087,1.55835294 L1.23466087,1.55835294 C0.927652174,2.02302941 0.770834783,2.52905882 0.770834783,3.06447059 L0.770834783,3.06447059 C0.770834783,3.55417647 0.900043478,4.00361765 1.15293913,4.39864706 L1.15293913,4.39864706 C1.40693913,4.79476471 1.79346087,5.12667647 2.30256522,5.38894118 L2.30256522,5.38894118 C2.69129565,5.59352941 3.37046957,5.81008824 4.31910435,6.03317647 L4.31910435,6.03317647 C5.25227826,6.25408824 5.86077391,6.4195 6.13133913,6.52288235 L6.13133913,6.52288235 C6.53442609,6.67305882 6.82486957,6.86023529 6.99604348,7.07679412 L6.99604348,7.07679412 C7.16611304,7.29117647 7.24783478,7.53602941 7.24783478,7.82441176 L7.24783478,7.82441176 C7.24783478,8.11170588 7.16169565,8.36961765 6.9827913,8.61229412 L6.9827913,8.61229412 C6.80609565,8.85497059 6.5278,9.04758824 6.15894783,9.19123529 L6.15894783,9.19123529 C5.77794783,9.33597059 5.33289565,9.40888235 4.83483478,9.40888235 L4.83483478,9.40888235 C4.27272174,9.40888235 3.76251304,9.31094118 3.31193913,9.1205 L3.31193913,9.1205 C2.87130435,8.93005882 2.54331304,8.68302941 2.33790435,8.38158824 L2.33790435,8.38158824 C2.12918261,8.07579412 1.99445217,7.67532353 1.93592174,7.19432353 L1.93592174,7.19432353 L1.92046087,7.06264706 L0.374373913,7.19541176 L0.377686957,7.32382353 C0.397565217,8.02247059 0.59413913,8.65908824 0.9652,9.21517647 L0.9652,9.21517647 C1.33626087,9.77126471 1.85530435,10.1945882 2.50576522,10.4720882 L2.50576522,10.4720882 C3.1473913,10.7441471 3.95246087,10.8823529 4.89778261,10.8823529 L4.89778261,10.8823529 C5.64873913,10.8823529 6.33453913,10.7452353 6.93530435,10.4731765 L6.93530435,10.4731765 C7.54269565,10.1989412 8.01756522,9.80826471 8.34334783,9.31094118 L8.34334783,9.31094118 C8.66913043,8.81579412 8.83478261,8.27820588 8.83478261,7.7145 L8.83478261,7.7145 C8.83478261,7.14535294 8.68348696,6.63605882 8.3842087,6.1975 L8.3842087,6.1975 C8.08603478,5.76329412 7.62,5.39982353 7.00156522,5.11797059 L7.00156522,5.11797059 C6.58191304,4.93079412 5.80666087,4.70988235 4.70010435,4.46176471 L4.70010435,4.46176471 C3.35721739,4.1625 2.87903478,3.92308824 2.71117391,3.77291176 L2.71117391,3.77291176 C2.47263478,3.56179412 2.35778261,3.30170588 2.35778261,2.97523529 L2.35778261,2.97523529 C2.35778261,2.59761765 2.52564348,2.27985294 2.8702,2.00779412 L2.8702,2.00779412 C3.21917391,1.73247059 3.79564348,1.59208824 4.58193913,1.59208824 L4.58193913,1.59208824 C5.33510435,1.59208824 5.90826087,1.74770588 6.28594783,2.05241176 L6.28594783,2.05241176 C6.65921739,2.35385294 6.8811913,2.81091176 6.94634783,3.41161765 L6.94634783,3.41161765 L6.9618087,3.54220588 L8.53108696,3.42576471 L8.52556522,3.29626471 C8.50237391,2.67923529 8.32567826,2.11770588 7.9987913,1.63017647 L7.9987913,1.63017647 C7.67190435,1.13938235 7.19924348,0.762852941 6.59626957,0.512558824 L6.59626957,0.512558824 C5.99881739,0.263352941 5.30307826,0.138205882 4.52561739,0.138205882 L4.52561739,0.138205882 C3.82104348,0.138205882 3.16837391,0.259 2.58748696,0.494058824" id="Fill-10" fill="#FFFFFF" mask="url(#mask-8)"></path>
            </g>
            <g id="Group-24" transform="translate(0.000000, 0.803662)">
                <path d="M108.794605,10.9158706 L105.249649,10.9158706 C104.465562,10.9158706 103.836083,10.2825176 103.836083,9.49463529 C103.836083,8.70675294 104.465562,8.06251765 105.249649,8.06251765 L107.027649,8.06251765 L111.489214,8.06251765 C112.538344,8.06251765 113.399736,7.20825294 113.399736,6.14178235 C113.399736,5.26466471 112.814431,4.53228235 112.019301,4.29831176 C111.853649,4.2439 111.676953,4.22104706 111.489214,4.22104706 L111.135823,4.22104706 L107.027649,4.22104706 L104.465562,4.22104706 C101.925562,4.22104706 99.8604313,6.28651765 99.8604313,8.85148824 L99.8604313,10.0507235 C99.8604313,10.4936353 99.9266922,10.9267529 100.04817,11.3381059 C100.600344,13.2806059 102.367301,14.6909588 104.465562,14.6909588 L108.054692,14.6909588 C108.838779,14.6909588 109.468257,15.3678412 109.468257,16.1557235 C109.468257,16.9446941 108.838779,17.5780471 108.054692,17.5780471 L106.232518,17.5780471 L101.770953,17.5780471 C100.721823,17.5780471 99.8604313,18.4431941 99.8604313,19.4987824 C99.8604313,20.2638118 100.30217,20.9189294 100.931649,21.2192824 C101.185649,21.3640176 101.472779,21.4304 101.770953,21.4304 L106.232518,21.4304 C106.36504,21.4304 106.486518,21.4184294 106.61904,21.3857824 L108.794605,21.3857824 C111.334605,21.3857824 113.399736,19.3094294 113.399736,16.7564294 L113.399736,15.5452235 C113.399736,15.0794588 113.333475,14.6245765 113.200953,14.1914588 C112.626692,12.2924882 110.870779,10.9158706 108.794605,10.9158706" id="Fill-13" fill="#FFFFFF"></path>
                <path d="M15.0737957,6.28771471 C15.0737957,5.14615588 14.1351,4.22115588 12.9766391,4.22115588 C11.8181783,4.22115588 10.8794826,5.14615588 10.8794826,6.28771471 L10.8794826,17.2973912 L5.73543043,17.2973912 C4.88397826,17.2973912 4.19376087,16.6172441 4.19376087,15.7782147 L4.19376087,6.39871471 C4.19376087,5.36924412 3.48035217,4.41486176 2.4488913,4.24945 C1.13582174,4.03942059 0.000552173913,5.03297941 0.000552173913,6.28771471 L0.000552173913,17.2973912 C0.000552173913,19.5794206 1.87794348,21.4305088 4.19376087,21.4305088 L12.9766391,21.4305088 C13.1290391,21.4305088 13.2770217,21.4120088 13.420587,21.3815382 C13.4680739,21.3717441 13.5122478,21.3532441 13.5586304,21.3401853 C13.6513957,21.3129794 13.7441609,21.2857735 13.8314043,21.2476853 C13.8833087,21.2248324 13.9296913,21.1943618 13.979387,21.1682441 C14.0544826,21.1268912 14.1295783,21.0866265 14.1991522,21.0365676 C14.2466391,21.0017441 14.290813,20.9636559 14.334987,20.9255676 C14.3979348,20.8733324 14.4586739,20.8189206 14.5149957,20.7590676 C14.5558565,20.7155382 14.5923,20.6687441 14.6298478,20.62195 C14.6795435,20.5588324 14.7259261,20.4935382 14.7678913,20.4238912 C14.798813,20.3727441 14.8275261,20.3205088 14.8551348,20.2660971 C14.8915783,20.1931853 14.9213957,20.1170088 14.9490043,20.0397441 C14.969987,19.9820676 14.9887609,19.9254794 15.0042217,19.8667147 C15.0252043,19.7850971 15.0373522,19.7013029 15.0483957,19.6164206 C15.0550217,19.5554794 15.0649609,19.4956265 15.0671696,19.4335971 C15.0671696,19.4096559 15.0737957,19.3878912 15.0737957,19.36395 L15.0737957,6.28771471 Z" id="Fill-15" fill="#FFFFFF"></path>
                <path d="M77.6512235,4.22126471 C76.4927626,4.22126471 75.554067,5.14626471 75.554067,6.28782353 L75.554067,17.2975 L71.82358,17.2975 C70.9721278,17.2975 70.2819104,16.6173529 70.2819104,15.7783235 L70.2819104,6.39773529 C70.2819104,5.36935294 69.5685017,4.41497059 68.5370409,4.24955882 C67.222867,4.03952941 66.0875974,5.03308824 66.0875974,6.28782353 L66.0875974,17.2975 L62.4101191,17.2975 C61.558667,17.2975 60.8684496,16.6173529 60.8684496,15.7783235 L60.8684496,6.39773529 C60.8684496,5.36935294 60.1550409,4.41497059 59.12358,4.24955882 C57.8094061,4.03952941 56.6741365,5.03308824 56.6741365,6.28782353 L56.6741365,17.2975 C56.6741365,19.5795294 58.5526322,21.4295294 60.8684496,21.4295294 L69.6502235,21.4295294 C69.7540322,21.4295294 69.8523191,21.4110294 69.9517104,21.3979706 C70.0621452,21.4066765 70.169267,21.4295294 70.2819104,21.4295294 L76.595467,21.4295294 C76.779893,21.4295294 76.9565887,21.4012353 77.1255539,21.3566176 C77.2945191,21.4001471 77.4690061,21.4295294 77.6512235,21.4295294 C78.8096843,21.4295294 79.74838,20.5045294 79.74838,19.3640588 L79.74838,6.28782353 C79.74838,5.14626471 78.8096843,4.22126471 77.6512235,4.22126471" id="Fill-17" fill="#FFFFFF"></path>
                <g id="Group-21" transform="translate(115.956522, 0.000000)">
                    <mask id="mask-10" fill="white">
                        <use xlink:href="#path-9"></use>
                    </mask>
                    <g id="Clip-20"></g>
                    <path d="M9.91019652,19.0165853 C9.74344,18.0001735 8.77492696,17.2971735 7.72910957,17.2971735 L6.15651826,17.2971735 C5.30506609,17.2971735 4.6148487,16.6170265 4.6148487,15.7779971 L4.6148487,8.35514412 L7.62530087,8.35514412 C8.78376174,8.35514412 9.72245739,7.42905588 9.72245739,6.28749706 C9.72245739,5.14593824 8.78376174,4.22093824 7.62530087,4.22093824 L4.6148487,4.22093824 L4.6148487,2.46235 C4.6148487,1.43287941 3.90144,0.478497059 2.86997913,0.313085294 C1.55690957,0.101967647 0.420535652,1.09661471 0.420535652,2.35135 L0.420535652,17.2971735 C0.420535652,19.5802912 2.29792696,21.4302912 4.6148487,21.4302912 L7.84175304,21.4302912 C9.11617043,21.4302912 10.12444,20.3115853 9.91019652,19.0165853" id="Fill-19" fill="#FFFFFF" mask="url(#mask-10)"></path>
                </g>
                <path d="M95.1228896,17.2970647 L87.99322,17.2970647 C87.1417678,17.2970647 86.4526548,16.6169176 86.4526548,15.7778882 L86.4526548,14.8920647 L92.64142,14.8920647 C93.7998809,14.8920647 94.7385765,13.9670647 94.7385765,12.8255059 C94.7385765,11.6839471 93.7998809,10.7589471 92.64142,10.7589471 L86.4526548,10.7589471 L86.4526548,8.35503529 L95.235533,8.35503529 C96.3928896,8.35503529 97.3315852,7.42894706 97.3315852,6.28738824 C97.3315852,5.14582941 96.3928896,4.22082941 95.235533,4.22082941 L84.3554983,4.22082941 C84.3312026,4.22082941 84.3091157,4.22735882 84.2859243,4.22844706 C84.2218722,4.23062353 84.1600287,4.23932941 84.0981852,4.24694706 C84.0120461,4.25782941 83.9281157,4.2698 83.8463939,4.28938824 C83.7845504,4.30462353 83.7271243,4.32421176 83.6674896,4.34488824 C83.5901852,4.37100588 83.5139852,4.40038824 83.4399939,4.4363 C83.3847765,4.46350588 83.3317678,4.4918 83.2787591,4.52335882 C83.2080809,4.56471176 83.1429243,4.60932941 83.0788722,4.6583 C83.0302809,4.6953 82.9838983,4.7323 82.93862,4.77256471 C82.8789852,4.82806471 82.8237678,4.88682941 82.7696548,4.94885882 C82.7310026,4.99238824 82.6923504,5.03591765 82.6570113,5.0838 C82.6073157,5.15127059 82.5653504,5.22527059 82.5244896,5.29927059 C82.4968809,5.34824118 82.4670635,5.39394706 82.4438722,5.44509412 C82.4041157,5.53106471 82.376507,5.62247647 82.3500026,5.71388824 C82.3367504,5.75959412 82.3179765,5.80312353 82.3080374,5.84991765 C82.2760113,5.99138824 82.2583417,6.13721176 82.2583417,6.28738824 L82.2583417,17.2970647 C82.2583417,19.5801824 84.135733,21.4301824 86.4526548,21.4301824 L95.235533,21.4301824 C96.5088461,21.4301824 97.5171157,20.3114765 97.3039765,19.0164765 C97.1350113,18.0000647 96.1676026,17.2970647 95.1228896,17.2970647" id="Fill-22" fill="#FFFFFF"></path>
            </g>
            <g id="Group-27" transform="translate(34.234783, 4.068368)">
                <mask id="mask-12" fill="white">
                    <use xlink:href="#path-11"></use>
                </mask>
                <g id="Clip-26"></g>
                <path d="M2.88786957,0.956558824 C1.7294087,0.956558824 0.790713043,1.88155882 0.790713043,3.02311765 L0.790713043,3.02311765 L0.790713043,16.0993529 C0.790713043,17.2398235 1.7294087,18.1659118 2.88786957,18.1659118 L2.88786957,18.1659118 C4.04633043,18.1659118 4.98502609,17.2398235 4.98502609,16.0993529 L4.98502609,16.0993529 L4.98502609,7.85270588 L13.9711043,16.7065882 C14.7905304,17.5140588 16.1168522,17.5140588 16.9373826,16.7065882 L16.9373826,16.7065882 C17.7557043,15.9002059 17.7557043,14.5910588 16.9373826,13.7846765 L16.9373826,13.7846765 L8.11364348,5.09076471 L16.157713,5.09076471 C17.3150696,5.09076471 18.2537652,4.16467647 18.2537652,3.02311765 L18.2537652,3.02311765 C18.2537652,1.88155882 17.3150696,0.956558824 16.157713,0.956558824 L16.157713,0.956558824 L2.88786957,0.956558824 Z" id="Fill-25" fill="#FFFFFF" mask="url(#mask-12)"></path>
            </g>
            <path d="M28.4834496,16.9730971 C28.4834496,17.8208324 27.7866061,18.5085971 26.9252148,18.5085971 L21.8220235,18.5085971 L21.8220235,8.97456765 L26.9252148,8.97456765 C27.7866061,8.97456765 28.4834496,9.66233235 28.4834496,10.5100676 L28.4834496,16.9730971 Z M27.6121191,5.02536176 L19.724867,5.02536176 C18.5664061,5.02536176 17.6277104,5.95036176 17.6277104,7.09083235 L17.6277104,25.5951853 C17.6277104,26.7367441 18.5664061,27.6617441 19.724867,27.6617441 C20.8833278,27.6617441 21.8220235,26.7367441 21.8220235,25.5951853 L21.8220235,22.2336265 L27.6121191,22.2336265 C30.215067,22.2336265 32.3254757,20.1540088 32.3254757,17.58795 L32.3254757,9.66995 C32.3254757,7.10497941 30.215067,5.02536176 27.6121191,5.02536176 L27.6121191,5.02536176 Z" id="Fill-28" fill="#FFFFFF"></path>
        </g>
    </g>
</svg>