<?xml version="1.0" encoding="UTF-8"?>
<svg width="291px" height="92px" viewBox="0 0 291 92" version="1.1" xmlns="http://www.w3.org/2000/svg" xmlns:xlink="http://www.w3.org/1999/xlink">
    <!-- Generator: Sketch 54.1 (76490) - https://sketchapp.com -->
    <title>Group 2</title>
    <desc>Created with Sketch.</desc>
    <defs>
        <linearGradient x1="50%" y1="45.0721129%" x2="39.7723144%" y2="61.5049761%" id="linearGradient-1">
            <stop stop-color="#FFD600" offset="0%"></stop>
            <stop stop-color="#000000" stop-opacity="0" offset="100%"></stop>
        </linearGradient>
        <radialGradient cx="0%" cy="104.336364%" fx="0%" fy="104.336364%" r="439.339139%" gradientTransform="translate(0.000000,1.043364),scale(0.313939,1.000000),translate(-0.000000,-1.043364)" id="radialGradient-2">
            <stop stop-color="#DCBB74" offset="0%"></stop>
            <stop stop-color="#C49145" offset="46.7296281%"></stop>
            <stop stop-color="#DCBB74" offset="100%"></stop>
        </radialGradient>
        <path d="M52.8756804,0.477165731 L26.585063,0.477165731 C21.1488756,0.477165731 17.9204483,3.11081025 16.8962897,8.37693806 C15.8709672,13.6419046 18.7863279,19.4189688 25.6400439,25.7069692 C29.7948693,28.9688332 29.0872687,30.5213829 23.513751,30.3646183 L0,30.3646183 L0,43.0370004 L37.2188555,43.0370004 C43.3626434,42.016289 46.4933101,38.8717082 46.6120194,33.6055804 C46.7307287,28.3394525 43.5988982,22.9165602 37.2188555,17.335742 C33.655249,14.3885684 34.4035831,12.9939445 39.4638577,13.150709 L61.3121871,13.150709 L61.3121871,43.0358392 L75.1965194,43.0358392 L75.1965194,13.150709 L88.7258876,13.150709 L88.7258876,0.477165731 L52.8756804,0.477165731 Z M86.0875153,43.0358392 L100.118488,0.477165731 L121.298787,0.477165731 L135.567179,43.0358392 L119.437844,43.0358392 L116.750592,35.3729555 L104.077793,35.3729555 L101.388212,43.0358392 L86.0875153,43.0358392 Z M110.754609,9.90858581 L104.639916,26.7683233 L116.396791,26.7683233 L110.754609,9.90858581 Z" id="path-3"></path>
        <linearGradient x1="50%" y1="38.5042462%" x2="39.7723144%" y2="76.8387584%" id="linearGradient-4">
            <stop stop-color="#FFD600" offset="0%"></stop>
            <stop stop-color="#000000" stop-opacity="0" offset="100%"></stop>
        </linearGradient>
        <radialGradient cx="0%" cy="104.336364%" fx="0%" fy="104.336364%" r="287.648123%" gradientTransform="translate(0.000000,1.043364),scale(0.479495,1.000000),translate(-0.000000,-1.043364)" id="radialGradient-5">
            <stop stop-color="#DCBB74" offset="0%"></stop>
            <stop stop-color="#C49145" offset="46.7296281%"></stop>
            <stop stop-color="#DCBB74" offset="100%"></stop>
        </radialGradient>
        <path d="M135.059019,43.2133763 L135.059019,0.477165731 L162.849186,0.477165731 C166.279711,0.793168816 169.098682,1.6991998 171.3061,3.19992294 C173.514683,4.69948001 175.130349,6.71210483 176.156595,9.23779738 C176.944043,13.0263362 176.982483,15.9461581 176.273081,17.998429 C175.563679,20.0507 174.323098,21.7671448 172.54901,23.1489295 C170.774922,24.5295481 168.230858,25.6151528 164.922644,26.4034115 L168.112042,30.4892964 L188.972431,30.4892964 L188.972431,43.2145424 L164.032688,43.2145424 L150.491141,29.0970171 L150.491141,43.2145424 L135.059019,43.2145424 L135.059019,43.2133763 L135.059019,43.2133763 Z M150.491141,11.1314838 L150.491141,19.0035754 L161.254486,19.0035754 C161.82527,19.0035754 162.446143,18.792518 163.11594,18.368071 C163.786901,17.9436241 164.142185,16.8743443 164.182955,15.1567334 C164.082777,13.5195809 163.682064,12.4386404 162.98431,11.9162442 C162.283062,11.393848 161.697135,11.1326498 161.225365,11.1326498 L150.491141,11.1326498 L150.491141,11.1314838 Z M31.3989156,72.9759694 L26.9048694,91.0884267 L13.008039,91.0884267 L0,48.349884 L13.8956655,48.349884 L19.7491083,66.8203226 L24.8337407,48.349884 L37.6064771,48.349884 L43.5507793,66.8203226 L47.5124826,48.349884 L61.4081481,48.349884 L50.7053755,91.0884267 L36.8085451,91.0884267 L31.3989156,72.9759694 L31.3989156,72.9759694 Z M55.0316813,91.0884267 L69.0752846,48.349884 L90.2746489,48.349884 L104.555884,91.0884267 L88.4108661,91.0884267 L85.7211946,83.3924106 L73.0381527,83.3924106 L70.3461515,91.0884267 L55.0316813,91.0884267 Z M79.719814,57.8218141 L73.5996173,74.7507174 L85.3670758,74.7507174 L79.719814,57.8218141 Z" id="path-6"></path>
        <linearGradient x1="50%" y1="37.4354262%" x2="39.7723144%" y2="79.3340975%" id="linearGradient-7">
            <stop stop-color="#FFD600" offset="0%"></stop>
            <stop stop-color="#000000" stop-opacity="0" offset="100%"></stop>
        </linearGradient>
        <radialGradient cx="0%" cy="104.336364%" fx="0%" fy="104.336364%" r="275.141683%" gradientTransform="translate(0.000000,1.043364),scale(0.501290,1.000000),translate(-0.000000,-1.043364)" id="radialGradient-8">
            <stop stop-color="#DCBB74" offset="0%"></stop>
            <stop stop-color="#C49145" offset="46.7296281%"></stop>
            <stop stop-color="#DCBB74" offset="100%"></stop>
        </radialGradient>
        <path d="M173.036969,61.2481961 L188.972431,61.1821112 L188.972431,48.528592 L160.153796,48.5946769 C154.715088,48.5946769 151.487019,51.2241603 150.461441,56.4819676 C149.438191,61.739775 152.353115,67.5077114 159.208541,73.7846175 C163.364404,77.0436465 162.655462,78.5914244 157.080554,78.4360669 L137.106804,78.4360669 L133.914823,74.3735847 C137.225543,73.5898409 139.766789,72.5104542 141.540888,71.1377433 C143.311495,69.7627137 144.553597,68.0584189 145.262538,66.0179027 C145.969151,63.9750677 145.930736,61.0719697 145.1438,57.3062898 C144.120549,54.7950636 142.503605,52.7951259 140.298786,51.3029984 C138.091639,49.8108709 135.276828,48.9100294 131.847369,48.5946769 L104.071774,48.5946769 L104.071774,91.0884267 L119.496192,91.0884267 L119.496192,77.0517622 L133.028937,91.0884267 L170.790243,91.0884267 C176.937892,90.0670092 180.067012,86.9285562 180.184587,81.6707488 C180.302162,76.4129415 177.171878,70.9986172 170.790243,65.4277761 C167.226911,62.485259 167.973103,61.0916792 173.036969,61.2481961 L173.036969,61.2481961 Z M132.112785,66.3842681 C131.442259,66.8051246 130.824118,67.0184513 130.250214,67.0184513 L119.496192,67.0184513 L119.496192,59.1902891 L130.221111,59.1902891 C130.696067,59.1902891 131.280448,59.4488318 131.978913,59.9693953 C132.679705,60.4899588 133.078994,61.5635486 133.176779,63.191324 C133.136035,64.899097 132.784475,65.9634116 132.112785,66.3842681 Z" id="path-9"></path>
    </defs>
    <g id="Page-1" stroke="none" stroke-width="1" fill="none" fill-rule="evenodd">
        <g id="Desktop-HD" transform="translate(-299.000000, -467.000000)" fill-rule="nonzero">
            <g id="Group-2" transform="translate(299.000000, 467.000000)">
                <g id="Group" transform="translate(100.869565, 0.214113)">
                    <g id="Shape">
                        <use fill="#FC8900" xlink:href="#path-3"></use>
                        <use stroke="url(#radialGradient-2)" stroke-width="1" fill="url(#linearGradient-1)" xlink:href="#path-3"></use>
                    </g>
                    <g id="Shape">
                        <use fill="#FC8900" xlink:href="#path-6"></use>
                        <use stroke="url(#radialGradient-5)" stroke-width="1" fill="url(#linearGradient-4)" xlink:href="#path-6"></use>
                    </g>
                    <g id="Shape">
                        <use fill="#FC8900" xlink:href="#path-9"></use>
                        <use stroke="url(#radialGradient-8)" stroke-width="1" fill="url(#linearGradient-7)" xlink:href="#path-9"></use>
                    </g>
                </g>
                <g id="LEGO_logo">
                    <polygon id="path2" fill="#FFFFFF" points="0.611754029 0.613332126 0.611754029 90.5021474 90.2835132 90.5021474 90.2835132 0.613332126"></polygon>
                    <path d="M0.611754029,0.613332126 L0.611754029,90.5021474 L90.2835132,90.5021474 L90.2835132,0.613332126 L0.611754029,0.613332126 Z M84.3224681,37.9838012 C84.1801997,40.7794546 83.2839089,44.2597578 82.5014329,46.598978 C79.3430749,55.9843859 75.6867775,61.8181728 67.221809,61.8181728 C64.7321124,61.8181728 60.3075658,61.1477866 58.6857063,56.6975628 L58.2873548,55.6563245 L57.6044666,56.5264003 C55.0076138,59.8640973 51.0283967,61.8246728 46.8062966,61.8466999 C43.5768044,61.8609635 40.9732931,60.7769346 39.3087531,58.7087216 L38.8392674,58.1381801 L38.3555549,58.6801945 C36.5629734,60.6770898 33.433069,61.8181728 29.7767717,61.8181728 C27.1706418,61.9223346 24.6408741,60.9233455 22.8056211,59.06531 L22.378816,58.5803498 L21.9093303,59.0510465 C20.0882951,60.8767793 17.2429275,61.8039093 13.6577644,61.7183281 C9.29012514,61.6184833 6.64393329,59.1794183 6.55857226,55.1998913 C6.41630388,49.06657 12.3488953,36.1580683 14.8101382,32.2355954 C16.1262299,29.775314 18.7131032,28.2688498 21.496752,28.3416496 C23.4885093,28.3416496 24.8400589,28.7552922 25.6367619,29.6111045 C26.3765574,30.3813355 26.5188258,31.0374583 26.5757332,32.620711 L26.6610942,34.6603969 L27.7423339,32.9345088 C30.3458452,28.7267651 34.6423502,28.1562236 38.9246284,28.1562236 C41.8838107,28.1562236 44.4730952,29.2402525 45.5116544,30.9376135 L45.895779,31.5652092 L46.4648525,31.0945124 C48.9444132,29.1243232 52.0375814,28.0939746 55.200131,28.1847507 C58.9417893,28.1847507 61.6733422,29.1118807 63.2952017,30.9661406 C63.6650995,31.3797832 63.9069558,31.6793175 64.2483999,32.3924944 L64.675205,33.2625702 L65.286959,32.5208662 C67.6862467,29.6852906 71.2554855,28.1170892 74.9612088,28.2703319 C78.1480205,28.2703319 80.5665829,29.1261442 82.1599888,30.7949781 C84.1517461,32.9059817 84.4362828,35.858534 84.3224681,37.9695376 L84.3224681,37.9838012 Z" id="path4" fill="#FFED00"></path>
                    <path d="M0.611754029,0.613332126 L0.611754029,90.5021474 L90.2835132,90.5021474 L90.2835132,0.613332126 L0.611754029,0.613332126 Z M86.8406184,41.4213138 C86.4280401,44.7019275 84.2228802,50.763931 83.0562795,53.1744689 C79.9263752,59.6786422 75.7152312,64.6566169 67.6201604,64.6566169 C63.2952017,64.6566169 59.7384923,63.2873172 57.6613739,60.6200357 C54.6613881,63.2727636 50.7920779,64.7249591 46.7920698,64.6994075 C43.6621655,64.6994075 40.9021589,63.8008046 38.7965869,62.1319707 C36.1479013,63.8767638 33.0303211,64.7676657 29.8621327,64.6851439 C27.1625898,64.7416903 24.5140388,63.9430788 22.293455,62.4029779 C19.6812956,64.0029826 16.6419179,64.759808 13.5866302,64.5710356 C7.79630716,64.4284003 3.78433888,60.7484075 3.67052417,55.3995808 C3.52825579,48.296339 9.5035277,35.2879925 12.3062148,30.7949781 C14.1816964,27.4531155 17.7293691,25.4065735 21.5536594,25.460415 C25.8217108,25.460415 27.3866629,26.6870792 28.1406853,28.2418049 C31.4413117,25.4461514 35.8089509,25.274989 38.9246284,25.274989 C42.3390695,25.274989 44.5015489,26.1878554 46.336811,27.6569998 C49.0332573,26.0711011 52.1175418,25.2708726 55.2428115,25.3463067 C59.6531312,25.3463067 62.9395308,26.3732814 65.2300517,28.6411839 C67.9975285,26.4243863 71.4635479,25.2711243 75.0038893,25.3890973 C79.9548289,25.3890973 83.2127748,27.1863031 85.119171,29.8535846 C87.8222702,33.6191586 87.3385577,37.4132597 86.8406184,41.4213138 L86.8406184,41.4213138 Z" id="path6" fill="#E3000B"></path>
                    <path d="M0,0 L0,91.1154795 L90.8810404,91.1154795 L90.8810404,0 L0,0 Z M89.6290786,1.25519133 L89.6290786,89.8602882 L1.25196173,89.8602882 L1.25196173,1.25519133 L89.6290786,1.25519133 Z" id="path8" fill="#000000"></path>
                    <path d="M86.3995864,27.343202 L86.3995864,26.7156063 L86.8263916,26.7156063 C87.1251552,26.7156063 87.2958772,26.8297146 87.2958772,27.0294041 C87.2958772,27.1863031 87.1962894,27.343202 86.8690721,27.343202 L86.3995864,27.343202 Z M87.9076313,28.6269204 L87.6515482,28.1704872 C87.4239188,27.7711081 87.3670114,27.714054 87.1678357,27.6427363 C87.5519603,27.5856821 87.7795897,27.343202 87.7795897,27.0008771 C87.7795897,26.6442886 87.5519603,26.3732814 87.0682478,26.3732814 L85.9301008,26.3732814 L85.9301008,28.6269204 L86.3995864,28.6269204 L86.3995864,27.6997904 L86.4849475,27.6997904 C86.6841232,27.6997904 86.7694842,27.7283175 86.8548453,27.8138987 C86.9544331,27.9137435 87.0824747,28.0991695 87.1678357,28.2560684 L87.3527846,28.6269204 L87.9218581,28.6269204 L87.9076313,28.6269204 Z M86.7979379,25.7314222 C87.4232195,25.7287192 88.0024259,26.0607199 88.3173127,26.602327 C88.6321996,27.1439341 88.6349117,27.8128363 88.3244272,28.3569921 C88.0139426,28.901148 87.4374476,29.2378588 86.8121647,29.2402525 C85.8457211,29.2402525 85.0622637,28.4547741 85.0622637,27.4858373 C85.0622637,26.5169006 85.8457211,25.7314222 86.8121647,25.7314222 L86.7979379,25.7314222 Z M86.7979379,25.3035161 C86.0202757,25.303516 85.3016861,25.7194641 84.912855,26.3946767 C84.5240238,27.0698892 84.5240238,27.9017854 84.912855,28.576998 C85.3016861,29.2522106 86.0202757,29.6681587 86.7979379,29.6681586 C88.0000995,29.6681586 88.974644,28.6911001 88.974644,27.4858373 C88.974644,26.2805746 88.0000995,25.3035161 86.7979379,25.3035161 Z M74.946982,27.6427363 C71.0589671,27.4938105 67.3185341,29.1453192 64.8032465,32.1214871 C64.5454386,31.54481 64.1945449,31.0147022 63.7646874,30.552498 C61.957879,28.5128121 59.0698309,27.557155 55.1859041,27.557155 C51.4015653,27.557155 48.2432073,28.7410287 46.0522742,30.6095521 C44.9141272,28.7552922 42.1825743,27.528628 38.9104016,27.528628 C34.6423502,27.528628 29.9759474,28.1419601 27.201714,32.6064474 C27.1448067,30.9946676 26.9883115,30.1388554 26.0920207,29.1831983 C24.9965542,28.0278518 23.2181994,27.714054 21.496752,27.714054 C18.4914591,27.6327899 15.6964588,29.2545415 14.2695184,31.9075341 C11.7940486,35.858534 5.79032302,48.8954076 5.9325914,55.2141548 C6.01795242,59.2935267 8.7495053,62.2318154 13.6293107,62.3459237 C17.4421032,62.4457685 20.443966,61.4187938 22.3503623,59.4932162 C24.3014052,61.4808652 26.9972676,62.5526719 29.7767717,62.4457685 C33.262347,62.4457685 36.7479222,61.3902667 38.8108137,59.1081007 C40.5607148,61.2476313 43.2922677,62.5028227 46.8062966,62.4885591 C51.2174455,62.4611802 55.3736584,60.4118683 58.0881791,56.9257794 C59.5393165,60.8767793 63.2098407,62.4457685 67.221809,62.4457685 C76.0139948,62.4457685 79.8836947,56.3837649 83.0989601,46.7986675 C83.8103019,44.6448733 84.7919538,41.0361983 84.948449,38.0123282 C85.2045321,32.9772994 83.0847332,27.6427363 74.946982,27.6427363 Z M16.4604514,51.7481152 C21.0130395,50.949357 22.1511866,52.6039274 22.0089182,54.1158624 C21.5821131,58.6801945 17.3994227,59.7071692 13.7573522,59.621588 C11.1396141,59.5645339 8.76373213,58.3521332 8.69259794,55.2854725 C8.57878324,49.9223823 14.041889,37.5131044 16.6027198,33.4052055 C17.7977742,31.4511009 19.2346848,30.4811803 21.5394326,30.4811803 C23.7303656,30.4811803 24.2709854,31.6222633 24.2425317,32.9630359 C24.1571707,36.5431839 18.3668477,47.4690538 16.4604514,51.7338516 L16.4604514,51.7481152 Z M31.2705897,47.526108 C30.7605409,48.9493993 30.3189998,50.3964397 29.9474937,51.8622235 C31.4167842,51.4362314 32.9426146,51.2389974 34.4716282,51.2774184 C36.6483344,51.3344726 38.0567913,52.2330754 38.0567913,54.0445447 C38.0567913,58.4377144 33.2196664,59.7214328 29.8479059,59.7356963 C26.1631549,59.7356963 22.9194358,57.6246927 22.9194358,53.5881115 C22.9194358,48.8383534 25.4802666,41.6495304 27.8988291,36.8712452 C30.8437845,30.9804041 33.874101,30.2101731 39.0668968,30.2101731 C41.3431909,30.2101731 43.9751559,31.1800936 43.9751559,33.3481514 C43.9751559,36.3434943 41.4427787,37.4845773 38.9388553,37.6272127 C37.8576156,37.6985304 36.2073024,37.7555846 35.2256506,37.6842669 C35.2256506,37.6842669 34.3862672,38.9679853 33.5042032,41.2358878 C38.1563792,40.5797651 40.1196828,41.6352668 39.3372067,44.3310755 C38.2701939,47.9682776 35.1260627,48.2107578 31.2705897,47.526108 L31.2705897,47.526108 Z M54.147345,36.1865954 C52.8811564,36.1865954 52.0702266,36.9853535 51.4442458,37.8411658 C50.106923,39.7524799 47.1761944,47.3549455 46.7209356,50.4786603 C46.422172,52.618191 47.3326896,53.0460971 48.3427951,53.0460971 C49.9646546,53.0460971 51.771463,51.3344726 52.3974439,48.5102921 C52.3974439,48.5102921 49.3102201,48.4389744 50.1638304,45.7003751 C50.988987,43.0473571 52.5539391,42.4768156 55.1432236,42.3627073 C60.2506584,42.1487542 59.7384923,45.9285917 59.3401408,47.9540141 C58.002818,54.5009779 53.3648689,59.7499599 46.7920698,59.7499599 C42.296389,59.7499599 39.493702,57.2538407 39.493702,52.6609816 C39.493702,49.3803679 41.1155615,44.2454943 42.4102037,41.2216243 C45.1417566,34.8030322 48.0155778,30.3385449 55.3139457,30.3385449 C59.7100386,30.3385449 63.1671602,31.9075341 62.654994,36.04396 C62.2850962,39.0535665 60.7770514,40.8365087 58.0312717,41.0361983 C57.2630225,41.107516 54.1331181,41.0361983 55.1716773,38.0408553 C55.5415751,36.9996171 55.6838435,36.1865954 54.147345,36.1865954 L54.147345,36.1865954 Z M81.7474105,41.6067398 C80.9791612,45.457895 79.243487,50.0222271 77.3513176,53.4169491 C74.2783206,58.9797288 70.5366622,59.7499599 67.2644895,59.7071692 C64.0065436,59.6643786 60.3217926,58.4662415 60.2933389,53.4169491 C60.2791121,49.7940105 61.8440643,44.6734004 63.1671602,41.321469 C65.4719079,35.2309384 67.833563,30.2814908 75.2884261,30.367072 C83.9667972,30.4669167 82.4302987,38.2120178 81.7474105,41.5924762 L81.7474105,41.6067398 Z M75.5445091,37.7983752 C75.4591481,40.1233318 72.0589339,49.437422 70.8496526,51.4913715 C70.3232596,52.3757108 69.7399593,53.1174148 68.6729464,53.1174148 C67.748202,53.1174148 67.3213968,52.4470285 67.2929432,51.691061 C67.2360358,49.5943209 71.077282,39.06783 72.400378,37.3562055 C72.9694515,36.4433391 73.623886,36.3007037 74.3779084,36.3149672 C75.473375,36.3149672 75.5729628,37.1137254 75.5445091,37.7983752 Z" id="path10" fill="#000000"></path>
                </g>
            </g>
        </g>
    </g>
</svg>