<svg width="62" height="49" viewBox="0 0 62 49" fill="none" xmlns="http://www.w3.org/2000/svg">
<g clip-path="url(#clip0)">
<path d="M20.7053 29.2636C20.6296 29.4408 20.5211 29.6022 20.3855 29.7391C20.249 29.8768 20.0873 29.9868 19.9092 30.0634C19.7249 30.1437 19.5257 30.1844 19.3246 30.1828C19.1218 30.1847 18.9208 30.144 18.7348 30.0634C18.5576 29.9885 18.3965 29.8805 18.2599 29.7451C18.1248 29.6081 18.0168 29.4467 17.9417 29.2695C17.8643 29.0859 17.8244 28.8886 17.8244 28.6894C17.8244 28.4901 17.8643 28.2928 17.9417 28.1092C18.092 27.7505 18.3759 27.4642 18.7333 27.3109C18.9195 27.2306 19.1203 27.19 19.3231 27.1914C19.5241 27.1902 19.7233 27.2309 19.9077 27.3109C20.2673 27.4633 20.5541 27.7488 20.7082 28.1077C20.7861 28.2904 20.8262 28.487 20.8262 28.6856C20.8262 28.8843 20.7861 29.0808 20.7082 29.2636H20.7053Z" fill="#B4F2FA"/>
<path d="M25.9171 29.2636C25.8409 29.4407 25.7322 29.602 25.5966 29.7391C25.4603 29.8766 25.2988 29.9867 25.1211 30.0634C24.9353 30.1422 24.7356 30.1828 24.5338 30.1828C24.3321 30.1828 24.1324 30.1422 23.9466 30.0634C23.7694 29.9874 23.6085 29.8781 23.4726 29.7414C23.3376 29.6042 23.2297 29.4429 23.1543 29.2658C23.0769 29.0822 23.037 28.8849 23.037 28.6856C23.037 28.4864 23.0769 28.2891 23.1543 28.1055C23.3046 27.7465 23.5888 27.4602 23.9466 27.3072C24.1324 27.2284 24.3321 27.1877 24.5338 27.1877C24.7356 27.1877 24.9353 27.2284 25.1211 27.3072C25.2987 27.3841 25.4601 27.4942 25.5966 27.6314C25.7322 27.7688 25.841 27.9303 25.9171 28.1077C25.9945 28.2906 26.0343 28.4871 26.0343 28.6856C26.0343 28.8842 25.9945 29.0807 25.9171 29.2636Z" fill="#B4F2FA"/>
<path d="M37.5739 27.8132C37.4801 27.943 37.4093 28.0881 37.3647 28.242H40.2426C40.1956 28.0878 40.1226 27.9427 40.0267 27.8132C39.9335 27.6855 39.8212 27.5732 39.6935 27.48C39.5658 27.3872 39.4248 27.3144 39.2751 27.2642C39.1231 27.2143 38.964 27.1892 38.804 27.19C38.643 27.1893 38.483 27.2143 38.3299 27.2642C38.179 27.3147 38.0365 27.3875 37.907 27.48C37.7789 27.5726 37.6665 27.685 37.5739 27.8132Z" fill="#B4F2FA"/>
<path d="M33.5979 39.0744H33.204V38.3622H33.5608C33.7073 38.3523 33.8539 38.3798 33.9867 38.4423C34.0314 38.4695 34.0678 38.5086 34.0916 38.5553C34.1155 38.6019 34.1259 38.6542 34.1217 38.7064C34.1266 38.7602 34.1178 38.8143 34.0961 38.8637C34.0745 38.9131 34.0406 38.9563 33.9978 38.9891C33.8754 39.0553 33.7366 39.0849 33.5979 39.0744Z" fill="#B4F2FA"/>
<path d="M33.204 39.6138V40.4484H33.6491C33.7952 40.4597 33.9409 40.4218 34.0631 40.3409C34.1094 40.3002 34.1455 40.2494 34.1687 40.1923C34.1919 40.1353 34.2015 40.0736 34.1966 40.0122C34.1966 39.7459 34.0067 39.6138 33.6276 39.6138H33.204Z" fill="#B4F2FA"/>
<path d="M38.9715 39.2273H38.749L38.7519 38.3622H38.9582C39.1256 38.3508 39.293 38.3841 39.4434 38.4586C39.4964 38.4936 39.5389 38.5423 39.5665 38.5995C39.5941 38.6567 39.6056 38.7204 39.5999 38.7836C39.605 38.8482 39.5935 38.9129 39.5667 38.9719C39.5398 39.0308 39.4984 39.0819 39.4464 39.1204C39.3021 39.2022 39.1369 39.2394 38.9715 39.2273Z" fill="#B4F2FA"/>
<path fill-rule="evenodd" clip-rule="evenodd" d="M43.3588 34.8125C47.4774 31.2472 50.083 25.9809 50.083 20.1059C50.083 9.3674 41.3777 0.662109 30.6391 0.662109C19.9006 0.662109 11.1953 9.3674 11.1953 20.1059C11.1953 25.9809 13.8009 31.2472 17.9194 34.8125H6.60156V39.5508H0.230469L3.21737 44.1625L0.230469 48.7741H10.4509V48.771L10.4535 48.7741V44.0359H51.0835V48.7741H61.304L58.4855 44.1625L61.304 39.5508H54.8253V34.8125H43.3588ZM21.0941 24.278C21.149 24.2563 21.2079 24.2462 21.2669 24.2483C21.3254 24.2475 21.3835 24.2582 21.4378 24.2798C21.4922 24.3015 21.5417 24.3336 21.5837 24.3744C21.6263 24.4154 21.6599 24.4648 21.6822 24.5194C21.7046 24.5741 21.7152 24.6329 21.7135 24.692V28.6871C21.7196 29.0017 21.6606 29.3142 21.5402 29.6049C21.4198 29.8956 21.2406 30.1583 21.0139 30.3764C20.6873 30.7029 20.2732 30.9277 19.8216 31.0238C19.3699 31.1199 18.9001 31.0832 18.4689 30.918C18.0378 30.7528 17.6636 30.4663 17.3918 30.0931C17.1199 29.7199 16.962 29.2759 16.9371 28.8148C16.9122 28.3538 17.0213 27.8953 17.2513 27.495C17.4813 27.0946 17.8224 26.7694 18.2332 26.5587C18.6441 26.348 19.1072 26.2608 19.5665 26.3077C20.0259 26.3545 20.4619 26.5334 20.8217 26.8227V24.6935C20.8197 24.6344 20.8298 24.5756 20.8514 24.5207C20.873 24.4657 20.9057 24.4158 20.9475 24.3741C20.9893 24.3323 21.0392 24.2996 21.0941 24.278ZM25.0033 26.3426C25.4667 26.4347 25.8924 26.6623 26.2265 26.9963C26.451 27.2157 26.6289 27.4782 26.7495 27.7679C26.8666 28.0597 26.9268 28.3712 26.9269 28.6856C26.9328 29.0003 26.8737 29.3128 26.7532 29.6035C26.6327 29.8942 26.4533 30.1568 26.2265 30.375C25.8924 30.709 25.4667 30.9365 25.0033 31.0287C24.5399 31.1208 24.0596 31.0735 23.6231 30.8927C23.1866 30.7119 22.8135 30.4057 22.551 30.0128C22.2885 29.62 22.1484 29.1581 22.1484 28.6856C22.1484 28.2132 22.2885 27.7513 22.551 27.3584C22.8135 26.9656 23.1866 26.6594 23.6231 26.4786C24.0596 26.2978 24.5399 26.2504 25.0033 26.3426ZM35.9729 26.5697C35.9966 26.6232 36.0087 26.6811 36.0085 26.7396H36.007C36.0116 26.8084 35.9984 26.8773 35.9685 26.9394C35.9385 27.0016 35.893 27.0549 35.8364 27.0943L34.0477 28.2546L35.8831 30.3193C35.9631 30.4033 36.0075 30.515 36.007 30.6309C36.0072 30.6897 35.995 30.7478 35.9714 30.8015C35.9478 30.8545 35.9151 30.9029 35.875 30.9447C35.8348 30.9857 35.7869 31.0182 35.734 31.0404C35.6785 31.0635 35.619 31.0751 35.5589 31.0746C35.4487 31.0771 35.3419 31.0357 35.2622 30.9596L33.2902 28.745L32.7708 29.0863V30.6302C32.7715 30.6889 32.7603 30.7472 32.7379 30.8015C32.7154 30.8559 32.6822 30.9051 32.6403 30.9462C32.5999 30.9887 32.5512 31.0224 32.4972 31.0452C32.4432 31.0679 32.385 31.0792 32.3264 31.0783C32.2671 31.0795 32.2082 31.0684 32.1535 31.0456C32.0987 31.0229 32.0492 30.989 32.0082 30.9462C31.9663 30.905 31.9332 30.8558 31.9109 30.8015C31.8886 30.7472 31.8775 30.6889 31.8783 30.6302V24.7001C31.8783 24.5821 31.9252 24.4688 32.0087 24.3854C32.0922 24.3019 32.2054 24.255 32.3235 24.255C32.4415 24.255 32.5548 24.3019 32.6382 24.3854C32.7217 24.4688 32.7686 24.5821 32.7686 24.7001V28.0239L35.3215 26.3642C35.3929 26.319 35.4759 26.2956 35.5604 26.2967C35.6204 26.2962 35.6799 26.3076 35.7355 26.3301C35.7886 26.3523 35.8365 26.3851 35.8764 26.4265C35.9166 26.4683 35.9493 26.5168 35.9729 26.5697ZM29.1541 27.3057C28.9757 27.3809 28.8133 27.4895 28.6755 27.6255L28.674 27.624C28.5368 27.76 28.4274 27.9216 28.3521 28.0995C28.2742 28.2845 28.2341 28.4831 28.2341 28.6838C28.2341 28.8844 28.2742 29.0831 28.3521 29.268C28.4273 29.4463 28.5367 29.6081 28.674 29.7443C28.8118 29.8803 28.9742 29.9889 29.1526 30.0641C29.3374 30.1427 29.5364 30.1826 29.7372 30.1813C29.9144 30.1829 30.0905 30.152 30.2565 30.0901C30.4219 30.0247 30.575 29.9316 30.7091 29.8148C30.7906 29.7541 30.8894 29.7211 30.991 29.7206C31.05 29.7185 31.1088 29.7286 31.1638 29.7503C31.2187 29.7719 31.2686 29.8046 31.3104 29.8464C31.3521 29.8881 31.3849 29.938 31.4065 29.993C31.4281 30.0479 31.4382 30.1067 31.4362 30.1657C31.4364 30.2272 31.424 30.2882 31.3998 30.3447C31.3755 30.4012 31.3399 30.4522 31.2952 30.4944C31.0033 30.7463 30.6548 30.9237 30.2794 31.0116C29.904 31.0995 29.5129 31.0953 29.1395 30.9993C28.7661 30.9032 28.4215 30.7182 28.1352 30.4601C27.8488 30.202 27.6291 29.8783 27.495 29.5169C27.3608 29.1554 27.3161 28.7669 27.3648 28.3844C27.4134 28.002 27.5538 27.6369 27.7741 27.3205C27.9944 27.0042 28.2881 26.7458 28.6299 26.5675C28.9717 26.3892 29.3517 26.2963 29.7372 26.2967C30.311 26.2866 30.8674 26.4936 31.2952 26.8761C31.3443 26.9175 31.3836 26.9692 31.4103 27.0276C31.437 27.0859 31.4504 27.1495 31.4495 27.2137C31.4511 27.2727 31.4408 27.3315 31.4191 27.3865C31.3974 27.4414 31.3649 27.4914 31.3234 27.5335C31.2821 27.5757 31.2325 27.6089 31.1777 27.631C31.1229 27.6531 31.0641 27.6636 31.0051 27.6618C30.8992 27.6625 30.7964 27.6263 30.7143 27.5594C30.5786 27.4423 30.4244 27.3486 30.258 27.282C30.0923 27.2184 29.9162 27.1864 29.7387 27.1877C29.5378 27.1863 29.3387 27.2265 29.1541 27.3057ZM44.7748 26.4132C44.8866 26.4522 44.9889 26.5141 45.0753 26.595L45.0746 26.5964C45.1142 26.6348 45.1454 26.681 45.1661 26.7321C45.1868 26.7832 45.1966 26.8381 45.1948 26.8932C45.1951 26.9535 45.1827 27.0131 45.1584 27.0683C45.135 27.1213 45.1023 27.1698 45.062 27.2115C45.0222 27.2529 44.9742 27.2855 44.921 27.3072C44.8655 27.3303 44.806 27.3419 44.7459 27.3413C44.6811 27.3385 44.6175 27.3226 44.559 27.2946C44.3727 27.222 44.1742 27.1858 43.9743 27.1877C43.7732 27.1863 43.5739 27.2265 43.389 27.3057C43.0302 27.457 42.7445 27.7423 42.5929 28.101C42.5143 28.2858 42.4744 28.4848 42.4757 28.6856V30.6309C42.4757 30.749 42.4288 30.8622 42.3453 30.9457C42.2618 31.0292 42.1486 31.0761 42.0305 31.0761C41.9125 31.0761 41.7993 31.0292 41.7158 30.9457C41.6323 30.8622 41.5854 30.749 41.5854 30.6309V26.7396C41.5854 26.6216 41.6323 26.5083 41.7158 26.4249C41.7993 26.3414 41.9125 26.2945 42.0305 26.2945C42.1486 26.2945 42.2618 26.3414 42.3453 26.4249C42.4288 26.5083 42.4757 26.6216 42.4757 26.7396V26.8257C42.6844 26.6572 42.9196 26.5243 43.1716 26.4325C43.4292 26.3407 43.7009 26.2947 43.9743 26.2967C44.1092 26.2972 44.244 26.3056 44.3779 26.3219C44.5133 26.3371 44.6465 26.3677 44.7748 26.4132ZM38.804 26.2966C39.4381 26.2966 40.0462 26.5483 40.4948 26.9963C40.7195 27.2145 40.8977 27.476 41.0186 27.7649C41.1369 28.0571 41.1964 28.3697 41.1937 28.6849C41.1954 28.744 41.1848 28.8027 41.1624 28.8574C41.14 28.9121 41.1065 28.9615 41.0638 29.0024C41.0217 29.0434 40.9719 29.0757 40.9173 29.0973C40.8627 29.119 40.8043 29.1296 40.7456 29.1286H37.364C37.4109 29.2823 37.4831 29.4273 37.5776 29.5574C37.6698 29.6849 37.7814 29.797 37.9085 29.8898C38.0361 29.9828 38.1772 30.0557 38.327 30.1056C38.65 30.2105 38.9985 30.2074 39.3196 30.0967C39.479 30.0383 39.6266 29.9516 39.7551 29.8408C39.8383 29.7706 39.9431 29.7313 40.0519 29.7295C40.1109 29.7275 40.1696 29.7377 40.2245 29.7594C40.2794 29.7811 40.3293 29.8138 40.371 29.8555C40.4128 29.8972 40.4455 29.9471 40.4671 30.002C40.4888 30.0569 40.499 30.1157 40.497 30.1746C40.498 30.2338 40.4871 30.2925 40.465 30.3474C40.443 30.4023 40.4102 30.4523 40.3687 30.4944C39.9011 30.9034 39.2927 31.1143 38.6722 31.0825C38.0518 31.0506 37.4682 30.7785 37.045 30.3237C36.6217 29.869 36.3922 29.2673 36.4049 28.6462C36.4176 28.0251 36.6717 27.4333 37.1132 26.9963C37.5618 26.5483 38.17 26.2966 38.804 26.2966ZM33.0675 14.296H30.707V12.1747H33.0675V14.296ZM33.0675 7H30.707V9.16772H33.0675V7ZM35.8602 12.1711H33.4996V14.2924H35.8602V12.1711ZM30.2784 9.59627H27.9178V11.7426H30.2784V9.59627ZM33.0675 9.59627H30.707V11.7426H33.0675V9.59627ZM42.9526 13.1675C42.4384 12.8211 41.2527 12.6961 40.3421 12.8675C40.2242 12.0104 39.7457 11.264 38.8743 10.5926L38.3743 10.2605L38.0422 10.7605C37.3851 11.7533 37.2066 13.3889 37.9101 14.4674C37.5994 14.6352 36.9887 14.8638 36.1816 14.8495H20.6576C20.3469 16.6637 20.8647 19.0207 22.2289 20.6384C23.5538 22.2062 25.5394 23.0026 28.1357 23.0026C33.7568 23.0026 37.9172 20.4135 39.8635 15.7102C40.6278 15.7245 42.2777 15.7137 43.124 14.096C43.1674 14.0237 43.2952 13.7592 43.3782 13.5873L43.4276 13.4853L42.9526 13.1675ZM24.7038 12.1711H22.3432V14.2924H24.7038V12.1711ZM27.4893 12.1711H25.1287V14.2924H27.4893V12.1711ZM30.2784 12.1711H27.9178V14.2924H30.2784V12.1711ZM27.4893 9.59627H25.1287V11.7426H27.4893V9.59627ZM22.8796 41.0093L22.1081 38.4987H22.088C22.1162 39.0096 22.1301 39.3509 22.1296 39.5225V41.0123H21.5234V37.8058H22.4486L23.2068 40.2541H23.2194L24.0237 37.8058H24.9481V41.0093H24.3152V39.2458C24.3152 39.1662 24.3238 38.9739 24.3374 38.6714L24.3449 38.5039H24.3249L23.4991 41.0123L22.8796 41.0093ZM27.6071 41.0093H25.7627V37.8058H27.6071V38.3622H26.4415V39.0655H27.5262V39.622H26.4415V40.4484H27.6071V41.0093ZM29.6406 41.0093L28.8683 38.4987H28.8483C28.8764 39.0096 28.8903 39.3509 28.8898 39.5225V41.0123H28.2829V37.8058H29.2073L29.9656 40.2541H29.9811L30.7854 37.8058H31.7098V41.0093H31.0762V39.2458C31.0762 39.1662 31.0848 38.9739 31.0984 38.6714L31.1059 38.5039H31.0858L30.2631 41.0093H29.6406ZM32.5244 37.8058H33.5215C33.8626 37.7811 34.2041 37.8482 34.5105 38.0002C34.6125 38.0657 34.695 38.1576 34.7492 38.2661C34.8034 38.3746 34.8273 38.4957 34.8184 38.6167C34.8254 38.7842 34.778 38.9494 34.6833 39.0878C34.6417 39.1471 34.5884 39.1974 34.5269 39.2356C34.4653 39.2739 34.3966 39.2993 34.325 39.3104V39.3326C34.4981 39.3595 34.655 39.45 34.7649 39.5863C34.861 39.7332 34.9081 39.9067 34.8992 40.0819C34.9053 40.2128 34.8797 40.3433 34.8247 40.4622C34.7697 40.5811 34.6868 40.6851 34.5832 40.7652C34.3318 40.9409 34.0288 41.0273 33.7226 41.0108H32.5244V37.8058ZM37.3928 41.0093H35.5454V37.8058H37.3928V38.3622H36.2272V39.0655H37.3119V39.622H36.2272V40.4484H37.3928V41.0093ZM38.749 39.78V41.0093H38.0679V37.8058H39.0012C39.3399 37.7804 39.6778 37.8638 39.9657 38.0439C40.1338 38.1955 40.2422 38.4022 40.2712 38.6268C40.3002 38.8513 40.2478 39.0788 40.1237 39.2681C40.0112 39.4215 39.8588 39.5411 39.683 39.6138C40.1653 40.3334 40.4793 40.7986 40.6252 41.0093H39.8752L39.111 39.78H38.749Z" fill="#B4F2FA"/>
</g>
<defs>
<clipPath id="clip0">
<rect width="61.0735" height="48.111" fill="white" transform="translate(0.230469 0.662109)"/>
</clipPath>
</defs>
</svg>
