<svg width="179" height="50" viewBox="0 0 179 50" fill="none" xmlns="http://www.w3.org/2000/svg">
<path d="M9.68359 16.9121C9.70638 15.1071 10.4406 13.3841 11.7266 12.1173C13.0127 10.8506 14.7467 10.1426 16.5518 10.1472C17.4106 10.1345 18.2632 10.2932 19.0599 10.6139C19.8567 10.9347 20.5814 11.411 21.1918 12.0152L19.8765 13.3165C19.4372 12.8868 18.9174 12.5482 18.3468 12.3202C17.7762 12.0922 17.1662 11.9792 16.5518 11.9878C15.2496 11.9878 14.0006 12.5052 13.0798 13.426C12.159 14.3468 11.6417 15.5957 11.6417 16.898C11.6417 18.2003 12.159 19.4492 13.0798 20.37C14.0006 21.2908 15.2496 21.8082 16.5518 21.8082C17.184 21.8337 17.8144 21.7265 18.4026 21.4934C18.9907 21.2603 19.5235 20.9065 19.9665 20.4548C20.5545 19.8174 20.9093 18.9997 20.9729 18.1348H16.5492V16.2915H22.7729C22.8436 16.6746 22.8789 17.0622 22.8762 17.4515C22.9339 19.0443 22.361 20.5955 21.2819 21.7684C20.6715 22.3998 19.9346 22.8949 19.1194 23.2214C18.3042 23.5479 17.4292 23.6984 16.5518 23.6629C14.7491 23.6675 13.0172 22.9615 11.7315 21.6978C10.4459 20.4341 9.71007 18.7147 9.68359 16.9121Z" fill="#B4F2FA"/>
<path d="M67.3207 15.1184C67.0152 15.8727 66.8646 16.6806 66.8776 17.4942C66.8537 18.3079 66.9974 19.1177 67.2998 19.8735C67.6022 20.6292 68.0569 21.3146 68.6354 21.8872C69.214 22.4597 69.9042 22.9071 70.6631 23.2016C71.4219 23.4961 72.2333 23.6313 73.0466 23.5988C73.9334 23.6158 74.8132 23.4381 75.624 23.0785C76.4348 22.7189 77.1569 22.1859 77.7396 21.5172L76.6661 20.4446C76.2333 20.9892 75.6829 21.4289 75.0561 21.7307C74.4292 22.0325 73.7423 22.1886 73.0466 22.1872C72.433 22.1997 71.8235 22.0858 71.2558 21.8527C70.6882 21.6195 70.1746 21.272 69.747 20.8318C69.3194 20.3916 68.9869 19.8682 68.7703 19.294C68.5537 18.7198 68.4575 18.1072 68.4878 17.4942C68.4575 16.8813 68.5537 16.2687 68.7703 15.6945C68.9869 15.1203 69.3194 14.5969 69.747 14.1567C70.1746 13.7165 70.6882 13.369 71.2558 13.1358C71.8235 12.9026 72.433 12.7888 73.0466 12.8013C73.6711 12.7744 74.2933 12.8937 74.8635 13.1496C75.4338 13.4056 75.9365 13.7911 76.3315 14.2755L77.405 13.2691C76.8632 12.6483 76.1926 12.1529 75.4399 11.8175C74.6872 11.4821 73.8705 11.3147 73.0466 11.327C72.233 11.3137 71.425 11.4642 70.6706 11.7694C69.9163 12.0747 69.231 12.5284 68.6556 13.1037C68.0801 13.679 67.6261 14.3642 67.3207 15.1184Z" fill="#B4F2FA"/>
<path d="M80.4215 23.3914H78.8802V11.5971H80.4215V23.3914Z" fill="#B4F2FA"/>
<path fill-rule="evenodd" clip-rule="evenodd" d="M89.6258 21.0308C89.8208 20.4997 89.9054 19.9343 89.8746 19.3693C89.9054 18.8043 89.8208 18.239 89.6258 17.7078C89.4308 17.1767 89.1296 16.6908 88.7405 16.28C88.3514 15.8691 87.8827 15.5419 87.363 15.3182C86.8432 15.0946 86.2833 14.9793 85.7175 14.9793C85.1517 14.9793 84.5918 15.0946 84.072 15.3182C83.5523 15.5419 83.0835 15.8691 82.6945 16.28C82.3054 16.6908 82.0042 17.1767 81.8092 17.7078C81.6142 18.239 81.5295 18.8043 81.5604 19.3693C81.5295 19.9343 81.6142 20.4997 81.8092 21.0308C82.0042 21.562 82.3054 22.0478 82.6945 22.4587C83.0835 22.8695 83.5523 23.1968 84.072 23.4204C84.5918 23.6441 85.1517 23.7594 85.7175 23.7594C86.2833 23.7594 86.8432 23.6441 87.363 23.4204C87.8827 23.1968 88.3514 22.8695 88.7405 22.4587C89.1296 22.0478 89.4308 21.562 89.6258 21.0308ZM88.2325 18.2686C88.3436 18.6243 88.3779 18.9994 88.3333 19.3693V19.372C88.375 20.109 88.1233 20.8326 87.6332 21.3846C87.143 21.9366 86.4543 22.2722 85.7175 22.3179C85.3487 22.3064 84.9861 22.2196 84.652 22.0631C84.3179 21.9065 84.0193 21.6833 83.7745 21.4072C83.5297 21.1312 83.3438 20.808 83.2283 20.4576C83.1128 20.1072 83.07 19.7369 83.1026 19.3693C83.058 18.9994 83.0923 18.6243 83.2033 18.2686C83.3144 17.913 83.4996 17.5849 83.7468 17.3061C83.9939 17.0273 84.2974 16.8041 84.6372 16.6513C84.977 16.4984 85.3454 16.4194 85.7179 16.4194C86.0905 16.4194 86.4589 16.4984 86.7987 16.6513C87.1384 16.8041 87.4419 17.0273 87.6891 17.3061C87.9363 17.5849 88.1215 17.913 88.2325 18.2686Z" fill="#B4F2FA"/>
<path d="M96.7137 23.4629H98.256V15.3499H96.7137V19.7728C96.7565 20.386 96.5548 20.9913 96.1526 21.4563C95.7505 21.9213 95.1806 22.2082 94.5676 22.2543C93.4244 22.2543 92.5566 21.6505 92.5566 19.9749V15.2811H91.0143V20.2442C91.0143 22.2552 92.0172 23.6624 94.0988 23.6624C94.6048 23.6472 95.0998 23.5116 95.5429 23.2668C95.9859 23.0221 96.3643 22.6753 96.6466 22.2552H96.7137V23.4629Z" fill="#B4F2FA"/>
<path fill-rule="evenodd" clip-rule="evenodd" d="M100.42 16.4347C99.7039 17.239 99.3356 18.2942 99.3957 19.3693V19.372C99.3669 19.9097 99.445 20.4478 99.6254 20.9552C99.8058 21.4626 100.085 21.9292 100.447 22.3282C100.808 22.7271 101.246 23.0504 101.733 23.2794C102.22 23.5084 102.748 23.6386 103.286 23.6624C103.825 23.6719 104.357 23.5484 104.836 23.303C105.316 23.0575 105.727 22.6976 106.034 22.2552H106.101V23.394H107.51V11.5953H105.966V15.3473L106.033 16.487H105.966C105.659 16.0441 105.248 15.6838 104.768 15.438C104.288 15.1923 103.755 15.0686 103.216 15.078C102.142 15.1426 101.136 15.6305 100.42 16.4347ZM103.553 16.4208C104.894 16.4208 106.1 17.4916 106.1 19.3693V19.372C106.144 20.0984 105.902 20.8133 105.426 21.3638C104.95 21.9143 104.278 22.2568 103.553 22.3179C103.189 22.2989 102.833 22.2066 102.506 22.0466C102.179 21.8866 101.888 21.6621 101.65 21.3867C101.412 21.1113 101.232 20.7907 101.121 20.444C101.01 20.0973 100.97 19.7318 101.004 19.3693C101.004 17.4934 102.211 16.4208 103.553 16.4208Z" fill="#B4F2FA"/>
<path fill-rule="evenodd" clip-rule="evenodd" d="M111.666 11.5962V23.3305H113.207V18.5695H115.688C116.639 18.5949 117.561 18.2421 118.253 17.5884C118.944 16.9347 119.348 16.0334 119.375 15.0824C119.347 14.1316 118.943 13.2306 118.252 12.5771C117.561 11.9235 116.639 11.5708 115.688 11.5962H111.666ZM116.588 17.0342C116.322 17.1311 116.038 17.1726 115.755 17.1561H113.207V12.9999H115.755C116.038 12.9834 116.322 13.0249 116.588 13.1219C116.854 13.2188 117.098 13.3692 117.305 13.5638C117.511 13.7584 117.675 13.9931 117.788 14.2535C117.9 14.5139 117.958 14.7944 117.958 15.078C117.958 15.3616 117.9 15.6422 117.788 15.9026C117.675 16.1629 117.511 16.3976 117.305 16.5922C117.098 16.7868 116.854 16.9372 116.588 17.0342Z" fill="#B4F2FA"/>
<path d="M121.993 23.3923H120.448L120.451 11.5962H121.993V23.3923Z" fill="#B4F2FA"/>
<path fill-rule="evenodd" clip-rule="evenodd" d="M126.82 18.1625C124.941 18.1625 123.264 19.1689 123.264 20.9787V20.9813C123.264 22.6569 124.671 23.6624 126.283 23.7304C126.813 23.7428 127.338 23.6199 127.808 23.3734C128.277 23.1269 128.676 22.7648 128.967 22.3214H129.033V23.4558H130.507V18.5616C130.467 17.7597 130.165 16.9931 129.647 16.3794C129.13 15.7657 128.425 15.3386 127.642 15.1635C126.858 14.9885 126.039 15.0753 125.309 15.4105C124.579 15.7456 123.98 16.3108 123.602 17.0193L125.01 17.6267C125.226 17.2194 125.567 16.8925 125.983 16.6948C126.4 16.4971 126.869 16.4391 127.321 16.5293C127.773 16.6196 128.183 16.8533 128.492 17.1958C128.8 17.5383 128.99 17.9711 129.032 18.43V18.6313C128.333 18.3303 127.581 18.1714 126.82 18.1625ZM127.087 19.3693C127.775 19.3385 128.455 19.5261 129.03 19.9052L129.031 19.9078C128.993 20.5408 128.715 21.1355 128.254 21.5711C127.793 22.0067 127.184 22.2503 126.55 22.2526C125.74 22.2526 124.873 21.85 124.873 20.9787C124.873 20.2415 125.476 19.3693 127.087 19.3693Z" fill="#B4F2FA"/>
<path d="M132.65 16.7545V20.9813C132.622 21.332 132.67 21.6847 132.791 22.015C132.912 22.3453 133.104 22.6453 133.353 22.8942C133.601 23.1431 133.901 23.3349 134.231 23.4564C134.562 23.578 134.914 23.6262 135.265 23.598C135.677 23.6077 136.086 23.5394 136.473 23.3967L135.936 22.1228C135.733 22.2376 135.497 22.2843 135.265 22.257C134.595 22.257 134.192 21.8544 134.192 20.9151V16.7589H136.205V15.3508H134.192V12.8684H132.65V15.3508H131.243V16.7545H132.65Z" fill="#B4F2FA"/>
<path d="M141.971 12.9999L142.506 11.7281C142.144 11.5849 141.756 11.517 141.367 11.5274C140.991 11.4926 140.612 11.5387 140.256 11.6626C139.899 11.7865 139.573 11.9854 139.3 12.2457C139.027 12.5061 138.813 12.822 138.672 13.1721C138.531 13.5223 138.467 13.8985 138.484 14.2755V15.2819H136.941V16.6874H138.416V23.3923H139.959V16.6874H142.04V15.2793H139.959V14.2729C139.941 14.0893 139.963 13.9041 140.023 13.7297C140.083 13.5554 140.18 13.396 140.307 13.2625C140.435 13.129 140.589 13.0245 140.76 12.956C140.932 12.8875 141.116 12.8567 141.3 12.8657C141.529 12.8715 141.756 12.9169 141.971 12.9999Z" fill="#B4F2FA"/>
<path fill-rule="evenodd" clip-rule="evenodd" d="M150.534 20.9925C150.737 20.4759 150.834 19.924 150.82 19.3693C150.834 18.8146 150.737 18.2628 150.534 17.7462C150.332 17.2296 150.028 16.7588 149.64 16.3616C149.253 15.9643 148.79 15.6486 148.279 15.433C147.767 15.2174 147.218 15.1064 146.663 15.1064C146.108 15.1064 145.559 15.2174 145.048 15.433C144.537 15.6486 144.074 15.9643 143.686 16.3616C143.299 16.7588 142.995 17.2296 142.792 17.7462C142.59 18.2628 142.493 18.8146 142.507 19.3693C142.493 19.924 142.59 20.4759 142.792 20.9925C142.995 21.509 143.299 21.9798 143.686 22.3771C144.074 22.7744 144.537 23.0901 145.048 23.3056C145.559 23.5212 146.108 23.6323 146.663 23.6323C147.218 23.6323 147.767 23.5212 148.279 23.3056C148.79 23.0901 149.253 22.7744 149.64 22.3771C150.028 21.9798 150.332 21.509 150.534 20.9925ZM149.179 18.2676C149.29 18.6237 149.324 18.9992 149.279 19.3693V19.372C149.32 20.1089 149.069 20.8323 148.579 21.3843C148.089 21.9363 147.4 22.272 146.664 22.3179C146.295 22.3064 145.932 22.2196 145.598 22.0631C145.264 21.9065 144.966 21.6833 144.721 21.4072C144.476 21.1312 144.29 20.808 144.174 20.4576C144.059 20.1072 144.016 19.7369 144.049 19.3693C144.004 18.9992 144.038 18.6237 144.148 18.2676C144.259 17.9115 144.444 17.583 144.691 17.3038C144.938 17.0246 145.242 16.8011 145.582 16.648C145.922 16.4949 146.291 16.4157 146.664 16.4157C147.037 16.4157 147.405 16.4949 147.745 16.648C148.085 16.8011 148.389 17.0246 148.636 17.3038C148.883 17.583 149.068 17.9115 149.179 18.2676Z" fill="#B4F2FA"/>
<path d="M152.027 15.3508V23.3923L153.562 23.394V18.9712C153.537 18.6788 153.571 18.3842 153.663 18.1056C153.756 17.827 153.904 17.57 154.098 17.3504C154.293 17.1309 154.531 16.9533 154.796 16.8285C155.062 16.7037 155.35 16.6344 155.644 16.6247C155.917 16.625 156.189 16.6704 156.448 16.7589L157.054 15.3508C156.692 15.2078 156.305 15.1389 155.915 15.1495C155.418 15.1597 154.934 15.31 154.519 15.583C154.104 15.856 153.774 16.2406 153.568 16.6927H153.501V15.3508H152.027Z" fill="#B4F2FA"/>
<path d="M159.334 15.3473H157.859L157.727 15.3508V23.5962H159.261V19.1036C159.229 18.5033 159.426 17.9131 159.813 17.4526C160.199 16.992 160.746 16.6955 161.343 16.6229C162.483 16.6229 163.154 17.1579 163.154 18.8352V23.5282H164.695V19.0365C164.663 18.4361 164.86 17.8459 165.246 17.3853C165.633 16.9247 166.18 16.6282 166.777 16.5558C167.915 16.5558 168.586 17.0926 168.586 18.7681V23.4594H170.129V18.498C170.129 16.487 169.257 15.078 167.245 15.078C166.682 15.0651 166.125 15.2009 165.631 15.4716C165.136 15.7423 164.722 16.1385 164.429 16.6203C164.216 16.1318 163.856 15.7214 163.4 15.4453C162.944 15.1691 162.414 15.0409 161.882 15.078C161.386 15.0958 160.901 15.233 160.47 15.4782C160.038 15.7233 159.671 16.0691 159.402 16.4861H159.334V15.3473Z" fill="#B4F2FA"/>
<path fill-rule="evenodd" clip-rule="evenodd" d="M35.0128 15.7037C35.7275 15.2236 36.5684 14.9661 37.4293 14.9636C38.0049 14.9529 38.5767 15.0581 39.1107 15.2731C39.6447 15.488 40.13 15.8083 40.5376 16.2147C40.9452 16.6212 41.2668 17.1055 41.4833 17.6389C41.6997 18.1723 41.8066 18.7438 41.7975 19.3194C41.7975 20.1804 41.5423 21.022 41.0642 21.738C40.5862 22.4541 39.9066 23.0124 39.1114 23.3424C38.3162 23.6724 37.4411 23.7594 36.5965 23.5923C35.7519 23.4253 34.9757 23.0117 34.3661 22.4037C33.7564 21.7958 33.3406 21.0208 33.1711 20.1767C33.0017 19.3326 33.0862 18.4572 33.414 17.6611C33.7417 16.8649 34.2981 16.1838 35.0128 15.7037ZM36.4545 21.7279C36.7615 21.8657 37.0929 21.9406 37.4293 21.9484C37.7657 21.9405 38.097 21.8655 38.4039 21.7276C38.7108 21.5898 38.987 21.3919 39.2163 21.1457C39.4455 20.8995 39.6232 20.6099 39.7389 20.294C39.8545 19.9781 39.9058 19.6422 39.8897 19.3062C39.9146 18.9678 39.8694 18.628 39.7569 18.3079C39.6445 17.9878 39.4673 17.6944 39.2364 17.4459C39.0054 17.1973 38.7257 16.9991 38.4147 16.8636C38.1038 16.728 37.7681 16.6581 37.4289 16.6581C37.0896 16.6581 36.754 16.728 36.4431 16.8636C36.1321 16.9991 35.8524 17.1973 35.6214 17.4459C35.3905 17.6944 35.2133 17.9878 35.1009 18.3079C34.9884 18.628 34.9432 18.9678 34.9681 19.3062C34.952 19.6423 35.0033 19.9782 35.119 20.2942C35.2347 20.6102 35.4125 20.8998 35.6418 21.146C35.8712 21.3922 36.1475 21.5901 36.4545 21.7279Z" fill="#B4F2FA"/>
<path fill-rule="evenodd" clip-rule="evenodd" d="M27.8882 14.9636C28.7491 14.9661 29.5901 15.2236 30.3047 15.7037C31.0194 16.1838 31.5758 16.8649 31.9036 17.6611C32.2313 18.4572 32.3158 19.3326 32.1464 20.1767C31.9769 21.0208 31.5611 21.7958 30.9514 22.4037C30.3418 23.0117 29.5657 23.4253 28.7211 23.5923C27.8765 23.7594 27.0013 23.6724 26.2061 23.3424C25.4109 23.0124 24.7314 22.4541 24.2533 21.738C23.7752 21.022 23.5201 20.1804 23.5201 19.3194C23.511 18.7438 23.6178 18.1723 23.8343 17.6389C24.0507 17.1055 24.3723 16.6212 24.78 16.2147C25.1876 15.8083 25.6728 15.488 26.2068 15.2731C26.7408 15.0581 27.3126 14.9529 27.8882 14.9636ZM27.8882 21.9484C28.2246 21.9406 28.5561 21.8657 28.863 21.7279C29.17 21.5901 29.4463 21.3922 29.6757 21.146C29.9051 20.8998 30.0828 20.6102 30.1985 20.2942C30.3142 19.9782 30.3656 19.6423 30.3494 19.3062C30.3734 18.9683 30.3275 18.6291 30.2147 18.3097C30.1019 17.9903 29.9245 17.6976 29.6936 17.4497C29.4627 17.2019 29.1832 17.0042 28.8726 16.8691C28.562 16.7339 28.2269 16.6642 27.8882 16.6642C27.5495 16.6642 27.2144 16.7339 26.9037 16.8691C26.5931 17.0042 26.3137 17.2019 26.0828 17.4497C25.8519 17.6976 25.6745 17.9903 25.5617 18.3097C25.4488 18.6291 25.403 18.9683 25.4269 19.3062C25.4108 19.6423 25.4621 19.9782 25.5778 20.2942C25.6936 20.6102 25.8713 20.8998 26.1007 21.146C26.33 21.3922 26.6063 21.5901 26.9133 21.7279C27.2203 21.8657 27.5518 21.9406 27.8882 21.9484Z" fill="#B4F2FA"/>
<path fill-rule="evenodd" clip-rule="evenodd" d="M50.9606 15.2225H49.1296L49.1305 15.9323H49.067C48.7772 15.614 48.4223 15.3619 48.0264 15.1931C47.6305 15.0243 47.2028 14.9428 46.7725 14.9542C45.6515 15.0047 44.5931 15.4855 43.8176 16.2967C43.0421 17.1079 42.6094 18.1868 42.6094 19.309C42.6094 20.4312 43.0421 21.5102 43.8176 22.3214C44.5931 23.1326 45.6515 23.6134 46.7725 23.6639C47.2043 23.6762 47.6334 23.5937 48.0298 23.4223C48.4262 23.2509 48.7802 22.9946 49.067 22.6716H49.1305V23.3037C49.1305 24.9661 48.2415 25.855 46.8114 25.855C46.3339 25.8443 45.8704 25.6914 45.4803 25.4159C45.0901 25.1404 44.791 24.7548 44.6211 24.3084L42.9579 25.0023C43.2718 25.7686 43.8077 26.4236 44.4967 26.883C45.1858 27.3423 45.9965 27.5851 46.8246 27.58C49.067 27.58 50.9606 26.2656 50.9606 23.0442V15.2225ZM47.8851 21.7172C47.5888 21.8576 47.2671 21.9364 46.9394 21.9486C46.6066 21.9383 46.2793 21.8616 45.9765 21.7233C45.6737 21.5849 45.4016 21.3876 45.1759 21.1428C44.9503 20.898 44.7757 20.6107 44.6624 20.2977C44.5491 19.9846 44.4994 19.6521 44.5161 19.3196C44.4976 18.9855 44.5459 18.651 44.6582 18.3358C44.7706 18.0205 44.9447 17.7309 45.1703 17.4838C45.396 17.2366 45.6687 17.037 45.9725 16.8966C46.2762 16.7562 46.6049 16.6777 46.9394 16.6659C47.2679 16.6822 47.5898 16.7644 47.8858 16.9078C48.1819 17.0512 48.446 17.2527 48.6624 17.5004C48.8789 17.748 49.0432 18.0368 49.1456 18.3493C49.248 18.6619 49.2864 18.9919 49.2585 19.3196C49.2872 19.6463 49.2492 19.9753 49.1468 20.2868C49.0445 20.5983 48.8798 20.8857 48.6629 21.1316C48.446 21.3775 48.1814 21.5767 47.8851 21.7172Z" fill="#B4F2FA"/>
<path d="M54.1764 10.6094H52.2695V23.4047H54.1764V10.6094Z" fill="#B4F2FA"/>
<path fill-rule="evenodd" clip-rule="evenodd" d="M59.4279 21.9476C58.9849 21.9635 58.5473 21.847 58.1709 21.613C57.7944 21.3791 57.4963 21.0382 57.3144 20.634L63.1392 18.224L62.9458 17.734C62.6857 16.9449 62.1884 16.2553 61.5218 15.7594C60.8552 15.2634 60.0518 14.9853 59.2213 14.9629C58.6616 14.9666 58.1085 15.0836 57.5952 15.3069C57.082 15.5303 56.6194 15.8553 56.2353 16.2624C55.8511 16.6694 55.5535 17.1501 55.3602 17.6754C55.167 18.2007 55.0822 18.7597 55.1109 19.3186C55.0981 19.891 55.2007 20.46 55.4125 20.9918C55.6244 21.5237 55.9413 22.0073 56.3442 22.414C56.7471 22.8207 57.2277 23.1421 57.7576 23.3589C58.2874 23.5758 58.8554 23.6837 59.4279 23.6762C60.1459 23.6781 60.8533 23.5026 61.4872 23.1653C62.1211 22.8281 62.6619 22.3394 63.0615 21.7428L61.5801 20.7514C61.3546 21.1191 61.038 21.4224 60.661 21.632C60.2839 21.8415 59.8592 21.9502 59.4279 21.9476ZM59.2893 16.6385C59.6196 16.6142 59.9496 16.6896 60.2366 16.8549C60.5237 17.0201 60.7546 17.2676 60.8995 17.5654L57.0081 19.1774C56.9881 18.8602 57.0315 18.5422 57.1358 18.242C57.2401 17.9418 57.4033 17.6655 57.6157 17.429C57.8281 17.1926 58.0855 17.001 58.3729 16.8652C58.6602 16.7295 58.9718 16.6524 59.2893 16.6385Z" fill="#B4F2FA"/>
<path d="M11.601 31.7454V36.9495H12.332V31.7454H14.2212V31.0859H9.71094V31.7454H11.601Z" fill="#B4F2FA"/>
<path fill-rule="evenodd" clip-rule="evenodd" d="M18.1471 35.8144C18.0256 36.1977 17.7759 36.5275 17.4399 36.7485C17.104 36.9696 16.7022 37.0683 16.3021 37.0282C15.0882 37.0282 14.3281 36.1507 14.3281 34.7647C14.3281 33.3787 15.1006 32.4941 16.303 32.4941C17.485 32.4941 18.2045 33.3355 18.2045 34.6959V34.9642H15.0529V34.9969C15.09 35.8647 15.5738 36.4103 16.3162 36.4103C16.5419 36.4356 16.77 36.3926 16.971 36.2868C17.172 36.1811 17.3366 36.0174 17.4435 35.817L18.1471 35.8144ZM15.0529 34.3966H17.4665C17.4817 34.2332 17.4627 34.0684 17.4106 33.9128C17.3585 33.7572 17.2746 33.6142 17.1641 33.4929C17.0535 33.3716 16.9189 33.2746 16.7688 33.2083C16.6187 33.142 16.4565 33.1077 16.2924 33.1077C16.1257 33.1088 15.961 33.1432 15.8078 33.209C15.6547 33.2748 15.5163 33.3706 15.4008 33.4907C15.2853 33.6108 15.195 33.7529 15.1352 33.9085C15.0755 34.064 15.0475 34.23 15.0529 34.3966Z" fill="#B4F2FA"/>
<path d="M21.7372 33.3172C21.9427 33.4609 22.0921 33.6713 22.1601 33.9126H22.8655C22.7928 33.4895 22.5644 33.1089 22.2252 32.8457C21.886 32.5826 21.4607 32.4558 21.0328 32.4904C20.7467 32.4868 20.4632 32.5446 20.2014 32.6598C19.9395 32.775 19.7054 32.945 19.5149 33.1583C19.3243 33.3716 19.1817 33.6233 19.0966 33.8965C19.0115 34.1696 18.986 34.4578 19.0217 34.7416C18.9835 35.0275 19.007 35.3183 19.0907 35.5944C19.1744 35.8705 19.3163 36.1254 19.5069 36.3419C19.6975 36.5585 19.9324 36.7316 20.1956 36.8497C20.4588 36.9677 20.7443 37.028 21.0328 37.0263C21.4581 37.0685 21.8836 36.9481 22.2237 36.6893C22.5639 36.4305 22.7935 36.0526 22.8663 35.6315H22.1601C22.0937 35.8723 21.9439 36.0818 21.7374 36.2224C21.5309 36.3631 21.2812 36.4259 21.0328 36.3995C20.2524 36.3995 19.7492 35.7577 19.7492 34.7451C19.7492 33.7537 20.2444 33.1243 21.0328 33.1243C21.2828 33.1053 21.5317 33.1735 21.7372 33.3172Z" fill="#B4F2FA"/>
<path d="M24.5737 30.829H23.8745V36.9486H24.5737V34.3567C24.5572 34.1921 24.5771 34.026 24.632 33.87C24.6869 33.714 24.7755 33.572 24.8914 33.454C25.0073 33.3361 25.1478 33.2451 25.3028 33.1875C25.4578 33.1299 25.6236 33.1071 25.7884 33.1208C26.4532 33.1208 26.8001 33.5021 26.8001 34.2825V36.9486H27.4993V34.1113C27.5254 33.9015 27.5052 33.6886 27.4401 33.4875C27.375 33.2864 27.2666 33.102 27.1224 32.9474C26.9783 32.7927 26.802 32.6716 26.606 32.5925C26.41 32.5134 26.199 32.4783 25.9879 32.4896C25.4221 32.4401 24.8844 32.7456 24.639 33.2576H24.5737V30.829Z" fill="#B4F2FA"/>
<path d="M29.3779 32.5681H28.7105V36.9486H29.4097V34.3567C29.3916 34.1974 29.4082 34.036 29.4583 33.8837C29.5085 33.7315 29.591 33.5918 29.7002 33.4744C29.8094 33.357 29.9427 33.2646 30.0909 33.2035C30.2392 33.1425 30.3989 33.1143 30.5591 33.1208C31.2583 33.1208 31.5911 33.4942 31.5911 34.2825V36.9486H32.2903V34.1122C32.3195 33.9005 32.3009 33.685 32.2357 33.4815C32.1705 33.278 32.0605 33.0917 31.9138 32.9364C31.767 32.7811 31.5873 32.6608 31.3878 32.5842C31.1884 32.5076 30.9742 32.4768 30.7613 32.494C30.2051 32.4445 29.6763 32.7526 29.4459 33.262H29.3779V32.5681Z" fill="#B4F2FA"/>
<path fill-rule="evenodd" clip-rule="evenodd" d="M33.2891 34.7592C33.2891 33.3494 34.0606 32.4922 35.308 32.4922C36.5554 32.4922 37.327 33.3494 37.327 34.7592C37.327 36.1682 36.5563 37.0263 35.308 37.0263C34.0598 37.0263 33.2891 36.1682 33.2891 34.7592ZM36.6049 34.7592C36.6049 33.7184 36.137 33.1216 35.3036 33.1216C34.4703 33.1216 34.0077 33.7184 34.0077 34.7592C34.0077 35.8001 34.4756 36.3968 35.3036 36.3968C36.1317 36.3968 36.6049 35.7956 36.6049 34.7592Z" fill="#B4F2FA"/>
<path d="M39.0914 30.8301H38.3984V36.9497H39.0914V30.8301Z" fill="#B4F2FA"/>
<path fill-rule="evenodd" clip-rule="evenodd" d="M40.168 34.7582C40.168 33.3484 40.9395 32.4912 42.1869 32.4912C43.4343 32.4912 44.2059 33.3484 44.2059 34.7582C44.2059 36.1672 43.4343 37.0253 42.1869 37.0253C40.9395 37.0253 40.168 36.1672 40.168 34.7582ZM43.4838 34.7582C43.4838 33.7174 43.0159 33.1206 42.1861 33.1206C41.358 33.1206 40.8945 33.7174 40.8945 34.7582C40.8945 35.799 41.3624 36.3958 42.1905 36.3958C43.0185 36.3958 43.4838 35.7946 43.4838 34.7582Z" fill="#B4F2FA"/>
<path fill-rule="evenodd" clip-rule="evenodd" d="M45.207 37.4313H45.9468C46.0236 37.7898 46.4147 38.0202 47.0441 38.0202C47.8245 38.0202 48.2951 37.6353 48.2951 36.9891V36.1274H48.2297C47.9472 36.6139 47.4184 36.9043 46.8561 36.8831C45.7226 36.8831 45.0199 36.0056 45.0199 34.6938C45.0199 33.381 45.7314 32.4912 46.8561 32.4912C47.1382 32.4814 47.4178 32.548 47.6653 32.6837C47.9128 32.8195 48.119 33.0196 48.2624 33.2627H48.3277V32.5689H48.9934V37.027C48.9934 38.0052 48.2377 38.6311 47.0441 38.6311C45.9865 38.6302 45.313 38.1544 45.207 37.4313ZM47.0106 33.1206C46.1984 33.1206 45.7438 33.7386 45.7438 34.6929C45.7438 35.6481 46.1984 36.2652 47.0106 36.2652C47.8228 36.2652 48.3118 35.6472 48.3118 34.6938C48.3118 33.7386 47.8192 33.1206 47.0106 33.1206Z" fill="#B4F2FA"/>
<path d="M50.3095 37.9111V38.5096C50.4128 38.5246 50.5169 38.5335 50.6211 38.5335C51.3971 38.5335 51.7467 38.2316 52.121 37.2163L53.831 32.5684H53.0877L51.8897 36.172H51.8244L50.622 32.5684H49.8672L51.488 36.9533L51.4059 37.2128C51.2241 37.7407 51.0051 37.9323 50.6026 37.9323C50.5037 37.934 50.4066 37.927 50.3095 37.9111Z" fill="#B4F2FA"/>
<path fill-rule="evenodd" clip-rule="evenodd" d="M59.303 31.0849C59.8032 31.086 60.2823 31.2858 60.6351 31.6403C60.9879 31.9948 61.1855 32.4748 61.1843 32.975C61.1831 33.4751 60.9833 33.9542 60.6289 34.307C60.2744 34.6598 59.7943 34.8574 59.2942 34.8562H57.8199V36.9485H57.0898V31.084L59.303 31.0849ZM57.8199 34.2073H59.115C59.284 34.2184 59.4535 34.1947 59.6129 34.1376C59.7724 34.0806 59.9184 33.9914 60.042 33.8756C60.1656 33.7599 60.2641 33.62 60.3315 33.4646C60.3989 33.3092 60.4336 33.1417 60.4336 32.9723C60.4336 32.803 60.3989 32.6354 60.3315 32.48C60.2641 32.3246 60.1656 32.1847 60.042 32.069C59.9184 31.9532 59.7724 31.864 59.6129 31.807C59.4535 31.7499 59.284 31.7262 59.115 31.7373H57.8217L57.8199 34.2073Z" fill="#B4F2FA"/>
<path fill-rule="evenodd" clip-rule="evenodd" d="M61.8031 35.7205C61.8031 34.9401 62.3805 34.4854 63.401 34.4254L64.6652 34.3459V33.9487C64.6652 33.4075 64.3297 33.1109 63.6738 33.1109C63.1529 33.1109 62.7839 33.3104 62.6868 33.6556H61.9771C62.0706 32.952 62.7575 32.4894 63.6959 32.4894C64.7641 32.4894 65.3608 33.0367 65.3608 33.9478V36.9485H64.6952V36.3022H64.6299C64.3447 36.7701 63.8283 37.0465 63.281 37.0261C63.0964 37.0463 62.9097 37.0277 62.7327 36.9716C62.5558 36.9154 62.3925 36.8229 62.2534 36.7C62.1143 36.5771 62.0024 36.4265 61.9248 36.2578C61.8473 36.0891 61.8059 35.9061 61.8031 35.7205ZM64.6652 35.3144V34.9127L63.4875 34.9895C62.8219 35.0345 62.5288 35.2658 62.5288 35.7046C62.5288 36.1433 62.9066 36.4117 63.4143 36.4117C63.5691 36.4252 63.725 36.4072 63.8727 36.3589C64.0204 36.3105 64.1568 36.2328 64.2736 36.1304C64.3905 36.0279 64.4854 35.9029 64.5527 35.7628C64.62 35.6228 64.6583 35.4696 64.6652 35.3144Z" fill="#B4F2FA"/>
<path d="M67.2533 32.5671H66.5859V36.9476H67.2816V34.2303C67.2822 34.0834 67.313 33.9381 67.372 33.8035C67.4311 33.6689 67.5172 33.5479 67.625 33.448C67.7328 33.3481 67.8599 33.2714 67.9986 33.2227C68.1372 33.174 68.2844 33.1543 68.431 33.1648C68.581 33.1667 68.7307 33.1802 68.8786 33.2054V32.5115C68.7638 32.4974 68.6473 32.4912 68.5316 32.4912C68.279 32.4717 68.0265 32.5311 67.8091 32.6613C67.5916 32.7914 67.42 32.9858 67.3178 33.2177H67.2533V32.5671Z" fill="#B4F2FA"/>
<path d="M70.924 32.5671V31.4336H70.224V32.5671H69.5177V33.1524H70.2249V35.8097C70.2249 36.6466 70.5859 36.9794 71.4882 36.9794C71.6259 36.9776 71.7636 36.9644 71.8995 36.9388V36.3499C71.791 36.3614 71.6824 36.3658 71.5738 36.3658C71.1183 36.3658 70.924 36.1469 70.924 35.6304V33.1524H71.8995V32.5671H70.924Z" fill="#B4F2FA"/>
<path d="M73.5672 32.5671H72.9006V36.9476H73.5945V34.3557C73.5764 34.1961 73.5931 34.0344 73.6434 33.8818C73.6937 33.7293 73.7766 33.5895 73.8861 33.472C73.9957 33.3545 74.1295 33.2622 74.2782 33.2014C74.4269 33.1406 74.587 33.1127 74.7475 33.1198C75.4458 33.1198 75.7795 33.4932 75.7795 34.2815V36.9476H76.4795V34.1147C76.5094 33.9025 76.4912 33.6863 76.4261 33.4822C76.3611 33.278 76.2509 33.0912 76.1038 32.9354C75.9567 32.7796 75.7764 32.659 75.5763 32.5824C75.3762 32.5058 75.1614 32.4752 74.9479 32.493C74.676 32.4687 74.4034 32.5296 74.1677 32.6672C73.932 32.8048 73.745 33.0123 73.6325 33.261H73.5672V32.5671Z" fill="#B4F2FA"/>
<path fill-rule="evenodd" clip-rule="evenodd" d="M81.2965 35.8144C81.1749 36.1977 80.9252 36.5275 80.5892 36.7485C80.2533 36.9696 79.8515 37.0683 79.4514 37.0282C78.2375 37.0282 77.4766 36.1507 77.4766 34.7647C77.4766 33.3787 78.249 32.4941 79.4514 32.4941C80.6344 32.4941 81.3538 33.3355 81.3538 34.6959V34.9642H78.204V34.9969C78.2411 35.8647 78.7248 36.4103 79.4682 36.4103C79.6939 36.4356 79.922 36.3926 80.123 36.2868C80.324 36.1811 80.4886 36.0174 80.5955 35.817L81.2965 35.8144ZM78.204 34.3966H80.6176C80.6331 34.2331 80.6143 34.0683 80.5623 33.9125C80.5103 33.7568 80.4263 33.6136 80.3158 33.4923C80.2052 33.3709 80.0705 33.274 79.9203 33.2078C79.77 33.1415 79.6076 33.1074 79.4435 33.1077C79.2768 33.1088 79.112 33.1432 78.9589 33.209C78.8058 33.2748 78.6674 33.3706 78.5519 33.4907C78.4363 33.6108 78.346 33.7529 78.2863 33.9085C78.2266 34.064 78.1986 34.23 78.204 34.3966Z" fill="#B4F2FA"/>
<path d="M83.061 32.5678H82.3945V36.9483H83.0902V34.231C83.0909 34.0841 83.1218 33.9389 83.1809 33.8044C83.24 33.6699 83.3261 33.5489 83.4339 33.449C83.5416 33.3492 83.6687 33.2724 83.8073 33.2237C83.9459 33.1749 84.093 33.1551 84.2396 33.1655C84.3893 33.1674 84.5387 33.181 84.6863 33.2061V32.5122C84.5715 32.4981 84.4559 32.4919 84.3394 32.4919C84.0867 32.4724 83.8342 32.5318 83.6168 32.662C83.3993 32.7921 83.2277 32.9866 83.1255 33.2185H83.061V32.5678Z" fill="#B4F2FA"/>
</svg>
