<svg width="113" height="50" viewBox="0 0 113 50" fill="none" xmlns="http://www.w3.org/2000/svg">
<path fill-rule="evenodd" clip-rule="evenodd" d="M23.8104 13.7787C22.7325 11.2268 21.1445 8.922 19.1438 7.00586L18.7916 7.02705C18.5253 7.34686 18.2533 7.66299 17.9813 7.97915C17.351 8.71193 16.7203 9.44508 16.1591 10.2246C14.548 12.4669 13.4533 14.9617 13.094 17.7187C12.9747 18.6356 12.9982 19.5742 13.0216 20.5083C13.0273 20.7353 13.033 20.962 13.0366 21.1881C13.0455 21.6931 13.0926 22.198 13.1397 22.7029C13.1627 22.9501 13.1858 23.1974 13.2043 23.4446C13.2088 23.4896 13.1761 23.539 13.0525 23.6123L12.5096 21.9306C12.0655 22.4655 9.01278 26.1318 8.94922 26.183V28.9612H13.6943C13.7059 29.0948 13.7188 29.2263 13.7314 29.3564C13.7601 29.6501 13.788 29.9367 13.8002 30.2236L13.8016 30.256C13.812 30.5072 13.8174 30.6354 13.8842 30.7009C13.9539 30.7692 14.0905 30.7692 14.3696 30.7692H15.6338C15.6665 31.051 15.7003 31.3295 15.7339 31.6059C15.7863 32.0378 15.8383 32.4654 15.8845 32.8932C15.9344 33.3478 15.9811 33.802 16.0278 34.2559C16.0953 34.9119 16.1627 35.5674 16.2394 36.2232C16.24 36.2321 16.2415 36.241 16.2438 36.2497C16.2977 36.435 16.5661 36.4209 16.6217 36.2364C16.6277 36.2178 16.6313 36.1985 16.6323 36.179C16.6944 34.9349 16.7503 33.6903 16.8065 32.4374L16.8066 32.4361C16.8318 31.875 16.8571 31.3123 16.883 30.7471H17.8691C17.8797 30.892 17.8915 31.0368 17.9033 31.1815C17.93 31.5077 17.9566 31.8337 17.9688 32.1596C17.9903 32.7047 18.0163 33.4529 18.043 34.2232L18.0431 34.2245C18.1002 35.8669 18.1607 37.6094 18.1878 37.6983C18.1928 37.7142 18.1993 37.7296 18.2072 37.7442C18.2256 37.7784 18.2538 37.8063 18.2881 37.8243C18.3224 37.8424 18.3613 37.8498 18.3999 37.8456C18.4385 37.8415 18.4749 37.8259 18.5046 37.8009C18.5343 37.776 18.5558 37.7427 18.5665 37.7054C18.6021 37.5123 18.6213 37.3165 18.6239 37.1201C18.6683 36.136 18.7113 35.1521 18.7544 34.1683C18.8251 32.5519 18.8958 30.9358 18.9726 29.3196C19.0459 27.7642 19.1289 26.2097 19.212 24.6548L19.2121 24.6522C19.244 24.0556 19.2758 23.4588 19.3072 22.8619C19.3222 22.763 19.3442 22.6659 19.3707 22.5688C19.3941 22.6304 19.4151 22.6779 19.4323 22.7168C19.4613 22.7822 19.4793 22.823 19.4793 22.8646C19.5025 23.5223 19.5244 24.1796 19.5463 24.8369C19.5804 25.8585 19.6145 26.8803 19.6532 27.9036C19.7001 29.1569 19.7504 30.4099 19.8006 31.6628L19.8009 31.6703C19.8594 33.1286 19.9179 34.5869 19.971 36.0457L19.9741 36.1295C20.0407 37.9689 20.1809 41.8369 20.2218 42.6279C20.224 42.6618 20.239 42.6936 20.2636 42.717C20.2883 42.7403 20.3208 42.7535 20.3548 42.754C20.3887 42.7544 20.4216 42.7421 20.4468 42.7194C20.4721 42.6967 20.4879 42.6653 20.491 42.6315C20.5619 41.709 20.8555 36.3017 21.0311 33.0696L21.0311 33.0685C21.0961 31.8718 21.1449 30.9735 21.1602 30.7118H24.1352L24.3303 28.9462H28.6993C28.6993 28.7357 28.6997 28.5272 28.7001 28.3202C28.7014 27.6541 28.7026 27.0037 28.6905 26.3552C28.6889 26.2405 28.6001 26.1189 28.5237 26.0142L28.5078 25.9923C28.0761 25.392 27.6417 24.7944 27.2039 24.1985C26.8394 23.7021 26.4731 23.2076 26.0944 22.6962L26.0934 22.6949C25.8844 22.4128 25.6716 22.1255 25.4533 21.8299L24.9033 23.615L24.762 23.5735L24.7631 23.5403C24.7653 23.4737 24.7674 23.4071 24.7735 23.3413C24.8044 22.9842 24.8408 22.6274 24.8771 22.2705L24.8772 22.2695C24.9568 21.4868 25.0365 20.7035 25.0595 19.9186C25.1213 17.7787 24.6402 15.735 23.8104 13.7787ZM17.5842 16.8122C17.1985 16.4224 16.9789 15.8984 16.9713 15.3501C16.9713 14.2237 17.9009 13.2747 19.0344 13.2526C20.1388 13.2314 21.101 14.1848 21.1231 15.3245C21.1452 16.451 20.1653 17.4468 19.0397 17.4406C18.4915 17.4272 17.9699 17.202 17.5842 16.8122Z" fill="#B4F2FA"/>
<path d="M46.0801 14.9376C46.0474 14.8489 46.0138 14.758 45.9803 14.6763C45.9468 14.5889 45.907 14.5051 45.862 14.423L43.3972 10.0054C43.3699 9.94465 43.3225 9.89511 43.263 9.86505C43.1986 9.84596 43.1315 9.83761 43.0644 9.84033H42.352V17.0149H43.1959V11.7401C43.195 11.579 43.185 11.4181 43.1659 11.2581L45.6634 15.7604C45.7261 15.8973 45.862 15.9855 46.0121 15.9855H46.1516C46.2252 15.9856 46.2973 15.9644 46.3591 15.9244C46.421 15.8845 46.47 15.8275 46.5003 15.7604L48.9439 11.2731C48.9379 11.3553 48.9336 11.4342 48.9293 11.5122L48.9289 11.5194C48.9227 11.5989 48.9227 11.6739 48.9227 11.7445V17.0175H49.7702V9.84033H49.0578C48.9906 9.83754 48.9235 9.84589 48.8591 9.86505C48.7996 9.89465 48.7522 9.94394 48.7249 10.0045L46.3114 14.4186C46.2226 14.5882 46.1462 14.764 46.0827 14.9447L46.0801 14.9376Z" fill="#B4F2FA"/>
<path d="M52.5475 10.3506C52.549 10.4344 52.5312 10.5175 52.4954 10.5933C52.4267 10.7437 52.3056 10.8639 52.1546 10.9314C52.0784 10.9655 51.9958 10.9831 51.9123 10.9831C51.8288 10.9831 51.7462 10.9655 51.67 10.9314C51.5214 10.864 51.4024 10.7448 51.3354 10.596C51.3022 10.5186 51.2852 10.4352 51.2852 10.351C51.2852 10.2668 51.3022 10.1834 51.3354 10.106C51.3983 9.95225 51.5186 9.82906 51.6709 9.7626C51.7471 9.72854 51.8297 9.71094 51.9132 9.71094C51.9967 9.71094 52.0793 9.72854 52.1555 9.7626C52.3096 9.828 52.4322 9.95087 52.4972 10.1051C52.5314 10.1824 52.548 10.266 52.5475 10.3506Z" fill="#B4F2FA"/>
<path d="M52.3497 11.944V17.0184H51.4634V11.944H52.3497Z" fill="#B4F2FA"/>
<path d="M57.2762 12.9295C57.3064 12.9054 57.3331 12.8772 57.3556 12.8457L57.5931 12.5208C57.3865 12.3125 57.1411 12.1465 56.871 12.0326C56.5741 11.9134 56.2559 11.8563 55.9361 11.8649C55.5878 11.858 55.242 11.9241 54.9208 12.0591C54.6348 12.1827 54.3806 12.3681 54.1758 12.602C53.9701 12.8457 53.8138 13.1273 53.7185 13.4319C53.6109 13.7727 53.5587 14.1286 53.564 14.4859C53.5566 14.8618 53.6134 15.2361 53.7317 15.593C53.833 15.8942 53.9926 16.1726 54.2014 16.4122C54.3965 16.6297 54.637 16.8018 54.9058 16.9163C55.1834 17.0348 55.4825 17.0946 55.7842 17.092C56.1395 17.0934 56.4921 17.0293 56.8242 16.903C57.1459 16.783 57.4294 16.5787 57.6452 16.3116L57.3954 15.9849C57.3772 15.9574 57.3522 15.9351 57.3228 15.9202C57.2933 15.9053 57.2605 15.8984 57.2276 15.9002C57.1607 15.9035 57.0973 15.9311 57.0493 15.9779C56.9761 16.0398 56.8995 16.0976 56.8198 16.1509C56.5578 16.3204 56.2506 16.4063 55.9387 16.3972C55.7286 16.4007 55.5203 16.3575 55.3287 16.2692C55.1486 16.1844 54.9906 16.0573 54.8688 15.8984C54.7337 15.7192 54.6339 15.5153 54.5757 15.2981C54.5015 15.0315 54.4662 14.7561 54.4706 14.4789C54.4671 14.2105 54.4998 13.9412 54.5668 13.6808C54.6226 13.4618 54.7207 13.2557 54.8555 13.0743C54.9804 12.9099 55.1434 12.7784 55.3305 12.6912C55.5354 12.599 55.7583 12.5538 55.9829 12.5588C56.2615 12.5525 56.5367 12.6218 56.7792 12.7592C56.8555 12.8012 56.9295 12.8475 57.0007 12.8978C57.0468 12.9348 57.1033 12.9564 57.1623 12.9596C57.2024 12.9616 57.2422 12.9511 57.2762 12.9295Z" fill="#B4F2FA"/>
<path d="M58.5651 11.9443V17.0178H59.4505V13.7867C59.5596 13.4871 59.7381 13.2176 59.9714 13.0002C60.1877 12.8165 60.4631 12.7194 60.7456 12.7283C60.8814 12.7235 61.0172 12.7395 61.1482 12.7759C61.217 12.8018 61.2893 12.8176 61.3627 12.8227C61.399 12.8241 61.4346 12.8122 61.4629 12.7894C61.4911 12.7665 61.5101 12.7341 61.5163 12.6982L61.6311 12.0317C61.5331 11.9743 61.428 11.9293 61.3177 11.8993C61.1004 11.8436 60.8735 11.8373 60.6535 11.8808C60.4335 11.9244 60.2261 12.0167 60.0464 12.1509C59.7727 12.3751 59.5538 12.6594 59.4073 12.9807L59.3464 12.1897C59.3415 12.1201 59.3157 12.0536 59.2722 11.9991C59.2156 11.9556 59.1444 11.936 59.0736 11.9443H58.5651Z" fill="#B4F2FA"/>
<path fill-rule="evenodd" clip-rule="evenodd" d="M64.6144 11.8635C64.9558 11.8589 65.2946 11.9219 65.6115 12.0489C65.8984 12.1663 66.1545 12.3464 66.3637 12.5751C66.5782 12.8134 66.7406 13.0942 66.8422 13.3987C66.9569 13.7465 67.0143 14.112 67.0099 14.4784C67.0143 14.8456 66.9578 15.2111 66.8422 15.5598C66.7406 15.8637 66.5778 16.1434 66.3637 16.3817C66.1553 16.6099 65.8986 16.7887 65.6124 16.9052C64.9698 17.1496 64.2599 17.1496 63.6173 16.9052C63.3286 16.7891 63.0693 16.6103 62.8581 16.3817C62.6427 16.1439 62.4784 15.8645 62.3752 15.5607C62.2583 15.212 62.2016 14.8461 62.2074 14.4784C62.202 14.1116 62.2587 13.7466 62.3752 13.3987C62.4785 13.095 62.6427 12.8161 62.8581 12.5795C63.0699 12.3499 63.3286 12.1707 63.6173 12.0524C63.9339 11.9242 64.2728 11.86 64.6144 11.8635ZM64.614 16.3923C65.1127 16.3923 65.4835 16.2246 65.7289 15.8873C65.9744 15.551 66.0971 15.0831 66.098 14.4828C66.098 13.8781 65.9744 13.4075 65.7289 13.0703C65.4835 12.7322 65.111 12.5636 64.614 12.5654C64.3881 12.5595 64.1638 12.6038 63.9572 12.6951C63.7739 12.7801 63.6144 12.909 63.4928 13.0703C63.3604 13.2503 63.2656 13.455 63.2138 13.6724C63.1489 13.9372 63.1178 14.2092 63.1211 14.4819C63.1176 14.7538 63.1485 15.0248 63.2138 15.2888C63.265 15.5051 63.3595 15.7081 63.4919 15.8865C63.6142 16.0471 63.7739 16.1753 63.9572 16.2599C64.1646 16.3517 64.3888 16.3967 64.614 16.3923Z" fill="#B4F2FA"/>
<path d="M70.9201 12.8624C70.9526 12.843 70.9789 12.8146 70.9957 12.7806L71.1979 12.4548C71.0001 12.2668 70.768 12.1194 70.5137 12.0223C70.2277 11.9119 69.9231 11.8581 69.6177 11.8634C69.359 11.8598 69.1012 11.8996 68.8558 11.9834C68.6501 12.054 68.4585 12.1644 68.2935 12.3065C68.1462 12.4345 68.0282 12.5927 67.9475 12.7703C67.8668 12.9479 67.8252 13.1408 67.8256 13.3359C67.8194 13.5135 67.8535 13.6902 67.9254 13.8527C67.9972 14.0152 68.105 14.1594 68.2405 14.2743C68.3664 14.3799 68.5071 14.4665 68.6581 14.5312C68.8143 14.6001 68.9768 14.6619 69.141 14.7148C69.3052 14.7678 69.4658 14.819 69.623 14.8675C69.7671 14.9102 69.9069 14.9664 70.0405 15.0353C70.1543 15.0931 70.2551 15.1733 70.3372 15.271C70.4125 15.3711 70.4503 15.4945 70.444 15.6197C70.445 15.7296 70.424 15.8385 70.3822 15.9402C70.3396 16.042 70.274 16.1326 70.1906 16.205C70.0961 16.2871 69.9858 16.3498 69.8675 16.3886C69.721 16.4354 69.5682 16.4584 69.4146 16.4557C69.1172 16.4637 68.8238 16.3856 68.5698 16.2306C68.4753 16.1741 68.3941 16.122 68.3279 16.0752C68.2737 16.0327 68.2077 16.008 68.139 16.0046C68.0883 16.0021 68.038 16.0143 67.9942 16.0399C67.9552 16.0655 67.9228 16.1 67.8997 16.1406L67.6914 16.4813C67.9053 16.6706 68.151 16.8206 68.4171 16.9245C68.7216 17.0433 69.0463 17.1021 69.3731 17.0975C69.6503 17.1019 69.9258 17.0596 70.1888 16.973C70.4084 16.8979 70.6114 16.781 70.7865 16.6287C70.9466 16.4864 71.0728 16.3099 71.1555 16.1123C71.2394 15.9067 71.2814 15.6864 71.2791 15.4643C71.2844 15.2833 71.2464 15.1041 71.167 14.9408C71.0946 14.7987 70.994 14.6733 70.8704 14.5727C70.7441 14.4703 70.6029 14.3847 70.4528 14.3202C70.2965 14.254 70.1359 14.1931 69.9726 14.1375C69.8084 14.0818 69.6486 14.0306 69.4923 13.9821C69.3485 13.9385 69.2087 13.8824 69.0747 13.8144C68.9626 13.7587 68.8629 13.6819 68.779 13.5884C68.7032 13.4993 68.6624 13.3857 68.6642 13.2688C68.6638 13.1685 68.687 13.0696 68.7322 12.9801C68.7792 12.8892 68.8455 12.8096 68.9264 12.747C69.0195 12.6754 69.1248 12.6213 69.2372 12.5873C69.3675 12.5472 69.5034 12.5279 69.6397 12.5299C69.791 12.5271 69.9418 12.5468 70.0873 12.5881C70.1994 12.6204 70.3086 12.6618 70.414 12.7117C70.492 12.7507 70.5688 12.7919 70.6444 12.8353C70.6946 12.8678 70.7524 12.8867 70.8121 12.8901C70.85 12.8914 70.8875 12.8818 70.9201 12.8624Z" fill="#B4F2FA"/>
<path fill-rule="evenodd" clip-rule="evenodd" d="M74.4656 11.8635C74.8071 11.8589 75.1461 11.9219 75.4631 12.0489C75.7518 12.1672 76.0105 12.3491 76.2197 12.5786C76.4333 12.817 76.5967 13.0977 76.6973 13.4031C76.8129 13.751 76.8694 14.1156 76.865 14.4828C76.8694 14.8501 76.8129 15.2155 76.6973 15.5642C76.596 15.868 76.4335 16.1477 76.2197 16.3861C76.0101 16.6153 75.7515 16.7942 75.4631 16.9096C74.8205 17.154 74.1106 17.154 73.468 16.9096C73.1792 16.7937 72.9198 16.6149 72.7088 16.3861C72.4935 16.1483 72.3291 15.8689 72.2259 15.5651C72.1094 15.2164 72.0529 14.8504 72.059 14.4828C72.0537 14.1156 72.1102 13.7501 72.2268 13.4031C72.3292 13.0977 72.4934 12.8178 72.7097 12.5795C72.9215 12.3499 73.1802 12.1707 73.468 12.0524C73.7848 11.9242 74.1238 11.86 74.4656 11.8635ZM74.4656 16.3923C74.9626 16.3923 75.3342 16.2246 75.5806 15.8873C75.8269 15.551 75.9496 15.0831 75.9487 14.4828C75.9487 13.8781 75.826 13.4075 75.5806 13.0703C75.3351 12.7322 74.9626 12.5636 74.4656 12.5654C74.2397 12.5595 74.0154 12.6038 73.8088 12.6951C73.6252 12.78 73.4654 12.9089 73.3435 13.0703C73.2111 13.2504 73.1166 13.4552 73.0646 13.6724C73.0001 13.9372 72.9692 14.2091 72.9727 14.4819C72.9692 14.7538 73.0001 15.0248 73.0646 15.2888C73.1166 15.5051 73.2111 15.7081 73.3435 15.8865C73.4658 16.0471 73.6255 16.1753 73.8088 16.2599C74.0153 16.3517 74.2396 16.3967 74.4656 16.3923Z" fill="#B4F2FA"/>
<path d="M78.1618 12.7068V17.0193H79.0525V12.6918H80.48V12.0447H79.0216V11.5803C79.0169 11.3952 79.0414 11.2105 79.094 11.033C79.134 10.9001 79.2048 10.7785 79.3006 10.6781C79.3901 10.5875 79.5004 10.5202 79.6219 10.4821C79.7572 10.4406 79.8981 10.4204 80.0395 10.4221H80.194C80.2693 10.4241 80.3445 10.4173 80.4182 10.4018C80.4439 10.3947 80.4663 10.3787 80.4815 10.3568C80.4967 10.3348 80.5036 10.3083 80.5012 10.2817L80.5215 9.8359C80.3194 9.76792 80.1075 9.73438 79.8938 9.73614C79.6502 9.73261 79.4074 9.77322 79.1779 9.85621C78.9722 9.93171 78.7861 10.0524 78.6332 10.2093C78.4769 10.3718 78.3587 10.5669 78.2854 10.7805C78.1997 11.0295 78.1579 11.2914 78.1618 11.5547V12.0447H77.3655V12.4119C77.364 12.4407 77.3692 12.4695 77.3809 12.4959C77.3926 12.5222 77.4103 12.5455 77.4326 12.5638C77.484 12.601 77.5427 12.6272 77.6047 12.6406L78.1618 12.7068Z" fill="#B4F2FA"/>
<path d="M81.9252 16.7633C82.1388 16.9875 82.446 17.0996 82.8451 17.0996C83.0746 17.0979 83.3015 17.0519 83.516 16.9672C83.7201 16.8921 83.9075 16.7778 84.0677 16.6308L83.8091 16.2045C83.7853 16.1568 83.7385 16.125 83.6855 16.1206C83.6514 16.1235 83.6191 16.1367 83.5928 16.1585C83.4996 16.2279 83.3974 16.2843 83.2891 16.3263C83.2117 16.3531 83.1301 16.3659 83.0481 16.3642C82.9741 16.368 82.9001 16.3563 82.8308 16.33C82.7616 16.3037 82.6985 16.2634 82.6456 16.2115C82.5432 16.1082 82.4911 15.9502 82.4911 15.7366V12.6909H83.9336V12.0438H82.4902V10.2958H82.0426C81.992 10.294 81.9424 10.3107 81.9031 10.3426C81.8668 10.3743 81.8435 10.4183 81.8378 10.4662L81.6347 12.0341L80.8084 12.14V12.4958C80.8062 12.5229 80.8099 12.5501 80.8194 12.5756C80.8289 12.6011 80.8438 12.6242 80.8632 12.6432C80.9001 12.6758 80.9481 12.6932 80.9974 12.6918H81.6047V15.7957C81.6047 16.2159 81.7115 16.539 81.9252 16.7633Z" fill="#B4F2FA"/>
<path d="M42.4108 23.9043V28.2159L42.41 28.2168H43.3016V23.8866H44.73V23.2404H43.2716V22.7743C43.2672 22.5908 43.291 22.4077 43.3422 22.2314C43.3823 22.0983 43.4531 21.9764 43.5488 21.8756C43.6385 21.7855 43.7488 21.7186 43.8701 21.6805C44.0052 21.6381 44.1464 21.6178 44.2877 21.6196H44.4422C44.5171 21.6219 44.5921 21.6154 44.6655 21.6002C44.6916 21.5932 44.7143 21.5772 44.7296 21.5551C44.745 21.5329 44.752 21.506 44.7494 21.4792L44.7688 21.0334C44.5675 20.9654 44.3548 20.9319 44.142 20.9336C43.8975 20.9301 43.6544 20.9708 43.4243 21.0537C43.2155 21.1304 43.0268 21.2534 42.8723 21.4135C42.7179 21.5735 42.6018 21.7666 42.5327 21.978C42.4473 22.227 42.406 22.489 42.4108 22.7522V23.2431H41.6137V23.6085C41.6118 23.6375 41.6169 23.6665 41.6286 23.6931C41.6402 23.7197 41.6581 23.7431 41.6808 23.7613C41.7317 23.7996 41.7905 23.8262 41.8529 23.839L42.4108 23.9043Z" fill="#B4F2FA"/>
<path fill-rule="evenodd" clip-rule="evenodd" d="M47.6042 23.0617C47.9458 23.0573 48.2848 23.12 48.6017 23.2471C48.8895 23.3645 49.1482 23.5446 49.3583 23.7732C49.5728 24.0116 49.7353 24.2932 49.8368 24.5978C50.0597 25.3009 50.0597 26.0558 49.8368 26.7589C49.7353 27.0626 49.5719 27.3424 49.3583 27.5799C49.1482 27.8094 48.8904 27.9886 48.6017 28.1043C47.9589 28.3476 47.2494 28.3476 46.6066 28.1043C46.3178 27.9878 46.0585 27.8087 45.8474 27.5799C45.6319 27.3422 45.4675 27.0627 45.3645 26.7589C45.1393 26.0561 45.1393 25.3006 45.3645 24.5978C45.4678 24.2923 45.632 24.0116 45.8483 23.7732C46.0598 23.5447 46.319 23.3654 46.6075 23.248C46.9242 23.12 47.2635 23.057 47.605 23.0626L47.6042 23.0617ZM47.6042 27.5905C48.1021 27.5905 48.4737 27.4228 48.7191 27.0855C48.9646 26.7501 49.0873 26.2804 49.0873 25.6801C49.0873 25.0763 48.9646 24.6048 48.7191 24.2676C48.4737 23.9313 48.1012 23.7627 47.6042 23.7635C47.3783 23.7583 47.154 23.8029 46.9474 23.8942C46.7635 23.9787 46.6036 24.1076 46.4821 24.2694C46.3494 24.451 46.2548 24.6576 46.204 24.8768C46.0804 25.4082 46.0804 25.9609 46.204 26.4923C46.2552 26.7095 46.3497 26.9134 46.4821 27.0917C46.6057 27.2524 46.7646 27.3804 46.9474 27.4643C47.1548 27.5543 47.379 27.5967 47.6042 27.5905Z" fill="#B4F2FA"/>
<path d="M51.0977 23.1428V28.2154L51.9849 28.2163V24.9852C52.0944 24.686 52.2725 24.4166 52.5049 24.1986C52.7204 24.0161 52.996 23.9201 53.2782 23.9294C53.4146 23.9243 53.551 23.94 53.6826 23.9762C53.7511 24.0023 53.8231 24.0183 53.8962 24.0238C53.9327 24.0254 53.9685 24.0135 53.9968 23.9904C54.0252 23.9673 54.044 23.9346 54.0498 23.8985L54.1628 23.2328C53.9538 23.1093 53.7143 23.0466 53.4716 23.0519C53.1483 23.0458 52.8329 23.1511 52.5782 23.3503C52.3047 23.5744 52.0858 23.8579 51.9381 24.1792L51.879 23.3873C51.8746 23.3176 51.8481 23.2505 51.804 23.1975C51.7466 23.1543 51.6751 23.134 51.6044 23.1428H51.0977Z" fill="#B4F2FA"/>
<path d="M60.7238 22.2732C60.7621 22.2418 60.7941 22.2035 60.8183 22.1602L61.046 21.6977C60.7989 21.4558 60.5058 21.2686 60.1835 21.1468C59.8366 21.017 59.4685 20.9526 59.0977 20.957C58.7756 20.9519 58.4555 21.0089 58.1549 21.1247C57.898 21.2241 57.6638 21.3742 57.4663 21.5661C57.2826 21.7453 57.1379 21.9598 57.0407 22.1964C56.844 22.6896 56.844 23.2394 57.0407 23.7325C57.1307 23.9366 57.2617 24.1199 57.4257 24.271C57.5879 24.4157 57.772 24.5337 57.9712 24.6206C58.1756 24.7116 58.3848 24.7912 58.598 24.859L59.2248 25.0603C59.4147 25.1189 59.5974 25.1985 59.7695 25.2977C59.9217 25.3848 60.0535 25.5034 60.1562 25.6456C60.2592 25.804 60.3102 25.9908 60.3018 26.1797C60.3045 26.3633 60.2709 26.5451 60.203 26.7155C60.1385 26.8727 60.0405 27.0139 59.9169 27.1287C59.7845 27.2478 59.6291 27.3397 59.4614 27.397C59.2637 27.4633 59.0571 27.495 58.8487 27.4915C58.6113 27.4977 58.3738 27.4597 58.1504 27.3794C57.9792 27.3141 57.8159 27.2311 57.6622 27.1304C57.5466 27.0545 57.4345 26.9715 57.3277 26.8832C57.2632 26.8188 57.1794 26.7791 57.0893 26.7703C57.0441 26.77 56.9998 26.7832 56.9622 26.8082C56.9247 26.8333 56.8919 26.8646 56.8651 26.9009L56.587 27.3617C56.861 27.6533 57.1918 27.8859 57.559 28.045C57.9572 28.2176 58.3874 28.304 58.8214 28.2984C59.167 28.3037 59.5105 28.2438 59.8339 28.1218C60.1151 28.0154 60.3712 27.8519 60.5861 27.6416C60.7902 27.4373 60.9488 27.1921 61.0513 26.9221C61.159 26.6405 61.2129 26.3403 61.2102 26.0384C61.2182 25.7806 61.1679 25.5237 61.0637 25.2871C60.971 25.0902 60.8387 24.9144 60.6753 24.7707C60.5111 24.6286 60.3266 24.5112 60.1279 24.4229C59.9249 24.3293 59.7156 24.2445 59.5011 24.1704L58.8743 23.9576C58.6837 23.8958 58.5 23.8146 58.327 23.714C58.176 23.6301 58.0445 23.5153 57.9386 23.3785C57.8362 23.2337 57.785 23.0572 57.792 22.8806C57.7903 22.7303 57.8185 22.5812 57.875 22.4419C57.9312 22.3069 58.0169 22.1863 58.1257 22.0887C58.2479 21.9821 58.3902 21.9011 58.5442 21.8504C58.7288 21.7906 58.9222 21.7622 59.1162 21.7665C59.3146 21.7617 59.5125 21.79 59.7015 21.8504C59.8447 21.8997 59.9827 21.9627 60.1138 22.0384C60.2118 22.0961 60.3067 22.1588 60.3981 22.2265C60.4527 22.2748 60.5214 22.3045 60.594 22.3112C60.6403 22.3133 60.686 22.2999 60.7238 22.2732Z" fill="#B4F2FA"/>
<path d="M62.9141 27.9612C63.1268 28.1845 63.434 28.2966 63.8322 28.2966C64.0607 28.2951 64.2869 28.2523 64.4996 28.1686C64.7039 28.0941 64.8915 27.9798 65.0513 27.8323L64.7927 27.4068C64.7812 27.3832 64.7637 27.3631 64.742 27.3484C64.7204 27.3336 64.6952 27.3249 64.6691 27.3229C64.635 27.3257 64.6027 27.339 64.5764 27.3608C64.5349 27.3917 64.4934 27.4182 64.4492 27.4447C64.3936 27.4783 64.3345 27.5065 64.2727 27.5286C64.1948 27.5547 64.113 27.5673 64.0308 27.5657C63.8834 27.5718 63.7395 27.5153 63.6335 27.4112C63.5303 27.3079 63.479 27.149 63.479 26.9353V23.8897H64.9189V23.2434H63.4755V21.4946H63.0271C62.9777 21.4916 62.9291 21.5077 62.8912 21.5396C62.8534 21.5715 62.8294 21.6167 62.824 21.6659L62.6263 23.2328L61.7991 23.3388V23.6946C61.7968 23.7217 61.8005 23.7491 61.8102 23.7746C61.8198 23.8001 61.835 23.8231 61.8547 23.842C61.8915 23.8741 61.9391 23.8911 61.988 23.8897H62.5927V26.9927C62.5927 27.4138 62.6995 27.736 62.9141 27.9612Z" fill="#B4F2FA"/>
<path fill-rule="evenodd" clip-rule="evenodd" d="M69.7168 28.2154H69.324C69.2522 28.219 69.1805 28.2057 69.1147 28.1766C69.0855 28.1587 69.0608 28.1343 69.0427 28.1051C69.0246 28.076 69.0136 28.043 69.0106 28.0089L68.9099 27.5383C68.7775 27.6584 68.6486 27.7661 68.5224 27.8614C68.3983 27.955 68.2649 28.0355 68.1242 28.1015C67.9812 28.1678 67.8329 28.2172 67.6784 28.249C67.5059 28.2841 67.3301 28.3009 67.154 28.2993C66.9674 28.3005 66.7818 28.2722 66.604 28.2154C66.4394 28.1634 66.2875 28.0774 66.1582 27.9629C66.0281 27.847 65.9256 27.7034 65.8581 27.5427C65.779 27.3527 65.7408 27.1482 65.746 26.9424C65.7477 26.7367 65.8051 26.5363 65.9137 26.3615C66.0454 26.1542 66.2277 25.9838 66.4434 25.8663C66.7433 25.7014 67.0662 25.5821 67.4012 25.5123C67.8771 25.4121 68.3628 25.3656 68.849 25.3737V24.9782C68.849 24.5818 68.766 24.2825 68.5983 24.0786C68.4315 23.8756 68.1834 23.7732 67.855 23.7732C67.6699 23.7692 67.4855 23.7979 67.3103 23.8579C67.1762 23.9061 67.0475 23.9683 66.9263 24.0433C66.8319 24.1025 66.7392 24.1643 66.6482 24.2287C66.5816 24.2799 66.5008 24.3092 66.4169 24.3125C66.3609 24.3137 66.306 24.2974 66.2598 24.2658C66.2161 24.2344 66.1797 24.194 66.1529 24.1475L65.994 23.8614C66.2527 23.6045 66.559 23.3988 66.8945 23.2558C67.2343 23.1187 67.598 23.0506 67.9645 23.0554C68.2222 23.0501 68.4774 23.0987 68.7166 23.1958C68.9276 23.2832 69.1156 23.4165 69.2684 23.5869C69.422 23.7626 69.5358 23.9691 69.6038 24.1925C69.6824 24.445 69.7204 24.7089 69.7177 24.9738L69.7168 28.2154ZM67.4171 27.6699C67.693 27.6754 67.9659 27.6127 68.2116 27.4871C68.3273 27.428 68.4376 27.3565 68.5392 27.2752C68.6477 27.187 68.751 27.0916 68.8455 26.9892V25.9422C68.4969 25.9379 68.1486 25.9645 67.8047 26.0217C67.5646 26.0599 67.3303 26.1281 67.1073 26.2247C66.9542 26.289 66.8201 26.3914 66.7179 26.5222C66.6374 26.6333 66.5944 26.7672 66.5952 26.9045C66.5922 27.0237 66.6145 27.1423 66.6606 27.2523C66.6996 27.3442 66.759 27.4261 66.8345 27.4915C66.9098 27.5555 66.9985 27.6019 67.094 27.6275C67.1991 27.6566 67.3076 27.6716 67.4171 27.6699Z" fill="#B4F2FA"/>
<path d="M71.0634 23.142V28.2146L71.0643 28.2155H71.9488V24.9844C72.0583 24.6852 72.2364 24.4158 72.4688 24.1978C72.6851 24.0151 72.9614 23.9197 73.2439 23.9286C73.3797 23.9236 73.5155 23.9394 73.6465 23.9753C73.715 24.0014 73.787 24.0175 73.8601 24.023C73.8967 24.0246 73.9327 24.0127 73.9611 23.9896C73.9896 23.9665 74.0086 23.9338 74.0146 23.8977L74.1294 23.232C73.9196 23.1093 73.6802 23.0467 73.4373 23.051C73.1143 23.0453 72.7993 23.1506 72.5447 23.3494C72.272 23.5728 72.053 23.8562 71.9056 24.1784L71.8456 23.3865C71.8406 23.3172 71.8147 23.251 71.7714 23.1967C71.7143 23.1531 71.6424 23.1335 71.571 23.142H71.0634Z" fill="#B4F2FA"/>
<path d="M75.684 27.9603C75.8985 28.1837 76.2048 28.2958 76.6039 28.2958C76.8316 28.294 77.0585 28.2517 77.2704 28.1678C77.4751 28.0934 77.6629 27.9791 77.823 27.8314L77.5635 27.4059C77.5396 27.3574 77.492 27.3265 77.439 27.3221C77.4053 27.3251 77.3732 27.3383 77.3472 27.36C77.2543 27.4299 77.1521 27.4863 77.0435 27.5278C76.9659 27.5537 76.8844 27.5663 76.8025 27.5648C76.6542 27.571 76.5094 27.5154 76.4035 27.4103C76.3011 27.3071 76.2499 27.1481 76.2499 26.9345V23.8888H77.6924V23.2426H76.249V21.4938H75.8014C75.7506 21.4917 75.7009 21.5087 75.6619 21.5415C75.6252 21.5727 75.6021 21.617 75.5975 21.665L75.3927 23.232L74.5672 23.338V23.6937C74.5649 23.7207 74.5685 23.748 74.5778 23.7734C74.5871 23.7989 74.6019 23.822 74.6211 23.8412C74.6586 23.8734 74.7068 23.8904 74.7562 23.8888H75.3635V26.9919C75.3627 27.413 75.4695 27.7352 75.684 27.9603Z" fill="#B4F2FA"/>
<path d="M79.5542 26.3775V23.142H78.6688V26.3766C78.6659 26.6426 78.7019 26.9076 78.7756 27.1632C78.8385 27.3854 78.9477 27.5917 79.096 27.7688C79.2404 27.9372 79.4216 28.0702 79.6257 28.1572C79.857 28.253 80.1055 28.2999 80.3558 28.2949C80.6816 28.302 81.0029 28.2243 81.2916 28.0724C81.5679 27.9197 81.8168 27.7211 82.0269 27.4827L82.0976 28.0301C82.1075 28.0849 82.1373 28.1342 82.1812 28.1684C82.2252 28.2026 82.2803 28.2194 82.3359 28.2155H82.863V23.142H81.9775V26.8833C81.7996 27.0918 81.5854 27.2664 81.3454 27.3989C81.1212 27.5225 80.8705 27.5851 80.6145 27.5843C80.2605 27.5851 79.9939 27.4801 79.8191 27.2691C79.6425 27.0581 79.5542 26.7606 79.5542 26.3775Z" fill="#B4F2FA"/>
<path fill-rule="evenodd" clip-rule="evenodd" d="M84.3237 29.9334V23.142H84.8517C84.9664 23.1332 85.0697 23.2126 85.0909 23.3274L85.1651 23.9277C85.3708 23.6726 85.6215 23.4572 85.904 23.2921C86.1971 23.1279 86.5272 23.0449 86.8627 23.0511C87.1337 23.0475 87.4021 23.1049 87.6484 23.2188C87.8867 23.3327 88.0933 23.5022 88.2505 23.7149C88.4288 23.9586 88.5594 24.2358 88.6336 24.5289C88.7289 24.8935 88.774 25.2687 88.7687 25.6456C88.7713 25.9988 88.721 26.3519 88.6186 26.69C88.5296 26.9945 88.3847 27.2798 88.1913 27.5313C88.0059 27.7652 87.7729 27.9551 87.5063 28.0875C87.222 28.2255 86.9094 28.295 86.5934 28.2905C86.3189 28.2977 86.0461 28.2443 85.7945 28.1343C85.5712 28.0292 85.372 27.8792 85.2092 27.6937V29.9378L84.3237 29.9334ZM86.5683 23.7723C86.3018 23.7671 86.0389 23.836 85.8095 23.9727C85.5757 24.1217 85.3722 24.3137 85.2101 24.5386V26.9928C85.3469 27.1914 85.5305 27.3521 85.7451 27.4589C85.949 27.5516 86.1706 27.5975 86.3948 27.5949C86.8627 27.5949 87.222 27.4271 87.4745 27.0899C87.7261 26.7536 87.8523 26.2724 87.8523 25.6474C87.8582 25.3614 87.8303 25.0758 87.7693 24.7964C87.7236 24.5877 87.6385 24.3897 87.5186 24.2128C87.4174 24.066 87.2778 23.9497 87.1152 23.8765C86.9422 23.8039 86.7558 23.7684 86.5683 23.7723Z" fill="#B4F2FA"/>
<path d="M92.6206 24.061C92.6532 24.0412 92.6794 24.0124 92.6958 23.978L92.8954 23.6601C92.6967 23.473 92.4646 23.3256 92.2112 23.2276C91.9269 23.1172 91.6232 23.0643 91.3178 23.0687C91.0588 23.0644 90.801 23.105 90.5559 23.1887C90.3502 23.2594 90.1596 23.3697 89.9945 23.5118C89.8476 23.6402 89.7299 23.7984 89.6492 23.9759C89.5685 24.1535 89.5267 24.3462 89.5266 24.5412C89.5207 24.7319 89.5591 24.9213 89.6387 25.0947C89.7091 25.2421 89.8099 25.373 89.9344 25.4787C90.0606 25.5841 90.2012 25.6709 90.352 25.7365C90.5101 25.8047 90.6712 25.8657 90.8349 25.9192C91 25.9731 91.1598 26.0234 91.3178 26.0729C91.4619 26.1156 91.6017 26.1718 91.7354 26.2406C91.8492 26.2981 91.9502 26.3784 92.032 26.4763C92.1091 26.5754 92.1485 26.6987 92.1432 26.8241C92.1438 26.934 92.1228 27.0428 92.0814 27.1446C92.0386 27.2463 91.9734 27.3372 91.8907 27.4103C91.7955 27.492 91.6851 27.5541 91.5659 27.593C91.42 27.6407 91.2673 27.6637 91.1139 27.661C90.8164 27.6686 90.523 27.5902 90.269 27.435C90.1746 27.3785 90.0942 27.3273 90.028 27.2796C89.9739 27.2371 89.9079 27.2125 89.8391 27.209C89.7884 27.2066 89.7382 27.2189 89.6943 27.2443C89.6557 27.2704 89.6234 27.3048 89.5998 27.345L89.3906 27.6857C89.6046 27.8754 89.8506 28.0255 90.1172 28.1289C90.4217 28.2477 90.7464 28.3065 91.0732 28.3019C91.3505 28.3063 91.6268 28.2649 91.8898 28.1766C92.1091 28.1023 92.3115 27.9856 92.4857 27.8332C92.6464 27.6913 92.7727 27.5147 92.8548 27.3167C92.939 27.1112 92.9813 26.8909 92.9792 26.6687C92.9916 26.3227 92.8397 25.9916 92.5705 25.7771C92.4442 25.6738 92.303 25.5882 92.1529 25.5246C91.9976 25.4584 91.8378 25.3975 91.6727 25.3419C91.5085 25.2863 91.3478 25.2351 91.1924 25.1865C91.0485 25.1433 90.909 25.0868 90.7749 25.0179C90.6624 24.9627 90.5617 24.8863 90.4782 24.7928C90.4026 24.7009 90.3636 24.5842 90.3688 24.4653C90.3678 24.3651 90.3908 24.2661 90.4359 24.1766C90.4828 24.0856 90.5491 24.0061 90.6301 23.9435C90.722 23.8734 90.8258 23.8202 90.9364 23.7864C91.067 23.746 91.2032 23.7263 91.3399 23.7281C91.4911 23.7254 91.6419 23.745 91.7874 23.7864C91.8991 23.8193 92.008 23.8609 92.1132 23.9109C92.1917 23.9493 92.2689 23.9905 92.3445 24.0345C92.3948 24.0668 92.4525 24.0856 92.5122 24.0892C92.5503 24.0905 92.588 24.0807 92.6206 24.061Z" fill="#B4F2FA"/>
<path d="M45.1916 38.2207C45.2314 38.2207 45.2649 38.2365 45.2932 38.2666L45.5774 38.5747C45.4203 38.7689 45.2269 38.919 44.9974 39.0214C44.7679 39.1255 44.4933 39.1767 44.172 39.1767C43.8842 39.1767 43.6255 39.1282 43.396 39.0293C43.1712 38.9352 42.9691 38.7941 42.8033 38.6155C42.6375 38.4369 42.5118 38.2249 42.4346 37.9938C42.3459 37.7381 42.302 37.469 42.3049 37.1984C42.3049 36.907 42.3534 36.6404 42.4496 36.3985C42.5467 36.1567 42.6818 35.9483 42.8566 35.7735C43.0358 35.596 43.2494 35.4569 43.4843 35.3648C43.7288 35.2677 43.9972 35.2191 44.2921 35.2191C44.5798 35.2191 44.8306 35.265 45.046 35.3568C45.2614 35.4486 45.445 35.5705 45.5986 35.7223L45.3576 36.0578C45.3428 36.0794 45.3243 36.0983 45.3029 36.1134C45.2752 36.1309 45.2428 36.1392 45.2102 36.1372C45.1643 36.1354 45.1203 36.1187 45.0848 36.0896C44.9601 35.9961 44.82 35.9253 44.6708 35.8803C44.5459 35.8452 44.4164 35.8291 44.2868 35.8327C44.1049 35.8327 43.9372 35.8644 43.7844 35.9271C43.6351 35.9882 43.5007 36.081 43.3907 36.199C43.2773 36.3236 43.1902 36.4699 43.1347 36.629C43.0703 36.8118 43.0386 37.0045 43.0411 37.1984C43.0411 37.4155 43.072 37.6098 43.1338 37.7793C43.1956 37.9488 43.2786 38.0918 43.3845 38.2074C43.4896 38.3239 43.6141 38.4122 43.7562 38.474C43.8992 38.5358 44.0528 38.5667 44.217 38.5667C44.315 38.5667 44.4042 38.5614 44.4836 38.5499C44.629 38.5342 44.769 38.4859 44.8932 38.4087C44.9533 38.3734 45.0124 38.3284 45.0716 38.2745C45.0883 38.2591 45.107 38.2461 45.1272 38.2357C45.1472 38.2256 45.1693 38.2205 45.1916 38.2207Z" fill="#B4F2FA"/>
<path d="M51.1762 39.1344H50.4505V37.442H48.6346V39.1344H47.9089V35.2624H48.6346V36.9273H50.4505V35.2624H51.1762V39.1344Z" fill="#B4F2FA"/>
<path fill-rule="evenodd" clip-rule="evenodd" d="M57.46 37.1984C57.46 37.4817 57.4123 37.7448 57.3187 37.9867C57.2306 38.2215 57.0946 38.4353 56.9194 38.6147C56.7441 38.794 56.5335 38.9349 56.3008 39.0284C56.0463 39.13 55.7742 39.1804 55.5001 39.1767C55.2255 39.1802 54.9529 39.1298 54.6977 39.0284C54.4641 38.9349 54.2525 38.7939 54.0762 38.6144C53.9019 38.4343 53.7659 38.2208 53.6763 37.9867C53.5801 37.7351 53.5322 37.4677 53.535 37.1984C53.535 36.9141 53.5818 36.651 53.6763 36.4091C53.766 36.1751 53.902 35.9617 54.0762 35.7815C54.2492 35.6049 54.4558 35.4672 54.6977 35.3674C54.9529 35.266 55.2255 35.2156 55.5001 35.2191C55.7924 35.2191 56.0598 35.2694 56.3008 35.3692C56.5419 35.469 56.7475 35.6076 56.9188 35.7832C57.0901 35.9589 57.2234 36.1673 57.3178 36.41C57.4123 36.651 57.46 36.9141 57.46 37.1984ZM56.7211 37.1984C56.7211 36.9856 56.6928 36.7949 56.6363 36.6263C56.5861 36.4679 56.5037 36.3216 56.3944 36.1964C56.2886 36.0783 56.1573 35.9859 56.0104 35.9262C55.8482 35.8617 55.6747 35.8299 55.5001 35.8327C55.325 35.8299 55.151 35.8617 54.9881 35.9262C54.8363 35.988 54.7074 36.079 54.6014 36.1964C54.4955 36.3147 54.4134 36.4577 54.356 36.6263C54.2964 36.811 54.2675 37.0043 54.2704 37.1984C54.2704 37.4102 54.2995 37.6009 54.356 37.7695C54.4134 37.9382 54.4955 38.0812 54.6014 38.1986C54.7074 38.3151 54.8363 38.4052 54.9881 38.467C55.14 38.5296 55.3103 38.5614 55.5001 38.5614C55.6891 38.5614 55.8594 38.5296 56.0104 38.467C56.1605 38.4052 56.2894 38.3151 56.3944 38.1986C56.5004 38.0812 56.5798 37.9382 56.6363 37.7695C56.6928 37.6018 56.7211 37.4102 56.7211 37.1984Z" fill="#B4F2FA"/>
<path d="M60.6275 39.1344H59.9036V35.2624H60.6275V39.1344Z" fill="#B4F2FA"/>
<path d="M65.9473 38.2207C65.9861 38.2207 66.0205 38.2365 66.0488 38.2666L66.333 38.5747C66.1759 38.7689 65.9826 38.919 65.753 39.0214C65.5235 39.1255 65.2481 39.1767 64.9267 39.1767C64.661 39.1811 64.3972 39.131 64.1516 39.0293C63.9268 38.9352 63.7247 38.7941 63.5589 38.6155C63.3931 38.4369 63.2674 38.2249 63.1903 37.9938C63.1016 37.7381 63.0577 37.469 63.0605 37.1984C63.0605 36.907 63.109 36.6404 63.2053 36.3985C63.3015 36.1567 63.4374 35.9483 63.6114 35.7735C63.787 35.5987 63.9963 35.4628 64.2399 35.3648C64.4974 35.2651 64.7716 35.2157 65.0477 35.2191C65.3346 35.2191 65.5862 35.265 65.8016 35.3568C66.0161 35.4486 66.2006 35.5705 66.3542 35.7223L66.1132 36.0578C66.0985 36.0794 66.0799 36.0983 66.0585 36.1134C66.0309 36.1309 65.9984 36.1392 65.9658 36.1372C65.9199 36.1354 65.8759 36.1187 65.8404 36.0896C65.7157 35.9961 65.5756 35.9253 65.4264 35.8803C65.3015 35.8452 65.1721 35.8291 65.0424 35.8327C64.8596 35.8327 64.6928 35.8644 64.5392 35.9271C64.3901 35.9883 64.2561 36.0811 64.1463 36.199C64.0326 36.3236 63.9452 36.4698 63.8894 36.629C63.8254 36.8118 63.794 37.0046 63.7967 37.1984C63.7967 37.4155 63.8276 37.6098 63.8894 37.7793C63.9512 37.9488 64.0342 38.0918 64.1393 38.2074C64.2452 38.3239 64.3688 38.4122 64.5118 38.474C64.6548 38.5358 64.8084 38.5667 64.9726 38.5667C65.0706 38.5667 65.1598 38.5614 65.2393 38.5499C65.3847 38.5342 65.5247 38.4859 65.6489 38.4087C65.708 38.3734 65.768 38.3284 65.8263 38.2745C65.8433 38.2591 65.8623 38.246 65.8828 38.2357C65.9028 38.2256 65.9249 38.2205 65.9473 38.2207Z" fill="#B4F2FA"/>
<path d="M71.1064 35.2624V35.8353H69.3902V36.9088H70.7427V37.4632H69.3893V38.5579H71.1055V39.1344H68.6654V35.2624H71.1064Z" fill="#B4F2FA"/>
<path fill-rule="evenodd" clip-rule="evenodd" d="M79.7437 39.1344H79.1867C79.1343 39.1367 79.0825 39.1221 79.0391 39.0927C78.9957 39.0632 78.9629 39.0206 78.9457 38.971L78.6561 38.1809H77.0521L76.7634 38.971C76.745 39.0193 76.7124 39.0608 76.6698 39.09C76.6272 39.1192 76.5767 39.1347 76.525 39.1344H75.9653L77.4864 35.2624H78.2227L79.7437 39.1344ZM77.2374 37.6724H78.4716L78.0002 36.3835C77.9449 36.234 77.8957 36.0824 77.8528 35.9289C77.828 36.0198 77.8033 36.1046 77.7795 36.1831C77.7586 36.2529 77.735 36.3218 77.7089 36.3897L77.2374 37.6724Z" fill="#B4F2FA"/>
<path d="M81.2984 35.2624H81.904C81.9658 35.2624 82.0187 35.2765 82.0602 35.3065C82.1026 35.3356 82.1308 35.3754 82.145 35.4257L82.8035 37.7413C82.8194 37.7987 82.8344 37.8605 82.8477 37.9276C82.8609 37.9947 82.8742 38.0653 82.8865 38.1403C82.9 38.0692 82.9156 37.9986 82.9333 37.9284C82.951 37.8605 82.9686 37.7987 82.988 37.7413L83.749 35.4257C83.7674 35.3774 83.8 35.3359 83.8426 35.3067C83.8852 35.2775 83.9357 35.2621 83.9874 35.2624H84.1992C84.261 35.2624 84.3131 35.2765 84.3537 35.3065C84.3946 35.3358 84.4247 35.3776 84.4394 35.4257L85.1951 37.7413C85.2339 37.8561 85.2683 37.9823 85.2966 38.1218C85.32 37.9946 85.3468 37.868 85.3769 37.7422L86.0355 35.4257C86.0495 35.3792 86.0787 35.3388 86.1185 35.3109C86.1635 35.278 86.2181 35.2609 86.2738 35.2624H86.8388L85.6365 39.1344H84.9858L84.1401 36.4886C84.1162 36.4105 84.0938 36.3319 84.073 36.2529C84.0545 36.3325 84.0321 36.4112 84.0059 36.4886L83.1514 39.1344H82.5007L81.2984 35.2624Z" fill="#B4F2FA"/>
<path fill-rule="evenodd" clip-rule="evenodd" d="M92.1374 39.1344H91.5813C91.5287 39.1369 91.4768 39.1224 91.4332 39.0929C91.3896 39.0635 91.3567 39.0207 91.3394 38.971L91.0507 38.1809H89.4466L89.1571 38.971C89.1387 39.0193 89.1061 39.0608 89.0635 39.09C89.0209 39.1192 88.9704 39.1347 88.9187 39.1344H88.359L89.8801 35.2624H90.6164L92.1374 39.1344ZM89.6311 37.6724H90.8653L90.3948 36.3835C90.3395 36.234 90.2903 36.0824 90.2474 35.9289L90.2467 35.9312C90.2214 36.0213 90.1977 36.1052 90.1732 36.1831C90.1523 36.2529 90.1287 36.3218 90.1026 36.3897L89.6311 37.6724Z" fill="#B4F2FA"/>
<path fill-rule="evenodd" clip-rule="evenodd" d="M95.0692 37.6212V39.1344H94.3489V35.2624H95.5301C95.794 35.2624 96.02 35.2889 96.2089 35.3436C96.397 35.3983 96.5515 35.4742 96.6715 35.5731C96.7925 35.6702 96.8807 35.7885 96.9364 35.9245C96.9929 36.0613 97.0211 36.2114 97.0211 36.3756C97.0211 36.5062 97.0017 36.6298 96.9637 36.7455C96.8881 36.9778 96.7351 37.1772 96.5303 37.3105C96.4182 37.3847 96.296 37.4423 96.1674 37.4817C96.2617 37.5369 96.3421 37.6131 96.4023 37.7042L97.3725 39.1344H96.7236C96.6682 39.1358 96.6134 39.1228 96.5647 39.0964C96.5196 39.0702 96.4815 39.0336 96.4535 38.9896L95.6395 37.7501C95.6149 37.709 95.5803 37.6746 95.5389 37.6504C95.4881 37.6281 95.4327 37.6181 95.3773 37.6212H95.0692ZM95.0692 37.1039H95.5195C95.6545 37.1039 95.7728 37.0871 95.8735 37.0536C95.9655 37.0245 96.0503 36.9764 96.1224 36.9123C96.1869 36.8539 96.2371 36.7814 96.269 36.7005C96.3017 36.6139 96.3179 36.522 96.3166 36.4294C96.3166 36.2335 96.2522 36.0825 96.1224 35.9766C95.9935 35.8715 95.7958 35.8185 95.5301 35.8185H95.0692V37.1039Z" fill="#B4F2FA"/>
<path fill-rule="evenodd" clip-rule="evenodd" d="M103.059 37.1984C103.059 37.4817 103.012 37.7422 102.917 37.9796C102.822 38.218 102.69 38.4211 102.518 38.5932C102.342 38.7678 102.131 38.9037 101.899 38.9922C101.658 39.0867 101.392 39.1335 101.099 39.1335H99.621V35.2624H101.099C101.392 35.2624 101.658 35.31 101.899 35.4054C102.14 35.5007 102.347 35.634 102.517 35.8044C102.69 35.9748 102.822 36.1787 102.917 36.4162C103.012 36.6537 103.059 36.9141 103.059 37.1984ZM102.322 37.1984C102.322 36.9856 102.294 36.7949 102.237 36.6263C102.186 36.4684 102.103 36.3227 101.993 36.1981C101.887 36.0806 101.756 35.9886 101.609 35.9289C101.447 35.8643 101.273 35.8325 101.099 35.8353H100.347V38.5614H101.099C101.288 38.5614 101.458 38.5296 101.609 38.467C101.759 38.4052 101.888 38.3151 101.993 38.1986C102.099 38.0812 102.179 37.9382 102.237 37.7695C102.296 37.5851 102.325 37.3922 102.322 37.1984Z" fill="#B4F2FA"/>
<path d="M36.4375 7.94531H35.4375V41.4919H36.4375V7.94531Z" fill="#B4F2FA"/>
</svg>
