<svg xmlns="http://www.w3.org/2000/svg" width="22.433" height="19.695"><defs><linearGradient id="fbd4db16-db85-47aa-bc9b-714fdf9e00a8" x1="13.064" y1="16.931" x2="21.222" y2="8.773" gradientUnits="userSpaceOnUse"><stop offset="0" stop-color="#2684ff"/><stop offset="0.648" stop-color="#0b60da"/><stop offset="1" stop-color="#0052cc"/></linearGradient></defs><path d="M13.576,13.07H8.9L7.639,6.618h7.069ZM.728,0A.728.728,0,0,0,.174.244a.691.691,0,0,0-.165.57L3.06,18.9a.972.972,0,0,0,.956.8H18.654a.714.714,0,0,0,.718-.59L22.423.818a.69.69,0,0,0-.165-.571A.723.723,0,0,0,21.705,0Z" fill="#2684ff"/><path d="M21.453,6.618H14.708L13.576,13.07H8.9L3.387,19.463a.988.988,0,0,0,.629.232H18.657a.715.715,0,0,0,.719-.59Z" fill="url(#fbd4db16-db85-47aa-bc9b-714fdf9e00a8)"/></svg>