<svg width="65" height="64" viewBox="0 0 65 64" fill="none" xmlns="http://www.w3.org/2000/svg">
<rect x="18.5664" y="16.5342" width="29.0019" height="28.0352" fill="#A8EEE7"/>
<rect x="20.5" y="7.8335" width="25.135" height="3.86692" fill="#A8EEE7"/>
<mask id="path-3-inside-1" fill="white">
<path d="M53.3692 61H51.4358H47.5688H18.5659H14.699H12.7656C12.231 61 11.7988 60.5679 11.7988 60.0342C11.7988 59.4996 12.231 59.0675 12.7656 59.0675H13.7323V11.7006C13.7323 11.166 14.1644 10.7338 14.699 10.7338H19.5327V7.83366C19.5327 7.29905 19.9658 6.86692 20.4994 6.86692H32.1002V3.96673C32.1002 3.4331 32.5333 3 33.0669 3C33.6015 3 34.0336 3.4331 34.0336 3.96673V6.86692H45.6354C46.169 6.86692 46.6021 7.29905 46.6021 7.83366V10.7338H51.4358C51.9694 10.7338 52.4025 11.166 52.4025 11.7006V59.0675H53.3692C53.9029 59.0675 54.336 59.4996 54.336 60.0342C54.336 60.5679 53.9029 61 53.3692 61ZM46.6021 59.0675V45.5333H40.8017V59.0675H46.6021ZM42.7352 22.3337V26.2006H46.6021V22.3337H42.7352ZM46.6021 20.4002V16.5333H42.7352V20.4002H46.6021ZM42.7352 28.1331V32H46.6021V28.1331H42.7352ZM42.7352 33.9335V37.8004H46.6021V33.9335H42.7352ZM42.7352 39.7338V43.6008H46.6021V39.7338H42.7352ZM36.9348 22.3337V26.2006H40.8017V22.3337H36.9348ZM40.8017 20.4002V16.5333H36.9348V20.4002H40.8017ZM36.9348 28.1331V32H40.8017V28.1331H36.9348ZM36.9348 33.9335V37.8004H40.8017V33.9335H36.9348ZM36.9348 39.7338V43.6008H40.8017V39.7338H36.9348ZM38.8673 59.0675V45.5333H34.0336V59.0675H38.8673ZM31.1335 22.3337V26.2006H35.0004V22.3337H31.1335ZM35.0004 20.4002V16.5333H31.1335V20.4002H35.0004ZM31.1335 28.1331V32H35.0004V28.1331H31.1335ZM31.1335 33.9335V37.8004H35.0004V33.9335H31.1335ZM31.1335 39.7338V43.6008H35.0004V39.7338H31.1335ZM32.1002 59.0675V45.5333H27.2665V59.0675H32.1002ZM25.3331 22.3337V26.2006H29.2V22.3337H25.3331ZM29.2 20.4002V16.5333H25.3331V20.4002H29.2ZM25.3331 28.1331V32H29.2V28.1331H25.3331ZM25.3331 33.9335V37.8004H29.2V33.9335H25.3331ZM25.3331 39.7338V43.6008H29.2V39.7338H25.3331ZM25.3331 59.0675V45.5333H19.5327V59.0675H25.3331ZM19.5327 20.4002H23.3996V16.5333H19.5327V20.4002ZM19.5327 22.3337V26.2006H23.3996V22.3337H19.5327ZM19.5327 28.1331V32H23.3996V28.1331H19.5327ZM19.5327 33.9335V37.8004H23.3996V33.9335H19.5327ZM19.5327 39.7338V43.6008H23.3996V39.7338H19.5327ZM44.6687 8.80039H21.4661V10.7338H44.6687V8.80039ZM50.469 12.6663H45.6354H20.4994H15.6658V59.0675H17.5992V15.5665C17.5992 15.0329 18.0323 14.5998 18.5659 14.5998H47.5688C48.1025 14.5998 48.5356 15.0329 48.5356 15.5665V59.0675H50.469V12.6663Z"/>
</mask>
<path d="M53.3692 61H51.4358H47.5688H18.5659H14.699H12.7656C12.231 61 11.7988 60.5679 11.7988 60.0342C11.7988 59.4996 12.231 59.0675 12.7656 59.0675H13.7323V11.7006C13.7323 11.166 14.1644 10.7338 14.699 10.7338H19.5327V7.83366C19.5327 7.29905 19.9658 6.86692 20.4994 6.86692H32.1002V3.96673C32.1002 3.4331 32.5333 3 33.0669 3C33.6015 3 34.0336 3.4331 34.0336 3.96673V6.86692H45.6354C46.169 6.86692 46.6021 7.29905 46.6021 7.83366V10.7338H51.4358C51.9694 10.7338 52.4025 11.166 52.4025 11.7006V59.0675H53.3692C53.9029 59.0675 54.336 59.4996 54.336 60.0342C54.336 60.5679 53.9029 61 53.3692 61ZM46.6021 59.0675V45.5333H40.8017V59.0675H46.6021ZM42.7352 22.3337V26.2006H46.6021V22.3337H42.7352ZM46.6021 20.4002V16.5333H42.7352V20.4002H46.6021ZM42.7352 28.1331V32H46.6021V28.1331H42.7352ZM42.7352 33.9335V37.8004H46.6021V33.9335H42.7352ZM42.7352 39.7338V43.6008H46.6021V39.7338H42.7352ZM36.9348 22.3337V26.2006H40.8017V22.3337H36.9348ZM40.8017 20.4002V16.5333H36.9348V20.4002H40.8017ZM36.9348 28.1331V32H40.8017V28.1331H36.9348ZM36.9348 33.9335V37.8004H40.8017V33.9335H36.9348ZM36.9348 39.7338V43.6008H40.8017V39.7338H36.9348ZM38.8673 59.0675V45.5333H34.0336V59.0675H38.8673ZM31.1335 22.3337V26.2006H35.0004V22.3337H31.1335ZM35.0004 20.4002V16.5333H31.1335V20.4002H35.0004ZM31.1335 28.1331V32H35.0004V28.1331H31.1335ZM31.1335 33.9335V37.8004H35.0004V33.9335H31.1335ZM31.1335 39.7338V43.6008H35.0004V39.7338H31.1335ZM32.1002 59.0675V45.5333H27.2665V59.0675H32.1002ZM25.3331 22.3337V26.2006H29.2V22.3337H25.3331ZM29.2 20.4002V16.5333H25.3331V20.4002H29.2ZM25.3331 28.1331V32H29.2V28.1331H25.3331ZM25.3331 33.9335V37.8004H29.2V33.9335H25.3331ZM25.3331 39.7338V43.6008H29.2V39.7338H25.3331ZM25.3331 59.0675V45.5333H19.5327V59.0675H25.3331ZM19.5327 20.4002H23.3996V16.5333H19.5327V20.4002ZM19.5327 22.3337V26.2006H23.3996V22.3337H19.5327ZM19.5327 28.1331V32H23.3996V28.1331H19.5327ZM19.5327 33.9335V37.8004H23.3996V33.9335H19.5327ZM19.5327 39.7338V43.6008H23.3996V39.7338H19.5327ZM44.6687 8.80039H21.4661V10.7338H44.6687V8.80039ZM50.469 12.6663H45.6354H20.4994H15.6658V59.0675H17.5992V15.5665C17.5992 15.0329 18.0323 14.5998 18.5659 14.5998H47.5688C48.1025 14.5998 48.5356 15.0329 48.5356 15.5665V59.0675H50.469V12.6663Z" fill="#505070" stroke="#11B5A4" stroke-width="2" mask="url(#path-3-inside-1)"/>
</svg>
