<svg xmlns="http://www.w3.org/2000/svg" width="23" height="22" viewBox="0 0 23 22"><path fill="#161514" d="M11.5,0A11.391,11.391,0,0,0,0,11.279a11.3,11.3,0,0,0,7.865,10.7c.575.1.785-.244.785-.543,0-.268-.01-.977-.016-1.918-3.2.681-3.874-1.513-3.874-1.513a3,3,0,0,0-1.277-1.649c-1.044-.7.079-.686.079-.686a2.411,2.411,0,0,1,1.762,1.163,2.476,2.476,0,0,0,3.347.936,2.393,2.393,0,0,1,.73-1.507c-2.554-.284-5.239-1.252-5.239-5.574A4.317,4.317,0,0,1,5.346,7.662a3.982,3.982,0,0,1,.113-2.984s.965-.3,3.162,1.156a11.1,11.1,0,0,1,5.758,0c2.2-1.46,3.16-1.156,3.16-1.156a3.981,3.981,0,0,1,.115,2.984,4.306,4.306,0,0,1,1.181,3.027c0,4.333-2.689,5.286-5.25,5.565a2.668,2.668,0,0,1,.78,2.089c0,1.507-.014,2.724-.014,3.094,0,.3.208.652.791.542A11.3,11.3,0,0,0,23,11.279,11.391,11.391,0,0,0,11.5,0"/></svg>