<svg xmlns="http://www.w3.org/2000/svg" width="22.884" height="20.893" viewBox="0 0 22.884 20.893"><polygon points="11.442 20.893 7.229 8.04 15.656 8.04 11.442 20.893" fill="#e24329"/><polygon points="11.442 20.893 15.656 8.04 21.561 8.04 11.442 20.893" fill="#fc6d26"/><path d="M21.561,8.04l1.281,3.906a.863.863,0,0,1-.317.967l-11.083,7.98Z" fill="#fca326"/><path d="M21.561,8.04h-5.9L18.194.3a.437.437,0,0,1,.829,0Z" fill="#e24329"/><polygon points="11.442 20.893 7.229 8.04 1.323 8.04 11.442 20.893" fill="#fc6d26"/><path d="M1.323,8.04.043,11.946a.86.86,0,0,0,.317.967l11.082,7.98Z" fill="#fca326"/><path d="M1.323,8.04H7.229L4.691.3a.437.437,0,0,0-.83,0Z" fill="#e24329"/></svg>