<svg xmlns="http://www.w3.org/2000/svg" xmlns:xlink="http://www.w3.org/1999/xlink" width="20" height="21" viewBox="0 0 20 21">
  <defs>
    <path id="google-logo-a" d="M19.7674419,8.59090909 L10.2325581,8.59090909 L10.2325581,12.6477273 L15.7209302,12.6477273 C15.2093023,15.225 13.0697674,16.7045455 10.2325581,16.7045455 C6.88372093,16.7045455 4.18604651,13.9363636 4.18604651,10.5 C4.18604651,7.06363636 6.88372093,4.29545455 10.2325581,4.29545455 C11.6744186,4.29545455 12.9767442,4.82045455 14,5.67954545 L16.9767442,2.625 C15.1627907,1.00227273 12.8372093,0 10.2325581,0 C4.55813953,0 0,4.67727273 0,10.5 C0,16.3227273 4.55813953,21 10.2325581,21 C15.3488372,21 20,17.1818182 20,10.5 C20,9.87954545 19.9069767,9.21136364 19.7674419,8.59090909 Z"/>
    <path id="google-logo-c" d="M19.7674419,8.59090909 L10.2325581,8.59090909 L10.2325581,12.6477273 L15.7209302,12.6477273 C15.2093023,15.225 13.0697674,16.7045455 10.2325581,16.7045455 C6.88372093,16.7045455 4.18604651,13.9363636 4.18604651,10.5 C4.18604651,7.06363636 6.88372093,4.29545455 10.2325581,4.29545455 C11.6744186,4.29545455 12.9767442,4.82045455 14,5.67954545 L16.9767442,2.625 C15.1627907,1.00227273 12.8372093,0 10.2325581,0 C4.55813953,0 0,4.67727273 0,10.5 C0,16.3227273 4.55813953,21 10.2325581,21 C15.3488372,21 20,17.1818182 20,10.5 C20,9.87954545 19.9069767,9.21136364 19.7674419,8.59090909 Z"/>
    <path id="google-logo-e" d="M19.7674419,8.59090909 L10.2325581,8.59090909 L10.2325581,12.6477273 L15.7209302,12.6477273 C15.2093023,15.225 13.0697674,16.7045455 10.2325581,16.7045455 C6.88372093,16.7045455 4.18604651,13.9363636 4.18604651,10.5 C4.18604651,7.06363636 6.88372093,4.29545455 10.2325581,4.29545455 C11.6744186,4.29545455 12.9767442,4.82045455 14,5.67954545 L16.9767442,2.625 C15.1627907,1.00227273 12.8372093,0 10.2325581,0 C4.55813953,0 0,4.67727273 0,10.5 C0,16.3227273 4.55813953,21 10.2325581,21 C15.3488372,21 20,17.1818182 20,10.5 C20,9.87954545 19.9069767,9.21136364 19.7674419,8.59090909 Z"/>
    <path id="google-logo-g" d="M19.7674419,8.59090909 L10.2325581,8.59090909 L10.2325581,12.6477273 L15.7209302,12.6477273 C15.2093023,15.225 13.0697674,16.7045455 10.2325581,16.7045455 C6.88372093,16.7045455 4.18604651,13.9363636 4.18604651,10.5 C4.18604651,7.06363636 6.88372093,4.29545455 10.2325581,4.29545455 C11.6744186,4.29545455 12.9767442,4.82045455 14,5.67954545 L16.9767442,2.625 C15.1627907,1.00227273 12.8372093,0 10.2325581,0 C4.55813953,0 0,4.67727273 0,10.5 C0,16.3227273 4.55813953,21 10.2325581,21 C15.3488372,21 20,17.1818182 20,10.5 C20,9.87954545 19.9069767,9.21136364 19.7674419,8.59090909 Z"/>
  </defs>
  <g fill="none" fill-rule="evenodd">
    <mask id="google-logo-b" fill="#fff">
      <use xlink:href="#google-logo-a"/>
    </mask>
    <polygon fill="#FBBC05" fill-rule="nonzero" points="-.93 16.705 -.93 4.295 6.977 10.5" mask="url(#google-logo-b)"/>
    <mask id="google-logo-d" fill="#fff">
      <use xlink:href="#google-logo-c"/>
    </mask>
    <polygon fill="#EA4335" fill-rule="nonzero" points="-.93 4.295 6.977 10.5 10.233 7.589 21.395 5.727 21.395 -.955 -.93 -.955" mask="url(#google-logo-d)"/>
    <mask id="google-logo-f" fill="#fff">
      <use xlink:href="#google-logo-e"/>
    </mask>
    <polygon fill="#34A853" fill-rule="nonzero" points="-.93 16.705 13.023 5.727 16.698 6.205 21.395 -.955 21.395 21.955 -.93 21.955" mask="url(#google-logo-f)"/>
    <mask id="google-logo-h" fill="#fff">
      <use xlink:href="#google-logo-g"/>
    </mask>
    <polygon fill="#4285F4" fill-rule="nonzero" points="21.395 21.955 6.977 10.5 5.116 9.068 21.395 4.295" mask="url(#google-logo-h)"/>
  </g>
</svg>
