<svg fill="none" height="64" viewBox="0 0 38 64" width="38" xmlns="http://www.w3.org/2000/svg" xmlns:xlink="http://www.w3.org/1999/xlink"><linearGradient id="a" gradientUnits="userSpaceOnUse" x1="0" x2="34.3929" y1="38.6415" y2="38.6415"><stop offset=".0163247" stop-color="#55e5c7"/><stop offset=".885308" stop-color="#00abe1"/></linearGradient><g fill="url(#a)"><path d="m10.3811 7.42849c0-.52599.4263-.95238.9523-.95238h15.3334c.526 0 .9523.42639.9523.95238 0 .52598-.4263.95238-.9523.95238h-15.3334c-.526 0-.9523-.4264-.9523-.95238z"/><path d="m12.2873 28.1921v4.8571h-2.1905v-4.8571z"/><path d="m16.4768 28.1921v4.8571h-2.1905v-4.8571z"/><path d="m20.6681 28.1921v4.8571h-2.1904v-4.8571z"/><path d="m24.8576 28.1921v4.8571h-2.1904v-4.8571z"/><path d="m29.049 28.1921v4.8571h-2.1905v-4.8571z"/><g clip-rule="evenodd" fill-rule="evenodd"><path d="m18.9524 54.19c-1.7883 0-3.2381 1.4498-3.2381 3.2381 0 1.7884 1.4498 3.2381 3.2381 3.2381 1.7884 0 3.2381-1.4497 3.2381-3.2381 0-1.7883-1.4497-3.2381-3.2381-3.2381zm-1.3333 3.2381c0-.7364.5969-1.3333 1.3333-1.3333s1.3334.5969 1.3334 1.3333-.597 1.3333-1.3334 1.3333-1.3333-.5969-1.3333-1.3333z"/><path d="m6.28571 0c-3.4715 0-6.28571 2.81421-6.28571 6.28571v51.42859c0 3.4715 2.81421 6.2857 6.28571 6.2857h25.42859c3.4715 0 6.2857-2.8142 6.2857-6.2857v-51.42859c0-3.4715-2.8142-6.28571-6.2857-6.28571zm-4.38095 6.28571c0-2.41953 1.96142-4.38095 4.38095-4.38095h25.42859c2.4195 0 4.3809 1.96142 4.3809 4.38095l-.0004 4.47629h-34.19004zm0 6.38109h34.19004v38.4756h-34.19004zm0 40.3804v4.6671c0 2.4195 1.96142 4.3809 4.38095 4.3809h25.42859c2.4195 0 4.3809-1.9614 4.3809-4.3809l-.0004-4.6671z"/></g></g></svg>