<svg width="21" height="24" viewBox="0 0 21 24" fill="none" xmlns="http://www.w3.org/2000/svg">
<path d="M17.375 15.1V6.65C17.375 6.24375 17.1312 6 16.725 6H8.4375C7.05625 6 6 7.05625 6 8.4375V16.5625C6 17.9438 7.05625 19 8.4375 19H16.725C17.05 19 17.375 18.7562 17.375 18.35V17.9437C17.375 17.7812 17.2937 17.6188 17.1312 17.4563C17.05 17.05 17.05 15.9125 17.1312 15.5875C17.2937 15.5063 17.375 15.3437 17.375 15.1V15.1ZM15.6687 17.375H8.4375C7.95 17.375 7.625 17.05 7.625 16.5625C7.625 16.075 8.03125 15.75 8.4375 15.75H15.6687V17.375Z" fill="#4DBEA4"/>
</svg>
