<svg height='16' width='16'  fill="#4DBEA4" xmlns="http://www.w3.org/2000/svg" xmlns:xlink="http://www.w3.org/1999/xlink" version="1.1" x="0px" y="0px" viewBox="0 0 60 60" style="enable-background:new 0 0 60 60;" xml:space="preserve"><path d="M11.5518188,28.484314c-0.2867432,0-0.5496216,0.1513672-0.6929932,0.3982544  c-0.1433716,0.2469482-0.1433716,0.5576172,0,0.7965088c0.039856,0.0796509,0.677002,1.1549683,1.9992676,1.9435425  c-0.2389526,0.0795898-0.4380493,0.2628174-0.5177612,0.5097046c-0.1035156,0.3265991,0.0079956,0.6850586,0.2868042,0.8841553  c0.1911621,0.1433716,1.1230469,0.8203735,2.3416748,1.3461304c-0.1433716,0.135376-0.230957,0.3345337-0.230957,0.5496216  c-0.0079956,0.3424683,0.2070923,0.6451416,0.5257568,0.7645874c0.7407227,0.2628784,1.5452271,0.5257568,2.3337402,0.7248535  c-0.2468872,0.1593018-0.3982544,0.4460449-0.3743896,0.7487183c0.0319214,0.3504639,0.2867432,0.637207,0.6292725,0.7088623  c0.2230225,0.0477905,3.7755127,0.7965088,7.0809937,0.8364258c-2.5806885,1.2823486-5.8305054,2.6921997-8.1483154,3.0745239  c-0.2628784,0.0477905-0.4938354,0.2150269-0.5974121,0.4619751c-0.1115112,0.2468872-0.0875854,0.5336304,0.0557861,0.7566528  c0.8681641,1.3461304,3.6400757,5.3366699,5.9180908,5.3366699c0.2787476,0,0.5496216-0.0637817,0.8045044-0.1911621  c0.2628784-0.1274414,2.4054565-1.8081055,6.3641357-4.9782104c1.8239746,0.1273804,10.5060425,0.50177,14.0505371-3.3772583  c5.1454468-5.6392822,4.5002441-13.1105957,4.1737061-15.3010254l1.9195557-0.947876  c0.3106689-0.1593018,0.4859619-0.4938354,0.4301758-0.8363037c-0.0477905-0.3425293-0.3186035-0.6133423-0.6611328-0.6690674  l-2.1585693-0.3345337c-0.8761597-1.2426147-2.8276367-2.9072876-5.2728882-1.9196167  c-1.9674072,0.7965088-3.3851929,2.1506348-4.1259766,2.9710083L26.0643311,11.8929443  c-0.1991577-0.1911621-0.4699707-0.2628784-0.7328491-0.1911621c-0.2628174,0.0637207-0.4699097,0.2548828-0.5654907,0.5097656  c-0.0318604,0.1035767-0.6292725,1.8797607-0.270813,3.6878662c-0.1194458-0.0239258-0.2389526-0.0239258-0.3584595,0  c-0.3743286,0.0955811-0.6292114,0.4380493-0.6053467,0.8203735c0.0159302,0.3345337,0.1115112,1.4656372,0.4859009,2.5170288  c-0.1752319-0.0557861-0.3823853-0.0557861-0.5734863,0.0318604c-0.3345337,0.1513062-0.5256958,0.5177002-0.4540405,0.8840942  c0.0557251,0.2628784,0.4301147,2.0231323,1.3302002,3.4648438H10.8827515c-0.2150879,0-0.4221802,0.0876465-0.5734863,0.2469482  c-0.1433716,0.1513062-0.2310181,0.366333-0.2230225,0.5814209c0.0079346,0.1115112,0.1114502,2.2860107,1.8001099,4.0383301  H11.5518188z M42.185791,22.9963379c0.2866821-0.2947388,0.8283081-0.2947388,1.1230469,0  c0.1513062,0.1513062,0.2310181,0.3584595,0.2310181,0.5655518c0,0.2070313-0.0797119,0.4141235-0.2310181,0.5654907  c-0.1433716,0.1513062-0.3504639,0.2310181-0.5654907,0.2310181c-0.2070923,0-0.4142456-0.0797119-0.5575562-0.2310181  c-0.1513672-0.1513672-0.2389526-0.3584595-0.2389526-0.5654907C41.9468384,23.3547974,42.0344238,23.147644,42.185791,22.9963379z"></path></svg>