<svg height='16' width='16'  fill="#4DBEA4" xmlns:dc="http://purl.org/dc/elements/1.1/" xmlns:cc="http://creativecommons.org/ns#" xmlns:rdf="http://www.w3.org/1999/02/22-rdf-syntax-ns#" xmlns:svg="http://www.w3.org/2000/svg" xmlns="http://www.w3.org/2000/svg" xmlns:sodipodi="http://sodipodi.sourceforge.net/DTD/sodipodi-0.dtd" xmlns:inkscape="http://www.inkscape.org/namespaces/inkscape" viewBox="0 0 8.4666665 8.466667" version="1.1" x="0px" y="0px"><g transform="translate(0,-288.53332)"><path style="" d="m 5.6388528,289.07023 a 1.190681,1.190681 0 0 0 -1.0805557,1.62161 0.22367423,0.22367423 0 0 1 -0.00212,0.16692 14.497704,14.497704 0 0 1 -3.4132283,4.97179 0.26458336,0.26458336 0 0 0 0.1462432,0.45371 l 1.2893278,0.17674 a 0.26458336,0.26458336 0 0 0 0.291973,-0.19431 l 0.374656,-1.40973 a 2.570388,2.570388 0 0 0 1.4309223,0.21341 v 0.74055 H 4.3598093 a 0.13229168,0.13229168 0 0 0 0,0.26458 h 1.1373988 a 0.13229168,0.13229168 0 0 0 0,-0.26458 H 4.9406544 v -0.79119 a 2.570388,2.570388 0 0 0 1.5425394,-3.89122 1.190681,1.190681 0 0 0 0.073382,-0.076 l 0.6795452,-0.0574 a 0.18520831,0.18520831 0 0 0 0.03669,-0.36227 l -0.4392507,-0.1302 a 1.190681,1.190681 0 0 0 -1.1947578,-1.43248 z m 0.2981722,0.72192 a 0.26458336,0.26458336 0 0 1 0.2707852,0.26561 0.26458336,0.26458336 0 1 1 -0.5291667,0 0.26458336,0.26458336 0 0 1 0.2583815,-0.26561 z" fill="#4DBEA4" stroke="none"></path></g></svg>