<svg height='20' width='20'  fill="#4DBEA4" xmlns="http://www.w3.org/2000/svg" xmlns:xlink="http://www.w3.org/1999/xlink" version="1.1" x="0px" y="0px" viewBox="0 0 100 100" enable-background="new 0 0 100 100" xml:space="preserve"><path d="M79.2,28.5c-1.3-1.2-1.8-3.1-1.1-4.7l0.6-1.5c1-2.3-0.3-4.9-2.7-5.6l-1.6-0.4c-1.7-0.5-2.9-2-3-3.8l-0.1-1.6  c-0.1-2.2-2-3.9-4.1-3.9c-0.2,0-0.5,0-0.7,0.1L65,7.3c-0.2,0-0.5,0.1-0.7,0.1c-1.5,0-2.9-0.8-3.6-2.2l-0.8-1.4  c-0.8-1.4-2.2-2.2-3.6-2.2c-0.8,0-1.7,0.2-2.4,0.8l-1.3,0.9c-0.7,0.5-1.6,0.8-2.4,0.8c-0.9,0-1.7-0.3-2.4-0.8l-1.3-1  c-0.7-0.5-1.6-0.8-2.4-0.8c-1.5,0-2.9,0.8-3.6,2.1l-0.8,1.4c-0.7,1.3-2.1,2.1-3.6,2.1c-0.2,0-0.5,0-0.7-0.1l-1.6-0.3  c-0.2,0-0.5-0.1-0.7-0.1c-2.2,0-4,1.7-4.1,3.9l-0.1,1.6c-0.1,1.8-1.3,3.3-3,3.8L24,16.6c-2.4,0.7-3.7,3.3-2.7,5.6l0.6,1.5  c0.7,1.6,0.2,3.5-1.1,4.7l-1.2,1.1c-1.9,1.6-1.9,4.6,0,6.2l1.2,1.1c1.3,1.2,1.8,3.1,1.1,4.7L21.2,43c-1,2.3,0.3,4.9,2.7,5.6l1.6,0.4  c1.7,0.5,2.9,2,3,3.8l0.1,1.6c0.1,2.2,2,3.9,4.1,3.9c0.2,0,0.5,0,0.7-0.1L35,58c0.2,0,0.5-0.1,0.7-0.1c1.5,0,2.9,0.8,3.6,2.2  l0.8,1.4c0.8,1.4,2.2,2.2,3.6,2.2c0.8,0,1.7-0.2,2.4-0.8l1.3-0.9c0.7-0.5,1.6-0.8,2.4-0.8c0.9,0,1.7,0.3,2.4,0.8l1.3,1  c0.7,0.5,1.6,0.8,2.4,0.8c1.5,0,2.9-0.8,3.6-2.1l0.8-1.4c0.7-1.3,2.1-2.1,3.6-2.1c0.2,0,0.5,0,0.7,0.1l1.6,0.3  c0.2,0,0.5,0.1,0.7,0.1c2.2,0,4-1.7,4.1-3.9l0.1-1.6c0.1-1.8,1.3-3.3,3-3.8l1.6-0.4c2.4-0.7,3.7-3.3,2.7-5.6l-0.6-1.5  c-0.7-1.6-0.2-3.5,1.1-4.7l1.2-1.1c1.9-1.6,1.9-4.6,0-6.2L79.2,28.5z M51.7,38.4l-5,5l-5-5l-4.8-4.9l5-5l4.8,4.9l11.5-11.5l5,5  L51.7,38.4z M40.1,97.4V69.2c1.2,0.4,2.4,0.7,3.7,0.7c2.2,0,4.2-0.7,6-1.9l0.1-0.1L50,68c1.8,1.3,3.9,2,6,2c1.3,0,2.6-0.3,3.8-0.8  v28.3c0,0.9-1,1.3-1.7,0.8l-7.9-6.4c-0.2-0.2-0.6-0.2-0.9,0l-7.7,6.3C41.1,98.7,40.1,98.3,40.1,97.4z"></path></svg>