<svg width="24" height="24" viewBox="0 0 129 82" fill="none" xmlns="http://www.w3.org/2000/svg">
<path d="M66.794 23.8882C75.134 33.6256 78.539 46.6543 76.029 59.2269C89.12 54.0054 94.199 45.2507 95.744 36.496C95.744 36.496 100.207 19.9057 107.144 13.0095C93.436 15.1607 92.051 9.78267 66.794 23.9018" fill="#19B99A"/>
<path d="M45.824 40.8462C43.084 32.3814 38.359 24.6949 32.0423 18.4285C32.0423 18.4285 51.104 23.439 62.078 59.0159C51.723 55.8912 47.305 45.6729 45.804 40.8462H45.824ZM69.41 64.1285C69.716 62.4266 74.767 45.2168 64.76 31.2406C48.003 12.6692 22.7464 10.0619 22.7464 10.0619C27.6751 19.5926 27.8317 28.4903 33.2166 46.6328C39.742 65.4152 63.817 66.6814 65.601 66.7154C67.218 69.2683 70.924 72.7062 79.41 74.483L80.35 70.0104C73.028 68.4786 70.349 65.6602 69.43 64.1081" fill="#19B99A"/>
<path d="M25.4492 4.59519C14.7986 9.61245 10.5268 21.8595 10.5268 40.5806C10.5268 58.9613 14.7918 71.2832 25.4492 76.6613L24.2545 81.2565C7.8854 75.5176 0.464996 62.76 0.464996 40.6555C0.464996 18.3807 7.8854 5.61634 24.2545 0L25.4492 4.59519Z" fill="#19B99A"/>
<path d="M104.322 0C120.705 5.60953 128.108 18.3807 128.108 40.6487C128.108 62.7736 120.688 75.5176 104.319 81.2088L103.042 76.6205C113.707 71.2628 117.965 58.9205 117.965 40.5398C117.965 21.8186 113.7 9.58522 103.042 4.56796L104.322 0Z" fill="#19B99A"/>
</svg>
