<svg width="21" height="24" viewBox="0 0 21 24" fill="none" xmlns="http://www.w3.org/2000/svg">
<path d="M16.6786 19.125H16.1429V6.65625C16.1429 6.29381 15.855 6 15.5 6H6.5C6.14496 6 5.85714 6.29381 5.85714 6.65625V19.125H5.32143C5.14392 19.125 5 19.2719 5 19.4531V20H17V19.4531C17 19.2719 16.8561 19.125 16.6786 19.125ZM8.42857 8.07812C8.42857 7.89692 8.57249 7.75 8.75 7.75H9.82143C9.99894 7.75 10.1429 7.89692 10.1429 8.07812V9.17188C10.1429 9.35308 9.99894 9.5 9.82143 9.5H8.75C8.57249 9.5 8.42857 9.35308 8.42857 9.17188V8.07812ZM8.42857 10.7031C8.42857 10.5219 8.57249 10.375 8.75 10.375H9.82143C9.99894 10.375 10.1429 10.5219 10.1429 10.7031V11.7969C10.1429 11.9781 9.99894 12.125 9.82143 12.125H8.75C8.57249 12.125 8.42857 11.9781 8.42857 11.7969V10.7031ZM9.82143 14.75H8.75C8.57249 14.75 8.42857 14.6031 8.42857 14.4219V13.3281C8.42857 13.1469 8.57249 13 8.75 13H9.82143C9.99894 13 10.1429 13.1469 10.1429 13.3281V14.4219C10.1429 14.6031 9.99894 14.75 9.82143 14.75ZM11.8571 19.125H10.1429V16.8281C10.1429 16.6469 10.2868 16.5 10.4643 16.5H11.5357C11.7132 16.5 11.8571 16.6469 11.8571 16.8281V19.125ZM13.5714 14.4219C13.5714 14.6031 13.4275 14.75 13.25 14.75H12.1786C12.0011 14.75 11.8571 14.6031 11.8571 14.4219V13.3281C11.8571 13.1469 12.0011 13 12.1786 13H13.25C13.4275 13 13.5714 13.1469 13.5714 13.3281V14.4219ZM13.5714 11.7969C13.5714 11.9781 13.4275 12.125 13.25 12.125H12.1786C12.0011 12.125 11.8571 11.9781 11.8571 11.7969V10.7031C11.8571 10.5219 12.0011 10.375 12.1786 10.375H13.25C13.4275 10.375 13.5714 10.5219 13.5714 10.7031V11.7969ZM13.5714 9.17188C13.5714 9.35308 13.4275 9.5 13.25 9.5H12.1786C12.0011 9.5 11.8571 9.35308 11.8571 9.17188V8.07812C11.8571 7.89692 12.0011 7.75 12.1786 7.75H13.25C13.4275 7.75 13.5714 7.89692 13.5714 8.07812V9.17188Z" fill="#4DBEA4"/>
</svg>
