<?xml version="1.0" encoding="UTF-8"?>
<svg width="40px" height="40px" viewBox="0 0 40 40" version="1.1" xmlns="http://www.w3.org/2000/svg" xmlns:xlink="http://www.w3.org/1999/xlink">
    <!-- Generator: Sketch 53.2 (72643) - https://sketchapp.com -->
    <title>kubernetes</title>
    <desc>Created with Sketch.</desc>
    <g id="kubernetes" stroke="none" stroke-width="1" fill="none" fill-rule="evenodd">
        <path d="M19.8640967,1.00304282 C20.3089594,0.981996835 20.7521934,1.07037505 21.1549274,1.26042671 L35.0647977,7.81870181 C35.7892147,8.15672385 36.3189997,8.80757972 36.5027696,9.5852912 L39.9338375,24.3280396 C40.1133147,25.1024054 39.9230622,25.9161796 39.4188429,26.5308445 L29.7961354,38.3504474 C29.2847506,38.9721106 28.5212738,39.3315965 27.7160923,39.3298432 L12.2779588,39.3298432 C11.472766,39.3321146 10.7093742,38.9717657 10.1995877,38.348776 L0.578552327,26.5308445 C0.524643419,26.4645607 0.474406393,26.3953757 0.428066893,26.3236004 C0.0372852747,25.7367522 -0.0934234638,25.0145416 0.0669018508,24.3280396 L3.49796975,9.58863385 C3.68301255,8.81103402 4.21317918,8.16046571 4.93761374,7.82204446 L18.845812,1.25708406 C19.1655261,1.10714061 19.5113895,1.02085476 19.8640967,1.00304282 Z M33.9336382,22.717184 C33.8718318,22.7021363 33.8083548,22.6870886 33.7665937,22.6787287 C33.5734758,22.6448691 33.3779755,22.6264194 33.181938,22.6235538 C33.0984157,22.6235538 33.0148935,22.6235538 32.9129963,22.6085061 C32.4542502,22.5781613 31.9991655,22.5065349 31.5532541,22.3944944 C31.4868509,22.333501 31.4304765,22.2624046 31.3862096,22.1838266 L31.3010169,22.065117 L31.1673813,22.0266618 C31.422841,19.5677966 30.8444752,17.0943998 29.5253339,15.004402 L29.6823557,14.8071099 L29.6940489,14.6399132 C29.6940489,14.5278915 29.7040715,14.5212036 29.7124238,14.5111718 C30.0757348,14.2064631 30.4672818,13.9371693 30.8817352,13.7069559 C30.9569053,13.6634847 31.0304048,13.6250295 31.1039044,13.5865743 C31.2782573,13.498985 31.4457751,13.3983827 31.6050379,13.2856203 L31.8021504,13.1284554 C32.0906211,12.9037727 32.2780964,12.5735879 32.3233293,12.2105457 C32.3624629,11.8939595 32.2720977,11.5749813 32.0727625,11.3260754 C31.8381677,11.0635097 31.508723,10.9053173 31.1573026,10.8864909 C30.8058822,10.8676644 30.4614494,10.9897556 30.2001937,11.2257574 L30.0515241,11.3427951 C29.904023,11.4719025 29.7661241,11.6116035 29.6389242,11.7607867 L29.4718797,11.9530629 C29.1613279,12.2903245 28.8208305,12.5986742 28.4545787,12.8743165 C28.3621133,12.8882723 28.2680798,12.8882723 28.1756144,12.8743165 L28.0319561,12.8743165 L27.8849569,12.9779784 C26.0991477,11.2363189 23.7893726,10.1326816 21.3134264,9.83802512 L21.2599722,9.61565356 L21.1296774,9.49694393 C21.0428143,9.4183615 21.0428143,9.41167363 21.0394734,9.4033138 C21.0258828,8.93553305 21.0566453,8.4675164 21.1313479,8.00554971 C21.1447114,7.92027941 21.158075,7.83835305 21.1747795,7.75977061 C21.2141631,7.56851107 21.239289,7.37458603 21.2499495,7.1795982 L21.2499495,6.93047517 C21.2616637,6.58720511 21.1365582,6.25335473 20.9021923,6.00246767 C20.6678264,5.75158061 20.3434273,5.60423946 20.0004566,5.59290188 C19.6468447,5.60955429 19.3149339,5.76842186 19.0800009,6.03347376 C18.8450679,6.29852566 18.7270215,6.64730081 18.7526342,7.00069777 C18.7526342,7.06256054 18.7526342,7.1244233 18.7526342,7.16789443 C18.7624635,7.36295798 18.7875976,7.55694633 18.8278043,7.74806685 C18.8428383,7.82832125 18.8578723,7.91526351 18.8695654,7.99551791 C18.941269,8.43765248 18.9742465,8.88521155 18.9681216,9.3330912 C18.9375462,9.41587763 18.8856872,9.48912309 18.8177816,9.54543096 L18.6975096,9.65745273 L18.6891573,9.81294562 C18.2866355,9.85919073 17.8868403,9.92672112 17.4914483,10.0152536 C15.4528788,10.473339 13.5835595,11.4945811 12.095911,12.9629307 L11.8937871,12.8676286 L11.7267426,12.8943801 C11.6098115,12.9110998 11.6014593,12.9077558 11.5864253,12.9027399 C11.2086543,12.6224485 10.8579942,12.3072947 10.5390563,11.9614227 L10.3720118,11.7775064 C10.2439867,11.6284502 10.1043445,11.489799 9.95440052,11.3628587 C9.90762806,11.3210595 9.83913982,11.2692285 9.75561757,11.2056938 C9.51992632,11.0198425 9.23185017,10.9128122 8.93208819,10.8997239 C8.54982417,10.8976665 8.1849806,11.0595611 7.9298212,11.344467 C7.73083001,11.5935503 7.64050665,11.9123809 7.67925446,12.2289374 C7.73416655,12.6187705 7.94601476,12.969152 8.26558065,13.198678 L8.39921624,13.30234 C8.55801392,13.4158143 8.72558815,13.5164504 8.90034974,13.6032939 C8.97384932,13.6417492 9.04901934,13.6818764 9.11750759,13.7220036 C9.52360152,13.9485369 9.90827404,14.2115613 10.2667737,14.5078279 C10.2998587,14.5907444 10.3206802,14.6780488 10.3285802,14.7669827 L10.3519664,14.9141158 L10.4605454,15.0077459 C9.14415975,17.1050383 8.57598837,19.5866437 8.84856594,22.0483973 L8.68152145,22.1303237 L8.5979992,22.2390015 C8.55344478,22.2906101 8.51426502,22.3466322 8.48106805,22.4061982 C8.02254751,22.5251418 7.55387791,22.6007123 7.08123515,22.6319137 L6.82732752,22.6436174 C6.62964447,22.6480583 6.43255621,22.6670586 6.23766044,22.7004643 L5.97874147,22.7606551 C5.52484639,22.8302512 5.14658645,23.145311 4.99574294,23.579413 C4.84489942,24.0135151 4.94619354,24.495516 5.25897984,24.8320071 C5.57176613,25.1684982 6.04478314,25.3043332 6.48822719,25.1850067 L6.61685145,25.1582552 C6.68032836,25.1448795 6.74714616,25.1315038 6.79391862,25.118128 C6.98314368,25.0663956 7.16801774,24.9998697 7.34683591,24.919164 L7.5990731,24.817174 C8.02413471,24.6464086 8.46428096,24.5159797 8.9137133,24.4276058 C9.00077352,24.4538027 9.08351074,24.492674 9.15926871,24.5429715 L9.28789297,24.6148661 L9.44658525,24.5864427 C10.2964268,26.9141705 11.8976869,28.8916806 13.9968774,30.2059225 L13.9183665,30.3898388 L13.9818434,30.5486756 C14.0352976,30.6841049 14.0369681,30.7342639 14.0503316,30.7158723 C13.8544018,31.1511682 13.6189967,31.56756 13.3470743,31.9598154 L13.2017456,32.1604514 C13.0771328,32.3184167 12.96541,32.4861536 12.8676566,32.6620414 L12.7523959,32.8994607 C12.431799,33.5284847 12.6788097,34.2985754 13.3053132,34.6232583 C13.461869,34.6978785 13.6330461,34.736714 13.8064466,34.736952 C14.2952915,34.7316873 14.7428742,34.4616131 14.9757581,34.0313821 L15.1227573,33.7371159 C15.1981971,33.5588155 15.259633,33.3748992 15.3065062,33.1870389 C15.3298925,33.1067845 15.3499378,33.0198423 15.3683127,32.9730272 C15.4368009,32.8058305 15.4952665,32.630274 15.5520617,32.4614054 C15.6343519,32.165311 15.7610794,31.8834379 15.9279118,31.6254221 C15.9818439,31.6029341 16.0377724,31.5855804 16.0949563,31.5735911 L16.2620008,31.5267761 L16.3638979,31.3445317 C18.7256424,32.1566365 21.2895865,32.1631036 23.6553903,31.3629233 L23.8040599,31.5384798 L23.9711044,31.5852949 C24.0813537,31.6187342 24.0880355,31.6237501 24.0980582,31.6354539 C24.3158824,32.050073 24.4937529,32.4845171 24.6292597,32.9329 L24.6977479,33.1669753 C24.7460827,33.3582889 24.8091926,33.5455551 24.8865082,33.7270841 L24.9967576,33.9527996 C25.1770547,34.3912952 25.5890468,34.6904951 26.061462,34.7260168 C26.5338772,34.7615385 26.9859061,34.5273058 27.2296326,34.1206933 C27.4733592,33.7140807 27.4670926,33.2046417 27.2134381,32.8041586 L27.1349272,32.6469937 C27.0401532,32.4756763 26.9323708,32.3118991 26.8125313,32.1571075 L26.668873,31.9598154 C26.4033806,31.5817975 26.1735425,31.1799139 25.9823201,30.7593434 C25.970627,30.7225601 25.9689566,30.7192162 26.0374448,30.5486756 L26.16941,30.3714471 L26.045797,30.2310019 C28.1493021,28.9065415 29.7475788,26.9134996 30.584396,24.571395 L30.7998834,24.571395 L30.9452122,24.471077 C31.042098,24.4058703 31.0771773,24.4108862 31.0654842,24.4041983 C31.5307574,24.4945641 31.986552,24.6283483 32.4268969,24.8037983 L32.6590887,24.8991004 C32.8394392,24.9797559 33.0253352,25.0473652 33.2153469,25.1014084 L33.4776067,25.1582552 C33.9325753,25.2912246 34.4235184,25.1543496 34.7442899,24.8051039 C35.0650614,24.4558581 35.1601202,23.9547129 34.9895514,23.5120982 C34.8189826,23.0694836 34.4123198,22.7620374 33.94032,22.7188559 L33.9336382,22.717184 Z M23.3647328,23.8524493 C23.3280712,23.7594523 23.3383136,23.6544843 23.3922596,23.5703446 C23.4462056,23.4862049 23.5372765,23.4331544 23.6370154,23.4277698 L23.9711044,23.4729129 L27.5375044,24.069805 C26.9541584,25.4069339 26.0216675,26.562058 24.8380653,27.4137382 L23.4482551,24.0948845 L23.4566073,24.0848527 L23.3647328,23.8524493 Z M22.4159201,16.7900623 L22.4008861,16.7900623 L22.2137962,16.9238196 C22.0747314,17.0167419 21.8884499,16.9924532 21.7778101,16.8669728 C21.7385012,16.8195225 21.7146063,16.7611891 21.7093219,16.6997761 L21.6959583,16.4272456 L21.4938345,12.901068 C22.9220379,13.1661144 24.2562523,13.8001122 25.3642555,14.7402312 L22.4159201,16.7900623 Z M20.83902,21.5100241 L20.0037975,21.9096241 L19.168575,21.5100241 L18.9614399,20.6222098 L19.5410843,19.909952 L20.4815448,19.909952 L21.0595188,20.6238818 L20.83902,21.5100241 Z M19.7181514,25.3555473 C19.7719014,25.2560872 19.8741938,25.1924937 19.9870931,25.1883506 C20.0382394,25.1891853 20.0887346,25.199975 20.1357627,25.220118 C20.1956933,25.2468066 20.2450556,25.2926848 20.2760801,25.3505314 L22.1570011,28.6810889 C22.0517631,28.7095123 21.946525,28.7345918 21.8396166,28.7579994 C20.524708,29.0544985 19.1575302,29.0269579 17.8556053,28.677745 L19.7181514,25.3555473 Z M18.274887,16.704792 C18.256851,16.8139586 18.1860303,16.9071268 18.0857255,16.9536437 C17.9854206,17.0001606 17.8686206,16.9940025 17.7737535,16.9371954 L17.5716296,16.8017661 L14.6099307,14.7251835 C15.6316,13.8537153 16.8508724,13.2458198 18.1612967,12.9545709 C18.2782279,12.9278194 18.395159,12.9044119 18.5104197,12.8843483 L18.274887,16.704792 Z M15.6372543,19.6023102 C15.7615667,19.7077511 15.7793454,19.893115 15.677345,20.0203018 C15.6349213,20.0733709 15.5762154,20.110977 15.5103005,20.1273077 L11.8035831,21.1990383 C11.7391866,19.7494755 12.0669919,18.3093997 12.7523959,17.0308255 L15.4484941,19.4150499 L15.4484941,19.4367855 L15.6372543,19.6023102 Z M16.5392946,24.11662 L15.1678593,27.3936746 C13.9894078,26.548445 13.0612822,25.399941 12.4817838,24.069805 L16.0247976,23.4745848 L16.0348203,23.4896325 L16.2787052,23.4428175 C16.2978272,23.437467 16.3180488,23.437467 16.3371708,23.4428175 C16.4811213,23.4427875 16.6062425,23.5417302 16.6395213,23.6819087 C16.6549412,23.7444492 16.6490624,23.810352 16.6228169,23.869169 L16.5359537,24.1149481 L16.5392946,24.11662 Z M24.5307034,19.411706 L27.2234607,17.0308255 C27.9103987,18.3030941 28.247076,19.7352762 28.1990006,21.1806467 L24.7378386,20.1975303 L24.4789196,20.1055721 C24.3180712,20.0659653 24.2190086,19.9041897 24.2567504,19.7427554 C24.2695614,19.6777863 24.3036556,19.6189497 24.3536363,19.5755587 L24.5340443,19.408362 L24.5307034,19.411706 Z" id="Combined-Shape" fill="#4DBEA4"></path>
    </g>
</svg>