<svg height='16px' width='16px' fill="#4DBEA4" xmlns="http://www.w3.org/2000/svg" viewBox="0 0 22 22" x="0px" y="0px"><path fill-rule="evenodd" d="M16,0 C16.5522847,0 17,0.44771525 17,1 L17,2 L19.0427208,2 C19.5950055,2 20.0427208,2.44771525 20.0427208,3 C20.0427208,3.23460529 19.9602358,3.46174223 19.8096946,3.64167836 L17,7 L17,8 L19.0427208,8 C19.5950055,8 20.0427208,8.44771525 20.0427208,9 C20.0427208,9.23460529 19.9602358,9.46174223 19.8096946,9.64167836 L17,13 L17,14 L19.0427208,14 C19.5950055,14 20.0427208,14.4477153 20.0427208,15 C20.0427208,15.2346053 19.9602358,15.4617422 19.8096946,15.6416784 L17,19 L17,21 C17,21.5522847 16.5522847,22 16,22 L6,22 C5.44771525,22 5,21.5522847 5,21 L5,19 L2.24504517,15.7071068 C2.08814538,15.5195704 2,15.2652165 2,15 C2,14.4477153 2.37457494,14 2.83663655,14 L5,14 L5,13 L2.24504517,9.70710678 C2.08814538,9.5195704 2,9.26521649 2,9 C2,8.44771525 2.37457494,8 2.83663655,8 L5,8 L5,7 L2.24504517,3.70710678 C2.08814538,3.5195704 2,3.26521649 2,3 C2,2.44771525 2.37457494,2 2.83663655,2 L5,2 L5,1 C5,0.44771525 5.44771525,0 6,0 L16,0 Z M15,2 L7,2 L7,20 L15,20 L15,2 Z M11,14.5 C12.3807119,14.5 13.5,15.6192881 13.5,17 C13.5,18.3807119 12.3807119,19.5 11,19.5 C9.61928813,19.5 8.5,18.3807119 8.5,17 C8.5,15.6192881 9.61928813,14.5 11,14.5 Z M11,8.5 C12.3807119,8.5 13.5,9.61928813 13.5,11 C13.5,12.3807119 12.3807119,13.5 11,13.5 C9.61928813,13.5 8.5,12.3807119 8.5,11 C8.5,9.61928813 9.61928813,8.5 11,8.5 Z M11,9.5 C10.1715729,9.5 9.5,10.1715729 9.5,11 C9.5,11.8284271 10.1715729,12.5 11,12.5 C11.8284271,12.5 12.5,11.8284271 12.5,11 C12.5,10.1715729 11.8284271,9.5 11,9.5 Z M11,2.5 C12.3807119,2.5 13.5,3.61928813 13.5,5 C13.5,6.38071187 12.3807119,7.5 11,7.5 C9.61928813,7.5 8.5,6.38071187 8.5,5 C8.5,3.61928813 9.61928813,2.5 11,2.5 Z M11,3.5 C10.1715729,3.5 9.5,4.17157288 9.5,5 C9.5,5.82842712 10.1715729,6.5 11,6.5 C11.8284271,6.5 12.5,5.82842712 12.5,5 C12.5,4.17157288 11.8284271,3.5 11,3.5 Z"></path></svg>