<svg width="452" height="119" viewBox="0 0 452 119" fill="none" xmlns="http://www.w3.org/2000/svg">
<g clip-path="url(#clip0_1998_5326)">
<path d="M49.7589 0H0V119L49.7589 0Z" fill="#FA0C00"/>
<path d="M84.7681 0H134.462V119L84.7681 0Z" fill="#FA0C00"/>
<path d="M67.2635 43.8589L98.9342 119H78.1554L68.6898 95.0765H45.5122L67.2635 43.8589Z" fill="#FA0C00"/>
<path d="M215.642 75.6758L221.509 92.4998C221.704 92.9212 221.995 93.1157 222.514 93.1157H233.795C234.411 93.1157 234.508 92.8239 234.411 92.2081L211.104 27.4728C211.006 26.9542 210.909 26.8569 210.39 26.8569H196.387C195.998 26.8569 195.771 27.1487 195.771 27.5701C195.576 30.9738 195.285 32.0111 194.863 33.016L174.084 92.1108C173.987 92.824 174.214 93.1157 174.797 93.1157H184.879C185.495 93.1157 185.787 92.9212 186.013 92.3053L191.557 75.6758H215.642ZM194.766 64.6867C197.813 55.4805 201.833 43.681 203.453 36.9384H203.551C205.56 44.0051 210.293 58.0089 212.433 64.6867H194.766Z" fill="#FA0C00"/>
<path d="M264.375 94.1206C270.436 94.1206 276.887 93.0184 283.435 90.1982C283.954 90.0037 284.051 89.7768 284.051 89.2906C283.857 87.4753 283.63 84.8495 283.63 82.8397V21.8972C283.63 21.5082 283.63 21.3137 283.144 21.3137H272.155C271.733 21.3137 271.539 21.5082 271.539 22.0269V42.676C269.821 42.4815 268.621 42.3843 267.195 42.3843C249.463 42.3843 238.571 54.0865 238.571 68.7063C238.571 85.66 249.755 94.1206 264.375 94.1206V94.1206ZM271.539 82.8397C269.723 83.4232 267.713 83.6502 265.671 83.6502C257.632 83.6502 251.052 79.1119 251.052 68.0904C251.052 58.3331 257.827 52.563 266.806 52.563C268.621 52.563 270.21 52.7575 271.539 53.2761V82.8397Z" fill="#FA0C00"/>
<path d="M319.109 42.3843C303.971 42.3843 294.603 53.9893 294.603 68.3173C294.603 81.1217 302.058 94.1206 318.882 94.1206C333.113 94.1206 343.097 83.6501 343.097 67.9931C343.097 54.1838 334.637 42.3843 319.109 42.3843ZM318.493 52.563C327.051 52.563 330.682 59.9215 330.682 68.3173C330.682 78.6905 325.333 83.8446 319.109 83.8446C311.427 83.8446 306.888 77.3938 306.888 68.0904C306.888 58.5276 311.718 52.563 318.493 52.563V52.563Z" fill="#FA0C00"/>
<path d="M354.459 21.3137C354.037 21.3137 353.746 21.5082 353.746 22.0269V91.0086C353.746 91.3004 354.037 91.8191 354.459 91.9163C359.289 93.4074 364.346 94.1206 369.565 94.1206C384.509 94.1206 399.031 84.8495 399.031 66.1778C399.031 52.6602 389.76 42.3843 375.238 42.3843C371.899 42.3843 368.787 42.9029 366.064 43.8106L365.934 22.1241C365.934 21.411 365.74 21.3137 365.026 21.3137H354.459ZM386.616 67.4096C386.616 78.5932 378.965 83.8446 370.699 83.8446C368.981 83.8446 367.458 83.7474 366.064 83.326V53.892C367.652 53.2761 369.565 52.7575 373.098 52.7575C381.072 52.7575 386.616 57.8144 386.616 67.4096Z" fill="#FA0C00"/>
<path d="M440.042 71.0402C444.969 71.0402 449.021 70.943 450.415 70.6188C450.934 70.5216 451.128 70.3271 451.225 69.9057C451.517 68.8035 451.647 66.502 451.647 63.6817C451.647 54.0865 445.877 42.3843 430.965 42.3843C415.73 42.3843 407.269 54.7997 407.269 68.8035C407.269 81.2189 413.817 94.1206 432.165 94.1206C439.037 94.1206 443.478 93.0184 447.303 91.2031C447.692 91.0086 447.887 90.6845 447.887 90.101V81.7052C447.887 81.2189 447.595 81.1217 447.303 81.3162C443.478 82.937 439.329 83.7474 434.79 83.7474C424.514 83.7474 419.847 78.0746 419.555 71.0402H440.042ZM419.555 62.3527C420.365 57.4254 423.477 52.0767 430.447 52.0767C438.129 52.0767 440.139 58.5276 440.139 61.445C440.139 61.5423 440.139 61.9637 440.139 62.2554C439.718 62.3527 438.421 62.3527 434.596 62.3527H419.555Z" fill="#FA0C00"/>
</g>
<defs>
<clipPath id="clip0_1998_5326">
<rect width="451.644" height="119" fill="white"/>
</clipPath>
</defs>
</svg>
