<svg width="384" height="192" viewBox="0 0 384 192" fill="none" xmlns="http://www.w3.org/2000/svg">
<path d="M110.185 98.9956L112.931 134.048L64.3104 142.77L60.1106 107.718L67.0564 106.749C68.1871 107.234 68.9947 107.395 70.287 107.718C72.3869 108.203 74.8098 108.849 78.3635 106.911C79.1711 106.426 80.9479 104.972 81.5941 104.003L110.185 98.9956ZM35.0734 140.67C34.2658 139.378 32.812 137.924 30.5506 136.148C27.32 133.563 28.4507 129.04 30.3891 126.294C32.812 121.61 45.5729 115.472 44.9268 107.88C44.6037 105.134 44.2806 101.58 41.6962 98.9956C41.6023 99.6383 41.6023 100.291 41.6962 100.934C41.6962 100.934 40.5655 99.6417 40.0809 97.7034C39.5963 97.0573 39.1117 96.7342 38.6271 95.765C38.304 96.8957 38.304 98.0264 38.304 98.0264C38.304 98.0264 37.4964 95.9266 37.3349 94.3113C36.8503 95.1189 36.6887 96.5727 36.6887 96.5727C36.6887 96.5727 35.558 93.3421 35.8811 91.5652C35.3965 90.1115 33.7812 87.0424 34.2658 80.2582C37.0118 82.1965 43.1499 81.7119 45.5729 78.1583C46.3805 77.0276 46.8651 73.797 45.2498 67.4973C44.1191 63.459 41.3731 57.4824 40.2424 55.221L40.0809 55.3825C40.727 57.1594 41.8577 61.0361 42.3423 62.9745C43.6345 68.628 44.1191 70.5664 43.473 73.1508C42.9884 75.4123 41.6962 76.866 38.304 78.4813C35.0734 80.0966 30.5506 76.0584 30.3891 75.8968C27.1585 73.3124 24.7355 69.1126 24.4125 67.1742C24.0894 64.9128 25.7047 63.6206 26.5124 61.8437C25.3817 62.1668 24.0894 62.8129 24.0894 62.8129C24.0894 62.8129 25.5432 61.1976 27.4815 59.9054C28.2892 59.4208 28.7738 59.0977 29.5814 58.4516H27.4815C27.4815 58.4516 29.4199 57.3209 31.5198 56.6748H28.6122L36.3657 53.2827C38.7886 52.3135 41.0501 52.6365 42.3423 54.4134C44.1191 56.8363 45.8959 58.1286 49.6111 59.0977C51.8726 58.1286 52.6802 57.4824 55.5877 56.6748C58.1722 53.7672 60.2721 53.4442 60.2721 53.4442C60.2721 53.4442 58.8183 54.7364 58.6568 56.1902C60.1106 55.0595 61.7259 54.0903 61.7259 54.0903C61.7259 54.0903 61.0798 54.898 60.5952 56.0287L60.7567 56.1902C62.5335 55.221 64.4719 54.4134 64.4719 54.4134C64.4719 54.4134 63.8258 55.0595 63.1797 56.0287C64.4719 56.0287 67.0564 56.0287 68.0256 56.1902C74.0022 56.3517 75.2944 49.8905 77.5558 48.9213C80.4634 47.9522 81.7556 47.306 86.6015 52.1519C90.8013 56.3517 94.0319 63.6206 92.4166 65.2359C91.1243 66.5281 88.3783 64.7513 85.3093 61.0361C83.694 59.0977 82.5632 56.6748 81.9171 53.7672C81.5941 51.3443 79.8172 49.8905 79.8172 49.8905C79.8172 49.8905 80.9479 52.3135 80.9479 54.4134C80.9479 55.5441 81.1095 59.7439 82.8863 62.1668C82.7248 62.4899 82.5632 63.9436 82.4017 64.1052C80.3018 61.5207 75.6175 59.7439 74.9713 59.0977C77.5558 61.1976 83.3709 65.882 85.6323 70.4048C87.7322 74.7661 86.44 78.6429 87.5707 79.612C87.8937 79.9351 92.0935 85.104 92.9012 87.8501C94.3549 92.5344 93.0627 97.3803 91.1243 100.288L85.9554 101.096C85.1477 100.934 84.6631 100.772 84.017 100.449C84.3401 99.8033 85.1477 98.188 85.1477 97.8649L84.8247 97.3803C83.2094 99.6417 80.4634 101.903 78.2019 103.195C75.2944 104.811 71.9023 104.649 69.6408 103.842C63.3412 101.903 57.3646 97.7034 56.0723 96.5727C56.0723 96.5727 56.0723 97.3803 56.2339 97.7034C57.8492 99.4802 61.4028 102.711 64.9565 104.972L57.5261 105.78L61.0798 133.24C59.4645 133.401 59.3029 133.563 57.5261 133.886C56.0723 128.556 53.1648 125.163 49.9342 123.064C47.1882 121.287 43.3115 120.802 39.5963 121.61L39.4348 121.933C42.0192 121.61 45.0883 122.094 48.1574 124.033C51.2264 125.971 53.6494 130.979 54.6186 133.886C55.7493 137.763 56.5569 141.801 53.4879 146.162C51.2264 149.231 44.7652 151.008 39.5963 147.293C41.0501 149.554 42.8269 151.331 45.4114 151.654C49.1265 152.139 52.6802 151.493 55.2647 149.07C57.3646 146.97 58.4953 142.447 58.1722 137.601L61.5644 137.117L62.6951 145.678L117.777 139.055L112.931 95.1189L110.185 95.6035L104.693 40.1987L12.9438 50.8597L24.2509 142.286L35.0734 140.67Z" fill="#5C2D90"/>
<path d="M78.6943 92.6159C81.1167 94.3919 83.2159 95.4959 85.3183 95.3615C86.6111 95.2015 87.9039 93.0991 88.7103 91.1631C89.3567 89.8703 89.3567 88.4175 88.3903 87.9631C87.9103 87.8031 85.9679 87.8031 84.5503 87.9631C81.8047 88.2831 79.0591 89.2559 78.4127 89.7391C77.4431 90.3855 77.9328 92.0015 78.7328 92.6191L78.6943 92.6159ZM79.3727 73.6879V73.8479L79.5328 74.1679C80.1792 75.4607 80.8255 76.7535 82.1183 77.3679C82.4383 77.3679 82.7648 77.2079 83.088 77.2079C83.855 77.1851 84.6203 77.2944 85.3503 77.5311V76.5615C85.1903 74.9455 85.6703 72.0399 82.4703 70.4239C81.1775 69.7775 79.5903 70.1039 78.9503 70.7439H79.2703C80.0767 71.0639 79.5903 71.3903 79.4303 71.7135C79.2703 72.3599 79.1103 72.5199 79.4303 73.6527" fill="#5C2D90"/>
<path d="M64.8326 74.0399C65.639 73.3935 61.1206 72.4239 57.5622 74.6863C54.9766 76.4623 54.9766 80.1775 57.4022 82.2767C57.7222 82.4367 57.8822 82.5967 58.0486 82.7567C58.695 82.4367 59.6646 82.1103 60.471 81.7871C62.087 81.3071 63.351 80.9807 64.5094 80.8175C64.9894 80.1711 65.639 79.2015 65.479 77.4255C65.319 75.0031 63.3798 75.4863 64.8326 74.0335V74.0399ZM100.372 119.432L91.1654 113.294L83.4118 126.216L74.3654 123.47L66.4518 135.586L66.7718 139.426L110.061 131.512L107.476 104.536L100.372 119.432Z" fill="#5C2D90"/>
<path d="M317.935 108.366C310.545 108.366 306.565 104.102 306.565 95.8583C306.565 87.6147 310.26 83.3508 317.935 83.3508C325.326 83.3508 329.022 87.6147 329.022 95.8583C329.022 104.102 325.326 108.366 317.935 108.366ZM317.935 77.6655C305.996 77.6655 299.743 83.635 299.743 95.8583C300.311 108.082 306.565 114.051 317.935 114.051C329.874 114.051 335.844 108.082 335.844 95.8583C336.128 83.635 330.159 77.6655 317.935 77.6655" fill="#5C2D90"/>
<path d="M360.541 83.3508C364.237 83.3508 367.648 83.9193 370.775 85.3406V79.3711C367.648 78.2341 364.237 77.6655 360.257 77.6655C347.181 77.6655 340.643 83.635 340.643 95.5741C340.643 108.082 347.181 114.335 359.973 114.335C364.521 114.335 367.932 113.767 371.059 112.346V93.3H359.973L357.699 99.2695H364.237V107.797C362.816 108.082 361.394 108.366 359.973 108.366C351.729 108.366 347.465 104.102 347.465 95.2898C347.465 87.3304 352.014 83.3508 360.541 83.3508Z" fill="#5C2D90"/>
<path d="M277.336 107.951H269.377V83.5041H277.336C284.727 83.5041 288.707 87.1995 288.707 94.8746C288.423 103.687 284.727 107.951 277.336 107.951ZM278.189 77.8188H262.555V113.92H278.189C289.56 113.92 295.245 107.666 295.245 94.8746C295.245 83.5041 289.56 77.8188 278.189 77.8188" fill="#5C2D90"/>
<path d="M142.881 107.994H134.922V83.5476H142.881C150.556 83.5476 154.252 87.243 154.252 94.918C154.252 103.73 150.272 107.994 142.881 107.994V107.994ZM143.734 77.8623H128.1V113.964H143.734C155.105 113.964 160.79 107.71 160.79 94.918C160.79 83.5476 155.105 77.8623 143.734 77.8623" fill="#5C2D90"/>
<path d="M246.352 103.971L250.901 113.92H258.007L242.373 77.8188H234.982L219.632 113.92H226.454L238.677 84.6411L244.363 98.2857H236.972L234.698 103.971H246.352ZM187.51 103.971L192.058 113.92H199.449L183.53 77.8188H176.424L161.074 113.92H167.896L179.835 84.6411L185.805 98.2857H178.129L175.855 103.971H187.51ZM195.469 83.5041H205.987V113.92H212.809V83.5041H223.043V77.8188H195.469V83.5041Z" fill="#5C2D90"/>
</svg>
