<svg width="474" height="161" viewBox="0 0 474 161" fill="none" xmlns="http://www.w3.org/2000/svg">
<path d="M201.36 82.0748C201.36 104.29 183.981 120.659 162.654 120.659C141.326 120.659 123.947 104.29 123.947 82.0748C123.947 59.7034 141.326 43.4902 162.654 43.4902C183.981 43.4902 201.36 59.7034 201.36 82.0748ZM184.416 82.0748C184.416 68.1927 174.344 58.6944 162.654 58.6944C150.963 58.6944 140.891 68.1927 140.891 82.0748C140.891 95.8177 150.963 105.455 162.654 105.455C174.344 105.455 184.416 95.8003 184.416 82.0748Z" fill="#EA4335"/>
<path d="M284.861 82.0748C284.861 104.29 267.483 120.659 246.155 120.659C224.827 120.659 207.449 104.29 207.449 82.0748C207.449 59.7208 224.827 43.4902 246.155 43.4902C267.483 43.4902 284.861 59.7034 284.861 82.0748ZM267.918 82.0748C267.918 68.1927 257.845 58.6944 246.155 58.6944C234.465 58.6944 224.393 68.1927 224.393 82.0748C224.393 95.8177 234.465 105.455 246.155 105.455C257.845 105.455 267.918 95.8003 267.918 82.0748Z" fill="#FBBC05"/>
<path d="M364.883 45.8213V115.093C364.883 143.587 348.079 155.225 328.212 155.225C309.511 155.225 298.256 142.718 294.012 132.489L308.763 126.348C311.39 132.628 317.827 140.039 328.195 140.039C340.911 140.039 348.792 132.193 348.792 117.424V111.874H348.2C344.408 116.554 337.102 120.642 327.882 120.642C308.589 120.642 290.915 103.837 290.915 82.2139C290.915 60.434 308.589 43.4902 327.882 43.4902C337.084 43.4902 344.391 47.5783 348.2 52.1187H348.792V45.8387H364.883V45.8213ZM349.992 82.2139C349.992 68.6276 340.929 58.6944 329.395 58.6944C317.705 58.6944 307.911 68.6276 307.911 82.2139C307.911 95.6611 317.705 105.455 329.395 105.455C340.929 105.455 349.992 95.6611 349.992 82.2139Z" fill="#4285F4"/>
<path d="M391.412 5.21899V118.294H374.886V5.21899H391.412Z" fill="#34A853"/>
<path d="M455.812 94.7742L468.964 103.542C464.719 109.822 454.49 120.642 436.816 120.642C414.897 120.642 398.527 103.698 398.527 82.0577C398.527 59.1122 415.036 43.4731 434.919 43.4731C454.942 43.4731 464.736 59.408 467.937 68.019L469.694 72.4029L418.115 93.7653C422.064 101.507 428.205 105.455 436.816 105.455C445.444 105.455 451.428 101.211 455.812 94.7742ZM415.331 80.8922L449.811 66.5752C447.914 61.7564 442.208 58.399 435.494 58.399C426.882 58.399 414.897 66.0011 415.331 80.8922V80.8922Z" fill="#EA4335"/>
<path d="M61.3906 72.0373V55.6675H116.554C117.093 58.5205 117.371 61.8953 117.371 65.5485C117.371 77.8302 114.014 93.017 103.193 103.837C92.6687 114.797 79.2216 120.642 61.4079 120.642C28.3901 120.642 0.625977 93.7476 0.625977 60.7298C0.625977 27.712 28.3901 0.817627 61.4079 0.817627C79.6739 0.817627 92.6861 7.98482 102.463 17.3265L90.9117 28.8775C83.9011 22.3018 74.4028 17.1874 61.3906 17.1874C37.2796 17.1874 18.4222 36.6188 18.4222 60.7298C18.4222 84.8408 37.2796 104.272 61.3906 104.272C77.0296 104.272 85.9364 97.9922 91.6424 92.2863C96.2697 87.659 99.314 81.0484 100.514 72.0199L61.3906 72.0373V72.0373Z" fill="#4285F4"/>
</svg>
