<svg width="506" height="137" viewBox="0 0 506 137" fill="none" xmlns="http://www.w3.org/2000/svg">
<g clip-path="url(#clip0_1998_5494)">
<path d="M204.387 0.849121H68.2358V137H204.387V0.849121Z" fill="white"/>
<path d="M272.462 69.0846L204.386 0.849121V137.16L272.462 69.0846Z" fill="#DB0011"/>
<path d="M136.311 69.0846L204.387 0.849121H68.2358L136.311 69.0846Z" fill="#DB0011"/>
<path d="M0 69.0846L68.2355 137.16V0.849121L0 69.0846Z" fill="#DB0011"/>
<path d="M136.311 69.085L68.2358 137.16H204.387L136.311 69.085Z" fill="#DB0011"/>
<path d="M332.207 73.0897H307.54V97.4367H295.207V40.4136H307.54V63.7995H332.207V40.4136H344.541V97.4367H332.207V73.0897Z" fill="#ffffff"/>
<path d="M374.334 98.5576C362.001 98.5576 351.91 93.5921 351.75 79.977H364.083C364.243 86.0637 367.767 89.7478 374.495 89.7478C379.46 89.7478 385.227 87.185 385.227 81.5788C385.227 77.0938 381.382 75.8124 374.975 73.8903L370.811 72.769C361.841 70.2062 352.871 66.6823 352.871 56.4309C352.871 43.7769 364.724 39.4521 375.456 39.4521C386.508 39.4521 396.119 43.2964 396.279 55.9504H383.945C383.465 50.8247 380.421 47.7814 374.655 47.7814C370.01 47.7814 365.525 50.184 365.525 55.3097C365.525 59.4743 369.369 60.7557 377.378 63.3186L382.183 64.7602C391.954 67.8035 398.201 71.1672 398.201 80.7779C398.041 93.5921 385.547 98.5576 374.334 98.5576Z" fill="#ffffff"/>
<path d="M405.088 40.5739H424.95C428.634 40.4137 432.479 40.5739 436.163 41.2146C443.05 42.8164 448.336 47.3013 448.336 54.9898C448.336 62.358 443.691 66.0421 436.964 67.804C444.652 69.2456 450.419 73.0899 450.419 81.5793C450.419 94.5536 437.604 97.4368 427.673 97.4368H405.249L405.088 40.5739ZM424.95 64.2801C430.396 64.2801 436.003 63.1589 436.003 56.5916C436.003 50.6651 430.877 49.0633 425.751 49.0633H417.102V64.2801H424.95V64.2801ZM426.072 88.9474C431.838 88.9474 437.444 87.666 437.444 80.6182C437.444 73.5704 432.639 72.289 426.712 72.289H416.941V88.9474H426.072Z" fill="#ffffff"/>
<path d="M482.454 98.5576C464.034 98.5576 455.865 86.8646 455.865 69.4053C455.865 51.946 464.995 39.292 483.095 39.292C494.467 39.292 505.52 44.4177 505.84 57.2318H493.026C492.385 51.4655 488.541 48.5823 483.095 48.5823C471.882 48.5823 468.519 60.5956 468.519 69.7257C468.519 78.8558 471.882 89.4275 482.614 89.4275C488.221 89.4275 492.385 86.3841 493.186 80.6177H506C504.719 93.7523 494.307 98.5576 482.454 98.5576Z" fill="#ffffff"/>
</g>
<defs>
<clipPath id="clip0_1998_5494">
<rect width="506" height="136.151" fill="white" transform="translate(0 0.849121)"/>
</clipPath>
</defs>
</svg>
