<svg width="385" height="155" viewBox="0 0 385 155" fill="none" xmlns="http://www.w3.org/2000/svg">
<g clip-path="url(#clip0_1998_5508)">
<path d="M0 143.416H74.7145V154.111H0V143.416Z" fill="#1F70C1"/>
<path d="M0 122.9H74.7145V133.633H0V122.9Z" fill="#1F70C1"/>
<path d="M21.3145 102.423H53.3621V113.157H21.3145V102.423Z" fill="#1F70C1"/>
<path d="M21.3145 81.9468H53.3621V92.6802H21.3145V81.9468Z" fill="#1F70C1"/>
<path d="M21.3145 61.4688H53.3621V72.2021H21.3145V61.4688Z" fill="#1F70C1"/>
<path d="M21.3145 40.9541H53.3621V51.6875H21.3145V40.9541Z" fill="#1F70C1"/>
<path d="M74.7145 20.4771H0V31.2104H74.7145V20.4771Z" fill="#1F70C1"/>
<path d="M74.7145 0H0V10.7334H74.7145V0Z" fill="#1F70C1"/>
<path d="M85.3721 133.634H200.28C202.22 130.323 203.667 126.707 204.543 122.9H85.3721V133.634Z" fill="#1F70C1"/>
<path d="M191.336 81.9468H106.725V92.6802H200.28C197.844 88.5693 194.837 84.9537 191.336 81.9468Z" fill="#1F70C1"/>
<path d="M106.725 61.4688V72.2021H191.336C194.914 69.1952 197.92 65.5793 200.28 61.4688H106.725Z" fill="#1F70C1"/>
<path d="M200.28 20.4771H85.3721V31.2104H204.543C203.553 27.4043 202.107 23.7887 200.28 20.4771Z" fill="#1F70C1"/>
<path d="M164.959 0H85.3721V10.7334H192.401C185.245 4.11052 175.54 0 164.959 0Z" fill="#1F70C1"/>
<path d="M138.735 40.9541H106.725V51.6875H138.735V40.9541Z" fill="#1F70C1"/>
<path d="M170.782 51.6875H204.276C205.227 48.2621 205.722 44.6462 205.722 40.9541H170.782V51.6875Z" fill="#1F70C1"/>
<path d="M106.725 102.423H138.735V113.157H106.725V102.423Z" fill="#1F70C1"/>
<path d="M170.782 102.423V113.157H205.722C205.722 109.465 205.227 105.849 204.276 102.423H170.782Z" fill="#1F70C1"/>
<path d="M85.3721 154.035L164.959 154.149C175.616 154.149 185.245 150.038 192.439 143.416H85.3721V154.035Z" fill="#1F70C1"/>
<path d="M213.487 143.416H266.849V154.111H213.487V143.416Z" fill="#1F70C1"/>
<path d="M213.487 122.9H266.849V133.633H213.487V122.9Z" fill="#1F70C1"/>
<path d="M234.801 102.423H266.848V113.157H234.801V102.423Z" fill="#1F70C1"/>
<path d="M234.801 81.9468H266.848V92.6802H234.801V81.9468Z" fill="#1F70C1"/>
<path d="M281.693 20.4771H213.487V31.2104H285.385L281.693 20.4771Z" fill="#1F70C1"/>
<path d="M274.613 0H213.487V10.7334H278.305L274.613 0Z" fill="#1F70C1"/>
<path d="M330.868 143.416H384.268V154.111H330.868V143.416Z" fill="#1F70C1"/>
<path d="M330.868 122.9H384.268V133.633H330.868V122.9Z" fill="#1F70C1"/>
<path d="M330.868 102.423H362.916V113.157H330.868V102.423Z" fill="#1F70C1"/>
<path d="M330.868 81.9468H362.916V92.6802H330.868V81.9468Z" fill="#1F70C1"/>
<path d="M330.868 72.2021H362.916V61.4688H330.868H301.865L298.858 70.1471L295.851 61.4688H266.848H234.801V72.2021H266.848V62.3441L270.236 72.2021H327.481L330.868 62.3441V72.2021Z" fill="#1F70C1"/>
<path d="M362.916 40.9541H308.945L305.253 51.6875H362.916V40.9541Z" fill="#1F70C1"/>
<path d="M323.142 0L319.45 10.7334H384.269V0H323.142Z" fill="#1F70C1"/>
<path d="M298.859 154.035L302.55 143.416H295.167L298.859 154.035Z" fill="#1F70C1"/>
<path d="M291.779 133.633H305.938L309.744 122.9H288.011L291.779 133.633Z" fill="#1F70C1"/>
<path d="M284.586 113.157H313.132L316.9 102.423H280.817L284.586 113.157Z" fill="#1F70C1"/>
<path d="M277.43 92.6802H320.325L323.979 81.9468H273.738L277.43 92.6802Z" fill="#1F70C1"/>
<path d="M234.801 51.6875H292.464L288.772 40.9541H234.801V51.6875Z" fill="#1F70C1"/>
<path d="M312.37 31.2104H384.268V20.4771H316.024L312.37 31.2104Z" fill="#1F70C1"/>
</g>
<defs>
<clipPath id="clip0_1998_5508">
<rect width="384.269" height="154.149" fill="white"/>
</clipPath>
</defs>
</svg>
