<svg width="473" height="130" viewBox="0 0 473 130" fill="none" xmlns="http://www.w3.org/2000/svg">
<path d="M453.237 91.2327V89.9616H454.037C454.461 89.9616 455.073 90.0087 455.073 90.5265C455.073 91.0444 454.743 91.2327 454.225 91.2327H453.237V91.2327ZM453.237 92.1272H453.802L455.073 94.3399H456.438L455.026 92.033C455.732 92.0801 456.297 91.5623 456.344 90.8561V90.6678C456.344 89.4437 455.497 89.0671 454.084 89.0671H452.06V94.3399H453.237V92.1272V92.1272ZM459.169 91.7035C459.169 88.5963 456.768 86.8073 454.084 86.8073C451.401 86.8073 449 88.5963 449 91.7035C449 94.8107 451.401 96.5997 454.084 96.5997C456.768 96.5997 459.169 94.8107 459.169 91.7035ZM457.662 91.7035C457.756 93.6808 456.203 95.3756 454.225 95.4698H454.084C452.013 95.5639 450.271 93.9162 450.177 91.8447C450.083 89.7733 451.73 88.0314 453.802 87.9372C455.873 87.843 457.615 89.4908 457.709 91.5623C457.662 91.6093 457.662 91.6564 457.662 91.7035V91.7035ZM272.502 39.3991V94.9519H288.179V39.3991H272.502ZM149.156 39.3049V94.9048H164.974V51.7337L177.309 51.7808C181.358 51.7808 184.182 52.7694 186.113 54.8409C188.608 57.4773 189.596 61.7615 189.596 69.5294V94.9048H204.944V64.2095C204.944 42.2709 190.962 39.3049 177.309 39.3049H149.156ZM297.783 39.3991V94.9519H323.206C336.764 94.9519 341.19 92.6921 345.945 87.6547C349.334 84.1238 351.5 76.3088 351.5 67.7875C351.5 59.9725 349.664 53.0048 346.415 48.6736C340.672 40.9056 332.292 39.3991 319.769 39.3991H297.783ZM313.319 51.4512H320.051C329.844 51.4512 336.152 55.8295 336.152 67.2226C336.152 78.6156 329.844 83.041 320.051 83.041H313.319V51.4512ZM249.904 39.3991L236.816 83.4176L224.293 39.3991H207.345L225.235 94.9519H247.833L265.911 39.3991H249.904ZM358.844 94.9519H374.521V39.3991H358.844V94.9519ZM402.816 39.3991L380.924 94.9048H396.366L399.85 85.0654H425.743L429.038 94.8578H445.846L423.766 39.3991H402.816ZM412.985 49.521L422.494 75.5084H403.192L412.985 49.521Z" fill="black"/>
<path d="M47.9837 48.6263V40.9995C48.7369 40.9524 49.4902 40.9054 50.2434 40.9054C71.1464 40.2463 84.8463 58.8894 84.8463 58.8894C84.8463 58.8894 70.0636 79.4157 54.198 79.4157C52.0795 79.4157 50.008 79.0862 48.0307 78.4271V55.2643C56.1753 56.253 57.8231 59.831 62.6722 67.9756L73.5474 58.8423C73.5474 58.8423 65.5911 48.4379 52.2207 48.4379C50.8084 48.3909 49.396 48.485 47.9837 48.6263V48.6263ZM47.9837 23.3921V34.7851L50.2434 34.6439C79.291 33.6552 98.2637 58.4657 98.2637 58.4657C98.2637 58.4657 76.5133 84.9239 53.8685 84.9239C51.8912 84.9239 49.961 84.7356 48.0307 84.406V91.4678C49.6314 91.6562 51.2792 91.7974 52.8798 91.7974C73.9711 91.7974 89.2246 81.0164 104.007 68.3051C106.455 70.2824 116.483 75.0374 118.555 77.1089C104.525 88.8785 71.8055 98.3413 53.2565 98.3413C51.4675 98.3413 49.7726 98.2472 48.0778 98.0589V107.992H128.206V23.3921L47.9837 23.3921ZM47.9837 78.4271V84.4531C28.4931 80.9693 23.079 60.6784 23.079 60.6784C23.079 60.6784 32.4477 50.3211 47.9837 48.6263V55.2173H47.9366C39.792 54.2286 33.3893 61.8554 33.3893 61.8554C33.3893 61.8554 37.0143 74.7078 47.9837 78.4271V78.4271ZM13.3808 59.831C13.3808 59.831 24.9151 42.7885 48.0307 40.9995V34.7851C22.4199 36.8566 0.292969 58.5128 0.292969 58.5128C0.292969 58.5128 12.8159 94.7634 47.9837 98.0589V91.4678C22.1846 88.2665 13.3808 59.831 13.3808 59.831V59.831Z" fill="#76B900"/>
</svg>
