<svg width="485" height="115" viewBox="0 0 485 115" fill="none" xmlns="http://www.w3.org/2000/svg">
<g clip-path="url(#clip0_1998_5347)">
<path d="M100.853 66.3338C110.751 66.3338 125.071 64.2925 125.071 52.5196C125.101 51.611 125.019 50.7022 124.826 49.8137L118.932 24.2108C117.571 18.5775 116.376 16.022 106.486 11.077C98.8117 7.1527 82.0939 0.672852 77.1489 0.672852C72.5442 0.672852 71.2071 6.60678 65.7162 6.60678C60.4311 6.60678 56.5068 2.17611 51.5618 2.17611C46.8147 2.17611 43.7211 5.41208 41.3317 12.066C41.3317 12.066 34.6778 30.833 33.8233 33.5547C33.6875 34.0545 33.6288 34.5721 33.6493 35.0897C33.6493 42.3844 62.3695 66.3021 100.853 66.3021V66.3338ZM126.59 57.2984C127.959 63.7782 127.959 64.4587 127.959 65.3131C127.959 76.3898 115.506 82.5374 99.1361 82.5374C62.14 82.5611 29.7329 60.8825 29.7329 46.554C29.7307 44.5596 30.1373 42.5858 30.9276 40.7546C17.6197 41.4192 0.395508 43.7928 0.395508 58.9994C0.395508 83.9061 59.4104 114.604 106.138 114.604C141.963 114.604 150.999 98.4007 150.999 85.6072C150.999 75.5432 142.296 64.1184 126.606 57.2984" fill="#EE0000"/>
<path d="M126.591 57.2984C127.959 63.7783 127.959 64.4587 127.959 65.3132C127.959 76.3899 115.506 82.5374 99.1362 82.5374C62.1401 82.5611 29.7329 60.8825 29.7329 46.554C29.7308 44.5596 30.1374 42.5858 30.9276 40.7546L33.8234 33.5864C33.6907 34.076 33.6321 34.5827 33.6493 35.0897C33.6493 42.3845 62.3695 66.3022 100.853 66.3022C110.751 66.3022 125.071 64.2609 125.071 52.488C125.101 51.5794 125.019 50.6706 124.826 49.7821L126.591 57.2984Z" fill="black"/>
<path d="M458.685 73.6999C458.685 83.1071 464.342 87.6802 474.659 87.6802C477.836 87.6011 480.992 87.1551 484.066 86.351V75.4405C482.102 76.0632 480.051 76.3729 477.99 76.3583C473.741 76.3583 472.167 75.0291 472.167 71.0336V54.3157H484.478V43.0808H472.167V28.8394L458.717 31.7509V43.0808H449.784V54.3157H458.685V73.6999ZM416.752 73.9531C416.752 71.0415 419.671 69.6253 424.078 69.6253C426.772 69.6409 429.454 69.9755 432.069 70.6222V76.2792C429.492 77.6867 426.595 78.4036 423.659 78.36C419.339 78.36 416.752 76.6985 416.752 73.9531V73.9531ZM420.866 87.8464C425.613 87.8464 429.443 86.8495 433.019 84.4364V87.1027H446.327V58.8888C446.327 48.1602 439.095 42.2738 427.029 42.2738C420.288 42.2738 413.627 43.8562 406.458 47.1L411.285 57.0058C416.443 54.8379 420.779 53.5087 424.6 53.5087C430.139 53.5087 433.003 55.6686 433.003 60.0835V62.2434C429.742 61.3994 426.386 60.9792 423.018 60.9934C411.696 60.9934 404.876 65.7405 404.876 74.23C404.876 81.9678 411.031 87.8701 420.85 87.8701L420.866 87.8464ZM347.713 87.1264H362.025V64.3005H385.99V87.1027H400.343V28.8552H386.046V51.238H362.081V28.8552H347.768L347.713 87.1264ZM293.231 65.0522C293.231 58.7226 298.224 53.8964 304.798 53.8964C308.219 53.827 311.54 55.0472 314.103 57.3143V72.703C312.861 73.8759 311.4 74.7916 309.803 75.3972C308.206 76.0028 306.505 76.2864 304.798 76.2317C298.311 76.2317 293.231 71.4054 293.231 65.0838V65.0522ZM314.285 87.1343H327.6V25.9436L314.15 28.8552V45.4148C310.726 43.4737 306.851 42.4694 302.915 42.5032C290.106 42.5032 280.034 52.401 280.034 65.0522C279.997 68.0206 280.552 70.9666 281.666 73.7183C282.781 76.4699 284.432 78.972 286.523 81.0785C288.615 83.185 291.106 84.8537 293.849 85.9872C296.593 87.1207 299.535 87.6962 302.504 87.6802C306.748 87.7005 310.888 86.3613 314.316 83.8588L314.285 87.1343ZM253.181 53.2872C257.422 53.2872 260.998 56.0326 262.414 60.2734H244.059C245.388 55.8981 248.719 53.2872 253.181 53.2872ZM230.498 65.155C230.498 77.9723 240.981 87.9571 254.455 87.9571C261.86 87.9571 267.272 85.9554 272.85 81.2953L263.941 73.3834C261.86 75.5513 258.783 76.7143 255.127 76.7143C252.829 76.7791 250.564 76.1463 248.632 74.8992C246.701 73.6522 245.191 71.8494 244.304 69.7281H275.675V66.3814C275.675 52.401 266.275 42.3371 253.458 42.3371C250.445 42.2916 247.453 42.849 244.659 43.9766C241.864 45.1041 239.324 46.779 237.186 48.9027C235.048 51.0265 233.357 53.5562 232.211 56.3431C231.065 59.1301 230.488 62.1181 230.513 65.1313L230.498 65.155ZM207.292 41.087C212.039 41.087 214.697 44.0777 214.697 47.6618C214.697 51.2459 212.039 54.2366 207.292 54.2366H193.138V41.087H207.292ZM178.809 87.1027H193.122V65.8829H204.016L215.006 87.1027H231.028L218.21 63.8021C221.468 62.4773 224.254 60.2082 226.211 57.2868C228.168 54.3653 229.206 50.925 229.192 47.4086C229.192 36.9253 220.956 28.8552 208.621 28.8552H178.809V87.1027Z" fill="#000000"/>
</g>
<defs>
<clipPath id="clip0_1998_5347">
<rect width="485" height="114.723" fill="white" transform="translate(0 0.277344)"/>
</clipPath>
</defs>
</svg>
