<svg width="344" height="168" viewBox="0 0 344 168" fill="none" xmlns="http://www.w3.org/2000/svg">
<path fill-rule="evenodd" clip-rule="evenodd" d="M0 168H171.636L339.606 0H0V168Z" fill="url(#paint0_linear_1998_5504)"/>
<path fill-rule="evenodd" clip-rule="evenodd" d="M201.54 33.6005H168L168.112 112.486L138.906 33.5744H109.947L85.0156 99.4789C82.3649 82.7088 65.0273 76.9221 51.3857 72.5877C42.3772 69.6944 32.8161 65.4384 32.9132 60.7344C32.9879 56.8741 38.0279 53.2939 48.0444 53.8277C54.7644 54.1899 60.7004 54.7312 72.5089 60.4357L84.1196 40.2011C73.3527 34.7205 58.4641 31.2597 46.2561 31.2485H46.1815C31.9463 31.2485 20.0929 35.8592 12.7457 43.4565C7.62359 48.7579 4.86092 55.5003 4.74892 62.9557C4.56225 73.2149 8.32172 80.4875 16.2215 86.3003C22.8967 91.1909 31.4348 94.3643 38.9575 96.6939C48.2348 99.5685 55.8135 102.07 55.7201 107.394C55.6455 109.335 54.9137 111.149 53.5175 112.613C51.2028 115.002 47.6561 115.898 42.7468 115.995C33.2753 116.197 26.2567 114.707 15.0716 108.095L4.74146 128.591C15.9153 134.946 27.7761 138.134 41.2535 138.134L44.2849 138.111C56.0151 137.899 65.5351 135.087 73.0988 129.002C73.5319 128.655 73.9201 128.304 74.3233 127.949L73.054 134.49L101.353 134.401L106.43 121.401C111.769 123.223 117.839 124.231 124.283 124.231C130.562 124.231 136.468 123.275 141.706 121.558L145.245 134.401L196.019 134.449L196.142 104.814H206.946C233.061 104.814 248.498 91.5232 248.498 69.2352C248.491 44.4123 233.483 33.6005 201.54 33.6005ZM124.283 101.032C120.381 101.032 116.723 100.353 113.576 99.1579L124.163 65.7259H124.369L134.785 99.2512C131.649 100.371 128.076 101.032 124.279 101.032H124.283ZM203.504 81.824H196.135V54.8805H203.508C213.327 54.8805 221.167 58.1509 221.167 68.1787C221.159 78.5573 213.327 81.824 203.508 81.824" fill="white"/>
<defs>
<linearGradient id="paint0_linear_1998_5504" x1="169.803" y1="0" x2="169.803" y2="168.004" gradientUnits="userSpaceOnUse">
<stop stop-color="#00AEEF"/>
<stop offset="0.212" stop-color="#0097DC"/>
<stop offset="0.519" stop-color="#007CC5"/>
<stop offset="0.792" stop-color="#006CB8"/>
<stop offset="1" stop-color="#0066B3"/>
</linearGradient>
</defs>
</svg>
