<svg width="507" height="102" viewBox="0 0 507 102" fill="none" xmlns="http://www.w3.org/2000/svg">
<path d="M422.683 45.7471V83.7128H434.859V58.4352H479.171V83.7128H491.338V45.8129L422.683 45.7471V45.7471ZM433.502 33.4661H480.318C486.821 32.1735 491.657 26.435 493.02 20.8836H420.802C422.151 26.4367 427.058 32.1735 433.502 33.4661V33.4661ZM385.809 83.7371C391.948 81.1346 395.25 76.6332 396.515 71.366H341.907L341.942 20.9148L329.701 20.9494V83.7371H385.809V83.7371ZM238.671 33.2963H281.908C288.426 31.4025 293.899 26.4367 295.233 20.9321H226.551V58.0367H282.765V71.0576L238.671 71.0922C231.761 73.0189 225.901 77.659 222.978 83.7873L226.551 83.7215H294.843V45.7003H238.671V33.2963V33.2963ZM131.935 33.4158H178.735C185.247 32.1181 190.086 26.3847 191.443 20.8281H119.228C120.576 26.3847 125.486 32.1181 131.935 33.4158V33.4158ZM131.935 58.2308H178.735C185.247 56.9469 190.086 51.2084 191.443 45.6483H119.228C120.576 51.2101 125.486 56.9469 131.935 58.2308ZM131.935 83.7301H178.735C185.247 82.4359 190.086 76.6991 191.443 71.1459H119.228C120.576 76.7008 125.486 82.4359 131.935 83.7301ZM10.1799 20.9806C11.5868 26.4679 16.3378 32.0765 22.856 33.4816H42.5562L43.5611 33.8784V83.5898H55.8629V33.8784L56.9805 33.4816H76.698C83.289 31.7837 87.9377 26.4679 89.3203 20.9806V20.8593H10.1799V20.9806" fill="black"/>
</svg>
