<svg width="506" height="73" viewBox="0 0 506 73" fill="none" xmlns="http://www.w3.org/2000/svg">
<g clip-path="url(#clip0_1998_5475)">
<path d="M316.605 63.4593C326.028 63.4593 328.942 56.9672 330.915 49.1472H326.493C320.375 49.1472 310.213 50.1886 310.213 58.372C310.213 61.7632 313.405 63.4593 316.605 63.4593ZM328.942 64.117H328.751C324.424 69.5767 320.095 72.6841 313.124 72.6841C304.375 72.6841 298.163 67.7874 298.163 58.8506C298.163 42.848 316.046 41.6217 327.905 41.6217H332.326C332.708 40.3003 332.708 38.889 332.708 37.4834C332.708 32.5867 327.436 31.1754 323.008 31.1754C317.458 31.1754 312.091 32.5867 307.104 34.9399L308.895 24.8674C314.255 22.9872 319.718 21.9506 325.366 21.9506C335.055 21.9506 344.19 25.5301 344.19 36.9148C344.19 43.4119 339.389 62.4219 338.256 71.5566H327.624L328.942 64.117" fill="black"/>
<path d="M1.97668 23.0365H11.1057L13.2697 13.0629L26.8259 8.63516L23.7193 23.0365H35.0116L33.0365 32.2612H21.7417L17.129 53.441C16.8475 54.5716 16.5662 56.2627 16.5662 58.1429C16.5662 61.0597 18.5428 62.8498 21.363 62.8498C23.6268 62.8498 25.8834 62.3809 27.4821 61.7224L25.3204 71.5116C23.1549 71.9795 20.7102 72.6431 18.5428 72.6431C9.97829 72.6431 3.95172 69.251 3.95172 59.928C3.95172 56.1669 4.70524 52.4976 5.55041 48.6423L9.12904 32.2612H0L1.97668 23.0365" fill="black"/>
<path d="M44.8052 2.1373H57.4186L54.7833 14.1905H42.169L44.8052 2.1373V2.1373ZM40.1923 23.0366H52.8068L42.4512 71.5117H29.8352L40.1923 23.0366" fill="black"/>
<path d="M90.8922 34.1421C88.4466 32.5417 85.1526 31.6974 81.6674 31.6974C71.5983 31.6974 65.9514 41.108 65.9514 50.2395C65.9514 56.5417 68.0188 62.8498 76.6806 62.8498C79.7888 62.8498 83.649 62.003 86.9405 60.401L85.5267 70.3842C81.6674 72.2644 77.5257 72.6431 73.3843 72.6431C60.8672 72.6431 52.7749 64.2651 52.7749 51.7448C52.7749 34.8048 63.9737 21.9098 81.3842 21.9098C86.0945 21.9098 90.6107 22.7575 93.9987 23.789L90.8922 34.1421" fill="black"/>
<path d="M104.725 0.920813H117.339L108.959 40.6393H109.153L126.754 23.0366H143.129L119.884 45.1563L134.468 71.5117H120.256L107.735 45.8156H107.55L102.09 71.5117H89.7603L104.725 0.920813" fill="black"/>
<path d="M188.594 23.0365H197.723L199.887 13.0629L213.443 8.63516L210.337 23.0365H221.633L219.653 32.2612H208.36L203.747 53.441C203.465 54.5716 203.186 56.2627 203.186 58.1429C203.186 61.0597 205.16 62.8498 207.985 62.8498C210.243 62.8498 212.501 62.3809 214.099 61.7224L211.939 71.5116C209.772 71.9795 207.325 72.6431 205.16 72.6431C196.595 72.6431 190.569 69.251 190.569 59.928C190.569 56.1669 191.322 52.4976 192.172 48.6423L195.745 32.2612H186.618L188.594 23.0365" fill="black"/>
<path d="M184.375 40.3552C184.375 28.0289 176.47 21.9098 164.517 21.9098C148.61 21.9098 136.935 36.4052 136.935 51.461C136.935 65.8621 146.349 72.6431 160.283 72.6431C165.457 72.6431 170.823 71.4176 175.718 69.9104L177.316 59.928C172.611 62.1011 167.619 63.4183 162.443 63.4183C154.377 63.4183 149.663 60.5499 149.059 52.9312H149.05C149.027 52.4894 148.984 52.0557 148.984 51.5919C148.984 51.5019 148.988 51.411 148.988 51.3218C148.988 51.2702 148.984 51.2319 148.984 51.1804H148.993C149.05 47.8627 149.778 44.5892 151.045 41.5637C153.469 35.3963 156.892 31.1346 164.328 31.1346C169.595 31.1346 172.329 34.0472 172.329 39.2277C172.329 40.3552 172.232 41.3918 172.047 42.5192H154.787C153.667 46.3295 153.473 48.8813 153.451 51.1804H183.15C183.903 47.6009 184.375 44.0256 184.375 40.3552" fill="black"/>
<path d="M227.074 28.4029C227.447 26.5218 227.826 24.5475 228.107 23.0366H239.876L238.745 29.5301H238.933C242.322 24.5475 247.873 21.9099 253.802 21.9099C259.545 21.9099 265.475 25.2963 266.134 31.1347H266.323C269.525 24.8265 276.586 21.9099 283.357 21.9099C290.602 21.9099 296.821 27.8382 296.821 35.1788C296.821 39.5068 295.683 44.4035 294.653 48.3538L289.57 71.5117H276.955L282.04 47.8848C282.7 44.9674 283.64 40.4454 283.64 37.5328C283.64 33.9533 280.913 31.6975 277.713 31.6975C268.956 31.6975 266.792 41.8656 265.19 48.4526L260.205 71.5117H247.592L252.675 47.8848C253.337 44.9674 254.275 40.4454 254.275 37.5328C254.275 33.9533 251.542 31.6975 248.342 31.6975C239.779 31.6975 237.425 41.9557 235.827 48.4526L230.836 71.5117H218.227L227.074 28.4029" fill="black"/>
<path d="M381.65 32.9068C380.297 32.167 376.816 31.1346 373.241 31.1346C369.473 31.1346 364.769 32.167 364.769 36.0223C364.769 42.1445 381.145 44.4034 381.145 56.2627C381.145 68.8797 370.135 72.6431 359.315 72.6431C354.227 72.6431 349.142 71.8905 344.534 69.7215L347.267 59.6524C350.836 61.6241 354.418 63.4183 359.315 63.4183C363.541 63.4183 367.971 62.003 367.971 58.0528C367.971 50.2395 351.592 49.4809 351.592 37.3427C351.592 25.9589 362.605 21.9098 372.579 21.9098C377.195 21.9098 381.904 22.7575 384.384 23.4022L381.65 32.9068" fill="black"/>
<path d="M389.714 23.0365H398.844L401.007 13.0629L414.557 8.63516L411.453 23.0365H422.748L420.775 32.2612H409.473L404.861 53.441C404.583 54.5716 404.298 56.2627 404.298 58.1429C404.298 61.0597 406.279 62.8498 409.1 62.8498C411.358 62.8498 413.618 62.3809 415.218 61.7224L413.051 71.5116C410.885 71.9795 408.443 72.6431 406.279 72.6431C397.711 72.6431 391.687 69.251 391.687 59.928C391.687 56.1669 392.445 52.4976 393.289 48.6423L396.864 32.2612H387.732L389.714 23.0365" fill="black"/>
<path d="M475.224 29.5301C475.596 27.4635 475.976 25.2963 476.355 23.0366H488.402L486.706 32.1671H486.896C489.16 26.8965 495.364 21.9099 501.202 21.9099C502.804 21.9099 504.494 21.9998 506 22.3779L503.367 34.7058C501.958 34.2362 500.161 33.9533 498.565 33.9533C489.619 33.9533 485.292 41.9557 483.696 49.769L479.176 71.5117H466.565L475.224 29.5301" fill="black"/>
<path d="M466.471 40.3552C466.471 28.0289 458.564 21.9098 446.611 21.9098C430.707 21.9098 419.03 36.4052 419.03 51.461C419.03 65.8621 428.443 72.6431 442.375 72.6431C447.547 72.6431 452.917 71.4176 457.814 69.9104L459.41 59.928C454.704 62.1011 449.717 63.4183 444.539 63.4183C436.469 63.4183 431.759 60.5499 431.149 52.9312H431.141C431.122 52.4894 431.078 52.0557 431.078 51.5919C431.078 51.5019 431.084 51.411 431.084 51.3218C431.084 51.2702 431.078 51.2319 431.078 51.1804H431.084C431.141 47.8627 431.87 44.5892 433.137 41.5637C435.558 35.3963 438.984 31.1346 446.42 31.1346C451.69 31.1346 454.423 34.0472 454.423 39.2277C454.423 40.3552 454.325 41.3918 454.142 42.5192H436.884C435.757 46.3295 435.566 48.8813 435.539 51.1804H465.245C465.999 47.6009 466.471 44.0256 466.471 40.3552" fill="black"/>
</g>
<defs>
<clipPath id="clip0_1998_5475">
<rect width="506" height="71.7634" fill="white" transform="translate(0 0.92041)"/>
</clipPath>
</defs>
</svg>
