<svg width="90" height="16" viewBox="0 0 90 16" fill="none" xmlns="http://www.w3.org/2000/svg">
<path fill-rule="evenodd" clip-rule="evenodd" d="M8.33407 0L10.9083 5.21826L16.6681 6.05691L12.4982 10.1162L13.4824 15.8528L8.33407 13.1447L3.1857 15.8528L4.16995 10.1162L0 6.05691L5.75989 5.21826L8.33407 0Z" fill="#E2D57A"/>
<path fill-rule="evenodd" clip-rule="evenodd" d="M26.4474 0L29.0215 5.21826L34.7814 6.05691L30.6115 10.1162L31.5957 15.8528L26.4474 13.1447L21.299 15.8528L22.2832 10.1162L18.1133 6.05691L23.8732 5.21826L26.4474 0Z" fill="#E2D57A"/>
<path fill-rule="evenodd" clip-rule="evenodd" d="M44.4356 0L47.0098 5.21826L52.7697 6.05691L48.6056 10.1162L49.5898 15.8528L44.4356 13.1447L39.2873 15.8528L40.2715 10.1162L36.1016 6.05691L41.8614 5.21826L44.4356 0Z" fill="#E2D57A"/>
<path fill-rule="evenodd" clip-rule="evenodd" d="M62.5489 0L65.1231 5.21826L70.883 6.05691L66.7189 10.1162L67.7031 15.8528L62.5489 13.1447L57.4005 15.8528L58.3848 10.1162L54.2148 6.05691L59.9747 5.21826L62.5489 0Z" fill="#E2D57A"/>
<path fill-rule="evenodd" clip-rule="evenodd" d="M81.1349 0L83.709 5.21826L89.4689 6.05691L85.3048 10.1162L86.289 15.8528L81.1349 13.1447L75.9865 15.8528L76.9707 10.1162L72.8008 6.05691L78.5607 5.21826L81.1349 0Z" fill="#E2D57A"/>
</svg>
