<svg width="618" height="820" viewBox="0 0 618 820" fill="none" xmlns="http://www.w3.org/2000/svg">
<mask id="mask0" mask-type="alpha" maskUnits="userSpaceOnUse" x="0" y="0" width="618" height="820">
<rect width="618" height="820" fill="#2F5C68"/>
</mask>
<g mask="url(#mask0)">
<path fill-rule="evenodd" clip-rule="evenodd" d="M522.67 586.41C518.879 586.41 515.805 583.336 515.805 579.545L515.805 279.354C515.805 275.563 518.879 272.489 522.67 272.489C526.462 272.489 529.535 275.563 529.535 279.354L529.535 579.545C529.535 583.336 526.462 586.41 522.67 586.41Z" fill="url(#paint0_linear)"/>
<path fill-rule="evenodd" clip-rule="evenodd" d="M522.67 198.921C518.879 198.921 515.805 195.848 515.805 192.056L515.805 51.8653C515.805 48.0738 518.879 45.0001 522.67 45.0001C526.462 45.0001 529.535 48.0738 529.535 51.8653L529.535 192.056C529.535 195.848 526.462 198.921 522.67 198.921Z" fill="url(#paint1_linear)"/>
<path fill-rule="evenodd" clip-rule="evenodd" d="M462.024 314.289C458.232 314.289 455.159 311.215 455.159 307.423L455.158 149.663C455.158 145.871 458.232 142.797 462.024 142.797C465.815 142.797 468.889 145.871 468.889 149.663L468.889 307.423C468.889 311.215 465.815 314.289 462.024 314.289Z" fill="url(#paint2_linear)"/>
<path fill-rule="evenodd" clip-rule="evenodd" d="M523 708.588C519.208 708.588 516.135 705.515 516.135 701.723L516.135 629.224C516.135 625.432 519.208 622.359 523 622.359C526.792 622.359 529.865 625.432 529.865 629.224L529.865 701.723C529.865 705.515 526.792 708.588 523 708.588Z" fill="#19B99A"/>
<path fill-rule="evenodd" clip-rule="evenodd" d="M281.249 31C285.04 31 288.114 34.0737 288.114 37.8652L288.114 98.0561C288.114 101.848 285.04 104.921 281.249 104.921C277.457 104.921 274.384 101.848 274.384 98.0561L274.384 37.8652C274.384 34.0737 277.457 31 281.249 31Z" fill="url(#paint3_linear)"/>
<path fill-rule="evenodd" clip-rule="evenodd" d="M341.896 47.2964C345.688 47.2964 348.761 50.37 348.761 54.1616L348.761 931.922C348.761 935.714 345.688 938.787 341.896 938.787C338.105 938.787 335.031 935.714 335.031 931.922L335.031 54.1616C335.031 50.37 338.105 47.2964 341.896 47.2964Z" fill="url(#paint4_linear)"/>
<path fill-rule="evenodd" clip-rule="evenodd" d="M280.921 477.14C284.712 477.14 287.786 480.213 287.786 484.005L287.786 931.921C287.786 935.713 284.712 938.786 280.921 938.786C277.129 938.786 274.055 935.713 274.055 931.921L274.055 484.005C274.055 480.213 277.129 477.14 280.921 477.14Z" fill="url(#paint5_linear)"/>
<path fill-rule="evenodd" clip-rule="evenodd" d="M407.733 529.359C409.035 530.661 409.759 532.432 409.743 534.273L404.714 1118.39C404.682 1122.18 401.582 1125.23 397.79 1125.2C393.999 1125.16 390.952 1122.06 390.985 1118.27L395.989 537.033L276.397 417.444C275.11 416.157 274.387 414.41 274.387 412.59L274.387 134.131C274.387 130.34 277.46 127.266 281.252 127.266C285.043 127.266 288.117 130.34 288.117 134.131L288.117 409.746L407.733 529.359Z" fill="url(#paint6_linear)"/>
<path fill-rule="evenodd" clip-rule="evenodd" d="M219.543 105.98C223.334 105.98 226.408 109.054 226.408 112.846L226.408 225.331C226.408 229.122 223.334 232.196 219.543 232.196C215.751 232.196 212.678 229.122 212.678 225.331L212.678 112.846C212.678 109.054 215.751 105.98 219.543 105.98Z" fill="url(#paint7_linear)"/>
<path fill-rule="evenodd" clip-rule="evenodd" d="M219.943 189.467C223.735 189.467 226.809 192.541 226.809 196.332L226.808 931.923C226.808 935.714 223.735 938.788 219.943 938.788C216.152 938.788 213.078 935.714 213.078 931.923L213.078 196.332C213.078 192.541 216.152 189.467 219.943 189.467Z" fill="url(#paint8_linear)"/>
<path fill-rule="evenodd" clip-rule="evenodd" d="M283.553 263.674C286.234 266.355 286.234 270.702 283.553 273.383L165.829 391.107L165.829 931.922C165.829 935.714 162.755 938.787 158.963 938.787C155.172 938.787 152.098 935.713 152.098 931.922L152.098 388.263C152.098 386.443 152.822 384.697 154.109 383.409L273.844 263.674C276.525 260.993 280.872 260.993 283.553 263.674Z" fill="url(#paint9_linear)"/>
<path fill-rule="evenodd" clip-rule="evenodd" d="M97.9876 611.535C101.779 611.535 104.853 614.609 104.853 618.4L104.853 931.923C104.853 935.715 101.779 938.789 97.9875 938.789C94.196 938.789 91.1223 935.715 91.1223 931.923L91.1224 618.4C91.1224 614.609 94.196 611.535 97.9876 611.535Z" fill="#19B99A"/>
<path fill-rule="evenodd" clip-rule="evenodd" d="M98.0427 351.038C101.834 351.038 104.908 354.112 104.908 357.903L104.908 412.728C104.908 416.519 101.834 419.593 98.0427 419.593C94.2512 419.593 91.1775 416.519 91.1775 412.728L91.1775 357.903C91.1775 354.112 94.2512 351.038 98.0427 351.038Z" fill="url(#paint10_linear)"/>
<path fill-rule="evenodd" clip-rule="evenodd" d="M97.9868 440.487C101.778 440.487 104.852 443.56 104.852 447.352L104.852 559.837C104.852 563.629 101.778 566.702 97.9868 566.702C94.1953 566.702 91.1216 563.629 91.1216 559.837L91.1216 447.352C91.1216 443.56 94.1953 440.487 97.9868 440.487Z" fill="url(#paint11_linear)"/>
</g>
<path opacity="0.7" d="M384.713 379.988C384.713 379.988 398.5 353.493 400 353.493C400.657 353.493 402.792 352.632 403 353.493C401.5 354.5 401.5 357.485 401.5 357.485L425.713 395.488L433.713 396.988L444 401.993C444 401.993 444 397.493 443.5 392.493C443 387.493 451.669 363.262 463.713 359.988C464.726 359.713 463 355.5 462 353.5C462.061 353.23 464.312 354.542 464.5 354.492C469.455 353.192 479.713 379.988 479.713 379.988V520.988H384.713V379.988Z" fill="url(#paint12_linear)"/>
<path fill-rule="evenodd" clip-rule="evenodd" d="M403.501 353.403C395.614 357.118 392.451 366.187 392.451 380.051C392.451 393.662 395.609 402.786 403.501 406.769L402.616 410.172C390.495 405.922 385 396.475 385 380.106C385 363.611 390.495 354.159 402.616 350L403.501 353.403ZM408.383 363.647C413.061 368.287 416.56 373.979 418.589 380.247H418.574C419.686 383.822 422.958 391.388 430.625 393.702C422.499 367.357 408.383 363.647 408.383 363.647ZM436.159 397.017C436.108 397.235 436.072 397.394 436.055 397.488L436.07 397.473C436.75 398.623 438.734 400.71 444.156 401.844L443.46 405.156C437.176 403.84 434.431 401.294 433.234 399.404C431.913 399.379 414.085 398.441 409.253 384.532C407.645 379.116 406.667 374.812 405.833 371.141L405.833 371.141L405.833 371.141C404.598 365.708 403.678 361.663 401.5 357.451C401.5 357.451 420.203 359.382 432.611 373.134C439.466 382.708 436.78 394.33 436.159 397.017ZM434.125 367.697L434.119 367.69V367.7L434.125 367.697ZM434.125 367.697C440.296 374.907 442.815 384.551 440.957 393.859C450.651 389.992 454.412 383.509 455.556 377.026C455.556 377.026 458.861 364.741 463.998 359.634C461.175 360.077 459.057 360.089 457.069 360.1C451.91 360.129 447.621 360.152 434.125 367.697ZM479.522 380.101C479.522 363.611 474.04 354.154 461.908 350L460.96 353.383C468.852 357.098 472.011 366.157 472.011 380.02C472.011 393.632 468.857 402.771 460.96 406.739L461.906 410.136C474.027 405.922 479.522 396.485 479.522 380.101Z" fill="url(#paint13_linear)"/>
<defs>
<linearGradient id="paint0_linear" x1="528.777" y1="437.598" x2="591.17" y2="395.796" gradientUnits="userSpaceOnUse">
<stop stop-color="#15CEAA"/>
<stop offset="1" stop-color="#19B99A"/>
</linearGradient>
<linearGradient id="paint1_linear" x1="523" y1="199" x2="523" y2="60.5" gradientUnits="userSpaceOnUse">
<stop stop-color="#15CEAA"/>
<stop offset="1" stop-color="#19B99A" stop-opacity="0"/>
</linearGradient>
<linearGradient id="paint2_linear" x1="462.63" y1="148.306" x2="378.951" y2="241.023" gradientUnits="userSpaceOnUse">
<stop stop-color="#0BDDB4" stop-opacity="0"/>
<stop offset="0.942708" stop-color="#19B99A"/>
</linearGradient>
<linearGradient id="paint3_linear" x1="281" y1="-37" x2="281" y2="80.5" gradientUnits="userSpaceOnUse">
<stop stop-color="#15CEAA"/>
<stop offset="1" stop-color="#19B99A" stop-opacity="0"/>
</linearGradient>
<linearGradient id="paint4_linear" x1="341.29" y1="910.151" x2="519.598" y2="872.147" gradientUnits="userSpaceOnUse">
<stop stop-color="#0BDDB4" stop-opacity="0"/>
<stop offset="0.942708" stop-color="#19B99A"/>
</linearGradient>
<linearGradient id="paint5_linear" x1="280.314" y1="923.958" x2="439.718" y2="858.348" gradientUnits="userSpaceOnUse">
<stop stop-color="#0BDDB4" stop-opacity="0"/>
<stop offset="0.942708" stop-color="#19B99A"/>
</linearGradient>
<linearGradient id="paint6_linear" x1="275.145" y1="304.959" x2="118.486" y2="694.336" gradientUnits="userSpaceOnUse">
<stop stop-color="#15CEAA"/>
<stop offset="1" stop-color="#19B99A"/>
</linearGradient>
<linearGradient id="paint7_linear" x1="222.687" y1="31.204" x2="155.635" y2="121.275" gradientUnits="userSpaceOnUse">
<stop stop-color="#0BDCB3"/>
<stop offset="1" stop-color="#19B99A"/>
</linearGradient>
<linearGradient id="paint8_linear" x1="239.105" y1="221.56" x2="135.64" y2="238.647" gradientUnits="userSpaceOnUse">
<stop stop-color="#15CEAA"/>
<stop offset="1" stop-color="#19B99A"/>
</linearGradient>
<linearGradient id="paint9_linear" x1="175.267" y1="301.872" x2="-73.8179" y2="518.6" gradientUnits="userSpaceOnUse">
<stop stop-color="#15CEAA" stop-opacity="0"/>
<stop offset="0.802083" stop-color="#19B99A"/>
</linearGradient>
<linearGradient id="paint10_linear" x1="128.933" y1="265.832" x2="50.4166" y2="307.231" gradientUnits="userSpaceOnUse">
<stop stop-color="#15CEAA"/>
<stop offset="1" stop-color="#19B99A"/>
</linearGradient>
<linearGradient id="paint11_linear" x1="101.131" y1="365.71" x2="34.0792" y2="455.782" gradientUnits="userSpaceOnUse">
<stop stop-color="#0BDCB3"/>
<stop offset="1" stop-color="#19B99A"/>
</linearGradient>
<linearGradient id="paint12_linear" x1="432.213" y1="355" x2="432.213" y2="492" gradientUnits="userSpaceOnUse">
<stop stop-color="#65E4CC" stop-opacity="0.29"/>
<stop offset="0.602753" stop-color="#19B99A" stop-opacity="0.12"/>
<stop offset="0.944712" stop-color="#19B99A" stop-opacity="0"/>
</linearGradient>
<linearGradient id="paint13_linear" x1="435.589" y1="349.726" x2="390.128" y2="466.243" gradientUnits="userSpaceOnUse">
<stop offset="0.130208" stop-color="#15CEAA"/>
<stop offset="1" stop-color="#15CEAA"/>
</linearGradient>
</defs>
</svg>
