<?xml version="1.0" encoding="UTF-8"?>
<svg width="100px" height="115px" viewBox="0 0 100 115" version="1.1" xmlns="http://www.w3.org/2000/svg" xmlns:xlink="http://www.w3.org/1999/xlink">
    <!-- Generator: Sketch 58 (84663) - https://sketch.com -->
    <title>cf-pattern</title>
    <desc>Created with Sketch.</desc>
    <g id="Pages" stroke="none" stroke-width="1" fill="none" fill-rule="evenodd">
        <g id="Artboard" fill="#29474D" fill-rule="nonzero">
            <g id="cf-pattern">
                <path d="M32.61,114.24 L32.61,114.63 L30.61,114.63 L30.61,114.24 C30.61,113.687715 31.0577153,113.24 31.61,113.24 C32.1622847,113.24 32.61,113.687715 32.61,114.24 Z" id="Path"></path>
                <path d="M89,79.18 L89,95.49 L99.6,110.49 C99.7268963,110.437687 99.8627447,110.410518 100,110.41 L100,114.6 L99,114.6 L99,113.1 L87.18,96.39 C87.0613267,96.2200003 86.9984253,96.0173181 87,95.81 L87,78.81 C86.9999817,78.5716555 87.0850944,78.3411418 87.24,78.16 L99,64.44 L99,41.51 L71,74.18 L71,80.81 C71,81.3622847 70.5522847,81.81 70,81.81 C69.4477153,81.81 69,81.3622847 69,80.81 L69,73.81 C69,73.5716555 69.0850944,73.3411418 69.24,73.16 L99,38.44 L99,0 L100,0 L100,66.35 L89,79.18 Z" id="Path"></path>
                <path d="M83,114.63 L80.56,114.63 L69.18,98.38 C69.0595786,98.2146463 68.9963821,98.0145241 69,97.81 L69,91.81 C69,91.2577153 69.4477153,90.81 70,90.81 C70.5522847,90.81 71,91.2577153 71,91.81 L71,97.5 L83,114.63 Z" id="Path"></path>
                <path d="M33.54,88.61 C34.0922847,88.61 34.54,88.1622847 34.54,87.61 L34.54,70.83 C34.54,70.2777153 34.0922847,69.83 33.54,69.83 C32.9877153,69.83 32.54,70.2777153 32.54,70.83 L32.54,87.61 C32.54,88.1622847 32.9877153,88.61 33.54,88.61 Z" id="Path"></path>
                <path d="M43.51,6.81 C43.6042085,6.9046302 43.716415,6.97943452 43.84,7.03 C44.2143702,7.18405935 44.6446924,7.09720531 44.93,6.81 C45.0235387,6.71873362 45.0982811,6.61001747 45.15,6.49 C45.1978158,6.36908867 45.2215929,6.24001292 45.22,6.11 C45.2211502,5.97677573 45.1974099,5.84450834 45.15,5.72 C45.0425484,5.47970644 44.8502936,5.28745158 44.61,5.18 C44.2328531,5.02140327 43.7971369,5.1085465 43.51,5.4 C43.420049,5.49215037 43.3487431,5.60080698 43.3,5.72 C43.249617,5.84398634 43.2224981,5.97619111 43.22,6.11 C43.2211046,6.37233988 43.3252558,6.62373936 43.51,6.81 L43.51,6.81 Z" id="Path"></path>
                <path d="M63.93,55.21 L60.27,59.13 C59.8822764,59.5200375 59.8822764,60.1499625 60.27,60.54 C60.4569425,60.715032 60.7039123,60.8116723 60.96,60.8100213 C61.2356601,60.8117015 61.4997961,60.6995342 61.69,60.5 L65.35,56.58 C65.7377236,56.1899625 65.7377236,55.5600375 65.35,55.17 C65.1569505,54.9858766 64.8983334,54.8865232 64.631663,54.894035 C64.3649925,54.9015469 64.1123785,55.0153012 63.93,55.21 Z" id="Path"></path>
                <path d="M22.86,21.11 C23.4122847,21.11 23.86,20.6622847 23.86,20.11 L23.86,12.11 C23.86,11.5577153 23.4122847,11.11 22.86,11.11 C22.3077153,11.11 21.86,11.5577153 21.86,12.11 L21.86,20.11 C21.86,20.6622847 22.3077153,21.11 22.86,21.11 Z" id="Path"></path>
                <path d="M70,87.69 C70.5522847,87.69 71,87.2422847 71,86.69 L71,86.44 C71,85.8877153 70.5522847,85.44 70,85.44 C69.4477153,85.44 69,85.8877153 69,86.44 L69,86.69 C69,87.2422847 69.4477153,87.69 70,87.69 Z" id="Path"></path>
                <path d="M84.93,3.49 C85.0325215,3.19555789 84.991845,2.87014631 84.82,2.61 L83,0 L80.55,0 L83.05,3.57 C83.0403652,3.64970991 83.0403652,3.73029009 83.05,3.81 L83.05,20 L70,20 C69.5591715,15.7348211 66.3648886,12.2679052 62.15,11.48 L55.9,5.25 L55.9,0 L53.9,0 L53.9,5.66 C53.9011046,5.92233988 54.0052558,6.17373936 54.19,6.36 L59.19,11.42 C55.9313395,11.804977 53.0909211,13.8178225 51.6477738,16.7647534 C50.2046266,19.7116843 50.3561058,23.1896978 52.05,26 C51.9534068,26.0397988 51.8651955,26.0974754 51.79,26.17 L45.22,32.74 L45.22,15.11 C45.22,14.5577153 44.7722847,14.11 44.22,14.11 C43.6677153,14.11 43.22,14.5577153 43.22,15.11 L43.22,34.76 L32.61,45.37 L32.61,0 L30.61,0 L30.61,32.64 L23.86,39.39 L23.86,28.11 C23.86,27.5577153 23.4122847,27.11 22.86,27.11 C22.3077153,27.11 21.86,27.5577153 21.86,28.11 L21.86,41.39 L11.47,51.78 C11.2828135,51.9687188 11.1784632,52.224197 11.18,52.49 L11.18,95.29 L0.39,110.52 C0.266675905,110.467463 0.134047951,110.440258 0,110.44 L0,114.63 L1,114.63 L1,113.13 L13,96.19 C13.1222258,96.0211896 13.1886539,95.8184089 13.19,95.61 L13.19,52.91 L21.87,44.22 L21.87,111.61 C21.87,112.162285 22.3177153,112.61 22.87,112.61 C23.4222847,112.61 23.87,112.162285 23.87,111.61 L23.87,56.83 C23.9990496,56.7796143 24.1152122,56.7010337 24.21,56.6 L30.62,50.19 L30.62,57.19 C30.6211094,57.4572459 30.7291444,57.7129286 30.92,57.9 L43.22,70.17 L43.22,111.61 C43.22,112.162285 43.6677153,112.61 44.22,112.61 C44.7722847,112.61 45.22,112.162285 45.22,111.61 L45.22,72.17 L53.9,80.85 L53.9,114.63 L55.9,114.63 L55.9,80.44 C55.9015368,80.174197 55.7971865,79.9187188 55.61,79.73 L45.22,69.34 L45.22,35.58 L53.22,27.58 L53.22,27.58 C55.7940689,30.4107625 59.7951419,31.4576319 63.4257644,30.2503093 C67.0563868,29.0429867 69.6337535,25.8085313 70,22 L83,22 L83,35.4 L69.27,50.13 C68.8822764,50.5200375 68.8822764,51.1499625 69.27,51.54 C69.4569425,51.715032 69.7039123,51.8116723 69.96,51.81 C70.2371651,51.8091084 70.5015282,51.6932232 70.69,51.49 L84.69,36.49 C84.8626652,36.3055769 84.9591275,36.0626349 84.96,35.81 L84.96,3.81 C84.9697289,3.70239613 84.9595594,3.59392059 84.93,3.49 Z M30.61,47.37 L23.86,54.12 L23.86,42.22 L30.61,35.47 L30.61,47.37 Z M43.22,67.37 L32.61,56.74 L32.61,48.19 L43.22,37.58 L43.22,67.37 Z M62.64,27.37 C61.7621061,27.2770796 60.96197,26.8245139 60.43,26.12 C60.14,26.12 56.28,25.92 55.23,22.9 C54.36,19.99 54.34,18.56 53.55,17.03 C56.111763,17.3838423 58.4829742,18.5800023 60.29,20.43 C61.2421008,21.9956177 61.4993527,23.8869624 61,25.65 C61.4331213,26.1912095 62.0693327,26.5310043 62.76,26.59 L62.64,27.37 Z M65.27,21.27 C64.9721907,22.9804903 63.7519142,24.3855405 62.1,24.92 C62.5077747,22.9028872 61.9616094,20.8104834 60.62,19.25 C61.8153322,18.4717628 63.1497992,17.9318639 64.55,17.66 C65.39,17.54 66,17.66 67.1,17.5 C66.250468,18.6033609 65.6284439,19.8644043 65.27,21.21 L65.27,21.27 Z M1.11022302e-16,0 L1.11022302e-16,66.35 L0.76,65.46 C0.914905604,65.2788582 1.00001833,65.0483445 1,64.81 L1,0 L1.11022302e-16,0 Z" id="Shape"></path>
                <path d="M55,18.31 C56.0118377,19.3176778 56.7693687,20.5516649 57.21,21.91 L57.21,21.91 C57.5560149,23.2484503 58.5286076,24.3365618 59.82,24.83 C58.1,19.12 55,18.31 55,18.31 Z" id="Path"></path>
            </g>
        </g>
    </g>
</svg>