<svg width="473" height="121" viewBox="0 0 473 121" fill="none" xmlns="http://www.w3.org/2000/svg">
<path d="M70.457 23.0001C70.471 23 70.485 23 70.4989 23H472.499C472.513 23 472.527 23 472.541 23.0001C470.999 17.2409 465.744 13 459.499 13H83.4989C77.2535 13 71.9987 17.2409 70.457 23.0001Z" fill="#73FFCD"/>
<path fill-rule="evenodd" clip-rule="evenodd" d="M44.5312 49.1953C44.5312 46.71 46.546 44.6953 49.0312 44.6953H158.347C160.833 44.6953 162.847 46.71 162.847 49.1953C162.847 51.6806 160.833 53.6953 158.347 53.6953H49.0312C46.546 53.6953 44.5312 51.6806 44.5312 49.1953Z" fill="#73FFCD"/>
<path fill-rule="evenodd" clip-rule="evenodd" d="M319.756 1.7243C320.6 0.880369 321.745 0.40625 322.938 0.40625H467.765C470.25 0.40625 472.265 2.42097 472.265 4.90625C472.265 7.39153 470.25 9.40625 467.765 9.40625H324.802L281.83 52.3791C280.986 53.2231 279.842 53.6972 278.648 53.6972H177.246C174.761 53.6972 172.746 51.6825 172.746 49.1972C172.746 46.7119 174.761 44.6972 177.246 44.6972H276.784L319.756 1.7243Z" fill="#73FFCD"/>
<path fill-rule="evenodd" clip-rule="evenodd" d="M143.625 27.1113C143.625 24.626 145.64 22.6113 148.125 22.6113H467.766C470.251 22.6113 472.266 24.626 472.266 27.1113C472.266 29.5966 470.251 31.6113 467.766 31.6113H148.125C145.64 31.6113 143.625 29.5966 143.625 27.1113Z" fill="#19B99A"/>
<path fill-rule="evenodd" clip-rule="evenodd" d="M300.152 49.3164C300.152 46.8311 302.167 44.8164 304.652 44.8164H467.763C470.249 44.8164 472.263 46.8311 472.263 49.3164C472.263 51.8017 470.249 53.8164 467.763 53.8164H304.652C302.167 53.8164 300.152 51.8017 300.152 49.3164Z" fill="#19B99A"/>
<path fill-rule="evenodd" clip-rule="evenodd" d="M195.395 71.5215C195.395 69.0362 197.409 67.0215 199.895 67.0215H467.764C470.249 67.0215 472.264 69.0362 472.264 71.5215C472.264 74.0068 470.249 76.0215 467.764 76.0215H199.895C197.409 76.0215 195.395 74.0068 195.395 71.5215Z" fill="#19B99A"/>
<path fill-rule="evenodd" clip-rule="evenodd" d="M223.002 46.943C224.759 45.1857 227.608 45.1857 229.366 46.943L271.65 89.227H467.762C470.247 89.227 472.262 91.2417 472.262 93.727C472.262 96.2123 470.247 98.227 467.762 98.227H269.786C268.592 98.227 267.448 97.7529 266.604 96.909L223.002 53.307C221.244 51.5496 221.244 48.7004 223.002 46.943Z" fill="#73FFCD"/>
<path fill-rule="evenodd" clip-rule="evenodd" d="M349.094 115.932C349.094 113.446 351.108 111.432 353.594 111.432H467.765C470.25 111.432 472.265 113.446 472.265 115.932C472.265 118.417 470.25 120.432 467.765 120.432H353.594C351.108 120.432 349.094 118.417 349.094 115.932Z" fill="#19B99A"/>
<path fill-rule="evenodd" clip-rule="evenodd" d="M286.805 115.934C286.805 113.448 288.819 111.434 291.305 111.434H332.267C334.752 111.434 336.767 113.448 336.767 115.934C336.767 118.419 334.752 120.434 332.267 120.434H291.305C288.819 120.434 286.805 118.419 286.805 115.934Z" fill="#19B99A"/>
<path fill-rule="evenodd" clip-rule="evenodd" d="M0.0351562 49.3145C0.0351562 46.8292 2.04987 44.8145 4.53516 44.8145H30.9362C33.4214 44.8145 35.4362 46.8292 35.4362 49.3145C35.4362 51.7997 33.4214 53.8145 30.9362 53.8145H4.53516C2.04987 53.8145 0.0351562 51.7997 0.0351562 49.3145Z" fill="#73FFCD"/>
</svg>
