<?xml version="1.0" encoding="UTF-8"?>
<svg width="558px" height="289px" viewBox="0 0 558 289" version="1.1" xmlns="http://www.w3.org/2000/svg" xmlns:xlink="http://www.w3.org/1999/xlink">
    <!-- Generator: Sketch 59.1 (86144) - https://sketch.com -->
    <title>circuit-1</title>
    <desc>Created with Sketch.</desc>
    <g id="Pages" stroke="none" stroke-width="1" fill="none" fill-rule="evenodd" stroke-linecap="round" stroke-linejoin="round">
        <g id="homw-copy-13" transform="translate(0.000000, -1478.000000)" stroke="#41C6AD" stroke-width="3.868952">
            <g id="circuit-1" transform="translate(267.000000, 1623.000000) scale(-1, -1) rotate(-180.000000) translate(-267.000000, -1623.000000) translate(-22.000000, 1480.000000)">
                <g id="illustration">
                    <line x1="577.744101" y1="40.9137957" x2="317.254685" y2="40.9137957" id="Path"></line>
                    <polyline id="Path" points="577.744101 71.3432342 414.185851 71.3432342 342.437106 0.00822194956"></polyline>
                    <line x1="577.744101" y1="101.771302" x2="497.316373" y2="101.771302" id="Path"></line>
                    <line x1="151.280323" y1="192.892439" x2="0.613057588" y2="192.892439" id="Path"></line>
                    <polyline id="Path" points="577.744101 132.199371 378.132992 132.199371 317.089292 192.892439 177.329678 192.892439"></polyline>
                    <line x1="577.744101" y1="162.628809" x2="137.191618" y2="162.628809" id="Path"></line>
                    <line x1="577.744101" y1="193.056878" x2="352.932653" y2="193.056878" id="Path"></line>
                    <line x1="577.744101" y1="223.484946" x2="208.547556" y2="223.484946" id="Path"></line>
                    <polyline id="Path" points="577.744101 253.914384 304.879174 253.914384 244.783725 194.16547"></polyline>
                    <line x1="577.744101" y1="284.342453" x2="420.385322" y2="284.342453" id="Path"></line>
                    <line x1="390.992277" y1="284.342453" x2="334.535469" y2="284.342453" id="Path"></line>
                </g>
            </g>
        </g>
    </g>
</svg>