<svg id="be27b83e-5db7-458d-b789-edc38d87ec33" data-name="Layer 1" xmlns="http://www.w3.org/2000/svg" height="64.848" width="82.32" viewBox="0 0 82.32 64.848"><title>docker-member-logo</title><circle cx="40.992" cy="26.208" r="26.208" fill="#fff"/><path d="M28.353,31.791a.58.58,0,0,0-.6.6v2.87a3.222,3.222,0,1,0,.259,4.79,3.077,3.077,0,0,0,.943-2.277V32.389a.57.57,0,0,0-.175-.428A.6.6,0,0,0,28.353,31.791Zm-.757,6.76a2.061,2.061,0,0,1-.431.641,2.036,2.036,0,0,1-.642.437,1.932,1.932,0,0,1-.788.161,1.955,1.955,0,0,1-.795-.161A2.032,2.032,0,0,1,24.3,39.2a2.055,2.055,0,0,1-.429-.641,2.014,2.014,0,0,1,0-1.564,2.021,2.021,0,0,1,1.067-1.076,1.972,1.972,0,0,1,.795-.161,1.949,1.949,0,0,1,.788.161A2.041,2.041,0,0,1,27.6,36.993a1.988,1.988,0,0,1,0,1.558Z" fill="#066da5" fill-rule="evenodd"/><path d="M35.038,35.495a3.22,3.22,0,1,0,0,4.554,3.078,3.078,0,0,0,.944-2.277,3.323,3.323,0,0,0-.239-1.237A3.146,3.146,0,0,0,35.038,35.495Zm-.417,3.056a2.081,2.081,0,0,1-.432.641,2.043,2.043,0,0,1-.641.437,2.026,2.026,0,0,1-1.583,0,2.025,2.025,0,0,1-.639-.434,2.072,2.072,0,0,1-.429-.641,2.014,2.014,0,0,1,0-1.564,2.018,2.018,0,0,1,1.068-1.076,2.026,2.026,0,0,1,1.583,0,2.059,2.059,0,0,1,.641.437,2.085,2.085,0,0,1,.432.642,2,2,0,0,1,0,1.558Z" fill="#066da5" fill-rule="evenodd"/><path d="M48.223,35.149a.56.56,0,0,0-.048-.229.676.676,0,0,0-.13-.193.569.569,0,0,0-.19-.13.616.616,0,0,0-.236-.045.587.587,0,0,0-.322.091L43.856,36.88V32.4a.6.6,0,1,0-1.2,0v7.993a.586.586,0,0,0,.175.426.578.578,0,0,0,.429.178.571.571,0,0,0,.423-.178.587.587,0,0,0,.176-.426V38.312l.7-.46,2.658,2.985a.561.561,0,0,0,.4.155.6.6,0,0,0,.236-.046.582.582,0,0,0,.19-.129.676.676,0,0,0,.13-.193.568.568,0,0,0,.048-.23.606.606,0,0,0-.167-.42l-2.474-2.783,2.411-1.564a.538.538,0,0,0,.23-.478" fill="#066da5" fill-rule="evenodd"/><path d="M38.339,36.343a2.055,2.055,0,0,1,.645-.431,1.964,1.964,0,0,1,.788-.159,1.913,1.913,0,0,1,.7.127,2.183,2.183,0,0,1,.615.374.615.615,0,0,0,.392.138.576.576,0,0,0,.429-.173.591.591,0,0,0,.17-.431.584.584,0,0,0-.208-.455,3.069,3.069,0,0,0-2.1-.781,3.22,3.22,0,1,0,2.1,5.658.606.606,0,0,0,.19-.443.58.58,0,0,0-.6-.6.642.642,0,0,0-.38.127,2.108,2.108,0,0,1-.61.371,1.954,1.954,0,0,1-.7.123,1.981,1.981,0,0,1-.788-.158,2.055,2.055,0,0,1-.645-.431,2,2,0,0,1-.434-.642,2.03,2.03,0,0,1,0-1.575,2,2,0,0,1,.434-.641" fill="#066da5" fill-rule="evenodd"/><path d="M60.444,34.954a1.146,1.146,0,0,0-.405-.245,2.409,2.409,0,0,0-.535-.123,4.639,4.639,0,0,0-.544-.034,3.156,3.156,0,0,0-1.082.183,3.284,3.284,0,0,0-.938.53v-.116a.6.6,0,0,0-1.2,0v5.245a.6.6,0,0,0,1.2,0V37.772a1.981,1.981,0,0,1,.158-.788,2.015,2.015,0,0,1,1.073-1.072,1.969,1.969,0,0,1,.789-.159,2.115,2.115,0,0,1,.788.144A.649.649,0,0,0,60,35.96a.6.6,0,0,0,.236-.046.552.552,0,0,0,.19-.129.662.662,0,0,0,.13-.193.576.576,0,0,0,.049-.236.532.532,0,0,0-.162-.4" fill="#066da5" fill-rule="evenodd"/><path d="M54.27,35.495a3.225,3.225,0,0,0-4.558,0A3.222,3.222,0,0,0,54.1,40.21a.6.6,0,0,0,.173-.431.581.581,0,0,0-.6-.6.636.636,0,0,0-.4.15,1.9,1.9,0,0,1-.587.345,2.109,2.109,0,0,1-1.338.012,2.066,2.066,0,0,1-.564-.291,2.017,2.017,0,0,1-.446-.448,1.956,1.956,0,0,1-.288-.578h4.558a.6.6,0,0,0,.429-.17.57.57,0,0,0,.175-.428,3.229,3.229,0,0,0-.236-1.24A3.125,3.125,0,0,0,54.27,35.495Zm-4.219,1.679a1.883,1.883,0,0,1,.282-.578,1.993,1.993,0,0,1,.449-.449,2.16,2.16,0,0,1,.57-.291,2.035,2.035,0,0,1,.639-.1,2.006,2.006,0,0,1,.635.1,2.094,2.094,0,0,1,.564.291,2.056,2.056,0,0,1,.449.449,1.905,1.905,0,0,1,.291.578Z" fill="#066da5" fill-rule="evenodd"/><polygon points="68.544 52.416 82.32 52.416 78.521 58.632 82.32 64.848 68.544 64.848 68.544 52.416" fill="#25b8ec" fill-rule="evenodd"/><polygon points="0 52.416 13.776 52.416 13.776 64.848 0 64.848 4.026 58.632 0 52.416" fill="#25b8ec" fill-rule="evenodd"/><polygon points="68.544 52.416 73.584 58.632 68.544 64.848 68.544 52.416" fill-rule="evenodd" opacity="0.3"/><polygon points="13.776 64.848 8.584 58.48 13.776 52.416 13.776 64.848" fill-rule="evenodd" opacity="0.3"/><rect x="8.584" y="46.032" width="65" height="12.432" fill="#25b8ec"/><path d="M30.528,54.384,29.488,51h-.027q.057,1.033.056,1.38v2.008H28.7V50.066h1.247l1.022,3.3h.017l1.084-3.3h1.246v4.318h-.853V52.34c0-.1,0-.207,0-.333s.016-.461.04-1h-.027l-1.113,3.381Z" fill="#fff"/><path d="M36.9,54.384H34.414V50.066H36.9v.75H35.329v.948h1.462v.75H35.329v1.114H36.9Z" fill="#fff"/><path d="M39.641,54.384,38.6,51h-.027q.057,1.033.056,1.38v2.008h-.818V50.066h1.246l1.022,3.3H40.1l1.084-3.3h1.246v4.318h-.854V52.34c0-.1,0-.207,0-.333s.016-.461.04-1h-.027L40.48,54.384Z" fill="#fff"/><path d="M43.528,50.066h1.344a2.581,2.581,0,0,1,1.333.262.908.908,0,0,1,.415.831,1.047,1.047,0,0,1-.182.635.726.726,0,0,1-.483.3v.03a.949.949,0,0,1,.593.342,1.117,1.117,0,0,1,.181.668,1.1,1.1,0,0,1-.426.921,1.851,1.851,0,0,1-1.16.331H43.528Zm.916,1.71h.531a.979.979,0,0,0,.539-.115.431.431,0,0,0,.167-.381.381.381,0,0,0-.182-.356,1.163,1.163,0,0,0-.574-.108h-.481Zm0,.727v1.125h.6a.887.887,0,0,0,.558-.145.534.534,0,0,0,.18-.443c0-.359-.256-.537-.767-.537Z" fill="#fff"/><path d="M50.09,54.384H47.6V50.066H50.09v.75H48.519v.948h1.462v.75H48.519v1.114H50.09Z" fill="#fff"/><path d="M51.918,52.727v1.657H51V50.066h1.258a2.149,2.149,0,0,1,1.3.321,1.278,1.278,0,0,1,.213,1.65,1.4,1.4,0,0,1-.594.466q.975,1.455,1.27,1.881H53.436l-1.03-1.657Zm0-.745h.3a1.13,1.13,0,0,0,.64-.144.515.515,0,0,0,.207-.454.474.474,0,0,0-.211-.438,1.278,1.278,0,0,0-.654-.13h-.278Z" fill="#fff"/><path d="M57.113,17.31a5.041,5.041,0,0,0-3.405-.279,4.135,4.135,0,0,0-1.77-3.067l-.409-.278-.272.418a4.833,4.833,0,0,0-.681,2.927,3.52,3.52,0,0,0,.681,1.812,4.409,4.409,0,0,1-2.587.7h-.48V16.455H44.65V9.808h-3v3.323h-7.08l.019,3.324h-3.56V19.54H29.2c-.346,2.091.247,10.037,9.259,10.037,6.691,0,12.189-3.06,14.706-9.479.829.014,3.015.151,4.085-1.952.026-.035.273-.557.273-.557Z" fill="#099cec" fill-rule="evenodd"/><path d="M36.392,25.8a7.617,7.617,0,0,0,4.418,3.432c-4.9,1.523-7.865-1.144-9.532-2.558A16.644,16.644,0,0,0,36.392,25.8Z" fill="#fff" fill-rule="evenodd"/><path d="M38.217,24.952a.969.969,0,1,0-.947-.969.958.958,0,0,0,.947.969" fill="#fff" fill-rule="evenodd"/><path d="M38.359,23.711a.275.275,0,0,1,.107-.216.533.533,0,0,0-.247-.063.554.554,0,1,0,.541.554l0-.032a.259.259,0,0,1-.126.035.275.275,0,0,1-.272-.278" fill="#4d5c64" fill-rule="evenodd"/><path d="M32.37,26.281a7.26,7.26,0,0,1-1.6-.213,10,10,0,0,1-1.6-6.3h.767c.258,2.675.869,4.966,2.436,6.516" fill-rule="evenodd" opacity="0.06"/><path d="M57.034,17.261l0,0a4.38,4.38,0,0,0-1.978-.393,5.183,5.183,0,0,0-1.346.165c0-.025,0-.05,0-.075l-.076.022-.25.358C49.733,25,45.175,28.253,38.95,28.407h-.029A9.652,9.652,0,0,1,33,26.826c-.158.009-.318.014-.48.014a7.921,7.921,0,0,1-1.15-.084,13.249,13.249,0,0,0,3.414,2.28c.106.045.213.088.322.129a12.57,12.57,0,0,0,3.2.381q.762,0,1.5-.053c6.016-.429,10.905-3.485,13.259-9.412l.211,0a4.112,4.112,0,0,0,3.955-2.093l.207-.446Z" fill-rule="evenodd" opacity="0.06"/><path d="M32.522,26.84a7.921,7.921,0,0,1-1.15-.084l-.085-.014c-.095-.015-.19-.032-.284-.051l-.047-.054-.358-.613.167.044a7.26,7.26,0,0,0,1.6.213,6.171,6.171,0,0,0,.632.545c-.158.009-.318.014-.48.014" fill="#0269ad" fill-rule="evenodd"/><rect x="31.578" y="17.009" width="0.272" height="1.662" fill="#066da5"/><rect x="32.395" y="17.009" width="0.272" height="1.662" fill="#066da5"/><rect x="33.212" y="17.009" width="0.272" height="1.662" fill="#066da5"/><rect x="35.118" y="17.009" width="0.272" height="1.662" fill="#066da5"/><rect x="35.935" y="17.009" width="0.272" height="1.662" fill="#066da5"/><rect x="36.752" y="17.009" width="0.272" height="1.662" fill="#066da5"/><rect x="38.659" y="17.009" width="0.272" height="1.662" fill="#066da5"/><rect x="39.476" y="17.009" width="0.272" height="1.662" fill="#066da5"/><rect x="40.293" y="17.009" width="0.272" height="1.662" fill="#066da5"/><rect x="42.199" y="17.009" width="0.273" height="1.662" fill="#066da5"/><rect x="43.016" y="17.009" width="0.272" height="1.662" fill="#066da5"/><rect x="43.833" y="17.009" width="0.273" height="1.662" fill="#066da5"/><rect x="45.739" y="17.009" width="0.273" height="1.662" fill="#066da5"/><rect x="46.556" y="17.009" width="0.272" height="1.662" fill="#066da5"/><rect x="47.373" y="17.009" width="0.272" height="1.662" fill="#066da5"/><rect x="35.935" y="13.686" width="0.272" height="1.662" fill="#066da5"/><rect x="36.752" y="13.686" width="0.272" height="1.662" fill="#066da5"/><rect x="38.659" y="13.686" width="0.272" height="1.662" fill="#066da5"/><rect x="39.476" y="13.686" width="0.272" height="1.662" fill="#066da5"/><rect x="40.293" y="13.686" width="0.272" height="1.662" fill="#066da5"/><rect x="42.199" y="13.686" width="0.273" height="1.662" fill="#066da5"/><rect x="43.016" y="13.686" width="0.272" height="1.662" fill="#066da5"/><rect x="43.833" y="13.686" width="0.273" height="1.662" fill="#066da5"/><rect x="43.016" y="10.362" width="0.272" height="1.662" fill="#066da5"/><rect x="42.199" y="10.362" width="0.273" height="1.662" fill="#066da5"/><rect x="43.833" y="10.362" width="0.273" height="1.662" fill="#066da5"/><rect x="35.118" y="13.686" width="0.272" height="1.662" fill="#066da5"/><path d="M57.169,17.035a5.173,5.173,0,0,0-3.314-.389A4.517,4.517,0,0,0,52,13.7l-.643-.439-.424.65a5.121,5.121,0,0,0-.725,3.1,3.968,3.968,0,0,0,.562,1.716,4.494,4.494,0,0,1-2.037.489V15.9H45.194V9.255H41.11v3.323H34.029V15.9h-3.54v3.318H28.873l-.038.232a8.944,8.944,0,0,0,.032,2.537,10.18,10.18,0,0,0,1.119,3.448c1.51,2.757,4.255,4.377,8.376,4.377,7.014,0,12.387-3.293,14.888-9.476a5.445,5.445,0,0,0,2.09-.275,3.6,3.6,0,0,0,2.05-1.82c.026-.044.065-.123.147-.293l.092-.194.042-.088.1-.219Zm-11.975-.58h3v2.764h-3Zm-3.54-6.647h3v2.77h-3Zm0,3.323h3V15.9h-3Zm0,3.324h3v2.764h-3Zm-3.54-3.324h3V15.9h-3Zm0,3.324h3v2.764h-3Zm-3.54-3.324h3V15.9h-3Zm0,3.324h3v2.764h-3Zm-3.541,0h3v2.764h-3Zm26.011,1.256c-.034.069-.062.128-.084.173-.012.023-.022.043-.048.09a3.053,3.053,0,0,1-1.751,1.561,5.06,5.06,0,0,1-1.947.244l-.141,0-.188,0-.069.178c-2.383,6.075-7.585,9.3-14.454,9.3a8.849,8.849,0,0,1-6.711-2.467,7.834,7.834,0,0,0,.871.052A7.756,7.756,0,0,0,36.41,25.8c-.095-.161-.184-.321-.266-.488a7.05,7.05,0,0,1-5.062.809,8.046,8.046,0,0,1-.621-.96,9.616,9.616,0,0,1-1.055-3.256,8.993,8.993,0,0,1-.066-2.131h1.149v0H48.735v0a4.607,4.607,0,0,0,2.593-.752l.224-.176-.18-.223a3.221,3.221,0,0,1-.62-1.663,4.543,4.543,0,0,1,.637-2.744l.121-.186.174.119A3.853,3.853,0,0,1,53.341,17l.018.343.324-.089a4.835,4.835,0,0,1,3.183.242l.211.144Z" fill="#066da5" fill-rule="evenodd"/></svg>