<?xml version="1.0" encoding="UTF-8"?>
<svg width="198px" height="198px" viewBox="0 0 198 198" version="1.1" xmlns="http://www.w3.org/2000/svg" xmlns:xlink="http://www.w3.org/1999/xlink">
    <!-- Generator: Sketch 59.1 (86144) - https://sketch.com -->
    <title>el-dotted</title>
    <desc>Created with Sketch.</desc>
    <g id="Pages" stroke="none" stroke-width="1" fill="none" fill-rule="evenodd">
        <g id="Artboard-Copy-7" transform="translate(-1328.000000, -3490.000000)" fill="#4DBEA4">
            <g id="Ornament/Dotted/darkblue" transform="translate(1328.000000, 3490.000000)">
                <g id="Ornament/Dotted/white">
                    <path d="M5.5,2.75 C5.5,4.2686875 4.2686875,5.5 2.75,5.5 C1.2313125,5.5 0,4.2686875 0,2.75 C0,1.2313125 1.2313125,0 2.75,0 C4.2686875,0 5.5,1.2313125 5.5,2.75" id="Fill-1"></path>
                    <path d="M33,2.75 C33,4.2686875 31.7686875,5.5 30.25,5.5 C28.7313125,5.5 27.5,4.2686875 27.5,2.75 C27.5,1.2313125 28.7313125,0 30.25,0 C31.7686875,0 33,1.2313125 33,2.75" id="Fill-3"></path>
                    <path d="M60.5,2.75 C60.5,4.2686875 59.2686875,5.5 57.75,5.5 C56.2313125,5.5 55,4.2686875 55,2.75 C55,1.2313125 56.2313125,0 57.75,0 C59.2686875,0 60.5,1.2313125 60.5,2.75" id="Fill-5"></path>
                    <path d="M88,2.75 C88,4.2686875 86.7686875,5.5 85.25,5.5 C83.7313125,5.5 82.5,4.2686875 82.5,2.75 C82.5,1.2313125 83.7313125,0 85.25,0 C86.7686875,0 88,1.2313125 88,2.75" id="Fill-7"></path>
                    <path d="M115.5,2.75 C115.5,4.2686875 114.268688,5.5 112.75,5.5 C111.231313,5.5 110,4.2686875 110,2.75 C110,1.2313125 111.231313,0 112.75,0 C114.268688,0 115.5,1.2313125 115.5,2.75" id="Fill-9"></path>
                    <path d="M143,2.75 C143,4.2686875 141.768687,5.5 140.25,5.5 C138.731313,5.5 137.5,4.2686875 137.5,2.75 C137.5,1.2313125 138.731313,0 140.25,0 C141.768687,0 143,1.2313125 143,2.75" id="Fill-11"></path>
                    <path d="M170.5,2.75 C170.5,4.2686875 169.268687,5.5 167.75,5.5 C166.231312,5.5 165,4.2686875 165,2.75 C165,1.2313125 166.231312,0 167.75,0 C169.268687,0 170.5,1.2313125 170.5,2.75" id="Fill-13"></path>
                    <path d="M198,2.75 C198,4.2686875 196.768687,5.5 195.25,5.5 C193.731313,5.5 192.5,4.2686875 192.5,2.75 C192.5,1.2313125 193.731313,0 195.25,0 C196.768687,0 198,1.2313125 198,2.75" id="Fill-15"></path>
                    <path d="M5.5,30.25 C5.5,31.7686875 4.2686875,33 2.75,33 C1.2313125,33 0,31.7686875 0,30.25 C0,28.7313125 1.2313125,27.5 2.75,27.5 C4.2686875,27.5 5.5,28.7313125 5.5,30.25" id="Fill-17"></path>
                    <path d="M33,30.25 C33,31.7686875 31.7686875,33 30.25,33 C28.7313125,33 27.5,31.7686875 27.5,30.25 C27.5,28.7313125 28.7313125,27.5 30.25,27.5 C31.7686875,27.5 33,28.7313125 33,30.25" id="Fill-19"></path>
                    <path d="M60.5,30.25 C60.5,31.7686875 59.2686875,33 57.75,33 C56.2313125,33 55,31.7686875 55,30.25 C55,28.7313125 56.2313125,27.5 57.75,27.5 C59.2686875,27.5 60.5,28.7313125 60.5,30.25" id="Fill-21"></path>
                    <path d="M88,30.25 C88,31.7686875 86.7686875,33 85.25,33 C83.7313125,33 82.5,31.7686875 82.5,30.25 C82.5,28.7313125 83.7313125,27.5 85.25,27.5 C86.7686875,27.5 88,28.7313125 88,30.25" id="Fill-23"></path>
                    <path d="M115.5,30.25 C115.5,31.7686875 114.268688,33 112.75,33 C111.231313,33 110,31.7686875 110,30.25 C110,28.7313125 111.231313,27.5 112.75,27.5 C114.268688,27.5 115.5,28.7313125 115.5,30.25" id="Fill-25"></path>
                    <path d="M143,30.25 C143,31.7686875 141.768687,33 140.25,33 C138.731313,33 137.5,31.7686875 137.5,30.25 C137.5,28.7313125 138.731313,27.5 140.25,27.5 C141.768687,27.5 143,28.7313125 143,30.25" id="Fill-27"></path>
                    <path d="M170.5,30.25 C170.5,31.7686875 169.268687,33 167.75,33 C166.231312,33 165,31.7686875 165,30.25 C165,28.7313125 166.231312,27.5 167.75,27.5 C169.268687,27.5 170.5,28.7313125 170.5,30.25" id="Fill-29"></path>
                    <path d="M198,30.25 C198,31.7686875 196.768687,33 195.25,33 C193.731313,33 192.5,31.7686875 192.5,30.25 C192.5,28.7313125 193.731313,27.5 195.25,27.5 C196.768687,27.5 198,28.7313125 198,30.25" id="Fill-31"></path>
                    <path d="M5.5,57.75 C5.5,59.2686875 4.2686875,60.5 2.75,60.5 C1.2313125,60.5 0,59.2686875 0,57.75 C0,56.2313125 1.2313125,55 2.75,55 C4.2686875,55 5.5,56.2313125 5.5,57.75" id="Fill-33"></path>
                    <path d="M33,57.75 C33,59.2686875 31.7686875,60.5 30.25,60.5 C28.7313125,60.5 27.5,59.2686875 27.5,57.75 C27.5,56.2313125 28.7313125,55 30.25,55 C31.7686875,55 33,56.2313125 33,57.75" id="Fill-35"></path>
                    <path d="M60.5,57.75 C60.5,59.2686875 59.2686875,60.5 57.75,60.5 C56.2313125,60.5 55,59.2686875 55,57.75 C55,56.2313125 56.2313125,55 57.75,55 C59.2686875,55 60.5,56.2313125 60.5,57.75" id="Fill-37"></path>
                    <path d="M88,57.75 C88,59.2686875 86.7686875,60.5 85.25,60.5 C83.7313125,60.5 82.5,59.2686875 82.5,57.75 C82.5,56.2313125 83.7313125,55 85.25,55 C86.7686875,55 88,56.2313125 88,57.75" id="Fill-39"></path>
                    <path d="M115.5,57.75 C115.5,59.2686875 114.268688,60.5 112.75,60.5 C111.231313,60.5 110,59.2686875 110,57.75 C110,56.2313125 111.231313,55 112.75,55 C114.268688,55 115.5,56.2313125 115.5,57.75" id="Fill-41"></path>
                    <path d="M143,57.75 C143,59.2686875 141.768687,60.5 140.25,60.5 C138.731313,60.5 137.5,59.2686875 137.5,57.75 C137.5,56.2313125 138.731313,55 140.25,55 C141.768687,55 143,56.2313125 143,57.75" id="Fill-43"></path>
                    <path d="M170.5,57.75 C170.5,59.2686875 169.268687,60.5 167.75,60.5 C166.231312,60.5 165,59.2686875 165,57.75 C165,56.2313125 166.231312,55 167.75,55 C169.268687,55 170.5,56.2313125 170.5,57.75" id="Fill-45"></path>
                    <path d="M198,57.75 C198,59.2686875 196.768687,60.5 195.25,60.5 C193.731313,60.5 192.5,59.2686875 192.5,57.75 C192.5,56.2313125 193.731313,55 195.25,55 C196.768687,55 198,56.2313125 198,57.75" id="Fill-47"></path>
                    <path d="M5.5,85.25 C5.5,86.7686875 4.2686875,88 2.75,88 C1.2313125,88 0,86.7686875 0,85.25 C0,83.7313125 1.2313125,82.5 2.75,82.5 C4.2686875,82.5 5.5,83.7313125 5.5,85.25" id="Fill-49"></path>
                    <path d="M33,85.25 C33,86.7686875 31.7686875,88 30.25,88 C28.7313125,88 27.5,86.7686875 27.5,85.25 C27.5,83.7313125 28.7313125,82.5 30.25,82.5 C31.7686875,82.5 33,83.7313125 33,85.25" id="Fill-51"></path>
                    <path d="M60.5,85.25 C60.5,86.7686875 59.2686875,88 57.75,88 C56.2313125,88 55,86.7686875 55,85.25 C55,83.7313125 56.2313125,82.5 57.75,82.5 C59.2686875,82.5 60.5,83.7313125 60.5,85.25" id="Fill-53"></path>
                    <path d="M88,85.25 C88,86.7686875 86.7686875,88 85.25,88 C83.7313125,88 82.5,86.7686875 82.5,85.25 C82.5,83.7313125 83.7313125,82.5 85.25,82.5 C86.7686875,82.5 88,83.7313125 88,85.25" id="Fill-55"></path>
                    <path d="M115.5,85.25 C115.5,86.7686875 114.268688,88 112.75,88 C111.231313,88 110,86.7686875 110,85.25 C110,83.7313125 111.231313,82.5 112.75,82.5 C114.268688,82.5 115.5,83.7313125 115.5,85.25" id="Fill-57"></path>
                    <path d="M143,85.25 C143,86.7686875 141.768687,88 140.25,88 C138.731313,88 137.5,86.7686875 137.5,85.25 C137.5,83.7313125 138.731313,82.5 140.25,82.5 C141.768687,82.5 143,83.7313125 143,85.25" id="Fill-59"></path>
                    <path d="M170.5,85.25 C170.5,86.7686875 169.268687,88 167.75,88 C166.231312,88 165,86.7686875 165,85.25 C165,83.7313125 166.231312,82.5 167.75,82.5 C169.268687,82.5 170.5,83.7313125 170.5,85.25" id="Fill-61"></path>
                    <path d="M198,85.25 C198,86.7686875 196.768687,88 195.25,88 C193.731313,88 192.5,86.7686875 192.5,85.25 C192.5,83.7313125 193.731313,82.5 195.25,82.5 C196.768687,82.5 198,83.7313125 198,85.25" id="Fill-63"></path>
                    <path d="M5.5,112.75 C5.5,114.268688 4.2686875,115.5 2.75,115.5 C1.2313125,115.5 0,114.268688 0,112.75 C0,111.231313 1.2313125,110 2.75,110 C4.2686875,110 5.5,111.231313 5.5,112.75" id="Fill-65"></path>
                    <path d="M33,112.75 C33,114.268688 31.7686875,115.5 30.25,115.5 C28.7313125,115.5 27.5,114.268688 27.5,112.75 C27.5,111.231313 28.7313125,110 30.25,110 C31.7686875,110 33,111.231313 33,112.75" id="Fill-67"></path>
                    <path d="M60.5,112.75 C60.5,114.268688 59.2686875,115.5 57.75,115.5 C56.2313125,115.5 55,114.268688 55,112.75 C55,111.231313 56.2313125,110 57.75,110 C59.2686875,110 60.5,111.231313 60.5,112.75" id="Fill-69"></path>
                    <path d="M88,112.75 C88,114.268688 86.7686875,115.5 85.25,115.5 C83.7313125,115.5 82.5,114.268688 82.5,112.75 C82.5,111.231313 83.7313125,110 85.25,110 C86.7686875,110 88,111.231313 88,112.75" id="Fill-71"></path>
                    <path d="M115.5,112.75 C115.5,114.268688 114.268688,115.5 112.75,115.5 C111.231313,115.5 110,114.268688 110,112.75 C110,111.231313 111.231313,110 112.75,110 C114.268688,110 115.5,111.231313 115.5,112.75" id="Fill-73"></path>
                    <path d="M143,112.75 C143,114.268688 141.768687,115.5 140.25,115.5 C138.731313,115.5 137.5,114.268688 137.5,112.75 C137.5,111.231313 138.731313,110 140.25,110 C141.768687,110 143,111.231313 143,112.75" id="Fill-75"></path>
                    <path d="M170.5,112.75 C170.5,114.268688 169.268687,115.5 167.75,115.5 C166.231312,115.5 165,114.268688 165,112.75 C165,111.231313 166.231312,110 167.75,110 C169.268687,110 170.5,111.231313 170.5,112.75" id="Fill-77"></path>
                    <path d="M198,112.75 C198,114.268688 196.768687,115.5 195.25,115.5 C193.731313,115.5 192.5,114.268688 192.5,112.75 C192.5,111.231313 193.731313,110 195.25,110 C196.768687,110 198,111.231313 198,112.75" id="Fill-79"></path>
                    <path d="M5.5,140.25 C5.5,141.768687 4.2686875,143 2.75,143 C1.2313125,143 0,141.768687 0,140.25 C0,138.731313 1.2313125,137.5 2.75,137.5 C4.2686875,137.5 5.5,138.731313 5.5,140.25" id="Fill-81"></path>
                    <path d="M33,140.25 C33,141.768687 31.7686875,143 30.25,143 C28.7313125,143 27.5,141.768687 27.5,140.25 C27.5,138.731313 28.7313125,137.5 30.25,137.5 C31.7686875,137.5 33,138.731313 33,140.25" id="Fill-83"></path>
                    <path d="M60.5,140.25 C60.5,141.768687 59.2686875,143 57.75,143 C56.2313125,143 55,141.768687 55,140.25 C55,138.731313 56.2313125,137.5 57.75,137.5 C59.2686875,137.5 60.5,138.731313 60.5,140.25" id="Fill-85"></path>
                    <path d="M88,140.25 C88,141.768687 86.7686875,143 85.25,143 C83.7313125,143 82.5,141.768687 82.5,140.25 C82.5,138.731313 83.7313125,137.5 85.25,137.5 C86.7686875,137.5 88,138.731313 88,140.25" id="Fill-87"></path>
                    <path d="M115.5,140.25 C115.5,141.768687 114.268688,143 112.75,143 C111.231313,143 110,141.768687 110,140.25 C110,138.731313 111.231313,137.5 112.75,137.5 C114.268688,137.5 115.5,138.731313 115.5,140.25" id="Fill-89"></path>
                    <path d="M143,140.25 C143,141.768687 141.768687,143 140.25,143 C138.731313,143 137.5,141.768687 137.5,140.25 C137.5,138.731313 138.731313,137.5 140.25,137.5 C141.768687,137.5 143,138.731313 143,140.25" id="Fill-91"></path>
                    <path d="M170.5,140.25 C170.5,141.768687 169.268687,143 167.75,143 C166.231312,143 165,141.768687 165,140.25 C165,138.731313 166.231312,137.5 167.75,137.5 C169.268687,137.5 170.5,138.731313 170.5,140.25" id="Fill-93"></path>
                    <path d="M198,140.25 C198,141.768687 196.768687,143 195.25,143 C193.731313,143 192.5,141.768687 192.5,140.25 C192.5,138.731313 193.731313,137.5 195.25,137.5 C196.768687,137.5 198,138.731313 198,140.25" id="Fill-95"></path>
                    <path d="M5.5,167.75 C5.5,169.268687 4.2686875,170.5 2.75,170.5 C1.2313125,170.5 0,169.268687 0,167.75 C0,166.231312 1.2313125,165 2.75,165 C4.2686875,165 5.5,166.231312 5.5,167.75" id="Fill-97"></path>
                    <path d="M33,167.75 C33,169.268687 31.7686875,170.5 30.25,170.5 C28.7313125,170.5 27.5,169.268687 27.5,167.75 C27.5,166.231312 28.7313125,165 30.25,165 C31.7686875,165 33,166.231312 33,167.75" id="Fill-99"></path>
                    <path d="M60.5,167.75 C60.5,169.268687 59.2686875,170.5 57.75,170.5 C56.2313125,170.5 55,169.268687 55,167.75 C55,166.231312 56.2313125,165 57.75,165 C59.2686875,165 60.5,166.231312 60.5,167.75" id="Fill-101"></path>
                    <path d="M88,167.75 C88,169.268687 86.7686875,170.5 85.25,170.5 C83.7313125,170.5 82.5,169.268687 82.5,167.75 C82.5,166.231312 83.7313125,165 85.25,165 C86.7686875,165 88,166.231312 88,167.75" id="Fill-103"></path>
                    <path d="M115.5,167.75 C115.5,169.268687 114.268688,170.5 112.75,170.5 C111.231313,170.5 110,169.268687 110,167.75 C110,166.231312 111.231313,165 112.75,165 C114.268688,165 115.5,166.231312 115.5,167.75" id="Fill-105"></path>
                    <path d="M143,167.75 C143,169.268687 141.768687,170.5 140.25,170.5 C138.731313,170.5 137.5,169.268687 137.5,167.75 C137.5,166.231312 138.731313,165 140.25,165 C141.768687,165 143,166.231312 143,167.75" id="Fill-107"></path>
                    <path d="M170.5,167.75 C170.5,169.268687 169.268687,170.5 167.75,170.5 C166.231312,170.5 165,169.268687 165,167.75 C165,166.231312 166.231312,165 167.75,165 C169.268687,165 170.5,166.231312 170.5,167.75" id="Fill-109"></path>
                    <path d="M198,167.75 C198,169.268687 196.768687,170.5 195.25,170.5 C193.731313,170.5 192.5,169.268687 192.5,167.75 C192.5,166.231312 193.731313,165 195.25,165 C196.768687,165 198,166.231312 198,167.75" id="Fill-111"></path>
                    <path d="M5.5,195.25 C5.5,196.768687 4.2686875,198 2.75,198 C1.2313125,198 0,196.768687 0,195.25 C0,193.731313 1.2313125,192.5 2.75,192.5 C4.2686875,192.5 5.5,193.731313 5.5,195.25" id="Fill-113"></path>
                    <path d="M33,195.25 C33,196.768687 31.7686875,198 30.25,198 C28.7313125,198 27.5,196.768687 27.5,195.25 C27.5,193.731313 28.7313125,192.5 30.25,192.5 C31.7686875,192.5 33,193.731313 33,195.25" id="Fill-115"></path>
                    <path d="M60.5,195.25 C60.5,196.768687 59.2686875,198 57.75,198 C56.2313125,198 55,196.768687 55,195.25 C55,193.731313 56.2313125,192.5 57.75,192.5 C59.2686875,192.5 60.5,193.731313 60.5,195.25" id="Fill-117"></path>
                    <path d="M88,195.25 C88,196.768687 86.7686875,198 85.25,198 C83.7313125,198 82.5,196.768687 82.5,195.25 C82.5,193.731313 83.7313125,192.5 85.25,192.5 C86.7686875,192.5 88,193.731313 88,195.25" id="Fill-119"></path>
                    <path d="M115.5,195.25 C115.5,196.768687 114.268688,198 112.75,198 C111.231313,198 110,196.768687 110,195.25 C110,193.731313 111.231313,192.5 112.75,192.5 C114.268688,192.5 115.5,193.731313 115.5,195.25" id="Fill-121"></path>
                    <path d="M143,195.25 C143,196.768687 141.768687,198 140.25,198 C138.731313,198 137.5,196.768687 137.5,195.25 C137.5,193.731313 138.731313,192.5 140.25,192.5 C141.768687,192.5 143,193.731313 143,195.25" id="Fill-123"></path>
                    <path d="M170.5,195.25 C170.5,196.768687 169.268687,198 167.75,198 C166.231312,198 165,196.768687 165,195.25 C165,193.731313 166.231312,192.5 167.75,192.5 C169.268687,192.5 170.5,193.731313 170.5,195.25" id="Fill-125"></path>
                    <path d="M198,195.25 C198,196.768687 196.768687,198 195.25,198 C193.731313,198 192.5,196.768687 192.5,195.25 C192.5,193.731313 193.731313,192.5 195.25,192.5 C196.768687,192.5 198,193.731313 198,195.25" id="Fill-127"></path>
                </g>
            </g>
        </g>
    </g>
</svg>