<?xml version="1.0" encoding="UTF-8"?>
<svg width="202px" height="56px" viewBox="0 0 202 56" version="1.1" xmlns="http://www.w3.org/2000/svg" xmlns:xlink="http://www.w3.org/1999/xlink">
    <!-- Generator: Sketch 58 (84663) - https://sketch.com -->
    <title>google-cloud-platform-logo</title>
    <desc>Created with Sketch.</desc>
    <defs>
        <rect id="path-1" x="2.84217094e-14" y="0" width="201.010526" height="56"></rect>
        <filter x="-0.5%" y="-1.8%" width="101.0%" height="103.6%" filterUnits="objectBoundingBox" id="filter-2">
            <feOffset dx="0" dy="-2" in="SourceAlpha" result="shadowOffsetInner1"></feOffset>
            <feComposite in="shadowOffsetInner1" in2="SourceAlpha" operator="arithmetic" k2="-1" k3="1" result="shadowInnerInner1"></feComposite>
            <feColorMatrix values="0 0 0 0 0.156862745   0 0 0 0 0.419607843   0 0 0 0 0.454901961  0 0 0 0.2 0" type="matrix" in="shadowInnerInner1"></feColorMatrix>
        </filter>
    </defs>
    <g id="google-cloud-platform-logo" stroke="none" stroke-width="1" fill="none" fill-rule="evenodd">
        <g>
            <g id="Rectangle">
                <use fill="#FFFFFF" fill-rule="evenodd" xlink:href="#path-1"></use>
                <use fill="black" fill-opacity="1" filter="url(#filter-2)" xlink:href="#path-1"></use>
            </g>
            <path d="M74.6204912,19.8171228 C74.5907192,17.9551168 75.3173394,16.1606368 76.6342374,14.843924 C77.9511354,13.5272112 79.7457175,12.8008433 81.6077193,12.8308772 C83.4968259,12.8030645 85.3024594,13.6079638 86.5445614,15.0315789 L85.3292632,16.1712281 C84.4218988,15.0583117 83.0423146,14.4391742 81.6077193,14.5010526 C80.202813,14.4723568 78.8490901,15.0284199 77.8700056,16.0363776 C76.8909212,17.0443354 76.3744259,18.4136434 76.4439298,19.8171228 C76.3744259,21.2206022 76.8909212,22.5899102 77.8700056,23.597868 C78.8490901,24.6058258 80.202813,25.1618888 81.6077193,25.133193 C83.2044622,25.1365997 84.7150705,24.4095245 85.7084912,23.1594386 L86.9237895,24.3737544 C85.5876113,25.9071449 83.641227,26.7704461 81.6077193,26.7316491 C79.7455951,26.8057069 77.9362739,26.1035019 76.611639,24.7926497 C75.287004,23.4817975 74.5659136,21.6799198 74.6204912,19.8171228 L74.6204912,19.8171228 Z M88.2157193,26.4978246 L89.9615439,26.4978246 L89.9615439,13.1364211 L88.2157193,13.1364211 L88.2157193,26.4978246 Z M100.670316,21.941193 C100.764555,23.6842517 99.8882208,25.3367867 98.3924413,26.2366636 C96.8966619,27.1365406 95.0261451,27.1365406 93.5303657,26.2366636 C92.0345863,25.3367867 91.1582522,23.6842517 91.2524912,21.941193 C91.1582522,20.1981343 92.0345863,18.5455993 93.5303657,17.6457224 C95.0261451,16.7458454 96.8966619,16.7458454 98.3924413,17.6457224 C99.8882208,18.5455993 100.764555,20.1981343 100.670316,21.941193 L100.670316,21.941193 Z M98.9235088,21.941193 C99.0619245,20.7974934 98.5295476,19.6762889 97.5557703,19.0606874 C96.5819929,18.4450858 95.3408141,18.4450858 94.3670368,19.0606874 C93.3932594,19.6762889 92.8608825,20.7974934 92.9992982,21.941193 C92.9245427,22.7826766 93.1998282,23.617781 93.7603308,24.2498568 C94.3208334,24.8819327 95.1170192,25.255121 95.9614035,25.2815439 C97.698838,25.1735371 99.0225519,23.6821089 98.9235088,21.9441404 L98.9235088,21.941193 Z M108.416982,26.4978246 L108.416982,25.2098246 L108.341333,25.2098246 C107.69261,26.1757033 106.617866,26.7694097 105.454877,26.8043509 C103.096982,26.8043509 101.961263,25.2098246 101.961263,22.9315088 L101.961263,17.3108772 L103.70807,17.3108772 L103.70807,22.6279298 C103.70807,24.5260351 104.690526,25.2098246 105.986386,25.2098246 C107.431794,25.1009214 108.517821,23.8450101 108.416982,22.3990175 L108.416982,17.3894737 L110.163789,17.3894737 L110.163789,26.578386 L108.416982,26.578386 L108.416982,26.4978246 Z M111.454737,21.941193 C111.312753,19.4052367 113.248055,17.2318655 115.783439,17.08 C117.022863,17.058409 118.191256,17.6569801 118.897825,18.6755088 L118.973474,18.6755088 L118.897825,17.3845614 L118.897825,13.1344561 L120.645614,13.1344561 L120.645614,26.5007719 L119.050105,26.5007719 L119.050105,25.2098246 L118.975439,25.2098246 C118.269081,26.2279602 117.101012,26.8261856 115.862035,26.8043509 C114.631032,26.7500128 113.472808,26.2059154 112.645079,25.2931251 C111.817349,24.3803349 111.388782,23.174576 111.454737,21.9441404 L111.454737,21.941193 Z M119.049123,21.941193 C119.049123,19.8141754 117.682526,18.6008421 116.163649,18.6008421 C114.644772,18.6008421 113.277193,19.8161404 113.277193,21.941193 C113.199818,22.7707346 113.463992,23.5959666 114.008725,24.2263578 C114.553457,24.8567491 115.331656,25.237804 116.163649,25.2815439 C117.872535,25.1379244 119.15392,23.6558453 119.049123,21.9441404 L119.049123,21.941193 Z M125.353544,26.4978246 L125.353544,13.1364211 L129.910175,13.1364211 C132.152684,13.0764209 134.020782,14.8425665 134.086596,17.0849123 C134.021312,19.3276458 132.153057,21.0943802 129.910175,21.034386 L127.100351,21.034386 L127.100351,26.4280702 L125.353544,26.4280702 L125.353544,26.4978246 Z M129.985825,19.4339649 C130.859274,19.4844567 131.688873,19.0471628 132.140829,18.2980303 C132.592785,17.5488977 132.592785,16.6111023 132.140829,15.8619697 C131.688873,15.1128372 130.859274,14.6755433 129.985825,14.7260351 L127.100351,14.7260351 L127.100351,19.4339649 L129.985825,19.4339649 Z M135.301895,26.4978246 L137.052632,26.4978246 L137.052632,13.1364211 L135.305825,13.1364211 L135.301895,26.4978246 Z M138.49193,23.7636491 C138.49193,21.7132632 140.391018,20.573614 142.52,20.573614 C143.382366,20.5830963 144.234262,20.763761 145.026246,21.1051228 L145.026246,20.877193 C144.928246,19.8089185 144.13965,18.9321502 143.087696,18.7218955 C142.035742,18.5116408 140.970714,19.0179242 140.469614,19.9664561 L138.875088,19.2787368 C139.753969,17.6285133 141.626262,16.7678936 143.450989,17.1753747 C145.275716,17.5828559 146.604032,19.1582058 146.697404,21.0255439 L146.697404,26.5695439 L145.027228,26.5695439 L145.027228,25.2854737 L144.951579,25.2854737 C144.281874,26.3060678 143.13322,26.9091761 141.912842,26.8809825 C140.086456,26.8043509 138.49193,25.6647018 138.49193,23.7665965 L138.49193,23.7636491 Z M145.023298,22.5483509 C144.371849,22.1187305 143.601188,21.9062055 142.821614,21.941193 C140.998175,21.941193 140.314386,22.9285614 140.314386,23.7636491 C140.314386,24.7510175 141.296842,25.2068772 142.213474,25.2068772 C143.704071,25.2017695 144.93413,24.0392353 145.023298,22.5512982 L145.023298,22.5483509 Z M149.12407,23.7636491 L149.12407,18.9790877 L147.529544,18.9790877 L147.529544,17.3894737 L149.12407,17.3894737 L149.12407,14.5767018 L150.870877,14.5767018 L150.870877,17.3894737 L153.150175,17.3894737 L153.150175,18.984 L150.870877,18.984 L150.870877,23.6919298 C150.870877,24.7559298 151.326737,25.2117895 152.086175,25.2117895 C152.349074,25.2430848 152.615104,25.1897412 152.845614,25.0595088 L153.453754,26.5027368 C153.016372,26.6643687 152.552337,26.7417079 152.086175,26.7306667 C151.282165,26.7952333 150.490327,26.5036768 149.920164,25.9331359 C149.350002,25.362595 149.05897,24.5705644 149.12407,23.7665965 L149.12407,23.7636491 Z M160.288702,13.282807 L159.681544,14.7260351 C159.43874,14.6318326 159.181478,14.5803138 158.921123,14.5737544 C158.498989,14.5534971 158.088906,14.7177804 157.797515,15.0238824 C157.506124,15.3299843 157.362221,15.7476556 157.403228,16.1682807 L157.403228,17.3079298 L159.761123,17.3079298 L159.761123,18.9034386 L157.403228,18.9034386 L157.403228,26.4978246 L155.655439,26.4978246 L155.655439,18.9034386 L153.985263,18.9034386 L153.985263,17.3108772 L155.73207,17.3108772 L155.73207,16.1712281 C155.693452,15.3071007 156.030627,14.4685328 156.65669,13.8716636 C157.282753,13.2747945 158.136454,12.9780168 158.997754,13.0578246 C159.439015,13.0462786 159.878075,13.1237991 160.288702,13.2857544 L160.288702,13.282807 Z M169.705544,21.941193 C169.761056,23.6596172 168.875975,25.2718059 167.39634,26.147444 C165.916704,27.023082 164.077541,27.023082 162.597906,26.147444 C161.11827,25.2718059 160.233189,23.6596172 160.288702,21.941193 C160.233189,20.2227688 161.11827,18.61058 162.597906,17.734942 C164.077541,16.8593039 165.916704,16.8593039 167.39634,17.734942 C168.875975,18.61058 169.761056,20.2227688 169.705544,21.941193 L169.705544,21.941193 Z M167.959719,21.941193 C168.098135,20.7974934 167.565758,19.6762889 166.591981,19.0606874 C165.618203,18.4450858 164.377025,18.4450858 163.403247,19.0606874 C162.42947,19.6762889 161.897093,20.7974934 162.035509,21.941193 C161.960753,22.7826766 162.236039,23.617781 162.796541,24.2498568 C163.357044,24.8819327 164.15323,25.255121 164.997614,25.2815439 C166.735049,25.1735371 168.058762,23.6821089 167.959719,21.9441404 L167.959719,21.941193 Z M171.073123,26.4978246 L171.073123,17.3894737 L172.743298,17.3894737 L172.743298,18.9083509 L172.818947,18.9083509 C173.295617,17.8632736 174.329059,17.18386 175.477474,17.1605614 C175.918837,17.1488398 176.357997,17.2267121 176.768421,17.3894737 L176.080702,18.984 C175.78747,18.8838678 175.479821,18.832427 175.169965,18.8317193 C174.498349,18.8540134 173.86542,19.1513806 173.419531,19.6541207 C172.973642,20.1568608 172.753994,20.8207742 172.81207,21.4902456 L172.81207,26.5007719 L171.073123,26.4978246 Z M177.68014,17.3845614 L179.350316,17.3845614 L179.350316,18.6755088 L179.426947,18.6755088 C180.046679,17.7165973 181.095761,17.1208945 182.236772,17.08 C183.471225,16.9934524 184.626626,17.6929084 185.122246,18.826807 C185.796929,17.7162051 187.013147,17.0502252 188.312281,17.08 C190.590596,17.08 191.577965,18.6755088 191.577965,20.9538246 L191.577965,26.5734737 L189.831158,26.5734737 L189.831158,21.2603509 C189.831158,19.3622456 189.071719,18.7541053 187.780772,18.7541053 C186.377835,18.924255 185.346926,20.1527554 185.422877,21.5639298 L185.422877,26.6520702 L183.677053,26.6520702 L183.677053,21.336 C183.677053,19.4369123 182.916632,18.8297544 181.625684,18.8297544 C180.222598,19.0003813 179.191796,20.2291828 179.267789,21.6405614 L179.267789,26.7287018 L177.529825,26.7287018 L177.529825,17.3894737 L177.68014,17.3845614 Z" id="Shape" fill="#656763"></path>
            <path d="M41.2631579,16.9512982 C38.5400465,16.9588896 36.3379687,19.1712197 36.3430174,21.894337 C36.3480834,24.6174543 38.5583634,26.8215898 41.2814843,26.8190686 C44.0046052,26.816543 46.2107964,24.608315 46.210807,21.885193 C46.2315461,20.5679972 45.7164861,19.2988493 44.7836769,18.3686333 C43.8508677,17.4384173 42.5802908,16.9268924 41.2631579,16.9512982 Z M41.2631579,24.8630175 C40.4933568,24.8453595 39.7632749,24.5177177 39.2383752,23.9543476 C38.7134756,23.3909775 38.4382041,22.6395826 38.4749474,21.8704561 C38.3989663,20.8261183 38.9130625,19.8269039 39.8069371,19.2815572 C40.7008116,18.7362105 41.8245217,18.7362105 42.7183963,19.2815572 C43.6122708,19.8269039 44.1263671,20.8261183 44.050386,21.8704561 C44.0871274,22.6394161 43.8119887,23.3906622 43.2873015,23.9540029 C42.7626142,24.5173435 42.0327866,24.8450989 41.2631579,24.8630175 L41.2631579,24.8630175 Z" id="Shape" fill="#FBBC05"></path>
            <path d="M30.4561404,24.8630175 C31.2259414,24.8453595 31.9560234,24.5177177 32.480923,23.9543476 C33.0058227,23.3909775 33.2810941,22.6395826 33.2443509,21.8704561 C33.3176431,20.8275811 32.802822,19.830985 31.9099099,19.2872312 C31.0169978,18.7434774 29.8952829,18.7434774 29.0023708,19.2872312 C28.1094587,19.830985 27.5946376,20.8275811 27.6679298,21.8704561 C27.6311866,22.6395826 27.9064581,23.3909775 28.4313577,23.9543476 C28.9562573,24.5177177 29.6863393,24.8453595 30.4561404,24.8630175 L30.4561404,24.8630175 Z M30.4561404,16.9512982 C33.179122,16.9594314 35.3807066,19.1719998 35.3752985,21.8949882 C35.3698704,24.6179766 33.1594983,26.8217663 30.4365059,26.8190658 C27.7135134,26.8163603 25.5075209,24.6081868 25.5075088,21.885193 C25.486762,20.5678235 26.0019555,19.2985205 26.9349801,18.3682744 C27.8680048,17.4380283 29.1388386,16.9266227 30.4561404,16.9512982 L30.4561404,16.9512982 Z" id="Shape" fill="#EA4335"></path>
            <path d="M52.0338246,24.8630175 C52.7839605,24.8352257 53.4898199,24.5007947 53.9864235,23.9378906 C54.4830272,23.3749864 54.7268531,22.6329416 54.6609123,21.885193 C54.7247506,21.1350586 54.4810087,20.3911873 53.9856236,19.8242918 C53.4902385,19.2573964 52.785747,18.916154 52.0338246,18.8788772 C51.2683802,18.90568 50.5459629,19.2395381 50.0295222,19.8051461 C49.5130814,20.3707541 49.2461157,21.1204722 49.2888421,21.885193 C49.2507524,22.6459564 49.5201514,23.3900853 50.0364246,23.9501511 C50.5526978,24.510217 51.2724814,24.8391778 52.0338246,24.8630175 L52.0338246,24.8630175 Z M54.5145263,17.2440702 L56.5894737,17.2440702 L56.5894737,26.1038596 C56.5894737,29.7527018 54.4437895,31.2421926 51.9041404,31.2421926 C49.9851634,31.2537568 48.2516637,30.0980903 47.5243509,28.3222456 L49.4077193,27.5362807 C49.8013472,28.5708387 50.7827614,29.2635788 51.8894035,29.288 C53.5094737,29.288 54.5164912,28.2809825 54.5164912,26.397614 L54.5164912,25.682386 L54.4437895,25.682386 C53.7863945,26.4228433 52.8349705,26.8343477 51.845193,26.8063158 C49.2017304,26.6943785 47.1162732,24.5187438 47.1162732,21.8729123 C47.1162732,19.2270808 49.2017304,17.0514461 51.845193,16.9395088 C52.8312937,16.9136563 53.7798381,17.3181773 54.4437895,18.0477193 L54.5164912,18.0477193 L54.5145263,17.2440702 Z" id="Shape" fill="#4285F4"></path>
            <path d="M9.83340351,19.1578947 C9.88726012,14.9025248 13.3577761,11.4841608 17.6134737,11.4947368 C19.5782608,11.4660186 21.4720554,12.2286347 22.8686316,13.6109474 L21.3792281,15.0846316 C20.3742345,14.1019803 19.0188992,13.5606241 17.6134737,13.5804912 C14.5418404,13.5804913 12.0517896,16.0705421 12.0517896,19.1421754 C12.0517896,22.2138088 14.5418404,24.7038596 17.6134737,24.7038596 C19.0614133,24.7624018 20.466535,24.2056353 21.4814035,23.1712281 C22.1469848,22.4490154 22.5483432,21.5226704 22.6200702,20.5431579 L17.6095439,20.5431579 L17.6095439,18.4554386 L24.6596491,18.4554386 C24.7399205,18.8886248 24.7790654,19.3284288 24.7765614,19.7689825 C24.8421742,21.5733918 24.1932834,23.3308339 22.970807,24.6596491 C21.5725365,26.1058525 19.6234686,26.8864804 17.6134737,26.8053333 C13.3638177,26.816012 9.8957903,23.4071062 9.83340351,19.1578947 Z" id="Path" fill="#4285F4"></path>
            <rect id="Rectangle" fill="#34A853" fill-rule="nonzero" x="58.0759298" y="12.0174035" width="2.16042105" height="14.4941754"></rect>
            <path d="M66.1782456,24.8630175 C65.1517688,24.8998264 64.2052213,24.31139 63.784,23.3745965 L70.3821754,20.6443509 L70.1630877,20.0902456 C69.5593469,18.2591084 67.871814,17.0034802 65.9444211,16.9512982 C64.663182,16.9595346 63.4410126,17.4912406 62.5615598,18.4230153 C61.682107,19.35479 61.2218397,20.6056151 61.2875789,21.885193 C61.2581314,23.1952036 61.7624422,24.4609124 62.6847226,25.3917152 C63.607003,26.3225181 64.8680195,26.8384495 66.1782456,26.8210526 C67.8300085,26.8253806 69.3745406,26.0035229 70.2937544,24.6311579 L68.6157193,23.5082105 C68.0961104,24.3550494 67.1717726,24.8688188 66.1782456,24.8630175 Z M66.0210526,18.8494035 C66.7868477,18.7930001 67.5096694,19.2090994 67.8454737,19.8996491 L63.437193,21.7250526 C63.3913789,20.9993259 63.6393998,20.2856729 64.1254126,19.7447758 C64.6114254,19.2038786 65.2945769,18.881204 66.0210526,18.8494035 L66.0210526,18.8494035 Z" id="Shape" fill="#EA4335"></path>
            <polygon id="Path" fill="#757575" fill-rule="nonzero" points="12.0046316 41.8526316 12.0046316 35.9578947 9.86385965 35.9578947 9.86385965 35.2112281 14.9726316 35.2112281 14.9726316 35.9578947 12.8328421 35.9578947 12.8328421 41.8526316"></polygon>
            <path d="M19.421193,40.5685614 C19.1376898,41.4636332 18.2657327,42.0375589 17.3315088,41.944 C15.9560702,41.944 15.0954386,40.9497544 15.0954386,39.3797895 C15.0954386,37.8098246 15.9698246,36.8077193 17.3315088,36.8077193 C18.6705965,36.8077193 19.4860351,37.7607018 19.4860351,39.3021754 L19.4860351,39.6057544 L15.9157895,39.6057544 L15.9157895,39.6430877 C15.9580351,40.6255439 16.5052632,41.2444912 17.3472281,41.2444912 C17.8704215,41.3032734 18.3765456,41.0369743 18.6244211,40.5724912 L19.421193,40.5685614 Z M15.9157895,38.9632281 L18.6499649,38.9632281 C18.6847882,38.5889747 18.5603657,38.2173626 18.3072119,37.9395291 C18.0540582,37.6616957 17.6955893,37.5033399 17.3197193,37.5032982 C16.9383364,37.5057449 16.5741204,37.6621784 16.3097604,37.9370832 C16.0454004,38.211988 15.9033248,38.5820411 15.9157895,38.9632281 Z" id="Shape" fill="#757575" fill-rule="nonzero"></path>
            <path d="M23.9719298,38.4140351 C23.8131419,37.8502208 23.2787999,37.4765925 22.6947368,37.5209825 C21.8016842,37.5209825 21.2407018,38.2342456 21.2407018,39.357193 C21.2407018,40.5037193 21.8105263,41.2307368 22.6947368,41.2307368 C23.2762055,41.2925787 23.81687,40.9240951 23.9719298,40.3602807 L24.7726316,40.3602807 C24.6013864,41.3502604 23.6944578,42.0397834 22.6947368,41.9400702 C22.0339633,41.9435796 21.4040187,41.660893 20.9673852,41.1649241 C20.5307517,40.6689551 20.3301799,40.008264 20.4174035,39.3532632 C20.3355276,38.7029535 20.5391801,38.0490414 20.9758245,37.5602182 C21.4124688,37.0713951 22.0393452,36.7955303 22.6947368,36.8037895 C23.6991184,36.7225551 24.5995631,37.4210069 24.7706667,38.4140351 L23.9719298,38.4140351 Z" id="Path" fill="#757575" fill-rule="nonzero"></path>
            <path d="M25.9142456,34.9214035 L26.7061053,34.9214035 L26.7061053,37.6722807 L26.7797895,37.6722807 C27.0583441,37.0926577 27.6669132,36.7463017 28.3075088,36.802807 C28.7914699,36.7767083 29.2621118,36.9664353 29.5926652,37.3208841 C29.9232186,37.6753329 30.0796888,38.1580515 30.0199298,38.6390175 L30.0199298,41.8526316 L29.2280702,41.8526316 L29.2280702,38.8335439 C29.2280702,37.9493333 28.8350877,37.5170526 28.0815439,37.5170526 C27.7036969,37.4860077 27.3315861,37.6244315 27.0658904,37.8948717 C26.8001947,38.165312 26.6683782,38.5398143 26.7061053,38.9170526 L26.7061053,41.8526316 L25.9142456,41.8526316 L25.9142456,34.9214035 Z" id="Path" fill="#757575" fill-rule="nonzero"></path>
            <path d="M31.3924211,36.8912281 L32.1479298,36.8912281 L32.1479298,37.677193 L32.2245614,37.677193 C32.4863726,37.0998632 33.0845406,36.7511289 33.7159298,36.8077193 C34.2042716,36.768626 34.6840087,36.9530187 35.02045,37.3091271 C35.3568913,37.6652355 35.5137615,38.1546638 35.4470175,38.64 L35.4470175,41.8526316 L34.6551579,41.8526316 L34.6551579,38.8335439 C34.6551579,37.9404912 34.2778947,37.5170526 33.4860351,37.5170526 C33.1187839,37.5020633 32.763333,37.6483713 32.5130474,37.9175464 C32.2627618,38.1867214 32.1426571,38.5518601 32.1842807,38.9170526 L32.1842807,41.8526316 L31.3924211,41.8526316 L31.3924211,36.8912281 Z" id="Path" fill="#757575" fill-rule="nonzero"></path>
            <path d="M36.5719298,39.3719298 C36.5719298,37.7754386 37.4463158,36.8037895 38.8590877,36.8037895 C40.2718596,36.8037895 41.1462456,37.7754386 41.1462456,39.3719298 C41.1462456,40.9684211 40.2728421,41.9400702 38.8590877,41.9400702 C37.4453333,41.9400702 36.5719298,40.9684211 36.5719298,39.3719298 Z M40.3278596,39.3719298 C40.3278596,38.1929825 39.7983158,37.5170526 38.8541754,37.5170526 C37.9100351,37.5170526 37.386386,38.1929825 37.386386,39.3719298 C37.386386,40.5508772 37.9159298,41.226807 38.8541754,41.226807 C39.7924211,41.226807 40.3278596,40.5459649 40.3278596,39.3719298 Z" id="Shape" fill="#757575" fill-rule="nonzero"></path>
            <polygon id="Path" fill="#757575" fill-rule="nonzero" points="42.3635088 34.9214035 43.1494737 34.9214035 43.1494737 41.8526316 42.3635088 41.8526316"></polygon>
            <path d="M44.3696842,39.3719298 C44.3696842,37.7754386 45.2440702,36.8037895 46.6568421,36.8037895 C48.069614,36.8037895 48.944,37.7754386 48.944,39.3719298 C48.944,40.9684211 48.069614,41.9400702 46.6568421,41.9400702 C45.2440702,41.9400702 44.3696842,40.9684211 44.3696842,39.3719298 Z M48.125614,39.3719298 C48.125614,38.1929825 47.5960702,37.5170526 46.6568421,37.5170526 C45.717614,37.5170526 45.1929825,38.1929825 45.1929825,39.3719298 C45.1929825,40.5508772 45.7225263,41.226807 46.6607719,41.226807 C47.5990175,41.226807 48.125614,40.5459649 48.125614,39.3719298 Z" id="Shape" fill="#757575" fill-rule="nonzero"></path>
            <path d="M50.0777544,42.4008421 L50.9157895,42.4008421 C51.0032281,42.805614 51.4453333,43.0669474 52.1585965,43.0669474 C53.042807,43.0669474 53.5762807,42.6307368 53.5762807,41.898807 L53.5762807,40.9232281 L53.501614,40.9232281 C53.1816073,41.4743977 52.5832399,41.8036321 51.946386,41.7789474 C50.6623158,41.7789474 49.8665263,40.7847018 49.8665263,39.2982456 C49.8665263,37.8117895 50.6721404,36.8037895 51.946386,36.8037895 C52.5973094,36.7816123 53.208277,37.1170603 53.5389474,37.6781754 L53.6126316,37.6781754 L53.6126316,36.8922105 L54.3671579,36.8922105 L54.3671579,41.9410526 C54.3671579,43.0502456 53.5114386,43.7585965 52.1585965,43.7585965 C50.9609825,43.757614 50.197614,43.2202105 50.0777544,42.4008421 Z M52.1212632,37.5170526 C51.2007018,37.5170526 50.6858947,38.2165614 50.6858947,39.2982456 C50.6858947,40.3799298 51.2007018,41.0794386 52.1212632,41.0794386 C53.0418246,41.0794386 53.5949474,40.3799298 53.5949474,39.2982456 C53.5949474,38.2165614 53.0369123,37.5170526 52.1212632,37.5170526 Z" id="Shape" fill="#757575" fill-rule="nonzero"></path>
            <path d="M55.8555789,43.6210526 L55.8555789,42.9431579 C55.9653625,42.9607482 56.0764816,42.9686383 56.1876491,42.9667368 C56.6435088,42.9667368 56.8920702,42.749614 57.098386,42.1522807 L57.1907368,41.8575439 L55.3545263,36.8912281 L56.2102456,36.8912281 L57.5719298,40.9733333 L57.645614,40.9733333 L59.0033684,36.8912281 L59.8453333,36.8912281 L57.9079298,42.1562105 C57.4844912,43.3066667 57.0885614,43.6475789 56.2092632,43.6475789 C56.0908822,43.6472993 55.9726773,43.6384339 55.8555789,43.6210526 L55.8555789,43.6210526 Z" id="Path" fill="#757575" fill-rule="nonzero"></path>
            <path d="M66.0377544,35.2112281 C66.8008235,35.2128076 67.5050859,35.6213596 67.8852526,36.2829866 C68.2654193,36.9446137 68.263734,37.7587988 67.8808315,38.4188463 C67.4979291,39.0788938 66.7919814,39.4845269 66.0289123,39.4829474 L64.3587368,39.4829474 L64.3587368,41.8526316 L63.5305263,41.8526316 L63.5305263,35.2112281 L66.0377544,35.2112281 Z M64.3577544,38.7480702 L65.8245614,38.7480702 C66.3460563,38.7819389 66.8431032,38.5229418 67.1141221,38.0761166 C67.385141,37.6292915 67.385141,37.0688138 67.1141221,36.6219886 C66.8431032,36.1751634 66.3460563,35.9161663 65.8245614,35.9500351 L64.3607018,35.9500351 L64.3577544,38.7480702 Z" id="Shape" fill="#757575" fill-rule="nonzero"></path>
            <path d="M68.8701754,40.4624561 C68.8701754,39.5782456 69.5244912,39.0634386 70.6798596,38.9946667 L72.1122807,38.9052632 L72.1122807,38.4543158 C72.1122807,37.8422456 71.7310877,37.5062456 70.9893333,37.5062456 C70.3998596,37.5062456 69.9813333,37.7322105 69.8712982,38.1232281 L69.0666667,38.1232281 C69.1727719,37.3264561 69.9508772,36.8018246 71.0138947,36.8018246 C72.2242807,36.8018246 72.9002105,37.4227368 72.9002105,38.4543158 L72.9002105,41.8526316 L72.1456842,41.8526316 L72.1456842,41.1207018 L72.072,41.1207018 C71.7486876,41.6502986 71.1643166,41.9637169 70.5442807,41.9400702 C70.1218083,41.9862985 69.6994136,41.852356 69.3807806,41.5711212 C69.0621476,41.2898864 68.8767785,40.887399 68.8701754,40.4624561 L68.8701754,40.4624561 Z M72.1122807,40.0026667 L72.1122807,39.546807 L70.7781053,39.6342456 C70.0235789,39.6853333 69.6915088,39.9466667 69.6915088,40.4437895 C69.6915088,40.9409123 70.1198596,41.2454737 70.6945965,41.2454737 C71.0492257,41.2766402 71.40119,41.1615435 71.6688859,40.926869 C71.9365818,40.6921945 72.0967592,40.3583243 72.1122807,40.0026667 L72.1122807,40.0026667 Z" id="Shape" fill="#757575" fill-rule="nonzero"></path>
            <path d="M74.2933333,36.8912281 L75.0488421,36.8912281 L75.0488421,37.6280702 L75.1215439,37.6280702 C75.3587843,37.0894989 75.910224,36.7594228 76.4969825,36.8047719 C76.6283362,36.8045656 76.7595782,36.8124401 76.8899649,36.8283509 L76.8899649,37.6143158 C76.7224392,37.5857729 76.5529432,37.5703344 76.3830175,37.5681404 C76.0475332,37.5442096 75.7171327,37.6603806 75.4704486,37.8890056 C75.2237645,38.1176306 75.0828578,38.4382635 75.0812632,38.7745965 L75.0812632,41.8526316 L74.2933333,41.8526316 L74.2933333,36.8912281 Z" id="Path" fill="#757575" fill-rule="nonzero"></path>
            <path d="M79.2065965,35.6071579 L79.2065965,36.8912281 L80.3118596,36.8912281 L80.3118596,37.554386 L79.2065965,37.554386 L79.2065965,40.3612632 C79.2065965,40.9458246 79.4276491,41.194386 79.9434386,41.194386 C80.0664946,41.1949051 80.1894863,41.1886735 80.3118596,41.1757193 L80.3118596,41.842807 C80.1582813,41.8717921 80.0024554,41.8872432 79.8461754,41.8889825 C78.8244211,41.8889825 78.4147368,41.5117193 78.4147368,40.5636491 L78.4147368,37.554386 L77.6140351,37.554386 L77.6140351,36.8912281 L78.4147368,36.8912281 L78.4147368,35.6071579 L79.2065965,35.6071579 Z" id="Path" fill="#757575" fill-rule="nonzero"></path>
            <path d="M81.445614,36.8912281 L82.2011228,36.8912281 L82.2011228,37.677193 L82.274807,37.677193 C82.5362654,37.1000191 83.1340808,36.7512606 83.765193,36.8077193 C84.2549746,36.767126 84.7366378,36.9514658 85.0741707,37.3086849 C85.4117035,37.6659039 85.5684729,38.1572327 85.5002105,38.6439298 L85.5002105,41.8526316 L84.7073684,41.8526316 L84.7073684,38.8335439 C84.7073684,37.9404912 84.3291228,37.5170526 83.5382456,37.5170526 C83.1701568,37.5005814 82.8133381,37.6462428 82.561933,37.9156053 C82.310528,38.1849679 82.1897915,38.5509727 82.2315789,38.9170526 L82.2315789,41.8526316 L81.445614,41.8526316 L81.445614,36.8912281 Z" id="Path" fill="#757575" fill-rule="nonzero"></path>
            <path d="M90.9498947,40.5685614 C90.6663915,41.4636332 89.7944345,42.0375589 88.8602105,41.944 C87.4847719,41.944 86.6231579,40.9497544 86.6231579,39.3797895 C86.6231579,37.8098246 87.4975439,36.8077193 88.8602105,36.8077193 C90.1992982,36.8077193 91.0147368,37.7607018 91.0147368,39.3021754 L91.0147368,39.6057544 L87.4474386,39.6057544 L87.4474386,39.6430877 C87.4887018,40.6255439 88.0369123,41.2444912 88.8788772,41.2444912 C89.4020707,41.3032734 89.9081947,41.0369743 90.1560702,40.5724912 L90.9498947,40.5685614 Z M87.4474386,38.9632281 L90.1806316,38.9632281 C90.2160624,38.5890042 90.0919846,38.2171968 89.8389146,37.93925 C89.5858446,37.6613032 89.2272657,37.5030087 88.8513684,37.5032978 C88.4699856,37.5057449 88.1057696,37.6621784 87.8414096,37.9370832 C87.5770495,38.211988 87.4349739,38.5820411 87.4474386,38.9632281 Z" id="Shape" fill="#757575" fill-rule="nonzero"></path>
            <path d="M92.1936842,36.8912281 L92.949193,36.8912281 L92.949193,37.6280702 L93.0218947,37.6280702 C93.2591351,37.0894989 93.8105749,36.7594228 94.3973333,36.8047719 C94.5286871,36.8045656 94.6599291,36.8124401 94.7903158,36.8283509 L94.7903158,37.6143158 C94.6231148,37.5858158 94.4539486,37.5703774 94.2843509,37.5681404 C93.9487752,37.5442211 93.6182809,37.6603652 93.3714446,37.8889587 C93.1246083,38.1175522 92.9834802,38.4381746 92.981614,38.7745965 L92.981614,41.8526316 L92.1936842,41.8526316 L92.1936842,36.8912281 Z" id="Path" fill="#757575" fill-rule="nonzero"></path>
        </g>
    </g>
</svg>