<svg width="60" height="60" viewBox="0 0 60 60" fill="none" xmlns="http://www.w3.org/2000/svg">
<circle cx="30" cy="30" r="30" fill="#326DE6"/>
<path d="M48.088 32.8643C48.0309 32.8643 47.9739 32.8643 47.9739 32.8079C47.9739 32.7514 47.8599 32.7514 47.7458 32.7514C47.5177 32.695 47.2896 32.695 47.0615 32.695C46.9475 32.695 46.8334 32.695 46.7194 32.6385H46.6623C46.0351 32.5821 45.3508 32.4692 44.7235 32.2999C44.5524 32.2434 44.3813 32.0741 44.3243 31.9048C44.3813 31.9048 44.3243 31.9048 44.3243 31.9048L43.8681 31.7919C44.0962 30.155 43.9822 28.4616 43.64 26.8247C43.2408 25.1878 42.5565 23.6073 41.6441 22.1962L41.9863 21.8575V21.801C41.9863 21.6317 42.0433 21.4059 42.1574 21.293C42.6706 20.8415 43.1838 20.5028 43.7541 20.1641C43.8681 20.1077 43.9822 20.0512 44.0962 19.9948C44.3243 19.8819 44.4954 19.769 44.7235 19.6561C44.7805 19.5997 44.8375 19.5997 44.8946 19.5432C44.9516 19.4868 44.8946 19.4868 44.8946 19.4303C45.4078 19.0352 45.5218 18.3579 45.1227 17.8499C44.9516 17.6241 44.6094 17.4548 44.3243 17.4548C44.0392 17.4548 43.7541 17.5677 43.526 17.737L43.4689 17.7934C43.4119 17.8499 43.3549 17.9063 43.2979 17.9063C43.1268 18.0757 42.9557 18.245 42.8417 18.4143C42.7846 18.5272 42.6706 18.5837 42.6136 18.6401C42.2144 19.0917 41.7012 19.5432 41.1879 19.8819C41.0739 19.9384 40.9599 19.9948 40.8458 19.9948C40.7888 19.9948 40.6747 19.9948 40.6177 19.9384H40.5607L40.1045 20.2206C39.6483 19.769 39.1351 19.3175 38.6789 18.8659C36.5689 17.229 33.9458 16.213 31.2656 15.9307L31.2086 15.4792V15.5356C31.0375 15.4227 30.9805 15.2534 30.9235 15.0841C30.9235 14.4632 30.9235 13.8423 31.0375 13.1649V13.1085C31.0375 12.9956 31.0945 12.8827 31.0945 12.7698C31.1516 12.544 31.1516 12.3182 31.2086 12.0925V11.7538C31.2656 11.1893 30.8094 10.6249 30.2392 10.5684C29.897 10.512 29.5549 10.6813 29.2697 10.9635C29.0416 11.1893 28.9276 11.4716 28.9276 11.7538V12.036C28.9276 12.2618 28.9846 12.4876 29.0417 12.7134C29.0987 12.8262 29.0987 12.9391 29.0987 13.052V13.1085C29.2127 13.7294 29.2127 14.3503 29.2127 15.0276C29.1557 15.1969 29.0987 15.3663 28.9276 15.4792V15.5921L28.8706 16.0436C28.2433 16.1001 27.616 16.213 26.9317 16.3259C24.2516 16.8903 21.7995 18.3014 19.9177 20.277L19.5755 20.0512H19.5185C19.4615 20.0512 19.4044 20.1077 19.2904 20.1077C19.1763 20.1077 19.0623 20.0512 18.9482 19.9948C18.435 19.5997 17.9218 19.1481 17.5226 18.6966C17.4656 18.5837 17.3515 18.5272 17.2945 18.4708C17.1234 18.3014 17.0094 18.1321 16.8383 17.9628C16.7813 17.9063 16.7243 17.9063 16.6673 17.8499C16.6102 17.7934 16.6102 17.7934 16.6102 17.7934C16.3821 17.6241 16.097 17.5112 15.8119 17.5112C15.4697 17.5112 15.1846 17.6241 15.0135 17.9063C14.6714 18.4143 14.7854 19.0917 15.2416 19.4868C15.2987 19.4868 15.2987 19.5432 15.2987 19.5432C15.2987 19.5432 15.4127 19.6561 15.4697 19.6561C15.6408 19.769 15.8689 19.8819 16.097 19.9948C16.2111 20.0512 16.3251 20.1077 16.4392 20.1641C17.0094 20.5028 17.5796 20.8415 18.0358 21.293C18.1499 21.4059 18.2639 21.6317 18.2069 21.801V21.7446L18.5491 22.0833C18.492 22.1962 18.435 22.2526 18.378 22.3655C16.6102 25.1313 15.8689 28.4052 16.3821 31.6225L15.9259 31.7354C15.9259 31.7919 15.8689 31.7919 15.8689 31.7919C15.8119 31.9612 15.6408 32.0741 15.4697 32.187C14.8425 32.3563 14.2152 32.4692 13.5309 32.5257C13.4168 32.5257 13.3028 32.5257 13.1887 32.5821C12.9606 32.5821 12.7325 32.6385 12.5044 32.6385C12.4474 32.6385 12.3904 32.695 12.2763 32.695C12.2193 32.695 12.2193 32.695 12.1623 32.7514C11.535 32.8643 11.1358 33.4288 11.2499 34.0497C11.3639 34.5577 11.8772 34.8964 12.3904 34.8399C12.5044 34.8399 12.5615 34.8399 12.6755 34.7835C12.7325 34.7835 12.7325 34.7835 12.7325 34.727C12.7325 34.6706 12.9036 34.727 12.9606 34.727C13.1887 34.6706 13.4168 34.5577 13.5879 34.5012C13.702 34.4448 13.816 34.3884 13.9301 34.3884H13.9871C14.6144 34.1626 15.1846 33.9932 15.8689 33.8803H15.9259C16.097 33.8803 16.2681 33.9368 16.3821 34.0497C16.4392 34.0497 16.4392 34.1061 16.4392 34.1061L16.9524 34.0497C17.8077 36.6462 19.4044 38.9604 21.6284 40.6538C22.1416 41.0489 22.5978 41.3876 23.1681 41.6698L22.883 42.0649C22.883 42.1214 22.94 42.1214 22.94 42.1214C23.054 42.2907 23.054 42.5165 22.997 42.6858C22.7689 43.2503 22.4268 43.8147 22.0846 44.3227V44.3792C22.0276 44.4921 21.9706 44.5485 21.8565 44.6614C21.7425 44.7743 21.6284 45.0001 21.4573 45.2259C21.4003 45.2823 21.4003 45.3387 21.3433 45.3952C21.3433 45.3952 21.3433 45.4516 21.2863 45.4516C21.0011 46.0161 21.2292 46.6934 21.7425 46.9757C21.8565 47.0321 22.0276 47.0886 22.1416 47.0886C22.5978 47.0886 22.997 46.8063 23.2251 46.4112C23.2251 46.4112 23.2251 46.3548 23.2821 46.3548C23.2821 46.2983 23.3392 46.2419 23.3962 46.1854C23.4532 45.9596 23.5673 45.7903 23.6243 45.5645L23.7383 45.2259C23.9094 44.605 24.1945 44.0405 24.4797 43.4761C24.5937 43.3067 24.7648 43.1938 24.9359 43.1374C24.9929 43.1374 24.9929 43.1374 24.9929 43.0809L25.221 42.6294C26.8177 43.2503 28.4714 43.5325 30.1821 43.5325C31.2086 43.5325 32.235 43.4196 33.2615 43.1374C33.8888 43.0245 34.516 42.7987 35.0863 42.6294L35.3144 43.0245C35.3714 43.0245 35.3714 43.0245 35.3714 43.0809C35.5425 43.1374 35.7136 43.2503 35.8276 43.4196C36.1127 43.9841 36.3979 44.5485 36.5689 45.1694V45.2259L36.683 45.5645C36.74 45.7903 36.797 46.0161 36.9111 46.1854C36.9681 46.2419 36.9681 46.2983 37.0251 46.3548C37.0251 46.3548 37.0251 46.4112 37.0822 46.4112C37.3103 46.8063 37.7094 47.0886 38.1656 47.0886C38.3367 47.0886 38.4508 47.0321 38.6218 46.9757C38.8499 46.8628 39.078 46.637 39.1351 46.3548C39.1921 46.0725 39.1921 45.7903 39.078 45.5081C39.078 45.4516 39.021 45.4516 39.021 45.4516C39.021 45.3952 38.964 45.3387 38.907 45.2823C38.7929 45.0565 38.6789 44.8872 38.5078 44.7178C38.4508 44.605 38.3937 44.5485 38.2797 44.4356V44.3227C37.8805 43.8147 37.5954 43.2503 37.3673 42.6858C37.3103 42.5165 37.3103 42.2907 37.4243 42.1214C37.4243 42.0649 37.4813 42.0649 37.4813 42.0649L37.3103 41.6134C40.2185 39.8635 42.4425 37.1542 43.4689 33.9368L43.9251 33.9932C43.9822 33.9932 43.9822 33.9368 43.9822 33.9368C44.0962 33.8239 44.2673 33.7675 44.4384 33.7675H44.4954C45.1227 33.8803 45.7499 34.0497 46.3202 34.2755H46.3772C46.4913 34.3319 46.6053 34.3884 46.7194 34.3884C46.9475 34.5012 47.1185 34.6141 47.3466 34.6706C47.4037 34.6706 47.4607 34.727 47.5747 34.727C47.6318 34.727 47.6318 34.727 47.6888 34.7835C47.8028 34.8399 47.8599 34.8399 47.9739 34.8399C48.4871 34.8399 48.9433 34.5012 49.1144 34.0497C49.0574 33.4288 48.6012 32.9772 48.088 32.8643ZM31.6078 31.1145L30.0681 31.8483L28.5284 31.1145L28.1293 29.4776L29.2127 28.1229H30.9235L32.0069 29.4776L31.6078 31.1145ZM40.9028 27.4456C41.1879 28.6309 41.245 29.8163 41.1309 31.0016L35.7136 29.4776C35.2003 29.3647 34.9152 28.8567 35.0293 28.3487C35.0863 28.1794 35.1433 28.0665 35.2574 27.9536L39.5342 24.1153C40.1615 25.1313 40.6177 26.2602 40.9028 27.4456ZM37.8235 22.0268L33.1474 25.3007C32.7483 25.5264 32.178 25.47 31.8929 25.0749C31.7788 24.962 31.7218 24.8491 31.7218 24.6798L31.3797 18.9788C33.8888 19.261 36.1127 20.3335 37.8235 22.0268ZM27.502 19.1481L28.6425 18.9223L28.3574 24.5669C28.3574 25.0749 27.9012 25.47 27.3879 25.47C27.2169 25.47 27.1028 25.4136 26.9317 25.3571L22.1987 22.0268C23.6813 20.6157 25.5061 19.5997 27.502 19.1481ZM20.5449 24.1153L24.7648 27.8407C25.164 28.1794 25.221 28.7438 24.8788 29.1389C24.7648 29.3083 24.6507 29.3647 24.4226 29.4212L18.8912 31.0016C18.7201 28.6309 19.2904 26.2038 20.5449 24.1153ZM19.5755 33.6546L25.221 32.695C25.6772 32.695 26.1334 32.9772 26.1904 33.4288C26.2474 33.5981 26.2474 33.8239 26.1334 33.9932L23.9664 39.1862C21.9706 37.888 20.3739 35.9124 19.5755 33.6546ZM32.5202 40.6538C31.7218 40.8231 30.9235 40.936 30.0681 40.936C28.8706 40.936 27.616 40.7102 26.4755 40.3716L29.2697 35.3479C29.5549 35.0093 30.0111 34.8964 30.4102 35.1221C30.5813 35.235 30.6954 35.3479 30.8664 35.5173L33.6036 40.428C33.2615 40.4844 32.9193 40.5409 32.5202 40.6538ZM39.4772 35.743C38.6218 37.0977 37.4243 38.2831 36.0557 39.1298L33.8317 33.8239C33.7177 33.3723 33.9458 32.9208 34.345 32.7514C34.516 32.695 34.6871 32.6385 34.8582 32.6385L40.5607 33.5981C40.2756 34.3884 39.9334 35.1221 39.4772 35.743Z" fill="white"/>
</svg>
