<?xml version="1.0" encoding="UTF-8"?> <svg xmlns="http://www.w3.org/2000/svg" width="156" height="31" viewBox="0 0 156 31" fill="none"><g clip-path="url(#clip0)"><path d="M0.548462 29.8877H29.1848V0.487671H0.548462V29.8877ZM25.9121 26.6604H3.73937V23.3422H23.0575V13.5695H10.0121V10.2604H25.9121V26.6604ZM25.9121 7.02403H6.82119V16.7786H19.8303V20.0968H3.73937V3.73313H25.9121V7.02403Z" fill="#E41E26"></path><path d="M45.1576 19.6604L43.6121 21.2059C43.373 21.4518 43.046 21.5924 42.703 21.5968H37.4121C37.0694 21.5914 36.7427 21.4509 36.503 21.2059L34.8667 19.5786L36.3667 18.0422L37.6303 19.3059C37.6984 19.3785 37.7944 19.4183 37.8939 19.415H42.1848C42.2843 19.4183 42.3804 19.3785 42.4485 19.3059L43.1848 18.5695C43.2547 18.4996 43.294 18.4047 43.2939 18.3059V17.1331C43.2856 16.9327 43.1301 16.7694 42.9303 16.7513L36.1576 15.8422C35.4222 15.7356 34.8721 15.1124 34.8576 14.3695V11.9059C34.8629 11.5632 35.0034 11.2364 35.2485 10.9968L36.7939 9.44224C37.0336 9.19719 37.3603 9.05669 37.703 9.05133H42.9667C43.3096 9.0557 43.6367 9.19635 43.8758 9.44224L45.4758 11.0422L43.9667 12.5695L42.703 11.315C42.6401 11.2322 42.5433 11.1821 42.4394 11.1786H38.1667C38.0672 11.1753 37.9711 11.215 37.903 11.2877L37.1667 12.0513C37.0968 12.1213 37.0575 12.2161 37.0576 12.315V13.4968C37.0602 13.6896 37.203 13.8517 37.3939 13.8786L44.1848 14.7877C44.9202 14.8943 45.4703 15.5175 45.4848 16.2604V18.6695C45.4805 19.0124 45.3398 19.3395 45.0939 19.5786" fill="#848487"></path><path d="M53.7303 11.1695V21.6059H51.4666V11.1695H47.8212V9.01495H57.3666V11.1695H53.7303Z" fill="#848487"></path><path d="M60.003 21.6059V9.01495H68.4303V11.1695H62.2666V14.224H68.4303V16.3786H62.2666V19.4513H68.4303V21.6059H60.003Z" fill="#848487"></path><path d="M71.6394 21.6059V9.01495H80.0757V11.1695H73.903V14.224H80.0757V16.3786H73.903V19.4513H80.0757V21.6059H71.6394Z" fill="#848487"></path><path d="M83.2939 21.6059V9.01495H85.5485V19.4513H91.7212V21.6059H83.2939Z" fill="#848487"></path><path d="M101.594 21.6059V16.3786H96.5576V21.6059H94.2939V9.01495H96.5576V14.224H101.594V9.01495H103.858V21.6059H101.594Z" fill="#231F20"></path><path d="M117.376 19.6604L115.858 21.2058C115.618 21.4509 115.291 21.5914 114.948 21.5967H110.021C109.678 21.5924 109.351 21.4517 109.112 21.2058L107.567 19.6604C107.321 19.4213 107.18 19.0942 107.176 18.7513V11.9331C107.181 11.5904 107.322 11.2637 107.567 11.024L109.112 9.46946C109.351 9.22357 109.678 9.08292 110.021 9.07855H114.948C115.291 9.08392 115.618 9.22441 115.858 9.46946L117.403 11.0149C117.648 11.2546 117.789 11.5813 117.794 11.924V18.6695C117.79 19.0124 117.649 19.3395 117.403 19.5786L117.376 19.6604ZM115.503 12.1786C115.5 12.0786 115.457 11.9839 115.385 11.9149L114.658 11.1967C114.589 11.1241 114.493 11.0843 114.394 11.0876H110.448C110.349 11.0843 110.253 11.1241 110.185 11.1967L109.467 11.9513C109.397 12.0212 109.358 12.116 109.358 12.2149V18.2786C109.358 18.3774 109.397 18.4723 109.467 18.5422L110.203 19.2786C110.271 19.3512 110.367 19.391 110.467 19.3876H114.412C114.512 19.391 114.608 19.3512 114.676 19.2786L115.412 18.5422C115.485 18.4732 115.527 18.3785 115.53 18.2786L115.503 12.1786Z" fill="#231F20"></path><path d="M130.003 19.6604L128.448 21.2059C128.209 21.4509 127.882 21.5914 127.539 21.5968H123.748C123.406 21.5914 123.079 21.4509 122.839 21.2059L121.285 19.6604C121.04 19.4208 120.899 19.094 120.894 18.7513V9.02405H123.158V18.3422C123.16 18.4424 123.202 18.5375 123.276 18.6059L124.039 19.3422C124.107 19.4149 124.204 19.4546 124.303 19.4513H127.112C127.212 19.4546 127.308 19.4149 127.376 19.3422L128.094 18.6059C128.164 18.5359 128.203 18.4411 128.203 18.3422V9.02405H130.467V18.6695C130.461 19.0122 130.321 19.3389 130.076 19.5786" fill="#231F20"></path><path d="M143.585 19.6604L142.03 21.2059C141.791 21.4518 141.464 21.5924 141.121 21.5968H135.858C135.515 21.5914 135.188 21.4509 134.948 21.2059L133.276 19.5786L134.785 18.0513L136.003 19.3422C136.071 19.4149 136.167 19.4546 136.267 19.4513H140.548C140.648 19.4546 140.744 19.4149 140.812 19.3422L141.548 18.6059C141.622 18.5375 141.664 18.4424 141.667 18.3422V17.1331C141.655 16.9343 141.501 16.7731 141.303 16.7513L134.53 15.8422C133.816 15.7165 133.291 15.1034 133.276 14.3786V11.9059C133.281 11.5632 133.422 11.2364 133.667 10.9968L135.221 9.44224C135.473 9.18829 135.818 9.05004 136.176 9.06042H141.403C141.746 9.06578 142.072 9.20628 142.312 9.45133L143.912 11.0513L142.403 12.5786L141.139 11.315C141.071 11.2423 140.975 11.2026 140.876 11.2059H136.594C136.494 11.2026 136.398 11.2423 136.33 11.315L135.594 12.0513C135.525 12.1218 135.486 12.2163 135.485 12.315V13.4968C135.488 13.6926 135.636 13.8559 135.83 13.8786L142.621 14.7877C143.357 14.8943 143.907 15.5175 143.921 16.2604V18.6695C143.916 19.0122 143.775 19.339 143.53 19.5786" fill="#231F20"></path><path d="M146.994 21.6059V9.01495H155.43V11.1695H149.258V14.224H155.43V16.3786H149.258V19.4513H155.43V21.6059H146.994Z" fill="#231F20"></path></g><defs><clipPath id="clip0"><rect width="155.357" height="30" fill="white" transform="translate(0.548462 0.487671)"></rect></clipPath></defs></svg> 