<?xml version="1.0" encoding="UTF-8"?>
<svg width="127px" height="56px" viewBox="0 0 127 56" version="1.1" xmlns="http://www.w3.org/2000/svg" xmlns:xlink="http://www.w3.org/1999/xlink">
    <!-- Generator: Sketch 58 (84663) - https://sketch.com -->
    <title>microsoft-for-startups</title>
    <desc>Created with Sketch.</desc>
    <defs>
        <rect id="path-1" x="0" y="0" width="127" height="56"></rect>
        <filter x="-0.8%" y="-1.8%" width="101.6%" height="103.6%" filterUnits="objectBoundingBox" id="filter-2">
            <feOffset dx="0" dy="-2" in="SourceAlpha" result="shadowOffsetInner1"></feOffset>
            <feComposite in="shadowOffsetInner1" in2="SourceAlpha" operator="arithmetic" k2="-1" k3="1" result="shadowInnerInner1"></feComposite>
            <feColorMatrix values="0 0 0 0 0.156862745   0 0 0 0 0.419607843   0 0 0 0 0.454901961  0 0 0 0.2 0" type="matrix" in="shadowInnerInner1"></feColorMatrix>
        </filter>
    </defs>
    <g id="microsoft-for-startups" stroke="none" stroke-width="1" fill="none" fill-rule="evenodd">
        <g id="Group">
            <g id="Rectangle-Copy-3">
                <use fill="#FFFFFF" fill-rule="evenodd" xlink:href="#path-1"></use>
                <use fill="black" fill-opacity="1" filter="url(#filter-2)" xlink:href="#path-1"></use>
            </g>
            <g id="microsoft-for-startups-awards" transform="translate(10.000000, 7.000000)">
                <g id="Group-2">
                    <path d="M11.547999,0.933333333 C13.8117636,3.10043368 15.6105824,5.71124242 16.8335749,8.60482757 C17.7735063,10.82091 18.3187233,13.1360778 18.2486781,15.5598584 C18.2108158,16.8546374 18.0366493,18.1446527 17.9249555,19.4365735 C17.917383,19.5242259 17.9154899,19.6118784 17.9117037,19.6995308 L18.0716719,19.747168 C18.2704489,19.1040658 18.4682794,18.4609637 18.6954531,17.7254454 C19.3911728,18.6667564 20.0367248,19.5356589 20.6775441,20.4083723 C21.1735401,21.082915 21.6660655,21.7599984 22.1551201,22.4396224 C22.245043,22.5644319 22.3595764,22.7121072 22.3624161,22.8512078 C22.3804007,23.8144319 22.3718817,24.7795615 22.3718817,25.7856591 L17.4232801,25.7856591 C17.3485021,26.4592491 17.2784569,27.0966348 17.2017857,27.7864214 L13.8310952,27.7864214 C13.7676759,28.8830297 13.18365,39.8567344 13.0738494,41.2877558 C13.068345,41.3681959 13.0015577,41.4304092 12.9214536,41.4297205 L12.9214536,41.4297205 C12.8401585,41.4297205 12.7730974,41.3656704 12.7690579,41.2839449 C12.7217301,40.3740744 12.5589222,35.869501 12.4850907,33.8277708 C12.373397,30.7532661 12.2399324,27.6797141 12.1244524,24.6052094 C12.052514,22.6997215 11.9957206,20.7999501 11.9275685,18.8973204 C11.9275685,18.8220536 11.8755078,18.7486924 11.8054626,18.5619545 C11.7747377,18.6712628 11.750401,18.7822888 11.7325777,18.8944622 C11.6047924,21.3325339 11.4694348,23.7696529 11.3539548,26.2086774 C11.2138643,29.153609 11.0917584,32.0994932 10.9592404,35.0453775 C10.9561607,35.2675612 10.9343112,35.4890786 10.8939279,35.7075346 L10.8939279,35.7075346 C10.8686707,35.7940851 10.7940845,35.8567865 10.7049717,35.8663818 C10.615859,35.8759771 10.5297834,35.8305751 10.4869083,35.7513608 C10.4780663,35.7349356 10.4707774,35.7177105 10.4651375,35.6999126 C10.4197027,35.5522373 10.292864,31.3601639 10.2171394,29.4260937 C10.1972617,28.8925571 10.143308,28.3599733 10.1035526,27.8254839 L8.98661496,27.8254839 C8.89195923,29.8967492 8.80487596,31.9384795 8.70264778,33.979257 C8.70171781,34.0012624 8.69789841,34.0230471 8.69128909,34.0440436 C8.62786975,34.2526946 8.32402486,34.2688912 8.26344519,34.0592875 C8.26055814,34.0493382 8.25865577,34.0391259 8.25776585,34.0287997 C8.11104947,32.7721305 7.99367636,31.516414 7.85642555,30.2568865 C7.77028884,29.462298 7.66711409,28.6686623 7.57245836,27.851208 C7.05185185,27.851208 6.59561124,27.851208 6.14031718,27.851208 C5.5080169,27.851208 5.5212687,27.851208 5.4947651,27.2328772 C5.47583395,26.7641272 5.41809396,26.2963299 5.37455232,25.8037613 L0,25.8037613 L0,22.6558953 C0.0719383545,22.5977779 3.53065871,18.444767 4.03328064,17.8388219 C4.25761472,18.5333722 4.45260552,19.1383646 4.64759632,19.7443098 C4.78863336,19.6614211 4.82460254,19.6052092 4.81986975,19.553761 C4.75645041,18.7020079 4.64475665,17.8502548 4.63055829,16.997549 C4.60878747,15.6875261 4.52738354,14.359401 4.69492419,13.068433 C5.10194382,9.9453383 6.34193388,7.11949977 8.16689635,4.57948441 C9.07653791,3.31519319 10.1480408,2.15951479 11.1494984,0.957151932 L11.547999,0.933333333 Z M9.08695004,10.3845533 C9.10853808,11.6794854 10.1432642,12.7256033 11.4296793,12.7531041 C12.704692,12.7597439 13.8150037,11.6316951 13.7903932,10.3559709 C13.7648362,9.0650029 12.6753487,7.98459127 11.424,8.00936261 C10.1395217,8.03413395 9.08695004,9.10978187 9.08695004,10.3845533 Z" id="Shape" fill="#656763" fill-rule="nonzero"></path>
                    <g id="Group-3" transform="translate(37.000000, 4.000000)" fill-rule="nonzero">
                        <path d="M4.94715912,5.62406738 C4.98596796,5.71934178 5.02477681,5.82509635 5.06263911,5.9279927 C5.09955484,5.82223812 5.13931025,5.72029452 5.18095877,5.62406738 C5.22260729,5.52784024 5.2689886,5.43351859 5.3219958,5.33157499 L8.05565327,0.332527513 C8.08673205,0.263642587 8.14059357,0.207745378 8.208049,0.174372018 C8.2810701,0.152440285 8.35718548,0.142783201 8.43332964,0.1457897 L9.23979645,0.1457897 L9.23979645,8.27650652 L8.28093391,8.27650652 L8.28093391,2.30184925 C8.28093391,2.2227715 8.28093391,2.13702454 8.28661325,2.04651387 C8.2922926,1.95600319 8.29607883,1.86358703 8.30365129,1.76831264 L5.53591775,6.85215433 C5.46542873,7.00776962 5.31111904,7.10759046 5.14120336,7.1074897 L4.98312829,7.1074897 C4.8133522,7.10711269 4.65927672,7.00744336 4.5884139,6.85215433 L1.75915414,1.75116325 C1.77051283,1.84643764 1.77903185,1.94171204 1.78471119,2.03698643 C1.79039053,2.13226082 1.79323021,2.21896052 1.79323021,2.29803827 L1.79323021,8.27269555 L0.837207338,8.27269555 L0.837207338,0.1457897 L1.64367415,0.1457897 C1.71981458,0.14286983 1.79591595,0.152525137 1.86895479,0.174372018 C1.93641022,0.207745378 1.99027174,0.263642587 2.02135052,0.332527513 L4.81274798,5.33729145 C4.86411506,5.42962499 4.90902755,5.52544904 4.94715912,5.62406738 L4.94715912,5.62406738 Z" id="Path" fill="#656763"></path>
                        <path d="M12.3908857,0.724105274 C12.3917317,0.81922177 12.371353,0.913316154 12.3312526,0.999448274 C12.2928818,1.08394671 12.2396495,1.16076652 12.1741241,1.22620133 C12.10858,1.29277063 12.0307738,1.34584341 11.9450572,1.38245134 C11.8582309,1.4207098 11.764389,1.44018512 11.669609,1.43961598 C11.5754238,1.44034786 11.4821659,1.42085981 11.396054,1.38245134 C11.2279478,1.30606949 11.0933169,1.17055869 11.0174311,1.00135376 C10.979272,0.914678996 10.9599105,0.820811552 10.9606376,0.726010762 C10.9602581,0.629707027 10.9795909,0.534356868 11.0174311,0.445904042 C11.0532786,0.358501185 11.1060486,0.279152731 11.1726664,0.212481776 C11.2372814,0.146786861 11.3137375,0.0940818123 11.3979471,0.0571845128 C11.484059,0.0187760449 11.5773169,-0.000712005701 11.6715021,1.98761379e-05 C11.7662821,-0.000549263077 11.8601241,0.0189260533 11.9469503,0.0571845128 C12.0324413,0.0937828584 12.1101925,0.146494787 12.1760172,0.212481776 C12.24236,0.279776261 12.2956478,0.358937896 12.3331457,0.445904042 C12.3718588,0.533439903 12.3915449,0.62829061 12.3908857,0.724105274 L12.3908857,0.724105274 Z M12.1656051,2.5286023 L12.1656051,8.27650652 L11.1622543,8.27650652 L11.1622543,2.5286023 L12.1656051,2.5286023 Z" id="Shape" fill="#656763"></path>
                        <path d="M17.8307505,3.54994381 C17.805293,3.58573084 17.7750308,3.61779398 17.7408275,3.64521821 C17.7020768,3.66958592 17.6567635,3.68123798 17.6111492,3.67856425 C17.5441054,3.67503785 17.4798626,3.65037267 17.4275171,3.60806119 C17.3468512,3.55133113 17.263109,3.49916702 17.1766794,3.45181119 C17.0588997,3.38791178 16.9352758,3.33558655 16.807522,3.29556118 C16.6345137,3.24475978 16.4547848,3.22098203 16.2746103,3.22505813 C16.0204775,3.21970398 15.768325,3.27111486 15.5362956,3.37559167 C15.3244859,3.47397497 15.1396391,3.62275352 14.9977045,3.80909017 C14.8452744,4.01437197 14.7343262,4.2477532 14.6711422,4.49601855 C14.594987,4.79117353 14.558378,5.09525182 14.5622881,5.40017255 C14.557449,5.7135996 14.5972945,6.02610524 14.6806078,6.32814516 C14.7472782,6.57413567 14.8600489,6.80503183 15.0128494,7.00840433 C15.1510267,7.18821602 15.3298263,7.33225592 15.5344025,7.42856441 C15.7512947,7.52756112 15.987266,7.57701601 16.2253893,7.57338149 C16.4299728,7.579502 16.6340407,7.54951399 16.8283463,7.4847763 C16.9670371,7.43743123 17.0995618,7.37345481 17.2230607,7.29422752 C17.3131792,7.23386391 17.3997744,7.16833398 17.4824174,7.09796226 C17.5371568,7.04500606 17.6091385,7.01385837 17.6849806,7.01030982 C17.7603261,7.00641271 17.8321823,7.04257559 17.8742921,7.10558421 L18.1582593,7.47524887 C17.9136559,7.77876594 17.5926707,8.01071464 17.22874,8.14693335 C16.8521595,8.28989851 16.4527484,8.36223013 16.0502762,8.36034799 C15.7086107,8.36331381 15.3699885,8.29553588 15.0554445,8.16122451 C14.7512113,8.03155628 14.4788574,7.8364431 14.2574967,7.58957814 C14.0208786,7.31859615 13.8397747,7.00323532 13.7245849,6.66160554 C13.5908195,6.25761403 13.5267899,5.83354568 13.5352735,5.40779451 C13.5293678,5.00296813 13.5885012,4.59984161 13.7103866,4.21400634 C13.8184809,3.86902156 13.9945795,3.54951868 14.2281534,3.27460081 C14.4603701,3.00893394 14.7484778,2.79868252 15.0715359,2.65912823 C15.4354747,2.50583701 15.8271548,2.43055824 16.2216031,2.43809163 C16.5837793,2.42963348 16.9439582,2.49442938 17.2808007,2.62864042 C17.5867513,2.75754627 17.8646063,2.94561214 18.0986262,3.18218465 L17.8307505,3.54994381 Z" id="Path" fill="#656763"></path>
                        <path d="M19.2004189,8.27650652 L19.2004189,2.5286023 L19.7759257,2.5286023 C19.8562431,2.51982017 19.9368534,2.54232039 20.0012063,2.59148341 C20.0503541,2.65298388 20.0797377,2.72808612 20.0854499,2.80680354 L20.1536021,3.70333559 C20.320494,3.33862535 20.568207,3.01726407 20.8777184,2.76393006 C21.2904187,2.45457213 21.8199162,2.34952123 22.3183786,2.47810688 C22.4426041,2.51237367 22.5619111,2.56265001 22.6733376,2.62768768 L22.5436592,3.38321362 C22.5289618,3.46793492 22.4538906,3.52838439 22.3685461,3.52421973 C22.2856446,3.51825607 22.2040312,3.50028646 22.1262275,3.47086607 C21.9777758,3.42951671 21.8239259,3.41120392 21.6699869,3.41655966 C21.349934,3.40675134 21.0376351,3.51673641 20.7934748,3.7252487 C20.5296489,3.97104033 20.3275428,4.27634422 20.2037696,4.61606429 L20.2037696,8.27555378 L19.2004189,8.27650652 Z" id="Path" fill="#656763"></path>
                        <path d="M26.0553868,2.43809163 C26.4421327,2.4326215 26.8261649,2.50384369 27.1855762,2.6476953 C27.5095717,2.78119415 27.8004151,2.98481405 28.0374778,3.24411301 C28.2799427,3.51410608 28.4642837,3.83167498 28.5789086,4.17684933 C28.7095375,4.57109796 28.7735294,4.98461133 28.76822,5.40017255 C28.773976,5.81638865 28.7099753,6.23060304 28.5789086,6.62540127 C28.4638244,6.96979678 28.2795209,7.28665251 28.0374778,7.5562321 C27.8007312,7.81496459 27.5097239,8.01739747 27.1855762,8.14883883 C26.4572303,8.42575286 25.6535433,8.42575286 24.9251974,8.14883883 C24.598766,8.01756867 24.3052528,7.81519156 24.0657234,7.5562321 C23.8219062,7.28697127 23.6356822,6.97013736 23.5186133,6.62540127 C23.3866178,6.23083078 23.3225922,5.81645557 23.3293018,5.40017255 C23.3230483,4.98454445 23.3870648,4.57087266 23.5186133,4.17684933 C23.6358114,3.83302547 23.8220429,3.51715167 24.0657234,3.24887673 C24.3055605,2.98934561 24.598912,2.78577922 24.9251974,2.65245902 C25.2842817,2.50697852 25.6683252,2.43413552 26.0553868,2.43809163 Z M26.0553868,7.56766503 C26.619535,7.56766503 27.0404374,7.37711624 27.3180942,6.99601866 C27.595751,6.61492108 27.734895,6.08456029 27.735526,5.40493627 C27.735526,4.72023096 27.5963821,4.18669435 27.3180942,3.80432645 C27.0398064,3.42195854 26.6189039,3.23140975 26.0553868,3.23268008 C25.799615,3.22621195 25.5455766,3.27663602 25.3113928,3.38035539 C25.1039667,3.47636091 24.9232177,3.6222979 24.7851069,3.80527919 C24.6352189,4.00895392 24.5276909,4.24096969 24.4689568,4.48744385 C24.3954271,4.78723007 24.3601205,5.09522001 24.3638889,5.40398353 C24.3600525,5.71180795 24.3953618,6.01886146 24.4689568,6.31766497 C24.5269567,6.56276409 24.63423,6.79330423 24.7841604,6.99506592 C24.9229033,7.177336 25.1039331,7.32258297 25.3113928,7.41808423 C25.5455696,7.52201058 25.7995141,7.5730664 26.0553868,7.56766503 L26.0553868,7.56766503 Z" id="Shape" fill="#656763"></path>
                        <path d="M33.2823518,3.47658253 C33.2433416,3.55576565 33.1618612,3.60460063 33.0741092,3.60139199 C33.006675,3.59720809 32.941461,3.57554681 32.8847977,3.53851089 C32.8138059,3.4975429 32.7257761,3.45085844 32.6226013,3.39941027 C32.5035236,3.34247537 32.3800694,3.29531985 32.253444,3.25840417 C32.0884455,3.21155802 31.9174958,3.1894076 31.7460893,3.19266483 C31.5915399,3.19059435 31.4376137,3.21277345 31.2898487,3.25840417 C31.1624649,3.29656269 31.0431165,3.35791861 30.9377293,3.43942552 C30.8459479,3.51012856 30.7706677,3.60020976 30.7171815,3.70333559 C30.6665264,3.80467158 30.6405691,3.91669053 30.6414569,4.03012676 C30.6393255,4.16269495 30.6854502,4.29146832 30.7711353,4.39216946 C30.8656134,4.49802852 30.9793548,4.58470068 31.1062165,4.64750484 C31.2581383,4.72482546 31.4165046,4.788586 31.5794952,4.83805363 C31.7555548,4.89331278 31.9372938,4.95143016 32.1228191,5.01431126 C32.3083443,5.07719236 32.4900833,5.14578992 32.6670895,5.22105669 C32.8371644,5.29395653 32.9964272,5.39013876 33.1403682,5.50687988 C33.2799492,5.62098734 33.3943885,5.76310573 33.476396,5.92418172 C33.565296,6.10861478 33.6088001,6.31187132 33.6032347,6.51678846 C33.6055967,6.76868209 33.5576346,7.01848413 33.4621976,7.25135404 C33.3684371,7.4754119 33.2257661,7.67534964 33.0447659,7.83633882 C32.8460821,8.00848207 32.6162941,8.14046289 32.3679774,8.22505835 C32.0701827,8.32445688 31.7578327,8.37245312 31.4441375,8.3670172 C31.0740153,8.37214377 30.7063728,8.30550973 30.3612759,8.17075194 C30.0599166,8.05331936 29.7814732,7.88335531 29.5387177,7.66865589 L29.775357,7.28279459 C29.8015802,7.23700451 29.8382415,7.19814427 29.882318,7.16941806 C29.9319244,7.14045799 29.9887953,7.12656095 30.0460724,7.12940281 C30.1238603,7.13329861 30.1985621,7.16124535 30.2599943,7.2094333 C30.3347723,7.26183422 30.4265884,7.32090435 30.5335494,7.38473819 C30.656909,7.45670577 30.7872675,7.51576649 30.9225844,7.56099582 C31.1063202,7.61846333 31.2981834,7.64517787 31.4905188,7.64007357 C31.6645305,7.6432329 31.8378684,7.61748075 32.0035529,7.56385405 C32.1381079,7.51969636 32.2626188,7.44910003 32.3698705,7.35615587 C32.4641749,7.27430357 32.5383668,7.17158224 32.5866321,7.05604153 C32.634287,6.94107324 32.6584317,6.81761663 32.6576239,6.69304609 C32.6645545,6.55087565 32.6213018,6.41081981 32.5355181,6.29765735 C32.4427297,6.18701495 32.3287752,6.09629234 32.2004368,6.03088905 C32.0489477,5.95260838 31.8904932,5.88881233 31.7271581,5.84034026 C31.5492053,5.78603385 31.3665198,5.72791647 31.1809946,5.6678936 C30.9954693,5.60787073 30.8118372,5.53832043 30.6338844,5.46019542 C30.4628305,5.38679288 30.303379,5.28857074 30.1606058,5.16865578 C30.0197975,5.04893661 29.9053504,4.90096764 29.824578,4.73420454 C29.7326797,4.53804493 29.687006,4.32318157 29.6911134,4.10634628 C29.6909946,3.88817997 29.7371419,3.67250105 29.8264711,3.4737243 C29.9188003,3.26961974 30.0533733,3.08771703 30.2211855,2.94018769 C30.4084667,2.77854714 30.62468,2.65437392 30.8582185,2.57433401 C31.1357677,2.47948391 31.427459,2.43339776 31.7205322,2.43809163 C32.0673202,2.43224358 32.4120331,2.49303538 32.7361882,2.61720749 C33.0237437,2.72865681 33.2870361,2.89530126 33.5114186,3.10787062 L33.2823518,3.47658253 Z" id="Path" fill="#656763"></path>
                        <path d="M37.2171904,2.43809163 C37.6039363,2.4326215 37.9879685,2.50384369 38.3473798,2.6476953 C38.6735209,2.7819702 38.9660703,2.98727981 39.2040142,3.24887673 C39.4464791,3.5188698 39.6308201,3.8364387 39.745445,4.18161305 C39.8760739,4.57586168 39.9400659,4.98937505 39.9347564,5.40493627 C39.9404943,5.82115109 39.8764941,6.23536246 39.745445,6.63016499 C39.6303608,6.9745605 39.4460573,7.29141623 39.2040142,7.56099582 C38.9659055,7.82030988 38.6732268,8.02278062 38.3473798,8.15360255 C37.619034,8.43051658 36.8153469,8.43051658 36.087001,8.15360255 C35.7604356,8.02258515 35.4668707,7.82017235 35.227527,7.56099582 C34.9837098,7.29173499 34.7974858,6.97490108 34.6804169,6.63016499 C34.5484214,6.2355945 34.4843959,5.82121929 34.4911054,5.40493627 C34.484852,4.98930817 34.5488684,4.57563638 34.6804169,4.18161305 C34.7970286,3.8360971 34.9832902,3.51855058 35.227527,3.24887673 C35.4671824,2.98913396 35.7605838,2.78553296 36.087001,2.65245902 C36.4460853,2.50697852 36.8301288,2.43413552 37.2171904,2.43809163 Z M37.2171904,7.56766503 C37.7800765,7.56766503 38.200979,7.37711624 38.4798979,6.99601866 C38.7588168,6.61492108 38.8979607,6.08456029 38.8973318,5.40493627 C38.8973318,4.72023096 38.7581857,4.18669435 38.4798979,3.80432645 C38.20161,3.42195854 37.7807075,3.23140975 37.2171904,3.23268008 C36.9614186,3.22621195 36.7073802,3.27663602 36.4731964,3.38035539 C36.2654265,3.47622868 36.0843403,3.62217537 35.945964,3.80527919 C35.7965635,4.00924572 35.6890834,4.24115821 35.6298139,4.48744385 C35.557093,4.78735957 35.5221117,5.09528607 35.5256925,5.40398353 C35.5220385,5.71174194 35.5570225,6.01873238 35.6298139,6.31766497 C35.6885277,6.56268727 35.7960864,6.79314869 35.945964,6.99506592 C36.084707,7.177336 36.2657367,7.32258297 36.4731964,7.41808423 C36.7073732,7.52201058 36.9613177,7.5730664 37.2171904,7.56766503 L37.2171904,7.56766503 Z" id="Shape" fill="#656763"></path>
                        <path d="M41.4000271,8.27650652 L41.4000271,3.39178832 L40.7686734,3.31747429 C40.6983658,3.30210658 40.6319774,3.27226362 40.5736826,3.22982185 C40.522759,3.18804881 40.4946394,3.12436617 40.497958,3.05832794 L40.497958,2.64197883 L41.4000271,2.64197883 L41.4000271,2.08652911 C41.3954239,1.78843365 41.4425108,1.49181426 41.539171,1.21000469 C41.6225501,0.968094456 41.7572386,0.747348084 41.9338854,0.563091547 C42.1073619,0.385026327 42.3182347,0.248300167 42.5510408,0.162939091 C42.8111341,0.0689225175 43.0859108,0.0227732841 43.3622404,0.0266967066 C43.6038035,0.024529997 43.8440406,0.0628456542 44.0731049,0.140073236 L44.0503876,0.645027527 C44.0561531,0.707622083 44.0161221,0.765240534 43.9557318,0.781269911 C43.8723402,0.798770702 43.7872085,0.806444264 43.7020545,0.804135765 L43.5269414,0.804135765 C43.3666659,0.802075589 43.2070325,0.824891694 43.0536627,0.871780585 C42.9163671,0.914915696 42.7916002,0.991115402 42.6901847,1.09376992 C42.5818163,1.20733681 42.5016984,1.34511313 42.4563851,1.49582787 C42.3966673,1.69659433 42.3688737,1.90560446 42.3740346,2.11511143 L42.3740346,2.64197883 L44.0257771,2.64197883 L44.0257771,3.37463893 L42.4090572,3.37463893 L42.4090572,8.27650652 L41.4000271,8.27650652 Z" id="Path" fill="#656763"></path>
                        <path d="M46.7045342,8.36796994 C46.2527109,8.36796994 45.9056399,8.24093742 45.6633212,7.98687236 C45.4210025,7.73280731 45.2998432,7.3675888 45.2998432,6.89121683 L45.2998432,3.37463893 L44.611696,3.37463893 C44.5562373,3.376268 44.5021907,3.35688806 44.4602469,3.32033252 C44.4154384,3.27673258 44.3924966,3.21515454 44.3977741,3.15264959 L44.3977741,2.75059164 L45.3339192,2.63054591 L45.5648792,0.854631194 C45.5712383,0.800784506 45.597207,0.751223422 45.6377641,0.715530578 C45.6823226,0.679109932 45.7384743,0.660157555 45.7958392,0.662176918 L46.3031939,0.662176918 L46.3031939,2.64197883 L47.9378984,2.64197883 L47.9378984,3.37463893 L46.3041405,3.37463893 L46.3041405,6.82452475 C46.3041405,7.06652171 46.3625115,7.24595516 46.4792536,7.36282508 C46.6005719,7.481658 46.7654627,7.54445688 46.9345476,7.53622448 C47.0275285,7.53824427 47.1201339,7.5237305 47.2081027,7.493351 C47.2777038,7.46846521 47.3446202,7.436544 47.4078263,7.39807661 C47.4646197,7.36377782 47.5128941,7.33329002 47.551703,7.30280221 C47.5815519,7.27804315 47.6182192,7.26308086 47.6567708,7.25992873 C47.7168041,7.26485304 47.7699227,7.30097863 47.7968613,7.35520313 L48.0902941,7.83824431 C47.9083272,8.00500142 47.6958044,8.13444884 47.4646197,8.21934189 C47.2224088,8.31521511 46.9647903,8.36559015 46.7045342,8.36796994 L46.7045342,8.36796994 Z" id="Path" fill="#656763"></path>
                        <path d="M0.902519792,20.9607424 L0.902519792,16.0760242 L0.271166076,16.0017102 C0.200531667,15.9873578 0.133936953,15.9574221 0.0761752727,15.9140577 C0.0243055265,15.8721807 -0.00396753785,15.807439 0.000450689099,15.7406583 L0.000450689099,15.3271674 L0.902519792,15.3271674 L0.902519792,14.770765 C0.897222003,14.472698 0.943999001,14.1760123 1.04071716,13.8942406 C1.12436124,13.6526741 1.25865504,13.4320456 1.43448499,13.2473274 C1.60812346,13.0694624 1.81894842,12.9327673 2.05164035,12.847175 C2.31205826,12.7531463 2.58714747,12.7069984 2.86378651,12.7109326 C3.1053431,12.7088543 3.34556572,12.7471677 3.57465104,12.8243091 L3.55193366,13.3292634 C3.5576992,13.3918579 3.51766821,13.4494764 3.45727793,13.4655058 C3.37390166,13.4831103 3.28875785,13.4907849 3.20360058,13.4883716 L3.02943403,13.4883716 C2.86906913,13.4859966 2.709339,13.5091481 2.55615539,13.5569692 C2.41873969,13.5999694 2.29370537,13.6758072 2.19173083,13.7780058 C2.08349261,13.8920413 2.00340499,14.0300918 1.95793118,14.1810165 C1.89996332,14.3808004 1.87314072,14.5884272 1.87842036,14.7964891 L1.87842036,15.3243092 L3.53016284,15.3243092 L3.53016284,16.0560166 L1.91154987,16.0560166 L1.91154987,20.9607424 L0.902519792,20.9607424 Z" id="Path" fill="#656763"></path>
                        <path d="M6.7872665,15.1223275 C7.17411557,15.1166841 7.55824181,15.1882475 7.91745591,15.3328839 C8.24309089,15.4654388 8.53560718,15.6687732 8.77409026,15.9283489 C9.01655645,16.1987032 9.20088926,16.5165823 9.31552103,16.8620379 C9.56792695,17.6581265 9.56792695,18.5135486 9.31552103,19.3096371 C9.2006604,19.654135 9.01633138,19.9710345 8.77409026,20.240468 C8.53603704,20.5000781 8.24336252,20.7028715 7.91745591,20.8340274 C7.18888909,21.1097206 6.38564391,21.1097206 5.65707709,20.8340274 C5.33058631,20.7024238 5.0370772,20.4997241 4.79760306,20.240468 C4.55358913,19.9713536 4.36733961,19.6544763 4.25049295,19.3096371 C3.99555284,18.5139477 3.99555284,17.6577274 4.25049295,16.8620379 C4.36708659,16.5162295 4.55334274,16.1983679 4.79760306,15.9283489 C5.03749542,15.6691154 5.33085071,15.4658716 5.65707709,15.3328839 C6.01629118,15.1882475 6.40041742,15.1166841 6.7872665,15.1223275 L6.7872665,15.1223275 Z M6.7872665,20.2519009 C7.35141465,20.2519009 7.77231712,20.0613521 8.04997393,19.6802545 C8.32763074,19.2991569 8.46677466,18.7684786 8.4674057,18.0882194 C8.4674057,17.4035141 8.32826178,16.8702951 8.04997393,16.4885623 C7.77168609,16.1068296 7.35078361,15.9162808 6.7872665,15.9169159 C6.53153435,15.9109148 6.27759572,15.9613191 6.04327246,16.0645913 C5.83525285,16.1604971 5.65410403,16.3068216 5.51604005,16.4904678 C5.36552339,16.6957605 5.25826239,16.9298404 5.20083647,17.1783489 C5.06073995,17.7802743 5.06073995,18.4066447 5.20083647,19.00857 C5.25904376,19.2538879 5.36629231,19.4846989 5.51604005,19.6869237 C5.65508847,19.8686552 5.83605747,20.0135264 6.04327246,20.1089893 C6.27782453,20.2110744 6.53184827,20.2598691 6.7872665,20.2519009 Z" id="Shape" fill="#656763"></path>
                        <path d="M10.7448226,20.9607424 L10.7448226,15.2137909 L11.3193828,15.2137909 C11.3995917,15.2045405 11.4802609,15.226716 11.5446635,15.2757193 C11.5945802,15.3368501 11.6243542,15.4121046 11.6298536,15.4910394 L11.6970592,16.3875715 C11.8646051,16.0232675 12.1125977,15.7022893 12.4221221,15.4491187 C12.7110986,15.2232961 13.0682115,15.1039287 13.4339918,15.1108946 C13.5784022,15.1092278 13.7223576,15.1275002 13.8618357,15.165201 C13.98616,15.1996159 14.1054881,15.2502214 14.2167947,15.3157345 L14.0890095,16.0703077 C14.0751685,16.1552646 14.0002814,16.2163032 13.9148429,16.2122666 C13.8319002,16.2059574 13.750291,16.1876679 13.6725243,16.1579602 C13.5236908,16.1169817 13.3695375,16.098992 13.2153371,16.1046065 C12.8956681,16.0940943 12.583444,16.2030349 12.338825,16.4104373 C12.0759453,16.6568477 11.8742718,16.9619878 11.7500664,17.3012529 L11.7500664,20.9607424 L10.7448226,20.9607424 Z" id="Path" fill="#656763"></path>
                        <path d="M21.7561236,14.100986 C21.7286655,14.149865 21.6923917,14.193161 21.6491626,14.2286537 C21.6062495,14.2587484 21.5546989,14.2738126 21.5024462,14.2715272 C21.4201449,14.2642861 21.3422544,14.2309246 21.2800053,14.1762528 C21.1765195,14.0994856 21.0690947,14.028249 20.9581758,13.9628381 C20.8094057,13.877154 20.6528244,13.8060085 20.4905765,13.7503762 C20.2764742,13.6819251 20.0525663,13.6497292 19.8279864,13.6551018 C19.6080912,13.6502715 19.3889407,13.6824734 19.1795946,13.7503762 C19.0055884,13.8076726 18.8446882,13.8993373 18.706316,14.0200028 C18.5831504,14.1303603 18.4861176,14.2670941 18.4223488,14.4201552 C18.3582466,14.5776122 18.3260641,14.746379 18.327693,14.9165348 C18.3196258,15.117926 18.3782228,15.3163132 18.4942871,15.4805592 C18.6133188,15.636426 18.7627871,15.7661201 18.9334897,15.8616568 C19.130261,15.9745272 19.3380126,16.0667908 19.5534847,16.1369998 L20.2643493,16.378044 C20.5066679,16.4618855 20.7433073,16.5571599 20.9742672,16.6638672 C21.1992129,16.7636886 21.4081626,16.8966208 21.5942623,17.0583032 C21.7792959,17.2208406 21.9291195,17.4199652 22.0344114,17.643288 C22.152473,17.9107467 22.2090932,18.20156 22.2000589,18.4940883 C22.2025716,18.8362256 22.1415773,19.1758258 22.0202131,19.4954222 C21.9037301,19.8014536 21.7240243,20.0791066 21.4929806,20.3100183 C21.2492655,20.5484739 20.9592378,20.7336831 20.6410791,20.8540351 C20.274375,20.9919208 19.8852581,21.0594595 19.4938516,21.0531586 C19.0027775,21.0598077 18.5158039,20.9624257 18.0645501,20.7673354 C17.6487497,20.5872897 17.2738339,20.323717 16.9627574,19.9927545 L17.277961,19.4706509 C17.3083046,19.4296243 17.3454489,19.394171 17.3877617,19.365849 C17.430452,19.3375489 17.4805221,19.3226286 17.5316384,19.3229755 C17.6337234,19.33313 17.7292688,19.3781886 17.8023537,19.4506432 C17.9233411,19.5512529 18.04974,19.6450814 18.1809767,19.7317027 C18.3547018,19.845056 18.5400296,19.9392838 18.7337661,20.0127622 C18.9874567,20.1040898 19.255748,20.1473745 19.525088,20.1404299 C19.7607338,20.1440842 19.9953027,20.1076865 20.2189145,20.0327698 C20.4095487,19.9676753 20.5850563,19.8642756 20.7347882,19.7288445 C20.875458,19.598681 20.9859745,19.4389784 21.0585108,19.2610472 C21.1359841,19.0683602 21.1742858,18.8619934 21.1711512,18.6541493 C21.1803166,18.4399924 21.1223697,18.2283536 21.0055036,18.0491569 C20.8892265,17.8879029 20.7401465,17.7534386 20.5681942,17.6547209 C20.3730199,17.5423862 20.1660263,17.4522732 19.9510388,17.3860471 L19.2411208,17.1583413 C18.9994232,17.0816833 18.7621083,16.9916711 18.5302563,16.8887148 C18.3050476,16.7902089 18.0967513,16.6564396 17.913101,16.4923733 C17.7273482,16.3212824 17.578779,16.1133533 17.476738,15.8816644 C17.2542706,15.3237064 17.2542706,14.7008648 17.476738,14.1429067 C17.5872339,13.8741367 17.7511954,13.6309641 17.9585357,13.4283488 C18.1828488,13.2105554 18.4484283,13.0404457 18.7394455,12.9281582 C19.0799878,12.7965653 19.4424304,12.7318824 19.8071621,12.7376094 C20.227003,12.7325934 20.6441603,12.8055886 21.0376866,12.9529295 C21.4020623,13.091382 21.7342468,13.3038 22.0135872,13.5769768 L21.7561236,14.100986 Z" id="Path" fill="#656763"></path>
                        <path d="M25.1703557,21.0522058 C24.7185324,21.0522058 24.3714614,20.9251733 24.1291427,20.6711082 C23.886824,20.4170432 23.7656647,20.0518247 23.7656647,19.5754527 L23.7656647,16.0588748 L23.0813038,16.0588748 C23.025845,16.0605039 22.9717984,16.0411239 22.9298546,16.0045684 C22.8850827,15.9613401 22.8621211,15.9000593 22.8673818,15.8378382 L22.8673818,15.4348275 L23.803527,15.3157345 L24.0278611,13.5398198 C24.0340435,13.4859179 24.0600438,13.4362965 24.100746,13.4007192 C24.1449969,13.3636435 24.2012835,13.3443064 24.2588211,13.3464128 L24.7661758,13.3464128 L24.7661758,15.3271674 L26.4008802,15.3271674 L26.4008802,16.0588748 L24.769962,16.0588748 L24.769962,19.5087606 C24.769962,19.7507576 24.828333,19.9305086 24.9450751,20.0480137 C25.0648702,20.1664063 25.2278734,20.2298278 25.3956364,20.2233186 C25.4885288,20.225142 25.581047,20.2109641 25.6691914,20.1813978 C25.7386302,20.1561185 25.805509,20.1242152 25.868915,20.0861234 C25.9184562,20.0568548 25.9664778,20.0250551 26.0127917,19.9908491 C26.0426407,19.96609 26.079308,19.9511277 26.1178596,19.9479756 C26.177957,19.9527156 26.2311574,19.9888968 26.2579501,20.04325 L26.5513828,20.5253384 C26.3698601,20.6926933 26.1572132,20.8222163 25.9257085,20.906436 C25.6847994,21.0007626 25.4288424,21.0501578 25.1703557,21.0522058 Z" id="Path" fill="#656763"></path>
                        <path d="M31.8388519,20.9607424 L31.39397,20.9607424 C31.3127097,20.9644578 31.2317023,20.9491289 31.1573306,20.9159634 C31.0898918,20.875141 31.0459152,20.8043185 31.039011,20.7254146 L30.9254241,20.1928308 C30.775868,20.3287556 30.6294672,20.4507068 30.4862215,20.5586844 C30.345439,20.6649144 30.1941339,20.756227 30.0347137,20.8311692 C29.8734947,20.9061482 29.704197,20.9620971 29.5301986,20.9978994 C29.3345686,21.0377212 29.135343,21.0568799 28.9357607,21.055064 C28.7244706,21.0563675 28.5142914,21.0242166 28.312926,20.9597896 C28.1267831,20.9009904 27.9549273,20.8036288 27.8084109,20.6739665 C27.6608745,20.5428104 27.5444316,20.3800271 27.4676503,20.1975945 C27.3781797,19.9823829 27.3349538,19.7505546 27.3408116,19.5173353 C27.3430039,19.2849025 27.4084822,19.0575257 27.5301231,18.859942 C27.6800827,18.6250565 27.8864906,18.4320457 28.1302404,18.2987758 C28.470486,18.1118644 28.8363545,17.9766967 29.2159416,17.8976706 C29.7552704,17.7844044 30.3054615,17.7319975 30.8563254,17.7414206 L30.8563254,17.2926782 C30.8563254,16.8442534 30.7616697,16.504759 30.5723582,16.2741949 C30.3830468,16.0436309 30.1022348,15.9283489 29.7299222,15.9283489 C29.5202584,15.9236461 29.311393,15.95589 29.1127669,16.0236233 C28.9610785,16.0784473 28.8154709,16.1490129 28.6782971,16.2341797 C28.5561912,16.3113519 28.4511233,16.3809022 28.3630935,16.4437833 C28.2875577,16.5020164 28.1959701,16.5352966 28.1008971,16.5390577 C28.0375188,16.5402716 27.9753325,16.521627 27.9229444,16.4857041 C27.8736006,16.4504131 27.8322966,16.4049415 27.801785,16.3523199 L27.6219391,16.028387 C27.9153918,15.7366431 28.2613723,15.5038352 28.6413813,15.3424113 C29.0266905,15.1867773 29.4387783,15.1093903 29.8539212,15.1147055 C30.1456373,15.1094417 30.4354024,15.1635606 30.7058228,15.2738138 C30.9445455,15.3727679 31.1583043,15.5241257 31.3314972,15.7168397 C31.5047899,15.9157558 31.6338766,16.1496307 31.7101201,16.4028154 C31.7995011,16.6891069 31.8432694,16.9878406 31.8397984,17.2879145 L31.8388519,20.9607424 Z M29.2339262,20.3424116 C29.3970106,20.3442012 29.5597193,20.3262887 29.7185635,20.2890579 C29.8622115,20.254311 30.0013473,20.2028332 30.1331556,20.1356661 C30.2649649,20.068241 30.3896074,19.987476 30.5051527,19.8946219 C30.6284017,19.7953803 30.744197,19.6871079 30.8515926,19.570689 L30.8515926,18.3854755 C30.4569499,18.3801675 30.0626083,18.4098169 29.6731288,18.4740807 C29.4014797,18.5175743 29.1362867,18.5950277 28.8837,18.7046447 C28.7101245,18.7771739 28.557929,18.8932966 28.4416577,19.0419161 C28.3506055,19.1677635 28.3021566,19.3197384 28.3034604,19.4754146 C28.3000992,19.6103591 28.3252655,19.7444822 28.3772919,19.8688978 C28.4214532,19.9733568 28.4888041,20.0662437 28.5741758,20.1404299 C28.6595667,20.2126924 28.7597659,20.2650715 28.8676085,20.2938216 C28.986861,20.3271568 29.1101651,20.3435124 29.2339262,20.3424116 L29.2339262,20.3424116 Z" id="Shape" fill="#656763"></path>
                        <path d="M33.360916,20.9607424 L33.360916,15.2137909 L33.9354763,15.2137909 C34.0159763,15.2045865 34.0969234,15.2267452 34.1617035,15.2757193 C34.2108512,15.3372197 34.2402349,15.412322 34.2459471,15.4910394 L34.3140992,16.3875715 C34.4809983,16.0231347 34.7287219,15.7020856 35.0382155,15.4491187 C35.3270106,15.2236402 35.6837046,15.1043012 36.0491387,15.1108946 C36.1935532,15.1091555 36.3375184,15.1274291 36.4769826,15.165201 C36.6015461,15.1997924 36.7211651,15.2503863 36.8328882,15.3157345 L36.7032098,16.0703077 C36.6885474,16.1551806 36.6136062,16.2159331 36.5280967,16.2122666 C36.445154,16.2059574 36.3635448,16.1876679 36.2857781,16.1579602 C36.1372575,16.1170341 35.983424,16.0990445 35.8295374,16.1046065 C35.5095866,16.094129 35.1970781,16.2030513 34.9520788,16.4104373 C34.6891991,16.6568477 34.4875256,16.9619878 34.3633202,17.3012529 L34.3633202,20.9607424 L33.360916,20.9607424 Z" id="Path" fill="#656763"></path>
                        <path d="M39.6356443,21.0522058 C39.184452,21.0522058 38.837381,20.9251733 38.5944313,20.6711082 C38.3514816,20.4170432 38.2303223,20.0518247 38.2309533,19.5754527 L38.2309533,16.0588748 L37.5428061,16.0588748 C37.4870819,16.060374 37.4327842,16.041025 37.3904104,16.0045684 C37.3463302,15.9609393 37.3237881,15.8998521 37.3288842,15.8378382 L37.3288842,15.4348275 L38.2640828,15.3157345 L38.4959893,13.5398198 C38.5013301,13.4856594 38.5274848,13.4357433 38.5688743,13.4007192 C38.6130355,13.363483 38.6693852,13.3441241 38.7269493,13.3464128 L39.234304,13.3464128 L39.234304,15.3271674 L40.8690085,15.3271674 L40.8690085,16.0588748 L39.2352506,16.0588748 L39.2352506,19.5087606 C39.2352506,19.7507576 39.2933061,19.9305086 39.4094171,20.0480137 C39.5295033,20.1665548 39.6928566,20.2299792 39.860925,20.2233186 C39.9538125,20.2250674 40.0463182,20.2108914 40.13448,20.1813978 C40.2038388,20.1559254 40.2706999,20.1240306 40.3342036,20.0861234 C40.390997,20.0527774 40.4383249,20.0213369 40.4780803,19.9908491 C40.5076695,19.9662686 40.5439802,19.9513172 40.5822016,19.9479756 C40.6425824,19.9525776 40.6961291,19.9887499 40.7232387,20.04325 L41.0166714,20.5253384 C40.8351487,20.6926933 40.6225018,20.8222163 40.390997,20.906436 C40.1500646,21.0006808 39.8941227,21.0500731 39.6356443,21.0522058 Z" id="Path" fill="#656763"></path>
                        <path d="M42.9779381,15.2137909 L42.9779381,18.8789969 C42.9779381,19.3134481 43.0776422,19.6500843 43.2770502,19.8889055 C43.4764583,20.1277266 43.777148,20.2468196 44.1791193,20.2461844 C44.468281,20.2472303 44.7530725,20.1751576 45.007357,20.0365808 C45.2788894,19.8864729 45.5213013,19.6883066 45.7229543,19.451596 L45.7229543,15.2137909 L46.726305,15.2137909 L46.726305,20.9607424 L46.1290274,20.9607424 C45.9988445,20.9707318 45.8821121,20.8803507 45.858312,20.7511387 L45.7797477,20.1318552 C45.5413867,20.40018 45.2593868,20.625708 44.9458308,20.7987759 C44.6191276,20.9712265 44.2545273,21.0580574 43.8856866,21.0512531 C43.6025082,21.0567502 43.3212327,21.003565 43.0593421,20.8950031 C42.828389,20.7965883 42.6230466,20.645976 42.4592247,20.4548354 C42.2911905,20.2546511 42.1672995,20.0208371 42.0957467,19.7688597 C42.0122754,19.4794874 41.9714539,19.17935 41.9745874,18.8780441 L41.9745874,15.2137909 L42.9779381,15.2137909 Z" id="Path" fill="#656763"></path>
                        <path d="M48.3780475,22.9071983 L48.3780475,15.2137909 L48.9762717,15.2137909 C49.1064545,15.2038015 49.223187,15.2941826 49.2469871,15.4233946 L49.3312307,16.1046065 C49.5644631,15.8151849 49.8479835,15.5708097 50.1679874,15.3833793 C50.4995947,15.1975483 50.8742206,15.1035263 51.2536886,15.1108946 C51.560985,15.1068567 51.8652973,15.1719579 52.144399,15.3014434 C52.4135896,15.4298377 52.6475444,15.6224767 52.8259202,15.8626095 C53.0278397,16.1393336 53.1753124,16.4523762 53.26039,16.7848657 C53.3675474,17.1977849 53.4188093,17.6233793 53.4127858,18.0501096 C53.4159882,18.4508938 53.3588624,18.8498545 53.243352,19.2334176 C53.142182,19.5786136 52.9778152,19.9017407 52.7587147,20.1861616 C52.5497798,20.4512299 52.285004,20.6663223 51.9834842,20.8159253 C51.6610133,20.9722828 51.3067943,21.0508965 50.9488971,21.0455366 C50.6380999,21.0539106 50.3292447,20.9937519 50.0439883,20.869279 C49.7914677,20.7503297 49.5659365,20.5804001 49.3813982,20.3700411 L49.3813982,22.911962 L48.3780475,22.9071983 Z M50.9205004,15.9283489 C50.6185799,15.9215539 50.3208162,16.0001122 50.0610264,16.1551019 C49.7965072,16.3236563 49.5661992,16.5412439 49.3823448,16.7962986 L49.3823448,19.5764054 C49.5366475,19.8011102 49.745087,19.98272 49.9881415,20.1042256 C50.2192413,20.2087653 50.4702746,20.2611212 50.7236165,20.2576174 C51.2536886,20.2576174 51.6613392,20.0670686 51.9465685,19.685971 C52.2317978,19.3048734 52.3747279,18.7602215 52.375359,18.0520151 C52.3818081,17.7279857 52.3500341,17.4043306 52.2807032,17.0878383 C52.2288294,16.8512185 52.1324395,16.6267792 51.996736,16.426634 C51.8819994,16.260128 51.7242364,16.1283486 51.5404954,16.0455364 C51.3441806,15.9634849 51.1330146,15.9235717 50.9205004,15.9283489 L50.9205004,15.9283489 Z" id="Shape" fill="#656763"></path>
                        <path d="M57.8710706,16.1608184 C57.8322455,16.2401737 57.7506424,16.2890822 57.662828,16.2856279 C57.5955199,16.2815194 57.5303639,16.2602053 57.4735166,16.2236995 C57.4015782,16.1817788 57.3144949,16.1350943 57.2113202,16.0845989 C57.0921452,16.0276356 56.9687141,15.9801703 56.8421628,15.94264 C56.6771506,15.8958616 56.5062109,15.8737125 56.3348081,15.8769007 C56.179944,15.8747621 56.0256956,15.8969417 55.877621,15.94264 C55.7525861,15.9809493 55.6352905,16.0412707 55.531181,16.1208032 C55.4396789,16.1915418 55.3647152,16.2816308 55.3115797,16.3847132 C55.2603888,16.4858908 55.2340941,16.5979654 55.2349086,16.7115044 C55.2289351,16.8465669 55.2731399,16.9790291 55.3589076,17.0830745 C55.4536808,17.1890136 55.5677475,17.2756888 55.6949354,17.3384099 C55.8467593,17.4159482 56.0051451,17.4797166 56.168214,17.5289587 C56.3442737,17.5842178 56.5260127,17.6423352 56.7124845,17.7052163 C56.8989563,17.7680974 57.0797487,17.836695 57.2558084,17.9119618 C57.4261074,17.9844185 57.585429,18.0806363 57.729087,18.1977849 C58.034286,18.4410741 58.2061655,18.8160905 58.1919535,19.2076935 C58.1943156,19.4595872 58.1463535,19.7093892 58.0509165,19.9422591 C57.957908,20.1667402 57.8151236,20.3668368 57.6334847,20.5272439 C57.4356273,20.7000563 57.2060112,20.832123 56.9576428,20.9159634 C56.6595219,21.0153612 56.3468611,21.063356 56.0328564,21.0579223 C55.6627419,21.0629538 55.2951173,20.996323 54.9499948,20.861657 C54.6484592,20.7445852 54.3699557,20.5745844 54.1274365,20.359561 L54.3640758,19.9736997 C54.3908486,19.9283253 54.4274012,19.8895803 54.4710368,19.8603231 C54.5206836,19.8314643 54.5775244,19.8175746 54.6347912,19.8203079 C54.7125792,19.8242037 54.7872809,19.8521504 54.8487132,19.9003384 C54.9244378,19.953692 55.0153073,20.0118094 55.1222682,20.0756433 C55.2454307,20.1479968 55.3758301,20.207076 55.5113033,20.2519009 C55.6950007,20.3096236 55.886854,20.3366586 56.0792377,20.3319314 C56.2530245,20.3352813 56.4261338,20.3091935 56.5913252,20.2547591 C56.72601,20.2107021 56.8507911,20.1404585 56.9585894,20.0480137 C57.0524396,19.9653625 57.1265361,19.8624474 57.175351,19.7469466 C57.2222416,19.6317779 57.2460465,19.5084139 57.2453963,19.3839512 C57.2511695,19.2414592 57.2061877,19.1015775 57.1185576,18.9895152 C57.0259882,18.8786454 56.9119841,18.7878832 56.7834763,18.7227469 C56.6319299,18.6445928 56.4734874,18.5808016 56.3101976,18.5321981 C56.1312983,18.4769389 55.9495593,18.4197743 55.7630875,18.3587987 C55.5766157,18.2978231 55.3948767,18.2292255 55.2159774,18.1520532 C55.0451849,18.0777379 54.8858155,17.9792455 54.7426988,17.8595608 C54.6018244,17.7401407 54.4876325,17.5920847 54.4076175,17.4251096 C54.3175861,17.228877 54.2741613,17.0142476 54.2807788,16.7982041 C54.2803967,16.5800097 54.3265558,16.3642753 54.4161365,16.1655821 C54.5077988,15.9610817 54.6424708,15.7790452 54.8108509,15.6320455 C54.9978904,15.4705669 55.2137622,15.3464053 55.4469374,15.2661918 C55.7247867,15.1712336 56.0168075,15.125146 56.3101976,15.1299494 C56.6557086,15.1246789 56.9990741,15.1854596 57.3220674,15.3090653 C57.609217,15.4213287 57.8723622,15.58788 58.0972978,15.7997284 L57.8710706,16.1608184 Z" id="Path" fill="#656763"></path>
                        <path d="M4.05021604,32.2943896 C4.09470515,32.2943896 4.13312699,32.3115784 4.16548271,32.3459563 L4.48701604,32.6947896 C4.30905959,32.915213 4.09015623,33.0840668 3.83029937,33.2013563 C3.57044252,33.3186458 3.25851786,33.3772896 2.89451604,33.3772896 C2.56893663,33.3772896 2.27622289,33.3216791 2.01636604,33.2104563 C1.75650918,33.0992335 1.53457251,32.9445351 1.35054937,32.7463563 C1.16652623,32.5481775 1.02547764,32.3115799 0.927399372,32.0365563 C0.829321104,31.7615327 0.780282705,31.4612357 0.780282705,31.1356563 C0.780282705,30.8060324 0.834882159,30.5042188 0.944082705,30.2302063 C1.05328325,29.9561938 1.2069706,29.7201017 1.40514937,29.521923 C1.60332814,29.3237442 1.84043132,29.1695513 2.11646604,29.0593396 C2.39250075,28.949128 2.6973477,28.894023 3.03101604,28.894023 C3.35659544,28.894023 3.64122038,28.9460947 3.88489937,29.0502396 C4.12857837,29.1543846 4.33737072,29.2923999 4.51128271,29.4642896 L4.23828271,29.8434563 C4.22210485,29.8677231 4.20137728,29.8889562 4.17609937,29.9071563 C4.15082147,29.9253564 4.11593848,29.9344563 4.07144937,29.9344563 C4.02493803,29.9344563 3.97741628,29.9162565 3.92888271,29.8798563 C3.88034913,29.8434561 3.81867197,29.8040232 3.74384937,29.7615563 C3.66902678,29.7190894 3.57448883,29.6796565 3.46023271,29.6432563 C3.34597658,29.6068561 3.20088358,29.5886563 3.02494937,29.5886563 C2.81868167,29.5886563 2.62910024,29.6245504 2.45619937,29.6963396 C2.28329851,29.7681289 2.13466666,29.8707556 2.01029937,30.004223 C1.88593208,30.1376903 1.78886639,30.299972 1.71909937,30.491073 C1.64933236,30.6821739 1.61444937,30.8970329 1.61444937,31.1356563 C1.61444937,31.3823687 1.64933236,31.6017776 1.71909937,31.7938896 C1.78886639,31.9860017 1.88340433,32.1477779 2.00271604,32.279223 C2.12202775,32.4106681 2.26257079,32.5112726 2.42434937,32.5810396 C2.58612796,32.6508067 2.76003733,32.6856896 2.94608271,32.6856896 C3.05730548,32.6856896 3.15791003,32.679623 3.24789937,32.6674896 C3.33788871,32.6553562 3.42079899,32.6361453 3.49663271,32.6098563 C3.57246642,32.5835673 3.64425459,32.5496954 3.71199937,32.5082396 C3.77974415,32.4667839 3.84698237,32.4157233 3.91371604,32.3550563 C3.93393836,32.3368562 3.95517148,32.3221953 3.97741604,32.311073 C3.99966059,32.2999507 4.02392702,32.2943896 4.05021604,32.2943896 Z M10.8287828,33.3287563 L10.0067494,33.3287563 L10.0067494,31.4116896 L7.95014944,31.4116896 L7.95014944,33.3287563 L7.12811611,33.3287563 L7.12811611,28.9425563 L7.95014944,28.9425563 L7.95014944,30.8292896 L10.0067494,30.8292896 L10.0067494,28.9425563 L10.8287828,28.9425563 L10.8287828,33.3287563 Z M17.9470828,31.1356563 C17.9470828,31.4571912 17.8934945,31.7549605 17.7863162,32.028973 C17.6791379,32.3029855 17.5284838,32.5400886 17.3343495,32.7402896 C17.1402152,32.9404906 16.9066509,33.0967057 16.6336495,33.2089396 C16.3606481,33.3211735 16.058329,33.3772896 15.7266828,33.3772896 C15.3950367,33.3772896 15.092212,33.3211735 14.8181995,33.2089396 C14.544187,33.0967057 14.3096116,32.9404906 14.1144662,32.7402896 C13.9193208,32.5400886 13.7681612,32.3029855 13.6609828,32.028973 C13.5538045,31.7549605 13.5002162,31.4571912 13.5002162,31.1356563 C13.5002162,30.8141214 13.5538045,30.5163521 13.6609828,30.2423396 C13.7681612,29.9683272 13.9193208,29.731224 14.1144662,29.531023 C14.3096116,29.330822 14.544187,29.1746069 14.8181995,29.062373 C15.092212,28.9501391 15.3950367,28.894023 15.7266828,28.894023 C16.058329,28.894023 16.3606481,28.9506446 16.6336495,29.0638896 C16.9066509,29.1771347 17.1402152,29.3333498 17.3343495,29.5325396 C17.5284838,29.7317295 17.6791379,29.9683272 17.7863162,30.2423396 C17.8934945,30.5163521 17.9470828,30.8141214 17.9470828,31.1356563 Z M17.1098828,31.1356563 C17.1098828,30.8950107 17.0780332,30.6791406 17.0143328,30.4880396 C16.9506325,30.2969387 16.8591279,30.134657 16.7398162,30.0011896 C16.6205045,29.8677223 16.4754115,29.7656011 16.3045328,29.694823 C16.1336542,29.6240448 15.9410395,29.5886563 15.7266828,29.5886563 C15.5123262,29.5886563 15.3192059,29.6240448 15.1473162,29.694823 C14.9754264,29.7656011 14.8293223,29.8677223 14.7089995,30.0011896 C14.5886767,30.134657 14.4961609,30.2969387 14.4314495,30.4880396 C14.3667381,30.6791406 14.3343828,30.8950107 14.3343828,31.1356563 C14.3343828,31.376302 14.3667381,31.592172 14.4314495,31.783273 C14.4961609,31.9743739 14.5886767,32.1361501 14.7089995,32.2686063 C14.8293223,32.4010625 14.9754264,32.5026782 15.1473162,32.5734563 C15.3192059,32.6442344 15.5123262,32.679623 15.7266828,32.679623 C15.9410395,32.679623 16.1336542,32.6442344 16.3045328,32.5734563 C16.4754115,32.5026782 16.6205045,32.4010625 16.7398162,32.2686063 C16.8591279,32.1361501 16.9506325,31.9743739 17.0143328,31.783273 C17.0780332,31.592172 17.1098828,31.376302 17.1098828,31.1356563 Z M21.5345829,33.3287563 L20.7155829,33.3287563 L20.7155829,28.9425563 L21.5345829,28.9425563 L21.5345829,33.3287563 Z M27.560883,32.2943896 C27.6053721,32.2943896 27.6437939,32.3115784 27.6761497,32.3459563 L27.997683,32.6947896 C27.8197265,32.915213 27.6008232,33.0840668 27.3409663,33.2013563 C27.0811095,33.3186458 26.7691848,33.3772896 26.405183,33.3772896 C26.0796036,33.3772896 25.7868898,33.3216791 25.527033,33.2104563 C25.2671761,33.0992335 25.0452395,32.9445351 24.8612163,32.7463563 C24.6771932,32.5481775 24.5361446,32.3115799 24.4380663,32.0365563 C24.3399881,31.7615327 24.2909497,31.4612357 24.2909497,31.1356563 C24.2909497,30.8060324 24.3455491,30.5042188 24.4547497,30.2302063 C24.5639502,29.9561938 24.7176376,29.7201017 24.9158163,29.521923 C25.1139951,29.3237442 25.3510983,29.1695513 25.627133,29.0593396 C25.9031677,28.949128 26.2080147,28.894023 26.541683,28.894023 C26.8672624,28.894023 27.1518873,28.9460947 27.3955663,29.0502396 C27.6392453,29.1543846 27.8480377,29.2923999 28.0219497,29.4642896 L27.7489497,29.8434563 C27.7327718,29.8677231 27.7120442,29.8889562 27.6867663,29.9071563 C27.6614884,29.9253564 27.6266054,29.9344563 27.5821163,29.9344563 C27.535605,29.9344563 27.4880832,29.9162565 27.4395497,29.8798563 C27.3910161,29.8434561 27.3293389,29.8040232 27.2545163,29.7615563 C27.1796937,29.7190894 27.0851558,29.6796565 26.9708997,29.6432563 C26.8566435,29.6068561 26.7115505,29.5886563 26.5356163,29.5886563 C26.3293486,29.5886563 26.1397672,29.6245504 25.9668663,29.6963396 C25.7939655,29.7681289 25.6453336,29.8707556 25.5209663,30.004223 C25.396599,30.1376903 25.2995333,30.299972 25.2297663,30.491073 C25.1599993,30.6821739 25.1251163,30.8970329 25.1251163,31.1356563 C25.1251163,31.3823687 25.1599993,31.6017776 25.2297663,31.7938896 C25.2995333,31.9860017 25.3940713,32.1477779 25.513383,32.279223 C25.6326947,32.4106681 25.7732377,32.5112726 25.9350163,32.5810396 C26.0967949,32.6508067 26.2707043,32.6856896 26.4567497,32.6856896 C26.5679724,32.6856896 26.668577,32.679623 26.7585663,32.6674896 C26.8485557,32.6553562 26.9314659,32.6361453 27.0072997,32.6098563 C27.0831334,32.5835673 27.1549215,32.5496954 27.2226663,32.5082396 C27.2904111,32.4667839 27.3576493,32.4157233 27.424383,32.3550563 C27.4446053,32.3368562 27.4658384,32.3221953 27.488083,32.311073 C27.5103275,32.2999507 27.534594,32.2943896 27.560883,32.2943896 Z M33.4051831,28.9425563 L33.4051831,29.5916896 L31.4608164,29.5916896 L31.4608164,30.8080563 L32.9926497,30.8080563 L32.9926497,31.4359563 L31.4608164,31.4359563 L31.4608164,32.6765896 L33.4051831,32.6765896 L33.4051831,33.3287563 L30.6387831,33.3287563 L30.6387831,28.9425563 L33.4051831,28.9425563 Z M43.1888499,33.3287563 L42.5579165,33.3287563 C42.4871384,33.3287563 42.4290001,33.311062 42.3834999,33.275673 C42.3379996,33.2402839 42.3051389,33.196301 42.2849165,33.143723 L41.9573165,32.2488896 L40.1403499,32.2488896 L39.8127499,33.143723 C39.796572,33.1902343 39.7647223,33.2327006 39.7171999,33.271123 C39.6696774,33.3095454 39.6115391,33.3287563 39.5427832,33.3287563 L38.9088165,33.3287563 L40.6317499,28.9425563 L41.4659165,28.9425563 L43.1888499,33.3287563 Z M40.3496499,31.6725563 L41.7480165,31.6725563 L41.2141499,30.213523 C41.1898831,30.1488115 41.1630889,30.0724734 41.1337665,29.9845063 C41.1044442,29.8965392 41.0756278,29.8009902 41.0473165,29.6978563 C41.0190053,29.8009902 40.9912,29.8970448 40.9638999,29.986023 C40.9365997,30.0750012 40.9098056,30.152856 40.8835165,30.2195896 L40.3496499,31.6725563 Z M44.9502833,28.9425563 L45.6358166,28.9425563 C45.7065947,28.9425563 45.7657441,28.9592395 45.8132666,28.9926063 C45.8607891,29.0259731 45.8926387,29.0709671 45.9088166,29.1275896 L46.6550166,31.751423 C46.6732167,31.8161344 46.6898999,31.8864059 46.7050666,31.9622396 C46.7202334,32.0380734 46.7348943,32.1184559 46.7490499,32.2033896 C46.7652278,32.1184559 46.7829221,32.0380734 46.8021333,31.9622396 C46.8213445,31.8864059 46.8420721,31.8161344 46.8643166,31.751423 L47.7257833,29.1275896 C47.7419611,29.0810783 47.7738108,29.0386121 47.8213333,29.0001896 C47.8688557,28.9617672 47.926994,28.9425563 47.9957499,28.9425563 L48.2353833,28.9425563 C48.3061614,28.9425563 48.3648053,28.9592395 48.4113166,28.9926063 C48.457828,29.0259731 48.4901832,29.0709671 48.5083833,29.1275896 L49.3637833,31.751423 C49.4082724,31.8808458 49.4466942,32.0244222 49.4790499,32.1821563 C49.4932056,32.1032892 49.5078665,32.0274567 49.5230333,31.9546563 C49.5382,31.8818559 49.5538721,31.8141122 49.5700499,31.751423 L50.3162499,29.1275896 C50.3304056,29.0770338 50.3617497,29.0335565 50.4102833,28.9971563 C50.4588169,28.9607561 50.5174607,28.9425563 50.5862166,28.9425563 L51.2262499,28.9425563 L49.8642833,33.3287563 L49.1271833,33.3287563 L48.1686499,30.331823 C48.1565165,30.2934006 48.1438778,30.2519454 48.1307333,30.2074563 C48.1175888,30.1629672 48.10495,30.1154454 48.0928166,30.0648896 C48.0806832,30.1154454 48.0680445,30.1629672 48.0548999,30.2074563 C48.0417554,30.2519454 48.0291167,30.2934006 48.0169833,30.331823 L47.0493499,33.3287563 L46.3122499,33.3287563 L44.9502833,28.9425563 Z M57.2282833,33.3287563 L56.59735,33.3287563 C56.5265719,33.3287563 56.4684336,33.311062 56.4229333,33.275673 C56.3774331,33.2402839 56.3445723,33.196301 56.32435,33.143723 L55.99675,32.2488896 L54.1797833,32.2488896 L53.8521833,33.143723 C53.8360055,33.1902343 53.8041558,33.2327006 53.7566333,33.271123 C53.7091109,33.3095454 53.6509726,33.3287563 53.5822167,33.3287563 L52.94825,33.3287563 L54.6711833,28.9425563 L55.50535,28.9425563 L57.2282833,33.3287563 Z M54.3890833,31.6725563 L55.78745,31.6725563 L55.2535833,30.213523 C55.2293166,30.1488115 55.2025224,30.0724734 55.1732,29.9845063 C55.1438776,29.8965392 55.1150613,29.8009902 55.08675,29.6978563 C55.0584388,29.8009902 55.0306335,29.8970448 55.0033333,29.986023 C54.9760332,30.0750012 54.949239,30.152856 54.92295,30.2195896 L54.3890833,31.6725563 Z M60.5488501,31.614923 L60.5488501,33.3287563 L59.7328834,33.3287563 L59.7328834,28.9425563 L61.0705834,28.9425563 C61.3698738,28.9425563 61.6261879,28.9733949 61.8395334,29.035073 C62.0528789,29.0967511 62.2277994,29.1832002 62.3643001,29.294423 C62.5008008,29.4056458 62.6008998,29.5386055 62.6646001,29.6933063 C62.7283004,29.8480071 62.7601501,30.0183776 62.7601501,30.204423 C62.7601501,30.3520459 62.7384114,30.4915779 62.6949334,30.623023 C62.6514554,30.7544681 62.5887672,30.873778 62.5068668,30.9809563 C62.4249663,31.0881346 62.3238562,31.182167 62.2035334,31.2630563 C62.0832106,31.3439456 61.9462064,31.4086561 61.7925168,31.4571896 C61.8956506,31.5158344 61.9846275,31.5997558 62.0594501,31.7089563 L63.1575168,33.3287563 L62.4234501,33.3287563 C62.352672,33.3287563 62.2925114,33.3146009 62.2429668,33.2862896 C62.1934221,33.2579784 62.1514614,33.2175343 62.1170834,33.1649563 L61.1949501,31.760523 C61.1605721,31.7079449 61.1226558,31.6705342 61.0812001,31.6482896 C61.0397443,31.6260451 60.9785727,31.614923 60.8976834,31.614923 L60.5488501,31.614923 Z M60.5488501,31.0294896 L61.0584501,31.0294896 C61.2121397,31.0294896 61.3461106,31.0102787 61.4603668,30.9718563 C61.5746229,30.9334339 61.6686553,30.8803511 61.7424668,30.8126063 C61.8162782,30.7448615 61.8713832,30.664479 61.9077834,30.5714563 C61.9441836,30.4784336 61.9623834,30.3763124 61.9623834,30.2650896 C61.9623834,30.0426441 61.8890786,29.871768 61.7424668,29.7524563 C61.5958549,29.6331446 61.371896,29.5734896 61.0705834,29.5734896 L60.5488501,29.5734896 L60.5488501,31.0294896 Z M69.5993835,31.1356563 C69.5993835,31.4571912 69.5457951,31.7524327 69.4386168,32.0213896 C69.3314385,32.2903465 69.1807845,32.5218887 68.9866502,32.716023 C68.7925159,32.9101573 68.5589515,33.0608113 68.2859502,33.1679896 C68.0129488,33.275168 67.7106296,33.3287563 67.3789835,33.3287563 L65.7045835,33.3287563 L65.7045835,28.9425563 L67.3789835,28.9425563 C67.7106296,28.9425563 68.0129488,28.9966502 68.2859502,29.1048396 C68.5589515,29.2130291 68.7925159,29.3636831 68.9866502,29.5568063 C69.1807845,29.7499295 69.3314385,29.9809661 69.4386168,30.249923 C69.5457951,30.5188799 69.5993835,30.8141214 69.5993835,31.1356563 Z M68.7652168,31.1356563 C68.7652168,30.8950107 68.7328616,30.6791406 68.6681502,30.4880396 C68.6034387,30.2969387 68.5114285,30.1351625 68.3921168,30.0027063 C68.2728051,29.8702501 68.1277121,29.7686344 67.9568335,29.6978563 C67.7859549,29.6270782 67.5933401,29.5916896 67.3789835,29.5916896 L66.5266168,29.5916896 L66.5266168,32.679623 L67.3789835,32.679623 C67.5933401,32.679623 67.7859549,32.6442344 67.9568335,32.5734563 C68.1277121,32.5026782 68.2728051,32.4010625 68.3921168,32.2686063 C68.5114285,32.1361501 68.6034387,31.9743739 68.6681502,31.783273 C68.7328616,31.592172 68.7652168,31.376302 68.7652168,31.1356563 Z" id="CHOICEAWARD" fill="#D1B477"></path>
                    </g>
                    <rect id="Rectangle" fill="#656763" opacity="0.400000006" x="30" y="2" width="1" height="38"></rect>
                </g>
            </g>
        </g>
    </g>
</svg>