<svg width="551" height="551" viewBox="0 0 551 551" fill="none" xmlns="http://www.w3.org/2000/svg">
<mask id="mask0" mask-type="alpha" maskUnits="userSpaceOnUse" x="0" y="0" width="551" height="551">
<rect width="551" height="551" fill="url(#paint0_radial)"/>
</mask>
<g mask="url(#mask0)">
<path d="M362.1 153.2V155.1H363.3H362.1V202.3L351.3 214.7H354.6L362.1 206.1V214.7H363.3H364.5V155.1V153.3L379.5 132.5C379.6 132.3 379.7 132 379.7 131.8V79.3004L385.2 73.9004H381.7L377.7 77.9004C377.5 78.1004 377.3 78.4004 377.3 78.8004V131.4L363.8 150.1C363.6 150 363.5 150 363.3 150C363.1 150 363 150 362.8 150.1L349.6 131.7V111.7L363.3 95.9004L364.3 94.8004C364.5 94.6004 364.6 94.3004 364.6 94.0004V74.0004H363.4H362.2V93.6004L347.5 110.5C347.3 110.7 347.2 111 347.2 111.3V132C347.2 132.3 347.3 132.5 347.4 132.7L362.1 153.2Z" fill="#3A7276"/>
<path d="M391.8 168.8C391.1 168.8 390.6 169.3 390.6 170V179.8C390.6 180.5 391.2 181 391.8 181C392.5 181 393 180.5 393 179.8V170C393.1 169.3 392.5 168.8 391.8 168.8Z" fill="#3A7276"/>
<path d="M393.1 214.8V207L399.1 201.1V197.6L393.1 203.5V189.7C393.1 189 392.5 188.5 391.9 188.5C391.2 188.5 390.7 189 390.7 189.7V206L381.8 214.8H385.3L390.7 209.5V214.8H393.1Z" fill="#3A7276"/>
<path d="M351.3 73.9004L325 104.2C324.8 104.4 324.7 104.7 324.7 105V113.6C324.7 114.3 325.3 114.8 325.9 114.8C326.6 114.8 327.1 114.3 327.1 113.6V105.4L354.5 73.9004H351.3Z" fill="#3A7276"/>
<path d="M324.7 134.5C324.7 134.7 324.8 135 324.9 135.2L339.1 155.2H342.1L327.1 134.1V127.1C327.1 126.4 326.5 125.9 325.9 125.9C325.2 125.9 324.7 126.4 324.7 127.1V134.5Z" fill="#3A7276"/>
<path d="M280.5 123.1C281.2 123.1 281.7 122.6 281.7 121.9V101.3C281.7 100.6 281.1 100.1 280.5 100.1C279.8 100.1 279.3 100.6 279.3 101.3V121.9C279.2 122.6 279.8 123.1 280.5 123.1Z" fill="#3A7276"/>
<path d="M318.3 82.1002L313.7 86.9002C313.2 87.4002 313.2 88.2002 313.7 88.6002C313.9 88.8002 314.2 88.9002 314.6 88.9002C314.9 88.9002 315.3 88.8002 315.5 88.5002L320.1 83.7002C320.6 83.2002 320.6 82.4002 320.1 82.0002C319.9 81.8002 319.5 81.7002 319.2 81.7002C318.9 81.7002 318.6 81.9002 318.3 82.1002Z" fill="#3A7276"/>
<path d="M327.2 120.8V120.5C327.2 119.8 326.6 119.3 326 119.3C325.3 119.3 324.8 119.8 324.8 120.5V120.8C324.8 121.5 325.4 122 326 122C326.6 122 327.2 121.5 327.2 120.8Z" fill="#3A7276"/>
<path d="M325.9 77.9004C326.3 77.9004 326.6 77.8004 326.8 77.5004L330.2 73.9004H326.8L324.9 75.9004C324.4 76.4004 324.4 77.2004 324.9 77.6004C325.2 77.8004 325.5 77.9004 325.9 77.9004Z" fill="#3A7276"/>
<path d="M293.3 163.8C293.8 164 294.3 163.9 294.7 163.5C294.8 163.4 294.9 163.3 295 163.1C295.1 163 295.1 162.8 295.1 162.6C295.1 162.4 295.1 162.3 295 162.1C294.9 161.8 294.6 161.6 294.3 161.4C293.8 161.2 293.3 161.3 292.9 161.7C292.8 161.8 292.7 161.9 292.6 162.1C292.5 162.3 292.5 162.4 292.5 162.6C292.5 162.9 292.6 163.2 292.9 163.5C293 163.6 293.1 163.7 293.3 163.8Z" fill="#3A7276"/>
<path d="M313.2 185.6C311.1 178.6 307.2 177.6 307.2 177.6C308.5 178.8 309.4 180.4 310 182C310.4 183.7 311.6 185 313.2 185.6Z" fill="#3A7276"/>
<path d="M362.1 294.1V295.9H363.3H362.1V343.1L351.3 355.5H354.6L362.1 346.9V355.5H363.3H364.5V296V294.2L379.5 273.4C379.6 273.2 379.7 272.9 379.7 272.7V220.2L385.2 214.8H381.7L377.7 218.8C377.5 219 377.3 219.3 377.3 219.7V272.3L363.8 291C363.6 290.9 363.5 290.9 363.3 290.9C363.1 290.9 363 290.9 362.8 291L349.6 272.6V252.6L363.3 236.8L364.3 235.7C364.5 235.5 364.6 235.2 364.6 234.9V214.9H363.4H362.2V234.5L347.5 251.4C347.3 251.6 347.2 251.9 347.2 252.2V273.1C347.2 273.4 347.3 273.6 347.4 273.8L362.1 294.1Z" fill="#3A7276"/>
<path d="M391.8 309.7C391.1 309.7 390.6 310.2 390.6 310.9V320.7C390.6 321.4 391.2 321.9 391.8 321.9C392.5 321.9 393 321.4 393 320.7V310.9C393.1 310.2 392.5 309.7 391.8 309.7Z" fill="#3A7276"/>
<path d="M393.1 355.7V347.9L399.1 342V338.5L393.1 344.4V330.6C393.1 329.9 392.5 329.4 391.9 329.4C391.2 329.4 390.7 329.9 390.7 330.6V346.9L381.8 355.7H385.3L390.7 350.4V355.7H393.1Z" fill="#3A7276"/>
<path d="M351.3 214.8L325 245.1C324.8 245.3 324.7 245.6 324.7 245.9V254.5C324.7 255.2 325.3 255.7 325.9 255.7C326.6 255.7 327.1 255.2 327.1 254.5V246.3L354.5 214.8H351.3V214.8Z" fill="#3A7276"/>
<path d="M324.7 275.4C324.7 275.6 324.8 275.9 324.9 276.1L339.1 296.1H342.1L327.1 275V268C327.1 267.3 326.5 266.8 325.9 266.8C325.2 266.8 324.7 267.3 324.7 268V275.4Z" fill="#3A7276"/>
<path d="M280.5 264C281.2 264 281.7 263.5 281.7 262.8V242.2C281.7 241.5 281.1 241 280.5 241C279.8 241 279.3 241.5 279.3 242.2V262.8C279.2 263.5 279.8 264 280.5 264Z" fill="#3A7276"/>
<path d="M318.3 223L313.7 227.8C313.2 228.3 313.2 229.1 313.7 229.5C313.9 229.7 314.2 229.8 314.6 229.8C314.9 229.8 315.3 229.7 315.5 229.4L320.1 224.6C320.6 224.1 320.6 223.3 320.1 222.9C319.9 222.7 319.5 222.6 319.2 222.6C318.9 222.6 318.6 222.8 318.3 223Z" fill="#3A7276"/>
<path d="M327.2 261.7V261.4C327.2 260.7 326.6 260.2 326 260.2C325.3 260.2 324.8 260.7 324.8 261.4V261.7C324.8 262.4 325.4 262.9 326 262.9C326.6 262.9 327.2 262.4 327.2 261.7Z" fill="#3A7276"/>
<path d="M325.9 218.8C326.3 218.8 326.6 218.7 326.8 218.4L330.2 214.8H326.8L324.9 216.8C324.4 217.3 324.4 218.1 324.9 218.5C325.2 218.7 325.5 218.8 325.9 218.8Z" fill="#3A7276"/>
<path d="M293.3 304.7C293.8 304.9 294.3 304.8 294.7 304.4C294.8 304.3 294.9 304.2 295 304C295.1 303.9 295.1 303.7 295.1 303.5C295.1 303.3 295.1 303.2 295 303C294.9 302.7 294.6 302.5 294.3 302.3C293.8 302.1 293.3 302.2 292.9 302.6C292.8 302.7 292.7 302.8 292.6 303C292.5 303.2 292.5 303.3 292.5 303.5C292.5 303.8 292.6 304.1 292.9 304.4C293 304.5 293.1 304.6 293.3 304.7Z" fill="#3A7276"/>
<path d="M313.2 326.5C311.1 319.5 307.2 318.5 307.2 318.5C308.5 319.7 309.4 321.3 310 322.9C310.4 324.6 311.6 325.9 313.2 326.5Z" fill="#3A7276"/>
<path d="M363.3 496.6H364.5V437V435.2L379.5 414.4C379.6 414.2 379.7 413.9 379.7 413.7V361.2L385.2 355.8H381.7L377.7 359.8C377.5 360 377.3 360.3 377.3 360.7V413.3L363.8 432C363.6 431.9 363.5 431.9 363.3 431.9C363.1 431.9 363 431.9 362.8 432L349.6 413.6V393.6L363.3 377.8L364.3 376.7C364.5 376.5 364.6 376.2 364.6 375.9V355.9H363.4H362.2V375.5L347.5 392.4C347.3 392.6 347.2 392.9 347.2 393.2V414.1C347.2 414.4 347.3 414.6 347.4 414.8L362.1 435.3V437.1H363.3H362.1V484.3L351.3 496.7H354.6L362.1 488.1V496.7H363.3V496.6Z" fill="#3A7276"/>
<path d="M391.8 462.8C392.5 462.8 393 462.3 393 461.6V451.8C393 451.1 392.4 450.6 391.8 450.6C391.1 450.6 390.6 451.1 390.6 451.8V461.6C390.6 462.3 391.2 462.8 391.8 462.8Z" fill="#3A7276"/>
<path d="M390.6 496.6H393.1V488.8L399.1 482.9V479.4L393.1 485.3V471.5C393.1 470.8 392.5 470.3 391.9 470.3C391.2 470.3 390.7 470.8 390.7 471.5V487.8L381.8 496.6H385.3L390.7 491.3V496.6H390.6Z" fill="#3A7276"/>
<path d="M351.3 355.7L325 386C324.8 386.2 324.7 386.5 324.7 386.8V395.4C324.7 396.1 325.3 396.6 325.9 396.6C326.6 396.6 327.1 396.1 327.1 395.4V387.2L354.5 355.7H351.3V355.7Z" fill="#3A7276"/>
<path d="M280.5 404.9C281.2 404.9 281.7 404.4 281.7 403.7V383.1C281.7 382.4 281.1 381.9 280.5 381.9C279.8 381.9 279.3 382.4 279.3 383.1V403.7C279.2 404.4 279.8 404.9 280.5 404.9Z" fill="#3A7276"/>
<path d="M318.3 363.9L313.7 368.7C313.2 369.2 313.2 370 313.7 370.4C313.9 370.6 314.2 370.7 314.6 370.7C314.9 370.7 315.3 370.6 315.5 370.3L320.1 365.5C320.6 365 320.6 364.2 320.1 363.8C319.9 363.6 319.5 363.5 319.2 363.5C318.9 363.5 318.6 363.7 318.3 363.9Z" fill="#3A7276"/>
<path d="M325.9 401C325.2 401 324.7 401.5 324.7 402.2V402.5C324.7 403.2 325.3 403.7 325.9 403.7C326.6 403.7 327.1 403.1 327.1 402.5V402.2C327.2 401.6 326.6 401 325.9 401Z" fill="#3A7276"/>
<path d="M325.9 359.7C326.3 359.7 326.6 359.6 326.8 359.3L330.2 355.7H326.8L324.9 357.7C324.4 358.2 324.4 359 324.9 359.4C325.2 359.6 325.5 359.7 325.9 359.7Z" fill="#3A7276"/>
<path d="M293.3 445.6C293.8 445.8 294.3 445.7 294.7 445.3C294.8 445.2 294.9 445.1 295 444.9C295.1 444.8 295.1 444.6 295.1 444.4C295.1 444.2 295.1 444.1 295 443.9C294.9 443.6 294.6 443.4 294.3 443.2C293.8 443 293.3 443.1 292.9 443.5C292.8 443.6 292.7 443.7 292.6 443.9C292.5 444.1 292.5 444.2 292.5 444.4C292.5 444.7 292.6 445 292.9 445.3C293 445.4 293.1 445.5 293.3 445.6Z" fill="#3A7276"/>
<path d="M313.2 467.4C311.1 460.4 307.2 459.4 307.2 459.4C308.5 460.6 309.4 462.2 310 463.8C310.4 465.5 311.6 466.8 313.2 467.4Z" fill="#3A7276"/>
<path d="M377.7 500.6C377.5 500.8 377.3 501.1 377.3 501.5V554L363.8 572.7C363.6 572.6 363.5 572.6 363.3 572.6C363.1 572.6 363 572.6 362.8 572.7L349.6 554.3V534.3L363.3 518.5L364.3 517.4C364.5 517.2 364.6 516.9 364.6 516.6V496.6H363.4H362.2V516.2L347.4 533C347.2 533.2 347.1 533.5 347.1 533.8V554.7C347.1 555 347.2 555.2 347.3 555.4L362 575.9V577.7H363.2H362V625L351.2 637.4H354.5L362 628.8V637.4H363.2H364.4V577.8V576L379.4 555.2C379.5 555 379.6 554.7 379.6 554.5V502L385.1 496.6H381.6L377.7 500.6Z" fill="#3A7276"/>
<path d="M325.9 537.5C326.6 537.5 327.1 536.9 327.1 536.3V528.1L354.5 496.6H351.2L325 526.8C324.8 527 324.7 527.3 324.7 527.6V536.2C324.7 536.9 325.2 537.5 325.9 537.5Z" fill="#3A7276"/>
<path d="M318.3 504.8L313.7 509.6C313.2 510.1 313.2 510.9 313.7 511.3C313.9 511.5 314.2 511.6 314.6 511.6C314.9 511.6 315.3 511.5 315.5 511.2L320.1 506.4C320.6 505.9 320.6 505.1 320.1 504.7C319.9 504.5 319.5 504.4 319.2 504.4C318.9 504.4 318.6 504.5 318.3 504.8Z" fill="#3A7276"/>
<path d="M325.9 500.6C326.3 500.6 326.6 500.5 326.8 500.2L330.2 496.6H326.8L324.9 498.6C324.4 499.1 324.4 499.9 324.9 500.3C325.2 500.5 325.5 500.6 325.9 500.6Z" fill="#3A7276"/>
<path d="M344.4 581L342.1 577.8H339.1L342.2 582.2C342.2 582.3 342.2 582.4 342.2 582.5V602.4H325.9C325.3 597.2 321.4 592.9 316.1 591.9L308.3 584.2V577.8V535.8C308.3 535.5 308.2 535.2 307.9 534.9L294.9 522.1V496.5V480.6L304.9 470.8C307.2 473.3 310.5 474.7 313.8 474.7C315.1 474.7 316.4 474.5 317.6 474.1C322.1 472.6 325.3 468.6 325.8 464H342V480.5L326.7 496.6H330.1L344.1 481.8C344.3 481.6 344.4 481.3 344.4 481V441.7C344.4 441.6 344.4 441.4 344.4 441.3C344.5 440.9 344.5 440.5 344.3 440.2L342 437L327 415.9V408.9C327 408.2 326.4 407.7 325.8 407.7C325.1 407.7 324.6 408.2 324.6 408.9V416.3C324.6 416.5 324.7 416.8 324.8 417L339 437L342.1 441.4C342.1 441.5 342.1 441.6 342.1 441.7V461.6H325.8C325.2 456.4 321.3 452.1 316 451.1L308.2 443.4V437V395C308.2 394.7 308.1 394.4 307.8 394.1L294.8 381.3V355.7V339.8L304.8 330C307.1 332.5 310.4 333.9 313.7 333.9C315 333.9 316.3 333.7 317.5 333.3C322 331.8 325.2 327.8 325.7 323.2H341.9V339.7L326.6 355.8H330L344 341C344.2 340.8 344.3 340.5 344.3 340.2V300.9C344.3 300.8 344.3 300.6 344.3 300.5C344.4 300.1 344.4 299.7 344.2 299.4L341.9 296.2H338.9L342 300.6C342 300.7 342 300.8 342 300.9V320.8H325.7C325.1 315.6 321.2 311.3 315.9 310.3L308.1 302.6V296V254C308.1 253.7 308 253.4 307.7 253.1L294.7 240.3V214.7V198.8L304.7 189C307 191.5 310.3 192.9 313.6 192.9C314.9 192.9 316.2 192.7 317.4 192.3C321.9 190.8 325.1 186.8 325.6 182.2H341.8V198.7L326.5 214.8H329.9L343.9 200C344.1 199.8 344.2 199.5 344.2 199.2V159.9C344.2 159.8 344.2 159.6 344.2 159.5C344.3 159.1 344.3 158.7 344.1 158.4L341.8 155.2H338.8L341.9 159.6C341.9 159.7 341.9 159.8 341.9 159.9V179.8H325.6C325 174.6 321.1 170.3 315.8 169.3L308 161.6V155.2V113.2C308 112.9 307.9 112.6 307.6 112.3L294.6 99.5V73.9V58L304.6 48.2C306.9 50.7 310.2 52.1 313.5 52.1C314.8 52.1 316.1 51.9 317.3 51.5C321.8 50 325 46 325.5 41.4H341.7V57.9L326.4 74H329.8L343.8 59.2C344 59 344.1 58.7 344.1 58.4V18.9C344.1 18.8 344.1 18.6 344.1 18.5C344.2 18.1 344.2 17.7 344 17.4L341.7 14.2L326.7 -6.9V-13.9C326.7 -14.6 326.1 -15.1 325.5 -15.1C324.8 -15.1 324.3 -14.6 324.3 -13.9V-6.5C324.3 -6.3 324.4 -6 324.5 -5.8L338.7 14.2L341.8 18.6C341.8 18.7 341.8 18.8 341.8 18.9V38.8H325.5C324.9 33.6 321 29.3 315.7 28.3L307.9 20.6V14.2V-27.8C307.9 -28.1 307.8 -28.4 307.5 -28.7L294.5 -41.5V-67H292V-43.8L278.8 -56.9V-67H274.9L273.9 -66L267.9 -60.1V-67H265.4V10.5C265.4 11.2 266 11.7 266.6 11.7C267.3 11.7 267.8 11.2 267.8 10.5V-56.8C268 -56.9 268.1 -57 268.2 -57.1L273.8 -62.6L276.2 -65V-56.4C276.2 -56.1 276.3 -55.8 276.6 -55.5L291.9 -40.4V10.5C291.9 11.2 292.5 11.7 293.1 11.7C293.7 11.7 294.3 11.2 294.3 10.5V-38L305.1 -27.3V14.2V21.2C305.1 21.5 305.2 21.8 305.5 22.1L311.7 28.3C307.6 28.8 304.1 31.2 302.3 34.9C300.5 38.5 300.7 42.8 302.8 46.2C302.7 46.2 302.6 46.3 302.5 46.4L294.3 54.5V32.8C294.3 32.1 293.7 31.6 293.1 31.6C292.5 31.6 291.9 32.1 291.9 32.8V57L278.7 70V14.2V13.7C278.7 13 278.1 12.5 277.5 12.5C276.8 12.5 276.3 13 276.3 13.7V14.2V54.3L273.9 56.7V60.2L276.3 57.8V72.4L274.8 73.8L273.8 74.8L267.8 80.7V73.8H265.3V151.3C265.3 152 265.9 152.5 266.5 152.5C267.2 152.5 267.7 152 267.7 151.3V84C267.9 83.9 268 83.8 268.1 83.7L273.7 78.2L276.1 75.8V84.4C276.1 84.7 276.2 85 276.5 85.3L291.8 100.4V151.3C291.8 152 292.4 152.5 293 152.5C293.6 152.5 294.2 152 294.2 151.3V102.8L305 113.5V155V162C305 162.3 305.1 162.6 305.4 162.9L311.6 169.1C307.5 169.6 304 172 302.2 175.7C300.4 179.3 300.6 183.6 302.7 187C302.6 187 302.5 187.1 302.4 187.2L294.2 195.3V173.6C294.2 172.9 293.6 172.4 293 172.4C292.4 172.4 291.8 172.9 291.8 173.6V197.7L278.6 210.7V154.9V154.4C278.6 153.7 278 153.2 277.4 153.2C276.7 153.2 276.2 153.7 276.2 154.4V154.9V195L273.8 197.4V200.9L276.2 198.5V213.1L274.8 214.5L273.8 215.5L267.8 221.4V214.5H265.3V292C265.3 292.7 265.9 293.2 266.5 293.2C267.2 293.2 267.7 292.7 267.7 292V225C267.9 224.9 268 224.8 268.1 224.7L273.7 219.2L276.1 216.8V225.4C276.1 225.7 276.2 226 276.5 226.3L291.8 241.4V292.3C291.8 293 292.4 293.5 293 293.5C293.6 293.5 294.2 293 294.2 292.3V243.8L305 254.5V296V303C305 303.3 305.1 303.6 305.4 303.9L311.6 310.1C307.5 310.6 304 313 302.2 316.7C300.4 320.3 300.6 324.6 302.7 328C302.6 328 302.5 328.1 302.4 328.2L294.2 336.3V314.6C294.2 313.9 293.6 313.4 293 313.4C292.4 313.4 291.8 313.9 291.8 314.6V338.8L278.6 351.8V296V295.5C278.6 294.8 278 294.3 277.4 294.3C276.7 294.3 276.2 294.8 276.2 295.5V296V336.1L273.8 338.5V342L276.2 339.6V354.2L274.7 355.6L273.7 356.6L267.7 362.5V355.6H265.2V433.1C265.2 433.8 265.8 434.3 266.4 434.3C267.1 434.3 267.6 433.8 267.6 433.1V365.8C267.8 365.7 267.9 365.6 268 365.5L273.6 360L276 357.6V366.2C276 366.5 276.1 366.8 276.4 367.1L291.7 382.2V433.1C291.7 433.8 292.3 434.3 292.9 434.3C293.5 434.3 294.1 433.8 294.1 433.1V384.6L304.9 395.3V436.8V443.8C304.9 444.1 305 444.4 305.3 444.7L311.5 450.9C307.4 451.4 303.9 453.8 302.1 457.5C300.3 461.1 300.5 465.4 302.6 468.8C302.5 468.8 302.4 468.9 302.3 469L294.1 477.1V455.4C294.1 454.7 293.5 454.2 292.9 454.2C292.3 454.2 291.7 454.7 291.7 455.4V479.5L278.5 492.5V436.7V436.2C278.5 435.5 277.9 435 277.3 435C276.6 435 276.1 435.5 276.1 436.2V436.7V477L273.7 479.4V482.9L276.1 480.5V495.1L274.6 496.5L273.6 497.5L267.6 503.4V496.5H265.1V574C265.1 574.7 265.7 575.2 266.3 575.2C267 575.2 267.5 574.7 267.5 574V506.7C267.7 506.6 267.8 506.5 267.9 506.4L273.5 500.9L275.9 498.5V507.1C275.9 507.4 276 507.7 276.3 508L291.6 523.1V574C291.6 574.7 292.2 575.2 292.8 575.2C293.4 575.2 294 574.7 294 574V525.5L304.8 536.2V577.7V584.7C304.8 585 304.9 585.3 305.2 585.6L311.4 591.8C307.3 592.3 303.8 594.7 302 598.4C300.2 602 300.4 606.3 302.5 609.7C302.4 609.7 302.3 609.8 302.2 609.9L295 618V596.3C295 595.6 294.4 595.1 293.8 595.1C293.2 595.1 292.6 595.6 292.6 596.3V620.4L279.4 633.4V577.6H276.9V617.7L274.5 620.1V623.6L276.9 621.2V636L275.4 637.4H279.3V637L292.5 624V637.5H295V621.6L305 611.8C307.3 614.3 310.6 615.7 313.9 615.7C315.2 615.7 316.5 615.5 317.7 615.1C322.2 613.6 325.4 609.6 325.9 605H342.1V621.5L326.8 637.6H330.2L344.2 622.8C344.4 622.6 344.5 622.3 344.5 622V582.7C344.5 582.6 344.5 582.4 344.5 582.3C344.7 581.7 344.6 581.3 344.4 581ZM319.1 35.9C320.1 35.8 320.9 35.9 322.3 35.7C321.3 37.1 320.5 38.6 320 40.3V40.4C319.6 42.5 318.1 44.2 316 44.9C316.5 42.4 315.8 39.9 314.2 37.9C315.7 36.9 317.4 36.3 319.1 35.9ZM313.8 39.4C315 41.3 315.3 43.6 314.7 45.8C315.2 46.5 316 46.9 316.9 47L316.8 48C315.7 47.9 314.7 47.3 314 46.5C313.6 46.5 308.8 46.3 307.5 42.5C306.4 38.9 306.4 37.2 305.4 35.3C308.6 35.6 311.6 37.1 313.8 39.4ZM292.5 73.9V97L279.3 84V73.9V73.5L292.5 60.5V73.9ZM319.1 176.8C320.1 176.7 320.9 176.8 322.3 176.6C321.3 178 320.5 179.5 320 181.2V181.3C319.6 183.4 318.1 185.1 316 185.8C316.5 183.3 315.8 180.8 314.2 178.8C315.7 177.8 317.4 177.2 319.1 176.8ZM313.8 180.2C315 182.1 315.3 184.4 314.7 186.6C315.2 187.3 316 187.7 316.9 187.8L316.8 188.8C315.7 188.7 314.7 188.1 314 187.3C313.6 187.3 308.8 187.1 307.5 183.3C306.4 179.7 306.4 178 305.4 176.1C308.6 176.5 311.6 178 313.8 180.2ZM292.5 214.8V238L279.3 224.9V214.8V214.4L292.5 201.4V214.8ZM319.1 317.7C320.1 317.6 320.9 317.7 322.3 317.5C321.3 318.9 320.5 320.4 320 322.1V322.2C319.6 324.3 318.1 326 316 326.7C316.5 324.2 315.8 321.7 314.2 319.7C315.7 318.7 317.4 318.1 319.1 317.7ZM313.8 321.1C315 323 315.3 325.3 314.7 327.5C315.2 328.2 316 328.6 316.9 328.7L316.8 329.7C315.7 329.6 314.7 329 314 328.2C313.6 328.2 308.8 328 307.5 324.2C306.4 320.6 306.4 318.9 305.4 317C308.6 317.4 311.6 318.9 313.8 321.1ZM292.5 355.7V378.9L279.3 365.8V355.7V355.3L292.5 342.3V355.7ZM319.1 458.6C320.1 458.5 320.9 458.6 322.3 458.4C321.3 459.8 320.5 461.3 320 463V463.1C319.6 465.2 318.1 466.9 316 467.6C316.5 465.1 315.8 462.6 314.2 460.6C315.7 459.6 317.4 458.9 319.1 458.6ZM313.8 462C315 463.9 315.3 466.2 314.7 468.4C315.2 469.1 316 469.5 316.9 469.6L316.8 470.6C315.7 470.5 314.7 469.9 314 469.1C313.6 469.1 308.8 468.9 307.5 465.1C306.4 461.5 306.4 459.8 305.4 457.9C308.6 458.3 311.6 459.8 313.8 462ZM292.5 496.6V519.8L279.3 506.7V496.6V496.2L292.5 483.2V496.6ZM316.7 611.4C315.6 611.3 314.6 610.7 313.9 609.9C313.5 609.9 308.7 609.7 307.4 605.9C306.3 602.3 306.3 600.6 305.3 598.7C308.5 599.1 311.4 600.6 313.7 602.9C314.9 604.8 315.2 607.1 314.6 609.3C315.1 610 315.9 610.4 316.8 610.5L316.7 611.4ZM320 603.9C319.6 606.1 318.1 607.8 316 608.5C316.5 606 315.8 603.5 314.2 601.5C315.7 600.5 317.4 599.9 319.1 599.5C320.1 599.4 320.9 599.5 322.3 599.3C321.2 600.7 320.5 602.2 320 603.9Z" fill="#3A7276"/>
<path d="M237.4 153.2V155.1H238.6H237.4V202.3L226.6 214.7H229.9L237.4 206.1V214.7H238.6H239.8V155.1V153.3L254.8 132.5C254.9 132.3 255 132 255 131.8V79.3004L260.5 73.9004H257L253 77.9004C252.8 78.1004 252.6 78.4004 252.6 78.8004V131.4L239.1 150.1C238.9 150 238.8 150 238.6 150C238.4 150 238.3 150 238.1 150.1L224.9 131.7V111.7L238.6 95.9004L239.6 94.8004C239.8 94.6004 239.9 94.3004 239.9 94.0004V74.0004H238.7H237.5V93.6004L222.8 110.5C222.6 110.7 222.5 111 222.5 111.3V132C222.5 132.3 222.6 132.5 222.7 132.7L237.4 153.2Z" fill="#3A7276"/>
<path d="M267.1 168.8C266.4 168.8 265.9 169.3 265.9 170V179.8C265.9 180.5 266.5 181 267.1 181C267.8 181 268.3 180.5 268.3 179.8V170C268.4 169.3 267.8 168.8 267.1 168.8Z" fill="#3A7276"/>
<path d="M268.4 214.8V207L274.4 201.1V197.6L268.4 203.5V189.7C268.4 189 267.8 188.5 267.2 188.5C266.5 188.5 266 189 266 189.7V206L257.1 214.8H260.6L266 209.5V214.8H268.4Z" fill="#3A7276"/>
<path d="M226.6 73.9004L200.3 104.2C200.1 104.4 200 104.7 200 105V113.6C200 114.3 200.6 114.8 201.2 114.8C201.9 114.8 202.4 114.3 202.4 113.6V105.4L229.8 73.9004H226.6V73.9004Z" fill="#3A7276"/>
<path d="M200 134.5C200 134.7 200.1 135 200.2 135.2L214.4 155.2H217.4L202.4 134.1V127.1C202.4 126.4 201.8 125.9 201.2 125.9C200.5 125.9 200 126.4 200 127.1V134.5Z" fill="#3A7276"/>
<path d="M155.7 123.1C156.4 123.1 156.9 122.6 156.9 121.9V101.3C156.9 100.6 156.3 100.1 155.7 100.1C155 100.1 154.5 100.6 154.5 101.3V121.9C154.5 122.6 155.1 123.1 155.7 123.1Z" fill="#3A7276"/>
<path d="M193.6 82.1002L189 86.9002C188.5 87.4002 188.5 88.2002 189 88.6002C189.2 88.8002 189.5 88.9002 189.9 88.9002C190.2 88.9002 190.6 88.8002 190.8 88.5002L195.4 83.7002C195.9 83.2002 195.9 82.4002 195.4 82.0002C195.2 81.8002 194.8 81.7002 194.5 81.7002C194.2 81.7002 193.9 81.9002 193.6 82.1002Z" fill="#3A7276"/>
<path d="M202.5 120.8V120.5C202.5 119.8 201.9 119.3 201.3 119.3C200.6 119.3 200.1 119.8 200.1 120.5V120.8C200.1 121.5 200.7 122 201.3 122C201.9 122 202.5 121.5 202.5 120.8Z" fill="#3A7276"/>
<path d="M201.2 77.9004C201.6 77.9004 201.9 77.8004 202.1 77.5004L205.5 73.9004H202.1L200.2 75.9004C199.7 76.4004 199.7 77.2004 200.2 77.6004C200.5 77.8004 200.8 77.9004 201.2 77.9004Z" fill="#3A7276"/>
<path d="M168.6 163.8C169.1 164 169.6 163.9 170 163.5C170.1 163.4 170.2 163.3 170.3 163.1C170.4 163 170.4 162.8 170.4 162.6C170.4 162.4 170.4 162.3 170.3 162.1C170.2 161.8 169.9 161.6 169.6 161.4C169.1 161.2 168.6 161.3 168.2 161.7C168.1 161.8 168 161.9 167.9 162.1C167.8 162.3 167.8 162.4 167.8 162.6C167.8 162.9 167.9 163.2 168.2 163.5C168.3 163.6 168.4 163.7 168.6 163.8Z" fill="#3A7276"/>
<path d="M188.5 185.6C186.4 178.6 182.5 177.6 182.5 177.6C183.8 178.8 184.7 180.4 185.3 182C185.7 183.7 186.9 185 188.5 185.6Z" fill="#3A7276"/>
<path d="M237.4 294.1V295.9H238.6H237.4V343.1L226.6 355.5H229.9L237.4 346.9V355.5H238.6H239.8V296V294.2L254.8 273.4C254.9 273.2 255 272.9 255 272.7V220.2L260.5 214.8H257L253 218.8C252.8 219 252.6 219.3 252.6 219.7V272.3L239.1 291C238.9 290.9 238.8 290.9 238.6 290.9C238.4 290.9 238.3 290.9 238.1 291L224.9 272.6V252.6L238.6 236.8L239.6 235.7C239.8 235.5 239.9 235.2 239.9 234.9V214.9H238.7H237.5V234.5L222.8 251.4C222.6 251.6 222.5 251.9 222.5 252.2V273.1C222.5 273.4 222.6 273.6 222.7 273.8L237.4 294.1Z" fill="#3A7276"/>
<path d="M267.1 309.7C266.4 309.7 265.9 310.2 265.9 310.9V320.7C265.9 321.4 266.5 321.9 267.1 321.9C267.8 321.9 268.3 321.4 268.3 320.7V310.9C268.4 310.2 267.8 309.7 267.1 309.7Z" fill="#3A7276"/>
<path d="M268.4 355.7V347.9L274.4 342V338.5L268.4 344.4V330.6C268.4 329.9 267.8 329.4 267.2 329.4C266.5 329.4 266 329.9 266 330.6V346.9L257.1 355.7H260.6L266 350.4V355.7H268.4Z" fill="#3A7276"/>
<path d="M226.6 214.8L200.3 245.1C200.1 245.3 200 245.6 200 245.9V254.5C200 255.2 200.6 255.7 201.2 255.7C201.9 255.7 202.4 255.2 202.4 254.5V246.3L229.8 214.8H226.6V214.8Z" fill="#3A7276"/>
<path d="M200 275.4C200 275.6 200.1 275.9 200.2 276.1L214.4 296.1H217.4L202.4 275V268C202.4 267.3 201.8 266.8 201.2 266.8C200.5 266.8 200 267.3 200 268V275.4Z" fill="#3A7276"/>
<path d="M155.7 264C156.4 264 156.9 263.5 156.9 262.8V242.2C156.9 241.5 156.3 241 155.7 241C155 241 154.5 241.5 154.5 242.2V262.8C154.5 263.5 155.1 264 155.7 264Z" fill="#3A7276"/>
<path d="M193.6 223L189 227.8C188.5 228.3 188.5 229.1 189 229.5C189.2 229.7 189.5 229.8 189.9 229.8C190.2 229.8 190.6 229.7 190.8 229.4L195.4 224.6C195.9 224.1 195.9 223.3 195.4 222.9C195.2 222.7 194.8 222.6 194.5 222.6C194.2 222.6 193.9 222.8 193.6 223Z" fill="#3A7276"/>
<path d="M202.5 261.7V261.4C202.5 260.7 201.9 260.2 201.3 260.2C200.6 260.2 200.1 260.7 200.1 261.4V261.7C200.1 262.4 200.7 262.9 201.3 262.9C201.9 262.9 202.5 262.4 202.5 261.7Z" fill="#3A7276"/>
<path d="M201.2 218.8C201.6 218.8 201.9 218.7 202.1 218.4L205.5 214.8H202.1L200.2 216.8C199.7 217.3 199.7 218.1 200.2 218.5C200.5 218.7 200.8 218.8 201.2 218.8Z" fill="#3A7276"/>
<path d="M168.6 304.7C169.1 304.9 169.6 304.8 170 304.4C170.1 304.3 170.2 304.2 170.3 304C170.4 303.9 170.4 303.7 170.4 303.5C170.4 303.3 170.4 303.2 170.3 303C170.2 302.7 169.9 302.5 169.6 302.3C169.1 302.1 168.6 302.2 168.2 302.6C168.1 302.7 168 302.8 167.9 303C167.8 303.2 167.8 303.3 167.8 303.5C167.8 303.8 167.9 304.1 168.2 304.4C168.3 304.5 168.4 304.6 168.6 304.7Z" fill="#3A7276"/>
<path d="M188.5 326.5C186.4 319.5 182.5 318.5 182.5 318.5C183.8 319.7 184.7 321.3 185.3 322.9C185.7 324.6 186.9 325.9 188.5 326.5Z" fill="#3A7276"/>
<path d="M238.6 496.6H239.8V437V435.2L254.8 414.4C254.9 414.2 255 413.9 255 413.7V361.2L260.5 355.8H257L253 359.8C252.8 360 252.6 360.3 252.6 360.7V413.3L239.1 432C238.9 431.9 238.8 431.9 238.6 431.9C238.4 431.9 238.3 431.9 238.1 432L224.9 413.6V393.6L238.6 377.8L239.6 376.7C239.8 376.5 239.9 376.2 239.9 375.9V355.9H238.7H237.5V375.5L222.8 392.4C222.6 392.6 222.5 392.9 222.5 393.2V414.1C222.5 414.4 222.6 414.6 222.7 414.8L237.4 435.3V437.1H238.6H237.4V484.3L226.6 496.7H229.9L237.4 488.1V496.7H238.6V496.6Z" fill="#3A7276"/>
<path d="M267.1 462.8C267.8 462.8 268.3 462.3 268.3 461.6V451.8C268.3 451.1 267.7 450.6 267.1 450.6C266.4 450.6 265.9 451.1 265.9 451.8V461.6C265.9 462.3 266.4 462.8 267.1 462.8Z" fill="#3A7276"/>
<path d="M265.9 496.6H268.4V488.8L274.4 482.9V479.4L268.4 485.3V471.5C268.4 470.8 267.8 470.3 267.2 470.3C266.5 470.3 266 470.8 266 471.5V487.8L257.1 496.6H260.6L266 491.3V496.6H265.9Z" fill="#3A7276"/>
<path d="M226.6 355.7L200.3 386C200.1 386.2 200 386.5 200 386.8V395.4C200 396.1 200.6 396.6 201.2 396.6C201.9 396.6 202.4 396.1 202.4 395.4V387.2L229.8 355.7H226.6V355.7Z" fill="#3A7276"/>
<path d="M155.7 404.9C156.4 404.9 156.9 404.4 156.9 403.7V383.1C156.9 382.4 156.3 381.9 155.7 381.9C155 381.9 154.5 382.4 154.5 383.1V403.7C154.5 404.4 155.1 404.9 155.7 404.9Z" fill="#3A7276"/>
<path d="M193.6 363.9L189 368.7C188.5 369.2 188.5 370 189 370.4C189.2 370.6 189.5 370.7 189.9 370.7C190.2 370.7 190.6 370.6 190.8 370.3L195.4 365.5C195.9 365 195.9 364.2 195.4 363.8C195.2 363.6 194.8 363.5 194.5 363.5C194.2 363.5 193.9 363.7 193.6 363.9Z" fill="#3A7276"/>
<path d="M201.2 401C200.5 401 200 401.5 200 402.2V402.5C200 403.2 200.6 403.7 201.2 403.7C201.9 403.7 202.4 403.1 202.4 402.5V402.2C202.5 401.6 201.9 401 201.2 401Z" fill="#3A7276"/>
<path d="M201.2 359.7C201.6 359.7 201.9 359.6 202.1 359.3L205.5 355.7H202.1L200.2 357.7C199.7 358.2 199.7 359 200.2 359.4C200.5 359.6 200.8 359.7 201.2 359.7Z" fill="#3A7276"/>
<path d="M168.6 445.6C169.1 445.8 169.6 445.7 170 445.3C170.1 445.2 170.2 445.1 170.3 444.9C170.4 444.8 170.4 444.6 170.4 444.4C170.4 444.2 170.4 444.1 170.3 443.9C170.2 443.6 169.9 443.4 169.6 443.2C169.1 443 168.6 443.1 168.2 443.5C168.1 443.6 168 443.7 167.9 443.9C167.8 444.1 167.8 444.2 167.8 444.4C167.8 444.7 167.9 445 168.2 445.3C168.3 445.4 168.4 445.5 168.6 445.6Z" fill="#3A7276"/>
<path d="M188.5 467.4C186.4 460.4 182.5 459.4 182.5 459.4C183.8 460.6 184.7 462.2 185.3 463.8C185.7 465.5 186.9 466.8 188.5 467.4Z" fill="#3A7276"/>
<path d="M252.9 500.6C252.7 500.8 252.5 501.1 252.5 501.5V554L239 572.7C238.8 572.6 238.7 572.6 238.5 572.6C238.3 572.6 238.2 572.6 238 572.7L224.8 554.3V534.3L238.5 518.5L239.5 517.4C239.7 517.2 239.8 516.9 239.8 516.6V496.6H238.6H237.4V516.2L222.7 533C222.5 533.2 222.4 533.5 222.4 533.8V554.7C222.4 555 222.5 555.2 222.6 555.4L237.3 575.9V577.7H238.5H237.3V625L226.5 637.4H229.8L237.3 628.8V637.4H238.5H239.7V577.8V576L254.7 555.2C254.8 555 254.9 554.7 254.9 554.5V502L260.4 496.6H257L252.9 500.6Z" fill="#3A7276"/>
<path d="M201.2 537.5C201.9 537.5 202.4 536.9 202.4 536.3V528.1L229.8 496.6H226.5L200.2 526.9C200 527.1 199.9 527.4 199.9 527.7V536.3C200 536.9 200.5 537.5 201.2 537.5Z" fill="#3A7276"/>
<path d="M193.6 504.8L189 509.6C188.5 510.1 188.5 510.9 189 511.3C189.2 511.5 189.5 511.6 189.9 511.6C190.2 511.6 190.6 511.5 190.8 511.2L195.4 506.4C195.9 505.9 195.9 505.1 195.4 504.7C195.2 504.5 194.8 504.4 194.5 504.4C194.2 504.4 193.9 504.5 193.6 504.8Z" fill="#3A7276"/>
<path d="M201.2 500.6C201.6 500.6 201.9 500.5 202.1 500.2L205.5 496.6H202.1L200.2 498.6C199.7 499.1 199.7 499.9 200.2 500.3C200.5 500.5 200.8 500.6 201.2 500.6Z" fill="#3A7276"/>
<path d="M219.7 581L217.4 577.8H214.4L217.5 582.2C217.5 582.3 217.5 582.4 217.5 582.5V602.4H201.2C200.6 597.2 196.7 592.9 191.4 591.9L183.6 584.2V577.8V535.8C183.6 535.5 183.5 535.2 183.2 534.9L170.2 522.1V496.5V480.6L180.2 470.8C182.5 473.3 185.8 474.7 189.1 474.7C190.4 474.7 191.7 474.5 192.9 474.1C197.4 472.6 200.6 468.6 201.1 464H217.3V480.5L202 496.6H205.4L219.4 481.8C219.6 481.6 219.7 481.3 219.7 481V441.7C219.7 441.6 219.7 441.4 219.7 441.3C219.8 440.9 219.8 440.5 219.6 440.2L217.3 437L202.3 415.9V408.9C202.3 408.2 201.7 407.7 201.1 407.7C200.4 407.7 199.9 408.2 199.9 408.9V416.3C199.9 416.5 200 416.8 200.1 417L214.3 437L217.4 441.4C217.4 441.5 217.4 441.6 217.4 441.7V461.6H201.1C200.5 456.4 196.6 452.1 191.3 451.1L183.5 443.4V437V395C183.5 394.7 183.4 394.4 183.1 394.1L170.1 381.3V355.7V339.8L180.1 330C182.4 332.5 185.7 333.9 189 333.9C190.3 333.9 191.6 333.7 192.8 333.3C197.3 331.8 200.5 327.8 201 323.2H217.2V339.7L201.9 355.8H205.3L219.3 341C219.5 340.8 219.6 340.5 219.6 340.2V300.9C219.6 300.8 219.6 300.6 219.6 300.5C219.7 300.1 219.7 299.7 219.5 299.4L217.2 296.2H214.2L217.3 300.6C217.3 300.7 217.3 300.8 217.3 300.9V320.8H201C200.4 315.6 196.5 311.3 191.2 310.3L183.4 302.6V296V254C183.4 253.7 183.3 253.4 183 253.1L170 240.3V214.7V198.8L180 189C182.3 191.5 185.6 192.9 188.9 192.9C190.2 192.9 191.5 192.7 192.7 192.3C197.2 190.8 200.4 186.8 200.9 182.2H217.1V198.7L201.8 214.8H205.2L219.2 200C219.4 199.8 219.5 199.5 219.5 199.2V159.9C219.5 159.8 219.5 159.6 219.5 159.5C219.6 159.1 219.6 158.7 219.4 158.4L217.1 155.2H214.1L217.2 159.6C217.2 159.7 217.2 159.8 217.2 159.9V179.8H200.9C200.3 174.6 196.4 170.3 191.1 169.3L183.3 161.6V155.2V113.2C183.3 112.9 183.2 112.6 182.9 112.3L169.9 99.5V73.9V58L179.9 48.2C182.2 50.7 185.5 52.1 188.8 52.1C190.1 52.1 191.4 51.9 192.6 51.5C197.1 50 200.3 46 200.8 41.4H217V57.9L201.7 74H205.1L219.1 59.2C219.3 59 219.4 58.7 219.4 58.4V18.9C219.4 18.8 219.4 18.6 219.4 18.5C219.5 18.1 219.5 17.7 219.3 17.4L217 14.2L202 -6.9V-13.9C202 -14.6 201.4 -15.1 200.8 -15.1C200.1 -15.1 199.6 -14.6 199.6 -13.9V-6.5C199.6 -6.3 199.7 -6 199.8 -5.8L214 14.2L217.1 18.6C217.1 18.7 217.1 18.8 217.1 18.9V38.8H200.8C200.2 33.6 196.3 29.3 191 28.3L183.2 20.6V14.2V-27.8C183.2 -28.1 183.1 -28.4 182.8 -28.7L169.8 -41.5V-67H167.3V-43.8L154.1 -56.9V-67H150.2L149.2 -66L143.2 -60.1V-67H140.7V10.5C140.7 11.2 141.3 11.7 141.9 11.7C142.6 11.7 143.1 11.2 143.1 10.5V-56.8C143.3 -56.9 143.4 -57 143.5 -57.1L149.1 -62.6L151.5 -65V-56.4C151.5 -56.1 151.6 -55.8 151.9 -55.5L167.2 -40.4V10.5C167.2 11.2 167.8 11.7 168.4 11.7C169.1 11.7 169.6 11.2 169.6 10.5V-38L180.4 -27.3V14.2V21.2C180.4 21.5 180.5 21.8 180.8 22.1L187 28.3C182.9 28.8 179.4 31.2 177.6 34.9C175.8 38.5 176 42.8 178.1 46.2C178 46.2 177.9 46.3 177.8 46.4L169.6 54.5V32.8C169.6 32.1 169 31.6 168.4 31.6C167.7 31.6 167.2 32.1 167.2 32.8V57L154 70V14.2V13.7C154 13 153.4 12.5 152.8 12.5C152.2 12.5 151.6 13 151.6 13.7V14.2V54.3L149.2 56.7L143.2 62.6V48.8C143.2 48.1 142.6 47.6 142 47.6C141.3 47.6 140.8 48.1 140.8 48.8V65.1L131.9 73.9H135.4L140.8 68.6V73.9H143.3V66.1L149.3 60.2L151.7 57.8V72.4L150.2 73.8L149.2 74.8L143.2 80.7V73.8H140.7V151.3C140.7 152 141.3 152.5 141.9 152.5C142.6 152.5 143.1 152 143.1 151.3V84C143.3 83.9 143.4 83.8 143.5 83.7L149.1 78.2L151.5 75.8V84.4C151.5 84.7 151.6 85 151.9 85.3L167.2 100.4V151.3C167.2 152 167.8 152.5 168.4 152.5C169.1 152.5 169.6 152 169.6 151.3V102.8L180.4 113.5V155V162C180.4 162.3 180.5 162.6 180.8 162.9L187 169.1C182.9 169.6 179.4 172 177.6 175.7C175.8 179.3 176 183.6 178.1 187C178 187 177.9 187.1 177.8 187.2L169.6 195.3V173.6C169.6 172.9 169 172.4 168.4 172.4C167.7 172.4 167.2 172.9 167.2 173.6V197.7L154 210.7V154.9V154.4C154 153.7 153.4 153.2 152.8 153.2C152.2 153.2 151.6 153.7 151.6 154.4V154.9V195L149.2 197.4L143.2 203.3V189.5C143.2 188.8 142.6 188.3 142 188.3C141.3 188.3 140.8 188.8 140.8 189.5V206L131.9 214.8H135.4L140.8 209.5V214.8H143.3V207L149.3 201.1L151.7 198.7V213.3L150.2 214.7L149.2 215.7L143.2 221.6V214.7H140.7V292.2C140.7 292.9 141.3 293.4 141.9 293.4C142.6 293.4 143.1 292.9 143.1 292.2V225C143.3 224.9 143.4 224.8 143.5 224.7L149.1 219.2L151.5 216.8V225.4C151.5 225.7 151.6 226 151.9 226.3L167.2 241.4V292.3C167.2 293 167.8 293.5 168.4 293.5C169.1 293.5 169.6 293 169.6 292.3V243.8L180.4 254.5V296V303C180.4 303.3 180.5 303.6 180.8 303.9L187 310.1C182.9 310.6 179.4 313 177.6 316.7C175.8 320.3 176 324.6 178.1 328C178 328 177.9 328.1 177.8 328.2L169.6 336.3V314.6C169.6 313.9 169 313.4 168.4 313.4C167.7 313.4 167.2 313.9 167.2 314.6V338.8L154 351.8V296V295.5C154 294.8 153.4 294.3 152.8 294.3C152.2 294.3 151.6 294.8 151.6 295.5V296V336.1L149.2 338.5L143.2 344.4V330.6C143.2 329.9 142.6 329.4 142 329.4C141.3 329.4 140.8 329.9 140.8 330.6V346.9L131.9 355.7H135.4L140.8 350.4V355.7H143.3V347.9L149.3 342L151.7 339.6V354.2L150.2 355.6L149.2 356.6L143.2 362.5V355.6H140.7V433.1C140.7 433.8 141.3 434.3 141.9 434.3C142.6 434.3 143.1 433.8 143.1 433.1V365.8C143.3 365.7 143.4 365.6 143.5 365.5L149.1 360L151.5 357.6V366.2C151.5 366.5 151.6 366.8 151.9 367.1L167.2 382.2V433.1C167.2 433.8 167.8 434.3 168.4 434.3C169.1 434.3 169.6 433.8 169.6 433.1V384.6L180.4 395.3V436.8V443.8C180.4 444.1 180.5 444.4 180.8 444.7L187 450.9C182.9 451.4 179.4 453.8 177.6 457.5C175.8 461.1 176 465.4 178.1 468.8C178 468.8 177.9 468.9 177.8 469L169.6 477.1V455.4C169.6 454.7 169 454.2 168.4 454.2C167.7 454.2 167.2 454.7 167.2 455.4V479.5L154 492.5V436.7V436.2C154 435.5 153.4 435 152.8 435C152.2 435 151.6 435.5 151.6 436.2V436.7V477L149.2 479.4L143.2 485.3V471.5C143.2 470.8 142.6 470.3 142 470.3C141.3 470.3 140.8 470.8 140.8 471.5V487.8L131.9 496.6H135.4L140.8 491.3V496.6H143.3V488.8L149.3 482.9L151.7 480.5V495.1L150.2 496.5L149.2 497.5L143.2 503.4V496.5H140.7V574C140.7 574.7 141.3 575.2 141.9 575.2C142.6 575.2 143.1 574.7 143.1 574V506.7C143.3 506.6 143.4 506.5 143.5 506.4L149.1 500.9L151.5 498.5V507.1C151.5 507.4 151.6 507.7 151.9 508L167.2 523.1V574C167.2 574.7 167.8 575.2 168.4 575.2C169.1 575.2 169.6 574.7 169.6 574V525.5L180.4 536.2V577.7V584.7C180.4 585 180.5 585.3 180.8 585.6L187 591.8C182.9 592.3 179.4 594.7 177.6 598.4C175.8 602 176 606.3 178.1 609.7C178 609.7 177.9 609.8 177.8 609.9L169.6 618V596.3C169.6 595.6 169 595.1 168.4 595.1C167.7 595.1 167.2 595.6 167.2 596.3V620.4L154 633.4V577.6H151.5V617.7L149.1 620.1V623.6L151.5 621.2V636L150 637.4H153.9V637L167.1 624V637.5H169.6V621.6L179.6 611.8C181.9 614.3 185.2 615.7 188.5 615.7C189.8 615.7 191.1 615.5 192.3 615.1C196.8 613.6 200 609.6 200.5 605H216.7V621.5L201.4 637.6H204.8L218.8 622.8C219 622.6 219.1 622.3 219.1 622V582.7C219.1 582.6 219.1 582.4 219.1 582.3C220 581.7 219.9 581.3 219.7 581ZM194.4 35.9C195.4 35.8 196.2 35.9 197.6 35.7C196.6 37.1 195.8 38.6 195.3 40.3V40.4C194.9 42.5 193.4 44.2 191.3 44.9C191.8 42.4 191.1 39.9 189.5 37.9C191 36.9 192.7 36.3 194.4 35.9ZM189.1 39.4C190.3 41.3 190.6 43.6 190 45.8C190.5 46.5 191.3 46.9 192.2 47L192.1 48C191 47.9 190 47.3 189.3 46.5C188.9 46.5 184.1 46.3 182.8 42.5C181.7 38.9 181.7 37.2 180.7 35.3C183.9 35.6 186.8 37.1 189.1 39.4ZM167.8 73.9V97L154.6 84V73.9V73.5L167.8 60.5V73.9V73.9ZM194.4 176.8C195.4 176.7 196.2 176.8 197.6 176.6C196.6 178 195.8 179.5 195.3 181.2V181.3C194.9 183.4 193.4 185.1 191.3 185.8C191.8 183.3 191.1 180.8 189.5 178.8C191 177.8 192.7 177.2 194.4 176.8ZM189.1 180.2C190.3 182.1 190.6 184.4 190 186.6C190.5 187.3 191.3 187.7 192.2 187.8L192.1 188.8C191 188.7 190 188.1 189.3 187.3C188.9 187.3 184.1 187.1 182.8 183.3C181.7 179.7 181.7 178 180.7 176.1C183.9 176.5 186.8 178 189.1 180.2ZM167.8 214.8V238L154.6 224.9V214.8V214.4L167.8 201.4V214.8ZM194.4 317.7C195.4 317.6 196.2 317.7 197.6 317.5C196.6 318.9 195.8 320.4 195.3 322.1V322.2C194.9 324.3 193.4 326 191.3 326.7C191.8 324.2 191.1 321.7 189.5 319.7C191 318.7 192.7 318.1 194.4 317.7ZM189.1 321.1C190.3 323 190.6 325.3 190 327.5C190.5 328.2 191.3 328.6 192.2 328.7L192.1 329.7C191 329.6 190 329 189.3 328.2C188.9 328.2 184.1 328 182.8 324.2C181.7 320.6 181.7 318.9 180.7 317C183.9 317.4 186.8 318.9 189.1 321.1ZM167.8 355.7V378.9L154.6 365.8V355.7V355.3L167.8 342.3V355.7ZM194.4 458.6C195.4 458.5 196.2 458.6 197.6 458.4C196.6 459.8 195.8 461.3 195.3 463V463.1C194.9 465.2 193.4 466.9 191.3 467.6C191.8 465.1 191.1 462.6 189.5 460.6C191 459.6 192.7 458.9 194.4 458.6ZM189.1 462C190.3 463.9 190.6 466.2 190 468.4C190.5 469.1 191.3 469.5 192.2 469.6L192.1 470.6C191 470.5 190 469.9 189.3 469.1C188.9 469.1 184.1 468.9 182.8 465.1C181.7 461.5 181.7 459.8 180.7 457.9C183.9 458.3 186.8 459.8 189.1 462ZM167.8 496.6V519.8L154.6 506.7V496.6V496.2L167.8 483.2V496.6ZM192 611.4C190.9 611.3 189.9 610.7 189.2 609.9C188.8 609.9 184 609.7 182.7 605.9C181.6 602.3 181.6 600.6 180.6 598.7C183.8 599.1 186.7 600.6 189 602.9C190.2 604.8 190.5 607.1 189.9 609.3C190.4 610 191.2 610.4 192.1 610.5L192 611.4ZM195.3 603.9C194.9 606.1 193.4 607.8 191.3 608.5C191.8 606 191.1 603.5 189.5 601.5C191 600.5 192.7 599.9 194.4 599.5C195.4 599.4 196.2 599.5 197.6 599.3C196.5 600.7 195.8 602.2 195.3 603.9Z" fill="#3A7276"/>
<path d="M132.3 73.9004L128.3 77.9004C128.1 78.1004 127.9 78.4004 127.9 78.8004V131.4L114.4 150.1C114.2 150 114.1 150 113.9 150C113.7 150 113.6 150 113.4 150.1L100.2 131.7V111.7L113.9 95.9004L114.9 94.8004C115.1 94.6004 115.2 94.3004 115.2 94.0004V74.0004H114H112.8V93.6004L98.0002 110.3C97.8002 110.5 97.7002 110.8 97.7002 111.1V132C97.7002 132.3 97.8002 132.5 97.9002 132.7L112.6 153.2V155.1H113.8H112.6V202.3L101.8 214.7H105.1L112.6 206.1V214.7H113.8H115V155.1V153.3L130 132.5C130.1 132.3 130.2 132 130.2 131.8V79.3004L135.7 73.9004H132.3V73.9004Z" fill="#3A7276"/>
<path d="M142.4 181.1C143.1 181.1 143.6 180.6 143.6 179.9V170C143.6 169.3 143 168.8 142.4 168.8C141.7 168.8 141.2 169.3 141.2 170V179.8C141.2 180.5 141.7 181.1 142.4 181.1Z" fill="#3A7276"/>
<path d="M101.9 73.9004L75.5998 104.2C75.3998 104.4 75.2998 104.7 75.2998 105V113.6C75.2998 114.3 75.8998 114.8 76.4998 114.8C77.1998 114.8 77.6998 114.3 77.6998 113.6V105.4L105.1 73.9004H101.9V73.9004Z" fill="#3A7276"/>
<path d="M75.2998 134.5C75.2998 134.7 75.3998 135 75.4998 135.2L89.6998 155.2H92.7998L77.7998 134.1V127.1C77.7998 126.4 77.1998 125.9 76.5998 125.9C75.8998 125.9 75.3998 126.4 75.3998 127.1V134.5H75.2998Z" fill="#3A7276"/>
<path d="M30.9998 123.1C31.6998 123.1 32.1998 122.6 32.1998 121.9V101.3C32.1998 100.6 31.5998 100.1 30.9998 100.1C30.2998 100.1 29.7998 100.6 29.7998 101.3V121.9C29.7998 122.6 30.2998 123.1 30.9998 123.1Z" fill="#3A7276"/>
<path d="M68.8998 82.1002L64.2998 86.9002C63.7998 87.4002 63.7998 88.2002 64.2998 88.6002C64.4998 88.8002 64.7998 88.9002 65.1998 88.9002C65.4998 88.9002 65.8998 88.8002 66.0998 88.5002L70.6998 83.7002C71.1998 83.2002 71.1998 82.4002 70.6998 82.0002C70.4998 81.8002 70.0998 81.7002 69.7998 81.7002C69.4998 81.7002 69.1998 81.9002 68.8998 82.1002Z" fill="#3A7276"/>
<path d="M77.7999 120.8V120.5C77.7999 119.8 77.1999 119.3 76.5999 119.3C75.8999 119.3 75.3999 119.8 75.3999 120.5V120.8C75.3999 121.5 75.9999 122 76.5999 122C77.1999 122 77.7999 121.5 77.7999 120.8Z" fill="#3A7276"/>
<path d="M76.3999 77.9004C76.7999 77.9004 77.0999 77.8004 77.2999 77.5004L80.6999 73.9004H77.2999L75.3999 75.9004C74.8999 76.4004 74.8999 77.2004 75.3999 77.6004C75.7999 77.8004 76.0999 77.9004 76.3999 77.9004Z" fill="#3A7276"/>
<path d="M43.9001 163.8C44.4001 164 44.9001 163.9 45.3001 163.5C45.4001 163.4 45.5001 163.3 45.6001 163.1C45.7001 163 45.7001 162.8 45.7001 162.6C45.7001 162.4 45.7001 162.3 45.6001 162.1C45.5001 161.8 45.2001 161.6 44.9001 161.4C44.4001 161.2 43.9001 161.3 43.5001 161.7C43.4001 161.8 43.3001 161.9 43.2001 162.1C43.1001 162.3 43.1001 162.4 43.1001 162.6C43.1001 162.9 43.2001 163.2 43.5001 163.5C43.6001 163.6 43.7001 163.7 43.9001 163.8Z" fill="#3A7276"/>
<path d="M63.7998 185.6C61.6998 178.6 57.7998 177.6 57.7998 177.6C59.0998 178.8 59.9998 180.4 60.5998 182C60.9998 183.7 62.1998 185 63.7998 185.6Z" fill="#3A7276"/>
<path d="M132.3 214.8L128.3 218.8C128.1 219 127.9 219.3 127.9 219.7V272.3L114.4 291C114.2 290.9 114.1 290.9 113.9 290.9C113.7 290.9 113.6 290.9 113.4 291L100.2 272.6V252.6L113.9 236.8L114.9 235.7C115.1 235.5 115.2 235.2 115.2 234.9V214.9H114H112.8V234.5L98.0002 251.2C97.8002 251.4 97.7002 251.7 97.7002 252V272.9C97.7002 273.2 97.8002 273.4 97.9002 273.6L112.6 294.1V295.9H113.8H112.6V343.1L101.8 355.5H105.1L112.6 346.9V355.5H113.8H115V296V294.2L130 273.4C130.1 273.2 130.2 272.9 130.2 272.7V220.2L135.7 214.8H132.3Z" fill="#3A7276"/>
<path d="M142.4 322C143.1 322 143.6 321.5 143.6 320.8V311C143.6 310.3 143 309.8 142.4 309.8C141.7 309.8 141.2 310.3 141.2 311V320.8C141.2 321.4 141.7 322 142.4 322Z" fill="#3A7276"/>
<path d="M101.9 214.8L75.5998 245.1C75.3998 245.3 75.2998 245.6 75.2998 245.9V254.5C75.2998 255.2 75.8998 255.7 76.4998 255.7C77.1998 255.7 77.6998 255.2 77.6998 254.5V246.3L105.1 214.8H101.9V214.8Z" fill="#3A7276"/>
<path d="M75.2998 275.4C75.2998 275.6 75.3998 275.9 75.4998 276.1L89.6998 296.1H92.7998L77.7998 275V268C77.7998 267.3 77.1998 266.8 76.5998 266.8C75.8998 266.8 75.3998 267.3 75.3998 268V275.4H75.2998Z" fill="#3A7276"/>
<path d="M30.9998 264C31.6998 264 32.1998 263.5 32.1998 262.8V242.2C32.1998 241.5 31.5998 241 30.9998 241C30.2998 241 29.7998 241.5 29.7998 242.2V262.8C29.7998 263.5 30.2998 264 30.9998 264Z" fill="#3A7276"/>
<path d="M68.8998 223L64.2998 227.8C63.7998 228.3 63.7998 229.1 64.2998 229.5C64.4998 229.7 64.7998 229.8 65.1998 229.8C65.4998 229.8 65.8998 229.7 66.0998 229.4L70.6998 224.6C71.1998 224.1 71.1998 223.3 70.6998 222.9C70.4998 222.7 70.0998 222.6 69.7998 222.6C69.4998 222.6 69.1998 222.8 68.8998 223Z" fill="#3A7276"/>
<path d="M77.7999 261.7V261.4C77.7999 260.7 77.1999 260.2 76.5999 260.2C75.8999 260.2 75.3999 260.7 75.3999 261.4V261.7C75.3999 262.4 75.9999 262.9 76.5999 262.9C77.1999 262.9 77.7999 262.4 77.7999 261.7Z" fill="#3A7276"/>
<path d="M76.3999 218.8C76.7999 218.8 77.0999 218.7 77.2999 218.4L80.6999 214.8H77.2999L75.3999 216.8C74.8999 217.3 74.8999 218.1 75.3999 218.5C75.7999 218.7 76.0999 218.8 76.3999 218.8Z" fill="#3A7276"/>
<path d="M43.9001 304.7C44.4001 304.9 44.9001 304.8 45.3001 304.4C45.4001 304.3 45.5001 304.2 45.6001 304C45.7001 303.9 45.7001 303.7 45.7001 303.5C45.7001 303.3 45.7001 303.2 45.6001 303C45.5001 302.7 45.2001 302.5 44.9001 302.3C44.4001 302.1 43.9001 302.2 43.5001 302.6C43.4001 302.7 43.3001 302.8 43.2001 303C43.1001 303.2 43.1001 303.3 43.1001 303.5C43.1001 303.8 43.2001 304.1 43.5001 304.4C43.6001 304.5 43.7001 304.6 43.9001 304.7Z" fill="#3A7276"/>
<path d="M63.7998 326.5C61.6998 319.5 57.7998 318.5 57.7998 318.5C59.0998 319.7 59.9998 321.3 60.5998 322.9C60.9998 324.6 62.1998 325.9 63.7998 326.5Z" fill="#3A7276"/>
<path d="M113.9 496.6H115.1V437V435.2L130.1 414.4C130.2 414.2 130.3 413.9 130.3 413.7V361.2L135.8 355.8H132.3L128.3 359.8C128.1 360 127.9 360.3 127.9 360.7V413.3L114.4 432C114.2 431.9 114.1 431.9 113.9 431.9C113.7 431.9 113.6 431.9 113.4 432L100.2 413.6V393.6L113.9 377.8L114.9 376.7C115.1 376.5 115.2 376.2 115.2 375.9V355.9H114H112.8V375.5L98.0002 392.1C97.8002 392.3 97.7002 392.6 97.7002 392.9V413.8C97.7002 414.1 97.8002 414.3 97.9002 414.5L112.6 435V436.8H113.8H112.6V484L101.8 496.4H105.1L112.6 487.8V496.4H113.9V496.6Z" fill="#3A7276"/>
<path d="M142.4 462.8C143.1 462.8 143.6 462.3 143.6 461.6V451.8C143.6 451.1 143 450.6 142.4 450.6C141.7 450.6 141.2 451.1 141.2 451.8V461.6C141.2 462.3 141.7 462.8 142.4 462.8Z" fill="#3A7276"/>
<path d="M101.9 355.7L75.5998 386C75.3998 386.2 75.2998 386.5 75.2998 386.8V395.4C75.2998 396.1 75.8998 396.6 76.4998 396.6C77.1998 396.6 77.6998 396.1 77.6998 395.4V387.2L105.1 355.7H101.9V355.7Z" fill="#3A7276"/>
<path d="M30.9998 404.9C31.6998 404.9 32.1998 404.4 32.1998 403.7V383.1C32.1998 382.4 31.5998 381.9 30.9998 381.9C30.2998 381.9 29.7998 382.4 29.7998 383.1V403.7C29.7998 404.4 30.2998 404.9 30.9998 404.9Z" fill="#3A7276"/>
<path d="M68.8998 363.9L64.2998 368.7C63.7998 369.2 63.7998 370 64.2998 370.4C64.4998 370.6 64.7998 370.7 65.1998 370.7C65.4998 370.7 65.8998 370.6 66.0998 370.3L70.6998 365.5C71.1998 365 71.1998 364.2 70.6998 363.8C70.4998 363.6 70.0998 363.5 69.7998 363.5C69.4998 363.5 69.1998 363.7 68.8998 363.9Z" fill="#3A7276"/>
<path d="M76.4998 401C75.7998 401 75.2998 401.5 75.2998 402.2V402.5C75.2998 403.2 75.8998 403.7 76.4998 403.7C77.1998 403.7 77.6998 403.1 77.6998 402.5V402.2C77.7998 401.6 77.1998 401 76.4998 401Z" fill="#3A7276"/>
<path d="M76.3999 359.7C76.7999 359.7 77.0999 359.6 77.2999 359.3L80.6999 355.7H77.2999L75.3999 357.7C74.8999 358.2 74.8999 359 75.3999 359.4C75.7999 359.6 76.0999 359.7 76.3999 359.7Z" fill="#3A7276"/>
<path d="M43.9001 445.6C44.4001 445.8 44.9001 445.7 45.3001 445.3C45.4001 445.2 45.5001 445.1 45.6001 444.9C45.7001 444.8 45.7001 444.6 45.7001 444.4C45.7001 444.2 45.7001 444.1 45.6001 443.9C45.5001 443.6 45.2001 443.4 44.9001 443.2C44.4001 443 43.9001 443.1 43.5001 443.5C43.4001 443.6 43.3001 443.7 43.2001 443.9C43.1001 444.1 43.1001 444.2 43.1001 444.4C43.1001 444.7 43.2001 445 43.5001 445.3C43.6001 445.4 43.7001 445.5 43.9001 445.6Z" fill="#3A7276"/>
<path d="M63.7998 467.4C61.6998 460.4 57.7998 459.4 57.7998 459.4C59.0998 460.6 59.9998 462.2 60.5998 463.8C60.9998 465.5 62.1998 466.8 63.7998 467.4Z" fill="#3A7276"/>
<path d="M128.2 500.6C128 500.8 127.8 501.1 127.8 501.5V554L114.3 572.7C114.1 572.6 114 572.6 113.8 572.6C113.6 572.6 113.5 572.6 113.3 572.7L100.1 554.3V534.3L113.8 518.5L114.8 517.4C115 517.2 115.1 516.9 115.1 516.6V496.6H113.9H112.7V516.2L98.0002 533C97.8002 533.2 97.7002 533.5 97.7002 533.8V554.7C97.7002 555 97.8002 555.2 97.9002 555.4L112.6 575.9V577.7H113.8H112.6V625L101.8 637.4H105.1L112.6 628.8V637.4H113.8H115V577.8V576L130 555.2C130.1 555 130.2 554.7 130.2 554.5V502L135.7 496.6H132.2L128.2 500.6Z" fill="#3A7276"/>
<path d="M76.5002 537.5C77.2002 537.5 77.7002 536.9 77.7002 536.3V528.1L105.1 496.6H101.8L75.5002 526.9C75.3002 527.1 75.2002 527.4 75.2002 527.7V536.3C75.2002 536.9 75.8002 537.5 76.5002 537.5Z" fill="#3A7276"/>
<path d="M68.8998 504.8L64.2998 509.6C63.7998 510.1 63.7998 510.9 64.2998 511.3C64.4998 511.5 64.7998 511.6 65.1998 511.6C65.4998 511.6 65.8998 511.5 66.0998 511.2L70.6998 506.4C71.1998 505.9 71.1998 505.1 70.6998 504.7C70.4998 504.5 70.0998 504.4 69.7998 504.4C69.4998 504.4 69.1998 504.5 68.8998 504.8Z" fill="#3A7276"/>
<path d="M76.3999 500.6C76.7999 500.6 77.0999 500.5 77.2999 500.2L80.6999 496.6H77.2999L75.3999 498.6C74.8999 499.1 74.8999 499.9 75.3999 500.3C75.7999 500.5 76.0999 500.6 76.3999 500.6Z" fill="#3A7276"/>
<path d="M95 581L92.7 577.8H89.6L92.7 582.2C92.7 582.3 92.7 582.4 92.7 582.5V602.4H76.4C75.8 597.2 71.9 592.9 66.6 591.9L58.8 584.2V577.8V535.8C58.8 535.5 58.7 535.2 58.4 534.9L45.4 522.1V496.5V480.6L55.4 470.8C57.7 473.3 61 474.7 64.3 474.7C65.6 474.7 66.9 474.5 68.1 474.1C72.6 472.6 75.8 468.6 76.3 464H92.5V480.5L77.2 496.6H80.6L94.6 481.8C94.8 481.6 94.9 481.3 94.9 481V441.7C94.9 441.6 94.9 441.4 94.9 441.3C95 440.9 95 440.5 94.8 440.2L92.5 437L77.5 415.9V408.9C77.5 408.2 76.9 407.7 76.3 407.7C75.6 407.7 75.1 408.2 75.1 408.9V416.3C75.1 416.5 75.2 416.8 75.3 417L89.5 437L92.6 441.4C92.6 441.5 92.6 441.6 92.6 441.7V461.6H76.3C75.7 456.4 71.8 452.1 66.5 451.1L58.7 443.4V437V395C58.7 394.7 58.6 394.4 58.3 394.1L45.3 381.3V355.7V339.8L55.3 330C57.6 332.5 60.9 333.9 64.2 333.9C65.5 333.9 66.8 333.7 68 333.3C72.5 331.8 75.7 327.8 76.2 323.2H92.4V339.7L77.1 355.8H80.5L94.5 341C94.7 340.8 94.8 340.5 94.8 340.2V300.9C94.8 300.8 94.8 300.6 94.8 300.5C94.9 300.1 94.9 299.7 94.7 299.4L92.4 296.2H89.3L92.4 300.6C92.4 300.7 92.4 300.8 92.4 300.9V320.8H76.1C75.5 315.6 71.6 311.3 66.3 310.3L58.5 302.6V296V254C58.5 253.7 58.4 253.4 58.1 253.1L45.1 240.3V214.7V198.8L55.1 189C57.4 191.5 60.7 192.9 64 192.9C65.3 192.9 66.6 192.7 67.8 192.3C72.3 190.8 75.5 186.8 76 182.2H92.2V198.7L76.9 214.8H80.3L94.3 200C94.5 199.8 94.6 199.5 94.6 199.2V159.9C94.6 159.8 94.6 159.6 94.6 159.5C94.7 159.1 94.7 158.7 94.5 158.4L92.2 155.2H89.1L92.2 159.6C92.2 159.7 92.2 159.8 92.2 159.9V179.8H75.9C75.3 174.6 71.4 170.3 66.1 169.3L58.3 161.6V155.2V113.2C58.3 112.9 58.2 112.6 57.9 112.3L44.9 99.5V73.9V58L54.9 48.2C57.2 50.7 60.5 52.1 63.8 52.1C65.1 52.1 66.4 51.9 67.6 51.5C72.1 50 75.3 46 75.8 41.4H92V57.9L76.7 74H80.1L94.1 59.2C94.3 59 94.4 58.7 94.4 58.4V18.9C94.4 18.8 94.4 18.6 94.4 18.5C94.5 18.1 94.5 17.7 94.3 17.4L92 14.2L77 -6.9V-13.9C77 -14.6 76.4 -15.1 75.8 -15.1C75.1 -15.1 74.6 -14.6 74.6 -13.9V-6.5C74.6 -6.3 74.7 -6 74.8 -5.8L89 14.2L92.1 18.6C92.1 18.7 92.1 18.8 92.1 18.9V38.8H75.8C75.2 33.6 71.3 29.3 66 28.3L58.2 20.6V14.2V-27.8C58.2 -28.1 58.1 -28.4 57.8 -28.7L44.8 -41.5V-67H42.3V-43.8L29.9 -56.9V-67H26L25 -66V-62.5L27.4 -65V-56.4C27.4 -56.1 27.5 -55.8 27.8 -55.5L43.1 -40.4V10.5C43.1 11.2 43.7 11.7 44.3 11.7C45 11.7 45.5 11.2 45.5 10.5V-38L56.3 -27.3V14.2V21.2C56.3 21.5 56.4 21.8 56.7 22.1L62.9 28.3C58.8 28.8 55.3 31.2 53.5 34.9C51.7 38.5 51.9 42.8 54 46.2C53.9 46.2 53.8 46.3 53.7 46.4L45.5 54.5V32.8C45.5 32.1 44.9 31.6 44.3 31.6C43.6 31.6 43.1 32.1 43.1 32.8V57L29.9 70V14.2V13.7C29.9 13 29.3 12.5 28.7 12.5C28 12.5 27.5 13 27.5 13.7V14.2V54.3L25.1 56.7V60.2L27.5 57.8V72.4L26 73.8L25 74.8V78.3L27.4 75.9V84.5C27.4 84.8 27.5 85.1 27.8 85.4L43.1 100.5V151.4C43.1 152.1 43.7 152.6 44.3 152.6C45 152.6 45.5 152.1 45.5 151.4V102.9L56.3 113.6V155.1V162.1C56.3 162.4 56.4 162.7 56.7 163L62.9 169.2C58.8 169.7 55.3 172.1 53.5 175.8C51.7 179.4 51.9 183.7 54 187.1C53.9 187.1 53.8 187.2 53.7 187.3L45.5 195.4V173.7C45.5 173 44.9 172.5 44.3 172.5C43.6 172.5 43.1 173 43.1 173.7V197.8L29.9 210.8V155V154.5C29.9 153.8 29.3 153.3 28.7 153.3C28 153.3 27.5 153.8 27.5 154.5V155V195.1L25.1 197.5V201L27.5 198.6V213.2L26 214.6L25 215.6V219.1L27.4 216.7V225.3C27.4 225.6 27.5 225.9 27.8 226.2L43.1 241.3V292.2C43.1 292.9 43.7 293.4 44.3 293.4C45 293.4 45.5 292.9 45.5 292.2V243.7L56.3 254.4V296V303C56.3 303.3 56.4 303.6 56.7 303.9L62.9 310.1C58.8 310.6 55.3 313 53.5 316.7C51.7 320.3 51.9 324.6 54 328C53.9 328 53.8 328.1 53.7 328.2L45.5 336.3V314.6C45.5 313.9 44.9 313.4 44.3 313.4C43.6 313.4 43.1 313.9 43.1 314.6V338.8L29.9 351.8V296V295.5C29.9 294.8 29.3 294.3 28.7 294.3C28 294.3 27.5 294.8 27.5 295.5V296V336.1L25.1 338.5V342L27.5 339.6V354.2L26 355.6L25 356.6V360.1L27.4 357.7V366.3C27.4 366.6 27.5 366.9 27.8 367.2L43.1 382.3V433.2C43.1 433.9 43.7 434.4 44.3 434.4C45 434.4 45.5 433.9 45.5 433.2V384.7L56.3 395.4V436.9V443.9C56.3 444.2 56.4 444.5 56.7 444.8L62.9 451C58.8 451.5 55.3 453.9 53.5 457.6C51.7 461.2 51.9 465.5 54 468.9C53.9 468.9 53.8 469 53.7 469.1L45.5 477.2V455.5C45.5 454.8 44.9 454.3 44.3 454.3C43.6 454.3 43.1 454.8 43.1 455.5V479.6L29.9 492.6V436.8V436.3C29.9 435.6 29.3 435.1 28.7 435.1C28 435.1 27.5 435.6 27.5 436.3V436.8V477L25.1 479.4V482.9L27.5 480.5V495.1L26 496.5L25 497.5V501L27.4 498.6V507.2C27.4 507.5 27.5 507.8 27.8 508.1L43.1 523.2V574.1C43.1 574.8 43.7 575.3 44.3 575.3C45 575.3 45.5 574.8 45.5 574.1V525.6L56.3 536.3V577.8V584.8C56.3 585.1 56.4 585.4 56.7 585.7L62.9 591.9C58.8 592.4 55.3 594.8 53.5 598.5C51.7 602.1 51.9 606.4 54 609.8C53.9 609.8 53.8 609.9 53.7 610L45.5 618.1V596.4C45.5 595.7 44.9 595.2 44.3 595.2C43.6 595.2 43.1 595.7 43.1 596.4V620.5L29.9 633.5V577.7H27.4V617.8L25 620.2V623.7L27.4 621.3V636L25.9 637.4H29.8V637L43 624V637.5H45.5V621.6L55.5 611.8C57.8 614.3 61.1 615.7 64.4 615.7C65.7 615.7 67 615.5 68.2 615.1C72.7 613.6 75.9 609.6 76.4 605H92.6V621.5L77.3 637.6H80.7L94.7 622.8C94.9 622.6 95 622.3 95 622V582.7C95 582.6 95 582.4 95 582.3C95.2 581.7 95.2 581.3 95 581ZM69.7 35.9C70.7 35.8 71.5 35.9 72.9 35.7C71.9 37.1 71.1 38.6 70.6 40.3V40.4C70.2 42.5 68.7 44.2 66.6 44.9C67.1 42.4 66.4 39.9 64.8 37.9C66.3 36.9 67.9 36.3 69.7 35.9ZM64.4 39.4C65.6 41.3 65.9 43.6 65.3 45.8C65.8 46.5 66.6 46.9 67.5 47L67.4 48C66.3 47.9 65.3 47.3 64.6 46.5C64.2 46.5 59.4 46.3 58.1 42.5C57 38.9 57 37.2 56 35.3C59.2 35.6 62.1 37.1 64.4 39.4ZM43.1 73.9V97L29.9 84V73.9V73.5L43.1 60.5V73.9ZM69.7 176.8C70.7 176.7 71.5 176.8 72.9 176.6C71.9 178 71.1 179.5 70.6 181.2V181.3C70.2 183.4 68.7 185.1 66.6 185.8C67.1 183.3 66.4 180.8 64.8 178.8C66.3 177.8 67.9 177.2 69.7 176.8ZM64.4 180.2C65.6 182.1 65.9 184.4 65.3 186.6C65.8 187.3 66.6 187.7 67.5 187.8L67.4 188.8C66.3 188.7 65.3 188.1 64.6 187.3C64.2 187.3 59.4 187.1 58.1 183.3C57 179.7 57 178 56 176.1C59.2 176.5 62.1 178 64.4 180.2ZM43.1 214.8V238L29.9 224.9V214.8V214.4L43.1 201.4V214.8ZM69.7 317.7C70.7 317.6 71.5 317.7 72.9 317.5C71.9 318.9 71.1 320.4 70.6 322.1V322.2C70.2 324.3 68.7 326 66.6 326.7C67.1 324.2 66.4 321.7 64.8 319.7C66.3 318.7 67.9 318.1 69.7 317.7ZM64.4 321.1C65.6 323 65.9 325.3 65.3 327.5C65.8 328.2 66.6 328.6 67.5 328.7L67.4 329.7C66.3 329.6 65.3 329 64.6 328.2C64.2 328.2 59.4 328 58.1 324.2C57 320.6 57 318.9 56 317C59.2 317.4 62.1 318.9 64.4 321.1ZM43.1 355.7V378.9L29.9 365.8V355.7V355.3L43.1 342.3V355.7ZM69.7 458.6C70.7 458.5 71.5 458.6 72.9 458.4C71.9 459.8 71.1 461.3 70.6 463V463.1C70.2 465.2 68.7 466.9 66.6 467.6C67.1 465.1 66.4 462.6 64.8 460.6C66.3 459.6 67.9 458.9 69.7 458.6ZM64.4 462C65.6 463.9 65.9 466.2 65.3 468.4C65.8 469.1 66.6 469.5 67.5 469.6L67.4 470.6C66.3 470.5 65.3 469.9 64.6 469.1C64.2 469.1 59.4 468.9 58.1 465.1C57 461.5 57 459.8 56 457.9C59.2 458.3 62.1 459.8 64.4 462ZM43.1 496.6V519.8L29.9 506.7V496.6V496.2L43.1 483.2V496.6ZM67.3 611.4C66.2 611.3 65.2 610.7 64.5 609.9C64.1 609.9 59.3 609.7 58 605.9C56.9 602.3 56.9 600.6 55.9 598.7C59.1 599.1 62 600.6 64.3 602.9C65.5 604.8 65.8 607.1 65.2 609.3C65.7 610 66.5 610.4 67.4 610.5L67.3 611.4ZM70.6 603.9C70.2 606.1 68.7 607.8 66.6 608.5C67.1 606 66.4 603.5 64.8 601.5C66.3 600.5 68 599.9 69.7 599.5C70.7 599.4 71.5 599.5 72.9 599.3C71.8 600.7 71.1 602.2 70.6 603.9Z" fill="#3A7276"/>
<path d="M-12 153.2V155.1H-10.8H-12V202.3L-22.8 214.8H-19.5L-12 206.2V214.8H-10.8H-9.6V155.2V153.4L5.4 132.6C5.5 132.4 5.6 132.1 5.6 131.9V79.4004L11.1 74.0004H7.6L3.6 78.0004C3.4 78.2004 3.2 78.5004 3.2 78.9004V131.5L-10.3 150.2C-10.5 150.1 -10.6 150.1 -10.8 150.1C-11 150.1 -11.1 150.1 -11.3 150.2L-24.5 131.6V111.6L-10.8 95.8004L-9.8 94.7004C-9.6 94.5004 -9.5 94.2004 -9.5 93.9004V73.9004H-10.7H-12V93.5004L-26.7 110.3C-26.9 110.5 -27 110.8 -27 111.1V132C-27 132.3 -26.9 132.5 -26.8 132.7L-12 153.2Z" fill="#3A7276"/>
<path d="M19 73.9004H16.5V151.4C16.5 152.1 17.1 152.6 17.7 152.6C18.4 152.6 18.9 152.1 18.9 151.4V84.1004C19.1 84.0004 19.2 83.9004 19.3 83.8004L24.9 78.3004V74.8004L18.9 80.7004V73.9004H19Z" fill="#3A7276"/>
<path d="M17.7 168.8C17 168.8 16.5 169.3 16.5 170V179.8C16.5 180.5 17.1 181 17.7 181C18.4 181 18.9 180.5 18.9 179.8V170C19 169.3 18.4 168.8 17.7 168.8Z" fill="#3A7276"/>
<path d="M19.0002 214.8V207L25.0002 201.1V197.6L19.0002 203.5V189.7C19.0002 189 18.4002 188.5 17.8002 188.5C17.1002 188.5 16.6002 189 16.6002 189.7V206L7.7002 214.8H11.2002L16.6002 209.5V214.8H19.0002Z" fill="#3A7276"/>
<path d="M-12 294.1V295.9H-10.8H-12V343.1L-22.8 355.7H-19.5L-12 347V355.6H-10.8H-9.6V296V294.2L5.4 273.4C5.5 273.2 5.6 272.9 5.6 272.7V220.2L11.1 214.8H7.6L3.6 218.8C3.4 219 3.2 219.3 3.2 219.7V272.3L-10.3 291C-10.5 290.9 -10.6 290.9 -10.8 290.9C-11 290.9 -11.1 290.9 -11.3 291L-24.5 272.5V252.5L-10.8 236.7L-9.8 235.6C-9.6 235.4 -9.5 235.1 -9.5 234.8V214.8H-10.7H-12V234.4L-26.7 251.2C-26.9 251.4 -27 251.7 -27 252V272.9C-27 273.2 -26.9 273.4 -26.8 273.6L-12 294.1Z" fill="#3A7276"/>
<path d="M19 214.8H16.5V292.3C16.5 293 17.1 293.5 17.7 293.5C18.4 293.5 18.9 293 18.9 292.3V225C19.1 224.9 19.2 224.8 19.3 224.7L24.9 219.2V215.7L18.9 221.6V214.8H19Z" fill="#3A7276"/>
<path d="M17.7 309.7C17 309.7 16.5 310.2 16.5 310.9V320.7C16.5 321.4 17.1 321.9 17.7 321.9C18.4 321.9 18.9 321.4 18.9 320.7V310.9C19 310.2 18.4 309.7 17.7 309.7Z" fill="#3A7276"/>
<path d="M19.0002 355.7V347.9L25.0002 342V338.5L19.0002 344.4V330.6C19.0002 329.9 18.4002 329.4 17.8002 329.4C17.1002 329.4 16.6002 329.9 16.6002 330.6V346.9L7.7002 355.7H11.2002L16.6002 350.4V355.7H19.0002Z" fill="#3A7276"/>
<path d="M-12 435V436.8H-10.8H-12V484L-22.8 496.6H-19.5L-12 488V496.6H-10.8H-9.6V437V435.2L5.4 414.4C5.5 414.2 5.6 413.9 5.6 413.7V361.2L11.1 355.8H7.6L3.6 359.8C3.4 360 3.2 360.3 3.2 360.7V413.3L-10.3 432C-10.5 431.9 -10.6 431.9 -10.8 431.9C-11 431.9 -11.1 431.9 -11.3 432L-24.5 413.4V393.4L-10.8 377.6L-9.8 376.5C-9.6 376.3 -9.5 376 -9.5 375.7V355.7H-10.7H-12V375.3L-26.7 392.1C-26.9 392.3 -27 392.6 -27 392.9V413.8C-27 414.1 -26.9 414.3 -26.8 414.5L-12 435Z" fill="#3A7276"/>
<path d="M19 355.7H16.5V433.2C16.5 433.9 17.1 434.4 17.7 434.4C18.4 434.4 18.9 433.9 18.9 433.2V365.9C19.1 365.8 19.2 365.7 19.3 365.6L24.9 360.1V356.6L18.9 362.5V355.7H19Z" fill="#3A7276"/>
<path d="M17.7 462.8C18.4 462.8 18.9 462.3 18.9 461.6V451.8C18.9 451.1 18.3 450.6 17.7 450.6C17 450.6 16.5 451.1 16.5 451.8V461.6C16.5 462.3 17 462.8 17.7 462.8Z" fill="#3A7276"/>
<path d="M16.5002 496.6H19.0002V488.8L25.0002 482.9V479.4L19.0002 485.3V471.5C19.0002 470.8 18.4002 470.3 17.8002 470.3C17.1002 470.3 16.6002 470.8 16.6002 471.5V487.8L7.7002 496.6H11.2002L16.6002 491.3V496.6H16.5002Z" fill="#3A7276"/>
<path d="M3.5 500.6C3.3 500.8 3.1 501.1 3.1 501.5V554L-10.4 572.7C-10.6 572.6 -10.7 572.6 -10.9 572.6C-11.1 572.6 -11.2 572.6 -11.4 572.7L-24.5 554.3V534.3L-10.8 518.5L-9.8 517.4C-9.6 517.2 -9.5 516.9 -9.5 516.6V496.6H-10.7H-12V516.2L-26.7 533C-26.9 533.2 -27 533.5 -27 533.8V554.7C-27 555 -26.9 555.2 -26.8 555.4L-12 575.9V577.7H-10.8H-12V625L-22.8 637.4H-19.5L-12 628.8V637.4H-10.8H-9.6V577.8V576L5.4 555.2C5.5 555 5.6 554.7 5.6 554.5V502L11.1 496.6H7.6L3.5 500.6Z" fill="#3A7276"/>
<path d="M19 496.6H16.5V574.1C16.5 574.8 17.1 575.3 17.7 575.3C18.4 575.3 18.9 574.8 18.9 574.1V506.8C19.1 506.7 19.2 506.6 19.3 506.5L25 501V497.5L19 503.4V496.6Z" fill="#3A7276"/>
<path d="M529.9 123.1C530.6 123.1 531.1 122.6 531.1 121.9V101.3C531.1 100.6 530.5 100.1 529.9 100.1C529.2 100.1 528.7 100.6 528.7 101.3V121.9C528.6 122.6 529.2 123.1 529.9 123.1Z" fill="#3A7276"/>
<path d="M542.7 163.8C543.2 164 543.7 163.9 544.1 163.5C544.2 163.4 544.3 163.3 544.4 163.1C544.5 163 544.5 162.8 544.5 162.6C544.5 162.4 544.5 162.3 544.4 162.1C544.3 161.8 544 161.6 543.7 161.4C543.2 161.2 542.7 161.3 542.3 161.7C542.2 161.8 542.1 161.9 542 162.1C541.9 162.3 541.9 162.4 541.9 162.6C541.9 162.9 542 163.2 542.3 163.5C542.4 163.6 542.6 163.7 542.7 163.8Z" fill="#3A7276"/>
<path d="M529.9 264C530.6 264 531.1 263.5 531.1 262.8V242.2C531.1 241.5 530.5 241 529.9 241C529.2 241 528.7 241.5 528.7 242.2V262.8C528.6 263.5 529.2 264 529.9 264Z" fill="#3A7276"/>
<path d="M542.7 304.7C543.2 304.9 543.7 304.8 544.1 304.4C544.2 304.3 544.3 304.2 544.4 304C544.5 303.9 544.5 303.7 544.5 303.5C544.5 303.3 544.5 303.2 544.4 303C544.3 302.7 544 302.5 543.7 302.3C543.2 302.1 542.7 302.2 542.3 302.6C542.2 302.7 542.1 302.8 542 303C541.9 303.2 541.9 303.3 541.9 303.5C541.9 303.8 542 304.1 542.3 304.4C542.4 304.5 542.6 304.6 542.7 304.7Z" fill="#3A7276"/>
<path d="M529.9 404.9C530.6 404.9 531.1 404.4 531.1 403.7V383.1C531.1 382.4 530.5 381.9 529.9 381.9C529.2 381.9 528.7 382.4 528.7 383.1V403.7C528.6 404.4 529.2 404.9 529.9 404.9Z" fill="#3A7276"/>
<path d="M542.7 445.6C543.2 445.8 543.7 445.7 544.1 445.3C544.2 445.2 544.3 445.1 544.4 444.9C544.5 444.8 544.5 444.6 544.5 444.4C544.5 444.2 544.5 444.1 544.4 443.9C544.3 443.6 544 443.4 543.7 443.2C543.2 443 542.7 443.1 542.3 443.5C542.2 443.6 542.1 443.7 542 443.9C541.9 444.1 541.9 444.2 541.9 444.4C541.9 444.7 542 445 542.3 445.3C542.4 445.4 542.6 445.5 542.7 445.6Z" fill="#3A7276"/>
<path d="M506.4 73.9004L502.4 77.9004C502.2 78.1004 502 78.4004 502 78.8004V131.4L488.5 150.1C488.3 150 488.2 150 488 150C487.8 150 487.7 150 487.5 150.1L474.3 131.7V111.7L488 95.9004L489 94.8004C489.2 94.6004 489.3 94.3004 489.3 94.0004V74.0004H488H486.8V93.6004L472.1 110.5C471.9 110.7 471.8 111 471.8 111.3V132C471.8 132.3 471.9 132.5 472 132.7L486.7 153.2V155.1H487.9H486.7V202.3L476 214.8H479.3L486.8 206.2V214.8H488H489.2V155.2V153.4L504.2 132.6C504.3 132.4 504.4 132.1 504.4 131.9V79.4004L509.9 74.0004H506.4V73.9004Z" fill="#3A7276"/>
<path d="M516.6 181.1C517.3 181.1 517.8 180.6 517.8 179.9V170C517.8 169.3 517.2 168.8 516.6 168.8C515.9 168.8 515.4 169.3 515.4 170V179.8C515.3 180.5 515.9 181.1 516.6 181.1Z" fill="#3A7276"/>
<path d="M517.8 189.7C517.8 189 517.2 188.5 516.6 188.5C516 188.5 515.4 189 515.4 189.7V206L506.5 214.8H510L515.4 209.5V214.8H517.9V207L523.9 201.1V197.6L517.9 203.5V189.7H517.8Z" fill="#3A7276"/>
<path d="M476 73.9004L449.7 104.2C449.5 104.4 449.4 104.7 449.4 105V113.6C449.4 114.3 450 114.8 450.6 114.8C451.3 114.8 451.8 114.3 451.8 113.6V105.4L479.2 73.9004H476V73.9004Z" fill="#3A7276"/>
<path d="M449.4 134.5C449.4 134.7 449.5 135 449.6 135.2L463.8 155.2H466.8L451.8 134.1V127.1C451.8 126.4 451.2 125.9 450.6 125.9C449.9 125.9 449.4 126.4 449.4 127.1V134.5Z" fill="#3A7276"/>
<path d="M405.2 123.1C405.9 123.1 406.4 122.6 406.4 121.9V101.3C406.4 100.6 405.8 100.1 405.2 100.1C404.5 100.1 404 100.6 404 101.3V121.9C403.9 122.6 404.5 123.1 405.2 123.1Z" fill="#3A7276"/>
<path d="M443.1 82.1002L438.5 86.9002C438 87.4002 438 88.2002 438.5 88.6002C438.7 88.8002 439 88.9002 439.4 88.9002C439.7 88.9002 440.1 88.8002 440.3 88.5002L444.9 83.7002C445.4 83.2002 445.4 82.4002 444.9 82.0002C444.7 81.8002 444.3 81.7002 444 81.7002C443.6 81.7002 443.3 81.9002 443.1 82.1002Z" fill="#3A7276"/>
<path d="M451.9 120.8V120.5C451.9 119.8 451.3 119.3 450.7 119.3C450 119.3 449.5 119.8 449.5 120.5V120.8C449.5 121.5 450.1 122 450.7 122C451.3 122 451.9 121.5 451.9 120.8Z" fill="#3A7276"/>
<path d="M450.6 77.9004C451 77.9004 451.3 77.8004 451.5 77.5004L454.9 73.9004H451.5L449.6 75.9004C449.1 76.4004 449.1 77.2004 449.6 77.6004C449.9 77.8004 450.3 77.9004 450.6 77.9004Z" fill="#3A7276"/>
<path d="M418 163.8C418.5 164 419 163.9 419.4 163.5C419.5 163.4 419.6 163.3 419.7 163.1C419.8 163 419.8 162.8 419.8 162.6C419.8 162.4 419.8 162.3 419.7 162.1C419.6 161.8 419.3 161.6 419 161.4C418.5 161.2 418 161.3 417.6 161.7C417.5 161.8 417.4 161.9 417.3 162.1C417.2 162.3 417.2 162.4 417.2 162.6C417.2 162.9 417.3 163.2 417.6 163.5C417.7 163.6 417.8 163.7 418 163.8Z" fill="#3A7276"/>
<path d="M437.9 185.6C435.8 178.6 431.9 177.6 431.9 177.6C433.2 178.8 434.1 180.4 434.7 182C435.1 183.7 436.3 185 437.9 185.6Z" fill="#3A7276"/>
<path d="M506.4 214.8L502.4 218.8C502.2 219 502 219.3 502 219.7V272.3L488.5 291C488.3 290.9 488.2 290.9 488 290.9C487.8 290.9 487.7 290.9 487.5 291L474.3 272.6V252.6L488 236.8L489 235.7C489.2 235.5 489.3 235.2 489.3 234.9V214.9H488H486.8V234.5L472.1 251.4C471.9 251.6 471.8 251.9 471.8 252.2V273.1C471.8 273.4 471.9 273.6 472 273.8L486.7 294.3V296.1H487.9H486.7V343.3L476 355.7H479.3L486.8 347.1V355.7H488H489.2V296V294.2L504.2 273.4C504.3 273.2 504.4 272.9 504.4 272.7V220.2L509.9 214.8H506.4Z" fill="#3A7276"/>
<path d="M517.8 214.8H515.3V292.3C515.3 293 515.9 293.5 516.5 293.5C517.2 293.5 517.7 293 517.7 292.3V225C517.9 224.9 518 224.8 518.1 224.7L523.7 219.2V215.7L517.7 221.6V214.8H517.8Z" fill="#3A7276"/>
<path d="M516.6 322C517.3 322 517.8 321.5 517.8 320.8V311C517.8 310.3 517.2 309.8 516.6 309.8C515.9 309.8 515.4 310.3 515.4 311V320.8C515.3 321.4 515.9 322 516.6 322Z" fill="#3A7276"/>
<path d="M517.8 330.6C517.8 329.9 517.2 329.4 516.6 329.4C516 329.4 515.4 329.9 515.4 330.6V346.9L506.5 355.7H510L515.4 350.4V355.7H517.9V347.9L523.9 342V338.5L517.9 344.4V330.6H517.8Z" fill="#3A7276"/>
<path d="M476 214.8L449.7 245.1C449.5 245.3 449.4 245.6 449.4 245.9V254.5C449.4 255.2 450 255.7 450.6 255.7C451.3 255.7 451.8 255.2 451.8 254.5V246.3L479.2 214.8H476V214.8Z" fill="#3A7276"/>
<path d="M449.4 275.4C449.4 275.6 449.5 275.9 449.6 276.1L463.8 296.1H466.8L451.8 275V268C451.8 267.3 451.2 266.8 450.6 266.8C449.9 266.8 449.4 267.3 449.4 268V275.4Z" fill="#3A7276"/>
<path d="M405.2 264C405.9 264 406.4 263.5 406.4 262.8V242.2C406.4 241.5 405.8 241 405.2 241C404.5 241 404 241.5 404 242.2V262.8C403.9 263.5 404.5 264 405.2 264Z" fill="#3A7276"/>
<path d="M443.1 223L438.5 227.8C438 228.3 438 229.1 438.5 229.5C438.7 229.7 439 229.8 439.4 229.8C439.7 229.8 440.1 229.7 440.3 229.4L444.9 224.6C445.4 224.1 445.4 223.3 444.9 222.9C444.7 222.7 444.3 222.6 444 222.6C443.6 222.6 443.3 222.8 443.1 223Z" fill="#3A7276"/>
<path d="M451.9 261.7V261.4C451.9 260.7 451.3 260.2 450.7 260.2C450 260.2 449.5 260.7 449.5 261.4V261.7C449.5 262.4 450.1 262.9 450.7 262.9C451.3 262.9 451.9 262.4 451.9 261.7Z" fill="#3A7276"/>
<path d="M450.6 218.8C451 218.8 451.3 218.7 451.5 218.4L454.9 214.8H451.5L449.6 216.8C449.1 217.3 449.1 218.1 449.6 218.5C449.9 218.7 450.3 218.8 450.6 218.8Z" fill="#3A7276"/>
<path d="M418 304.7C418.5 304.9 419 304.8 419.4 304.4C419.5 304.3 419.6 304.2 419.7 304C419.8 303.9 419.8 303.7 419.8 303.5C419.8 303.3 419.8 303.2 419.7 303C419.6 302.7 419.3 302.5 419 302.3C418.5 302.1 418 302.2 417.6 302.6C417.5 302.7 417.4 302.8 417.3 303C417.2 303.2 417.2 303.3 417.2 303.5C417.2 303.8 417.3 304.1 417.6 304.4C417.7 304.5 417.8 304.6 418 304.7Z" fill="#3A7276"/>
<path d="M437.9 326.5C435.8 319.5 431.9 318.5 431.9 318.5C433.2 319.7 434.1 321.3 434.7 322.9C435.1 324.6 436.3 325.9 437.9 326.5Z" fill="#3A7276"/>
<path d="M488 496.6H489.2V437V435.2L504.2 414.4C504.3 414.2 504.4 413.9 504.4 413.7V361.2L509.9 355.8H506.4L502.4 359.8C502.2 360 502 360.3 502 360.7V413.3L488.5 432C488.3 431.9 488.2 431.9 488 431.9C487.8 431.9 487.7 431.9 487.5 432L474.3 413.6V393.6L488 377.8L489 376.7C489.2 376.5 489.3 376.2 489.3 375.9V355.9H488H486.8V375.5L472.1 392.4C471.9 392.6 471.8 392.9 471.8 393.2V414.1C471.8 414.4 471.9 414.6 472 414.8L486.7 435.3V437.1H487.9H486.7V484.3L476 496.6H479.3L486.8 488V496.6H488Z" fill="#3A7276"/>
<path d="M517.8 355.7H515.3V433.2C515.3 433.9 515.9 434.4 516.5 434.4C517.2 434.4 517.7 433.9 517.7 433.2V365.9C517.9 365.8 518 365.7 518.1 365.6L523.7 360.1V356.6L517.7 362.5V355.7H517.8Z" fill="#3A7276"/>
<path d="M516.6 462.8C517.3 462.8 517.8 462.3 517.8 461.6V451.8C517.8 451.1 517.2 450.6 516.6 450.6C515.9 450.6 515.4 451.1 515.4 451.8V461.6C515.3 462.3 515.9 462.8 516.6 462.8Z" fill="#3A7276"/>
<path d="M517.8 471.5C517.8 470.8 517.2 470.3 516.6 470.3C516 470.3 515.4 470.8 515.4 471.5V487.8L506.5 496.6H510L515.4 491.3V496.6H517.9V488.8L523.9 482.9V479.4L517.9 485.3V471.5H517.8Z" fill="#3A7276"/>
<path d="M476 355.7L449.7 386C449.5 386.2 449.4 386.5 449.4 386.8V395.4C449.4 396.1 450 396.6 450.6 396.6C451.3 396.6 451.8 396.1 451.8 395.4V387.2L479.2 355.7H476V355.7Z" fill="#3A7276"/>
<path d="M405.2 404.9C405.9 404.9 406.4 404.4 406.4 403.7V383.1C406.4 382.4 405.8 381.9 405.2 381.9C404.5 381.9 404 382.4 404 383.1V403.7C403.9 404.4 404.5 404.9 405.2 404.9Z" fill="#3A7276"/>
<path d="M443.1 363.9L438.5 368.7C438 369.2 438 370 438.5 370.4C438.7 370.6 439 370.7 439.4 370.7C439.7 370.7 440.1 370.6 440.3 370.3L444.9 365.5C445.4 365 445.4 364.2 444.9 363.8C444.7 363.6 444.3 363.5 444 363.5C443.6 363.5 443.3 363.7 443.1 363.9Z" fill="#3A7276"/>
<path d="M450.6 401C449.9 401 449.4 401.5 449.4 402.2V402.5C449.4 403.2 450 403.7 450.6 403.7C451.3 403.7 451.8 403.1 451.8 402.5V402.2C451.9 401.6 451.3 401 450.6 401Z" fill="#3A7276"/>
<path d="M450.6 359.7C451 359.7 451.3 359.6 451.5 359.3L454.9 355.7H451.5L449.6 357.7C449.1 358.2 449.1 359 449.6 359.4C449.9 359.6 450.3 359.7 450.6 359.7Z" fill="#3A7276"/>
<path d="M418 445.6C418.5 445.8 419 445.7 419.4 445.3C419.5 445.2 419.6 445.1 419.7 444.9C419.8 444.8 419.8 444.6 419.8 444.4C419.8 444.2 419.8 444.1 419.7 443.9C419.6 443.6 419.3 443.4 419 443.2C418.5 443 418 443.1 417.6 443.5C417.5 443.6 417.4 443.7 417.3 443.9C417.2 444.1 417.2 444.2 417.2 444.4C417.2 444.7 417.3 445 417.6 445.3C417.7 445.4 417.8 445.5 418 445.6Z" fill="#3A7276"/>
<path d="M437.9 467.4C435.8 460.4 431.9 459.4 431.9 459.4C433.2 460.6 434.1 462.2 434.7 463.8C435.1 465.5 436.3 466.8 437.9 467.4Z" fill="#3A7276"/>
<path d="M502.4 500.6C502.2 500.8 502 501.1 502 501.5V554L488.5 572.7C488.3 572.6 488.2 572.6 488 572.6C487.8 572.6 487.7 572.6 487.5 572.7L474.3 554.3V534.3L488 518.5L489 517.4C489.2 517.2 489.3 516.9 489.3 516.6V496.6H488H486.8V516.2L472.1 533C471.9 533.2 471.8 533.5 471.8 533.8V554.7C471.8 555 471.9 555.2 472 555.4L486.7 575.9V577.7H487.9H486.7V625L476 637.4H479.3L486.8 628.8V637.4H488H489.2V577.8V576L504.2 555.2C504.3 555 504.4 554.7 504.4 554.5V502L509.9 496.6H506.4L502.4 500.6Z" fill="#3A7276"/>
<path d="M517.8 496.6H515.3V574.1C515.3 574.8 515.9 575.3 516.5 575.3C517.2 575.3 517.7 574.8 517.7 574.1V506.8C517.9 506.7 518 506.6 518.1 506.5L523.7 501V497.5L517.7 503.4V496.6H517.8Z" fill="#3A7276"/>
<path d="M450.6 537.5C451.3 537.5 451.8 536.9 451.8 536.3V528.1L479.2 496.6H476L449.7 526.9C449.5 527.1 449.4 527.4 449.4 527.7V536.3C449.4 536.9 449.9 537.5 450.6 537.5Z" fill="#3A7276"/>
<path d="M443.1 504.8L438.5 509.6C438 510.1 438 510.9 438.5 511.3C438.7 511.5 439 511.6 439.4 511.6C439.7 511.6 440.1 511.5 440.3 511.2L444.9 506.4C445.4 505.9 445.4 505.1 444.9 504.7C444.7 504.5 444.3 504.4 444 504.4C443.6 504.4 443.3 504.5 443.1 504.8Z" fill="#3A7276"/>
<path d="M450.6 500.6C451 500.6 451.3 500.5 451.5 500.2L454.9 496.6H451.5L449.6 498.6C449.1 499.1 449.1 499.9 449.6 500.3C449.9 500.5 450.3 500.6 450.6 500.6Z" fill="#3A7276"/>
<path d="M469.1 581L466.8 577.8H463.8L466.9 582.2C466.9 582.3 466.9 582.4 466.9 582.5V602.4H450.6C450 597.2 446.1 592.9 440.8 591.9L433 584.2V577.8V535.8C433 535.5 432.9 535.2 432.6 534.9L419.6 522.1V496.5V480.6L429.6 470.8C431.9 473.3 435.2 474.7 438.5 474.7C439.8 474.7 441.1 474.5 442.3 474.1C446.8 472.6 450 468.6 450.5 464H466.7V480.5L451.4 496.6H454.8L468.8 481.8C469 481.6 469.1 481.3 469.1 481V441.7C469.1 441.6 469.1 441.4 469.1 441.3C469.2 440.9 469.2 440.5 469 440.2L466.7 437L451.7 415.9V408.9C451.7 408.2 451.1 407.7 450.5 407.7C449.8 407.7 449.3 408.2 449.3 408.9V416.3C449.3 416.5 449.4 416.8 449.5 417L463.7 437L466.8 441.4C466.8 441.5 466.8 441.6 466.8 441.7V461.6H450.5C449.9 456.4 446 452.1 440.7 451.1L432.9 443.4V437V395C432.9 394.7 432.8 394.4 432.5 394.1L419.5 381.3V355.7V339.8L429.5 330C431.8 332.5 435.1 333.9 438.4 333.9C439.7 333.9 441 333.7 442.2 333.3C446.7 331.8 449.9 327.8 450.4 323.2H466.6V339.7L451.3 355.8H454.7L468.7 341C468.9 340.8 469 340.5 469 340.2V300.9C469 300.8 469 300.6 469 300.5C469.1 300.1 469.1 299.7 468.9 299.4L466.6 296.2H463.6L466.7 300.6C466.7 300.7 466.7 300.8 466.7 300.9V320.8H450.4C449.8 315.6 445.9 311.3 440.6 310.3L432.8 302.6V296V254C432.8 253.7 432.7 253.4 432.4 253.1L419.4 240.3V214.7V198.8L429.4 189C431.7 191.5 435 192.9 438.3 192.9C439.6 192.9 440.9 192.7 442.1 192.3C446.6 190.8 449.8 186.8 450.3 182.2H466.5V198.7L451.2 214.8H454.6L468.6 200C468.8 199.8 468.9 199.5 468.9 199.2V159.9C468.9 159.8 468.9 159.6 468.9 159.5C469 159.1 469 158.7 468.8 158.4L466.5 155.2H463.5L466.6 159.6C466.6 159.7 466.6 159.8 466.6 159.9V179.8H450.3C449.7 174.6 445.8 170.3 440.5 169.3L432.7 161.6V155.2V113.2C432.7 112.9 432.6 112.6 432.3 112.3L419.3 99.5V73.9V58L429.3 48.2C431.6 50.7 434.9 52.1 438.2 52.1C439.5 52.1 440.8 51.9 442 51.5C446.5 50 449.7 46 450.2 41.4H466.4V57.9L451.1 74H454.5L468.5 59.2C468.7 59 468.8 58.7 468.8 58.4V18.9C468.8 18.8 468.8 18.6 468.8 18.5C468.9 18.1 468.9 17.7 468.7 17.4L466.4 14.2L451.4 -6.9V-13.9C451.4 -14.6 450.8 -15.1 450.2 -15.1C449.5 -15.1 449 -14.6 449 -13.9V-6.5C449 -6.3 449.1 -6 449.2 -5.8L463.4 14.2L466.5 18.6C466.5 18.7 466.5 18.8 466.5 18.9V38.8H450.2C449.6 33.6 445.7 29.3 440.4 28.3L432.6 20.6V14.2V-27.8C432.6 -28.1 432.5 -28.4 432.2 -28.7L419.2 -41.5V-67H416.7V-43.8L404 -56.9V-67H400.1L399.1 -66L393.1 -60.1V-67H390.6V10.5C390.6 11.2 391.2 11.7 391.8 11.7C392.5 11.7 393 11.2 393 10.5V-56.8C393.2 -56.9 393.3 -57 393.4 -57.1L399 -62.6L401.4 -65V-56.4C401.4 -56.1 401.5 -55.8 401.8 -55.5L417.1 -40.4V10.5C417.1 11.2 417.7 11.7 418.3 11.7C418.9 11.7 419.5 11.2 419.5 10.5V-38L430.3 -27.3V14.2V21.2C430.3 21.5 430.4 21.8 430.7 22.1L436.9 28.3C432.8 28.8 429.3 31.2 427.5 34.9C425.7 38.5 425.9 42.8 428 46.2C427.9 46.2 427.8 46.3 427.7 46.4L419.5 54.5V32.8C419.5 32.1 418.9 31.6 418.3 31.6C417.7 31.6 417.1 32.1 417.1 32.8V57L404 70V14.2V13.7C404 13 403.4 12.5 402.8 12.5C402.1 12.5 401.6 13 401.6 13.7V14.2V54.3L399.2 56.7V60.2L401.6 57.8V72.4L400.1 73.8L399.1 74.8L393.1 80.7V73.8H390.6V151.3C390.6 152 391.2 152.5 391.8 152.5C392.5 152.5 393 152 393 151.3V84C393.2 83.9 393.3 83.8 393.4 83.7L399 78.2L401.4 75.8V84.4C401.4 84.7 401.5 85 401.8 85.3L417.1 100.4V151.3C417.1 152 417.7 152.5 418.3 152.5C418.9 152.5 419.5 152 419.5 151.3V102.8L430.3 113.5V155V162C430.3 162.3 430.4 162.6 430.7 162.9L436.9 169.1C432.8 169.6 429.3 172 427.5 175.7C425.7 179.3 425.9 183.6 428 187C427.9 187 427.8 187.1 427.7 187.2L419.5 195.3V173.6C419.5 172.9 418.9 172.4 418.3 172.4C417.7 172.4 417.1 172.9 417.1 173.6V197.7L403.9 210.7V154.9V154.4C403.9 153.7 403.3 153.2 402.7 153.2C402 153.2 401.5 153.7 401.5 154.4V154.9V195L399.1 197.4V200.9L401.5 198.5V213.1L400.1 214.5L399.1 215.5L393.1 221.4V214.5H390.6V292C390.6 292.7 391.2 293.2 391.8 293.2C392.5 293.2 393 292.7 393 292V225C393.2 224.9 393.3 224.8 393.4 224.7L399 219.2L401.4 216.8V225.4C401.4 225.7 401.5 226 401.8 226.3L417.1 241.4V292.3C417.1 293 417.7 293.5 418.3 293.5C418.9 293.5 419.5 293 419.5 292.3V243.8L430.3 254.5V296V303C430.3 303.3 430.4 303.6 430.7 303.9L436.9 310.1C432.8 310.6 429.3 313 427.5 316.7C425.7 320.3 425.9 324.6 428 328C427.9 328 427.8 328.1 427.7 328.2L419.5 336.3V314.6C419.5 313.9 418.9 313.4 418.3 313.4C417.7 313.4 417.1 313.9 417.1 314.6V338.8L403.9 351.8V296V295.5C403.9 294.8 403.3 294.3 402.7 294.3C402 294.3 401.5 294.8 401.5 295.5V296V336.1L399.1 338.5V342L401.5 339.6V354.2L400 355.6L399 356.6L393 362.5V355.6H390.5V433.1C390.5 433.8 391.1 434.3 391.7 434.3C392.4 434.3 392.9 433.8 392.9 433.1V365.8C393.1 365.7 393.2 365.6 393.3 365.5L398.9 360L401.3 357.6V366.2C401.3 366.5 401.4 366.8 401.7 367.1L417 382.2V433.1C417 433.8 417.6 434.3 418.2 434.3C418.8 434.3 419.4 433.8 419.4 433.1V384.6L430.2 395.3V436.8V443.8C430.2 444.1 430.3 444.4 430.6 444.7L436.8 450.9C432.7 451.4 429.2 453.8 427.4 457.5C425.6 461.1 425.8 465.4 427.9 468.8C427.8 468.8 427.7 468.9 427.6 469L419.4 477.1V455.4C419.4 454.7 418.8 454.2 418.2 454.2C417.6 454.2 417 454.7 417 455.4V479.5L403.8 492.5V436.7V436.2C403.8 435.5 403.2 435 402.6 435C401.9 435 401.4 435.5 401.4 436.2V436.7V477L399 479.4V482.9L401.4 480.5V495.1L399.9 496.5L398.9 497.5L392.9 503.4V496.5H390.4V574C390.4 574.7 391 575.2 391.6 575.2C392.3 575.2 392.8 574.7 392.8 574V506.7C393 506.6 393.1 506.5 393.2 506.4L398.8 500.9L401.2 498.5V507.1C401.2 507.4 401.3 507.7 401.6 508L416.9 523.1V574C416.9 574.7 417.5 575.2 418.1 575.2C418.7 575.2 419.3 574.7 419.3 574V525.5L430.1 536.2V577.7V584.7C430.1 585 430.2 585.3 430.5 585.6L436.7 591.8C432.6 592.3 429.1 594.7 427.3 598.4C425.5 602 425.7 606.3 427.8 609.7C427.7 609.7 427.6 609.8 427.5 609.9L419.3 618V596.3C419.3 595.6 418.7 595.1 418.1 595.1C417.5 595.1 416.9 595.6 416.9 596.3V620.4L403.7 633.4V577.6H401.2V617.7L398.8 620.1V623.6L401.2 621.2V636L399.7 637.4H403.6V637L416.8 624V637.5H419.3V621.6L429.3 611.8C431.6 614.3 434.9 615.7 438.2 615.7C439.5 615.7 440.8 615.5 442 615.1C446.5 613.6 449.7 609.6 450.2 605H466.4V621.5L451.1 637.6H454.5L468.5 622.8C468.7 622.6 468.8 622.3 468.8 622V582.7C468.8 582.6 468.8 582.4 468.8 582.3C469.4 581.7 469.3 581.3 469.1 581ZM443.8 35.9C444.8 35.8 445.6 35.9 447 35.7C446 37.1 445.2 38.6 444.7 40.3V40.4C444.3 42.5 442.8 44.2 440.7 44.9C441.2 42.4 440.5 39.9 438.9 37.9C440.4 36.9 442.1 36.3 443.8 35.9ZM438.5 39.4C439.7 41.3 440 43.6 439.4 45.8C439.9 46.5 440.7 46.9 441.6 47L441.5 48C440.4 47.9 439.4 47.3 438.7 46.5C438.3 46.5 433.5 46.3 432.2 42.5C431.1 38.9 431.1 37.2 430.1 35.3C433.3 35.6 436.3 37.1 438.5 39.4ZM417.2 73.9V97L404 84V73.9V73.5L417.2 60.5V73.9ZM443.8 176.8C444.8 176.7 445.6 176.8 447 176.6C446 178 445.2 179.5 444.7 181.2V181.3C444.3 183.4 442.8 185.1 440.7 185.8C441.2 183.3 440.5 180.8 438.9 178.8C440.4 177.8 442.1 177.2 443.8 176.8ZM438.5 180.2C439.7 182.1 440 184.4 439.4 186.6C439.9 187.3 440.7 187.7 441.6 187.8L441.5 188.8C440.4 188.7 439.4 188.1 438.7 187.3C438.3 187.3 433.5 187.1 432.2 183.3C431.1 179.7 431.1 178 430.1 176.1C433.3 176.5 436.3 178 438.5 180.2ZM417.2 214.8V238L404 224.9V214.8V214.4L417.2 201.4V214.8ZM443.8 317.7C444.8 317.6 445.6 317.7 447 317.5C446 318.9 445.2 320.4 444.7 322.1V322.2C444.3 324.3 442.8 326 440.7 326.7C441.2 324.2 440.5 321.7 438.9 319.7C440.4 318.7 442.1 318.1 443.8 317.7ZM438.5 321.1C439.7 323 440 325.3 439.4 327.5C439.9 328.2 440.7 328.6 441.6 328.7L441.5 329.7C440.4 329.6 439.4 329 438.7 328.2C438.3 328.2 433.5 328 432.2 324.2C431.1 320.6 431.1 318.9 430.1 317C433.3 317.4 436.3 318.9 438.5 321.1ZM417.2 355.7V378.9L404 365.8V355.7V355.3L417.2 342.3V355.7ZM443.8 458.6C444.8 458.5 445.6 458.6 447 458.4C446 459.8 445.2 461.3 444.7 463V463.1C444.3 465.2 442.8 466.9 440.7 467.6C441.2 465.1 440.5 462.6 438.9 460.6C440.4 459.6 442.1 458.9 443.8 458.6ZM438.5 462C439.7 463.9 440 466.2 439.4 468.4C439.9 469.1 440.7 469.5 441.6 469.6L441.5 470.6C440.4 470.5 439.4 469.9 438.7 469.1C438.3 469.1 433.5 468.9 432.2 465.1C431.1 461.5 431.1 459.8 430.1 457.9C433.3 458.3 436.3 459.8 438.5 462ZM417.2 496.6V519.8L404 506.7V496.6V496.2L417.2 483.2V496.6ZM441.5 611.4C440.4 611.3 439.4 610.7 438.7 609.9C438.3 609.9 433.5 609.7 432.2 605.9C431.1 602.3 431.1 600.6 430.1 598.7C433.3 599.1 436.2 600.6 438.5 602.9C439.7 604.8 440 607.1 439.4 609.3C439.9 610 440.7 610.4 441.6 610.5L441.5 611.4ZM444.7 603.9C444.3 606.1 442.8 607.8 440.7 608.5C441.2 606 440.5 603.5 438.9 601.5C440.4 600.5 442.1 599.9 443.8 599.5C444.8 599.4 445.6 599.5 447 599.3C446 600.7 445.2 602.2 444.7 603.9Z" fill="#3A7276"/>
<path d="M347.1 -29.8V-8.9C347.1 -8.6 347.2 -8.4 347.3 -8.2L362 12.3V14.1H363.2H362V61.3L351.2 73.7H354.5L362 65.1V73.7H363.2H364.4V14.2V12.4L379.4 -8.4C379.5 -8.6 379.6 -8.9 379.6 -9.1V-61.6L385.1 -67H381.6L377.6 -63C377.4 -62.8 377.2 -62.5 377.2 -62.1V-9.5L363.7 9.2C363.5 9.1 363.4 9.1 363.2 9.1C363 9.1 362.9 9.1 362.7 9.2L349.5 -9.2V-29.2L363.2 -45L364.2 -46.1C364.4 -46.3 364.5 -46.6 364.5 -46.9V-67H363.3H362.1V-47.4L347.4 -30.5C347.2 -30.4 347.1 -30.1 347.1 -29.8Z" fill="#3A7276"/>
<path d="M391.8 40.2C392.5 40.2 393 39.7 393 39V29.2C393 28.5 392.4 28 391.8 28C391.1 28 390.6 28.5 390.6 29.2V39C390.6 39.6 391.2 40.2 391.8 40.2Z" fill="#3A7276"/>
<path d="M385.2 73.8996L390.6 68.5996V73.8996H393.1V66.0996L399.1 60.1996V56.6996L393.1 62.5996V48.7996C393.1 48.0996 392.5 47.5996 391.9 47.5996C391.2 47.5996 390.7 48.0996 390.7 48.7996V65.0996L381.8 73.8996H385.2Z" fill="#3A7276"/>
<path d="M293.3 22.9004C293.8 23.1004 294.3 23.0004 294.7 22.6004C294.8 22.5004 294.9 22.4004 295 22.2004C295.1 22.1004 295.1 21.9004 295.1 21.7004C295.1 21.5004 295.1 21.4004 295 21.2004C294.9 20.9004 294.6 20.7004 294.3 20.5004C293.8 20.3004 293.3 20.4004 292.9 20.8004C292.8 20.9004 292.7 21.0004 292.6 21.2004C292.5 21.4004 292.5 21.5004 292.5 21.7004C292.5 22.0004 292.6 22.3004 292.9 22.6004C293 22.7004 293.1 22.8004 293.3 22.9004Z" fill="#3A7276"/>
<path d="M313.2 44.7002C311.1 37.7002 307.2 36.7002 307.2 36.7002C308.5 37.9002 309.4 39.5002 310 41.1002C310.4 42.8002 311.6 44.1002 313.2 44.7002Z" fill="#3A7276"/>
<path d="M222.4 -29.8V-8.9C222.4 -8.6 222.5 -8.4 222.6 -8.2L237.3 12.3V14.1H238.5H237.3V61.3L226.5 73.7H229.8L237.3 65.1V73.7H238.5H239.7V14.2V12.4L254.7 -8.4C254.8 -8.6 254.9 -8.9 254.9 -9.1V-61.6L260.4 -67H257L253 -63C252.8 -62.8 252.6 -62.5 252.6 -62.1V-9.5L239.1 9.2C238.9 9.1 238.8 9.1 238.6 9.1C238.4 9.1 238.3 9.1 238.1 9.2L224.9 -9.2V-29.2L238.6 -45L239.6 -46.1C239.8 -46.3 239.9 -46.6 239.9 -46.9V-67H238.7H237.5V-47.4L222.8 -30.5C222.5 -30.4 222.4 -30.1 222.4 -29.8Z" fill="#3A7276"/>
<path d="M267.1 40.2C267.8 40.2 268.3 39.7 268.3 39V29.2C268.3 28.5 267.7 28 267.1 28C266.4 28 265.9 28.5 265.9 29.2V39C265.9 39.6 266.4 40.2 267.1 40.2Z" fill="#3A7276"/>
<path d="M260.5 73.8996L265.9 68.5996V73.8996H268.4V66.0996L274.4 60.1996V56.6996L268.4 62.5996V48.7996C268.4 48.0996 267.8 47.5996 267.2 47.5996C266.5 47.5996 266 48.0996 266 48.7996V65.0996L257.1 73.8996H260.5Z" fill="#3A7276"/>
<path d="M168.6 22.9004C169.1 23.1004 169.6 23.0004 170 22.6004C170.1 22.5004 170.2 22.4004 170.3 22.2004C170.4 22.1004 170.4 21.9004 170.4 21.7004C170.4 21.5004 170.4 21.4004 170.3 21.2004C170.2 20.9004 169.9 20.7004 169.6 20.5004C169.1 20.3004 168.6 20.4004 168.2 20.8004C168.1 20.9004 168 21.0004 167.9 21.2004C167.8 21.4004 167.8 21.5004 167.8 21.7004C167.8 22.0004 167.9 22.3004 168.2 22.6004C168.3 22.7004 168.4 22.8004 168.6 22.9004Z" fill="#3A7276"/>
<path d="M188.5 44.7002C186.4 37.7002 182.5 36.7002 182.5 36.7002C183.8 37.9002 184.7 39.5002 185.3 41.1002C185.7 42.8002 186.9 44.1002 188.5 44.7002Z" fill="#3A7276"/>
<path d="M97.7002 -29.8V-8.9C97.7002 -8.6 97.8002 -8.4 97.9002 -8.2L112.6 12.3V14.1H113.8H112.6V61.3L101.8 73.7H105.1L112.6 65.1V73.7H113.8H115V14.2V12.4L130 -8.4C130.1 -8.6 130.2 -8.9 130.2 -9.1V-61.6L135.7 -67H132.2L128.2 -63C128 -62.8 127.8 -62.5 127.8 -62.1V-9.5L114.3 9.2C114.1 9.1 114 9.1 113.8 9.1C113.6 9.1 113.5 9.1 113.3 9.2L100.1 -9.2V-29.2L113.8 -45L114.8 -46.1C115 -46.3 115.1 -46.6 115.1 -46.9V-67H113.9H112.7V-47.4L98.0002 -30.6C97.8002 -30.4 97.7002 -30.1 97.7002 -29.8Z" fill="#3A7276"/>
<path d="M142.4 40.2C143.1 40.2 143.6 39.7 143.6 39V29.2C143.6 28.5 143 28 142.4 28C141.7 28 141.2 28.5 141.2 29.2V39C141.2 39.6 141.7 40.2 142.4 40.2Z" fill="#3A7276"/>
<path d="M43.9001 22.9004C44.4001 23.1004 44.9001 23.0004 45.3001 22.6004C45.4001 22.5004 45.5001 22.4004 45.6001 22.2004C45.7001 22.1004 45.7001 21.9004 45.7001 21.7004C45.7001 21.5004 45.7001 21.4004 45.6001 21.2004C45.5001 20.9004 45.2001 20.7004 44.9001 20.5004C44.4001 20.3004 43.9001 20.4004 43.5001 20.8004C43.4001 20.9004 43.3001 21.0004 43.2001 21.2004C43.1001 21.4004 43.1001 21.5004 43.1001 21.7004C43.1001 22.0004 43.2001 22.3004 43.5001 22.6004C43.6001 22.7004 43.7001 22.8004 43.9001 22.9004Z" fill="#3A7276"/>
<path d="M63.7998 44.7002C61.6998 37.7002 57.7998 36.7002 57.7998 36.7002C59.0998 37.9002 59.9998 39.5002 60.5998 41.1002C60.9998 42.8002 62.1998 44.1002 63.7998 44.7002Z" fill="#3A7276"/>
<path d="M-12 12.4V14.2H-10.8H-12V61.4L-22.8 73.9H-19.5L-12 65.3V73.9H-10.8H-9.6V14.2V12.4L5.4 -8.4C5.5 -8.6 5.6 -8.9 5.6 -9.1V-61.6L11.1 -67H7.6L3.6 -63C3.4 -62.8 3.2 -62.5 3.2 -62.1V-9.5L-10.3 9.2C-10.5 9.1 -10.6 9.1 -10.8 9.1C-11 9.1 -11.1 9.1 -11.3 9.2L-24.5 -9.3V-29.3L-10.8 -45.1L-9.8 -46.2C-9.6 -46.4 -9.5 -46.7 -9.5 -47V-67H-10.7H-12V-47.4L-26.7 -30.6C-26.9 -30.4 -27 -30.1 -27 -29.8V-8.9C-27 -8.6 -26.9 -8.4 -26.8 -8.2L-12 12.4Z" fill="#3A7276"/>
<path d="M19 -67H16.5V10.5C16.5 11.2 17.1 11.7 17.7 11.7C18.4 11.7 18.9 11.2 18.9 10.5V-56.8C19.1 -56.9 19.2 -57 19.3 -57.1L25 -62.6V-66L19 -60.1V-67Z" fill="#3A7276"/>
<path d="M17.7 40.2C18.4 40.2 18.9 39.7 18.9 39V29.2C18.9 28.5 18.3 28 17.7 28C17 28 16.5 28.5 16.5 29.2V39C16.5 39.6 17 40.2 17.7 40.2Z" fill="#3A7276"/>
<path d="M11.1002 73.8996L16.5002 68.5996V73.8996H19.0002V66.0996L25.0002 60.1996V56.6996L19.0002 62.5996V48.7996C19.0002 48.0996 18.4002 47.5996 17.8002 47.5996C17.1002 47.5996 16.6002 48.0996 16.6002 48.7996V65.0996L7.7002 73.8996H11.1002Z" fill="#3A7276"/>
<path d="M542.7 22.9004C543.2 23.1004 543.7 23.0004 544.1 22.6004C544.2 22.5004 544.3 22.4004 544.4 22.2004C544.5 22.1004 544.5 21.9004 544.5 21.7004C544.5 21.5004 544.5 21.4004 544.4 21.2004C544.3 20.9004 544 20.7004 543.7 20.5004C543.2 20.3004 542.7 20.4004 542.3 20.8004C542.2 20.9004 542.1 21.0004 542 21.2004C541.9 21.4004 541.9 21.5004 541.9 21.7004C541.9 22.0004 542 22.3004 542.3 22.6004C542.4 22.7004 542.6 22.8004 542.7 22.9004Z" fill="#3A7276"/>
<path d="M471.8 -29.8V-8.9C471.8 -8.6 471.9 -8.4 472 -8.2L486.7 12.3V14.1H487.9H486.7V61.3L476 73.9H479.3L486.8 65.3V73.9H488H489.2V14.2V12.4L504.2 -8.4C504.3 -8.6 504.4 -8.9 504.4 -9.1V-61.6L509.9 -67H506.4L502.4 -63C502.2 -62.8 502 -62.5 502 -62.1V-9.5L488.5 9.2C488.3 9.1 488.2 9.1 488 9.1C487.8 9.1 487.7 9.1 487.5 9.2L474.3 -9.2V-29.2L488 -45.1L489 -46.2C489.2 -46.4 489.3 -46.7 489.3 -47V-67H488H486.8V-47.4L472.1 -30.5C471.9 -30.4 471.8 -30.1 471.8 -29.8Z" fill="#3A7276"/>
<path d="M517.8 -67H515.3V10.5C515.3 11.2 515.9 11.7 516.5 11.7C517.2 11.7 517.7 11.2 517.7 10.5V-56.8C517.9 -56.9 518 -57 518.1 -57.1L523.7 -62.6V-66L517.7 -60.1V-67H517.8Z" fill="#3A7276"/>
<path d="M516.6 40.2C517.3 40.2 517.8 39.7 517.8 39V29.2C517.8 28.5 517.2 28 516.6 28C515.9 28 515.4 28.5 515.4 29.2V39C515.3 39.6 515.9 40.2 516.6 40.2Z" fill="#3A7276"/>
<path d="M593.8 581L591.5 577.8H588.5L591.6 582.2C591.6 582.3 591.6 582.4 591.6 582.5V602.4H575.3C574.7 597.2 570.8 592.9 565.5 591.9L557.7 584.2V577.8V535.8C557.7 535.5 557.6 535.2 557.3 534.9L544.3 522.1V496.5V480.6L554.3 470.8C556.6 473.3 559.9 474.7 563.2 474.7C564.5 474.7 565.8 474.5 567 474.1C571.5 472.6 574.7 468.6 575.2 464H591.4V480.5L576.1 496.6H579.5L593.5 481.8C593.7 481.6 593.8 481.3 593.8 481V441.7C593.8 441.6 593.8 441.4 593.8 441.3C593.9 440.9 593.9 440.5 593.7 440.2L591.4 437L576.4 415.9V408.9C576.4 408.2 575.8 407.7 575.2 407.7C574.5 407.7 574 408.2 574 408.9V416.3C574 416.5 574.1 416.8 574.2 417L588.4 437L591.5 441.4C591.5 441.5 591.5 441.6 591.5 441.7V461.6H575.2C574.6 456.4 570.7 452.1 565.4 451.1L557.6 443.4V437V395C557.6 394.7 557.5 394.4 557.2 394.1L544.2 381.3V355.7V339.8L554.2 330C556.5 332.5 559.8 333.9 563.1 333.9C564.4 333.9 565.7 333.7 566.9 333.3C571.4 331.8 574.6 327.8 575.1 323.2H591.3V339.7L576 355.8H579.4L593.4 341C593.6 340.8 593.7 340.5 593.7 340.2V300.9C593.7 300.8 593.7 300.6 593.7 300.5C593.8 300.1 593.8 299.7 593.6 299.4L591.3 296.2H588.3L591.4 300.6C591.4 300.7 591.4 300.8 591.4 300.9V320.8H575.1C574.5 315.6 570.6 311.3 565.3 310.3L557.5 302.6V296V254C557.5 253.7 557.4 253.4 557.1 253.1L544.1 240.3V214.7V198.8L554.1 189C556.4 191.5 559.7 192.9 563 192.9C564.3 192.9 565.6 192.7 566.8 192.3C571.3 190.8 574.5 186.8 575 182.2H591.2V198.7L575.9 214.8H579.3L593.3 200C593.5 199.8 593.6 199.5 593.6 199.2V159.9C593.6 159.8 593.6 159.6 593.6 159.5C593.7 159.1 593.7 158.7 593.5 158.4L591.2 155.2H588.2L591.3 159.6C591.3 159.7 591.3 159.8 591.3 159.9V179.8H575C574.4 174.6 570.5 170.3 565.2 169.3L557.4 161.6V155.2V113.2C557.4 112.9 557.3 112.6 557 112.3L544 99.5V73.9V58L554 48.2C556.3 50.7 559.6 52.1 562.9 52.1C564.2 52.1 565.5 51.9 566.7 51.5C571.2 50 574.4 46 574.9 41.4H591.1V57.9L575.8 74H579.2L593.2 59.2C593.4 59 593.5 58.7 593.5 58.4V18.9C593.5 18.8 593.5 18.6 593.5 18.5C593.6 18.1 593.6 17.7 593.4 17.4L591.1 14.2L576.1 -6.9V-13.9C576.1 -14.6 575.5 -15.1 574.9 -15.1C574.2 -15.1 573.7 -14.6 573.7 -13.9V-6.5C573.7 -6.3 573.8 -6 573.9 -5.8L588.1 14.2L591.2 18.6C591.2 18.7 591.2 18.8 591.2 18.9V38.8H574.9C574.3 33.6 570.4 29.3 565.1 28.3L557.3 20.6V14.2V-27.8C557.3 -28.1 557.2 -28.4 556.9 -28.7L543.9 -41.5V-67H541.4V-43.8L528.2 -56.9V-67H524.3L523.3 -66V-62.5L525.7 -64.9V-56.3C525.7 -56 525.8 -55.7 526.1 -55.4L541.4 -40.3V10.6C541.4 11.3 542 11.8 542.6 11.8C543.3 11.8 543.8 11.3 543.8 10.6V-38L554.6 -27.3V14.2V21.2C554.6 21.5 554.7 21.8 555 22.1L561.2 28.3C557.1 28.8 553.6 31.2 551.8 34.9C550 38.5 550.2 42.8 552.3 46.2C552.2 46.2 552.1 46.3 552 46.4L543.8 54.5V32.8C543.8 32.1 543.2 31.6 542.6 31.6C541.9 31.6 541.4 32.1 541.4 32.8V57L528.2 70V14.2V13.7C528.2 13 527.6 12.5 527 12.5C526.3 12.5 525.8 13 525.8 13.7V14.2V54.3L523.4 56.7V60.2L525.8 57.8V72.4L524.3 73.8L523.3 74.8V78.3L525.7 75.9V84.5C525.7 84.8 525.8 85.1 526.1 85.4L541.4 100.5V151.4C541.4 152.1 542 152.6 542.6 152.6C543.3 152.6 543.8 152.1 543.8 151.4V102.9L554.6 113.6V155.1V162.1C554.6 162.4 554.7 162.7 555 163L561.2 169.2C557.1 169.7 553.6 172.1 551.8 175.8C550 179.4 550.2 183.7 552.3 187.1C552.2 187.1 552.1 187.2 552 187.3L543.8 195.4V173.7C543.8 173 543.2 172.5 542.6 172.5C541.9 172.5 541.4 173 541.4 173.7V197.8L528.2 210.8V155V154.5C528.2 153.8 527.6 153.3 527 153.3C526.3 153.3 525.8 153.8 525.8 154.5V155V195.1L523.4 197.5V201L525.8 198.6V213.2L524.4 214.6L523.4 215.6V219.1L525.8 216.7V225.3C525.8 225.6 525.9 225.9 526.2 226.2L541.5 241.3V292.2C541.5 292.9 542.1 293.4 542.7 293.4C543.4 293.4 543.9 292.9 543.9 292.2V243.7L554.7 254.4V296V303C554.7 303.3 554.8 303.6 555.1 303.9L561.3 310.1C557.2 310.6 553.7 313 551.9 316.7C550.1 320.3 550.3 324.6 552.4 328C552.3 328 552.2 328.1 552.1 328.2L543.9 336.3V314.6C543.9 313.9 543.3 313.4 542.7 313.4C542 313.4 541.5 313.9 541.5 314.6V338.8L528.3 351.8V296V295.5C528.3 294.8 527.7 294.3 527.1 294.3C526.4 294.3 525.9 294.8 525.9 295.5V296V336.1L523.5 338.5V342L525.9 339.6V354.2L524.4 355.6L523.4 356.6V360.1L525.8 357.7V366.3C525.8 366.6 525.9 366.9 526.2 367.2L541.5 382.3V433.2C541.5 433.9 542.1 434.4 542.7 434.4C543.4 434.4 543.9 433.9 543.9 433.2V384.7L554.7 395.4V436.9V443.9C554.7 444.2 554.8 444.5 555.1 444.8L561.3 451C557.2 451.5 553.7 453.9 551.9 457.6C550.1 461.2 550.3 465.5 552.4 468.9C552.3 468.9 552.2 469 552.1 469.1L543.9 477.2V455.5C543.9 454.8 543.3 454.3 542.7 454.3C542 454.3 541.5 454.8 541.5 455.5V479.6L528.3 492.6V436.8V436.3C528.3 435.6 527.7 435.1 527.1 435.1C526.4 435.1 525.9 435.6 525.9 436.3V436.8V477L523.5 479.4V482.9L525.9 480.5V495.1L524.4 496.5L523.4 497.5V501L525.8 498.6V507.2C525.8 507.5 525.9 507.8 526.2 508.1L541.5 523.2V574.1C541.5 574.8 542.1 575.3 542.7 575.3C543.4 575.3 543.9 574.8 543.9 574.1V525.6L554.7 536.3V577.8V584.8C554.7 585.1 554.8 585.4 555.1 585.7L561.3 591.9C557.2 592.4 553.7 594.8 551.9 598.5C550.1 602.1 550.3 606.4 552.4 609.8C552.3 609.8 552.2 609.9 552.1 610L543.9 618.1V596.4C543.9 595.7 543.3 595.2 542.7 595.2C542 595.2 541.5 595.7 541.5 596.4V620.5L528.3 633.5V577.7H525.8V617.8L523.4 620.2V623.7L525.8 621.3V636L524.3 637.4H528.2V637L541.4 624V637.5H543.9V621.6L553.9 611.8C556.2 614.3 559.5 615.7 562.8 615.7C564.1 615.7 565.4 615.5 566.6 615.1C571.1 613.6 574.3 609.6 574.8 605H591V621.5L575.7 637.6H579.1L593.1 622.8C593.3 622.6 593.4 622.3 593.4 622V582.7C593.4 582.6 593.4 582.4 593.4 582.3C594.1 581.7 594 581.3 593.8 581ZM568.5 35.9C569.5 35.8 570.3 35.9 571.7 35.7C570.7 37.1 569.9 38.6 569.4 40.3V40.4C569 42.5 567.5 44.2 565.4 44.9C565.9 42.4 565.2 39.9 563.6 37.9C565.1 36.9 566.8 36.3 568.5 35.9ZM563.2 39.4C564.4 41.3 564.7 43.6 564.1 45.8C564.6 46.5 565.4 46.9 566.3 47L566.2 48C565.1 47.9 564.1 47.3 563.4 46.5C563 46.5 558.2 46.3 556.9 42.5C555.8 38.9 555.8 37.2 554.8 35.3C558 35.6 561 37.1 563.2 39.4ZM541.9 73.9V97L528.7 84V73.9V73.5L541.9 60.5V73.9V73.9ZM568.5 176.8C569.5 176.7 570.3 176.8 571.7 176.6C570.7 178 569.9 179.5 569.4 181.2V181.3C569 183.4 567.5 185.1 565.4 185.8C565.9 183.3 565.2 180.8 563.6 178.8C565.1 177.8 566.8 177.2 568.5 176.8ZM563.2 180.2C564.4 182.1 564.7 184.4 564.1 186.6C564.6 187.3 565.4 187.7 566.3 187.8L566.2 188.8C565.1 188.7 564.1 188.1 563.4 187.3C563 187.3 558.2 187.1 556.9 183.3C555.8 179.7 555.8 178 554.8 176.1C558 176.5 561 178 563.2 180.2ZM541.9 214.8V238L528.7 224.9V214.8V214.4L541.9 201.4V214.8ZM568.5 317.7C569.5 317.6 570.3 317.7 571.7 317.5C570.7 318.9 569.9 320.4 569.4 322.1V322.2C569 324.3 567.5 326 565.4 326.7C565.9 324.2 565.2 321.7 563.6 319.7C565.1 318.7 566.8 318.1 568.5 317.7ZM563.2 321.1C564.4 323 564.7 325.3 564.1 327.5C564.6 328.2 565.4 328.6 566.3 328.7L566.2 329.7C565.1 329.6 564.1 329 563.4 328.2C563 328.2 558.2 328 556.9 324.2C555.8 320.6 555.8 318.9 554.8 317C558 317.4 561 318.9 563.2 321.1ZM541.9 355.7V378.9L528.7 365.8V355.7V355.3L541.9 342.3V355.7ZM568.5 458.6C569.5 458.5 570.3 458.6 571.7 458.4C570.7 459.8 569.9 461.3 569.4 463V463.1C569 465.2 567.5 466.9 565.4 467.6C565.9 465.1 565.2 462.6 563.6 460.6C565.1 459.6 566.8 458.9 568.5 458.6ZM563.2 462C564.4 463.9 564.7 466.2 564.1 468.4C564.6 469.1 565.4 469.5 566.3 469.6L566.2 470.6C565.1 470.5 564.1 469.9 563.4 469.1C563 469.1 558.2 468.9 556.9 465.1C555.8 461.5 555.8 459.8 554.8 457.9C558 458.3 561 459.8 563.2 462ZM541.9 496.6V519.8L528.7 506.7V496.6V496.2L541.9 483.2V496.6ZM566.2 611.4C565.1 611.3 564.1 610.7 563.4 609.9C563 609.9 558.2 609.7 556.9 605.9C555.8 602.3 555.8 600.6 554.8 598.7C558 599.1 560.9 600.6 563.2 602.9C564.4 604.8 564.7 607.1 564.1 609.3C564.6 610 565.4 610.4 566.3 610.5L566.2 611.4ZM569.4 603.9C569 606.1 567.5 607.8 565.4 608.5C565.9 606 565.2 603.5 563.6 601.5C565.1 600.5 566.8 599.9 568.5 599.5C569.5 599.4 570.3 599.5 571.7 599.3C570.7 600.7 569.9 602.2 569.4 603.9Z" fill="#3A7276"/>
<path d="M517.8 73.9004H515.3V151.4C515.3 152.1 515.9 152.6 516.5 152.6C517.2 152.6 517.7 152.1 517.7 151.4V84.1004C517.9 84.0004 518 83.9004 518.1 83.8004L523.7 78.3004V74.8004L517.7 80.7004V73.9004H517.8Z" fill="#3A7276"/>
<path d="M517.8 48.7996C517.8 48.0996 517.2 47.5996 516.6 47.5996C516 47.5996 515.4 48.0996 515.4 48.7996V65.0996L506.5 73.8996H510L515.4 68.5996V73.8996H517.9V66.0996L523.9 60.1996V56.6996L517.9 62.5996V48.7996H517.8Z" fill="#3A7276"/>
<path d="M418 22.9004C418.5 23.1004 419 23.0004 419.4 22.6004C419.5 22.5004 419.6 22.4004 419.7 22.2004C419.8 22.1004 419.8 21.9004 419.8 21.7004C419.8 21.5004 419.8 21.4004 419.7 21.2004C419.6 20.9004 419.3 20.7004 419 20.5004C418.5 20.3004 418 20.4004 417.6 20.8004C417.5 20.9004 417.4 21.0004 417.3 21.2004C417.2 21.4004 417.2 21.5004 417.2 21.7004C417.2 22.0004 417.3 22.3004 417.6 22.6004C417.7 22.7004 417.8 22.8004 418 22.9004Z" fill="#3A7276"/>
<path d="M437.9 44.7002C435.8 37.7002 431.9 36.7002 431.9 36.7002C433.2 37.9002 434.1 39.5002 434.7 41.1002C435.1 42.8002 436.3 44.1002 437.9 44.7002Z" fill="#3A7276"/>
</g>
<defs>
<radialGradient id="paint0_radial" cx="0" cy="0" r="1" gradientUnits="userSpaceOnUse" gradientTransform="translate(74.5 43.5) rotate(70.9916) scale(379.176 392.711)">
<stop stop-color="white" stop-opacity="0.99"/>
<stop offset="0.473958" stop-color="white" stop-opacity="0.1"/>
<stop offset="0.828125" stop-color="white" stop-opacity="0"/>
</radialGradient>
</defs>
</svg>
