<?xml version="1.0" encoding="UTF-8"?>
<svg width="100px" height="12px" viewBox="0 0 100 12" version="1.1" xmlns="http://www.w3.org/2000/svg" xmlns:xlink="http://www.w3.org/1999/xlink">
    <!-- Generator: Sketch 59 (86127) - https://sketch.com -->
    <title>shape</title>
    <desc>Created with Sketch.</desc>
    <g id="shape" stroke="none" stroke-width="1" fill="none" fill-rule="evenodd">
        <path d="M0,7.70250161 C0.738683233,8.33482604 1.73602211,8.6112949 2.71891355,8.72022086 C6.64442073,9.1550016 9.12332049,6.24538611 12.1656701,4.46703134 C17.1337226,1.56756996 23.1238145,0.105377399 28.9195651,0.0707610983 C34.0870854,0.0412218547 38.945151,0.984631447 43.9826444,1.9723499 C46.6861785,2.50082543 49.3393795,3.20238247 52.0927805,3.45900465 C54.8909219,3.72070388 57.9034445,3.75532018 60.7067125,3.58731574 C63.375293,3.42438835 65.9091862,2.86129652 68.6071277,3.04407059 C74.4578718,3.43915797 79.9092142,5.82029793 85.111688,8.2060534 C88.6480466,9.82609629 92.4188264,11.1008993 96.3140406,11.6492215 L100,12 L100,1.13686838e-13 L0,1.13686838e-13 L0,7.70250161 Z" id="Shape" fill="#f9fcfd" fill-rule="nonzero" transform="translate(50.000000, 6.000000) rotate(-180.000000) translate(-50.000000, -6.000000) "></path>
    </g>
</svg>