<?xml version="1.0" encoding="UTF-8"?>
<svg width="142px" height="56px" viewBox="0 0 142 56" version="1.1" xmlns="http://www.w3.org/2000/svg" xmlns:xlink="http://www.w3.org/1999/xlink">
    <!-- Generator: Sketch 58 (84663) - https://sketch.com -->
    <title>soc2</title>
    <desc>Created with Sketch.</desc>
    <defs>
        <rect id="path-1" x="0" y="0" width="142" height="56"></rect>
        <filter x="-0.7%" y="-1.8%" width="101.4%" height="103.6%" filterUnits="objectBoundingBox" id="filter-2">
            <feOffset dx="0" dy="-2" in="SourceAlpha" result="shadowOffsetInner1"></feOffset>
            <feComposite in="shadowOffsetInner1" in2="SourceAlpha" operator="arithmetic" k2="-1" k3="1" result="shadowInnerInner1"></feComposite>
            <feColorMatrix values="0 0 0 0 0.156862745   0 0 0 0 0.419607843   0 0 0 0 0.454901961  0 0 0 0.2 0" type="matrix" in="shadowInnerInner1"></feColorMatrix>
        </filter>
    </defs>
    <g id="soc2" stroke="none" stroke-width="1" fill="none" fill-rule="evenodd">
        <g id="Rectangle-Copy-3">
            <use fill="#FFFFFF" fill-rule="evenodd" xlink:href="#path-1"></use>
            <use fill="black" fill-opacity="1" filter="url(#filter-2)" xlink:href="#path-1"></use>
        </g>
        <g id="Group" transform="translate(10.000000, 13.000000)" fill-rule="nonzero">
            <g id="Group-2">
                <path d="M27.0095734,5.01472221 C26.947913,5.13804301 26.8764441,5.22492682 26.7951645,5.27537624 C26.7138848,5.32582566 26.6171916,5.35104999 26.5050818,5.35104999 C26.3929719,5.35104999 26.2668503,5.30760809 26.126713,5.22072298 C25.9865757,5.13383786 25.8212162,5.03714459 25.6306295,4.93064026 C25.4400428,4.82413594 25.2172279,4.72744267 24.9621781,4.64055755 C24.7071282,4.55367244 24.4058376,4.51023054 24.0582971,4.51023054 C23.7443896,4.51023054 23.4711261,4.54806704 23.2384982,4.62374116 C23.0058703,4.69941529 22.8096811,4.80451667 22.6499246,4.93904846 C22.4901681,5.07358024 22.3710532,5.23473569 22.2925763,5.42251964 C22.2140994,5.61030359 22.1748616,5.8163023 22.1748616,6.04052194 C22.1748616,6.32640198 22.2547386,6.56463178 22.4144951,6.75521847 C22.5742516,6.94580517 22.7858557,7.10836197 23.0493138,7.24289376 C23.3127719,7.37742554 23.6126612,7.49794179 23.9489906,7.60444612 C24.2853201,7.71095045 24.6286513,7.82445994 24.9789944,7.944978 C25.3293376,8.06549606 25.6726688,8.20563123 26.0089983,8.36538772 C26.3453277,8.52514422 26.645217,8.72693887 26.9086751,8.97077773 C27.1721332,9.21461659 27.3837373,9.51310451 27.5434938,9.86625045 C27.7032503,10.2193964 27.7831273,10.64821 27.7831273,11.1527042 C27.7831273,11.7020423 27.6892368,12.2163384 27.5014528,12.6956079 C27.3136689,13.1748774 27.0390039,13.5924802 26.6774497,13.9484289 C26.3158956,14.3043776 25.8744698,14.5846479 25.3531591,14.7892483 C24.8318484,14.9938488 24.2348726,15.0961474 23.5622137,15.0961474 C23.1754348,15.0961474 22.7942671,15.0583109 22.4186992,14.9826368 C22.0431313,14.9069627 21.6829839,14.7990586 21.3382462,14.6589213 C20.9935085,14.518784 20.6711976,14.3506218 20.3713039,14.1544296 C20.0714101,13.9582375 19.8037519,13.7396266 19.5683213,13.4985905 L20.2241604,12.4139334 C20.2858209,12.3354565 20.3600925,12.269593 20.4469776,12.2163408 C20.5338627,12.1630886 20.630556,12.136463 20.7370603,12.136463 C20.8771976,12.136463 21.0285436,12.1939184 21.1911028,12.308831 C21.3536621,12.4237435 21.5456472,12.5512665 21.7670641,12.6914038 C21.988481,12.8315411 22.2491325,12.9590641 22.5490262,13.0739767 C22.84892,13.1888892 23.2090674,13.2463446 23.6294792,13.2463446 C24.2741107,13.2463446 24.7729919,13.0935973 25.1261379,12.788098 C25.4792838,12.4825988 25.6558541,12.0439757 25.6558541,11.4722156 C25.6558541,11.1527026 25.5759771,10.8920512 25.4162206,10.6902535 C25.2564641,10.4884558 25.04486,10.3188923 24.7814019,10.1815577 C24.5179438,10.0442232 24.2180545,9.92791101 23.8817251,9.83261767 C23.5453956,9.73732432 23.2034658,9.63362429 22.8559253,9.52151447 C22.5083849,9.40940465 22.1664551,9.27487488 21.8301256,9.11792113 C21.4937961,8.96096738 21.1939069,8.75637003 20.9304488,8.50412293 C20.6669907,8.25187584 20.4553866,7.9365717 20.2956301,7.55820105 C20.1358736,7.17983041 20.0559966,6.71318028 20.0559966,6.15823666 C20.0559966,5.71540287 20.1442817,5.28378654 20.3208547,4.86337471 C20.4974277,4.44296288 20.7552764,4.07020332 21.0944086,3.74508484 C21.4335408,3.41996636 21.8497423,3.15931493 22.3430255,2.96312275 C22.8363087,2.76693056 23.3996521,2.66883594 24.0330726,2.66883594 C24.7505754,2.66883594 25.4120134,2.78094408 26.0174065,3.00516372 C26.6227995,3.22938336 27.1384969,3.54328615 27.5645143,3.94688151 L27.0095734,5.01472221 Z M41.1773812,8.88249169 C41.1773812,9.77376476 41.0288379,10.5991609 40.7317469,11.358705 C40.4346558,12.118249 40.017053,12.775483 39.4789259,13.3304266 C38.9407987,13.8853702 38.2933742,14.3183879 37.536633,14.6294926 C36.7798917,14.9405974 35.9418833,15.0961474 35.0225828,15.0961474 C34.1032823,15.0961474 33.2638726,14.9405974 32.5043285,14.6294926 C31.7447845,14.3183879 31.0945573,13.8853702 30.5536274,13.3304266 C30.0126975,12.775483 29.5936934,12.118249 29.2966023,11.358705 C28.9995113,10.5991609 28.850968,9.77376476 28.850968,8.88249169 C28.850968,7.99121861 28.9995113,7.16582244 29.2966023,6.4062784 C29.5936934,5.64673437 30.0126975,4.9895004 30.5536274,4.43455679 C31.0945573,3.87961318 31.7447845,3.44659549 32.5043285,3.13549074 C33.2638726,2.82438598 34.1032823,2.66883594 35.0225828,2.66883594 C35.9418833,2.66883594 36.7798917,2.82578733 37.536633,3.13969483 C38.2933742,3.45360233 38.9407987,3.88662002 39.4789259,4.43876089 C40.017053,4.99090175 40.4346558,5.64673437 40.7317469,6.4062784 C41.0288379,7.16582244 41.1773812,7.99121861 41.1773812,8.88249169 Z M38.8567195,8.88249169 C38.8567195,8.21543825 38.7684343,7.61706106 38.5918614,7.08734216 C38.4152884,6.55762325 38.1616437,6.10778935 37.8309198,5.73782694 C37.5001958,5.36786453 37.0980078,5.08479148 36.6243439,4.88859929 C36.1506799,4.69240711 35.6167648,4.59431248 35.0225828,4.59431248 C34.4284007,4.59431248 33.8930844,4.69240711 33.4166176,4.88859929 C32.9401509,5.08479148 32.5351603,5.36786453 32.2016335,5.73782694 C31.8681068,6.10778935 31.6116595,6.55762325 31.4322837,7.08734216 C31.252908,7.61706106 31.1632215,8.21543825 31.1632215,8.88249169 C31.1632215,9.54954512 31.252908,10.1479223 31.4322837,10.6776412 C31.6116595,11.2073601 31.8681068,11.6557927 32.2016335,12.0229523 C32.5351603,12.390112 32.9401509,12.6717837 33.4166176,12.8679759 C33.8930844,13.0641681 34.4284007,13.1622627 35.0225828,13.1622627 C35.6167648,13.1622627 36.1506799,13.0641681 36.6243439,12.8679759 C37.0980078,12.6717837 37.5001958,12.390112 37.8309198,12.0229523 C38.1616437,11.6557927 38.4152884,11.2073601 38.5918614,10.6776412 C38.7684343,10.1479223 38.8567195,9.54954512 38.8567195,8.88249169 Z M51.3176638,12.094422 C51.4409846,12.094422 51.5474873,12.142068 51.6371752,12.2373613 L52.5284438,13.2043037 C52.0351606,13.8153022 51.4283753,14.2833537 50.7080697,14.6084722 C49.9877641,14.9335906 49.12313,15.0961474 48.1141417,15.0961474 C47.2116576,15.0961474 46.4002749,14.9419987 45.6799693,14.6336967 C44.9596637,14.3253947 44.3444703,13.8965811 43.8343706,13.347243 C43.324271,12.7979049 42.9332938,12.1420722 42.6614275,11.3797255 C42.3895612,10.6173787 42.2536301,9.78497574 42.2536301,8.88249169 C42.2536301,7.96879665 42.4049761,7.13218966 42.7076726,6.37264562 C43.0103691,5.61310159 43.43638,4.95867033 43.9857181,4.4093322 C44.5350563,3.85999408 45.1922902,3.4325818 45.9574398,3.12708254 C46.7225893,2.82158328 47.5676044,2.66883594 48.4925104,2.66883594 C49.3949945,2.66883594 50.1839555,2.81317517 50.8594172,3.10185796 C51.5348788,3.39054075 52.1136371,3.77310977 52.5957093,4.24957651 L51.8389718,5.30060082 C51.7941279,5.36786672 51.7366725,5.42672349 51.6666038,5.47717291 C51.5965352,5.52762233 51.4998419,5.55284666 51.3765211,5.55284666 C51.2475948,5.55284666 51.1158678,5.502398 50.981336,5.40149916 C50.8468042,5.30060032 50.6758393,5.19129488 50.4684361,5.07357957 C50.261033,4.95586426 49.9989802,4.84655882 49.6822699,4.74565999 C49.3655597,4.64476115 48.9633717,4.59431248 48.475694,4.59431248 C47.9039339,4.59431248 47.378427,4.69380846 46.8991575,4.89280339 C46.4198881,5.09179832 46.0078907,5.37627272 45.663153,5.74623513 C45.3184153,6.11619754 45.0493557,6.56603145 44.8559663,7.09575035 C44.6625768,7.62546926 44.5658836,8.22104374 44.5658836,8.88249169 C44.5658836,9.56636159 44.6625768,10.1745482 44.8559663,10.7070699 C45.0493557,11.2395915 45.3114085,11.6880241 45.6421325,12.052381 C45.9728564,12.4167379 46.3624322,12.6956069 46.8108715,12.8889964 C47.2593108,13.0823858 47.7413758,13.1790791 48.257081,13.1790791 C48.565383,13.1790791 48.844252,13.1622629 49.0936963,13.1286299 C49.3431407,13.094997 49.5729624,13.0417456 49.7831683,12.9688742 C49.9933742,12.8960028 50.1923661,12.8021123 50.3801501,12.6871997 C50.567934,12.5722871 50.7543138,12.4307506 50.939295,12.2625859 C50.9953499,12.2121365 51.0542067,12.1714973 51.1158671,12.1406671 C51.1775275,12.1098369 51.2447924,12.094422 51.3176638,12.094422 Z M61.315007,2.66883594 C61.8755561,2.66883594 62.3884509,2.75151569 62.8537066,2.91687768 C63.3189624,3.08223966 63.7169463,3.3162654 64.0476703,3.61896192 C64.3783942,3.92165844 64.636243,4.28600989 64.8212242,4.71202721 C65.0062054,5.13804453 65.0986946,5.61170141 65.0986946,6.13301208 C65.0986946,6.58145136 65.032831,6.99625148 64.901102,7.37742487 C64.769373,7.75859826 64.5928026,8.12294971 64.3713858,8.47049016 C64.1499689,8.8180306 63.8907188,9.15435502 63.5936278,9.4794735 C63.2965367,9.80459198 62.9854366,10.135311 62.6603182,10.4716405 L59.9192468,13.2715692 C60.1883103,13.1930923 60.4517645,13.1328342 60.709617,13.090793 C60.9674696,13.0487519 61.2141075,13.0277316 61.4495382,13.0277316 L64.5689783,13.0277316 C64.793198,13.0277316 64.9711696,13.0907924 65.1028987,13.216916 C65.2346277,13.3430395 65.3004912,13.5098004 65.3004912,13.7172035 L65.3004912,14.9616163 L56.9595623,14.9616163 L56.9595623,14.2721444 C56.9595623,14.1320071 56.9889907,13.9862665 57.0478483,13.8349183 C57.106706,13.68357 57.2005966,13.5434348 57.3295228,13.4145085 L61.0207202,9.71490294 C61.3290222,9.40099545 61.6050885,9.10110617 61.8489274,8.81522613 C62.0927663,8.52934609 62.2973636,8.24627304 62.4627256,7.96599848 C62.6280876,7.68572393 62.7542092,7.40124953 62.8410943,7.11256674 C62.9279795,6.82388395 62.9714214,6.51979063 62.9714214,6.20027764 C62.9714214,5.9087921 62.9293808,5.65234473 62.8452984,5.43092784 C62.7612161,5.20951094 62.6406998,5.02313116 62.4837461,4.8717829 C62.3267923,4.72043465 62.1404126,4.60692515 61.9246011,4.53125103 C61.7087897,4.4555769 61.4663559,4.4177404 61.1972923,4.4177404 C60.6984036,4.4177404 60.2878076,4.54386206 59.9654918,4.79610915 C59.6431761,5.04835625 59.4175585,5.38748337 59.2886322,5.81350069 C59.2269718,6.02650935 59.1344826,6.17925669 59.0111617,6.27174729 C58.8878409,6.36423789 58.7308896,6.4104825 58.5403029,6.4104825 C58.4562205,6.4104825 58.3637313,6.40207439 58.2628324,6.38525792 L57.1697671,6.19186944 C57.2538495,5.60889837 57.4164063,5.09740499 57.6574424,4.65737394 C57.8984785,4.2173429 58.1997692,3.85018874 58.5613233,3.55590046 C58.9228775,3.26161218 59.3376776,3.04019861 59.8057361,2.89165309 C60.2737946,2.74310758 60.7768799,2.66883594 61.315007,2.66883594 Z" id="SOC2" fill="#0089D6"></path>
                <path d="M81.2703837,2.80336705 L81.2703837,4.66157804 L77.6128191,4.66157804 L77.6128191,14.9616163 L75.3510148,14.9616163 L75.3510148,4.66157804 L71.6766338,4.66157804 L71.6766338,2.80336705 L81.2703837,2.80336705 Z M85.6510531,17.3327272 C85.5893927,17.4784699 85.5095156,17.5891767 85.4114195,17.6648509 C85.3133234,17.740525 85.1633788,17.7783615 84.9615811,17.7783615 L83.4144733,17.7783615 L85.0288467,14.3225935 L81.5394459,6.33480875 L83.3556159,6.33480875 C83.5237807,6.33480875 83.652705,6.3740466 83.7423929,6.45252347 C83.8320808,6.53100035 83.8993456,6.62068686 83.9441896,6.7215857 L85.7855842,11.1947452 C85.8472446,11.3404879 85.9004959,11.4918339 85.9453399,11.6487877 C85.9901838,11.8057414 86.0294216,11.9626928 86.0630546,12.1196466 C86.1078985,11.9570873 86.1569458,11.8001359 86.210198,11.6487877 C86.2634502,11.4974394 86.3209056,11.3432907 86.382566,11.186337 L88.114654,6.7215857 C88.159498,6.60947588 88.2337696,6.51698666 88.3374712,6.44411528 C88.4411728,6.37124389 88.557485,6.33480875 88.6864113,6.33480875 L90.3512338,6.33480875 L85.6510531,17.3327272 Z M91.5620138,17.7783615 L91.5620138,6.33480875 L92.8316512,6.33480875 C92.966183,6.33480875 93.0810938,6.36563849 93.1763871,6.42729889 C93.2716805,6.48895929 93.33334,6.58425121 93.3613674,6.7131775 L93.5295313,7.51195598 C93.8770718,7.11396612 94.276457,6.79165522 94.727699,6.54501361 C95.1789411,6.29837201 95.7072507,6.17505305 96.3126437,6.17505305 C96.7835049,6.17505305 97.2137199,6.27314767 97.6033016,6.46933986 C97.9928832,6.66553205 98.3292076,6.95000645 98.6122849,7.3227716 C98.8953622,7.69553676 99.1139731,8.15518013 99.2681241,8.7017155 C99.4222751,9.24825088 99.4993494,9.87465511 99.4993494,10.580947 C99.4993494,11.2255784 99.4124656,11.8225543 99.2386954,12.3718924 C99.0649252,12.9212305 98.8168859,13.3976901 98.4945702,13.8012855 C98.1722544,14.2048808 97.7826787,14.520185 97.3258311,14.7472074 C96.8689836,14.9742297 96.3574902,15.0877392 95.7913356,15.0877392 C95.3036579,15.0877392 94.8902592,15.0134676 94.5511269,14.8649221 C94.2119947,14.7163766 93.9079014,14.5103779 93.6388378,14.2469198 L93.6388378,17.7783615 L91.5620138,17.7783615 Z M95.5979472,7.81465098 C95.1663244,7.81465098 94.7977688,7.90573885 94.4922696,8.08791731 C94.1867703,8.27009576 93.9022959,8.52654313 93.6388378,8.8572671 L93.6388378,12.7250366 C93.8742685,13.0165221 94.1307158,13.2197181 94.4081876,13.3346307 C94.6856594,13.4495432 94.9841474,13.5069987 95.3036604,13.5069987 C95.6175679,13.5069987 95.9020423,13.4481419 96.1570921,13.3304266 C96.4121419,13.2127113 96.6279501,13.0333383 96.8045231,12.7923021 C96.981096,12.551266 97.1170272,12.2471727 97.2123205,11.880013 C97.3076139,11.5128534 97.3552598,11.0798357 97.3552598,10.580947 C97.3552598,10.0764528 97.3146206,9.64904051 97.233341,9.29869732 C97.1520614,8.94835413 97.0357492,8.66387972 96.8844009,8.44526557 C96.7330527,8.22665142 96.5494756,8.06689732 96.3336642,7.96599848 C96.1178528,7.86509965 95.8726162,7.81465098 95.5979472,7.81465098 Z M104.636756,6.20027764 C105.180489,6.20027764 105.680771,6.28716144 106.137619,6.46093167 C106.594467,6.63470189 106.988246,6.88834655 107.31897,7.22187327 C107.649694,7.55539999 107.907543,7.96459469 108.092524,8.44946967 C108.277505,8.93434464 108.369995,9.48787858 108.369995,10.1100881 C108.369995,10.2670418 108.362988,10.3973675 108.348974,10.5010691 C108.33496,10.6047707 108.309736,10.6860491 108.2733,10.7449068 C108.236865,10.8037644 108.187817,10.845805 108.126157,10.8710297 C108.064497,10.8962544 107.986021,10.9088666 107.890728,10.9088666 L102.559932,10.9088666 C102.621593,11.7945341 102.859822,12.4447614 103.274629,12.8595677 C103.689435,13.274374 104.238765,13.4817741 104.922635,13.4817741 C105.258964,13.4817741 105.549044,13.4425362 105.792883,13.3640594 C106.036722,13.2855825 106.249727,13.1986987 106.431906,13.1034053 C106.614084,13.008112 106.773838,12.9212282 106.911173,12.8427513 C107.048507,12.7642744 107.181636,12.7250366 107.310562,12.7250366 C107.394644,12.7250366 107.467515,12.7418528 107.529175,12.7754857 C107.590836,12.8091187 107.644087,12.8567647 107.688931,12.9184251 L108.294321,13.6751626 C108.064496,13.9442261 107.806647,14.1698438 107.520767,14.3520222 C107.234887,14.5342007 106.936399,14.6799413 106.625294,14.7892483 C106.31419,14.8985554 105.997484,14.9756298 105.675168,15.0204737 C105.352853,15.0653176 105.040351,15.0877392 104.737655,15.0877392 C104.137867,15.0877392 103.580129,14.9882433 103.064424,14.7892483 C102.548719,14.5902534 102.100286,14.2959695 101.719113,13.9063879 C101.337939,13.5168063 101.03805,13.0347413 100.819436,12.4601785 C100.600822,11.8856156 100.491516,11.2199735 100.491516,10.4632323 C100.491516,9.8746557 100.586808,9.32112176 100.777395,8.80261384 C100.967982,8.28410592 101.241245,7.83287066 101.597194,7.44889452 C101.953143,7.06491839 102.387562,6.76082506 102.900464,6.53660542 C103.413367,6.31238578 103.992125,6.20027764 104.636756,6.20027764 Z M104.678797,7.68852807 C104.073404,7.68852807 103.599747,7.85949298 103.257812,8.20142793 C102.915877,8.54336288 102.697267,9.02823059 102.601973,9.65604558 L106.503375,9.65604558 C106.503375,9.38698201 106.46694,9.13333735 106.394069,8.89510398 C106.321198,8.65687061 106.209089,8.4480692 106.057741,8.26869349 C105.906393,8.08931777 105.715809,7.94778125 105.485984,7.84407966 C105.256159,7.74037808 104.987099,7.68852807 104.678797,7.68852807 Z M115.971002,14.9616163 L113.70079,14.9616163 L113.70079,2.80336705 L115.971002,2.80336705 L115.971002,14.9616163 Z M121.251349,14.9616163 L118.981136,14.9616163 L118.981136,2.80336705 L121.251349,2.80336705 L121.251349,14.9616163 Z" id="TypeII" fill="#656763"></path>
                <path d="M7.39773627,16.9755308 C3.82411198,15.4859771 -1.77635684e-15,10.9037158 -1.77635684e-15,4.2741418 C-1.77635684e-15,3.62620061 0.39076731,3.04172935 0.988578347,2.79460107 L7.40106306,0.122732442 C7.5644019,0.0549572588 7.8404602,-1.77635684e-15 8.01726928,-1.77635684e-15 C8.19411098,-1.77635684e-15 8.47013667,0.0549572588 8.63347551,0.122732442 L15.0459602,2.79460107 C15.6404445,3.04172935 16.0312118,3.62620061 16.0312118,4.2741418 C16.0312118,11.6651919 11.4923619,15.7832029 8.63014872,16.9755308 C8.236022,17.1391958 7.79183037,17.1391958 7.39773627,16.9755308 Z M8.01560589,1.60227317 L1.60312118,4.2741418 C1.60312118,9.92847727 4.759266,14.1400298 8.01560589,15.49599 C11.1416791,14.1934541 14.4280906,10.0787699 14.4280906,4.2741418 L8.01560589,1.60227317 Z" id="s" fill="#0089D6"></path>
                <path d="M11.2976706,6.01551193 C11.3714687,5.94365112 11.4911079,5.94365112 11.564906,6.01551193 L12.0102777,6.44929782 C12.0840758,6.52117361 12.0840758,6.63771153 12.0102777,6.70957234 L7.28917096,11.3077207 C7.21535754,11.3795815 7.09571827,11.3795815 7.0219356,11.3077207 L4.92097481,9.26148485 C4.84717676,9.18959409 4.84717676,9.07307114 4.92097481,9.00119535 L5.36634657,8.56742444 C5.44016,8.49554865 5.55979926,8.49554865 5.63359731,8.56742444 L7.15555328,10.0497371 L11.2976706,6.01551193 Z" id="c" fill="#0089D6"></path>
            </g>
            <path d="M9.45325142,26.4134681 C9.50531834,26.4134681 9.55028456,26.4335846 9.58815142,26.4738181 L9.96445142,26.8820681 C9.75618371,27.1400361 9.4999946,27.3376508 9.19587642,27.4749181 C8.89175823,27.6121855 8.52670355,27.6808181 8.10070142,27.6808181 C7.71966618,27.6808181 7.3770946,27.6157355 7.07297642,27.4855681 C6.76885823,27.3554008 6.50911916,27.1743526 6.29375142,26.9424181 C6.07838367,26.7104836 5.91331032,26.4335864 5.79852642,26.1117181 C5.68374251,25.7898499 5.62635142,25.4384034 5.62635142,25.0573681 C5.62635142,24.6715995 5.69025078,24.3183781 5.81805142,23.9976931 C5.94585205,23.6770082 6.12571692,23.4007026 6.35765142,23.1687681 C6.58958591,22.9368336 6.8670748,22.7563771 7.19012642,22.6273931 C7.51317803,22.4984092 7.86994946,22.4339181 8.26045142,22.4339181 C8.64148665,22.4339181 8.97459166,22.4948592 9.25977642,22.6167431 C9.54496117,22.7386271 9.78931706,22.9001505 9.99285142,23.1013181 L9.67335142,23.5450681 C9.65441799,23.5734683 9.6301599,23.598318 9.60057642,23.6196181 C9.57099293,23.6409182 9.53016834,23.6515681 9.47810142,23.6515681 C9.42366781,23.6515681 9.3680517,23.6302683 9.31125142,23.5876681 C9.25445113,23.5450679 9.18226852,23.4989184 9.09470142,23.4492181 C9.00713431,23.3995179 8.89649375,23.3533683 8.76277642,23.3107681 C8.62905908,23.2681679 8.45925245,23.2468681 8.25335142,23.2468681 C8.01195021,23.2468681 7.79007743,23.288876 7.58772642,23.3728931 C7.3853754,23.4569102 7.21142714,23.5770174 7.06587642,23.7332181 C6.92032569,23.8894189 6.80672682,24.079342 6.72507642,24.3029931 C6.64342601,24.5266443 6.60260142,24.7781001 6.60260142,25.0573681 C6.60260142,25.3461029 6.64342601,25.6028837 6.72507642,25.8277181 C6.80672682,26.0525526 6.91736738,26.241884 7.05700142,26.3957181 C7.19663545,26.5495522 7.36111714,26.6672927 7.55045142,26.7489431 C7.7397857,26.8305935 7.94331699,26.8714181 8.16105142,26.8714181 C8.29121873,26.8714181 8.40895922,26.8643182 8.51427642,26.8501181 C8.61959361,26.8359181 8.71662597,26.813435 8.80537642,26.7826681 C8.89412686,26.7519013 8.97814269,26.71226 9.05742642,26.6637431 C9.11028224,26.6313985 9.16287457,26.594058 9.21520411,26.551721 L9.29350142,26.4844681 C9.3171682,26.463168 9.34201795,26.4460099 9.36805142,26.4329931 C9.39408488,26.4199764 9.4224846,26.4134681 9.45325142,26.4134681 Z M19.5153804,25.0573681 C19.5153804,25.43367 19.4526644,25.7821582 19.3272304,26.1028431 C19.2017965,26.4235281 19.0254816,26.701017 18.7982804,26.9353181 C18.5710793,27.1696193 18.297732,27.3524425 17.9782304,27.4837931 C17.6587288,27.6151438 17.3049157,27.6808181 16.9167804,27.6808181 C16.5286451,27.6808181 16.1742404,27.6151438 15.8535554,27.4837931 C15.5328705,27.3524425 15.2583399,27.1696193 15.0299554,26.9353181 C14.8015709,26.701017 14.6246644,26.4235281 14.4992304,26.1028431 C14.3737965,25.7821582 14.3110804,25.43367 14.3110804,25.0573681 C14.3110804,24.6810663 14.3737965,24.3325781 14.4992304,24.0118931 C14.6246644,23.6912082 14.8015709,23.4137193 15.0299554,23.1794181 C15.2583399,22.945117 15.5328705,22.7622938 15.8535554,22.6309431 C16.1742404,22.4995925 16.5286451,22.4339181 16.9167804,22.4339181 C17.3049157,22.4339181 17.6587288,22.5001841 17.9782304,22.6327181 C18.297732,22.7652521 18.5710793,22.9480753 18.7982804,23.1811931 C19.0254816,23.414311 19.2017965,23.6912082 19.3272304,24.0118931 C19.4526644,24.3325781 19.5153804,24.6810663 19.5153804,25.0573681 Z M18.5355804,25.0573681 C18.5355804,24.7757334 18.4983058,24.5230943 18.4237554,24.2994431 C18.349205,24.075792 18.2421144,23.8858689 18.1024804,23.7296681 C17.9628464,23.5734674 17.7930397,23.4539519 17.5930554,23.3711181 C17.3930711,23.2882844 17.1676483,23.2468681 16.9167804,23.2468681 C16.6659125,23.2468681 16.4398981,23.2882844 16.2387304,23.3711181 C16.0375627,23.4539519 15.8665728,23.5734674 15.7257554,23.7296681 C15.584938,23.8858689 15.4766641,24.075792 15.4009304,24.2994431 C15.3251967,24.5230943 15.2873304,24.7757334 15.2873304,25.0573681 C15.2873304,25.3390029 15.3251967,25.591642 15.4009304,25.8152931 C15.4766641,26.0389443 15.584938,26.2282757 15.7257554,26.3832931 C15.8665728,26.5383106 16.0375627,26.6572344 16.2387304,26.7400681 C16.4398981,26.8229019 16.6659125,26.8643181 16.9167804,26.8643181 C17.1676483,26.8643181 17.3930711,26.8229019 17.5930554,26.7400681 C17.7930397,26.6572344 17.9628464,26.5383106 18.1024804,26.3832931 C18.2421144,26.2282757 18.349205,26.0389443 18.4237554,25.8152931 C18.4983058,25.591642 18.5355804,25.3390029 18.5355804,25.0573681 Z M26.7517094,25.4940181 C26.791943,25.5697518 26.8292176,25.6484427 26.8635344,25.7300931 L26.9647094,25.9768181 L26.9647094,25.9768181 L27.0676594,25.7247681 L27.0676594,25.7247681 C27.1031596,25.6419344 27.1410259,25.5626518 27.1812594,25.4869181 L28.7006594,22.6433681 C28.7195928,22.607868 28.7391176,22.5794682 28.7592344,22.5581681 C28.7793512,22.536868 28.8018343,22.5214848 28.8266844,22.5120181 C28.8515345,22.5025514 28.8793426,22.4966348 28.9101094,22.4942681 L29.0201594,22.4907181 L29.0201594,22.4907181 L29.7408094,22.4907181 L29.7408094,27.6240181 L28.8994594,27.6240181 L28.9007907,24.2115807 L28.9007907,24.2115807 L28.9047844,24.1059681 C28.9083344,24.0326011 28.9136594,23.9580518 28.9207594,23.8823181 L27.3694094,26.7933181 C27.3339092,26.8595851 27.2877597,26.9110596 27.2309594,26.9477431 C27.1741591,26.9844267 27.1078931,27.0027681 27.0321594,27.0027681 L26.9008094,27.0027681 C26.8250757,27.0027681 26.7588097,26.9844267 26.7020094,26.9477431 C26.6452091,26.9110596 26.5990596,26.8595851 26.5635594,26.7933181 L24.9909094,23.8716681 C25.0003761,23.9497685 25.0068844,24.0260928 25.0104344,24.1006431 L25.0157594,24.3083181 L25.0157594,24.3083181 L25.0157594,27.6240181 L24.1744094,27.6240181 L24.1744094,22.4907181 L24.8950594,22.4907181 C24.9376596,22.4907181 24.9743426,22.4919015 25.0051094,22.4942681 C25.0358762,22.4966348 25.0636843,22.5025514 25.0885344,22.5120181 C25.1133845,22.5214848 25.1364593,22.536868 25.1577594,22.5581681 C25.1790595,22.5794682 25.199176,22.607868 25.2181094,22.6433681 L26.7517094,25.4940181 Z M35.6707384,25.8170681 L35.6707384,27.6240181 L34.7157884,27.6240181 L34.7157884,22.4907181 L36.3878384,22.4907181 C36.7310068,22.4907181 37.0280205,22.5309511 37.2788884,22.6114181 C37.5297563,22.6918852 37.7368376,22.8043007 37.9001384,22.9486681 C38.0634392,23.0930355 38.184138,23.2658005 38.2622384,23.4669681 C38.3403388,23.6681358 38.3793884,23.8882336 38.3793884,24.1272681 C38.3793884,24.3757694 38.3379722,24.6035588 38.2551384,24.8106431 C38.1723047,25.0177275 38.0480559,25.1958174 37.8823884,25.3449181 C37.7167209,25.4940189 37.5096397,25.6099844 37.2611384,25.6928181 C37.0126372,25.7756519 36.7215401,25.8170681 36.3878384,25.8170681 L35.6707384,25.8170681 Z M35.6707384,25.0715681 L36.3878384,25.0715681 C36.5629726,25.0715681 36.7156211,25.0496767 36.8457884,25.0058931 C36.9759557,24.9621096 37.083638,24.8993935 37.1688384,24.8177431 C37.2540388,24.7360927 37.3179382,24.6366937 37.3605384,24.5195431 C37.4031386,24.4023925 37.4244384,24.2716355 37.4244384,24.1272681 C37.4244384,23.9900008 37.4031386,23.865752 37.3605384,23.7545181 C37.3179382,23.6432842 37.2540388,23.5486185 37.1688384,23.4705181 C37.083638,23.3924177 36.9759557,23.33266 36.8457884,23.2912431 C36.7156211,23.2498263 36.5629726,23.2291181 36.3878384,23.2291181 L35.6707384,23.2291181 L35.6707384,25.0715681 Z M43.9827174,26.8359181 L46.0381674,26.8359181 L46.0381674,27.6240181 L43.0277674,27.6240181 L43.0277674,22.4907181 L43.9827174,22.4907181 L43.9827174,26.8359181 Z M51.6805464,27.6240181 L50.7220464,27.6240181 L50.7220464,22.4907181 L51.6805464,22.4907181 L51.6805464,27.6240181 Z M61.2527754,27.6240181 L60.5143754,27.6240181 C60.4315417,27.6240181 60.3635007,27.60331 60.3102504,27.5618931 C60.2570001,27.5204763 60.2185422,27.4690018 60.1948754,27.4074681 L59.8114754,26.3602181 L57.6850254,26.3602181 L57.3016254,27.4074681 C57.282692,27.4619017 57.2454174,27.5116012 57.1898004,27.5565681 C57.1341835,27.601535 57.0661425,27.6240181 56.9856754,27.6240181 L56.2437254,27.6240181 L58.2601254,22.4907181 L59.2363754,22.4907181 L61.2527754,27.6240181 Z M57.9299754,25.6857181 L59.5665254,25.6857181 L58.880981,23.8085572 L58.880981,23.8085572 L58.8476504,23.7101431 C58.8133336,23.6071926 58.7796089,23.4953687 58.7464754,23.3746681 L58.6488504,23.7119181 L58.6488504,23.7119181 L58.5857393,23.9028292 L58.5857393,23.9028292 L57.9299754,25.6857181 Z M65.6881544,22.4907181 L66.1887044,22.4907181 L66.2952044,22.4960431 L66.2952044,22.4960431 C66.3236046,22.4995932 66.349046,22.5066931 66.3715294,22.5173431 C66.3940129,22.5279932 66.4159043,22.5433764 66.4372044,22.5634931 L66.4709294,22.5985494 L66.4709294,22.5985494 L69.2026544,26.0762181 C69.1931877,25.9933844 69.1866794,25.9123269 69.1831294,25.8330431 L69.1778044,25.6111681 L69.1778044,25.6111681 L69.1778044,22.4907181 L70.0191544,22.4907181 L70.0191544,27.6240181 L69.5257044,27.6240181 C69.4499707,27.6240181 69.3872547,27.6121849 69.3375544,27.5885181 C69.2878542,27.5648513 69.239338,27.5222518 69.1920044,27.4607181 L66.5082044,24.0420681 L66.5175232,24.1552244 L66.5175232,24.1552244 L66.5241794,24.2674931 C66.5277294,24.3420435 66.5295044,24.4100845 66.5295044,24.4716181 L66.5295044,27.6240181 L65.6881544,27.6240181 L65.6881544,22.4907181 Z M78.5796334,22.4907181 L78.5796334,23.2752681 L77.0353834,23.2752681 L77.0353834,27.6240181 L76.0804334,27.6240181 L76.0804334,23.2752681 L74.5290834,23.2752681 L74.5290834,22.4907181 L78.5796334,22.4907181 Z" id="COMPLIANT" fill="#757575"></path>
        </g>
    </g>
</svg>