<?xml version="1.0" encoding="utf-8"?>
<!-- Generator: Adobe Illustrator 25.3.1, SVG Export Plug-In . SVG Version: 6.00 Build 0)  -->
<svg version="1.1" id="Layer_1" xmlns="http://www.w3.org/2000/svg" xmlns:xlink="http://www.w3.org/1999/xlink" x="0px" y="0px"
	 viewBox="0 0 120 120" enable-background="new 0 0 120 120" xml:space="preserve">
<g>
	<g>
		<defs>
			<rect id="SVGID_1_" x="-4.6" y="13.6" transform="matrix(0.5 -0.866 0.866 0.5 -20.236 80.9585)" width="129.2" height="88.7"/>
		</defs>
		<clipPath id="SVGID_2_">
			<use xlink:href="#SVGID_1_"  overflow="visible"/>
		</clipPath>
		<g clip-path="url(#SVGID_2_)">
			
				<linearGradient id="SVGID_3_" gradientUnits="userSpaceOnUse" x1="55.552" y1="430.128" x2="46.4329" y2="467.324" gradientTransform="matrix(1 0 0 1 0 -412)">
				<stop  offset="0" style="stop-color:#5E6294"/>
				<stop  offset="1" style="stop-color:#878BB2"/>
			</linearGradient>
			<path opacity="0.2" fill="url(#SVGID_3_)" enable-background="new    " d="M42,51.6c8.9,5.2,20.3,2.1,25.5-6.8s2.1-20.3-6.8-25.5
				s-20.3-2.1-25.5,6.8S33.1,46.5,42,51.6z"/>
			<path opacity="0.14" fill-rule="evenodd" clip-rule="evenodd" fill="#5E6294" enable-background="new    " d="M39.7,55.7
				c11.1,6.4,25.4,2.6,31.8-8.5C77.9,36,74,21.8,62.9,15.4c-11.1-6.4-25.4-2.6-31.8,8.5C24.7,35,28.5,49.2,39.7,55.7L39.7,55.7z
				 M42,51.6c8.9,5.2,20.3,2.1,25.5-6.8s2.1-20.3-6.8-25.5s-20.3-2.1-25.5,6.8S33.1,46.5,42,51.6L42,51.6z"/>
			<path fill="#EF7B4D" d="M37.2,38.6c-1.7-2.2-1.9-5.3-0.5-7.9c1.4-2.4,3.9-3.7,6.5-3.6c3-5.6,10-7.6,15.5-4.4s7.3,10.2,4,15.6
				c1.4,2.2,1.5,5,0.2,7.4c-1.5,2.6-4.3,3.9-7.1,3.5l-5.9,9.4c-1.3,2.6-0.7,3.2,1.7,5.6c0.2,0.2,0.5,0.5,0.7,0.7
				c-2.6-0.8-4.1-1.6-4.9-2.4L44.7,67c-2.8,4-2.8,4-0.4,6.4c0.3,0.3,0.7,0.7,1.1,1.1c-6.9-2.1-5.4-4.9-4-7.4c0.3-0.5,0.5-1,0.7-1.5
				L42,65.5c-0.1,0.2-0.2,0.3-0.3,0.5l0,0c-2.3,3.3-3.1,4.5-2.8,5.3c0.1,0.5,0.5,0.8,1.2,1.4c0.7,0.6,1.5,1.4,2.6,2.6
				c-7.8-3.1-6.4-5.4-4.2-9.3c0.3-0.6,0.7-1.2,1.1-1.9l-0.2-0.1c-4.7,7.3-4.3,7.6-2.1,9.7c0.6,0.6,1.3,1.3,2.1,2.3
				c-7.8-3.4-6.9-5.7-5.4-9.1c0.2-0.6,0.5-1.3,0.7-2c-0.5,0.5-0.9,1.1-1.3,1.6c-2.3,2.9-3.8,4.8-10.6-0.2c1.3,0.2,2.2,0.5,3,0.7
				c2.9,0.8,3.3,1,7.3-6.7l-0.2-0.1c-0.4,0.7-0.8,1.3-1.1,1.9c-2.2,3.9-3.5,6.1-10.1,1c1.7,0.2,2.8,0.6,3.5,0.9
				c0.8,0.2,1.3,0.5,1.7,0.3c0.9-0.2,1.4-1.4,3.2-5.1c0.1-0.2,0.2-0.3,0.2-0.5L30,58.5c-0.3,0.4-0.6,0.9-0.9,1.4
				c-1.5,2.4-3.2,5.2-8.5,0.2c0.6,0.2,1.1,0.3,1.5,0.4c3.3,0.9,3.3,0.9,5.3-3.5l2.4-4.5c-1.1-0.2-2.5-1.2-4.5-3
				c0.4,0.1,0.7,0.2,1,0.2c3.3,0.9,4.1,1.1,5.7-1.4L37.2,38.6z"/>
			<path fill="#FEFEFE" d="M39.9,38.9c2.6,1.5,5.9,0.6,7.3-2c1.5-2.6,0.6-5.9-2-7.3s-5.9-0.6-7.3,2C36.4,34.2,37.3,37.5,39.9,38.9z"
				/>
			<path d="M42,35.1c0.9,0.5,2,0.2,2.5-0.7c0.5-0.9,0.2-2-0.7-2.5s-2-0.2-2.5,0.7C40.8,33.4,41.1,34.6,42,35.1z"/>
			<path fill="#FEFEFE" d="M53.6,46.8c2.6,1.5,5.9,0.6,7.3-2c1.5-2.6,0.6-5.9-2-7.3s-5.9-0.6-7.3,2C50.1,42.1,51,45.3,53.6,46.8z"/>
			<path d="M55.7,43c0.9,0.5,2,0.2,2.5-0.7c0.5-0.9,0.2-2-0.7-2.5c-0.9-0.5-2-0.2-2.5,0.7C54.5,41.4,54.8,42.5,55.7,43z"/>
			<path fill="#FAFAFA" d="M41.1,45c0,0,0.7,2.7,2.6,3.8c1.9,1.1,4.6,0.4,4.6,0.4l-1.2,2.1c-1.2,2-3.7,2.6-5.7,1.5
				c-2-1.2-2.6-3.7-1.5-5.7L41.1,45z"/>
			<path fill="#202124" d="M40.2,46.7c0,0,0.7,2.7,2.6,3.8c1.9,1.1,4.6,0.4,4.6,0.4l-0.2,0.4c-1.2,2-3.7,2.6-5.7,1.5
				c-2-1.2-2.6-3.7-1.5-5.7L40.2,46.7z"/>
			
				<path opacity="0.16" fill="none" stroke="#5E6294" stroke-width="3.5425" stroke-linecap="round" enable-background="new    " d="
				M32,37.9c-0.5-4,0.2-8.2,2.4-12c3.5-6.1,9.7-9.5,16.3-9.7"/>
			<g>
				<path opacity="0.45" fill="#5E6294" enable-background="new    " d="M53.2,16.8c0.5,0.3,1.1,0.1,1.3-0.4
					c0.2-0.5,0.1-1.1-0.4-1.3c-0.5-0.3-1.1-0.1-1.3,0.4C52.6,15.9,52.7,16.5,53.2,16.8z"/>
				<path fill="#5E6294" d="M33,18.6l-0.2-0.1c-0.5-0.3-1.1-0.1-1.3,0.4l-4.6,8c-0.3,0.5-0.1,1.1,0.4,1.3l0.2,0.1
					c0.5,0.3,1.1,0.1,1.3-0.4l4.6-8C33.6,19.5,33.5,18.9,33,18.6z"/>
				<path fill="#5E6294" d="M75.2,43L75,42.9c-0.5-0.3-1.1-0.1-1.3,0.4l-4.6,8c-0.3,0.5-0.1,1.1,0.4,1.3l0.2,0.1
					c0.5,0.3,1.1,0.1,1.3-0.4l4.6-8C75.8,43.8,75.7,43.3,75.2,43L75.2,43z"/>
				<path fill-rule="evenodd" clip-rule="evenodd" fill="#5E6294" fill-opacity="0.2" d="M39,56.7c11.7,6.8,26.7,2.8,33.5-9
					c6.8-11.7,2.8-26.7-9-33.5s-26.7-2.8-33.5,9S27.3,50,39,56.7z M39.7,55.7c11.1,6.4,25.4,2.6,31.8-8.5C77.9,36,74,21.8,62.9,15.4
					c-11.1-6.4-25.4-2.6-31.8,8.5C24.7,35,28.5,49.2,39.7,55.7L39.7,55.7z"/>
			</g>
			<path fill="#F77F4F" d="M53.8,26.3c-0.8,0.9-2,1-2.8,0.4c-0.7-0.7-0.8-1.8,0-2.6c0.8-0.9,2.7-1.2,3.4-0.5
				C55.1,24.2,54.6,25.4,53.8,26.3z"/>
			
				<linearGradient id="SVGID_4_" gradientUnits="userSpaceOnUse" x1="36.0886" y1="514.6173" x2="121.8018" y2="466.2704" gradientTransform="matrix(1 0 0 1 0 -412)">
				<stop  offset="0" style="stop-color:#5C74C6"/>
				<stop  offset="1" style="stop-color:#5C74C6;stop-opacity:0"/>
			</linearGradient>
			<path fill="url(#SVGID_4_)" d="M36.6,117.2c10.4-27,59.3-36.5,76.5-72.9C101.3,91.2,60.1,85.7,36.6,117.2z"/>
			
				<linearGradient id="SVGID_5_" gradientUnits="userSpaceOnUse" x1="55.1691" y1="417.7932" x2="96.8587" y2="444.6268" gradientTransform="matrix(1 0 0 1 0 -412)">
				<stop  offset="0" style="stop-color:#5C74C6"/>
				<stop  offset="1" style="stop-color:#5C74C6;stop-opacity:0"/>
			</linearGradient>
			<path fill="url(#SVGID_5_)" d="M56.6,3.6c30.6,0.6,34.9,27,32,40.8C105.9,27.5,88.3-5.4,56.6,3.6z"/>
			
				<linearGradient id="SVGID_6_" gradientUnits="userSpaceOnUse" x1="103.253" y1="419.1253" x2="44.091" y2="532.5051" gradientTransform="matrix(1 0 0 1 0 -412)">
				<stop  offset="0" style="stop-color:#5C74C6"/>
				<stop  offset="1" style="stop-color:#5C74C6;stop-opacity:0"/>
			</linearGradient>
			<path fill="url(#SVGID_6_)" d="M88.3,4.6c47.4,48.3-66.6,69.9-56.2,110c8.3-30.8,63.7-38.5,74.9-75.8
				C115.6,10.3,92.3,4.2,88.3,4.6L88.3,4.6z"/>
		</g>
	</g>
</g>
</svg>
