<svg width="127" height="162" viewBox="0 0 127 162" fill="none" xmlns="http://www.w3.org/2000/svg">
<path d="M54.4874 131.031C54.5012 131.031 54.5152 131.073 54.5152 131.156C54.5291 131.741 54.543 132.311 54.5569 132.895C54.6404 132.45 54.7238 132.005 54.8212 131.546C54.7516 130.697 54.0841 131.129 54.4874 131.031Z" fill="#FEFEFE"/>
<path d="M90.9823 83.4653C90.9684 83.4792 90.9406 83.4792 90.9267 83.4932C90.9405 83.507 90.9684 83.521 90.9823 83.5349C90.9684 83.521 90.9823 83.4932 90.9823 83.4653Z" fill="#FEFEFE"/>
<path d="M67.9922 25.079V25.0928H68.0339C68.02 25.0928 68.0061 25.079 67.9922 25.079Z" fill="#FEFEFE"/>
<path d="M87.5331 142.338C87.7139 140.322 87.6165 138.277 87.8669 136.274C88.4232 131.866 87.8947 127.359 89.0491 123.006C89.6193 120.753 87.7973 118.11 90.1339 116.136L89.5498 114.216C89.3035 113.717 89.1812 113.165 89.1933 112.608C89.2054 112.051 89.3515 111.506 89.6193 111.017C89.4821 107.151 89.7149 103.281 90.3147 99.4597C90.5233 94.1468 90.7458 88.8339 90.9545 83.5071C90.9406 83.4932 90.9128 83.4792 90.8988 83.4653C79.5359 88.6809 68.8266 81.3792 67.0047 72.617C65.8086 66.859 66.4484 61.421 70.9407 57.026C71.6917 56.2889 72.3315 55.4405 73.0269 54.6338C74.8628 43.6325 73.5832 33.5352 64.1813 25.6632C65.586 24.8565 66.8517 25.3155 67.9922 25.1069V25.0932C56.4623 22.2003 42.4708 30.0862 37.8394 42.1306C36.3991 45.6898 35.749 49.5194 35.9339 53.3545C47.3664 48.0555 57.6167 54.3837 60.4401 64.022C63.3747 74.0498 55.5583 84.6616 45.1689 84.8146C42.1941 84.829 39.2345 84.3881 36.3929 83.5073C36.6016 89.0427 36.8148 94.5781 37.0327 100.114C37.5421 103.725 37.7607 107.371 37.6864 111.018C37.7142 111.88 37.742 112.742 37.7699 113.604C37.742 114.175 37.7142 114.745 37.6864 115.329C38.4096 118.825 38.8423 122.374 38.9799 125.941C38.9546 125.85 38.9361 125.757 38.9242 125.663C38.9381 125.76 38.966 125.844 38.9799 125.941C39.258 131.991 39.4249 138.055 39.8561 144.105C40.0369 146.608 39.1328 147.86 36.8241 148.5C34.0981 149.265 31.4138 150.183 28.7156 151.045C32.276 151.493 35.8668 151.651 39.4527 151.518C43.3052 151.435 45.0577 149.724 45.4332 145.899C45.6696 143.465 45.8782 141.031 46.1008 138.597C46.3511 134.189 46.6015 129.766 46.8518 125.357H47.3942V137.944C47.4637 139.849 47.4915 141.768 47.6167 143.674C48.1731 152.561 48.4373 152.506 39.5778 154.3C39.375 154.363 39.1792 154.447 38.9937 154.55C39.5222 154.898 40.0507 155.245 40.5792 155.607C40.6595 155.62 40.7359 155.65 40.8032 155.696C40.8705 155.742 40.9269 155.801 40.9686 155.871C43.0826 155.885 45.2106 156.066 47.2968 155.871C51.0938 155.51 52.8879 153.479 53.1661 149.71C53.333 147.29 53.5833 144.87 53.7919 142.45C53.5757 139.255 53.8287 136.045 54.5429 132.923C54.5291 132.339 54.5151 131.769 54.5012 131.184C54.5012 131.101 54.4734 131.045 54.4734 131.059C54.0701 131.157 54.7377 130.725 54.8072 131.574C54.8767 131.198 54.9602 130.823 55.0297 130.447V145.023C55.0714 146.734 55.1271 148.43 55.1549 150.141C55.2244 156.33 54.835 156.887 48.938 158.653C47.3107 159.14 45.614 159.432 44.0006 159.974C42.8323 160.378 41.3441 160.155 40.2454 161.532C45.0437 161.351 49.536 161.894 54.0005 161.17C58.618 160.419 60.4539 158.556 61.3997 154.049C62.0951 150.739 62.3871 147.332 63.6528 143.98C63.7962 144.209 63.9173 144.451 64.0144 144.703C64.6542 147.832 65.2939 150.976 65.9059 154.105C66.7682 158.486 68.5484 160.35 72.999 161.129C77.6026 161.921 82.2618 161.379 87.0323 161.49C86.3508 160.322 85.2799 160.517 84.4176 160.266C81.4552 159.404 78.4371 158.667 75.5303 157.665C73.4163 156.928 71.9003 155.579 71.9281 152.978C71.9976 145.857 71.9559 138.737 71.9559 131.616H72.8182C73.1242 136.08 73.4858 140.531 73.7222 144.995C74.2646 155.315 75.4886 156.442 85.8501 155.871C86.4343 154.898 87.8668 155.663 88.4092 154.62C85.9197 154.606 83.75 153.41 81.469 152.645C80.8539 152.433 80.3264 152.023 79.969 151.479C79.6116 150.936 79.4446 150.289 79.494 149.64C79.6053 142.325 79.3271 134.981 80.3146 127.693C80.9127 133.813 81.3855 139.946 81.8584 146.066C82.0809 148.931 83.3744 151.17 86.3785 151.365C90.4397 151.643 94.5148 151.435 98.5899 151.435C96.471 150.451 94.2755 149.642 92.0253 149.015C87.0462 147.415 87.074 147.401 87.5329 142.339L87.5331 142.338ZM56.212 37.9858C56.203 38.9642 55.8103 39.9 55.1185 40.5918C54.4266 41.2837 53.4908 41.6763 52.5124 41.6853C50.3289 41.7271 48.6877 40.4753 48.646 37.6381C48.6554 37.1513 48.7635 36.6714 48.9639 36.2277C49.1642 35.7839 49.4526 35.3854 49.8115 35.0564C50.1705 34.7274 50.5925 34.4747 51.0519 34.3136C51.5114 34.1525 51.9988 34.0864 52.4846 34.1193C55.0854 34.0776 56.2537 35.83 56.212 37.9858ZM72.9296 98.8199C72.9434 104.453 68.632 109.362 63.7085 109.348C59.0632 109.335 54.3205 103.855 54.4874 98.6808C54.237 97.1509 53.9728 95.6071 53.6251 93.4653C56.9491 95.7323 59.7447 98.055 63.4859 98.1384C67.3107 98.208 70.3148 96.2469 73.4442 93.9521C74.1117 95.788 72.4289 97.2205 72.9296 98.8199H72.9296Z" fill="#FE733E"/>
<path d="M37.7003 111.003C37.4221 110.906 37.1579 110.781 36.8936 110.684C33.1651 109.054 29.7303 106.822 26.7268 104.077C15.6838 94.5362 8.39585 82.5892 6.62952 68.0969C4.62674 51.6297 8.3124 36.4281 19.2998 23.3684C29.3276 11.463 42.1091 4.52286 57.3663 2.92343C74.3203 1.15709 89.5497 5.89976 102.373 17.6104C112.842 26.9046 119.455 39.7788 120.913 53.702C122.415 65.6529 119.937 77.7659 113.861 88.1663C108.201 97.8325 100.662 105.677 90.4677 110.642C90.1895 110.781 89.9114 110.92 89.6332 111.045C89.3621 111.532 89.2141 112.079 89.202 112.636C89.1899 113.193 89.314 113.745 89.5637 114.244V114.244C89.7813 114.01 90.0238 113.8 90.2869 113.618C105.683 105.468 116.365 93.3541 121.358 76.4974C121.789 75.0649 122.456 74.3556 124.056 74.5224C126.225 74.745 126.81 73.2985 126.81 71.4904C126.823 64.5503 126.828 57.6148 126.823 50.6839C126.823 49.1957 126.462 47.5545 124.918 47.3876C122.081 47.0538 121.733 44.9816 121.163 42.9649C118.024 31.4697 111.252 21.2977 101.858 13.9665C82.2478 -1.42982 60.718 -4.21144 38.1312 6.19185C21.3441 13.9109 10.6488 27.3044 5.80875 45.2319C5.50275 46.3446 5.64185 47.6659 3.75035 47.2764C1.05218 46.7201 0.0368802 48.3056 0.0229702 50.6978C-0.0187498 57.638 0.00911023 64.5642 0.00911023 71.5044C0.00911023 73.8132 1.17739 75.0371 3.4027 74.4946C5.44719 73.9939 5.93398 75.0092 6.35122 76.5669C8.15929 83.1606 11.1828 89.3586 15.2663 94.8422C21.2468 102.951 28.5347 109.46 37.7975 113.604C37.7697 112.742 37.7419 111.866 37.7001 111.003L37.7003 111.003Z" fill="#B5D2F3"/>
<path d="M37.7142 115.315C35.6558 121.087 30.176 120.948 25.5168 122.394C29.0216 123.298 32.5821 124.341 36.0869 123.743C38.1731 123.382 38.5765 124.133 38.8825 125.371C38.9103 125.468 38.9242 125.565 38.952 125.663C38.9659 125.746 38.9937 125.843 39.0076 125.941C38.87 122.369 38.4374 118.815 37.7142 115.315V115.315Z" fill="#FE684B"/>
<path d="M89.0491 123.02C93.4997 125.037 97.6999 123.006 101.998 122.422C97.7973 120.642 92.3592 121.56 90.1478 116.149C87.7973 118.124 89.6193 120.767 89.0491 123.02Z" fill="#FE6446"/>
<path d="M55.0437 130.419C54.9742 130.795 54.8907 131.17 54.8212 131.546C54.7377 131.991 54.6404 132.436 54.5569 132.895C53.8427 136.017 53.5897 139.227 53.8059 142.422C54.849 142.964 54.0841 144.397 55.0438 144.981L55.0437 130.419Z" fill="#FED6C8"/>
<path d="M46.8796 125.329C46.6293 129.738 46.3789 134.16 46.1286 138.569C46.5598 138.347 46.9909 138.138 47.4221 137.916V125.329H46.8796Z" fill="#FEEBE3"/>
<path d="M33.806 155.843H40.9826C40.8574 155.76 40.7183 155.676 40.5932 155.579C40.0646 155.231 39.5362 154.884 39.0076 154.522C37.1859 154.482 35.3877 154.939 33.806 155.843V155.843Z" fill="#FE9166"/>
<path d="M85.8502 155.843H92.8321C91.5545 154.912 89.9857 154.468 88.4093 154.592C87.8669 155.649 86.4204 154.87 85.8502 155.843Z" fill="#FE8F64"/>
<path d="M90.4816 110.628C100.676 105.677 108.201 97.8324 113.875 88.1524C119.951 77.752 122.429 65.639 120.926 53.6881C119.481 39.7613 112.866 26.8828 102.387 17.5965C89.5637 5.89975 74.3343 1.14317 57.3803 2.9234C42.137 4.50893 29.3415 11.463 19.3137 23.3683C8.31241 36.4281 4.64066 51.6296 6.64344 68.0969C8.40977 82.603 15.6976 94.5362 26.7407 104.077C29.7453 106.821 33.1799 109.053 36.9075 110.684C37.1718 110.795 37.436 110.906 37.7142 111.003C37.7885 107.357 37.5699 103.711 37.0605 100.099C36.7823 99.9047 36.5042 99.71 36.226 99.5014C33.4751 97.3738 30.9071 95.0197 28.5487 92.4639C27.8116 91.7129 26.8937 91.073 26.8937 89.8491C25.2525 91.0313 24.0703 90.2107 23.1107 88.9034C17.724 81.8364 14.5885 73.312 14.1121 64.439C13.7227 56.4001 14.4459 48.5837 17.8256 41.0594C21.9543 31.7653 28.8642 23.9807 37.6029 18.7786C39.105 17.8607 39.9673 18.6813 41.0104 19.3628C41.5054 19.3433 41.9905 19.2192 42.434 18.9987C42.8775 18.7781 43.2693 18.4661 43.5834 18.0832L43.4583 17.7911C42.5681 15.9135 42.5264 13.7856 44.6683 13.2849C46.824 12.7703 48.0479 14.5227 48.0618 16.7897C64.1535 11.5047 79.1187 13.6465 92.6235 23.9524C102.721 31.6575 108.507 41.9913 110.273 54.592C112.554 70.795 107.074 84.2302 95.7806 95.5932C94.4477 96.9603 92.9198 98.1226 91.2466 99.0424C90.9546 99.1954 90.6625 99.3345 90.3704 99.4736C89.7706 103.295 89.5378 107.165 89.675 111.031V111.031C89.9253 110.906 90.1896 110.767 90.4816 110.628Z" fill="#E2F5FC"/>
<path d="M95.7528 95.6072C107.032 84.2442 112.512 70.809 110.245 54.606C108.479 41.9913 102.693 31.6576 92.5956 23.9664C79.0909 13.6605 64.1118 11.5325 48.034 16.8037C48.0062 16.8174 47.9784 16.8454 47.9505 16.8593C46.6849 17.666 45.6974 19.4045 43.8755 18.3196C43.7642 18.25 43.6668 18.1945 43.5556 18.111C43.2424 18.4951 42.8509 18.8079 42.4072 19.0286C41.9635 19.2492 41.4778 19.3726 40.9826 19.3906C40.9408 19.5575 40.8852 19.7104 40.8296 19.8773C39.6752 23.1179 36.2121 23.9663 33.8894 25.9135C27.6604 30.9677 22.9167 37.6146 20.1621 45.1484C15.7393 57.471 16.6434 69.5432 22.5682 81.1982C23.5519 83.0887 24.6917 84.8938 25.9757 86.5946C26.6756 87.5214 26.9941 88.6809 26.8658 89.8352V89.8769C26.8658 91.0869 27.7838 91.7406 28.5209 92.4916C30.8825 95.0442 33.4503 97.398 36.1982 99.5292C36.4763 99.7239 36.7545 99.9325 37.0327 100.127C36.824 94.5918 36.6108 89.0563 36.3929 83.5209C36.379 83.5209 36.379 83.507 36.3651 83.507C31.5528 80.3499 28.0202 76.3165 27.4082 70.3082C26.6433 62.8952 29.7587 57.4154 35.8226 53.4238C35.8505 53.4099 35.8783 53.382 35.9061 53.3681C35.7188 49.5329 36.369 45.7028 37.8115 42.1443C42.4429 30.1138 56.4345 22.2139 67.9643 25.1068C67.9718 25.1059 67.9795 25.1067 67.9867 25.109C67.9939 25.1114 68.0005 25.1153 68.006 25.1206C75.6555 26.3584 81.942 29.8493 86.4482 36.261C90.0841 41.1966 91.8798 47.248 91.5247 53.368V53.368C95.864 56.6642 99.3689 60.5306 99.9391 66.2469C100.704 73.9381 97.4217 79.557 90.9545 83.479V83.5486C90.7458 88.8615 90.5233 94.1744 90.3147 99.5012C90.6207 99.3621 90.9127 99.223 91.1909 99.07C92.8808 98.1575 94.4196 96.9894 95.7528 95.6069L95.7528 95.6072Z" fill="#CDECF6"/>
<path d="M77.0185 52.7423C81.789 50.3918 86.4204 51.6575 91.024 53.1735C91.1909 53.2291 91.3717 53.2847 91.5386 53.3404C91.8978 47.22 90.1016 41.1672 86.4622 36.2334C81.9559 29.8217 75.6694 26.3308 68.02 25.093H67.9783C66.8378 25.3155 65.5722 24.8426 64.1674 25.6493C73.5694 33.5213 74.8628 43.6186 73.013 54.6199C73.3051 54.4808 73.5833 54.3556 73.8753 54.2166C74.9462 53.7298 75.9893 53.2569 77.0185 52.7423Z" fill="#FE6B3C"/>
<path d="M99.967 66.2332C99.3967 60.517 95.8919 56.6505 91.5525 53.3543C91.3856 53.2987 91.2048 53.243 91.038 53.1874C86.4205 51.6714 81.803 50.4058 77.0325 52.7562C76.0033 53.2708 74.9463 53.7576 73.9031 54.2444C73.6111 54.3835 73.3329 54.5087 73.0408 54.6477C72.3454 55.4405 71.7057 56.3028 70.9546 57.0399C66.4484 61.4349 65.8225 66.873 67.0186 72.6309C68.8406 81.4069 79.5498 88.7087 90.9267 83.5071C90.9406 83.4932 90.9684 83.4932 90.9823 83.4793C97.4496 79.5433 100.746 73.9105 99.967 66.2332ZM82.9573 81.6017C80.3478 81.5741 77.8051 80.7728 75.6512 79.2992C73.4974 77.8257 71.8292 75.7461 70.858 73.3239C69.8867 70.9016 69.6561 68.2457 70.1953 65.6923C70.7345 63.1389 72.0192 60.8029 73.8868 58.9801C75.7544 57.1573 78.1209 55.9297 80.6867 55.4528C83.2524 54.9758 85.902 55.2709 88.2999 56.3007C90.6978 57.3305 92.7363 59.0487 94.1571 61.2377C95.5779 63.4267 96.3172 65.9882 96.2813 68.5976C96.2923 70.3356 95.9528 72.0579 95.2831 73.6617C94.6133 75.2654 93.627 76.7176 92.3833 77.9316C91.1395 79.1455 89.6637 80.0962 88.0441 80.7268C86.4246 81.3574 84.6945 81.6549 82.9573 81.6017Z" fill="#FE6142"/>
<path d="M35.8366 53.396C29.7726 57.3876 26.6572 62.8674 27.4222 70.2804C28.0342 76.2888 31.5668 80.3221 36.379 83.4793C36.3929 83.4793 36.3929 83.4931 36.4068 83.4931C39.2481 84.3749 42.2079 84.8158 45.1828 84.8005C55.5583 84.6475 63.3886 74.0495 60.4539 64.0078C57.6306 54.3695 47.3664 48.0413 35.9478 53.3403C35.9081 53.353 35.8706 53.3718 35.8366 53.3959L35.8366 53.396ZM44.1258 81.6017C42.3799 81.6244 40.6467 81.3017 39.0259 80.6523C37.4051 80.0029 35.9287 79.0394 34.6815 77.8174C33.4344 76.5954 32.4411 75.1389 31.7588 73.5316C31.0765 71.9244 30.7186 70.1981 30.7058 68.4521C30.6929 66.706 31.0254 64.9747 31.684 63.3576C32.3426 61.7405 33.3144 60.2696 34.5435 59.0293C35.7725 57.7891 37.2346 56.8041 38.8457 56.1309C40.4568 55.4577 42.1851 55.1096 43.9311 55.1067C45.684 55.0729 47.4261 55.3873 49.0565 56.0317C50.6869 56.6762 52.1732 57.6378 53.4293 58.8608C54.6853 60.0839 55.6862 61.544 56.3738 63.1567C57.0613 64.7694 57.422 66.5025 57.4349 68.2556C57.4478 70.0087 57.1126 71.747 56.4488 73.3696C55.785 74.9922 54.8057 76.4669 53.5678 77.7083C52.3298 78.9497 50.8578 79.9331 49.237 80.6014C47.6163 81.2697 45.879 81.6097 44.1258 81.6017V81.6017Z" fill="#FE6143"/>
<path d="M56.2398 99.9048C55.7252 99.3902 55.3497 98.6948 54.4874 98.6808C54.3205 103.855 59.0492 109.334 63.7085 109.348C68.6459 109.362 72.9435 104.453 72.9296 98.8199C71.0659 99.7796 69.8837 101.755 67.7418 102.339C63.472 103.507 59.5499 103.215 56.2398 99.9048Z" fill="#070909"/>
<path d="M73.4441 93.9521C70.3148 96.247 67.3246 98.208 63.4859 98.1385C59.7307 98.0689 56.9491 95.7324 53.6251 93.4653C53.9867 95.6072 54.2371 97.1371 54.4874 98.6809C55.3497 98.7087 55.7252 99.3902 56.2398 99.9048C59.536 103.215 63.472 103.507 67.7418 102.339C69.8836 101.755 71.0658 99.7935 72.9295 98.82C72.4289 97.2205 74.1117 95.788 73.4441 93.9521Z" fill="#FDFCFB"/>
<path d="M52.4846 34.1333C51.9978 34.0957 51.5084 34.1584 51.0469 34.3178C50.5854 34.4771 50.1615 34.7296 49.8016 35.0595C49.4416 35.3894 49.1533 35.7898 48.9546 36.2358C48.7558 36.6817 48.6508 37.1638 48.646 37.652C48.6877 40.4893 50.3289 41.7271 52.5125 41.6993C53.4909 41.6903 54.4266 41.2976 55.1185 40.6058C55.8103 39.9139 56.203 38.9781 56.212 37.9997C56.2537 35.8301 55.0854 34.0777 52.4846 34.1333Z" fill="#FEA777"/>
<path d="M26.8658 89.8214C26.9941 88.6671 26.6756 87.5075 25.9757 86.5808C24.6965 84.8766 23.557 83.072 22.5682 81.1844C16.6434 69.5294 15.7254 57.4572 20.1621 45.1346C22.9167 37.6008 27.6605 30.9538 33.8894 25.8996C36.2121 23.9525 39.6752 23.118 40.8296 19.8635C40.8889 19.704 40.94 19.5415 40.9826 19.3767C39.9395 18.6952 39.0772 17.8747 37.5751 18.7926C28.8364 23.9946 21.9264 31.7793 17.7977 41.0734C14.4181 48.5977 13.6948 56.4141 14.0843 64.453C14.5695 73.3242 17.7041 81.8461 23.0828 88.9174C24.0425 90.2247 25.2386 91.0453 26.8658 89.8631L26.8658 89.8214Z" fill="#FDFEFE"/>
<path d="M47.9367 16.8593C47.9645 16.8456 47.9923 16.8176 48.0201 16.8038C47.9923 14.5368 46.7823 12.7843 44.6265 13.2989C42.4847 13.8135 42.5264 15.9415 43.4165 17.8051L43.5417 18.0972C43.6439 18.1733 43.7508 18.243 43.8616 18.3058C45.6836 19.4046 46.6711 17.6521 47.9367 16.8594L47.9367 16.8593Z" fill="#FBFDFE"/>
<path d="M96.2813 68.6115C96.3294 66.8736 96.0286 65.1438 95.3967 63.5242C94.7647 61.9046 93.8145 60.4281 92.6022 59.1821C91.3898 57.936 89.94 56.9456 88.3383 56.2696C86.7367 55.5935 85.0157 55.2453 83.2772 55.2458C81.5409 55.217 79.816 55.5315 78.2016 56.1711C76.5871 56.8108 75.115 57.763 73.8696 58.9732C72.6241 60.1834 71.63 61.6276 70.9443 63.223C70.2586 64.8185 69.8947 66.5336 69.8737 68.27C69.8526 70.0064 70.1748 71.7299 70.8216 73.3415C71.4684 74.953 72.4272 76.421 73.6429 77.661C74.8585 78.901 76.3072 79.8887 77.9056 80.5673C79.5041 81.246 81.2208 81.6022 82.9573 81.6156C84.6939 81.6664 86.4229 81.3672 88.0414 80.7358C89.6599 80.1043 91.1347 79.1535 92.378 77.9401C93.6213 76.7266 94.6076 75.2754 95.2782 73.6727C95.9488 72.07 96.2899 70.3488 96.2813 68.6115V68.6115ZM83.611 70.0579C83.0775 70.1109 82.5389 70.0507 82.0303 69.8813C81.5217 69.7118 81.0546 69.437 80.6595 69.0747C80.2644 68.7124 79.9502 68.2708 79.7374 67.7787C79.5246 67.2867 79.418 66.7553 79.4247 66.2193C79.3901 65.6607 79.4721 65.1011 79.6654 64.5759C79.8587 64.0507 80.1591 63.5715 80.5476 63.1686C80.936 62.7658 81.404 62.4481 81.9218 62.2359C82.4396 62.0236 82.9959 61.9213 83.5554 61.9356C86.0032 62.1164 87.3801 63.5489 87.6722 66.108C87.3384 68.3889 86.1701 70.0162 83.611 70.0579Z" fill="#FEFEFE"/>
<path d="M43.9311 55.1206C42.1851 55.1236 40.4568 55.4716 38.8457 56.1448C37.2346 56.818 35.7725 57.8031 34.5435 59.0433C33.3144 60.2835 32.3426 61.7545 31.684 63.3716C31.0254 64.9887 30.6929 66.72 30.7058 68.466C30.7186 70.2121 31.0765 71.9383 31.7588 73.5456C32.4411 75.1528 33.4344 76.6093 34.6815 77.8313C35.9287 79.0534 37.4051 80.0168 39.0259 80.6663C40.6467 81.3157 42.3799 81.6383 44.1258 81.6156C45.879 81.6236 47.6163 81.2837 49.237 80.6153C50.8578 79.947 52.3298 78.9637 53.5678 77.7223C54.8057 76.4809 55.785 75.0062 56.4488 73.3836C57.1126 71.7609 57.4478 70.0227 57.4349 68.2696C57.422 66.5165 57.0614 64.7834 56.3738 63.1707C55.6862 61.558 54.6853 60.0978 53.4293 58.8748C52.1732 57.6517 50.6869 56.6901 49.0565 56.0457C47.4261 55.4013 45.684 55.0868 43.9311 55.1206V55.1206ZM43.945 70.0579C43.4102 70.107 42.8711 70.0424 42.363 69.8686C41.855 69.6947 41.3893 69.4154 40.9967 69.0491C40.6041 68.6827 40.2933 68.2375 40.0847 67.7427C39.8762 67.2478 39.7745 66.7145 39.7865 66.1776C39.7569 65.6181 39.8446 65.0586 40.0439 64.535C40.2433 64.0115 40.5499 63.5353 40.9441 63.1372C41.3383 62.7391 41.8113 62.4278 42.3329 62.2232C42.8545 62.0187 43.4131 61.9255 43.9728 61.9495C45.0646 61.9644 46.1058 62.4123 46.8674 63.1948C47.629 63.9772 48.0486 65.0301 48.034 66.1219C47.728 68.4724 46.4484 70.0301 43.945 70.0579Z" fill="#FEFEFE"/>
<path d="M83.5554 61.9356C82.9953 61.919 82.4379 62.0197 81.9191 62.2312C81.4002 62.4427 80.9313 62.7603 80.5423 63.1636C80.1534 63.567 79.8531 64.0471 79.6606 64.5734C79.4681 65.0996 79.3878 65.6602 79.4247 66.2193C79.4168 66.7557 79.5226 67.2877 79.7349 67.7803C79.9473 68.2729 80.2615 68.715 80.6569 69.0775C81.0523 69.4401 81.5199 69.7149 82.029 69.8838C82.5382 70.0528 83.0773 70.1121 83.611 70.0579C86.1562 70.0162 87.3384 68.3889 87.6722 66.108C87.3801 63.549 86.0032 62.1164 83.5554 61.9356Z" fill="#090B0B"/>
<path d="M43.9728 61.9495C43.4131 61.9255 42.8545 62.0187 42.3329 62.2232C41.8114 62.4278 41.3383 62.7391 40.9441 63.1372C40.5499 63.5353 40.2433 64.0114 40.044 64.535C39.8446 65.0586 39.7569 65.6181 39.7865 66.1776C39.7746 66.7144 39.8762 67.2478 40.0848 67.7426C40.2933 68.2375 40.6041 68.6827 40.9967 69.0491C41.3893 69.4154 41.855 69.6947 42.363 69.8686C42.8711 70.0424 43.4102 70.107 43.945 70.0579C46.4485 70.0301 47.728 68.4724 48.034 66.1219C47.7976 63.5489 46.379 62.1442 43.9728 61.9495Z" fill="#090C0C"/>
</svg>
