<svg width="198" height="255" viewBox="0 0 198 255" fill="none" xmlns="http://www.w3.org/2000/svg">
<g clip-path="url(#clip0_318_2)">
<path opacity="0.2" d="M98.7395 167.607C138.667 167.607 171.036 135.171 171.036 95.16C171.036 55.1487 138.667 22.7131 98.7395 22.7131C58.8115 22.7131 26.4434 55.1487 26.4434 95.16C26.4434 135.171 58.8115 167.607 98.7395 167.607Z" fill="url(#paint0_linear_318_2)"/>
<path opacity="0.14" fill-rule="evenodd" clip-rule="evenodd" d="M98.7395 185.555C148.565 185.555 188.947 145.09 188.947 95.16C188.947 45.2304 148.565 4.76453 98.7395 4.76453C48.9138 4.76453 8.53223 45.2304 8.53223 95.16C8.53223 145.09 48.9138 185.555 98.7395 185.555ZM98.7395 167.542C138.665 167.542 171.036 135.104 171.036 95.0947C171.036 55.0857 138.665 22.6478 98.7395 22.6478C58.8138 22.6478 26.4434 55.0857 26.4434 95.0947C26.4434 135.169 58.8138 167.542 98.7395 167.542Z" fill="#5E6294"/>
<path d="M57.4461 133.08C47.5461 128.773 40.6421 118.917 40.6421 107.43C40.6421 96.6611 46.6994 87.3931 55.5573 82.6939C54.9711 58.1533 74.6408 37.8551 99.1954 37.8551C123.75 37.8551 143.485 58.1533 142.834 82.6939C151.691 87.3931 157.749 96.6611 157.749 107.43C157.749 118.917 150.845 128.773 140.945 133.08L139.316 176.026C139.772 187.122 143.094 188.101 155.73 191.56C156.967 191.886 158.27 192.278 159.638 192.67C149.282 195.019 142.768 195.346 138.665 194.105L137.949 213.947C136.255 232.678 136.451 232.744 149.086 236.007C150.78 236.464 152.734 236.986 154.948 237.574C127.723 243.774 127.397 231.438 127.072 220.278C127.007 218.059 126.941 215.84 126.681 213.881H125.639C125.574 214.665 125.509 215.383 125.443 216.101C124.206 231.699 123.75 237.051 126.16 239.466C127.463 240.706 129.482 241.098 132.673 241.751C135.93 242.403 140.424 243.317 146.416 245.667C114.371 250.17 114.371 239.923 114.436 222.562C114.436 219.886 114.436 216.949 114.306 213.947H113.329C111.831 247.429 113.59 247.886 124.922 250.692C127.984 251.476 131.826 252.389 136.451 254.217C103.755 257.872 102.452 248.538 100.433 234.245C100.107 231.699 99.7165 229.024 99.1303 226.217C98.5441 229.024 98.1533 231.699 97.8276 234.245C95.8086 248.604 94.5059 257.872 61.8099 254.217C66.4342 252.389 70.277 251.476 73.3382 250.692C84.7362 247.886 86.4296 247.494 84.9316 213.947H83.9546C83.8244 216.949 83.8244 219.821 83.8244 222.562C83.8895 239.923 83.8895 250.17 51.8448 245.667C57.8369 243.317 62.2658 242.469 65.5875 241.751C68.7138 241.098 70.798 240.706 72.1007 239.466C74.5757 237.117 74.1198 231.765 72.8171 216.101C72.752 215.383 72.6869 214.665 72.6217 213.881H71.5796C71.3191 215.84 71.254 218.059 71.1888 220.278C70.8632 231.438 70.5375 243.774 43.3125 237.574C45.527 236.921 47.4809 236.464 49.1744 236.007C61.8099 232.744 61.9402 232.678 60.3119 213.947L59.5954 194.105C55.4921 195.346 48.979 195.019 38.623 192.67C39.9908 192.278 41.2934 191.886 42.5309 191.56C55.1013 188.101 58.4882 187.187 58.9441 176.026L57.4461 133.08Z" fill="#EF7B4D"/>
<path d="M67.0855 128.773C78.5603 128.773 87.8625 119.451 87.8625 107.952C87.8625 96.4536 78.5603 87.1321 67.0855 87.1321C55.6107 87.1321 46.3085 96.4536 46.3085 107.952C46.3085 119.451 55.6107 128.773 67.0855 128.773Z" fill="#FEFEFE"/>
<path d="M66.6296 111.738C70.5505 111.738 73.7289 108.553 73.7289 104.624C73.7289 100.695 70.5505 97.5096 66.6296 97.5096C62.7088 97.5096 59.5303 100.695 59.5303 104.624C59.5303 108.553 62.7088 111.738 66.6296 111.738Z" fill="black"/>
<path d="M128.505 128.773C139.979 128.773 149.282 119.451 149.282 107.952C149.282 96.4536 139.979 87.1321 128.505 87.1321C117.03 87.1321 107.728 96.4536 107.728 107.952C107.728 119.451 117.03 128.773 128.505 128.773Z" fill="#FEFEFE"/>
<path d="M127.984 111.738C131.904 111.738 135.083 108.553 135.083 104.624C135.083 100.695 131.904 97.5096 127.984 97.5096C124.063 97.5096 120.884 100.695 120.884 104.624C120.884 108.553 124.063 111.738 127.984 111.738Z" fill="black"/>
<path d="M83.1079 146.721C83.1079 146.721 90.6632 154.292 99.1954 154.292C107.728 154.292 115.283 146.721 115.283 146.721V156.185C115.283 165.061 108.118 172.306 99.1954 172.306C90.2724 172.306 83.1079 165.127 83.1079 156.185V146.721Z" fill="#FAFAFA"/>
<path d="M83.1079 154.292C83.1079 154.292 90.6632 161.863 99.1954 161.863C107.728 161.863 115.283 154.292 115.283 154.292V156.185C115.283 165.061 108.118 172.306 99.1954 172.306C90.2724 172.306 83.1079 165.127 83.1079 156.185V154.292Z" fill="#202124"/>
<path opacity="0.16" d="M38.6881 140.456C29.3092 127.924 23.7079 112.391 23.6427 95.5516C23.5776 68.335 37.8414 44.5124 59.2697 31.1978" stroke="#5E6294" stroke-width="8.7031" stroke-linecap="round"/>
<path opacity="0.45" d="M68.9743 28.3913C71.0607 28.3913 72.752 26.6965 72.752 24.6058C72.752 22.5151 71.0607 20.8203 68.9743 20.8203C66.888 20.8203 65.1967 22.5151 65.1967 24.6058C65.1967 26.6965 66.888 28.3913 68.9743 28.3913Z" fill="#5E6294"/>
<path d="M3.77763 73.8175H4.75461C6.83882 73.8175 8.53224 75.5145 8.53224 77.603V113.565C8.53224 115.654 6.83882 117.351 4.75461 117.351H3.77763C1.69342 117.351 0 115.654 0 113.565V77.603C0 75.5145 1.69342 73.8175 3.77763 73.8175Z" fill="#5E6294"/>
<path d="M192.724 73.8175H193.701C195.786 73.8175 197.479 75.5145 197.479 77.603V113.565C197.479 115.654 195.786 117.351 193.701 117.351H192.724C190.64 117.351 188.947 115.654 188.947 113.565V77.603C188.947 75.5145 190.64 73.8175 192.724 73.8175Z" fill="#5E6294"/>
<path fill-rule="evenodd" clip-rule="evenodd" d="M98.7395 190.32C151.17 190.32 193.701 147.7 193.701 95.16C193.701 42.6197 151.17 0 98.7395 0C46.3086 0 3.77765 42.6197 3.77765 95.16C3.77765 147.7 46.3086 190.32 98.7395 190.32ZM98.7395 185.555C148.565 185.555 188.947 145.09 188.947 95.16C188.947 45.2304 148.565 4.76453 98.7395 4.76453C48.9138 4.76453 8.53225 45.2304 8.53225 95.16C8.53225 145.09 48.9138 185.555 98.7395 185.555Z" fill="#5E6294" fill-opacity="0.2"/>
<path d="M89.2302 59.2629C88.2533 63.7011 84.4105 66.6381 80.6329 65.8549C76.7901 65.0064 74.3802 61.482 75.3572 57.0438C76.3342 52.6056 82.1309 47.8411 85.9085 48.6895C89.6862 49.4727 90.2072 54.8247 89.2302 59.2629Z" fill="#F77F4F"/>
</g>
<defs>
<linearGradient id="paint0_linear_318_2" x1="79.3363" y1="28.3757" x2="120.989" y2="171.212" gradientUnits="userSpaceOnUse">
<stop stop-color="#5E6294"/>
<stop offset="1" stop-color="#878BB2"/>
</linearGradient>
<clipPath id="clip0_318_2">
<rect width="198" height="255" fill="white"/>
</clipPath>
</defs>
</svg>
