<?xml version="1.0" encoding="utf-8"?>
<!-- Generator: Adobe Illustrator 25.3.1, SVG Export Plug-In . SVG Version: 6.00 Build 0)  -->
<svg version="1.1" id="Layer_1" xmlns="http://www.w3.org/2000/svg" xmlns:xlink="http://www.w3.org/1999/xlink" x="0px" y="0px"
	 viewBox="0 0 120 120" enable-background="new 0 0 120 120" xml:space="preserve">
<g>
	<g>
		
			<linearGradient id="SVGID_1_" gradientUnits="userSpaceOnUse" x1="31.2637" y1="-402.2637" x2="105.884" y2="-476.884" gradientTransform="matrix(1 0 0 -1 0 -372)">
			<stop  offset="0" style="stop-color:#EB5795"/>
			<stop  offset="1" style="stop-color:#EB5795;stop-opacity:0"/>
		</linearGradient>
		
			<path opacity="0.9" fill="none" stroke="url(#SVGID_1_)" stroke-width="37.3291" stroke-linecap="round" enable-background="new    " d="
			M75.9,74.9l24.3,24.3"/>
		
			<linearGradient id="SVGID_2_" gradientUnits="userSpaceOnUse" x1="62.448" y1="-434.0479" x2="91.4207" y2="-463.0208" gradientTransform="matrix(1 0 0 -1 0 -372)">
			<stop  offset="0" style="stop-color:#EB5795"/>
			<stop  offset="1" style="stop-color:#EB5795;stop-opacity:0"/>
		</linearGradient>
		
			<path opacity="0.9" fill="none" stroke="url(#SVGID_2_)" stroke-width="3.0048" stroke-linecap="round" enable-background="new    " d="
			M65.8,65.4L88.4,88"/>
		
			<linearGradient id="SVGID_3_" gradientUnits="userSpaceOnUse" x1="58.854" y1="-428.8539" x2="88.1584" y2="-458.1584" gradientTransform="matrix(1 0 0 -1 0 -372)">
			<stop  offset="0" style="stop-color:#EB5795"/>
			<stop  offset="1" style="stop-color:#EB5795;stop-opacity:0"/>
		</linearGradient>
		
			<path opacity="0.9" fill="none" stroke="url(#SVGID_3_)" stroke-width="3.0048" stroke-linecap="round" enable-background="new    " d="
			M62.2,60.2l22.9,22.9"/>
		
			<linearGradient id="SVGID_4_" gradientUnits="userSpaceOnUse" x1="54.8053" y1="-428.0552" x2="83.7781" y2="-457.0281" gradientTransform="matrix(1 0 0 -1 0 -372)">
			<stop  offset="0" style="stop-color:#EB5795"/>
			<stop  offset="1" style="stop-color:#EB5795;stop-opacity:0"/>
		</linearGradient>
		
			<path opacity="0.9" fill="none" stroke="url(#SVGID_4_)" stroke-width="3.0048" stroke-linecap="round" enable-background="new    " d="
			M58.1,59.4L80.8,82"/>
	</g>
	<path fill="#5C74C6" d="M83.9,41.7L41.7,83.9L25.5,61.4c-3.5-5-5.2-11-4.7-17.1s3.1-11.8,7.5-16.1c4.3-4.3,10-7,16.1-7.5
		s12.1,1.2,17.1,4.7L83.9,41.7z"/>
	
		<linearGradient id="SVGID_5_" gradientUnits="userSpaceOnUse" x1="3873.095" y1="3432.4062" x2="5445.4224" y2="5004.7329" gradientTransform="matrix(1 0 0 -1 0 -372)">
		<stop  offset="0" style="stop-color:#D6E6FD"/>
		<stop  offset="1" style="stop-color:#D2E3FD"/>
	</linearGradient>
	<path fill="url(#SVGID_5_)" d="M34.1,14.7l41.8,41.8L56.5,75.9L14.7,34.1c-3.9-3.9-6.9-8.8-8.5-14.1L1.7,5.4c-0.2-0.5-0.2-1,0-1.6
		c0.1-0.5,0.4-1,0.8-1.3s0.8-0.7,1.3-0.8c0.5-0.1,1-0.1,1.6,0L20,6.2C25.3,7.8,30.2,10.7,34.1,14.7z"/>
	
		<linearGradient id="SVGID_6_" gradientUnits="userSpaceOnUse" x1="56.3218" y1="-453.2218" x2="18.8718" y2="-415.772" gradientTransform="matrix(1 0 0 -1 0 -372)">
		<stop  offset="0" style="stop-color:#5C75C9"/>
		<stop  offset="1" style="stop-color:#2E419B"/>
	</linearGradient>
	<path opacity="0.17" fill="url(#SVGID_6_)" enable-background="new    " d="M21.3,40.7l26.1,37.2l5.6-5.6L21.3,40.7z"/>
	
		<linearGradient id="SVGID_7_" gradientUnits="userSpaceOnUse" x1="11164.9072" y1="-11511.9463" x2="6234.2637" y2="-6581.2627" gradientTransform="matrix(1 0 0 -1 0 -372)">
		<stop  offset="0" style="stop-color:#5C75C9"/>
		<stop  offset="1" style="stop-color:#2E419B"/>
	</linearGradient>
	<path opacity="0.43" fill="url(#SVGID_7_)" enable-background="new    " d="M40.7,21.3l37.3,26l-5.6,5.6L40.7,21.3z"/>
	
		<linearGradient id="SVGID_8_" gradientUnits="userSpaceOnUse" x1="3290.2375" y1="-3661.4272" x2="3797.3906" y2="-4168.5923" gradientTransform="matrix(1 0 0 -1 0 -372)">
		<stop  offset="0" style="stop-color:#373282"/>
		<stop  offset="0.44" style="stop-color:#323A8F"/>
		<stop  offset="1" style="stop-color:#2E419B"/>
	</linearGradient>
	<path fill="url(#SVGID_8_)" d="M81.4,70.5L71.3,80.6c-0.2,0.2-0.5,0.4-0.8,0.5s-0.6,0.2-0.9,0.1c-0.3,0-0.6-0.1-0.9-0.3
		c-0.3-0.2-0.5-0.4-0.7-0.6L61.4,71l10.4-10.4l9.4,6.6c0.3,0.2,0.5,0.4,0.6,0.7c0.2,0.3,0.3,0.6,0.3,0.9s0,0.6-0.1,0.9
		S81.6,70.2,81.4,70.5L81.4,70.5z"/>
	<path fill="#A1BFF1" d="M34.6,34.5c1.2-1.2,1.2-3,0-4.1c-1.2-1.2-3-1.2-4.1,0c-1.2,1.2-1.2,3,0,4.1C31.6,35.7,33.4,35.7,34.6,34.5z
		"/>
	<path fill="#5C74C6" d="M39.4,39.4c0.8-0.8,0.8-2,0-2.7c-0.8-0.8-2-0.8-2.7,0c-0.8,0.8-0.8,2,0,2.7C37.4,40.1,38.7,40.1,39.4,39.4z
		"/>
	
		<linearGradient id="SVGID_9_" gradientUnits="userSpaceOnUse" x1="8209.627" y1="-8576.9268" x2="5818.4087" y2="-6185.7085" gradientTransform="matrix(1 0 0 -1 0 -372)">
		<stop  offset="0" style="stop-color:#5C75C9"/>
		<stop  offset="1" style="stop-color:#2E419B"/>
	</linearGradient>
	<path opacity="0.19" fill="url(#SVGID_9_)" enable-background="new    " d="M70.7,61.6L68.3,64l-26-22L70.7,61.6z"/>
	
		<linearGradient id="SVGID_10_" gradientUnits="userSpaceOnUse" x1="10038.0986" y1="-10409.8096" x2="6678.0088" y2="-7049.7202" gradientTransform="matrix(1 0 0 -1 0 -372)">
		<stop  offset="0" style="stop-color:#5C75C9"/>
		<stop  offset="1" style="stop-color:#2E419B"/>
	</linearGradient>
	<path fill="url(#SVGID_10_)" d="M40.7,40.3l23.7,28.9c0.3,0.4,0.7,0.7,1.2,1c0.5,0.2,1,0.4,1.5,0.4s1,0,1.5-0.2s0.9-0.5,1.3-0.8
		c0.3-0.3,0.7-0.8,0.8-1.3c0.2-0.5,0.3-1,0.2-1.5c0-0.5-0.2-1-0.4-1.5c-0.2-0.5-0.6-0.8-1-1.2L40.7,40.3z"/>
	
		<linearGradient id="SVGID_11_" gradientUnits="userSpaceOnUse" x1="63.8113" y1="-445.5114" x2="1.3002" y2="-383.0002" gradientTransform="matrix(1 0 0 -1 0 -372)">
		<stop  offset="0" style="stop-color:#5C75C9"/>
		<stop  offset="1" style="stop-color:#D2E3FD"/>
	</linearGradient>
	<path opacity="0.23" fill="url(#SVGID_11_)" enable-background="new    " d="M60.5,68.7c0.8,0.5,1.7,0.5,2.4,0.7l-6.4,6.4
		L14.7,34.1c-3.9-3.9-6.9-8.8-8.5-14.1L1.7,5.4c-0.2-0.5-0.2-1,0-1.6s0.4-1,0.8-1.3c4,8.6,8.6,16.8,14,24.6
		C28.4,44.5,41.9,57.1,60.5,68.7L60.5,68.7z"/>
	<defs>
		<filter id="Adobe_OpacityMaskFilter" filterUnits="userSpaceOnUse" x="16.2" y="16.3" width="13.9" height="13.3">
			<feColorMatrix  type="matrix" values="1 0 0 0 0  0 1 0 0 0  0 0 1 0 0  0 0 0 1 0"/>
		</filter>
	</defs>
	<mask maskUnits="userSpaceOnUse" x="16.2" y="16.3" width="13.9" height="13.3" id="o_1_">
		<path fill="#FFFFFF" filter="url(#Adobe_OpacityMaskFilter)" d="M26.4,26.4c2.3-2.3,2.3-6,0-8.4s-6-2.3-8.4,0s-2.3,6,0,8.4
			C20.4,28.7,24.1,28.7,26.4,26.4z"/>
	</mask>
	<g mask="url(#o_1_)">
		<circle fill="#FFFFFF" cx="22.7" cy="22.8" r="6.5"/>
		
			<linearGradient id="SVGID_12_" gradientUnits="userSpaceOnUse" x1="-761.0205" y1="-556.3627" x2="-758.8901" y2="-563.6833" gradientTransform="matrix(0.7071 -0.7071 -0.7071 -0.7071 164.1764 -910.6445)">
			<stop  offset="0" style="stop-color:#5E6294"/>
			<stop  offset="1" style="stop-color:#878BB2"/>
		</linearGradient>
		<circle opacity="0.2" fill="url(#SVGID_12_)" enable-background="new    " cx="22.6" cy="22.6" r="3.7"/>
		<path opacity="0.14" fill-rule="evenodd" clip-rule="evenodd" fill="#5E6294" enable-background="new    " d="M25.9,25.8
			c1.8-1.8,1.8-4.7,0-6.5s-4.7-1.8-6.5,0c-1.8,1.8-1.8,4.7,0,6.5C21.1,27.7,24.1,27.7,25.9,25.8z M25.2,25.2c1.5-1.5,1.5-3.8,0-5.2
			c-1.5-1.5-3.8-1.5-5.2,0c-1.5,1.5-1.5,3.8,0,5.2C21.4,26.7,23.8,26.7,25.2,25.2z"/>
		<path fill="#EF7B4D" d="M22.5,25.5c-0.5,0.2-1.1,0.1-1.5-0.3s-0.5-1-0.3-1.4c-0.9-0.9-0.9-2.3,0-3.2c0.9-0.9,2.3-0.9,3.2,0
			c0.5-0.2,1,0,1.4,0.3c0.4,0.4,0.5,1,0.3,1.5l1.5,1.6c0.4,0.4,0.6,0.3,1.2,0c0,0,0.1-0.1,0.2-0.1c-0.3,0.5-0.5,0.7-0.7,0.8l0.7,0.7
			c0.6,0.7,0.6,0.7,1.2,0.4c0.1,0,0.2-0.1,0.3-0.2c-0.8,1.2-1.2,0.8-1.7,0.4c-0.1-0.1-0.2-0.2-0.2-0.2l0,0c0,0,0,0.1,0.1,0.1l0,0
			c0.5,0.6,0.7,0.8,0.9,0.8c0.1,0,0.2-0.1,0.3-0.2c0.2-0.1,0.3-0.2,0.7-0.3c-1,1.3-1.4,1-2,0.3c-0.1-0.1-0.2-0.2-0.3-0.3l0,0
			c1.2,1.3,1.2,1.2,1.7,0.9c0.2-0.1,0.3-0.2,0.5-0.3c-1,1.3-1.4,1-2,0.6c-0.1-0.1-0.2-0.2-0.3-0.2c0.1,0.1,0.2,0.2,0.2,0.3
			c0.5,0.6,0.7,1-0.6,2c0.1-0.2,0.2-0.4,0.3-0.5c0.3-0.5,0.3-0.6-0.9-1.7l0,0c0.1,0.1,0.2,0.2,0.3,0.3c0.6,0.6,1,1-0.3,2
			c0.1-0.3,0.3-0.5,0.3-0.7c0.1-0.2,0.2-0.2,0.2-0.3c0-0.2-0.2-0.3-0.8-0.9c0,0,0,0-0.1-0.1l0,0c0.1,0.1,0.2,0.2,0.2,0.2
			c0.4,0.4,0.8,0.9-0.4,1.7c0-0.1,0.1-0.2,0.2-0.3c0.3-0.6,0.3-0.6-0.4-1.2l-0.8-0.7c-0.1,0.2-0.3,0.4-0.8,0.7
			c0-0.1,0.1-0.1,0.1-0.2c0.3-0.6,0.4-0.7,0-1.2L22.5,25.5z"/>
		<circle fill="#FEFEFE" cx="21.9" cy="24.2" r="1.1"/>
		<circle cx="21.8" cy="24.1" r="0.3"/>
		<circle fill="#FEFEFE" cx="24.1" cy="22" r="1.1"/>
		<circle cx="24" cy="21.8" r="0.3"/>
		<path fill="#FAFAFA" d="M23.9,25c0,0,0.5,0,0.8-0.3s0.3-0.8,0.3-0.8l0.3,0.3c0.3,0.3,0.3,0.8,0,1.2c-0.3,0.3-0.8,0.3-1.2,0
			L23.9,25z"/>
		<path fill="#202124" d="M24.2,25.3c0,0,0.5,0,0.8-0.3s0.3-0.8,0.3-0.8l0.1,0.1c0.3,0.3,0.3,0.8,0,1.2
			C25.1,25.6,24.6,25.6,24.2,25.3L24.2,25.3z"/>
		<path opacity="0.16" fill="none" stroke="#5E6294" stroke-width="0.7558" stroke-linecap="round" enable-background="new    " d="
			M22.1,26.4c-0.8-0.1-1.6-0.5-2.2-1.1c-1-1-1.3-2.3-1-3.6"/>
		<g>
			<circle opacity="0.45" fill="#5E6294" enable-background="new    " cx="18.9" cy="21.1" r="0.2"/>
			<path fill="#5E6294" d="M18.4,25.2L18.4,25.2c0.1-0.1,0.2-0.1,0.3,0l1.3,1.3c0.1,0.1,0.1,0.2,0,0.3l0,0c-0.1,0.1-0.2,0.1-0.3,0
				l-1.3-1.3C18.3,25.5,18.3,25.3,18.4,25.2z"/>
			<path fill="#5E6294" d="M25.2,18.4L25.2,18.4c0.1-0.1,0.2-0.1,0.3,0l1.3,1.3c0.1,0.1,0.1,0.2,0,0.3l0,0c-0.1,0.1-0.2,0.1-0.3,0
				l-1.3-1.3C25.1,18.6,25.1,18.4,25.2,18.4z"/>
			<path fill-rule="evenodd" clip-rule="evenodd" fill="#5E6294" fill-opacity="0.2" d="M26,26c1.9-1.9,1.9-5,0-6.9s-5-1.9-6.9,0
				s-1.9,5,0,6.9S24.1,27.9,26,26z M25.9,25.8c1.8-1.8,1.8-4.7,0-6.5s-4.7-1.8-6.5,0c-1.8,1.8-1.8,4.7,0,6.5
				C21.1,27.7,24.1,27.7,25.9,25.8z"/>
		</g>
		<path fill="#F77F4F" d="M20.9,21.6c0.1,0.2,0.1,0.4-0.1,0.5s-0.4,0.1-0.5-0.1s-0.1-0.6,0.1-0.7C20.6,21.2,20.8,21.4,20.9,21.6z"/>
	</g>
</g>
</svg>
