<svg width="163" height="33" viewBox="0 0 163 33" fill="none" xmlns="http://www.w3.org/2000/svg">
<path d="M41.2983 17.3668C41.2983 18.4423 41.5245 19.3427 41.977 20.068C42.4295 20.7933 43.1548 21.156 44.1528 21.156C44.9276 21.156 45.5645 20.8199 46.0635 20.1477C46.5625 19.4755 46.812 18.5111 46.812 17.2543C46.812 15.9849 46.5548 15.0455 46.0403 14.4358C45.5258 13.8262 44.8904 13.5214 44.1342 13.5214C43.2912 13.5214 42.6078 13.8465 42.084 14.4968C41.5602 15.1471 41.2983 16.1037 41.2983 17.3668ZM43.8181 12.0488C44.5805 12.0488 45.219 12.2114 45.7334 12.5366C46.031 12.7241 46.3688 13.0524 46.7469 13.5214V8.44727H48.3555V22.2721H46.8492V20.8746C46.4587 21.4936 45.9969 21.9407 45.4638 22.2158C44.9307 22.4909 44.3201 22.6285 43.6321 22.6285C42.5225 22.6285 41.5617 22.158 40.7497 21.2169C39.9377 20.2759 39.5316 19.0238 39.5316 17.4606C39.5316 15.9974 39.902 14.7297 40.6428 13.6574C41.3835 12.585 42.4419 12.0488 43.8181 12.0488ZM54.9757 12.002C55.6824 12.002 56.3673 12.1692 57.0306 12.5037C57.6939 12.8383 58.199 13.2713 58.5462 13.8027C58.8809 14.3092 59.1041 14.9001 59.2156 15.5754C59.3148 16.0381 59.3644 16.7759 59.3644 17.7889H52.0654C52.0964 18.8081 52.3351 19.6256 52.7814 20.2415C53.2277 20.8574 53.9188 21.1653 54.8548 21.1653C55.7289 21.1653 56.4262 20.8746 56.9469 20.2931C57.2444 19.9554 57.4552 19.5646 57.5792 19.1207H59.2249C59.1815 19.4896 59.0374 19.9007 58.7926 20.3541C58.5477 20.8074 58.2734 21.1779 57.9697 21.4655C57.4614 21.9657 56.8322 22.3033 56.0822 22.4784C55.6793 22.5785 55.2237 22.6285 54.7154 22.6285C53.4756 22.6285 52.425 22.1736 51.5633 21.2638C50.7017 20.3541 50.2709 19.0801 50.2709 17.4418C50.2709 15.8286 50.7048 14.5187 51.5726 13.512C52.4405 12.5053 53.5748 12.002 54.9757 12.002ZM57.6443 16.4477C57.5761 15.7161 57.418 15.1315 57.1701 14.6938C56.7114 13.8809 55.9458 13.4745 54.8734 13.4745C54.1048 13.4745 53.4601 13.7543 52.9394 14.3139C52.4187 14.8735 52.1429 15.5848 52.1119 16.4477H57.6443ZM62.2375 12.2271L64.8967 20.4056L67.6769 12.2271H69.5086L65.7522 22.2721H63.9669L60.2942 12.2271H62.2375ZM75.0874 12.002C75.7941 12.002 76.479 12.1692 77.1423 12.5037C77.8055 12.8383 78.3107 13.2713 78.6579 13.8027C78.9926 14.3092 79.2158 14.9001 79.3273 15.5754C79.4265 16.0381 79.4761 16.7759 79.4761 17.7889H72.1771C72.2081 18.8081 72.4468 19.6256 72.8931 20.2415C73.3394 20.8574 74.0305 21.1653 74.9665 21.1653C75.8406 21.1653 76.5379 20.8746 77.0586 20.2931C77.3561 19.9554 77.5669 19.5646 77.6909 19.1207H79.3366C79.2932 19.4896 79.1491 19.9007 78.9043 20.3541C78.6594 20.8074 78.3851 21.1779 78.0814 21.4655C77.5731 21.9657 76.9439 22.3033 76.1939 22.4784C75.791 22.5785 75.3354 22.6285 74.8271 22.6285C73.5873 22.6285 72.5367 22.1736 71.675 21.2638C70.8134 20.3541 70.3826 19.0801 70.3826 17.4418C70.3826 15.8286 70.8165 14.5187 71.6843 13.512C72.5522 12.5053 73.6865 12.002 75.0874 12.002ZM77.756 16.4477C77.6878 15.7161 77.5297 15.1315 77.2818 14.6938C76.823 13.8809 76.0575 13.4745 74.9851 13.4745C74.2165 13.4745 73.5718 13.7543 73.0511 14.3139C72.5304 14.8735 72.2546 15.5848 72.2236 16.4477H77.756ZM81.5775 8.49416H83.2511V22.2721H81.5775V8.49416ZM89.7133 21.1841C90.8228 21.1841 91.5837 20.7605 91.9959 19.9132C92.4081 19.066 92.6143 18.1234 92.6143 17.0854C92.6143 16.1475 92.4655 15.3847 92.1679 14.7969C91.6968 13.8715 90.8848 13.4088 89.7318 13.4088C88.7091 13.4088 87.9652 13.8027 87.5003 14.5906C87.0354 15.3784 86.803 16.3288 86.803 17.4418C86.803 18.5111 87.0354 19.4021 87.5003 20.1149C87.9652 20.8277 88.7029 21.1841 89.7133 21.1841ZM89.7783 11.9363C91.0615 11.9363 92.1462 12.3677 93.0327 13.2306C93.9191 14.0935 94.3623 15.3628 94.3623 17.0385C94.3623 18.658 93.9718 19.9961 93.1907 21.0528C92.4097 22.1095 91.1979 22.6379 89.5552 22.6379C88.1853 22.6379 87.0974 22.1705 86.2916 21.2357C85.4857 20.3009 85.0828 19.0457 85.0828 17.47C85.0828 15.7817 85.5074 14.4374 86.3567 13.437C87.2059 12.4365 88.3464 11.9363 89.7783 11.9363ZM100.555 21.1372C101.336 21.1372 101.985 20.8074 102.503 20.1477C103.02 19.488 103.279 18.5017 103.279 17.1886C103.279 16.3882 103.164 15.7005 102.935 15.1252C102.501 14.0185 101.708 13.4651 100.555 13.4651C99.3956 13.4651 98.6022 14.0497 98.1745 15.219C97.9451 15.8443 97.8305 16.6384 97.8305 17.6013C97.8305 18.3766 97.9451 19.0363 98.1745 19.5803C98.6084 20.6182 99.4018 21.1372 100.555 21.1372ZM96.2219 12.2739H97.8491V13.6058C98.1838 13.1493 98.5495 12.7961 98.9462 12.5459C99.5103 12.1708 100.174 11.9832 100.936 11.9832C102.064 11.9832 103.022 12.4193 103.809 13.2916C104.596 14.1638 104.99 15.4097 104.99 17.0292C104.99 19.2176 104.423 20.7808 103.288 21.7187C102.569 22.3127 101.733 22.6097 100.778 22.6097C100.028 22.6097 99.3987 22.444 98.8904 22.1126C98.5929 21.9251 98.2613 21.603 97.8955 21.1466V26.277H96.2219V12.2739ZM111.089 12.002C111.796 12.002 112.481 12.1692 113.144 12.5037C113.808 12.8383 114.313 13.2713 114.66 13.8027C114.995 14.3092 115.218 14.9001 115.329 15.5754C115.429 16.0381 115.478 16.7759 115.478 17.7889H108.179C108.21 18.8081 108.449 19.6256 108.895 20.2415C109.341 20.8574 110.033 21.1653 110.969 21.1653C111.843 21.1653 112.54 20.8746 113.061 20.2931C113.358 19.9554 113.569 19.5646 113.693 19.1207H115.339C115.295 19.4896 115.151 19.9007 114.906 20.3541C114.661 20.8074 114.387 21.1779 114.083 21.4655C113.575 21.9657 112.946 22.3033 112.196 22.4784C111.793 22.5785 111.337 22.6285 110.829 22.6285C109.589 22.6285 108.539 22.1736 107.677 21.2638C106.815 20.3541 106.385 19.0801 106.385 17.4418C106.385 15.8286 106.819 14.5187 107.686 13.512C108.554 12.5053 109.689 12.002 111.089 12.002ZM113.758 16.4477C113.69 15.7161 113.532 15.1315 113.284 14.6938C112.825 13.8809 112.06 13.4745 110.987 13.4745C110.219 13.4745 109.574 13.7543 109.053 14.3139C108.533 14.8735 108.257 15.5848 108.226 16.4477H113.758ZM117.58 12.2271H119.169V13.9622C119.3 13.6245 119.619 13.2134 120.127 12.7288C120.635 12.2442 121.221 12.002 121.885 12.002C121.916 12.002 121.968 12.0051 122.043 12.0113C122.117 12.0176 122.244 12.0301 122.424 12.0488V13.8309C122.325 13.8121 122.233 13.7996 122.15 13.7934C122.066 13.7871 121.974 13.784 121.875 13.784C121.032 13.784 120.384 14.0575 119.932 14.6047C119.479 15.1518 119.253 15.7817 119.253 16.4945V22.2721H117.58V12.2271Z" fill="white"/>
<path d="M124.274 20.2275H126.217V22.2722H124.274V20.2275Z" fill="white"/>
<path d="M133.005 11.9363C134.127 11.9363 135.04 12.2114 135.743 12.7616C136.447 13.3119 136.87 14.2592 137.012 15.6035H135.385C135.286 14.9845 135.06 14.4702 134.707 14.0606C134.353 13.6511 133.786 13.4463 133.005 13.4463C131.939 13.4463 131.176 13.9715 130.718 15.022C130.42 15.7036 130.271 16.5445 130.271 17.545C130.271 18.5517 130.482 19.3989 130.904 20.0867C131.325 20.7745 131.988 21.1184 132.893 21.1184C133.588 21.1184 134.138 20.9043 134.544 20.476C134.95 20.0477 135.23 19.4615 135.385 18.7174H137.012C136.827 20.0492 136.362 21.0231 135.618 21.639C134.874 22.2549 133.922 22.5628 132.763 22.5628C131.462 22.5628 130.423 22.0829 129.648 21.1231C128.874 20.1633 128.486 18.9644 128.486 17.5262C128.486 15.763 128.911 14.3905 129.76 13.4088C130.609 12.4271 131.691 11.9363 133.005 11.9363ZM142.638 21.1841C143.747 21.1841 144.508 20.7605 144.92 19.9132C145.333 19.066 145.539 18.1234 145.539 17.0854C145.539 16.1475 145.39 15.3847 145.092 14.7969C144.621 13.8715 143.809 13.4088 142.656 13.4088C141.634 13.4088 140.89 13.8027 140.425 14.5906C139.96 15.3784 139.728 16.3288 139.728 17.4418C139.728 18.511 139.96 19.4021 140.425 20.1149C140.89 20.8277 141.627 21.1841 142.638 21.1841ZM142.703 11.9363C143.986 11.9363 145.071 12.3677 145.957 13.2306C146.844 14.0935 147.287 15.3628 147.287 17.0385C147.287 18.658 146.896 19.9961 146.115 21.0528C145.334 22.1095 144.122 22.6379 142.48 22.6379C141.11 22.6379 140.022 22.1705 139.216 21.2357C138.41 20.3009 138.007 19.0457 138.007 17.47C138.007 15.7817 138.432 14.4374 139.281 13.4369C140.13 12.4365 141.271 11.9363 142.703 11.9363ZM149.277 12.227H150.932V13.6527C151.328 13.1587 151.688 12.7992 152.01 12.5741C152.562 12.1926 153.188 12.0019 153.888 12.0019C154.682 12.0019 155.32 12.1989 155.804 12.5928C156.077 12.8179 156.325 13.1493 156.548 13.587C156.92 13.0493 157.357 12.6507 157.859 12.3912C158.361 12.1317 158.925 12.0019 159.551 12.0019C160.89 12.0019 161.801 12.4896 162.285 13.4651C162.545 13.9903 162.675 14.6969 162.675 15.5848V22.2721H160.936V15.294C160.936 14.625 160.771 14.1654 160.439 13.9153C160.107 13.6652 159.703 13.5401 159.226 13.5401C158.568 13.5401 158.003 13.7621 157.529 14.206C157.054 14.65 156.817 15.3909 156.817 16.4289V22.2721H155.116V15.7161C155.116 15.0345 155.035 14.5374 154.874 14.2248C154.62 13.7558 154.146 13.5213 153.451 13.5213C152.819 13.5213 152.244 13.7683 151.727 14.2623C151.209 14.7563 150.95 15.6504 150.95 16.9447V22.2721H149.277V12.227Z" fill="white"/>
<path fill-rule="evenodd" clip-rule="evenodd" d="M16.3574 20.8422C13.9801 20.8422 12.0528 18.8987 12.0528 16.5001C12.0528 14.1015 13.9801 12.158 16.3574 12.158C18.7347 12.158 20.662 14.1015 20.662 16.5001C20.662 18.8987 18.7347 20.8422 16.3574 20.8422ZM20.662 0.470215V8.64843C19.3861 7.93516 17.9197 7.52643 16.3574 7.52643C11.4439 7.52643 7.46127 11.5437 7.46127 16.5001C7.46127 21.4565 11.4439 25.4738 16.3574 25.4738C21.1739 25.4738 25.0859 21.6105 25.2392 16.7896H25.2535V2.7229L20.662 0.470215Z" fill="white"/>
<mask id="mask0" mask-type="alpha" maskUnits="userSpaceOnUse" x="0" y="0" width="33" height="33">
<path d="M0 0H32.7148V32.9998H0V0Z" fill="white"/>
</mask>
<g mask="url(#mask0)">
<path fill-rule="evenodd" clip-rule="evenodd" d="M27.2623 4.20465V16.7892C27.2623 16.9039 27.2531 17.0156 27.2348 17.1244C26.9128 22.9643 22.1846 27.4998 16.3574 27.4998C10.3442 27.4998 5.45246 22.5654 5.45246 16.4998C5.45246 10.4347 10.3442 5.49976 16.3574 5.49976C17.1305 5.49976 17.9007 5.5837 18.6532 5.74755C18.6532 5.74755 18.6756 0.304861 18.7025 0.171124C17.9363 0.0605453 17.154 -0.000244141 16.3574 -0.000244141C7.32352 -0.000244141 0 7.38712 0 16.4998C0 25.613 7.32352 32.9998 16.3574 32.9998C25.3913 32.9998 32.7148 25.613 32.7148 16.4998C32.7148 11.614 30.6078 7.22618 27.2623 4.20465Z" fill="white"/>
</g>
</svg>
