<svg width="119" height="28" viewBox="0 0 119 28" fill="none" xmlns="http://www.w3.org/2000/svg">
<path d="M21.4895 5.60521e-05C19.2706 0.00943976 17.0634 1.19526 15.9617 3.55682L15.4528 4.64687V13.6539V22.661L15.9617 23.751C16.7516 25.4442 17.9741 26.513 19.8064 27.1031C21.1196 27.526 23.2129 27.3031 24.5481 26.6016C25.4142 26.1465 26.6398 24.7916 27.1129 23.7664L27.5463 22.8247V13.6539V4.48311L27.0726 3.51076C25.9355 1.15866 23.7083 -0.00932438 21.4895 5.60521e-05ZM21.5902 4.46264C21.6705 4.46313 21.7507 4.4712 21.8271 4.48823C22.0829 4.5453 22.5097 4.84659 22.7794 5.15864L23.2733 5.7267V13.613V21.4993L22.9104 22.0366C22.7109 22.3335 22.3361 22.6514 22.079 22.7429C21.8219 22.8343 21.5317 22.9079 21.434 22.9066C21.0454 22.9013 20.4423 22.4648 20.0937 21.9394L19.7258 21.3867V13.6744C19.7264 6.31273 19.7378 5.93535 20.0382 5.43499C20.3935 4.84321 21.0285 4.4588 21.5902 4.46264Z" fill="white"/>
<path d="M73.9438 27.6929C72.0767 26.9811 70.8501 25.755 70.1433 23.8936C69.8946 23.2385 69.8696 22.1323 69.874 11.9733L69.8788 0.774985L72.0544 0.728923L74.23 0.682861L74.2324 11.4075C74.2342 19.6953 74.2808 22.2263 74.4376 22.5461C74.5491 22.7737 74.8967 23.102 75.21 23.2756C75.9139 23.6656 76.5038 23.5457 77.15 22.8815L77.6126 22.406V11.5444V0.682861L79.7898 0.728923L81.967 0.774985L81.9666 11.9795C81.9661 22.9286 81.9584 23.2051 81.6304 24.1062C81.1565 25.408 79.9476 26.7148 78.604 27.3777C77.2032 28.0688 75.2725 28.1995 73.9438 27.6929H73.9438Z" fill="white"/>
<path d="M0 14.3414V0.682861H5.37489H10.7498V3.02911V5.37536H7.62111H4.49244V8.56821V11.7611L6.45789 11.7325L8.42333 11.704L8.46797 13.9863L8.51261 16.2687H6.50253H4.49244V22.1343V27.9999H2.24622H0V14.3414H0Z" fill="white"/>
<path d="M34.2649 14.3414V0.682861H37.7716C41.5902 0.682861 42.6353 0.839988 43.9644 1.61385C44.967 2.19761 46.0148 3.37128 46.5479 4.50755C46.9792 5.42681 46.9963 5.57993 47.0512 9.01206C47.0969 11.8683 47.0549 12.7712 46.8369 13.6166C46.5221 14.8373 45.9485 15.8776 45.156 16.665L44.5957 17.2217L46.0742 22.2524C46.8874 25.0193 47.6042 27.4444 47.6672 27.6415C47.7805 27.9964 47.7575 27.9999 45.3475 27.9999H42.9134L42.205 25.2766C41.499 22.5627 39.6966 15.7637 39.5437 15.2379C39.4858 15.0387 39.6036 14.9306 39.9648 14.8518C40.634 14.7058 41.8429 13.6576 42.1303 12.9743C42.297 12.5778 42.3613 11.5804 42.3613 9.39V6.35512L41.8683 5.86524C41.4101 5.41 41.2848 5.37536 40.0972 5.37536H38.8191V16.6877V27.9999H36.542H34.2649V14.3414Z" fill="white"/>
<path d="M55.9307 27.8742C55.9297 27.8051 55.9108 22.7334 55.8887 16.6039L55.8484 5.45916L53.7909 5.4121L51.7333 5.36505V3.02395V0.682861H58.116H64.4986V3.02911V5.37536H62.4831H60.4675V16.6877V27.9999H58.1999C56.9528 27.9999 55.9316 27.9434 55.9307 27.8742Z" fill="white"/>
<path d="M88.0138 14.3461V0.692317H90.2469H92.4799L92.6524 1.32056C92.7472 1.66609 93.4845 4.09739 94.2908 6.72345C95.0971 9.3495 95.9873 12.2708 96.269 13.2153C96.5507 14.1597 96.8499 14.9325 96.9339 14.9325C97.0272 14.9325 97.0825 12.1826 97.0761 7.85428L97.0657 0.776083L99.2584 0.729472L101.451 0.682861V14.3414V27.9999H98.9752H96.4995L96.0359 26.4503C95.781 25.598 95.3319 24.1198 95.038 23.1654C94.7441 22.2111 94.0873 20.0436 93.5786 18.3489C93.0698 16.6542 92.5931 15.2675 92.5193 15.2675C92.4454 15.2675 92.3849 18.1323 92.3849 21.6337V27.9999H90.1994H88.0138V14.3461Z" fill="white"/>
<path d="M107.498 14.3414V0.682861H112.873H118.248V3.02911V5.37536H115.035H111.823L111.866 8.51767L111.91 11.66H113.956H116.002L116.001 13.9643L116.001 16.2687H113.916H111.83V19.7881V23.3074H115.039H118.248V25.6537V27.9999H112.873H107.498V14.3414H107.498Z" fill="white"/>
</svg>
