<svg width="90" height="30" viewBox="0 0 90 30" fill="none" xmlns="http://www.w3.org/2000/svg">
<path d="M0.0606277 19.5758H1.34426C2.44392 25.0366 4.33854 27.7985 6.41609 27.7985C7.8215 27.7985 8.86053 26.5714 8.86053 24.6073C8.86053 22.0915 7.33282 20.128 5.01067 17.2438C3.48296 15.2188 2.07755 13.746 1.28311 12.2118C0.42753 10.5553 0 8.77542 0 6.99556C0 3.00702 2.13817 0 4.70492 0C6.17149 0 7.21 1.22716 7.88213 1.22716C8.37133 1.22716 8.79886 0.858699 9.10409 0.122296H10.1431V9.38847H8.86001C7.94328 4.11136 6.47672 1.4728 4.58262 1.4728C3.23836 1.4728 2.3833 2.63856 2.3833 4.23418C2.3833 6.50428 3.97164 8.40695 6.41609 11.3526C7.08822 12.1504 8.31018 13.4389 9.59329 15.6476C10.7198 17.5838 11.3104 19.7872 11.3039 22.0296C11.3039 26.3252 9.16524 29.2713 6.41556 29.2713C4.58262 29.2713 3.42129 27.9214 2.62685 27.9214C2.01587 27.9214 1.71012 28.4116 1.09914 29.3322H0.0606277V19.5758ZM17.1085 25.4051V3.86677C17.1085 2.33255 17.4138 1.77986 18.4528 1.77986C21.2025 1.77986 21.6911 5.82981 21.6911 13.8688C21.6911 22.8285 21.5077 27.3687 18.3305 27.3687C17.2308 27.3692 17.1085 26.8779 17.1085 25.4051ZM11.8538 28.842H17.2308C22.7913 28.842 26.0908 23.7481 26.0908 14.5438C26.0908 9.02106 24.7466 4.78688 22.4244 2.33203C20.8356 0.675517 19.0638 0.368464 16.8028 0.368464H11.8532V1.71845C12.8923 1.84127 13.197 2.39344 13.197 3.68201V25.5274C13.197 26.8774 12.8923 27.3687 11.8532 27.5518V28.842H11.8538ZM42.0391 10.5553H41.0617C40.389 5.15534 39.2282 2.14832 37.7622 1.65756V24.9149C37.7622 26.7551 38.0063 27.4306 39.3511 27.5524V28.842H32.2623V27.5524C33.5454 27.4306 33.8512 26.7546 33.8512 24.9149V1.65756C32.3846 2.14832 31.2238 5.15534 30.4905 10.5553H29.5126L29.6961 0.368989H41.9168L42.0391 10.5553ZM48.5769 27.6757V28.8425H42.7723V27.6757C43.6886 27.4306 43.9943 26.9398 43.9943 25.5893V13.3781C43.9943 12.0281 43.7497 11.4754 42.7723 11.3531V10.0026C44.3001 9.9417 45.8879 9.81835 47.355 9.69605V25.5893C47.3555 26.8779 47.599 27.4306 48.5769 27.6757ZM55.6045 27.6757V28.8425H49.8606V27.6757C50.8384 27.4306 51.0224 26.9398 51.0224 25.5893V13.3781C51.0224 12.0281 50.9001 11.4754 49.8606 11.3531V10.0026C51.3277 9.9417 52.8554 9.81835 54.3214 9.69605L54.3826 12.4574C55.4205 10.5553 56.3373 9.63464 57.6204 9.63464C59.0258 9.63464 59.8814 10.6167 60.2478 12.5803C61.348 10.6167 62.3253 9.63464 63.6696 9.63464C65.8694 9.63464 66.4809 11.6596 66.4809 15.8938V25.5893C66.4809 27.0007 66.6639 27.5524 67.6417 27.6757V28.8425H63.242V15.4644C63.242 13.3781 62.998 12.396 62.0812 12.396C61.1645 12.396 60.4317 13.8074 60.4317 16.3232V25.5893C60.4317 27.0007 60.6147 27.5524 61.5926 27.6757V28.8425H57.1929V15.4644C57.1929 13.3781 56.9488 12.396 56.0932 12.396C55.0542 12.396 54.4437 13.8694 54.4437 16.6916V25.5893C54.4437 26.8779 54.6266 27.4306 55.6045 27.6757ZM71.9191 18.2872V17.9188C71.9191 13.1938 72.4695 10.8004 73.5686 10.8004C74.7305 10.8004 75.0969 12.8248 75.0969 17.0596V18.2867H71.9191V18.2872ZM77.6019 22.4595C77.2356 25.5893 76.1359 27.3073 74.5465 27.3073C72.8359 27.3073 71.9191 25.0366 71.9191 20.6187V19.8823H78.641V19.6981C78.641 13.1324 76.6852 9.51182 73.5686 9.51182C70.5132 9.51182 68.1309 13.3781 68.1309 19.6981C68.1309 25.5274 70.5137 29.3317 73.6915 29.3317C76.5028 29.3317 78.3352 26.816 78.6415 22.459H77.6019V22.4595ZM81.0849 21.2943C81.6964 25.6513 83.2847 27.9822 85.0571 27.9822C86.095 27.9822 86.8905 27.0012 86.8905 25.6513C86.8905 24.6078 86.3402 23.5035 85.3011 22.6442C83.1013 20.8644 81.4518 19.5758 80.6574 17.8579C80.1682 16.9373 79.9858 15.8938 79.9858 14.728C79.9858 11.7824 81.6352 9.51182 83.6516 9.51182C84.8736 9.51182 85.7292 10.4325 86.3407 10.4325C86.6459 10.4325 87.0123 10.1259 87.1963 9.57323H88.1742V16.5688H87.1351C86.2795 12.764 85.0576 10.8618 83.591 10.8618C82.7354 10.8618 82.0027 11.7819 82.0027 12.8868C82.0027 14.4824 83.0417 15.2802 84.6917 16.5688C87.502 18.8394 89.0303 20.6187 89.0303 23.6263C89.0303 26.8165 87.1357 29.3322 84.8747 29.3322C83.4086 29.3322 82.5536 28.2898 81.942 28.2898C81.6368 28.2898 81.3316 28.6578 80.8424 29.3322H79.9868V21.2943H81.0849Z" fill="white"/>
<path d="M47.3555 3.98914C47.3555 5.33913 46.4388 6.38258 45.3391 6.38258C44.2394 6.38258 43.3227 5.33965 43.3227 3.98914C43.3227 2.70057 44.2394 1.5957 45.3391 1.5957C46.4388 1.59623 47.3555 2.70057 47.3555 3.98914ZM50.044 6.01464C49.4937 6.01464 49.2496 5.58529 49.1884 4.97119L49.7989 4.84837C49.7989 5.33965 49.9212 5.46195 50.044 5.46195C50.1653 5.46195 50.2269 5.33965 50.2269 5.09401C50.2269 4.72607 50.1658 4.54184 49.7994 4.17337C49.433 3.80544 49.1889 3.43697 49.1889 3.00762C49.1889 2.45545 49.4942 2.02558 49.9834 2.02558C50.5337 2.02558 50.7161 2.39352 50.839 2.94621L50.2275 3.06903C50.2275 2.70057 50.1663 2.57775 49.9834 2.57775C49.8611 2.57775 49.7994 2.70057 49.7994 2.94621C49.7994 3.19185 49.9217 3.37556 50.1658 3.68261C50.655 4.11196 50.8384 4.54184 50.8384 5.0326C50.8384 5.58477 50.5332 6.01464 50.044 6.01464ZM52.305 4.05108C52.305 5.21683 52.2439 5.46195 51.9987 5.46195C51.8158 5.46195 51.7547 5.15542 51.7547 3.98914C51.7547 2.8848 51.8158 2.63916 51.9987 2.63916C52.1827 2.63968 52.305 2.8848 52.305 4.05108ZM52.9155 3.98914C52.9155 2.70057 52.6714 2.02558 51.9987 2.02558C51.3271 2.02558 51.1431 2.70057 51.1431 4.05055C51.1431 5.33913 51.3271 6.01412 51.9987 6.01412C52.6714 6.01464 52.9155 5.33965 52.9155 3.98914ZM53.8933 2.70057V3.6212H54.565V4.23478H53.8933V5.95323H53.2818V2.08699H54.7489V2.70057H53.8933ZM56.1543 2.70057V5.95323H55.5434V2.70057H55.0542V2.08699H56.7037V2.70057H56.1543ZM58.9646 5.95323H58.4754L58.3542 4.9103C58.293 4.54236 58.2319 4.05108 58.1702 3.68314C58.1702 4.0516 58.1091 4.54236 58.0479 4.9103L57.9267 5.95323H57.3763L56.9488 2.08751H57.4991L57.6204 3.37609C57.6815 3.68261 57.6815 4.11249 57.7427 4.48043C57.7427 4.11196 57.8038 3.68261 57.8038 3.37609L57.9261 2.08751H58.4143L58.5366 3.37609C58.5977 3.68261 58.6589 4.11249 58.6589 4.48043C58.6589 4.11196 58.72 3.68261 58.72 3.37609L58.8413 2.08751H59.4528L58.9646 5.95323ZM60.554 4.54184H60.1877L60.3089 3.86685C60.3089 3.55979 60.3701 3.25326 60.3701 2.94621C60.3701 3.25274 60.4312 3.55979 60.4924 3.86685L60.554 4.54184ZM61.3485 5.95323L60.737 2.08751H60.0654L59.4539 5.95323H60.0654L60.1877 5.09401H60.6141L60.7364 5.95323H61.3485ZM62.6927 3.19185C62.6927 3.6212 62.5704 3.74402 62.3865 3.74402H62.2652V2.63968H62.3865C62.5704 2.63968 62.6927 2.76198 62.6927 3.19185ZM63.3032 5.95323L62.9368 4.11249C63.1809 3.92826 63.3032 3.62173 63.3032 3.19238C63.3032 2.39404 62.8757 2.08804 62.4476 2.08804H61.6532V5.95376H62.2647V4.23583H62.3859L62.6922 5.95376H63.3032V5.95323ZM63.7312 5.95323V2.08699H65.1367V2.70057H64.3422V3.6212H64.9527V4.23478H64.3422V5.40054H65.1978V5.95323H63.7312ZM67.6417 3.98914C67.6417 5.15542 67.5194 5.40054 67.2754 5.40054H67.1531V2.63916H67.2754C67.5194 2.63968 67.6417 2.8848 67.6417 3.98914ZM68.2532 3.98914C68.2532 2.82339 68.0693 2.08699 67.3365 2.08699H66.5421V5.95271H67.2748C67.947 5.95323 68.2532 5.33965 68.2532 3.98914ZM68.6196 5.95323V2.08699H70.0256V2.70057H69.2301V3.6212H69.8416V4.23478H69.2301V5.40054H70.0857V5.95323H68.6196ZM71.4911 5.95323H70.8806L70.2691 2.08751H70.8806L71.1247 3.98967C71.1247 4.29672 71.1858 4.72607 71.1858 4.97171C71.1858 4.72659 71.247 4.29672 71.247 3.98967L71.4911 2.08751H72.1026L71.4911 5.95323ZM72.4078 5.95323V2.08699H73.8137V2.70057H73.0193V3.6212H73.6298V4.23478H73.0193V5.40054H73.8749V5.95323H72.4078ZM74.2413 5.95323V2.08699H74.8528V5.40054H75.5855V5.95323H74.2413ZM76.9915 4.05108C76.9915 5.21683 76.9303 5.46195 76.7463 5.46195C76.5023 5.46195 76.4411 5.15542 76.4411 3.98914C76.4411 2.8848 76.5023 2.63916 76.7463 2.63916C76.9298 2.63968 76.9915 2.8848 76.9915 4.05108ZM77.6019 3.98914C77.6019 2.70057 77.419 2.02558 76.7463 2.02558C76.0747 2.02558 75.8296 2.70057 75.8296 4.05055C75.8296 5.33913 76.0136 6.01412 76.6852 6.01412C77.419 6.01464 77.6019 5.33965 77.6019 3.98914ZM79.0685 3.25326C79.0685 3.62173 78.9462 3.80544 78.7622 3.80544H78.641V2.63968H78.7622C79.0073 2.63968 79.0685 2.76198 79.0685 3.25326ZM79.679 3.19185C79.679 2.39352 79.3126 2.08751 78.8234 2.08751H78.0289V5.95323H78.6404V4.35761H78.7617C79.2514 4.35761 79.679 3.98914 79.679 3.19185ZM81.5736 5.95323V4.9103C81.5736 4.48095 81.5736 4.05108 81.6347 3.62173C81.5478 4.05465 81.446 4.48443 81.3295 4.9103L81.0844 6.07605L80.7791 4.9103C80.718 4.54236 80.5952 3.92826 80.534 3.62173V5.95323H79.9847V2.08751H80.5952L80.8403 3.25326C80.9615 3.62173 81.0232 4.05108 81.0844 4.35761C81.0844 4.05108 81.2067 3.6212 81.2683 3.25326L81.5124 2.08751H82.1239V5.95323H81.5736ZM82.6121 5.95323V2.08699H84.0175V2.70057H83.2231V3.6212H83.8346V4.23478H83.2231V5.40054H84.0786V5.95323H82.6121ZM85.668 5.95323L85.3006 4.78748C85.1848 4.38207 85.083 3.97278 84.9954 3.56032V5.95376H84.445V2.08804H84.9954L85.3006 3.07008C85.3618 3.37661 85.5457 3.8679 85.6069 4.17442V2.08804H86.1562V5.95376H85.668V5.95323ZM87.6228 2.70057V5.95323H87.0118V2.70057H86.4625V2.08699H88.112V2.70057H87.6228Z" fill="white"/>
</svg>
