<svg width="176" height="23" viewBox="0 0 176 23" fill="none" xmlns="http://www.w3.org/2000/svg">
<path fill-rule="evenodd" clip-rule="evenodd" d="M0 0.891357V6.08629H6.02481V22.4091H11.9881V6.08629H18.0129V0.891357H0Z" fill="white"/>
<path fill-rule="evenodd" clip-rule="evenodd" d="M24.6185 10.0208C23.358 10.0208 22.6513 10.8813 22.4667 12.4795H27.078C26.8005 10.8505 26.2466 10.0208 24.6185 10.0208ZM31.9339 15.9234H22.4667C22.6513 17.706 23.6956 18.5043 25.2022 18.5043C26.6159 18.5043 27.7847 18.1967 29.3828 17.367L31.503 20.9021C29.5059 22.0697 27.4457 22.7464 24.9262 22.7464C20.0686 22.7464 17.3947 19.3025 17.3947 14.3538C17.3947 8.79102 20.5295 5.93237 24.7715 5.93237C29.1983 5.93237 31.9652 8.85252 31.9652 14.8458C31.9652 15.308 31.9652 15.6457 31.9339 15.9234Z" fill="white"/>
<mask id="mask0" mask-type="alpha" maskUnits="userSpaceOnUse" x="34" y="5" width="15" height="18">
<path d="M34.6664 5.93262H48.7132V22.7466H34.6664V5.93262Z" fill="white"/>
</mask>
<g mask="url(#mask0)">
<path fill-rule="evenodd" clip-rule="evenodd" d="M42.2278 22.7466C37.495 22.7466 34.6664 19.735 34.6664 14.2939C34.6664 9.34428 37.1874 5.93262 42.3509 5.93262C45.3941 5.93262 47.1467 7.34618 48.5603 9.62097L44.7487 12.5104C43.9804 11.096 43.4568 10.4202 42.2594 10.4202C40.8444 10.4202 40.1375 11.8344 40.1375 14.3854C40.1375 16.9379 40.9059 18.2582 42.4124 18.2582C43.4568 18.2582 44.1952 17.6745 45.2096 16.1681L48.7132 18.9036C46.839 21.6708 45.0864 22.7466 42.2278 22.7466Z" fill="white"/>
</g>
<mask id="mask1" mask-type="alpha" maskUnits="userSpaceOnUse" x="51" y="0" width="16" height="23">
<path d="M51.845 0H66.6617V22.409H51.845V0Z" fill="white"/>
</mask>
<g mask="url(#mask1)">
<path fill-rule="evenodd" clip-rule="evenodd" d="M61.0976 22.409V13.248C61.0976 11.1576 60.3909 10.6047 59.2535 10.6047C58.0844 10.6047 57.3777 11.1576 57.3777 13.1862V22.409H51.845V2.21328L57.3777 0V7.3462C58.3921 6.57783 59.5295 5.93247 61.4351 5.93247C64.9706 5.93247 66.6617 8.29908 66.6617 12.541V22.409H61.0976Z" fill="white"/>
</g>
<mask id="mask2" mask-type="alpha" maskUnits="userSpaceOnUse" x="70" y="0" width="19" height="23">
<path d="M70.0995 0.552979H88.8509V22.7466H70.0995V0.552979Z" fill="white"/>
</mask>
<g mask="url(#mask2)">
<path fill-rule="evenodd" clip-rule="evenodd" d="M79.9059 22.7466C73.5121 22.7466 70.0995 18.0124 70.0995 11.6497C70.0995 4.7337 74.1573 0.552979 79.9361 0.552979C85.2242 0.552979 87.3143 2.82776 88.7895 6.88547L83.3799 9.00659C82.61 7.00848 81.8732 5.74791 79.9059 5.74791C77.4164 5.74791 76.3406 8.23736 76.3406 11.6497C76.3406 14.9392 77.3849 17.5517 79.9674 17.5517C81.8416 17.5517 82.6415 16.5373 83.8089 14.5085L88.8509 17.1825C87.4058 20.011 85.0078 22.7466 79.9059 22.7466Z" fill="white"/>
</g>
<path fill-rule="evenodd" clip-rule="evenodd" d="M102.461 12.3564C101.754 11.588 100.956 11.0043 99.8804 11.0043C98.5266 11.0043 97.6969 11.6497 97.6969 13.6168V22.4089H92.1643V6.27005H97.6969V7.43828C98.6498 6.51606 99.7257 5.93237 101.141 5.93237C102.308 5.93237 103.108 6.20854 103.753 6.6084L102.461 12.3564Z" fill="white"/>
<path fill-rule="evenodd" clip-rule="evenodd" d="M115.615 22.4089V21.3314C114.631 22.0996 113.463 22.7464 111.589 22.7464C108.054 22.7464 106.363 20.3801 106.363 16.1365V6.27002H111.927V15.4312C111.927 17.5201 112.634 18.0736 113.771 18.0736C114.909 18.0736 115.615 17.5201 115.615 15.4911V6.27002H121.179V22.4089H115.615Z" fill="white"/>
<path fill-rule="evenodd" clip-rule="evenodd" d="M134.424 22.4089V13.2479C134.424 11.1575 133.717 10.6046 132.579 10.6046C131.41 10.6046 130.704 11.1575 130.704 13.1861V22.4089H125.171V6.27005H130.704V7.34611C131.718 6.57774 132.855 5.93237 134.761 5.93237C138.296 5.93237 139.988 8.29899 139.988 12.5409V22.4089H134.424Z" fill="white"/>
<mask id="mask3" mask-type="alpha" maskUnits="userSpaceOnUse" x="143" y="5" width="15" height="18">
<path d="M143.209 5.93262H157.256V22.7466H143.209V5.93262Z" fill="white"/>
</mask>
<g mask="url(#mask3)">
<path fill-rule="evenodd" clip-rule="evenodd" d="M150.771 22.7466C146.038 22.7466 143.209 19.735 143.209 14.2939C143.209 9.34428 145.73 5.93262 150.894 5.93262C153.937 5.93262 155.69 7.34618 157.103 9.62097L153.292 12.5104C152.524 11.096 152 10.4202 150.802 10.4202C149.387 10.4202 148.681 11.8344 148.681 14.3854C148.681 16.9379 149.449 18.2582 150.955 18.2582C152 18.2582 152.738 17.6745 153.753 16.1681L157.256 18.9036C155.382 21.6708 153.629 22.7466 150.771 22.7466Z" fill="white"/>
</g>
<mask id="mask4" mask-type="alpha" maskUnits="userSpaceOnUse" x="160" y="0" width="16" height="23">
<path d="M160.388 0H175.205V22.409H160.388V0Z" fill="white"/>
</mask>
<g mask="url(#mask4)">
<path fill-rule="evenodd" clip-rule="evenodd" d="M169.641 22.409V13.248C169.641 11.1576 168.934 10.6047 167.797 10.6047C166.627 10.6047 165.921 11.1576 165.921 13.1862V22.409H160.388V2.21328L165.921 0V7.3462C166.935 6.57783 168.073 5.93247 169.978 5.93247C173.514 5.93247 175.205 8.29908 175.205 12.541V22.409H169.641Z" fill="white"/>
</g>
</svg>
