<svg width="103" height="35" viewBox="0 0 103 35" fill="none" xmlns="http://www.w3.org/2000/svg">
<path fill-rule="evenodd" clip-rule="evenodd" d="M0 0.304688V3.20883H2.27317V14.8163H6.11661V3.20883H8.39892V0.304688H0Z" fill="white"/>
<path fill-rule="evenodd" clip-rule="evenodd" d="M18.1126 14.8163V0.304688H14.2692V5.49439H13.1188V0.304688H9.27539V14.8163H13.1188V8.72129H14.2692V14.8163H18.1126Z" fill="white"/>
<path fill-rule="evenodd" clip-rule="evenodd" d="M26.3199 11.9122H23.499V8.72129H25.9V5.96051H23.499V3.20883H26.0643V0.304688H19.6555V14.8163H26.3199V11.9122Z" fill="white"/>
<path fill-rule="evenodd" clip-rule="evenodd" d="M34.5638 8.27313C35.1357 8.29108 35.4888 8.3658 35.6227 8.49714C35.7566 8.62875 35.8236 9.0051 35.8236 9.62659V10.9801C35.8236 11.5658 35.749 11.9333 35.6 12.0826C35.4507 12.232 35.1053 12.3156 34.5638 12.3335V8.27313ZM34.5638 2.7876C34.9593 2.79354 35.2255 2.82047 35.3625 2.86825C35.4994 2.91604 35.6105 3.03115 35.6957 3.21332C35.781 3.39562 35.8236 3.71389 35.8236 4.16786C35.8236 5.02841 35.7718 5.54983 35.6684 5.732C35.5648 5.9143 35.3245 6.00539 34.9472 6.00539C34.8559 6.00539 34.7281 6.00842 34.5638 6.01436V2.7876ZM38.2338 14.5562C38.7327 14.3829 39.0965 14.06 39.3247 13.5877C39.5529 13.1154 39.667 12.389 39.667 11.4083V10.0631C39.667 9.1185 39.5088 8.41741 39.1924 7.95988C38.8758 7.50261 38.2733 7.17523 37.3846 6.97788C38.1819 6.79875 38.716 6.54213 38.9868 6.20762C39.2576 5.87312 39.3933 5.28199 39.3933 4.43398C39.3933 3.17992 39.2014 2.27092 38.8181 1.70646C38.4345 1.14214 37.9308 0.767634 37.3071 0.582429C36.6831 0.397224 35.7656 0.304688 34.5546 0.304688H30.7203V14.8163H35.1663C36.7122 14.8163 37.7347 14.7297 38.2338 14.5562Z" fill="white"/>
<path fill-rule="evenodd" clip-rule="evenodd" d="M45.5282 15.1211C46.3255 15.1211 47.0176 15 47.605 14.7581C48.1922 14.5161 48.6654 14.1606 49.0247 13.6915C49.3837 13.2224 49.5997 12.7653 49.6728 12.3201C49.7458 11.8749 49.7823 11.1026 49.7823 10.0031V0.304688H45.9389V10.998C45.9389 11.721 45.9038 12.1797 45.8338 12.3738C45.764 12.5681 45.6072 12.6651 45.3637 12.6651C45.1506 12.6651 45.0092 12.5771 44.9391 12.4007C44.8693 12.2246 44.8342 11.8196 44.8342 11.1861V0.304688H40.9908V8.89158C40.9908 10.5289 41.0212 11.603 41.0821 12.1139C41.1429 12.6249 41.3407 13.1104 41.6756 13.5704C42.0101 14.0306 42.5154 14.404 43.191 14.6909C43.8666 14.9777 44.6456 15.1211 45.5282 15.1211Z" fill="white"/>
<path fill-rule="evenodd" clip-rule="evenodd" d="M55.47 15.1211C56.4072 15.1211 57.2288 14.9553 57.9349 14.6235C58.6409 14.2919 59.1172 13.8811 59.3635 13.3911C59.6101 12.9013 59.7333 12.1394 59.7333 11.1056C59.7333 9.68347 59.5112 8.65263 59.0669 8.01319C58.6224 7.37388 57.5451 6.55557 55.8342 5.55866C55.2375 5.21241 54.8754 4.91658 54.7481 4.67131C54.6146 4.42631 54.548 4.06144 54.548 3.57711C54.548 3.20037 54.6073 2.91946 54.726 2.73412C54.8446 2.54865 55.0194 2.45585 55.2509 2.45585C55.4639 2.45585 55.616 2.52462 55.7074 2.66204C55.7986 2.79959 55.8441 3.11918 55.8441 3.62107V4.69679H59.4138V4.12309C59.4138 2.96988 59.2997 2.15263 59.0715 1.6716C58.8433 1.1907 58.3777 0.791775 57.6747 0.474959C56.9718 0.158276 56.1212 0 55.1231 0C54.2101 0 53.431 0.144943 52.7859 0.434697C52.1407 0.724584 51.6736 1.12641 51.3845 1.64018C51.0954 2.15421 50.9509 2.96685 50.9509 4.07821C50.9509 4.84913 51.0527 5.48249 51.2568 5.97844C51.4606 6.47452 51.7178 6.86288 52.0281 7.14366C52.3386 7.4247 52.9716 7.87577 53.9271 8.49712C54.8825 9.11267 55.4821 9.55199 55.7255 9.81481C55.9629 10.0778 56.0816 10.6364 56.0816 11.4909C56.0816 11.8794 56.019 12.1722 55.8944 12.3693C55.7696 12.5665 55.5794 12.6651 55.3239 12.6651C55.0682 12.6651 54.8902 12.5876 54.7898 12.4321C54.6893 12.2767 54.639 11.9272 54.639 11.3834V9.6176H51.0695V10.5676C51.0695 11.6554 51.1822 12.4948 51.4074 13.0863C51.6326 13.678 52.1088 14.1651 52.836 14.5474C53.5633 14.9298 54.4414 15.1211 55.47 15.1211Z" fill="white"/>
<mask id="mask0" mask-type="alpha" maskUnits="userSpaceOnUse" x="0" y="0" width="103" height="35">
<path d="M0 34.9221H102.349V0H0V34.9221Z" fill="white"/>
</mask>
<g mask="url(#mask0)">
<path fill-rule="evenodd" clip-rule="evenodd" d="M60.9383 14.8163H64.7819V0.304688H60.9383V14.8163Z" fill="white"/>
<path fill-rule="evenodd" clip-rule="evenodd" d="M74.9063 0.304688H71.6929V6.83901L69.5382 0.304688H66.3248V14.8163H69.5382V8.21927L71.5377 14.8163H74.9063V0.304688Z" fill="white"/>
<path fill-rule="evenodd" clip-rule="evenodd" d="M83.1137 11.9121H80.2928V8.72129H82.6938V5.96051H80.2928V3.20883H82.8581V0.304688H76.4492V14.8163H83.1137V11.9121Z" fill="white"/>
<path fill-rule="evenodd" clip-rule="evenodd" d="M88.7819 5.55866C88.1854 5.21241 87.8231 4.91671 87.6958 4.67145C87.5624 4.42631 87.4958 4.06158 87.4958 3.57724C87.4958 3.2005 87.5551 2.91946 87.6738 2.73412C87.7925 2.54865 87.9673 2.45598 88.1987 2.45598C88.4116 2.45598 88.5638 2.52476 88.6551 2.66217C88.7464 2.79973 88.792 3.11931 88.792 3.6212V4.69679H92.3617V4.12309C92.3617 2.97001 92.2474 2.15276 92.0192 1.67173C91.7911 1.1907 91.3255 0.791907 90.6224 0.475091C89.9195 0.158408 89.069 0 88.0708 0C87.158 0 86.3789 0.144943 85.7336 0.434697C85.0884 0.724584 84.6213 1.12641 84.3324 1.64031C84.0433 2.15421 83.8988 2.96685 83.8988 4.07834C83.8988 4.84913 84.0004 5.48263 84.2045 5.97857C84.4083 6.47452 84.6657 6.86302 84.976 7.1438C85.2864 7.42471 85.9193 7.87577 86.8749 8.49726C87.8303 9.1128 88.4299 9.55199 88.6734 9.81481C88.9107 10.0779 89.0294 10.6366 89.0294 11.491C89.0294 11.8795 88.9669 12.1722 88.8423 12.3694C88.7175 12.5666 88.5273 12.6651 88.2717 12.6651C88.0161 12.6651 87.8381 12.5876 87.7375 12.4321C87.6372 12.2769 87.5869 11.9273 87.5869 11.3834V9.61773H84.0174V10.5678C84.0174 11.6554 84.1299 12.4948 84.3552 13.0865C84.5803 13.678 85.0567 14.1651 85.7839 14.5475C86.5112 14.9298 87.3891 15.1211 88.4177 15.1211C89.355 15.1211 90.1766 14.9553 90.8827 14.6237C91.5886 14.2921 92.065 13.8813 92.3114 13.3911C92.5579 12.9014 92.6812 12.1394 92.6812 11.1056C92.6812 9.68347 92.4589 8.65263 92.0148 8.01319C91.5703 7.37388 90.4928 6.55571 88.7819 5.55866Z" fill="white"/>
<path fill-rule="evenodd" clip-rule="evenodd" d="M101.683 8.01319C101.238 7.37388 100.161 6.55557 98.45 5.55866C97.8533 5.21241 97.4913 4.91658 97.3639 4.67145C97.2303 4.42631 97.1638 4.06144 97.1638 3.57724C97.1638 3.2005 97.2231 2.91946 97.3418 2.73412C97.4604 2.54865 97.6352 2.45585 97.8667 2.45585C98.0797 2.45585 98.2319 2.52462 98.3233 2.66204C98.4143 2.79959 98.46 3.11918 98.46 3.6212V4.69679H102.03V4.12309C102.03 2.96988 101.916 2.15263 101.687 1.6716C101.459 1.1907 100.994 0.791775 100.291 0.475091C99.5875 0.158408 98.737 0 97.739 0C96.8259 0 96.0468 0.144943 95.4018 0.434697C94.7566 0.724584 94.2895 1.12641 94.0003 1.64031C93.7112 2.15421 93.5668 2.96685 93.5668 4.07821C93.5668 4.84913 93.6687 5.48263 93.8726 5.97844C94.0765 6.47452 94.3336 6.86302 94.6439 7.1438C94.9543 7.42471 95.5873 7.87577 96.5429 8.49726C97.4984 9.1128 98.098 9.55199 98.3413 9.81481C98.5788 10.0779 98.6975 10.6366 98.6975 11.491C98.6975 11.8795 98.635 12.1722 98.5102 12.3694C98.3855 12.5666 98.1954 12.6651 97.9397 12.6651C97.6841 12.6651 97.5061 12.5876 97.4057 12.4321C97.3051 12.2767 97.255 11.9272 97.255 11.3834V9.6176H93.6855V10.5678C93.6855 11.6554 93.7979 12.4948 94.0231 13.0865C94.2483 13.678 94.7246 14.1651 95.452 14.5475C96.1791 14.9298 97.0573 15.1211 98.0859 15.1211C99.023 15.1211 99.8446 14.9553 100.551 14.6237C101.257 14.2919 101.733 13.8813 101.979 13.3911C102.226 12.9013 102.349 12.1394 102.349 11.1056C102.349 9.68347 102.127 8.65263 101.683 8.01319Z" fill="white"/>
<path fill-rule="evenodd" clip-rule="evenodd" d="M16.4512 30.315C16.4512 30.8648 16.4388 31.2353 16.4147 31.4265C16.3903 31.6177 16.2988 31.7792 16.1407 31.9104C15.9825 32.0419 15.7664 32.1076 15.4925 32.1076C15.389 32.1076 15.2216 32.0986 14.9905 32.0808V34.6173H16.9154C17.7668 34.6173 18.4038 34.5532 18.8267 34.4247C19.2494 34.2963 19.5844 34.0647 19.8319 33.73C20.0791 33.3955 20.2184 33.0204 20.2487 32.6051C20.2794 32.1899 20.2946 31.256 20.2946 29.804V20.1057H16.4512V30.315Z" fill="white"/>
<path fill-rule="evenodd" clip-rule="evenodd" d="M26.7216 30.5032C26.7216 31.3579 26.6852 31.8985 26.6121 32.1255C26.5391 32.3527 26.3715 32.4661 26.11 32.4661C25.8544 32.4661 25.6914 32.3675 25.6215 32.1703C25.5515 31.9732 25.5165 31.4532 25.5165 30.6106V23.8345C25.5165 23.0876 25.5697 22.6378 25.6764 22.4855C25.7827 22.333 25.9365 22.2569 26.1373 22.2569C26.3747 22.2569 26.5313 22.3511 26.6074 22.5392C26.6835 22.7275 26.7216 23.1593 26.7216 23.8345V30.5032ZM29.7708 21.3248C29.3874 20.8169 28.8807 20.436 28.2508 20.1819C27.6208 19.928 26.9101 19.801 26.1191 19.801C25.2851 19.801 24.5549 19.9354 23.9281 20.2043C23.3011 20.4732 22.8035 20.8587 22.4354 21.3605C22.0671 21.8626 21.848 22.4169 21.7781 23.0233C21.708 23.6299 21.6731 24.6622 21.6731 26.1202V28.603C21.6731 30.0969 21.7096 31.1426 21.7826 31.7402C21.8558 32.3377 22.084 32.8905 22.4673 33.3984C22.8507 33.9063 23.3575 34.2873 23.9874 34.5413C24.6173 34.7951 25.3279 34.9221 26.1191 34.9221C26.9528 34.9221 27.6832 34.7877 28.31 34.5188C28.9369 34.2499 29.4346 33.8645 29.8028 33.3624C30.1709 32.8604 30.39 32.3064 30.4602 31.6997C30.5299 31.0934 30.565 30.061 30.565 28.603V26.1202C30.565 24.6263 30.5285 23.5806 30.4554 22.9829C30.3826 22.3854 30.1543 21.8327 29.7708 21.3248Z" fill="white"/>
<path fill-rule="evenodd" clip-rule="evenodd" d="M36.8917 30.7989C36.8917 31.5222 36.8566 31.9808 36.7867 32.1749C36.7167 32.3691 36.5599 32.4661 36.3167 32.4661C36.1036 32.4661 35.962 32.3781 35.8919 32.2017C35.822 32.0256 35.7871 31.6206 35.7871 30.9871V20.1057H31.9436V28.6926C31.9436 30.3299 31.974 31.404 32.0349 31.9149C32.0957 32.4257 32.2936 32.9114 32.6283 33.3714C32.9629 33.8317 33.4682 34.2051 34.1438 34.4919C34.8194 34.7786 35.5984 34.922 36.4808 34.922C37.2781 34.922 37.9703 34.8011 38.5578 34.559C39.1451 34.317 39.6183 33.9616 39.9774 33.4924C40.3365 33.0235 40.5527 32.5663 40.6256 32.1211C40.6986 31.6761 40.7352 30.9036 40.7352 29.804V20.1057H36.8917V30.7989Z" fill="white"/>
<path fill-rule="evenodd" clip-rule="evenodd" d="M47.2353 24.5067C47.2353 25.1461 47.1485 25.5241 46.975 25.6405C46.8016 25.757 46.4988 25.8153 46.0668 25.8153V22.5885C46.5109 22.5885 46.8168 22.6602 46.9843 22.8037C47.1516 22.947 47.2353 23.2489 47.2353 23.709V24.5067ZM50.3757 26.3441C50.6618 25.9558 50.8049 25.1968 50.8049 24.0675C50.8049 22.8305 50.6025 21.9298 50.1978 21.3651C49.7929 20.8003 49.2696 20.4493 48.6275 20.3118C47.9853 20.1745 46.7574 20.1057 44.9439 20.1057H42.2234V34.6172H46.0668V28.074C46.5963 28.074 46.9234 28.1668 47.0482 28.3519C47.1728 28.5372 47.2353 29.0183 47.2353 29.795V34.6172H50.8049V30.7899C50.8049 29.6188 50.773 28.9032 50.709 28.6431C50.645 28.3833 50.4822 28.098 50.2206 27.7873C49.9589 27.4767 49.4476 27.2285 48.6869 27.0433C49.5268 26.9657 50.0896 26.7326 50.3757 26.3441Z" fill="white"/>
<path fill-rule="evenodd" clip-rule="evenodd" d="M57.661 26.64L55.5065 20.1057H52.2928V34.6173H55.5065V28.0204L57.5058 34.6173H60.8745V20.1057H57.661V26.64Z" fill="white"/>
<path fill-rule="evenodd" clip-rule="evenodd" d="M65.7013 29.4366C65.8014 28.152 66.0474 26.1203 66.4389 23.3416C66.6345 25.7614 66.8299 27.793 67.0244 29.4366H65.7013ZM63.5061 20.1057L61.5457 34.6173H65.5192L65.7502 32.009H67.1251L67.3312 34.6173H71.2592L69.0612 20.1057H63.5061Z" fill="white"/>
<path fill-rule="evenodd" clip-rule="evenodd" d="M75.7555 20.1057H71.9119V34.6173H78.0925V31.7132H75.7555V20.1057Z" fill="white"/>
<path fill-rule="evenodd" clip-rule="evenodd" d="M83.4595 25.3597C82.8629 25.0134 82.5009 24.7177 82.3734 24.4725C82.24 24.2273 82.1733 23.8626 82.1733 23.3783C82.1733 23.0015 82.2326 22.7205 82.3514 22.5351C82.4701 22.3497 82.6449 22.257 82.8763 22.257C83.0892 22.257 83.2414 22.3258 83.3328 22.4632C83.424 22.6008 83.4696 22.9203 83.4696 23.4222V24.4978H87.0393V23.9241C87.0393 22.771 86.9251 21.9538 86.6968 21.4728C86.4687 20.9917 86.0031 20.5929 85.3 20.2761C84.5971 19.9594 83.7466 19.801 82.7485 19.801C81.8356 19.801 81.0565 19.946 80.4114 20.2357C79.7661 20.5256 79.299 20.9274 79.01 21.4413C78.7209 21.9552 78.5764 22.7679 78.5764 23.8794C78.5764 24.6502 78.6781 25.2837 78.8821 25.7796C79.0861 26.2755 79.3433 26.664 79.6536 26.9448C79.964 27.2257 80.5969 27.6768 81.5524 28.2983C82.508 28.9137 83.1075 29.353 83.351 29.6158C83.5883 29.8789 83.707 30.4374 83.707 31.2921C83.707 31.6804 83.6445 31.9732 83.5199 32.1703C83.3951 32.3675 83.2049 32.4661 82.9493 32.4661C82.6937 32.4661 82.5157 32.3888 82.4152 32.2333C82.3148 32.0778 82.2645 31.7283 82.2645 31.1845V29.4188H78.6949V30.3688C78.6949 31.4564 78.8075 32.2958 79.0328 32.8875C79.2579 33.479 79.7343 33.9661 80.4615 34.3484C81.1888 34.7308 82.0669 34.9221 83.0954 34.9221C84.0325 34.9221 84.8542 34.7563 85.5603 34.4247C86.2663 34.0931 86.7425 33.6822 86.989 33.1922C87.2356 32.7024 87.3587 31.9405 87.3587 30.9066C87.3587 29.4846 87.1366 28.4538 86.6924 27.8142C86.2479 27.1749 85.1705 26.3567 83.4595 25.3597Z" fill="white"/>
</g>
</svg>
