<?xml version="1.0" encoding="UTF-8"?>
<svg width="146px" height="24px" viewBox="0 0 146 24" version="1.1" xmlns="http://www.w3.org/2000/svg" xmlns:xlink="http://www.w3.org/1999/xlink">
    <!-- Generator: Sketch 52.3 (67297) - http://www.bohemiancoding.com/sketch -->
    <title>codefresh-logo</title>
    <desc>Created with Sketch.</desc>
    <g id="Main-Pages" stroke="none" stroke-width="1" fill="none" fill-rule="evenodd">
        <g id="codefresh-logo" fill="#53585F" fill-rule="nonzero">
            <path d="M19.2236622,7.018 C21.6406797,9.87870122 22.6273958,13.706352 21.9,17.4 C25.694027,15.866 27.1658649,13.294 27.6137297,10.722 C27.6137297,10.722 28.9070135,5.848 30.917473,3.822 C26.9448919,4.454 26.5433919,2.874 19.2236622,7.022" id="Shape"></path>
            <path d="M13.1459189,12 C12.3517195,9.5131558 10.9821803,7.25498239 9.15163514,5.414 C9.15163514,5.414 14.6759595,6.886 17.8563919,17.338 C14.8555,16.42 13.5750405,13.418 13.14,12 M19.9812838,18.84 C20.0700676,18.34 21.5340135,13.284 18.6337432,9.178 C13.7772703,3.722 6.45754054,2.956 6.45754054,2.956 C7.88597297,5.756 7.93135135,8.37 9.49197297,13.7 C11.3830676,19.218 18.3604865,19.59 18.8774054,19.6 C19.3459865,20.35 20.4202703,21.36 22.8795811,21.882 L23.1518514,20.568 C21.0299189,20.118 20.2535541,19.29 19.9872027,18.834" id="Shape"></path>
            <path d="M7.24081081,1.35 C4.15409459,2.824 2.91605405,6.422 2.91605405,11.922 C2.91605405,17.322 4.15212162,20.942 7.24081081,22.522 L6.89455405,23.872 C2.15054054,22.186 0,18.438 0,11.944 C0,5.4 2.15054054,1.65 6.89455405,0 L7.24081081,1.35 Z" id="Shape"></path>
            <path d="M30.0996757,0 C34.8476351,1.648 36.9932432,5.4 36.9932432,11.942 C36.9932432,18.442 34.8427027,22.186 30.0986892,23.858 L29.7287568,22.51 C32.8194189,20.936 34.0535135,17.31 34.0535135,11.91 C34.0535135,6.41 32.8174459,2.816 29.7287568,1.342 L30.0996757,0 Z" id="Shape"></path>
            <path d="M51.1355135,17.708 C49.704439,18.2650057 48.1794791,18.532047 46.647,18.494 C42.8717162,18.494 41.0575676,16.836 41.6415676,12.648 C42.1801892,8.698 43.6697838,7.084 47.6196757,7.084 C49.1714961,7.058006 50.7145724,7.32452941 52.1703378,7.87 L51.6336892,10.29 L48.1168649,10.268 C46.5197432,10.268 45.9801351,10.814 45.7206892,12.776 C45.4395405,14.936 45.8084865,15.328 47.3612162,15.328 C48.5285233,15.3350338 49.6953279,15.276946 50.8563378,15.154 L51.1355135,17.708 Z" id="Shape"></path>
            <path d="M57.4381757,12.974 C57.1363108,15.2 57.3296622,15.722 58.7344189,15.722 C60.0937973,15.722 60.5268649,15.134 60.8711486,12.668 C61.2154324,10.4 60.9796622,9.868 59.6617162,9.868 C58.2382162,9.868 57.8061351,10.412 57.4381757,12.968 M64.9246216,12.976 C64.3327297,17.056 62.7030541,18.494 58.5943378,18.494 C54.4856216,18.494 52.7543378,16.924 53.3570811,12.67 C53.9213514,8.548 55.5589189,7.084 59.7258378,7.084 C63.8463919,7.084 65.5303243,8.7 64.9265946,12.976" id="Shape"></path>
            <path d="M73.3186351,9.632 C71.6781081,9.632 71.2904189,9.98 70.9658649,12.49 C70.7074054,14.454 70.664,15.238 71.6347027,15.174 C72.5440966,15.0844929 73.3965749,14.6846753 74.0525811,14.04 L74.6336216,9.64 L73.3186351,9.632 Z M77.3957838,18.232 L74.3100541,18.232 L74.2676351,16.4 C73.1738004,17.6080804 71.6721254,18.3554621 70.0602703,18.494 C67.5575541,18.494 66.4359189,16.704 66.9735541,12.56 C67.5654459,8.022 69.3263243,7.084 71.6347027,7.084 C72.7926471,7.08361948 73.9482536,7.18938347 75.0874054,7.4 C75.0762876,6.65499189 75.1271069,5.9103586 75.2393243,5.174 L75.6053108,2.974 L79.5285676,2.974 L77.3957838,18.232 Z" id="Shape"></path>
            <path d="M86.5888514,11.774 C87.5605405,11.686 88.076473,11.534 88.1672297,10.596 C88.2323378,9.876 87.9511892,9.744 86.8709865,9.766 C85.5530405,9.788 85.1219459,10.18 84.7776622,11.948 L86.5888514,11.774 Z M90.8840135,17.622 C89.3168545,18.2409634 87.6437968,18.5373938 85.9624324,18.494 C81.3880946,18.494 80.1421622,16.466 80.5456351,12.67 C81.0388784,8.156 83.072027,7.086 86.9331351,7.086 C91.1631892,7.086 92.2749595,8.504 91.9385676,10.986 C91.6357162,13.016 90.2763378,13.596 87.4421622,13.822 L84.5280811,14.04 C84.5734595,15.198 85.1327973,15.416 86.3422297,15.416 C87.2892568,15.416 89.3095811,15.306 90.6127297,15.154 L90.8840135,17.622 Z" id="Shape"></path>
            <path d="M100.377959,4.322 C99.0600135,4.322 98.5223784,4.628 98.3280405,6.022 L98.0912838,7.6 L101.346689,7.6 L101.128676,9.226 L97.8732703,9.226 L96.4487838,19.458 C96.4209149,20.339507 96.0387761,21.1711523 95.3910339,21.7599722 C94.7432917,22.3487921 93.8862518,22.6436027 93.0187703,22.576 C92.1463416,22.5699195 91.2750454,22.5111487 90.4095135,22.4 L90.7340676,20.828 L92.3519054,20.828 C93.6481486,20.828 94.1857838,20.522 94.3820946,19.128 L95.7631757,9.228 L93.8888514,9.228 L94.0861486,7.7 L96.0068378,7.592 L96.2662838,5.692 C96.2920984,4.80987433 96.676146,3.97771644 97.3276141,3.3922999 C97.9790821,2.80688336 98.8401285,2.52018571 99.7071486,2.6 C100.737487,2.58712331 101.767643,2.63788399 102.791892,2.752 L102.447608,4.332 L100.377959,4.322 Z" id="Shape"></path>
            <path d="M110.218162,9.288 L109.62627,9.288 C108.442486,9.288 107.296189,10.088 105.472176,11.448 L104.543892,18.232 L102.449581,18.232 L103.937203,7.586 L105.535311,7.586 L105.426797,10.03 C107.103824,8.286 108.748297,7.302 110.174757,7.302 L110.736068,7.302 L110.218162,9.288 Z" id="Shape"></path>
            <path d="M117.490541,12.254 C118.785797,12.168 119.346122,11.798 119.51777,10.574 C119.715068,9.112 118.980135,9.074 117.296203,9.074 C115.162432,9.074 114.4275,9.662 113.974703,12.586 L117.490541,12.254 Z M120.511162,17.884 C119.105306,18.3192145 117.64028,18.5257776 116.170622,18.496 C112.520622,18.496 111.272716,16.596 111.788649,12.628 C112.350946,8.482 113.795162,7.304 117.608919,7.304 C121.061622,7.304 121.904081,8.614 121.60123,10.752 C121.256946,12.868 120.0485,13.632 117.480676,13.828 L113.830676,14.156 C113.808973,16.294 114.801378,16.728 116.483338,16.728 C117.650351,16.728 119.159676,16.598 120.369108,16.466 L120.511162,17.884 Z" id="Shape"></path>
            <path d="M126.291973,12.952 C124.782649,12.232 124.070405,11.404 124.263757,9.852 C124.5015,7.824 125.947689,7.252 128.709851,7.3 C130.218914,7.32586925 131.724771,7.45012586 133.218095,7.672 L132.958649,9.172 C131.621959,9.13 130.369122,9.084 128.772986,9.062 C127.045649,9.062 126.398514,9.106 126.29,10 C126.183459,10.8 126.684595,11.026 127.543824,11.418 L130.392797,12.728 C132.031351,13.492 132.702162,14.168 132.484149,15.804 C132.161568,18.226 130.455932,18.466 127.498446,18.466 C126.133708,18.4689564 124.770725,18.3666613 123.421297,18.16 L123.659041,16.59 C124.63073,16.676 125.989122,16.7 126.960811,16.7 C129.615446,16.7 130.305986,16.482 130.43423,15.608 C130.563459,14.824 130.039635,14.692 129.11727,14.256 L126.291973,12.952 Z" id="Shape"></path>
            <path d="M138.897297,7.15 C138.775076,8.03214111 138.602146,8.90629542 138.379392,9.768 C140.209324,8.132 141.738378,7.3 143.251649,7.3 C144.026203,7.19829563 144.798885,7.50103441 145.304623,8.10435991 C145.81036,8.7076854 145.980373,9.52954701 145.756338,10.288 L144.634703,18.228 L142.563081,18.228 L143.577189,10.812 C143.749824,9.48 143.512081,9.088 142.606486,9.088 C141.310243,9.088 140.060365,9.982 138.254108,11.422 L137.325824,18.222 L135.227568,18.222 L137.363311,2.952 L139.434932,2.952 L138.897297,7.15 Z" id="Shape"></path>
        </g>
    </g>
</svg>