<?xml version="1.0" encoding="UTF-8"?>
<svg width="69px" height="60px" viewBox="0 0 69 60" version="1.1" xmlns="http://www.w3.org/2000/svg" xmlns:xlink="http://www.w3.org/1999/xlink">
    <!-- Generator: Sketch 60 (88103) - https://sketch.com -->
    <title>Asset 6 Copy 2</title>
    <desc>Created with Sketch.</desc>
    <defs>
        <linearGradient x1="32.0231959%" y1="81.7880072%" x2="56.4755155%" y2="24.3271901%" id="linearGradient-1">
            <stop stop-color="#8F1DFF" offset="0%"></stop>
            <stop stop-color="#7B34FF" offset="3%"></stop>
            <stop stop-color="#2399FF" offset="17%"></stop>
            <stop stop-color="#00C1FF" offset="23%"></stop>
            <stop stop-color="#723EFF" offset="74%"></stop>
            <stop stop-color="#A900FF" offset="100%"></stop>
        </linearGradient>
    </defs>
    <g id="Fixvember" stroke="none" stroke-width="1" fill="none" fill-rule="evenodd">
        <g id="CF---Steps-LP-Copy-21" transform="translate(-70.000000, -165.000000)" fill="#0B1624" fill-rule="nonzero" stroke="url(#linearGradient-1)" stroke-width="0.549999952">
            <g id="Asset-6-Copy-2" transform="translate(70.000000, 166.000000)">
                <path d="M57.199995,27.7819951 L52.5799954,29.7399949 L61.5999947,34.7999945 L60.4999948,36.6919943 L46.9919959,28.881995 L47.5859959,33.8319946 L52.4039955,36.6039943 L51.3039956,38.4959941 L45.4299961,35.2399944 L44.5059961,27.5839951 L39.4239966,24.6579953 C38.6215205,25.5949808 37.5561937,26.2694323 36.3659968,26.5939952 C36.204841,26.6046977 36.0431527,26.6046977 35.8819969,26.5939952 L35.8819969,38.4299942 L42.4819963,43.0939937 L42.4819963,49.6939932 L40.2819965,49.6939932 L40.2819965,43.7759937 L35.8819969,40.7839939 L35.8819969,49.8699932 L33.6819971,49.8699932 L33.6819971,35.2399944 L29.2819975,38.0339942 L29.2819975,43.2699937 L27.0819977,43.2699937 L27.0819977,36.5599943 L33.6819971,31.8739947 L33.6819971,26.6599952 C32.9840206,26.5631911 32.3115349,26.3315571 31.7019973,25.9779952 C31.0659603,25.6200088 30.5055691,25.1418083 30.0519974,24.5699954 L20.2399982,30.0479949 L19.1839983,37.6819942 L13.3759988,40.9159939 L12.2979989,39.0019941 L17.1819985,36.2959943 L17.8419985,31.3679948 L8.90999923,36.3399943 L7.83199932,34.4259945 L21.4939981,26.8359952 L16.9399985,24.8119953 L12.055999,27.5179951 L10.999999,25.6039953 L16.8299985,22.3479955 L23.8919979,25.5159953 L29.0179975,22.6559955 C29.0179975,22.5239955 29.0179975,22.4139955 28.8639975,22.2819956 C28.5357229,21.0766004 28.5973308,19.7982372 29.0399975,18.6299959 L19.3159983,12.9759964 L12.2099989,15.9899961 L6.44599944,12.6459964 L7.54599935,10.7539966 L12.3639989,13.5479963 L16.9399985,11.6119965 L8.13999929,6.46399693 L9.2399992,4.57199709 L22.747998,12.4259964 L22.1539981,7.45399684 L17.2919985,4.65999708 L18.3919984,2.76799725 L24.1999979,6.19999695 L25.1019978,13.8779963 L30.1839974,16.825996 C32.088828,14.5580409 35.3484862,13.9880273 37.9099323,15.4749684 C40.4713784,16.9619096 41.5928453,20.0752035 40.5679965,22.8539955 L50.2919956,28.463995 L57.397995,25.4279953 L63.1839945,28.749995 L62.0839946,30.6419948 L57.199995,27.7819951 Z M38.0819967,22.6559955 C39.0631988,20.7718748 38.3829604,18.4491764 36.5403677,17.3920479 C34.697775,16.3349194 32.3492978,16.9199893 31.2179973,18.7179959 C30.6768417,19.6167252 30.5258698,20.6973664 30.7999973,21.7099956 C31.2226859,23.2462846 32.5249744,24.3796002 34.1049139,24.5860969 C35.6848533,24.7925935 37.2346681,24.0320452 38.0379967,22.6559955 L38.0819967,22.6559955 Z M53.2179954,39.837994 L55.2419952,41.0259939 L56.3419951,39.1119941 L54.3179953,37.9459942 L53.2179954,39.837994 Z M63.5579945,36.0979944 L62.4579946,38.0119942 L67.5619941,40.9599939 L68.661994,39.0459941 L63.5579945,36.0979944 Z M27.1039977,45.4699935 L27.1039977,47.6699934 L29.3039975,47.6699934 L29.3039975,45.4699935 L27.1039977,45.4699935 Z M33.7039971,52.069993 L33.7039971,58.6699924 L35.9039969,58.6699924 L35.9039969,52.069993 L33.7039971,52.069993 Z M9.76799915,28.683995 L8.79999924,26.7699952 L6.59999943,27.9139951 L7.65599934,29.8279949 L9.76799915,28.683995 Z M0.373999968,38.4959941 L1.45199987,40.431994 L6.59999943,37.5719942 L5.52199952,35.6359944 L0.373999968,38.4959941 Z M16.1699986,1.46999736 L14.1239988,0.281997461 L13.0239989,2.1959973 L15.0699987,3.38399719 L16.1699986,1.46999736 Z M6.9079994,3.2739972 L1.82599984,0.325997458 L0.725999937,2.21799729 L5.8079995,5.18799704 L6.9079994,3.2739972 Z" id="Shape"></path>
            </g>
        </g>
    </g>
</svg>