<?xml version="1.0" encoding="UTF-8"?>
<svg width="94px" height="88px" viewBox="0 0 94 88" version="1.1" xmlns="http://www.w3.org/2000/svg" xmlns:xlink="http://www.w3.org/1999/xlink">
    <!-- Generator: Sketch 60 (88103) - https://sketch.com -->
    <title>Asset 6</title>
    <desc>Created with Sketch.</desc>
    <defs>
        <linearGradient x1="32.0231959%" y1="81.7880072%" x2="56.4755155%" y2="24.3271901%" id="linearGradient-1">
            <stop stop-color="#8F1DFF" offset="0%"></stop>
            <stop stop-color="#7B34FF" offset="3%"></stop>
            <stop stop-color="#2399FF" offset="17%"></stop>
            <stop stop-color="#00C1FF" offset="23%"></stop>
            <stop stop-color="#723EFF" offset="74%"></stop>
            <stop stop-color="#A900FF" offset="100%"></stop>
        </linearGradient>
        <linearGradient x1="-3.1026253%" y1="49.6470588%" x2="103.102625%" y2="49.6470588%" id="linearGradient-2">
            <stop stop-color="#00C1FF" offset="0%"></stop>
            <stop stop-color="#0BB4FF" offset="6%"></stop>
            <stop stop-color="#5F54FF" offset="52%"></stop>
            <stop stop-color="#9418FF" offset="85%"></stop>
            <stop stop-color="#A900FF" offset="100%"></stop>
        </linearGradient>
    </defs>
    <g id="Fixvember" stroke="none" stroke-width="1" fill="none" fill-rule="evenodd">
        <g id="CF---Steps-LP-Copy-21" transform="translate(-40.000000, -25.000000)" fill-rule="nonzero">
            <g id="Asset-6" transform="translate(40.000000, 25.000000)">
                <g id="Group" transform="translate(10.999999, 16.399999)" fill="#FFFFFF">
                    <g id="Path">
                        <path d="M7.83199932,11.7159989 L0.791999931,7.79999924 C-0.153999987,7.27199928 -0.285999975,6.45799935 0.92399992,5.77599941 L9.39399919,0.95799983 C10.5182127,0.343661792 11.8777853,0.343661792 13.0019989,0.95799983 L20.0419983,4.98399948 L16.2579986,7.18399929 L14.4099988,6.12799938 L9.76799915,8.56999917 L11.615999,9.62599908 L7.83199932,11.7159989 Z"></path>
                        <polygon points="18.4139984 17.7879984 9.61399917 12.7279988 21.8239981 5.9519994 30.6239973 11.011999 26.8399977 13.1019988 24.9919978 12.0459989 23.6499979 12.7939988 25.4759978 13.8499987 23.517998 14.9499986 21.6699981 13.8939987 20.3499982 14.6419986 22.1979981 15.6979986"></polygon>
                        <polygon points="32.6039972 25.9279977 28.0939976 23.3319979 30.2939974 22.077998 27.0599977 21.923998 26.8399977 20.1199982 24.6399979 21.3739981 20.2399982 18.7999983 32.4719972 12.0019989 36.8719968 14.5539987 36.2559969 16.7539985 40.3479965 16.5999985 44.7479961 19.1739983"></polygon>
                    </g>
                    <g transform="translate(33.999997, 19.799998)">
                        <path d="M12.7939988,12.1999989 C11.670873,12.8484358 10.2871249,12.8484358 9.16399912,12.1999989 L0.363999882,7.1179993 L12.5739988,0.341999884 L21.3739981,5.42399944 C22.561998,6.08399939 22.561998,6.72199933 21.2419981,7.44799927 L18.6239983,8.92199914 C17.6678083,9.38622227 16.5639888,9.44181031 15.5659986,9.07599913 L15.5659986,9.07599913 C16.1159985,9.53799909 16.1599985,10.285999 15.1479986,10.835999 L12.7939988,12.1999989 Z M9.53799909,8.98799913 L11.4519989,7.90999923 L9.80199906,6.96399931 L7.86599923,8.01999922 L9.53799909,8.98799913 Z M13.5859987,6.78799932 L15.5439986,5.70999942 L13.8719987,4.7639995 L11.9139989,5.84199941 L13.5859987,6.78799932 Z" id="Shape"></path>
                        <polygon id="Path" points="24.9599977 7.55799926 33.759997 12.6179988 21.527998 19.3939982 12.7279988 14.3339987 16.5999985 12.1999989 18.4479983 13.2559988 19.7899982 12.5079988 17.9419984 11.4519989 19.8999982 10.351999 21.747998 11.4079989 23.0899979 10.659999 21.2419981 9.60399908"></polygon>
                        <path d="M33.979997,26.4999976 L29.5799973,23.9479978 L31.9999971,22.539998 L30.3279973,21.571998 L27.8199975,22.9799979 L23.4199979,20.4059981 L35.6519968,13.6079987 L44.4739961,18.7999983 C45.551996,19.4379982 45.595996,20.1419982 44.3199961,20.8459981 L41.2839963,22.539998 C40.3452995,23.1172074 39.1933406,23.2307808 38.1599966,22.8479979 L38.1599966,22.8479979 C38.7759966,23.3099979 38.5999966,24.0139978 37.8079966,24.4539978 L33.979997,26.4999976 Z M36.6419967,19.8999982 L38.5999966,18.7999983 L36.9059967,17.8319984 L34.9699969,18.9099983 L36.6419967,19.8999982 Z" id="Shape"></path>
                    </g>
                </g>
                <path d="M57.199995,56.7819951 L52.5799954,58.7399949 L61.5999947,63.7999945 L60.4999948,65.6919943 L46.9919959,57.881995 L47.5859959,62.8319946 L52.4039955,65.6039943 L51.3039956,67.4959941 L45.4299961,64.2399944 L44.5059961,56.5839951 L39.4239966,53.6579953 C38.6215205,54.5949808 37.5561937,55.2694323 36.3659968,55.5939952 C36.204841,55.6046977 36.0431527,55.6046977 35.8819969,55.5939952 L35.8819969,67.4299942 L42.4819963,72.0939937 L42.4819963,78.6939932 L40.2819965,78.6939932 L40.2819965,72.7759937 L35.8819969,69.7839939 L35.8819969,78.8699932 L33.6819971,78.8699932 L33.6819971,64.2399944 L29.2819975,67.0339942 L29.2819975,72.2699937 L27.0819977,72.2699937 L27.0819977,65.5599943 L33.6819971,60.8739947 L33.6819971,55.6599952 C32.9840206,55.5631911 32.3115349,55.3315571 31.7019973,54.9779952 C31.0659603,54.6200088 30.5055691,54.1418083 30.0519974,53.5699954 L20.2399982,59.0479949 L19.1839983,66.6819942 L13.3759988,69.9159939 L12.2979989,68.0019941 L17.1819985,65.2959943 L17.8419985,60.3679948 L8.90999923,65.3399943 L7.83199932,63.4259945 L21.4939981,55.8359952 L16.9399985,53.8119953 L12.055999,56.5179951 L10.999999,54.6039953 L16.8299985,51.3479955 L23.8919979,54.5159953 L29.0179975,51.6559955 C29.0179975,51.5239955 29.0179975,51.4139955 28.8639975,51.2819956 C28.5357229,50.0766004 28.5973308,48.7982372 29.0399975,47.6299959 L19.3159983,41.9759964 L12.2099989,44.9899961 L6.44599944,41.6459964 L7.54599935,39.7539966 L12.3639989,42.5479963 L16.9399985,40.6119965 L8.13999929,35.4639969 L9.2399992,33.5719971 L22.747998,41.4259964 L22.1539981,36.4539968 L17.2919985,33.6599971 L18.3919984,31.7679972 L24.1999979,35.1999969 L25.1019978,42.8779963 L30.1839974,45.825996 C32.088828,43.5580409 35.3484862,42.9880273 37.9099323,44.4749684 C40.4713784,45.9619096 41.5928453,49.0752035 40.5679965,51.8539955 L50.2919956,57.463995 L57.397995,54.4279953 L63.1839945,57.749995 L62.0839946,59.6419948 L57.199995,56.7819951 Z M38.0819967,51.6559955 C39.0631988,49.7718748 38.3829604,47.4491764 36.5403677,46.3920479 C34.697775,45.3349194 32.3492978,45.9199893 31.2179973,47.7179959 C30.6768417,48.6167252 30.5258698,49.6973664 30.7999973,50.7099956 C31.2226859,52.2462846 32.5249744,53.3796002 34.1049139,53.5860969 C35.6848533,53.7925935 37.2346681,53.0320452 38.0379967,51.6559955 L38.0819967,51.6559955 Z M53.2179954,68.837994 L55.2419952,70.0259939 L56.3419951,68.1119941 L54.3179953,66.9459942 L53.2179954,68.837994 Z M63.5579945,65.0979944 L62.4579946,67.0119942 L67.5619941,69.9599939 L68.661994,68.0459941 L63.5579945,65.0979944 Z M27.1039977,74.4699935 L27.1039977,76.6699934 L29.3039975,76.6699934 L29.3039975,74.4699935 L27.1039977,74.4699935 Z M33.7039971,81.069993 L33.7039971,87.6699924 L35.9039969,87.6699924 L35.9039969,81.069993 L33.7039971,81.069993 Z M9.76799915,57.683995 L8.79999924,55.7699952 L6.59999943,56.9139951 L7.65599934,58.8279949 L9.76799915,57.683995 Z M0.373999968,67.4959941 L1.45199987,69.431994 L6.59999943,66.5719942 L5.52199952,64.6359944 L0.373999968,67.4959941 Z M16.1699986,30.4699974 L14.1239988,29.2819975 L13.0239989,31.1959973 L15.0699987,32.3839972 L16.1699986,30.4699974 Z M6.9079994,32.2739972 L1.82599984,29.3259975 L0.725999937,31.2179973 L5.8079995,34.187997 L6.9079994,32.2739972 Z" id="Shape" stroke="url(#linearGradient-1)" stroke-width="0.549999952" fill="#0B1624"></path>
                <path d="M38.1479967,18.0619984 C38.1479967,19.5139983 37.5759967,19.9539983 36.4759968,19.3379983 L27.9179976,14.3879988 L27.9179976,0 L36.4979968,4.94999957 C37.6306253,5.57141642 38.2807225,6.81093507 38.1479967,8.0959993 L38.1479967,18.0619984 Z M33.8579971,13.6619988 L33.8579971,7.45799935 L32.2299972,6.59999943 L32.2299972,12.7819989 L33.8579971,13.6619988 Z" id="Shape" fill="#FFFFFF"></path>
                <polygon id="Path" fill="#FFFFFF" points="48.3999958 26.2019977 39.9079965 21.3179982 39.9079965 6.9079994 48.3999958 11.813999 48.3999958 16.2139986 46.639996 15.2019987 46.639996 16.7859985 48.3999958 17.7979985 48.3999958 20.1739983 46.639996 19.1619983 46.639996 20.7239982 48.3999958 21.7359981"></polygon>
                <polygon id="Path" stroke="url(#linearGradient-2)" stroke-width="0.549999952" fill="#060E17" points="59.2239949 29.4139974 57.463995 31.4379973 51.8099955 28.1819976 50.0059957 24.1999979 50.0059957 12.7379989 53.8119953 14.9379987 53.8119953 17.9959984 55.4179952 18.9419984 55.4179952 15.8619986 59.2239949 18.0619984"></polygon>
                <g id="Group" transform="translate(60.399995, 19.599998)" fill="#FFFFFF">
                    <path d="M10.703999,17.5139983 C10.703999,18.8999982 10.131999,19.3839981 9.05399913,18.7679982 L2.16799973,14.7859985 C1.02740539,14.1613778 0.375982749,12.9106463 0.517999868,11.6179988 L0.517999868,1.65199968 C0.517999868,0.221999807 1.11199982,-0.218000154 2.16799973,0.397999792 L9.05399913,4.37999945 C10.1945935,5.00462017 10.8460161,6.25535165 10.703999,7.54799917 L10.703999,17.5139983 Z M6.41399936,13.1139987 L6.41399936,6.90999923 L4.8079995,5.96399931 L4.8079995,12.2779988 L6.41399936,13.1139987 Z" id="Shape"></path>
                    <path d="M22.6719979,21.077998 C22.6719979,22.4199979 22.121998,22.9919978 20.9779981,22.3099979 L16.7539985,19.9999981 L16.7539985,23.3219978 L12.3539988,20.835998 L12.3539988,6.33799928 L20.9999981,11.1999989 C22.1360602,11.8311809 22.7919503,13.07392 22.6719979,14.3679986 L22.6719979,21.077998 Z M18.3819983,16.6779984 L18.3819983,14.2139986 L16.7539985,13.3999987 L16.7539985,15.8639985 L18.3819983,16.6779984 Z" id="Shape"></path>
                    <path d="M33.099997,22.7279979 L31.1639972,21.605998 L31.1639972,23.2119978 L33.099997,24.3119977 L33.099997,30.4279972 C33.099997,31.7479971 32.5279971,32.319997 31.4279972,31.6819971 L24.3439978,27.5899974 L24.3439978,23.1899978 L26.2799976,24.3119977 L26.2799976,22.6619979 L24.3439978,21.539998 L24.3439978,15.4239985 C24.3439978,13.8619986 24.9599977,13.5539987 26.0159977,14.1699986 L33.099997,18.2619982 L33.099997,22.7279979 Z" id="Path"></path>
                </g>
            </g>
        </g>
    </g>
</svg>