<?xml version="1.0" encoding="UTF-8"?>
<svg width="169px" height="32px" viewBox="0 0 169 32" version="1.1" xmlns="http://www.w3.org/2000/svg" xmlns:xlink="http://www.w3.org/1999/xlink">
    <!-- Generator: Sketch 52.3 (67297) - http://www.bohemiancoding.com/sketch -->
    <title>devops-logo</title>
    <desc>Created with Sketch.</desc>
    <g id="Main-Pages" stroke="none" stroke-width="1" fill="none" fill-rule="evenodd">
        <g id="devops-logo">
            <path d="M167.889569,25.8735686 L163.438431,25.8735686 C163.438431,25.8095686 163.438431,25.7480784 163.432157,25.6790588 C163.855059,25.5422745 164.310588,25.6464314 164.748549,25.5435294 C165.226667,25.4280784 165.397333,25.2009412 165.394824,24.7190588 C165.38102,22.1063529 165.352157,19.4923922 165.394824,16.8796863 C165.447529,13.8214902 162.88502,13.2843922 160.949961,14.1113725 C159.199373,14.8643137 158.386196,16.4216471 157.856627,18.1534118 C157.57051,19.0858039 157.576784,20.0458039 157.585569,21.0070588 C157.596863,22.220549 157.615686,23.4340392 157.576784,24.6462745 C157.557961,25.228549 157.772549,25.5121569 158.329725,25.561098 C158.739253,25.5776388 159.143835,25.6567778 159.529412,25.7957647 L155.279059,25.7957647 C155.70698,25.5447843 156.185098,25.6564706 156.634353,25.5309804 C157.048471,25.4142745 157.221647,25.2210196 157.220392,24.7905882 C157.210353,22.0097255 157.231686,19.2288627 157.207843,16.448 C157.194039,14.9258039 156.106039,13.9193725 154.593882,13.8026667 C152.597333,13.6495686 151.381333,14.7551373 150.427608,16.2760784 C149.657098,17.5033725 149.343373,18.892549 149.315765,20.3319216 C149.288157,21.7712941 149.333333,23.2181961 149.298196,24.6600784 C149.284392,25.2235294 149.540392,25.4305882 150.029804,25.5573333 C150.551843,25.6928627 151.09898,25.5259608 151.61098,25.7945098 L146.883765,25.7945098 C146.895059,25.5498039 147.087059,25.6326275 147.206275,25.6288627 C147.60247,25.6270572 147.997844,25.5926403 148.388392,25.5259608 C148.826353,25.4393725 148.960627,25.2222745 148.959373,24.793098 C148.946824,21.3630327 148.946824,17.9329673 148.959373,14.502902 C148.959373,14.0272941 148.782431,13.8352941 148.331922,13.7499608 C148.092235,13.7060392 147.829961,13.785098 147.501176,13.5466667 C148.088471,13.4111373 148.596706,13.4475294 149.091137,13.4776471 C149.397333,13.4952157 149.298196,13.7938824 149.299451,13.9796078 C149.30698,15.2545882 149.299451,16.5295686 149.299451,17.8698039 C149.571765,17.6953725 149.564235,17.4280784 149.645804,17.2235294 C150.261961,15.6762353 151.180549,14.4062745 152.761725,13.7185882 C154.916392,12.7811765 157.092392,13.9080784 157.502745,16.2020392 C157.589333,16.691451 157.57302,17.1984314 157.609412,17.7819608 C157.837804,17.28 158.005961,16.8232157 158.236863,16.4015686 C159.017412,15.0211765 159.993725,13.8315294 161.670275,13.5316078 C163.929098,13.1262745 165.669647,14.1678431 165.714824,16.691451 C165.761255,19.3041569 165.724863,21.9181176 165.724863,24.5320784 C165.724863,25.3465098 165.813961,25.4745098 166.614588,25.5824314 C167.03192,25.617303 167.45091,25.6281967 167.86949,25.6150588 L167.889569,25.8735686 Z" id="Path" stroke="#53585F" stroke-width="0.5" fill="#53585F"></path>
            <path d="M15.1617255,0 L16.806902,0 C24.2534902,0.486901961 30.0511373,5.46635294 31.6737255,12.7686275 C33.6188235,21.5253333 27.3217255,30.6095686 18.4332549,31.7703529 C11.9378824,32.6174118 6.73129412,30.3372549 2.83984314,25.0641569 C2.74820137,24.9263502 2.66440808,24.7834827 2.58886275,24.6362353 C2.8147451,24.3852549 3.12345098,24.4404706 3.40580392,24.4392157 C4.8627451,24.4304314 6.31968627,24.3927843 7.77411765,24.4492549 C8.73552993,24.5026882 9.68578323,24.2215586 10.4633725,23.6536471 C10.816,23.4026667 11.1397647,23.0989804 11.5476078,22.9258039 C11.7985882,22.873098 11.9855686,23.0299608 12.1675294,23.1642353 C14.9785098,25.2398431 18.9653333,24.9035294 21.4801569,21.7286275 C22.7413333,20.1374118 23.3512157,18.3215686 23.4227451,16.2848627 C23.500549,14.1013333 23.0374902,12.0909804 21.772549,10.3002353 C19.8086275,7.51937255 16.7818039,6.56941176 13.7963922,7.57960784 C13.1576471,7.79670588 12.5992157,8.16815686 12.0395294,8.54211765 C11.9347755,8.61535839 11.8053192,8.64422671 11.6793725,8.62243137 C10.0392157,7.34619608 8.13929412,7.24831373 6.17537255,7.35247059 C5.26431373,7.40015686 4.34698039,7.36627451 3.43215686,7.35247059 C3.16862745,7.35247059 2.88376471,7.39388235 2.67921569,7.15419608 C5.14509804,3.44847059 8.58478431,1.18713725 12.9254902,0.281098039 C13.6624767,0.129502178 14.4101479,0.0355188127 15.1617255,0 Z" id="Path" fill="#ED3124"></path>
            <path d="M1.03278431,21.6432941 C-0.322509804,17.9162353 -0.347607843,14.182902 0.990117647,10.4458039 C1.0252549,10.3479216 1.07921569,10.2575686 1.12313725,10.1647059 C1.37411765,9.96643137 1.67529412,9.99403922 1.96517647,9.99403922 C3.97301961,9.99403922 5.97333333,9.99403922 7.97866667,9.99403922 C8.67639216,9.99403922 9.29756863,10.1659608 9.78196078,10.700549 C9.95513725,11.0029804 9.7945098,11.2652549 9.67027451,11.5262745 C8.3225098,14.3435294 8.41537255,17.1733333 9.60376471,20.006902 C9.69913725,20.2340392 9.8547451,20.4448627 9.81082353,20.7146667 C9.31764706,21.3910588 8.68141176,21.8014118 7.81678431,21.8014118 C5.81730719,21.8014118 3.81783007,21.8014118 1.81835294,21.8014118 C1.54702209,21.8206225 1.27555411,21.765982 1.03278431,21.6432941 Z" id="Path" fill="#ED3124"></path>
            <path d="M109.364706,24.5596863 C109.525333,25.1695686 109.308235,25.292549 108.881569,25.2511373 C108.34698,25.1996863 107.644235,25.4732549 107.314196,25.1432157 C106.984157,24.8131765 107.226353,24.1091765 107.212549,23.5708235 C107.196235,22.9433725 107.212549,22.3159216 107.20502,21.6884706 C107.20502,21.3960784 107.299137,21.2592941 107.601569,21.2843922 C107.747258,21.2975706 107.89384,21.2975706 108.039529,21.2843922 C108.840157,21.2053333 109.419922,21.2931765 109.82902,22.2167843 C110.445176,23.6047059 112.181961,23.5432157 113.109333,23.1541961 C113.518431,22.9835294 113.690353,22.6346667 113.676549,22.195451 C113.678385,21.7622621 113.402152,21.3767505 112.991373,21.2392157 C112.153098,20.8978824 111.249569,20.8263529 110.378667,20.6117647 C110.236863,20.5778824 110.093804,20.5502745 109.952,20.5163922 C107.681882,19.9629804 106.752,18.5223529 107.198745,16.2497255 C107.666824,13.8654118 110.46149,12.6393725 112.671373,13.8654118 C112.835765,13.9570196 112.990118,14.0636863 113.204706,14.1992157 C113.244863,13.4625882 113.770667,13.6847059 114.174745,13.6809412 C115.289098,13.6721569 115.289098,13.6809412 115.289098,14.7890196 C115.289098,15.5419608 115.279059,16.294902 115.289098,17.0478431 C115.289098,17.3414902 115.198745,17.4732549 114.895059,17.446902 C114.707177,17.4305818 114.518234,17.4305818 114.330353,17.446902 C113.640157,17.5121569 113.152,17.4544314 112.853333,16.6048627 C112.476863,15.5381961 110.736314,15.2031373 109.817725,15.8770196 C109.460078,16.1392941 109.374745,16.5195294 109.412392,16.934902 C109.450039,17.3502745 109.743686,17.5498039 110.095059,17.6665098 C110.97349,17.9576471 111.894588,18.0266667 112.789333,18.2261961 C113.684078,18.4257255 114.596392,18.6980392 115.2,19.4597647 C116.192627,20.7146667 116.166275,22.1465098 115.65302,23.5595294 C115.174902,24.8759216 114.021647,25.3527843 112.736627,25.4782745 C111.569569,25.5912157 110.443922,25.4343529 109.364706,24.5596863 Z" id="Path" fill="#ED3124"></path>
            <path d="M70.6597647,16.1267451 C69.4324706,16.0213333 69.4324706,16.0213333 69.4324706,14.8291765 C69.4324706,13.6821961 69.4324706,13.6821961 70.5807059,13.6821961 C71.6687059,13.6821961 72.755451,13.6947451 73.843451,13.6746667 C74.2123922,13.6671373 74.3792941,13.7512157 74.3529412,14.156549 C74.3265433,14.6581627 74.3265433,15.1608177 74.3529412,15.6624314 C74.3654902,15.987451 74.2563137,16.1493333 73.9275294,16.0840784 C73.3101176,15.9585882 73.0804706,16.2785882 72.8759216,16.8207059 C71.872,19.4748235 70.8116078,22.1063529 69.8064314,24.7592157 C69.6232157,25.2436078 69.4023529,25.4280784 68.8752941,25.4067451 C67.7697255,25.3628235 67.7697255,25.3941961 67.4058039,24.3814902 C66.4809412,21.8089412 65.5372549,19.2439216 64.6450196,16.6613333 C64.4818824,16.1869804 64.268549,16.0150588 63.8067451,16.0878431 C63.3838431,16.153098 63.2043922,16.0062745 63.2407843,15.5494902 C63.2699079,15.048006 63.2720024,14.5453173 63.2470588,14.0436078 C63.2395294,13.772549 63.3449412,13.6771765 63.6122353,13.6784314 C65.0127059,13.6859608 66.4144314,13.6897255 67.814902,13.6784314 C68.1311373,13.6784314 68.2089412,13.8039216 68.2001569,14.092549 C68.1737515,14.5523009 68.1737515,15.0131893 68.2001569,15.4729412 C68.2415686,15.9548235 68.096,16.1807059 67.5890196,16.0903529 C67.212549,16.0225882 67.1347451,16.1681569 67.2552157,16.524549 C67.7747451,18.0655686 68.275451,19.6128627 68.8464314,21.3534118 C69.4839216,19.5212549 70.0611765,17.8547451 70.6597647,16.1267451 Z" id="Path" fill="#53585F"></path>
            <path d="M1.03278431,21.6432941 C3.1372549,21.6357647 5.24298039,21.5742745 7.34619608,21.6432941 C8.36517647,21.6771765 9.10305882,21.2919216 9.76188235,20.6117647 C9.92878431,20.1436863 10.3617255,19.8839216 10.6403137,19.4999216 C11.0983529,18.8724706 11.4760784,18.214902 11.6630588,17.4569412 C12.0221348,16.3038503 12.0555747,15.0739577 11.7596863,13.9030588 C11.8952157,12.6305882 12.569098,11.6643137 13.5052549,10.8498824 C13.6294919,10.7282165 13.8208915,10.7074686 13.9683137,10.7996863 C14.6785882,11.7433725 14.988549,12.8464314 15.1717647,13.9808627 C15.5620392,16.3789804 15.0738824,18.624 13.8327843,20.6996078 C13.3960794,21.3625822 12.9022799,21.98613 12.3570196,22.5631373 C12.1625098,22.7576471 11.9642353,22.9396078 11.6806275,22.9898039 C11.5476078,23.0889412 11.4120784,23.1843137 11.2815686,23.2872157 C10.1797647,24.1518431 9.03529412,24.7617255 7.52941176,24.6487843 C5.89803922,24.5232941 4.23905882,24.6312157 2.59262745,24.6362353 C1.88235294,23.7377255 1.43058824,22.7036863 1.03278431,21.6432941 Z" id="Path" fill="#53585F"></path>
            <path d="M9.79827451,10.8310588 C9.20573356,10.3636795 8.46385622,10.1269386 7.71011765,10.1647059 C5.52156863,10.2023529 3.31921569,10.1647059 1.12941176,10.1647059 C1.46838952,9.07767572 1.99502979,8.05837197 2.6854902,7.15294118 C4.41223529,7.15921569 6.1427451,7.232 7.86572549,7.15294118 C9.38792157,7.08141176 10.6089412,7.66996078 11.7559216,8.54713725 C11.6630588,8.80188235 10.0316863,10.7080784 9.79827451,10.8310588 Z" id="Path" fill="#53585F"></path>
            <path d="M127.692549,25.8748235 C124.601725,25.8748235 122.267608,23.7214118 121.945098,20.569098 C121.734275,18.5110588 122.17851,16.678902 123.587765,15.129098 C125.261804,13.2843922 127.889569,13.0509804 130.051765,13.9821176 C130.591835,14.21421 131.077732,14.5560898 131.478588,14.9860392 C131.980549,15.513098 131.862588,16.1430588 131.855059,16.7629804 C131.855173,16.8158204 131.833364,16.8663404 131.79483,16.9024957 C131.756296,16.9386511 131.70449,16.9572019 131.651765,16.9537255 C131.506196,16.9637647 131.400784,16.9047843 131.400784,16.7491765 C131.382755,16.5824616 131.379815,16.4144593 131.392,16.2472157 C131.488627,15.4516078 131.088314,14.9345882 130.454588,14.5505882 C127.991216,13.0610196 124.483765,13.5065098 122.979137,16.5007059 C121.849725,18.7595294 121.882353,21.0572549 123.230118,23.2508235 C124.61051,25.5033725 127.585882,26.1496471 129.936314,25.2185098 C130.227451,25.1043137 130.497255,24.9374118 130.778353,24.7993725 C131.208784,24.5860392 131.474824,24.2823529 131.39451,23.7603137 C131.378451,23.5930991 131.382664,23.4245562 131.407059,23.2583529 C131.410594,23.1481422 131.496632,23.0583167 131.606588,23.0500392 C131.757176,23.0362353 131.823686,23.1341176 131.865098,23.2658824 C132.049355,23.8512807 131.828024,24.4882454 131.320471,24.8332549 C130.259204,25.5712096 128.983652,25.9374178 127.692549,25.8748235 Z" id="Path" stroke="#53585F" stroke-width="0.5" fill="#53585F"></path>
            <path d="M119.341176,25.3301961 C119.29851,25.792 119.105255,26.1007059 118.657255,26.1019608 C118.230588,26.1019608 118.01851,25.7606275 118.005961,25.4017255 C117.993412,25.0101961 118.208,24.6487843 118.657255,24.6387451 C119.10651,24.6287059 119.289725,24.9587451 119.341176,25.3301961 Z" id="Path" stroke="#53585F" stroke-width="0.5" fill="#53585F"></path>
            <path d="M9.79827451,10.8310588 C10.3905882,10.0203922 10.9891765,9.2147451 11.7521569,8.54964706 C13.1400784,7.4905098 14.6823529,6.90196078 16.4542745,7.01992157 C18.8323137,7.17678431 20.6155294,8.36266667 21.9545098,10.2726275 C24.5207843,13.9344314 24.1003922,19.3982745 21.0271373,22.4991373 C18.3918431,25.1595294 14.5907451,25.3590588 11.6806275,22.9898039 C12.409696,22.3044426 13.0711474,21.5505393 13.6558431,20.7385098 C13.8240316,20.7297013 13.9898921,20.7808379 14.1239216,20.8828235 C16.0727843,22.0938039 18.0053333,21.3032157 19.2401569,19.6944314 C21.0459608,17.3452549 20.761098,13.4199216 18.6553725,11.3380392 C17.4958431,10.1898039 16.0752941,9.91372549 14.5719216,10.5524706 C14.3435294,10.649098 14.1414902,10.8172549 13.8741961,10.803451 C12.8,11.5162353 12.172549,12.531451 11.8839216,13.7712941 C11.7421176,15.0412549 11.6542745,16.3124706 11.7772549,17.5887059 C11.4484706,18.8247843 10.7331765,19.8036078 9.76188235,20.6117647 C8.1305098,17.5297255 8.10039216,14.4188235 9.58745098,11.2790588 C9.6627451,11.1297255 9.728,10.9803922 9.79827451,10.8310588 Z" id="Path" fill="#FEFEFE"></path>
            <path d="M89.7556078,9.59623529 C86.6183529,5.84407843 81.0804706,5.83152941 77.9319216,9.56486275 C75.0820392,12.953098 74.7821176,18.3491765 77.2592941,22.1540392 C78.7651765,24.4618039 80.9148235,25.6200784 84.4461176,25.6677647 C85.5529412,25.6966275 87.206902,25.0767059 88.6337255,23.8883137 C92.710902,20.5063529 93.2392157,13.7637647 89.7556078,9.59623529 Z M87.2947451,21.0823529 C85.0359216,23.3298824 81.6978824,23.1127843 79.7414902,20.5916863 C77.785098,18.0705882 78.0599216,13.5843137 80.2773333,11.3141961 C82.8072157,8.72407843 86.9283137,9.55733333 88.5145098,12.9807059 C88.9788235,13.9846275 89.203451,15.0324706 89.2122353,16.3212549 C89.1457255,18.0078431 88.665098,19.7195294 87.2947451,21.0823529 Z" id="Shape" fill="#ED3124" fill-rule="nonzero"></path>
            <path d="M49.3766275,12.6920784 C48.1882353,9.28627451 45.5529412,7.32737255 41.9338039,7.19937255 C40.3275294,7.14290196 38.7162353,7.17929412 37.107451,7.17678431 C35.6756078,7.17678431 35.6756078,7.17678431 35.6756078,8.59482353 C35.6756078,9.6614902 35.6756078,9.69035294 36.7171765,9.65396078 C37.2379608,9.63513725 37.376,9.7894902 37.3722353,10.3115294 C37.3496471,14.0511373 37.3596863,17.7907451 37.3596863,21.5316078 C37.3596863,22.72 37.3596863,22.7363137 36.1687843,22.7463529 C35.7835294,22.7463529 35.6505098,22.8718431 35.6668235,23.2483137 C35.6963158,23.7280701 35.6963158,24.2091848 35.6668235,24.6889412 C35.6367059,25.1156078 35.7584314,25.2724706 36.2139608,25.2574118 C37.2178824,25.2222745 38.2218039,25.2461176 39.2257255,25.2461176 C40.0828235,25.2461176 40.9399216,25.2687059 41.7957647,25.2461176 C44.9330196,25.1494902 47.2997647,23.7038431 48.832,20.979451 C50.3215686,18.3215686 50.3692549,15.526902 49.3766275,12.6920784 Z M46.336,20.0018824 C45.427451,21.8767059 43.878902,22.7789804 41.8246275,22.8392157 C40.2133333,22.886902 40.2133333,22.8743529 40.2133333,21.2743529 C40.2133333,17.7003922 40.2133333,14.1268497 40.2133333,10.5537255 C40.2133333,9.51968627 40.0790588,9.68533333 41.1156078,9.6665098 C41.2210196,9.6665098 41.3251765,9.6665098 41.4293333,9.6665098 C44.441098,9.68784314 46.310902,11.2376471 46.9722353,14.3221961 C47.3926275,16.2748235 47.2207059,18.1872941 46.336,20.0018824 Z" id="Shape" fill="#53585F" fill-rule="nonzero"></path>
            <path d="M103.654902,14.7162353 C102.484078,13.5529412 101.091137,13.1137255 99.468549,13.6483137 C98.6553725,13.9168627 98.0367059,14.4740392 97.3126275,15.1755294 C97.3126275,14.7614118 97.2875294,14.4916078 97.3126275,14.2280784 C97.3640784,13.785098 97.1871373,13.657098 96.7541961,13.670902 C95.8155294,13.7022745 94.8718431,13.6897255 93.9331765,13.670902 C93.6269804,13.670902 93.4713725,13.7323922 93.4876863,14.0825098 C93.5127843,14.6258824 93.504,15.1705098 93.4876863,15.7138824 C93.4801569,15.9761569 93.5541961,16.1079216 93.8378039,16.0840784 C94.0247843,16.0690196 94.2142745,16.1054118 94.4012549,16.0840784 C94.8643137,16.012549 94.9923137,16.1781961 94.9898039,16.6550588 C94.9672157,20.1047843 94.9772549,23.5570196 94.9772549,27.0029804 C94.9772549,28.006902 94.9772549,28.0219608 93.9808627,28.0207059 C93.5968627,28.0207059 93.4588235,28.1248627 93.478902,28.5151373 C93.5146674,28.9950993 93.5146674,29.4770575 93.478902,29.9570196 C93.44,30.4062745 93.6458039,30.4752941 94.0247843,30.4690196 C95.0487843,30.451451 96.0740392,30.4627451 97.0980392,30.4627451 C99.174902,30.4627451 99.1686275,30.4627451 98.9967059,28.377098 C98.9741176,28.1010196 98.8850196,28.0294902 98.6202353,28.0232157 C98.2538039,28.0131765 97.7418039,28.2039216 97.5585882,27.9253333 C97.3753725,27.6467451 97.4908235,27.1636078 97.4820392,26.7695686 C97.4820392,26.5399216 97.4820392,26.3090196 97.4820392,26.0793725 L97.4820392,24.0941176 C99.1021176,25.8647843 101.711059,25.9764706 103.395137,24.4567843 C106.029176,22.0862745 106.164706,17.216 103.654902,14.7162353 Z M102.037333,22.1967059 C101.056,23.4014118 99.046902,23.3901176 98.0768627,22.1703529 C97.4368627,21.3659608 97.1858824,20.4373333 97.2235294,19.4208627 C97.1830945,18.5782821 97.4082758,17.7442773 97.8672941,17.036549 C98.3450487,16.3089985 99.1512295,15.8642733 100.021471,15.8482088 C100.891713,15.8321444 101.713758,16.2468129 102.218039,16.9562353 C103.22949,18.3981176 103.145412,20.8313725 102.032314,22.1967059 L102.037333,22.1967059 Z" id="Shape" fill="#ED3124" fill-rule="nonzero"></path>
            <path d="M54.438902,20.3294118 C55.6298039,20.3494902 56.8232157,20.3369412 58.0128627,20.3369412 C59.225098,20.3369412 60.4381699,20.3369412 61.6520784,20.3369412 C61.9030588,20.3369412 62.0787451,20.3369412 62.0636863,19.9792941 C62.0021961,18.5424314 61.7399216,17.1720784 61.0421961,15.8908235 C59.2853333,12.6657255 55.0901961,12.9330196 53.1689412,14.8053333 C51.2865882,16.6337255 50.7658039,20.0018824 52.0269804,22.5468235 C52.9731765,24.4567843 54.5367843,25.4544314 56.6776471,25.497098 C58.7720784,25.5385098 60.416,24.7278431 61.4337255,22.8467451 C61.9457255,21.900549 61.8905098,21.8428235 60.8451765,21.8428235 C60.594312,21.8564889 60.3428372,21.8543933 60.0922353,21.836549 C59.5551373,21.7712941 59.1673725,21.9381961 58.7871373,22.3535686 C57.9827451,23.232 56.9436863,23.232 55.8895686,22.9082353 C54.8630588,22.592 54.2682353,21.8792157 54.0373333,20.8238431 C53.9432157,20.403451 54.0448627,20.3193725 54.438902,20.3294118 Z M56.4404706,15.8757647 C57.5221961,15.718902 58.9778824,16.5797647 59.3819608,17.6163137 C59.6329412,18.252549 59.5727059,18.3466667 58.9264314,18.3479216 L54.0323137,18.3479216 C54.1761007,17.0698338 55.1668641,16.0511907 56.4404706,15.872 L56.4404706,15.8757647 Z" id="Shape" fill="#53585F" fill-rule="nonzero"></path>
            <path d="M13.8741961,10.8097255 C15.1629804,9.78698039 16.857098,9.76941176 18.2663529,10.7658039 C21.4036078,12.9756863 21.3471373,18.8097255 18.1659608,20.9606275 C16.6901961,21.9570196 15.1843137,21.8829804 13.6483137,20.7385098 C14.4828235,19.2715294 15.0287059,17.7116863 15.1027451,16.0150588 C15.1944046,14.3453915 14.8364463,12.6817088 14.0661961,11.1974902 L13.8741961,10.8097255 Z" id="Path" fill="#ED3124"></path>
            <path d="M11.7772549,17.5887059 C11.3656471,16.3036863 11.4534902,15.0324706 11.8851765,13.7712941 C12.2604957,15.0222819 12.2226512,16.3609204 11.7772549,17.5887059 Z" id="Path" fill="#EB3528"></path>
            <path d="M145.41302,18.1007059 C144.716549,14.2494118 140.581647,12.2465882 137.237333,14.1716078 C135.155451,15.3712941 134.363608,17.3251765 134.408784,19.6567843 C134.408784,20.0533333 134.362353,20.4574118 134.420078,20.8451765 C134.49184,21.2982796 134.607415,21.743347 134.765176,22.1741176 C136.160627,26.1182745 141.030902,27.2037647 143.909647,24.1819608 C145.542275,22.4627451 145.819608,20.3381961 145.41302,18.1007059 Z M143.028706,24.5860392 C140.500078,26.5236078 136.789333,25.6991373 135.400157,22.8128627 C134.220549,20.3607843 134.320941,17.9099608 135.974902,15.6599216 C137.559843,13.5027451 140.830118,13.0710588 142.969725,14.7024314 C144.616157,15.9573333 145.228549,17.6815686 145.209725,19.4484706 C145.219765,21.6558431 144.624941,23.3574902 143.024941,24.5860392 L143.028706,24.5860392 Z" id="Shape" stroke="#53585F" stroke-width="0.5" fill="#53585F" fill-rule="nonzero"></path>
        </g>
    </g>
</svg>