<?xml version="1.0" encoding="UTF-8"?>
<svg width="605px" height="69px" viewBox="0 0 605 69" version="1.1" xmlns="http://www.w3.org/2000/svg" xmlns:xlink="http://www.w3.org/1999/xlink">
    <!-- Generator: Sketch 52.2 (67145) - http://www.bohemiancoding.com/sketch -->
    <title>fixvember</title>
    <desc>Created with Sketch.</desc>
    <g id="Page-1" stroke="none" stroke-width="1" fill="none" fill-rule="evenodd">
        <g id="CF---Steps-LP-Copy-17" transform="translate(-419.000000, -164.000000)" fill="#FFFFFF">
            <path d="M419.268,164.8 L469.188,164.8 L470.148,184.768 L468.42,184.768 C466.051988,177.855965 463.316016,173.152012 460.212,170.656 C457.107984,168.159988 452.484031,166.912 446.34,166.912 L443.652,166.912 L443.652,198.112 L447.972,198.112 C451.044015,198.112 453.60399,196.992011 455.652,194.752 C457.70001,192.511989 459.107996,189.44002 459.876,185.536 L461.316,185.536 L461.316,213.952 L459.684,213.952 C458.659995,209.151976 457.236009,205.72801 455.412,203.68 C453.587991,201.63199 451.108016,200.608 447.972,200.608 L443.652,200.608 L443.652,229.888 L455.556,229.888 L455.556,232 L419.268,232 L419.268,229.888 L424.932,229.888 L424.932,166.912 L419.268,166.912 L419.268,164.8 Z M483.234,164.8 L512.514,164.8 L512.514,166.624 L507.234,166.624 L507.234,230.176 L512.514,230.176 L512.514,232 L483.234,232 L483.234,230.176 L488.514,230.176 L488.514,166.624 L483.234,166.624 L483.234,164.8 Z M588.864,232 L556.032,232 L556.032,230.176 L562.368,230.176 L548.064,204.832 L532.8,230.176 L542.976,230.176 L542.976,232 L523.104,232 L523.104,230.176 L529.536,230.176 L546.336,201.952 L526.272,166.72 L521.088,166.72 L521.088,164.8 L553.44,164.8 L553.44,166.72 L546.912,166.72 L559.872,189.952 L574.368,166.72 L564.384,166.72 L564.384,164.8 L584.064,164.8 L584.064,166.72 L577.728,166.72 L561.504,192.64 L583.296,230.176 L588.864,230.176 L588.864,232 Z M635.07,214.624 L651.774,166.624 L644.286,166.624 L644.286,164.8 L658.974,164.8 L658.974,166.624 L654.462,166.624 L631.326,232.96 L623.262,232.96 L598.782,166.624 L594.366,166.624 L594.366,164.8 L625.758,164.8 L625.758,166.624 L618.942,166.624 L635.07,214.624 Z M668.316,164.8 L718.236,164.8 L719.196,183.808 L717.468,183.808 C714.779987,177.343968 711.964015,172.912012 709.02,170.512 C706.075985,168.111988 701.756028,166.912 696.06,166.912 L692.7,166.912 L692.7,196.576 L695.964,196.576 C698.972015,196.576 701.49999,195.440011 703.548,193.168 C705.59601,190.895989 707.035996,187.840019 707.868,184 L709.308,184 L709.308,212.416 L707.676,212.416 C706.523994,207.615976 704.97201,204.19201 703.02,202.144 C701.06799,200.09599 698.396017,199.072 695.004,199.072 L692.7,199.072 L692.7,229.888 L696.348,229.888 C702.236029,229.888 707.243979,228.128018 711.372,224.608 C715.500021,221.087982 718.331992,216.576028 719.868,211.072 L721.788,211.072 L721.02,232 L668.316,232 L668.316,229.888 L673.98,229.888 L673.98,166.912 L668.316,166.912 L668.316,164.8 Z M785.562,164.8 L811.194,164.8 L811.194,166.624 L805.914,166.624 L805.914,230.176 L811.194,230.176 L811.194,232 L781.914,232 L781.914,230.176 L787.194,230.176 L787.194,170.176 L786.81,170.176 L772.41,232 L760.41,232 L743.514,169.888 L743.13,169.888 L743.13,230.176 L748.41,230.176 L748.41,232 L735.354,232 L735.354,230.176 L740.634,230.176 L740.634,166.624 L735.354,166.624 L735.354,164.8 L761.274,164.8 L774.042,214.24 L785.562,164.8 Z M822.36,164.8 L851.064,164.8 C859.960044,164.8 866.631978,165.999988 871.08,168.4 C875.528022,170.800012 877.752,174.847972 877.752,180.544 C877.752,189.312044 872.472053,194.559991 861.912,196.288 L861.912,196.48 C874.712064,198.080008 881.112,203.647952 881.112,213.184 C881.112,220.160035 878.488026,225.039986 873.24,227.824 C867.991974,230.608014 860.440049,232 850.584,232 L822.36,232 L822.36,230.176 L828.6,230.176 L828.6,166.624 L822.36,166.624 L822.36,164.8 Z M847.32,198.016 L847.32,230.176 L851.832,230.176 C855.352018,230.176 857.815993,228.960012 859.224,226.528 C860.632007,224.095988 861.336,220.512024 861.336,215.776 L861.336,210.688 C861.336,206.463979 860.472009,203.296011 858.744,201.184 C857.015991,199.071989 853.944022,198.016 849.528,198.016 L847.32,198.016 Z M847.32,166.624 L847.32,196.192 L849.816,196.192 C853.144017,196.192 855.463993,195.18401 856.776,193.168 C858.088007,191.15199 858.744,188.064021 858.744,183.904 L858.744,179.392 C858.744,174.655976 858.168006,171.344009 857.016,169.456 C855.863994,167.567991 853.656016,166.624 850.392,166.624 L847.32,166.624 Z M892.374,164.8 L942.294,164.8 L943.254,183.808 L941.526,183.808 C938.837987,177.343968 936.022015,172.912012 933.078,170.512 C930.133985,168.111988 925.814028,166.912 920.118,166.912 L916.758,166.912 L916.758,196.576 L920.022,196.576 C923.030015,196.576 925.55799,195.440011 927.606,193.168 C929.65401,190.895989 931.093996,187.840019 931.926,184 L933.366,184 L933.366,212.416 L931.734,212.416 C930.581994,207.615976 929.03001,204.19201 927.078,202.144 C925.12599,200.09599 922.454017,199.072 919.062,199.072 L916.758,199.072 L916.758,229.888 L920.406,229.888 C926.294029,229.888 931.301979,228.128018 935.43,224.608 C939.558021,221.087982 942.389992,216.576028 943.926,211.072 L945.846,211.072 L945.078,232 L892.374,232 L892.374,229.888 L898.038,229.888 L898.038,166.912 L892.374,166.912 L892.374,164.8 Z M988.5,198.016 L983.412,198.016 L983.412,230.176 L989.652,230.176 L989.652,232 L958.452,232 L958.452,230.176 L964.692,230.176 L964.692,166.624 L958.452,166.624 L958.452,164.8 L987.444,164.8 C995.764042,164.8 1001.66798,165.231996 1005.156,166.096 C1008.64402,166.960004 1011.09199,167.999994 1012.5,169.216 C1015.57202,171.712012 1017.108,175.679973 1017.108,181.12 C1017.108,186.560027 1015.76401,190.447988 1013.076,192.784 C1010.38799,195.120012 1006.29203,196.511998 1000.788,196.96 L1000.788,197.248 C1005.97203,197.952004 1009.58799,199.487988 1011.636,201.856 C1013.68401,204.224012 1014.708,208.191972 1014.708,213.76 L1014.708,218.848 C1014.708,222.176017 1014.884,224.415994 1015.236,225.568 C1015.588,226.720006 1016.33999,227.296 1017.492,227.296 C1018.64401,227.296 1019.556,226.768005 1020.228,225.712 C1020.9,224.655995 1021.524,222.432017 1022.1,219.04 L1023.732,219.232 C1023.028,224.672027 1021.79601,228.319991 1020.036,230.176 C1018.27599,232.032009 1014.77203,232.96 1009.524,232.96 C1004.27597,232.96 1000.54801,231.728012 998.34,229.264 C996.131989,226.799988 995.028,222.176034 995.028,215.392 L995.028,208.384 C995.028,204.799982 994.564005,202.176008 993.636,200.512 C992.707995,198.847992 990.996012,198.016 988.5,198.016 Z M983.412,166.624 L983.412,196.192 L986.484,196.192 C990.132018,196.192 992.835991,195.072011 994.596,192.832 C996.356009,190.591989 997.236,186.944025 997.236,181.888 L997.236,179.104 C997.236,174.047975 996.388008,170.704008 994.692,169.072 C992.995992,167.439992 990.292019,166.624 986.58,166.624 L983.412,166.624 Z" id="fixvember"></path>
        </g>
    </g>
</svg>