<?xml version="1.0" encoding="UTF-8"?>
<svg width="151px" height="40px" viewBox="0 0 151 40" version="1.1" xmlns="http://www.w3.org/2000/svg" xmlns:xlink="http://www.w3.org/1999/xlink">
    <!-- Generator: Sketch 52.2 (67145) - http://www.bohemiancoding.com/sketch -->
    <title>fixvember-codefresh</title>
    <desc>Created with Sketch.</desc>
    <defs>
        <path d="M0.495600018,0.479999399 L12.7676005,0.479999399 L13.0036005,5.38879958 L12.5788005,5.38879958 C11.9966642,3.68959102 11.3240709,2.53320254 10.5610004,1.91959945 C9.79792987,1.30599636 8.66120787,0.999199418 7.15080026,0.999199418 L6.49000024,0.999199418 L6.49000024,8.6691997 L7.55200027,8.6691997 C8.30720408,8.6691997 8.93653114,8.39386911 9.44000034,7.84319967 C9.94346955,7.29253023 10.2895994,6.53733775 10.4784004,5.57759958 L10.8324004,5.57759958 L10.8324004,12.5631998 L10.4312004,12.5631998 C10.1794658,11.3831939 9.8294026,10.5414689 9.38100034,10.0379997 C8.93259808,9.53453054 8.32293749,9.28279972 7.55200027,9.28279972 L6.49000024,9.28279972 L6.49000024,16.4808 L9.41640034,16.4808 L9.41640034,17 L0.495600018,17 L0.495600018,16.4808 L1.88800007,16.4808 L1.88800007,0.999199418 L0.495600018,0.999199418 L0.495600018,0.479999399 Z M16.3612006,0.479999399 L23.5592009,0.479999399 L23.5592009,0.928399415 L22.2612008,0.928399415 L22.2612008,16.5516 L23.5592009,16.5516 L23.5592009,17 L16.3612006,17 L16.3612006,16.5516 L17.6592006,16.5516 L17.6592006,0.928399415 L16.3612006,0.928399415 L16.3612006,0.479999399 Z M42.4692016,17 L34.3980013,17 L34.3980013,16.5516 L35.9556013,16.5516 L32.4392012,10.3211998 L28.6868011,16.5516 L31.1884011,16.5516 L31.1884011,17 L26.303201,17 L26.303201,16.5516 L27.884401,16.5516 L32.0144012,9.61319973 L27.082001,0.951999416 L25.807601,0.951999416 L25.807601,0.479999399 L33.7608012,0.479999399 L33.7608012,0.951999416 L32.1560012,0.951999416 L35.3420013,6.66319962 L38.9056014,0.951999416 L36.4512013,0.951999416 L36.4512013,0.479999399 L41.2892015,0.479999399 L41.2892015,0.951999416 L39.7316015,0.951999416 L35.7432013,7.32399965 L41.1004015,16.5516 L42.4692016,16.5516 L42.4692016,17 Z M53.968802,12.7283998 L58.0752021,0.928399415 L56.2344021,0.928399415 L56.2344021,0.479999399 L59.8452022,0.479999399 L59.8452022,0.928399415 L58.7360022,0.928399415 L53.0484019,17.236 L51.0660019,17.236 L45.0480017,0.928399415 L43.9624016,0.928399415 L43.9624016,0.479999399 L51.6796019,0.479999399 L51.6796019,0.928399415 L50.0040018,0.928399415 L53.968802,12.7283998 Z M62.2824023,0.479999399 L74.5544027,0.479999399 L74.7904027,5.15279957 L74.3656027,5.15279957 C73.7047994,3.5637249 73.0125396,2.47420242 72.2888027,1.88419945 C71.5650657,1.29419648 70.5030763,0.999199418 69.1028025,0.999199418 L68.2768025,0.999199418 L68.2768025,8.29159968 L69.0792025,8.29159968 C69.8186729,8.29159968 70.4401334,8.0123358 70.9436026,7.45379965 C71.4470718,6.89526351 71.8010683,6.14400433 72.0056026,5.19999957 L72.3596027,5.19999957 L72.3596027,12.1855998 L71.9584026,12.1855998 C71.6752012,11.0055939 71.2936717,10.1638689 70.8138026,9.66039973 C70.3339335,9.15693053 69.6770734,8.90519971 68.8432025,8.90519971 L68.2768025,8.90519971 L68.2768025,16.4808 L69.1736025,16.4808 C70.6210765,16.4808 71.8521976,16.0481376 72.8670027,15.1827999 C73.8818078,14.3174622 74.5780008,13.2082733 74.9556028,11.8551998 L75.4276028,11.8551998 L75.2388028,17 L62.2824023,17 L62.2824023,16.4808 L63.6748023,16.4808 L63.6748023,0.999199418 L62.2824023,0.999199418 L62.2824023,0.479999399 Z M91.2460033,0.479999399 L97.5472036,0.479999399 L97.5472036,0.928399415 L96.2492035,0.928399415 L96.2492035,16.5516 L97.5472036,16.5516 L97.5472036,17 L90.3492033,17 L90.3492033,16.5516 L91.6472034,16.5516 L91.6472034,1.80159945 L91.5528034,1.80159945 L88.0128032,17 L85.0628031,17 L80.909203,1.73079944 L80.814803,1.73079944 L80.814803,16.5516 L82.112803,16.5516 L82.112803,17 L78.9032029,17 L78.9032029,16.5516 L80.2012029,16.5516 L80.2012029,0.928399415 L78.9032029,0.928399415 L78.9032029,0.479999399 L85.2752031,0.479999399 L88.4140032,12.6339998 L91.2460033,0.479999399 Z M100.432804,0.479999399 L107.489204,0.479999399 C109.676148,0.479999399 111.316332,0.77499646 112.409804,1.36499943 C113.503276,1.9550024 114.050004,2.95012582 114.050004,4.35039954 C114.050004,6.50587706 112.752017,7.79599754 110.156004,8.22079968 L110.156004,8.26799968 C113.302687,8.661335 114.876004,10.0301214 114.876004,12.3743998 C114.876004,14.0893418 114.230944,15.2889965 112.940804,15.9734 C111.650664,16.6578034 109.794149,17 107.371204,17 L100.432804,17 L100.432804,16.5516 L101.966804,16.5516 L101.966804,0.928399415 L100.432804,0.928399415 L100.432804,0.479999399 Z M106.568804,8.6455997 L106.568804,16.5516 L107.678004,16.5516 C108.543342,16.5516 109.149069,16.2526696 109.495204,15.6548 C109.841339,15.0569303 110.014404,14.1758724 110.014404,13.0115999 L110.014404,11.7607998 C110.014404,10.7223946 109.802006,9.94360234 109.377204,9.42439972 C108.952402,8.90519711 108.197209,8.6455997 107.111604,8.6455997 L106.568804,8.6455997 Z M106.568804,0.928399415 L106.568804,8.19719968 L107.182404,8.19719968 C108.000541,8.19719968 108.570869,7.94940215 108.893404,7.45379965 C109.215939,6.95819716 109.377204,6.19907139 109.377204,5.17639957 L109.377204,4.06719953 C109.377204,2.902927 109.235605,2.08873511 108.952404,1.62459944 C108.669203,1.16046377 108.126408,0.928399415 107.324004,0.928399415 L106.568804,0.928399415 Z M117.785204,0.479999399 L130.057205,0.479999399 L130.293205,5.15279957 L129.868405,5.15279957 C129.207601,3.5637249 128.515342,2.47420242 127.791605,1.88419945 C127.067868,1.29419648 126.005878,0.999199418 124.605605,0.999199418 L123.779605,0.999199418 L123.779605,8.29159968 L124.582005,8.29159968 C125.321475,8.29159968 125.942935,8.0123358 126.446405,7.45379965 C126.949874,6.89526351 127.30387,6.14400433 127.508405,5.19999957 L127.862405,5.19999957 L127.862405,12.1855998 L127.461205,12.1855998 C127.178003,11.0055939 126.796474,10.1638689 126.316605,9.66039973 C125.836736,9.15693053 125.179875,8.90519971 124.346005,8.90519971 L123.779605,8.90519971 L123.779605,16.4808 L124.676405,16.4808 C126.123879,16.4808 127.355,16.0481376 128.369805,15.1827999 C129.38461,14.3174622 130.080803,13.2082733 130.458405,11.8551998 L130.930405,11.8551998 L130.741605,17 L117.785204,17 L117.785204,16.4808 L119.177604,16.4808 L119.177604,0.999199418 L117.785204,0.999199418 L117.785204,0.479999399 Z M141.556805,8.6455997 L140.306005,8.6455997 L140.306005,16.5516 L141.840005,16.5516 L141.840005,17 L134.170005,17 L134.170005,16.5516 L135.704005,16.5516 L135.704005,0.928399415 L134.170005,0.928399415 L134.170005,0.479999399 L141.297205,0.479999399 C143.342549,0.479999399 144.793934,0.586198341 145.651405,0.798599411 C146.508876,1.01100048 147.11067,1.2666646 147.456805,1.56559944 C148.212009,2.17920253 148.589605,3.15465948 148.589605,4.49199955 C148.589605,5.82933961 148.259209,6.78513009 147.598405,7.35939965 C146.937602,7.93366921 145.930679,8.2758658 144.577605,8.38599969 L144.577605,8.45679969 C145.852012,8.62986723 146.740936,9.00746347 147.244405,9.58959973 C147.747875,10.171736 147.999605,11.1471929 147.999605,12.5159998 L147.999605,13.7667999 C147.999605,14.5849373 148.042872,15.1355985 148.129405,15.4187999 C148.215939,15.7020014 148.400804,15.8436 148.684005,15.8436 C148.967207,15.8436 149.191405,15.7138013 149.356605,15.4541999 C149.521806,15.1945986 149.675205,14.6478708 149.816805,13.8139999 L150.218006,13.8611999 C150.044938,15.19854 149.742074,16.095331 149.309405,16.5516 C148.876737,17.0078689 148.015345,17.236 146.725205,17.236 C145.435066,17.236 144.518608,16.9331364 143.975805,16.3274 C143.433003,15.7216636 143.161605,14.5849416 143.161605,12.9171999 L143.161605,11.1943998 C143.161605,10.3133287 143.04754,9.66826845 142.819405,9.25919972 C142.591271,8.85013099 142.170408,8.6455997 141.556805,8.6455997 Z M140.306005,0.928399415 L140.306005,8.19719968 L141.061205,8.19719968 C141.95801,8.19719968 142.622736,7.92186909 143.055405,7.37119965 C143.488074,6.82053021 143.704405,5.92373915 143.704405,4.68079955 L143.704405,3.99639953 C143.704405,2.75345993 143.495941,1.93140146 143.079005,1.53019944 C142.66207,1.12899742 141.997343,0.928399415 141.084805,0.928399415 L140.306005,0.928399415 Z" id="path-1"></path>
        <path d="M1.14,35 L1.14,23.9525 L2.4825,23.9525 L2.4825,28.4975 C2.79750158,28.1324982 3.15874796,27.8387511 3.56625,27.61625 C3.97375204,27.3937489 4.43999737,27.2825 4.965,27.2825 C5.4050022,27.2825 5.80249822,27.3649992 6.1575,27.53 C6.51250177,27.6950008 6.81499875,27.9412484 7.065,28.26875 C7.31500125,28.5962516 7.50749932,29.0012476 7.6425,29.48375 C7.77750067,29.9662524 7.845,30.5224968 7.845,31.1525 C7.845,31.7125028 7.77000075,32.2337476 7.62,32.71625 C7.46999925,33.1987524 7.25375141,33.6162482 6.97125,33.96875 C6.68874859,34.3212518 6.34375204,34.598749 5.93625,34.80125 C5.52874796,35.003751 5.07000255,35.105 4.56,35.105 C4.06999755,35.105 3.65375171,35.0100009 3.31125,34.82 C2.96874829,34.6299991 2.67000127,34.3650017 2.415,34.025 L2.3475,34.715 C2.3074998,34.905001 2.19250095,35 2.0025,35 L1.14,35 Z M4.53,28.3475 C4.09499783,28.3475 3.71375164,28.447499 3.38625,28.6475 C3.05874836,28.847501 2.75750138,29.1299982 2.4825,29.495 L2.4825,33.17 C2.7225012,33.5000017 2.98874854,33.7324993 3.28125,33.8675 C3.57375146,34.0025007 3.8999982,34.07 4.26,34.07 C4.97000355,34.07 5.5149981,33.8175025 5.895,33.3125 C6.2750019,32.8074975 6.465,32.0875047 6.465,31.1525 C6.465,30.6574975 6.42125044,30.2325018 6.33375,29.8775 C6.24624956,29.5224982 6.12000082,29.2312511 5.955,29.00375 C5.78999918,28.7762489 5.5875012,28.6100005 5.3475,28.505 C5.1074988,28.3999995 4.83500153,28.3475 4.53,28.3475 Z M13.0125,37.2425 C12.9674998,37.3425005 12.9112503,37.4224997 12.84375,37.4825 C12.7762497,37.5425003 12.6725007,37.5725 12.5325,37.5725 L11.5425,37.5725 L12.93,34.5575 L9.795,27.4025 L10.95,27.4025 C11.0650006,27.4025 11.1549997,27.4312497 11.22,27.48875 C11.2850003,27.5462503 11.3324999,27.6099996 11.3625,27.68 L13.395,32.465 C13.4400002,32.5750005 13.4787498,32.6849994 13.51125,32.795 C13.5437502,32.9050005 13.5724999,33.0174994 13.5975,33.1325 C13.6325002,33.0174994 13.6674998,32.9050005 13.7025,32.795 C13.7375002,32.6849994 13.7774998,32.5725006 13.8225,32.4575 L15.795,27.68 C15.8250002,27.5999996 15.8762496,27.5337503 15.94875,27.48125 C16.0212504,27.4287497 16.0999996,27.4025 16.185,27.4025 L17.25,27.4025 L13.0125,37.2425 Z" id="path-2"></path>
    </defs>
    <g id="Page-1" stroke="none" stroke-width="1" fill="none" fill-rule="evenodd">
        <g id="CF---Steps-LP-Copy-17" transform="translate(-55.000000, -31.000000)">
            <g id="fixvember-codefresh" transform="translate(55.000000, 31.000000)">
                <g id="FIXVEMBER" fill="#FFFFFF">
                    <use xlink:href="#path-1"></use>
                    <use xlink:href="#path-1"></use>
                </g>
                <g id="by" opacity="0.800000012" fill="#FFFFFF">
                    <use xlink:href="#path-2"></use>
                    <use xlink:href="#path-2"></use>
                </g>
                <g id="cf-logo-copy" transform="translate(27.000000, 23.000000)">
                    <path d="M13.1489362,5.53411892 C14.9607898,7.44434313 15.7004555,10.0002449 15.1551824,12.4666667 C17.9992749,11.442343 19.1025994,9.72489812 19.4383295,8.00745323 C19.4383295,8.00745323 20.4078056,4.75285511 21.9148936,3.4 C18.9369528,3.82201601 18.6359789,2.76697599 13.1489362,5.53678991" id="Path" fill="#28B89A"></path>
                    <path d="M9.21194748,8.76557822 C8.63854034,6.97856135 7.64974129,5.35586463 6.32809874,4.03295643 C6.32809874,4.03295643 10.3166275,5.09071824 12.6128805,12.601402 C10.4462547,11.941738 9.5217707,9.78453626 9.20767406,8.76557822 M14.1470396,13.6807214 C14.211141,13.3214273 15.2681011,9.68824545 13.1741235,6.73772236 C9.66777934,2.81710522 4.38297872,2.26666667 4.38297872,2.26666667 C5.4142983,4.27871359 5.44706122,6.1571031 6.5738206,9.98717813 C7.93917946,13.9523477 12.9768337,14.2196625 13.3500461,14.2268484 C13.6883588,14.7657896 14.4639852,15.4915636 16.2395927,15.8666667 L16.4361702,14.9224418 C14.9041478,14.5990771 14.3436171,14.0040861 14.151313,13.6764099" id="Shape" fill="#28B89A" fill-rule="nonzero"></path>
                    <path d="M5.4787234,0.961377346 C3.14317497,2.01105898 2.20641776,4.57330764 2.20641776,8.49003016 C2.20641776,12.3355395 3.14168213,14.9134551 5.4787234,16.0386227 L5.21672996,17 C1.62719578,15.7993465 0,13.1302782 0,8.50569705 C0,3.84550938 1.62719578,1.17501676 5.21672996,0 L5.4787234,0.961377346 Z" id="Path" fill="#FFFFFF"></path>
                    <path d="M21.0988882,0 C24.6796997,1.17428116 26.2978723,3.84776595 26.2978723,8.50926314 C26.2978723,13.1408333 24.6759798,15.8086177 21.0981442,17 L20.8191489,16.0394836 C23.1500615,14.9179311 24.0807898,12.3342275 24.0807898,8.48646156 C24.0807898,4.56744069 23.1485736,2.00653869 20.8191489,0.956241093 L21.0988882,0 Z" id="Path" fill="#FFFFFF"></path>
                    <path d="M36.5090661,11.9179415 C35.4770612,12.3050459 34.3773519,12.4906327 33.2722202,12.464191 C30.5497126,12.464191 29.2414577,11.3119242 29.6626034,8.40137324 C30.0510249,5.65622612 31.1252309,4.53453816 33.9736553,4.53453816 C35.0927349,4.516473 36.2055087,4.70169983 37.2553191,5.08078768 L36.8683204,6.76262466 L34.3321983,6.74733523 C33.1804502,6.74733523 32.7913173,7.12679101 32.6042205,8.49032991 C32.401473,9.99147365 32.6675346,10.2639034 33.7872699,10.2639034 C34.6290616,10.2687917 35.4704909,10.2284222 36.3077414,10.142978 L36.5090661,11.9179415 Z" id="Path" fill="#28B89A"></path>
                    <path d="M40.3723235,8.62862986 C40.1481758,10.1763599 40.2917475,10.5393047 41.3348401,10.5393047 C42.3442372,10.5393047 42.6658086,10.1304703 42.9214542,8.41586912 C43.1770997,6.83893661 43.0020301,6.46903885 42.0233983,6.46903885 C40.9663881,6.46903885 40.6455492,6.84728016 40.3723235,8.62445808 M45.9313329,8.63002045 C45.4918276,11.4668303 44.281723,12.4666667 41.2308238,12.4666667 C38.1799246,12.4666667 36.8943716,11.3750511 37.3419345,8.41725971 C37.7609295,5.55124744 38.9768942,4.53333333 42.0710114,4.53333333 C45.1307008,4.53333333 46.3810933,5.65693252 45.9327979,8.63002045" id="Shape" fill="#28B89A" fill-rule="nonzero"></path>
                    <path d="M51.5922447,7.12860825 C50.4587275,7.12860825 50.1908548,7.38273196 49.9666051,9.21563574 C49.7880234,10.6498282 49.7580325,11.2223368 50.4287366,11.1756014 C51.0570796,11.1102397 51.6460969,10.8182767 52.0993624,10.3475086 L52.5008306,7.13445017 L51.5922447,7.12860825 Z M54.4093382,13.408677 L52.2772626,13.408677 L52.2479533,12.0708763 C51.4921715,12.9530656 50.4545937,13.498834 49.3408873,13.6 C47.6116431,13.6 46.8366527,12.2928694 47.20813,9.26675258 C47.617096,5.95292096 48.8337696,5.26795533 50.4287366,5.26795533 C51.2288148,5.26767745 52.0272776,5.34491061 52.8143711,5.49871134 C52.8066893,4.95467621 52.8418028,4.41091479 52.9193391,3.87319588 L53.1722163,2.26666667 L55.8829787,2.26666667 L54.4093382,13.408677 Z" id="Shape" fill="#28B89A" fill-rule="nonzero"></path>
                    <path d="M61.0496832,7.79226639 C61.6966303,7.73109187 62.0401362,7.62542681 62.1005617,6.97336213 C62.1439105,6.4728434 61.9567227,6.38108164 61.2375277,6.39637527 C60.3600442,6.41166889 60.073023,6.68417353 59.8438001,7.91322508 L61.0496832,7.79226639 Z M63.9093864,11.8575907 C62.8659777,12.2878723 61.752062,12.4939404 60.6326158,12.4637745 C57.5870385,12.4637745 56.7575012,11.0539801 57.0261321,8.41513414 C57.3545316,5.27715978 58.7081945,4.53333333 61.2789061,4.53333333 C64.0952605,4.53333333 64.8354731,5.51907716 64.6115046,7.24447644 C64.4098673,8.65566119 63.5047981,9.05885683 61.6178144,9.2159641 L59.6776299,9.36751005 C59.7078427,10.172511 60.0802478,10.324057 60.8854834,10.324057 C61.5160105,10.324057 62.861135,10.2475888 63.7287666,10.1419237 L63.9093864,11.8575907 Z" id="Shape" fill="#28B89A" fill-rule="nonzero"></path>
                    <path d="M70.6102342,3.4466317 C69.67721,3.4466317 69.2965976,3.65472586 69.1590185,4.6027104 L68.9914094,5.67582345 L71.2960349,5.67582345 L71.1416948,6.78157872 L68.8370693,6.78157872 L67.828621,13.7398124 C67.8088916,14.339278 67.538361,14.9048353 67.0797996,15.3052601 C66.6212382,15.7056849 66.014507,15.9061697 65.4003838,15.8601967 C64.7827583,15.8560618 64.1659345,15.8160949 63.5531915,15.7405086 L63.7829557,14.6714758 L64.9282847,14.6714758 C65.8459447,14.6714758 66.2265571,14.4633817 66.365533,13.5153971 L67.3432529,6.78293882 L66.0163473,6.78293882 L66.1560216,5.74382808 L67.5157506,5.67038308 L67.6994223,4.37829512 C67.7176975,3.77840882 67.9895794,3.21250294 68.4507785,2.81439259 C68.9119775,2.41628224 69.5215451,2.22131457 70.1353417,2.27559198 C70.8647576,2.26683524 71.594044,2.30135485 72.3191489,2.37895902 L72.0754173,3.45343216 L70.6102342,3.4466317 Z" id="Path" fill="#FFFFFF"></path>
                    <path d="M77.4554521,5.97483379 L77.0641147,5.97483379 C76.28144,5.97483379 75.5235499,6.55549863 74.3175785,7.54262885 L73.7038311,12.4666667 L72.3191489,12.4666667 L73.3027102,4.73946935 L74.3593212,4.73946935 L74.287576,6.51340043 C75.3963652,5.24755108 76.483631,4.53333333 77.4267541,4.53333333 L77.7978723,4.53333333 L77.4554521,5.97483379 Z" id="Path" fill="#FFFFFF"></path>
                    <path d="M82.7227753,9.17454038 C83.5759683,9.1135955 83.9450571,8.8513908 84.058123,7.9839893 C84.1880839,6.9479264 83.7039797,6.92099727 82.5947639,6.92099727 C81.1892374,6.92099727 80.7051332,7.33769014 80.4068731,9.40981595 L82.7227753,9.17454038 Z M84.7124759,13.1643038 C83.7864303,13.4727235 82.8214097,13.6191068 81.8533373,13.5980046 C79.4490616,13.5980046 78.6270593,12.251548 78.9669069,9.43957972 C79.3372953,6.50146974 80.2886087,5.66666667 82.8007518,5.66666667 C85.0750666,5.66666667 85.6299995,6.59501304 85.4305096,8.11013102 C85.2037279,9.60965845 84.4077177,10.1510757 82.7162773,10.2899734 L80.3120016,10.5224143 C80.297706,12.0375323 80.951409,12.3450913 82.0593252,12.3450913 C82.8280436,12.3450913 83.8222441,12.2529653 84.6189041,12.159422 L84.7124759,13.1643038 Z" id="Shape" fill="#FFFFFF" fill-rule="nonzero"></path>
                    <path d="M89.5860373,9.68329601 C88.5731548,9.17187145 88.0951801,8.5837332 88.224935,7.48132915 C88.3844806,6.04081664 89.3549941,5.63451824 91.2086353,5.66861321 C92.2213421,5.68698845 93.2318981,5.7752494 94.2340426,5.93284924 L94.0599327,6.99831707 C93.1629028,6.96848397 92.3221441,6.93580962 91.2510043,6.92018276 C90.0918165,6.92018276 89.6575349,6.95143648 89.5847132,7.58645531 C89.5132157,8.15470482 89.8495191,8.31523531 90.4261339,8.59367757 L92.3380324,9.52418614 C93.4376389,10.0668644 93.8878089,10.5470353 93.7415036,11.7091055 C93.5250248,13.4294809 92.3804014,13.5999558 90.3956813,13.5999558 C89.4798282,13.6020558 88.5651533,13.5293943 87.6595745,13.3826003 L87.81912,12.2674107 C88.4712045,12.3284975 89.3827988,12.345545 90.0348832,12.345545 C91.8163648,12.345545 92.2797751,12.190697 92.365837,11.5698844 C92.452561,11.0129999 92.1010312,10.9192387 91.4820474,10.6095427 L89.5860373,9.68329601 Z" id="Path" fill="#FFFFFF"></path>
                    <path d="M97.978803,5.38118181 C97.8905767,6.03564628 97.7657466,6.6841853 97.60495,7.32348782 C98.9258974,6.10973204 100.029654,5.49246749 101.122017,5.49246749 C101.681133,5.41701256 102.238899,5.64161582 102.603968,6.08922573 C102.969037,6.53683564 103.091762,7.14657848 102.930041,7.70927817 L102.120383,13.6 L100.62497,13.6 L101.35701,8.09803614 C101.481628,7.10981932 101.310012,6.81899276 100.656303,6.81899276 C99.7206021,6.81899276 98.8183701,7.48225539 97.5145131,8.55059789 L96.8444261,13.5955486 L95.3297872,13.5955486 L96.8714859,2.26666667 L98.3668981,2.26666667 L97.978803,5.38118181 Z" id="Path" fill="#FFFFFF"></path>
                </g>
            </g>
        </g>
    </g>
</svg>