<?xml version="1.0" encoding="UTF-8"?> <svg xmlns="http://www.w3.org/2000/svg" width="70" height="20" viewBox="0 0 70 20" fill="none"><path d="M9.38698 3.9169C10.3567 4.32358 10.9442 5.06748 11.1917 6.12832H14.3511C14.2738 5.39961 14.0529 4.69344 13.7011 4.05056C13.3494 3.40769 12.8738 2.84086 12.3018 2.38279C11.1025 1.38997 9.52158 0.893555 7.55908 0.893555C5.27964 0.893555 3.45174 1.66061 2.07538 3.173C0.699031 4.6854 0 6.69276 0 9.19798C0 11.6786 0.677322 13.6425 2.05367 15.0638C3.38516 16.4864 5.05386 17.1855 7.10754 17.1855C8.371 17.1855 9.41014 16.9148 10.2669 16.3952C10.785 16.0797 11.3278 15.5631 11.9588 14.8394L12.2757 16.7788H14.4191V8.47579H7.95998V11.0925H11.5478C11.4238 12.0391 10.9679 12.9109 10.2611 13.5528C9.58381 14.1621 8.68216 14.4776 7.59816 14.4776C6.49551 14.4764 5.43622 14.0479 4.64284 13.2822C3.77448 12.492 3.3403 11.1388 3.3403 9.24285C3.3403 7.34692 3.72382 5.94742 4.53574 5.0009C4.90411 4.54469 5.37232 4.17917 5.90428 3.93251C6.43624 3.68585 7.01774 3.56465 7.60395 3.57824C8.21497 3.5706 8.82131 3.68577 9.38698 3.9169Z" fill="#000000"></path><path fill-rule="evenodd" clip-rule="evenodd" d="M21.881 17.1638C23.8449 17.1638 25.311 16.5776 26.2807 15.3807C27.2286 14.1853 27.725 12.7409 27.7279 11.0708C27.7279 9.42379 27.2518 8.00257 26.2807 6.78397C25.311 5.58708 23.8435 4.97923 21.881 4.97923C19.9185 4.97923 18.4509 5.56537 17.4813 6.78397C16.5073 7.97941 16.034 9.42379 16.034 11.0708C16.034 12.7409 16.5102 14.1766 17.4813 15.3807C18.4524 16.5849 19.917 17.1638 21.881 17.1638ZM24.5729 11.0722C24.5729 12.2228 24.3486 13.1027 23.8739 13.7338C23.4151 14.3431 22.7349 14.6586 21.8665 14.6586C20.9981 14.6586 20.3136 14.3691 19.8403 13.7338C19.3671 13.0984 19.1413 12.23 19.1413 11.0722C19.1413 9.94336 19.3714 9.04171 19.8403 8.43241C20.3092 7.82311 20.9866 7.50616 21.8665 7.50616C22.7233 7.50616 23.4006 7.81877 23.8739 8.43241C24.3471 9.04605 24.5729 9.92165 24.5729 11.0722Z" fill="#000000"></path><path fill-rule="evenodd" clip-rule="evenodd" d="M39.06 15.3807C38.0889 16.5776 36.6228 17.1638 34.6603 17.1638C32.6978 17.1638 31.2303 16.5849 30.2606 15.3807C29.291 14.1766 28.8134 12.7409 28.8134 11.0708C28.8134 9.42379 29.2866 7.97941 30.2606 6.78397C31.2303 5.56537 32.6964 4.97923 34.6603 4.97923C36.6243 4.97923 38.0889 5.58708 39.06 6.78397C40.0297 8.00257 40.5073 9.42379 40.5073 11.0708C40.5044 12.7409 40.0297 14.1853 39.06 15.3807ZM36.6677 13.7338C37.1409 13.1027 37.3667 12.2228 37.3667 11.0722C37.3667 9.92165 37.1409 9.04605 36.6677 8.43241C36.1944 7.81877 35.5171 7.50616 34.6589 7.50616C33.7789 7.50616 33.1031 7.82311 32.6327 8.43241C32.1623 9.04171 31.9337 9.94336 31.9337 11.0722C31.9337 12.23 32.1594 13.0984 32.6327 13.7338C33.106 14.3691 33.7833 14.6586 34.6589 14.6586C35.5171 14.6586 36.193 14.3431 36.6677 13.7338Z" fill="#000000"></path><path fill-rule="evenodd" clip-rule="evenodd" d="M49.6929 6.78825C49.3684 6.26456 48.9182 5.83026 48.3831 5.52479C47.8238 5.20492 47.1894 5.03959 46.5451 5.04574C45.0255 5.04574 43.83 5.61018 42.9269 6.7376C42.0248 7.84235 41.5737 9.37694 41.5737 11.3414C41.5737 13.0549 42.0238 14.4327 42.9501 15.5153C43.8754 16.5988 45.0038 17.1406 46.3352 17.1406C47.1428 17.1406 47.8187 17.0045 48.3614 16.689C48.9623 16.3172 49.4651 15.8064 49.8275 15.1998V16.7845H52.7394V1.32771H49.6929V6.78825ZM49.7609 11.2328C49.7609 12.2227 49.5583 13.039 49.1068 13.67V13.6657C48.6769 14.2967 48.0228 14.6136 47.1877 14.6136C46.3309 14.6127 45.6994 14.2967 45.2932 13.6657C44.8648 13.0347 44.6607 12.1996 44.6607 11.1387C44.6607 10.1676 44.8634 9.33255 45.2701 8.67839C45.6767 8.02422 46.3077 7.68556 47.1877 7.68556C47.7412 7.68008 48.2782 7.8743 48.7001 8.23263C49.3991 8.84193 49.7609 9.83475 49.7609 11.2328Z" fill="#000000"></path><path fill-rule="evenodd" clip-rule="evenodd" d="M56.5726 16.9154V9.8904H61.1995C61.5465 9.89001 61.8932 9.91273 62.2372 9.95842C62.5589 9.97938 62.8732 10.064 63.162 10.2074C63.438 10.3342 63.6782 10.5277 63.861 10.7703C63.9441 10.8847 64.7174 12.3888 65.5468 14.0301C64.2934 16.0139 62.8886 18.2519 62.8379 18.3795C62.7168 18.6164 62.5649 18.8364 62.3863 19.0336C62.2734 19.1206 62.1522 19.1962 62.0245 19.2594V19.3954L63.6498 19.4186C63.8749 19.1921 64.0821 18.8172 64.2876 18.4452C64.308 18.4082 64.3284 18.3713 64.3488 18.3346C64.4586 18.1385 65.2834 16.8454 66.2263 15.3807C66.9607 16.8471 67.5995 18.1459 67.6746 18.3526C67.8208 18.7626 68.06 19.1332 68.3736 19.4351L69.9989 19.412V19.2774C69.8687 19.2187 69.747 19.1428 69.6371 19.0516C69.4518 18.8597 69.2993 18.6387 69.1855 18.3974C69.1513 18.3128 68.661 17.3059 68.0541 16.0597L68.0536 16.0586C67.7443 15.4235 67.4048 14.7263 67.08 14.0575C68.1524 12.399 69.1512 10.8683 69.2449 10.7538C69.4345 10.5175 69.673 10.325 69.9439 10.1894L69.9454 9.98675C69.8978 9.98675 69.8429 9.98633 69.7823 9.98586C69.2416 9.98166 68.2502 9.97396 68.0263 10.2342C67.7745 10.5454 67.7745 10.5454 67.485 10.9796C67.4177 11.0802 66.9847 11.7596 66.4079 12.6693C65.9777 11.777 65.6605 11.109 65.6209 10.9961C65.4891 10.618 65.2906 10.2665 65.0347 9.95842C64.7425 9.63256 64.3681 9.39115 63.9507 9.25939C64.8307 8.84692 65.5022 8.3563 65.8771 7.79186C66.2519 7.22743 66.456 6.43867 66.456 5.46755C66.456 4.02414 66.0044 2.98645 65.1013 2.35447C64.1982 1.7225 62.8894 1.40651 61.1749 1.40651H55.105V16.8923L56.5726 16.9154ZM61.13 8.61101C61.6396 8.61196 62.1474 8.55121 62.6424 8.43011C63.0806 8.33277 63.495 8.14874 63.861 7.88883C64.2007 7.63925 64.4785 7.31491 64.6729 6.94087C64.8812 6.50517 64.9805 6.02539 64.9624 5.54281C64.9753 5.04974 64.8664 4.5611 64.6454 4.12014C64.453 3.75583 64.1641 3.45143 63.8103 3.2402C63.4432 3.01705 63.0379 2.86394 62.6149 2.78865C62.1539 2.69833 61.6852 2.65325 61.2154 2.65406H56.5726V8.61101H61.13Z" fill="#000000"></path></svg> 