<svg xmlns="http://www.w3.org/2000/svg" viewBox="0 0 2304.92 636">
        <title>logo</title>
        <g id="a160f901-c2b6-4ada-a00c-afdd2a207500" data-name="Layer 2">
            <g id="bc562ce6-03fd-493a-ac6a-ddfba3fd0cbb" data-name="Layer 1">
                <path fill="#000000" d="M787.93,248.56c0-34.82,34.82-51.24,66.36-51.24,30.88,0,49.27,7.88,74.9,24.31l19.71-30.88c-22.34-15.11-55.85-28.91-96.58-28.91-50.59,0-101.84,32.85-101.84,87.38,0,102.49,172.79,60.44,172.79,137.31,0,31.54-31.53,52.56-69,52.56-33.51,0-65-14.45-90.67-36.13l-23,28.91c26.28,24.3,66.35,42.7,116.29,42.7,56.5,0,103.8-34.16,103.8-90C960.72,279.44,787.93,314.92,787.93,248.56Z"></path>
                <path fill="#000000" d="M1284,209.8c-26.94-30.22-66.36-48-109.72-48-36.14,0-70.3,13.14-95.27,33.51-34.16,28.9-55.84,72.92-55.84,122.86,0,53.87,24.31,100.52,63.73,128.11,29.56,21,61.1,28.25,89.35,28.25,46.65,0,85.41-20.37,107.75-50.59v44h36.13V168.41H1284Zm-1.32,163.59c-23.65,40.74-63.07,65.7-107.09,65.7-25.62,0-48.62-9.2-67.67-22.34-28.91-20.36-47.3-57.15-47.3-98.54,0-38.77,15.77-73.59,42-95.27a115.79,115.79,0,0,1,72.28-25.62c55.18,0,94.6,38.1,107.74,60.44Z"></path>
                <path fill="#000000" d="M1799,161.84c-59.79,0-96.58,33.51-117.61,63.73-21-38.76-62.41-63.73-112.34-63.73-41.39,0-79.5,19-101.18,47.3V168.41h-36.14V468h37.45V259.73c19.71-37.45,59.13-62.41,99.87-62.41,32.85,0,59.78,15.76,75.55,39.42,10.51,15.76,17.08,35.47,17.08,77.52V468h37.45V309.66a262.85,262.85,0,0,0-3.28-42.7c18.39-36.14,55.18-69.64,103.15-69.64,32.84,0,59.78,15.76,75.55,39.42,10.51,15.76,17.08,35.47,17.08,77.52V468h37.45V309.66c0-40.07-6.57-64.38-17.74-84.75C1889.7,186.81,1848.31,161.84,1799,161.84Z"></path>
                <path fill="#000000" d="M2268.79,209.8c-26.94-30.22-66.36-48-109.72-48-36.14,0-70.3,13.14-95.27,33.51-34.16,28.9-55.84,72.92-55.84,122.86,0,53.87,24.31,100.52,63.73,128.11,29.56,21,61.1,28.25,89.35,28.25,46.64,0,85.41-20.37,107.75-50.59v44h36.13V168.41h-36.13Zm-1.32,163.59c-23.65,40.74-63.07,65.7-107.09,65.7-25.62,0-48.62-9.2-67.67-22.34-28.91-20.36-47.3-57.15-47.3-98.54,0-38.77,15.76-73.59,42-95.27a115.78,115.78,0,0,1,72.27-25.62c55.19,0,94.61,38.1,107.75,60.44Z"></path>
                <path fill="#000000" d="M508.81,63.61,487.19,92.39a284.67,284.67,0,0,1,82.1,97.52,281.64,281.64,0,0,1-33.81,307.62A281.35,281.35,0,0,1,318,600a286.38,286.38,0,0,1-40.18-2.84,2.05,2.05,0,0,1-1.82-2V138H240V595.16a38.26,38.26,0,0,0,32.74,37.64,321,321,0,0,0,108.84-3.17A317.7,317.7,0,0,0,636,318a314.56,314.56,0,0,0-34.65-144.47A320.91,320.91,0,0,0,508.81,63.61Z"></path>
                <path fill="#000000" d="M66.71,446.09a281.64,281.64,0,0,1,33.81-307.62A281.35,281.35,0,0,1,318,36a286.38,286.38,0,0,1,40.18,2.84,2.05,2.05,0,0,1,1.82,2V498h36V40.84A38.27,38.27,0,0,0,363.26,3.2,321,321,0,0,0,254.42,6.37,317.7,317.7,0,0,0,0,318,314.56,314.56,0,0,0,34.65,462.47a320.91,320.91,0,0,0,92.54,109.92l21.62-28.78A284.67,284.67,0,0,1,66.71,446.09Z"></path>
            </g>
        </g>
    </svg>