<?xml version="1.0" encoding="UTF-8"?> <svg xmlns="http://www.w3.org/2000/svg" width="100" height="26" viewBox="0 0 100 26" fill="none"><path fill-rule="evenodd" clip-rule="evenodd" d="M41.3399 13.4387C41.3399 9.24507 44.3636 6.58499 47.7273 6.58499C48.5123 6.56191 49.2917 6.72709 50 7.06681C50.7083 7.4065 51.3249 7.9108 51.7984 8.53756V0.790527H55.1146V20.0356H51.7984V18.2293C51.3296 18.8811 50.7103 19.4101 49.9933 19.7714C49.2763 20.1326 48.4826 20.3155 47.6798 20.3044C44.4387 20.3044 41.3399 17.6443 41.3399 13.4387ZM52.0119 13.4111C52.0024 12.6893 51.7798 11.9864 51.3719 11.3907C50.9644 10.7951 50.3893 10.3334 49.7198 10.0636C49.0502 9.79385 48.3158 9.72812 47.6091 9.87464C46.9024 10.0212 46.2545 10.3735 45.7474 10.8872C45.2403 11.4009 44.8964 12.0531 44.7589 12.7617C44.6213 13.4704 44.6968 14.2038 44.9751 14.8699C45.2534 15.5359 45.7225 16.1048 46.3233 16.5049C46.9241 16.905 47.63 17.1185 48.3518 17.1186C48.8332 17.1181 49.3099 17.0223 49.7542 16.8368C50.1984 16.6512 50.6012 16.3796 50.9403 16.0375C51.2791 15.6954 51.5466 15.2897 51.7277 14.8437C51.9091 14.3976 52.0004 13.9202 51.996 13.4387L52.0119 13.4111ZM3.33992 16.8656L5.36364 14.5969L9.09091 20.0356H12.9447L7.75099 12.4783L12.6996 6.86958H8.69565L3.33992 12.9882V0.822148H0V20.0277H3.33992V16.8656ZM11.8577 13.4387C11.8577 9.26088 14.8933 6.6008 18.2569 6.6008C19.0439 6.58207 19.8239 6.75167 20.5321 7.09543C21.2402 7.43918 21.856 7.94717 22.3281 8.57709V6.86958H25.668V20.0356H22.3281V18.253C21.8578 18.9016 21.2377 19.427 20.5206 19.7842C19.8034 20.1414 19.0105 20.3199 18.2095 20.3044C14.9684 20.3044 11.8577 17.6443 11.8577 13.4387ZM22.5296 13.4387C22.5203 12.7168 22.2976 12.0137 21.8896 11.418C21.4816 10.8223 20.9065 10.3606 20.2368 10.0909C19.567 9.82128 18.8324 9.75574 18.1255 9.90262C17.4185 10.0495 16.7708 10.4021 16.2638 10.9162C15.7568 11.4303 15.4132 12.0829 15.2762 12.7918C15.1393 13.5008 15.2151 14.2344 15.494 14.9003C15.773 15.5663 16.2427 16.1348 16.844 16.5345C17.4454 16.9341 18.1515 17.147 18.8735 17.1463C19.3585 17.1479 19.8389 17.0527 20.2865 16.8664C20.7342 16.68 21.1402 16.4061 21.4807 16.0608C21.8212 15.7155 22.0894 15.3058 22.2695 14.8555C22.4496 14.4053 22.5381 13.9236 22.5296 13.4387ZM27.5929 6.86958H30.9565V8.52966C31.394 7.91946 31.9736 7.42495 32.645 7.08891C33.3164 6.75282 34.0596 6.58531 34.8103 6.6008C37.9447 6.6008 39.9209 8.64824 39.9209 12.087V20.0356H36.4822V12.6008C36.4822 10.7233 35.581 9.55337 33.8024 9.55337C32.2213 9.55337 30.996 10.7391 30.996 12.7708V20.0356H27.5929V6.86958ZM59.5676 1.11643C59.298 1.01012 59.0091 0.961049 58.7194 0.972346C58.4324 0.966124 58.147 1.01888 57.881 1.12734C57.6154 1.2358 57.3743 1.39767 57.1735 1.60292C56.9727 1.80817 56.8162 2.05244 56.7138 2.32063C56.6111 2.58881 56.5644 2.8752 56.5771 3.16207C56.6008 3.71794 56.8383 4.24314 57.2403 4.62804C57.6419 5.01294 58.1767 5.22784 58.7332 5.22784C59.2897 5.22784 59.8245 5.01294 60.2261 4.62804C60.6281 4.24314 60.8656 3.71794 60.8893 3.16207C60.9032 2.8725 60.8569 2.58321 60.753 2.31256C60.649 2.0419 60.4901 1.7958 60.2862 1.58989C60.0818 1.38397 59.8372 1.22274 59.5676 1.11643ZM57.0158 19.6443C57.0158 21.8142 56.747 22.1542 54.4545 22.1542V25.3004H54.917C59.1344 25.3004 60.4506 23.9368 60.4506 19.6957V6.86958H57.0158V19.6443ZM64.0593 0.972346C64.349 0.961049 64.6379 1.01012 64.9075 1.11643C65.1771 1.22274 65.4217 1.38397 65.6261 1.58989C65.83 1.7958 65.9889 2.0419 66.0929 2.31256C66.1968 2.58321 66.2431 2.8725 66.2292 3.16207C66.2292 3.73443 66.002 4.28337 65.5972 4.68808C65.1925 5.09282 64.6435 5.32017 64.0711 5.32017C63.4988 5.32017 62.9498 5.09282 62.5451 4.68808C62.1403 4.28337 61.913 3.73443 61.913 3.16207C61.9004 2.87486 61.947 2.58813 62.0498 2.31968C62.153 2.05122 62.3099 1.80676 62.5111 1.60145C62.7122 1.39614 62.9534 1.23436 63.2198 1.12614C63.4862 1.01792 63.7719 0.965575 64.0593 0.972346ZM62.3518 20.0356V6.86958H65.7905V20.0356H62.3518Z" fill="#111111"></path><path d="M82.6565 8.47423L82.4628 8.20545C81.1743 6.45051 76.9727 1.06711 73.3719 0.0829218C73.2928 0.0644767 73.2138 0.0486665 73.1347 0.0354911C72.6407 -0.0372667 72.1371 0.0733321 71.7193 0.346406C71.3011 0.619479 70.9976 1.03614 70.866 1.5177C70.7221 2.13091 70.73 2.77003 70.8897 3.37936C71.3245 5.27264 72.866 7.47423 75.1901 8.69952L76.2375 9.22917C76.026 9.27794 75.8177 9.33865 75.613 9.41098C75.3798 9.49221 75.1549 9.59545 74.9411 9.71929C74.6885 9.86703 74.4948 10.0981 74.394 10.3729C74.2928 10.6477 74.2909 10.949 74.3877 11.2252C74.4122 11.3044 74.4466 11.3802 74.4905 11.4505C74.8857 12.1264 75.8739 12.6639 77.0557 12.8418C79.111 13.1462 81.7474 12.3556 82.8857 9.25683L82.9845 8.90506L82.6565 8.47423Z" fill="url(#paint0_linear)"></path><path d="M88.1074 8.46055L88.301 8.19178C89.5896 6.43684 93.7912 1.05344 97.3919 0.0692502C97.471 0.0508048 97.55 0.0349945 97.6291 0.0218193C98.1232 -0.0509387 98.6267 0.0596601 99.0445 0.332734C99.4627 0.60581 99.7663 1.02246 99.8979 1.50403C100.042 2.11723 100.034 2.75636 99.8742 3.36569C99.4394 5.25897 97.8979 7.46055 95.5738 8.68585L94.5263 9.21549C94.7378 9.26427 94.9465 9.32498 95.1508 9.39731C95.384 9.47854 95.6089 9.58178 95.8228 9.70561C96.0753 9.85336 96.269 10.0844 96.3698 10.3592C96.471 10.634 96.473 10.9353 96.3761 11.2115C96.3516 11.2908 96.3172 11.3665 96.2734 11.4368C95.8781 12.1127 94.89 12.6503 93.7082 12.8281C91.6528 13.1325 89.0165 12.342 87.8781 9.24316L87.7793 8.89138L88.1074 8.46055Z" fill="url(#paint1_linear)"></path><path d="M88.0993 4.43456C88.0993 4.6946 88.019 4.94832 87.8688 5.16069C87.7186 5.37306 87.5064 5.53365 87.2613 5.62033L85.4629 6.25274C85.3926 6.27654 85.3159 6.27654 85.2455 6.25274L83.4471 5.62033C83.1681 5.52203 82.9325 5.32808 82.7827 5.0729C82.6329 4.81768 82.5783 4.51768 82.6285 4.22602C82.6787 3.93437 82.8305 3.6699 83.057 3.47946C83.2835 3.28901 83.57 3.18489 83.8661 3.18555H86.8463C87.1787 3.18555 87.4973 3.31756 87.7325 3.55253C87.9673 3.78751 88.0993 4.10622 88.0993 4.43851" fill="#F79C39"></path><path d="M85.9491 1.26482L85.3562 0.541504L84.7594 1.26482L83.791 0.541504V2.44269H86.9175V0.541504L85.9491 1.26482Z" fill="#F79C39"></path><path d="M89.5698 14.917H81.1152C81.1152 14.9763 81.1152 15.0356 81.135 15.0949C81.1994 15.7421 81.3318 16.3806 81.5303 17H89.131C89.3449 16.3216 89.4915 15.6239 89.5698 14.917Z" fill="#F79C39"></path><path d="M81.9648 18.0396C82.4344 18.9816 83.1589 19.7731 84.0558 20.3241C84.368 20.5099 85.0241 20.9407 85.4233 20.8459C86.1518 20.6643 86.8281 20.3164 87.3992 19.8295C87.9704 19.3426 88.421 18.7299 88.7158 18.0396H81.9648Z" fill="#F79C39"></path><path d="M89.645 13.8775C89.645 13.1186 89.4909 12.3439 88.7636 11.9487C87.898 11.4783 86.7478 11.585 85.7952 11.589C84.4948 11.589 81.9217 11.174 81.2537 12.6917C81.1035 13.0685 81.0324 13.4721 81.0442 13.8775H89.645Z" fill="#F79C39"></path><path d="M88.2056 8.8895C88.2056 9.45491 88.0376 10.0076 87.723 10.4774C87.4084 10.9472 86.9613 11.3129 86.4384 11.5282C85.9155 11.7435 85.3404 11.7986 84.7862 11.6866C84.2321 11.5745 83.7238 11.3004 83.3254 10.8989C82.9273 10.4974 82.6574 9.98669 82.5499 9.43155C82.4427 8.87642 82.5024 8.30191 82.7222 7.78088C82.942 7.25985 83.3111 6.81582 83.7839 6.50511C84.2562 6.1944 84.8103 6.03104 85.3756 6.03574C85.7503 6.03574 86.121 6.10958 86.4669 6.25306C86.8131 6.39649 87.1273 6.60677 87.3922 6.87183C87.6566 7.13689 87.8665 7.45151 88.0095 7.79772C88.1526 8.14393 88.2258 8.51491 88.2254 8.8895" fill="#F79C39"></path><path d="M85.2527 5.01978C85.2855 5.03203 85.3203 5.03871 85.3555 5.03954C85.3203 5.03871 85.2855 5.03203 85.2527 5.01978Z" fill="#F99F39"></path><defs><linearGradient id="paint0_linear" x1="70.7475" y1="-8.203e-05" x2="70.7475" y2="12.8972" gradientUnits="userSpaceOnUse"><stop stop-color="#F48020"></stop><stop offset="1" stop-color="#F9A61A"></stop></linearGradient><linearGradient id="paint1_linear" x1="87.7873" y1="-0.0137539" x2="87.7873" y2="12.8835" gradientUnits="userSpaceOnUse"><stop stop-color="#F48020"></stop><stop offset="1" stop-color="#F9A61A"></stop></linearGradient></defs></svg> 