<svg xmlns="http://www.w3.org/2000/svg" viewBox="0 0 3808.81 218.27">
  <title>bg</title>
  <g id="Layer_2" data-name="Layer 2">
    <g id="Layer_1-2" data-name="Layer 1">
      <g>
        <path d="M311.23,218.27H307.8l-19.4-19.4H244.74l-44.36-44.36V71.68a5.11,5.11,0,1,1,2.43,0v81.8l42.94,42.94H289.4Z" style="fill: #091321"/>
        <path d="M490.49,23.05a5.14,5.14,0,0,1-3.94,5V67.2l-43.66,43.65v43.66l-43.65,43.65v20.11h-2.42V197.15l43.65-43.65V109.85L484.12,66.2V28a5.15,5.15,0,1,1,6.37-5Z" style="fill: #091321"/>
        <path d="M159.15,66.2V176.33l-41.94,41.94h-3.42l42.94-42.94V67.2L117.65,28.12a5.17,5.17,0,1,1,2.39-1Z" style="fill: #091321"/>
        <path d="M245.75,218.27h-3.43l-38.06-38.06a5.08,5.08,0,0,1-2.37.77,5.18,5.18,0,1,1,4.1-2.47Z" style="fill: #091321"/>
        <path d="M10.31,23.05a5.14,5.14,0,0,1-3.94,5V218.27H3.94V28a5.15,5.15,0,1,1,6.37-5Z" style="fill: #091321"/>
        <path d="M54,22.75A5.16,5.16,0,0,1,50,28.05V218.27H47.6V28A5.14,5.14,0,1,1,54,22.75Z" style="fill: #091321"/>
        <path d="M702.38,28V69.63L748.11,23.9l-1.72-1.71L704.81,63.77V28a5.16,5.16,0,1,0-2.43,0Z" style="fill: #091321"/>
        <path d="M26.13,0a12.73,12.73,0,0,0-1.57,25.36V218.27h4.85V25A12.73,12.73,0,0,0,26.13,0Zm0,20.62A7.89,7.89,0,1,1,34,12.73,7.9,7.9,0,0,1,26.13,20.62Z" style="fill: #091321"/>
        <path d="M179.77,43.65a12.73,12.73,0,0,0-3.64,24.94V174.32l-43.95,44h10.29l40.93-40.93V68.59a12.73,12.73,0,0,0-3.63-24.94Zm0,20.62a7.89,7.89,0,1,1,7.88-7.88A7.9,7.9,0,0,1,179.77,64.27Z" style="fill: #091321"/>
        <path d="M398,0a12.73,12.73,0,0,0-2.43,25.23V153l-21.82,21.83v43.44h4.85V176.83L400.45,155V25.23A12.73,12.73,0,0,0,398,0Zm0,20.62a7.89,7.89,0,1,1,7.89-7.89A7.9,7.9,0,0,1,398,20.62Z" style="fill: #091321"/>
        <path d="M507.16,0a12.73,12.73,0,0,0-3.64,24.93V65.19l-43.65,43.65V152.5l-43.65,43.65v22.12h7.27V199.16l43.66-43.65V111.86L510.8,68.2V24.93A12.73,12.73,0,0,0,507.16,0Zm0,20.62a7.89,7.89,0,1,1,7.89-7.89A7.9,7.9,0,0,1,507.16,20.62Z" style="fill: #091321"/>
        <path d="M1108.9,218.27h-3.43l-19.4-19.4h-43.65l-44.37-44.36V71.68a5.11,5.11,0,1,1,2.43,0v81.8l42.94,42.94h43.65Z" style="fill: #091321"/>
        <path d="M1288.16,23.05a5.14,5.14,0,0,1-3.94,5V67.2l-43.65,43.65v43.66l-43.66,43.65v20.11h-2.42V197.15l43.65-43.65V109.85l43.65-43.65V28a5.15,5.15,0,1,1,6.37-5Z" style="fill: #091321"/>
        <path d="M956.83,66.2V176.33l-42,41.94h-3.42l42.94-42.94V67.2L915.32,28.12a4.91,4.91,0,0,1-.78.08,5.21,5.21,0,1,1,3.17-1.12Z" style="fill: #091321"/>
        <path d="M1043.42,218.27H1040l-38.06-38.06a5.14,5.14,0,1,1,2.47-4.67,5,5,0,0,1-.75,3Z" style="fill: #091321"/>
        <path d="M851.63,22.75a5.16,5.16,0,0,1-3.94,5.3V218.27h-2.42V28a5.14,5.14,0,1,1,6.36-5.28Z" style="fill: #091321"/>
        <path d="M1500.06,28V69.63l45.72-45.73-1.71-1.71-41.59,41.58V28a5.16,5.16,0,1,0-2.42,0Z" style="fill: #091321"/>
        <path d="M698.85,199.58a5.15,5.15,0,0,1-3.94,5v13.69h-2.42V204.58a5.15,5.15,0,1,1,6.36-5Z" style="fill: #091321"/>
        <path d="M808,23.05A5.14,5.14,0,0,1,804,28V218.27h-2.42V28a5.15,5.15,0,1,1,6.36-5Z" style="fill: #091321"/>
        <path d="M823.8,0a12.73,12.73,0,0,0-1.57,25.36V218.27h4.85V25A12.73,12.73,0,0,0,823.8,0Zm0,20.62a7.89,7.89,0,1,1,7.88-7.89A7.9,7.9,0,0,1,823.8,20.62Z" style="fill: #091321"/>
        <path d="M977.44,43.65a12.73,12.73,0,0,0-3.64,24.94V174.32l-43.95,44h10.3l40.93-40.93V68.59a12.73,12.73,0,0,0-3.64-24.94Zm0,20.62a7.89,7.89,0,1,1,7.89-7.88A7.9,7.9,0,0,1,977.44,64.27Z" style="fill: #091321"/>
        <path d="M1195.7,0a12.73,12.73,0,0,0-2.42,25.23V153l-21.83,21.83v43.44h4.85V176.83L1198.13,155V25.23A12.73,12.73,0,0,0,1195.7,0Zm0,20.62a7.89,7.89,0,1,1,7.89-7.89A7.89,7.89,0,0,1,1195.7,20.62Z" style="fill: #091321"/>
        <path d="M769.93,0a12.72,12.72,0,0,0-5.46,24.22L635.69,153v5.05l-6.47-6.47h-8.79L683,89V28a5.15,5.15,0,1,0-2.42,0V88L617,151.58H598.61L661.16,89V28a5.16,5.16,0,1,0-2.43,0V88l-63.55,63.56h-9.61l-2.68-2.68L641.76,90V24.93a12.74,12.74,0,1,0-7.28,0V87l-56.73,56.73-34.41-34.4v-30L597,25.62l-.16-.16H597a12.78,12.78,0,1,0-7.6-2.54L543.34,69V54.36l26.77-26.77a5,5,0,0,0,3,.75,5.15,5.15,0,1,0-5.44-4.85,5.08,5.08,0,0,0,.77,2.38L543.34,50.93V25.23a12.74,12.74,0,1,0-4.85,0V55.79l-54.87,54.87V153.8l-43.35,43.35v21.12h2.42V198.16L486,154.81V111.66l52.45-52.45V73.88l-35,35V152.5l-43.65,43.65v22.12h7.28V199.16l43.65-43.65V111.86l27.69-27.69v27.18l35.83,35.83L569,152.5v65.77h7.28V155.51l3.18-3.18,4.1,4.1h9.69v61.84h2.43V156.43h19.4v61.84h2.42V156.43h9.71l8.48,8.48v53.36h4.85V169.76l28.91,28.9v19.61h4.85V196.65L640.54,162.9V155L770.09,25.46A12.73,12.73,0,0,0,769.93,0ZM630.23,12.73a7.89,7.89,0,1,1,7.89,7.89A7.9,7.9,0,0,1,630.23,12.73Zm-41.07,0A7.89,7.89,0,1,1,597,20.62,7.89,7.89,0,0,1,589.16,12.73Zm-56.13,0a7.89,7.89,0,1,1,7.88,7.89A7.9,7.9,0,0,1,533,12.73Zm236.9,7.89a7.89,7.89,0,1,1,7.89-7.89A7.9,7.9,0,0,1,769.93,20.62Z" style="fill: #091321"/>
        <path d="M1304.83,0a12.73,12.73,0,0,0-3.63,24.93V65.19l-43.66,43.65V152.5l-43.65,43.65v22.12h7.28V199.16l43.65-43.65V111.86l43.65-43.66V24.93A12.73,12.73,0,0,0,1304.83,0Zm0,20.62a7.89,7.89,0,1,1,7.89-7.89A7.9,7.9,0,0,1,1304.83,20.62Z" style="fill: #091321"/>
        <path d="M1906.58,218.27h-3.44l-19.4-19.4h-43.65l-44.36-44.36V71.68a5.12,5.12,0,1,1,2.42,0v81.8l42.94,42.94h43.66Z" style="fill: #091321"/>
        <path d="M2085.84,23.05a5.14,5.14,0,0,1-4,5V67.2l-43.65,43.65v43.66l-43.65,43.65v20.11h-2.43V197.15l43.66-43.65V109.85l43.65-43.65V28a5.15,5.15,0,1,1,6.37-5Z" style="fill: #091321"/>
        <path d="M1754.5,66.2V176.33l-41.94,41.94h-3.43l42.94-42.94V67.2L1713,28.12a5.19,5.19,0,1,1,2.38-1Z" style="fill: #091321"/>
        <path d="M1841.09,218.27h-3.42l-38.06-38.06a5.08,5.08,0,0,1-2.38.77,5.17,5.17,0,1,1,4.11-2.47Z" style="fill: #091321"/>
        <path d="M1649.3,22.75a5.15,5.15,0,0,1-3.93,5.3V218.27h-2.43V28a5.14,5.14,0,1,1,6.36-5.28Z" style="fill: #091321"/>
        <path d="M2297.73,28V69.63l45.72-45.73-1.71-1.71-41.58,41.58V28a5.16,5.16,0,1,0-2.43,0Z" style="fill: #091321"/>
        <path d="M1496.53,199.58a5.16,5.16,0,0,1-4,5v13.69h-2.42V204.58a5.15,5.15,0,1,1,6.37-5Z" style="fill: #091321"/>
        <path d="M1605.66,23.05a5.14,5.14,0,0,1-4,5V218.27h-2.42V28a5.15,5.15,0,1,1,6.37-5Z" style="fill: #091321"/>
        <path d="M1621.47,0a12.73,12.73,0,0,0-1.57,25.36V218.27h4.85V25a12.73,12.73,0,0,0-3.28-25Zm0,20.62a7.89,7.89,0,1,1,7.89-7.89A7.9,7.9,0,0,1,1621.47,20.62Z" style="fill: #091321"/>
        <path d="M1775.11,43.65a12.74,12.74,0,0,0-3.64,24.94V174.32l-44,44h10.3l40.93-40.93V68.59a12.73,12.73,0,0,0-3.64-24.94Zm0,20.62a7.89,7.89,0,1,1,7.89-7.88A7.89,7.89,0,0,1,1775.11,64.27Z" style="fill: #091321"/>
        <path d="M1993.38,0A12.73,12.73,0,0,0,1991,25.23V153l-21.83,21.83v43.44H1974V176.83L1995.8,155V25.23A12.73,12.73,0,0,0,1993.38,0Zm0,20.62a7.89,7.89,0,1,1,7.88-7.89A7.9,7.9,0,0,1,1993.38,20.62Z" style="fill: #091321"/>
        <path d="M1567.61,0a12.72,12.72,0,0,0-5.47,24.22L1433.37,153v5.05l-6.47-6.47h-8.8L1480.66,89V28a5.16,5.16,0,1,0-2.43,0V88l-63.55,63.56h-18.4L1458.83,89V28a5.16,5.16,0,1,0-2.42,0V88l-63.56,63.56h-9.61l-2.68-2.68L1439.43,90V24.93a12.74,12.74,0,1,0-7.28,0V87l-56.73,56.73L1341,109.35v-30l53.7-53.7-.15-.16h.16a12.78,12.78,0,1,0-7.61-2.54L1341,69V54.36l26.77-26.77a5.07,5.07,0,0,0,3,.75,5.15,5.15,0,1,0-5.44-4.85,5.07,5.07,0,0,0,.76,2.38L1341,50.93V25.23a12.74,12.74,0,1,0-4.85,0V55.79l-54.87,54.87V153.8l-43.35,43.35v21.12h2.43V198.16l43.35-43.35V111.66l52.44-52.45V73.88l-35,35V152.5l-43.66,43.65v22.12h7.28V199.16l43.65-43.65V111.86l27.69-27.69v27.18L1372,147.18l-5.32,5.32v65.77H1374V155.51l3.18-3.18,4.11,4.1h9.69v61.84h2.42V156.43h19.4v61.84h2.43V156.43h9.71l8.48,8.48v53.36h4.85V169.76l28.9,28.9v19.61H1472V196.65l-33.75-33.75V155L1567.76,25.46A12.73,12.73,0,0,0,1567.61,0ZM1427.9,12.73a7.89,7.89,0,1,1,7.89,7.89A7.9,7.9,0,0,1,1427.9,12.73Zm-41.07,0a7.89,7.89,0,1,1,7.89,7.89A7.9,7.9,0,0,1,1386.83,12.73Zm-56.13,0a7.89,7.89,0,1,1,7.89,7.89A7.9,7.9,0,0,1,1330.7,12.73Zm236.91,7.89a7.89,7.89,0,1,1,7.88-7.89A7.9,7.9,0,0,1,1567.61,20.62Z" style="fill: #091321"/>
        <path d="M2102.51,0a12.73,12.73,0,0,0-3.64,24.93V65.19l-43.65,43.65V152.5l-43.66,43.65v22.12h7.28V199.16l43.65-43.65V111.86l43.65-43.66V24.93A12.73,12.73,0,0,0,2102.51,0Zm0,20.62a7.89,7.89,0,1,1,7.88-7.89A7.9,7.9,0,0,1,2102.51,20.62Z" style="fill: #091321"/>
        <path d="M2704.25,218.27h-3.44l-19.4-19.4h-43.65l-44.36-44.36V71.68a5.12,5.12,0,1,1,2.42,0v81.8l42.95,42.94h43.65Z" style="fill: #091321"/>
        <path d="M2883.51,23.05a5.14,5.14,0,0,1-3.94,5V67.2l-43.66,43.65v43.66l-43.65,43.65v20.11h-2.42V197.15l43.65-43.65V109.85l43.65-43.65V28a5.15,5.15,0,1,1,6.37-5Z" style="fill: #091321"/>
        <path d="M2552.17,66.2V176.33l-41.94,41.94h-3.43l42.95-42.94V67.2l-39.08-39.08a5.17,5.17,0,1,1,2.39-1Z" style="fill: #091321"/>
        <path d="M2638.77,218.27h-3.43l-38.06-38.06a5.08,5.08,0,0,1-2.38.77,5.17,5.17,0,1,1,4.11-2.47Z" style="fill: #091321"/>
        <path d="M2447,22.75a5.16,5.16,0,0,1-3.94,5.3V218.27h-2.43V28a5.14,5.14,0,1,1,6.37-5.28Z" style="fill: #091321"/>
        <path d="M3095.4,28V69.63l45.73-45.73-1.72-1.71-41.58,41.58V28a5.16,5.16,0,1,0-2.43,0Z" style="fill: #091321"/>
        <path d="M2294.2,199.58a5.15,5.15,0,0,1-3.94,5v13.69h-2.43V204.58a5.15,5.15,0,1,1,6.37-5Z" style="fill: #091321"/>
        <path d="M2403.33,23.05a5.14,5.14,0,0,1-3.94,5V218.27H2397V28a5.15,5.15,0,1,1,6.37-5Z" style="fill: #091321"/>
        <path d="M2419.14,0a12.73,12.73,0,0,0-1.56,25.36V218.27h4.85V25a12.73,12.73,0,0,0-3.29-25Zm0,20.62a7.89,7.89,0,1,1,7.89-7.89A7.9,7.9,0,0,1,2419.14,20.62Z" style="fill: #091321"/>
        <path d="M2572.79,43.65a12.73,12.73,0,0,0-3.64,24.94V174.32l-44,44h10.29l40.93-40.93V68.59a12.73,12.73,0,0,0-3.63-24.94Zm0,20.62a7.89,7.89,0,1,1,7.88-7.88A7.9,7.9,0,0,1,2572.79,64.27Z" style="fill: #091321"/>
        <path d="M2791.05,0a12.73,12.73,0,0,0-2.43,25.23V153l-21.82,21.83v43.44h4.85V176.83L2793.47,155V25.23A12.73,12.73,0,0,0,2791.05,0Zm0,20.62a7.89,7.89,0,1,1,7.88-7.89A7.9,7.9,0,0,1,2791.05,20.62Z" style="fill: #091321"/>
        <path d="M2365.28,0a12.72,12.72,0,0,0-5.46,24.22L2231,153v5.05l-6.47-6.47h-8.79L2278.33,89V28a5.16,5.16,0,1,0-2.43,0V88l-63.55,63.56H2194L2256.5,89V28a5.16,5.16,0,1,0-2.42,0V88l-63.56,63.56h-9.6l-2.68-2.68L2237.1,90V24.93a12.74,12.74,0,1,0-7.27,0V87l-56.74,56.73-34.41-34.4v-30l53.7-53.7-.15-.16h.16a12.79,12.79,0,1,0-7.6-2.54L2138.68,69V54.36l26.77-26.77a5.07,5.07,0,0,0,3,.75,5.2,5.2,0,1,0-4.68-2.47l-25.07,25.06V25.23a12.74,12.74,0,1,0-4.85,0V55.79L2079,110.66V153.8l-43.35,43.35v21.12H2038V198.16l43.35-43.35V111.66l52.44-52.45V73.88l-35,35V152.5l-43.65,43.65v22.12h7.27V199.16l43.65-43.65V111.86l27.69-27.69v27.18l35.83,35.83-5.31,5.32v65.77h7.27V155.51l3.19-3.18,4.1,4.1h9.69v61.84H2191V156.43h19.41v61.84h2.42V156.43h9.71l8.48,8.48v53.36h4.85V169.76l28.9,28.9v19.61h4.85V196.65l-33.75-33.75V155L2365.43,25.46A12.73,12.73,0,0,0,2365.28,0Zm-139.7,12.73a7.89,7.89,0,1,1,7.88,7.89A7.9,7.9,0,0,1,2225.58,12.73Zm-41.08,0a7.89,7.89,0,1,1,7.89,7.89A7.9,7.9,0,0,1,2184.5,12.73Zm-56.13,0a7.89,7.89,0,1,1,7.89,7.89A7.9,7.9,0,0,1,2128.37,12.73Zm236.91,7.89a7.89,7.89,0,1,1,7.89-7.89A7.9,7.9,0,0,1,2365.28,20.62Z" style="fill: #091321"/>
        <path d="M2900.18,0a12.73,12.73,0,0,0-3.64,24.93V65.19l-43.65,43.65V152.5l-43.65,43.65v22.12h7.27V199.16l43.65-43.65V111.86l43.66-43.66V24.93A12.73,12.73,0,0,0,2900.18,0Zm0,20.62a7.89,7.89,0,1,1,7.89-7.89A7.9,7.9,0,0,1,2900.18,20.62Z" style="fill: #091321"/>
        <path d="M3501.92,218.27h-3.43l-19.4-19.4h-43.65l-44.37-44.36V71.68a5.11,5.11,0,1,1,2.43,0v81.8l42.94,42.94h43.65Z" style="fill: #091321"/>
        <path d="M3681.18,23.05a5.14,5.14,0,0,1-3.94,5V67.2l-43.65,43.65v43.66l-43.66,43.65v20.11h-2.42V197.15l43.65-43.65V109.85l43.65-43.65V28a5.15,5.15,0,1,1,6.37-5Z" style="fill: #091321"/>
        <path d="M3349.84,66.2V176.33l-41.94,41.94h-3.42l42.94-42.94V67.2l-39.08-39.08a5,5,0,0,1-.78.08,5.21,5.21,0,1,1,3.17-1.12Z" style="fill: #091321"/>
        <path d="M3436.44,218.27H3433L3395,180.21a5.08,5.08,0,0,1-2.37.77,5.18,5.18,0,1,1,4.1-2.47Z" style="fill: #091321"/>
        <path d="M3244.65,22.75a5.16,5.16,0,0,1-3.94,5.3V218.27h-2.42V28a5.14,5.14,0,1,1,6.36-5.28Z" style="fill: #091321"/>
        <polygon points="3808.81 150.46 3808.81 153.89 3808.2 154.51 3808.2 218.27 3805.77 218.27 3805.77 153.5 3808.81 150.46" style="fill: #091321"/>
        <polygon points="3808.81 128.64 3808.81 132.06 3786.37 154.51 3786.37 218.27 3783.94 218.27 3783.94 153.5 3808.81 128.64" style="fill: #091321"/>
        <path d="M3091.87,199.58a5.15,5.15,0,0,1-3.94,5v13.69h-2.43V204.58a5.15,5.15,0,1,1,6.37-5Z" style="fill: #091321"/>
        <path d="M3201,23.05a5.14,5.14,0,0,1-3.94,5V218.27h-2.42V28a5.15,5.15,0,1,1,6.36-5Z" style="fill: #091321"/>
        <path d="M3216.82,0a12.73,12.73,0,0,0-1.57,25.36V218.27h4.85V25a12.73,12.73,0,0,0-3.28-25Zm0,20.62a7.89,7.89,0,1,1,7.88-7.89A7.9,7.9,0,0,1,3216.82,20.62Z" style="fill: #091321"/>
        <path d="M3370.46,43.65a12.73,12.73,0,0,0-3.64,24.94V174.32l-44,44h10.29l40.94-40.93V68.59a12.73,12.73,0,0,0-3.64-24.94Zm0,20.62a7.89,7.89,0,1,1,7.88-7.88A7.9,7.9,0,0,1,3370.46,64.27Z" style="fill: #091321"/>
        <path d="M3588.72,0a12.73,12.73,0,0,0-2.42,25.23V153l-21.83,21.83v43.44h4.85V176.83L3591.15,155V25.23A12.73,12.73,0,0,0,3588.72,0Zm0,20.62a7.89,7.89,0,1,1,7.89-7.89A7.9,7.9,0,0,1,3588.72,20.62Z" style="fill: #091321"/>
        <path d="M3163,0a12.72,12.72,0,0,0-5.46,24.22L3028.71,153v5.05l-6.47-6.47h-8.79L3076,89V28a5.16,5.16,0,1,0-2.42,0V88L3010,151.58h-18.4L3054.18,89V28a5.16,5.16,0,1,0-2.43,0V88l-63.55,63.56h-9.61l-2.68-2.68L3034.78,90V24.93a12.74,12.74,0,1,0-7.28,0V87l-56.74,56.73-34.4-34.4v-30l53.7-53.7-.16-.16h.16a12.79,12.79,0,1,0-7.6-2.54L2936.36,69V54.36l26.77-26.77a5,5,0,0,0,3,.75,5.15,5.15,0,1,0-5.44-4.85,5.08,5.08,0,0,0,.77,2.38l-25.07,25.06V25.23a12.74,12.74,0,1,0-4.85,0V55.79l-54.87,54.87V153.8l-43.35,43.35v21.12h2.42V198.16l43.35-43.35V111.66l52.45-52.45V73.88l-35,35V152.5l-43.65,43.65v22.12h7.27V199.16l43.66-43.65V111.86l27.69-27.69v27.18l35.83,35.83L2962,152.5v65.77h7.28V155.51l3.18-3.18,4.1,4.1h9.69v61.84h2.43V156.43h19.4v61.84h2.42V156.43h9.71l8.48,8.48v53.36h4.85V169.76l28.91,28.9v19.61h4.85V196.65l-33.76-33.75V155L3163.11,25.46A12.73,12.73,0,0,0,3163,0Zm-139.7,12.73a7.89,7.89,0,1,1,7.89,7.89A7.9,7.9,0,0,1,3023.25,12.73Zm-41.07,0a7.89,7.89,0,1,1,7.88,7.89A7.89,7.89,0,0,1,2982.18,12.73Zm-56.13,0a7.89,7.89,0,1,1,7.88,7.89A7.89,7.89,0,0,1,2926.05,12.73ZM3163,20.62a7.89,7.89,0,1,1,7.89-7.89A7.89,7.89,0,0,1,3163,20.62Z" style="fill: #091321"/>
        <path d="M3697.85,0a12.73,12.73,0,0,0-3.64,24.93V65.19l-43.65,43.65V152.5l-43.65,43.65v22.12h7.28V199.16l43.65-43.65V111.86l43.65-43.66V24.93A12.73,12.73,0,0,0,3697.85,0Zm0,20.62a7.89,7.89,0,1,1,7.89-7.89A7.89,7.89,0,0,1,3697.85,20.62Z" style="fill: #091321"/>
        <path d="M3768.63,22.9a5.15,5.15,0,0,1-4.85,5.44,5.05,5.05,0,0,1-3-.75l-84.07,84.07v43.15l-43.35,43.35v20.11H3631V197.15l43.35-43.35V110.66l84.79-84.79a5.07,5.07,0,0,1-.76-2.38,5.15,5.15,0,0,1,10.29-.59Z" style="fill: #091321"/>
        <polygon points="3808.81 103.38 3808.81 113.67 3766.97 155.51 3766.97 218.27 3759.69 218.27 3759.69 152.5 3808.81 103.38" style="fill: #091321"/>
        <path d="M3787.74,0a12.72,12.72,0,0,0-7.61,22.93l-85.92,85.91V152.5l-43.65,43.65v22.12h7.28V199.16l43.65-43.65V111.86l86.24-86.24-.16-.16h.17a12.74,12.74,0,0,0,0-25.47Zm0,20.62a7.89,7.89,0,1,1,7.88-7.89A7.9,7.9,0,0,1,3787.74,20.62Z" style="fill: #091321"/>
      </g>
    </g>
  </g>
</svg>
