<?xml version="1.0" encoding="UTF-8"?>
<svg width="439px" height="277px" viewBox="0 0 439 277" version="1.1" xmlns="http://www.w3.org/2000/svg" xmlns:xlink="http://www.w3.org/1999/xlink">
    <!-- Generator: Sketch 60 (88103) - https://sketch.com -->
    <title>Group 3 Copy</title>
    <desc>Created with Sketch.</desc>
    <defs>
        <linearGradient x1="-1.69014085%" y1="49.7913769%" x2="101.690141%" y2="49.7913769%" id="linearGradient-1">
            <stop stop-color="#00C1FF" offset="0%"></stop>
            <stop stop-color="#0BB4FF" offset="6%"></stop>
            <stop stop-color="#5F54FF" offset="52%"></stop>
            <stop stop-color="#9418FF" offset="85%"></stop>
            <stop stop-color="#A900FF" offset="100%"></stop>
        </linearGradient>
        <linearGradient x1="32.0128824%" y1="81.7675351%" x2="56.4573269%" y2="24.3437238%" id="linearGradient-2">
            <stop stop-color="#8F1DFF" offset="0%"></stop>
            <stop stop-color="#7B34FF" offset="3%"></stop>
            <stop stop-color="#2399FF" offset="17%"></stop>
            <stop stop-color="#00C1FF" offset="23%"></stop>
            <stop stop-color="#723EFF" offset="74%"></stop>
            <stop stop-color="#A900FF" offset="100%"></stop>
        </linearGradient>
    </defs>
    <g id="Fixvember" stroke="none" stroke-width="1" fill="none" fill-rule="evenodd">
        <g id="Group-3-Copy">
            <g id="Asset-5-Copy">
                <g id="Group" transform="translate(0.000000, 48.879999)" fill="#FFFFFF" fill-rule="nonzero">
                    <path d="M35.058799,28.8451991 L0,49.1143985 L0,108.059997 L35.005599,87.8439974 C39.5518304,85.0999877 42.1964195,80.0568177 41.8683988,74.7567978 L41.8683988,33.899199 C41.8683988,27.7811991 39.9531988,26.0255992 35.058799,28.8451991 Z M24.4187993,77.2571977 L17.7687995,81.0875976 L17.7687995,55.4983983 L24.4187993,51.6679984 L24.4187993,77.2571977 Z" id="Shape"></path>
                    <polygon id="Path" points="83.7899975 19.0031994 83.7899975 0.70239995 49.1035985 20.7587994 49.1035985 79.7043976 83.7899975 59.7011982 83.7899975 41.5599987 76.5547977 45.7627986 76.5547977 39.1659988 83.7899975 35.0163989 83.7899975 25.5999992 76.5547977 29.7495991 76.5547977 23.1527993"></polygon>
                </g>
                <polygon id="Path" stroke="url(#linearGradient-1)" stroke-width="1.39999998" fill="#060E17" fill-rule="nonzero" points="112.624397 32.930799 112.624397 45.4859987 106.027597 49.3163985 106.027597 36.7611989 90.4399973 45.7519986 90.4399973 92.2487973 97.8347971 100.441597 120.976796 87.0883974 128.211996 70.4367979 128.211996 23.9399993"></polygon>
                <path d="M181.305595,16.2791995 L176.943195,13.7787996 L161.408795,4.78799986 L146.353196,13.4595996 L141.937596,15.9599995 C137.440266,18.6877419 134.835448,23.6922742 135.181196,28.9407991 L135.181196,69.7983979 C135.181196,75.8099978 136.936796,77.8315977 141.937596,75.1183978 L161.408795,63.8399981 L181.305595,75.3311978 C185.721195,77.8847977 188.115194,75.8631978 188.115194,70.0111979 L188.115194,29.2599991 C188.678962,23.9541823 185.991452,18.8311148 181.305595,16.2791995 Z" id="Path" fill="#FFFFFF" fill-rule="nonzero"></path>
                <g id="Group" transform="translate(113.719997, 86.119997)" fill="#FFFFFF" fill-rule="nonzero">
                    <g id="Path">
                        <path d="M31.994799,46.8799986 L3.31999984,30.2283991 C-0.457200046,28.0471991 -1.09560003,24.9083992 3.95839982,21.8759993 L38.5915988,2.61759989 C43.2052037,0.120299151 48.7675935,0.120299151 53.3811984,2.61759989 L82.2687975,19.1095994 L66.734398,27.7811991 L59.1799982,23.4187993 L40.1343988,34.058799 L47.6887985,38.3679988 L31.994799,46.8799986 Z"></path>
                        <polygon points="75.4591977 71.6179979 39.2299988 50.8699985 89.2911973 23.0463993 125.679996 43.7943987 109.985997 52.1999984 102.431597 47.8907986 97.1115971 50.9231985 104.665997 55.2855983 96.5795971 59.7543982 89.0251973 55.4451983 83.7051975 58.4775982 91.2595972 62.7867981"></polygon>
                        <polygon points="133.606796 104.921197 115.093197 94.2811972 124.349996 88.9611973 111.103197 88.3759974 110.251997 80.9811976 101.048397 86.3011974 82.6943975 75.6611977 132.755596 47.8375986 150.949995 58.4775982 148.502796 67.840798 165.260795 66.670398 183.667995 77.3103977"></polygon>
                    </g>
                    <g transform="translate(140.119996, 80.799998)">
                        <path d="M51.5811984,49.2315985 C46.9830155,51.8612563 41.3365818,51.8612563 36.7383988,49.2315985 L0.402799923,28.3771991 L50.4639984,0.553599924 L86.6399974,21.6207993 C91.4279972,24.3339992 91.4811972,26.9407991 86.1079974,29.9731991 L75.4679977,35.9315989 C71.5539013,37.8705024 67.0161749,38.1204619 62.9127981,36.6231989 L62.9127981,36.6231989 C65.147198,38.5383988 65.359998,41.5707987 61.2103981,43.8583986 L51.5811984,49.2315985 Z M38.2279988,36.0379989 L46.1547986,31.622399 L39.3451988,27.7387991 L31.471599,32.101199 L38.2279988,36.0379989 Z M54.7199983,26.7811991 L62.7531981,22.3655993 L55.9435983,18.4287994 L47.9103985,22.8975993 L54.7199983,26.7811991 Z" id="Shape"></path>
                        <polygon id="Path" points="101.482797 29.9199991 137.711996 50.6679984 87.6507973 78.4915976 51.4215984 57.7435982 66.902798 49.1251985 74.4571977 53.4343984 79.7771976 50.4019985 72.2227978 46.0927986 80.3091976 41.5707987 87.8635973 45.9331986 93.1835972 42.9007987 85.6291974 38.5383988"></polygon>
                        <path d="M138.456796,107.645197 L120.102796,97.0051971 L130.370396,91.3127972 L123.454396,87.3227974 L113.239997,93.1747972 L94.8859971,82.5347975 L145.159996,54.8707983 L181.655195,75.7783977 C186.123994,78.3319976 186.283594,81.0983975 181.069995,84.1307975 L168.621195,91.0467972 C164.765416,93.3970883 160.056096,93.885607 155.799995,92.3767972 L155.799995,92.3767972 C158.300395,94.2387972 157.608795,97.1647971 154.363595,98.973597 L138.456796,107.645197 Z M149.415996,81.0451975 L157.342795,76.6295977 L150.479995,72.4799978 L142.499996,76.8955977 L149.415996,81.0451975 Z" id="Shape"></path>
                    </g>
                </g>
                <g id="Group" transform="translate(160.599995, 4.800000)" fill="#A4ACBC" fill-rule="nonzero">
                    <g transform="translate(34.719999, 19.279999)">
                        <path d="M34.9827989,20.5015994 L0.0303999344,0.285599956 L0.0303999344,59.2311982 L17.4799994,69.3923979 L17.4799994,55.7199983 L34.7699989,65.668398 C39.4515988,68.3815979 41.6859987,66.040798 41.6859987,60.6143982 L41.6859987,33.482399 C42.2408119,28.2057598 39.6063752,23.1041521 34.9827989,20.5015994 L34.9827989,20.5015994 Z M24.3427992,42.6327987 L17.4799994,38.8023988 L17.4799994,28.6943991 L24.1299992,32.524799 L24.3427992,42.6327987 Z" id="Shape"></path>
                        <path d="M84.5651974,67.370798 L84.5651974,49.1231985 L55.5179983,32.311999 C51.2619984,29.8647991 48.7083985,31.141599 48.7083985,37.6319989 L48.7083985,62.5295981 L56.6883983,67.157998 L56.6883983,73.8611978 L48.7083985,69.2327979 L48.7083985,87.6399974 L77.7023976,104.397997 C82.2243975,106.951597 84.5119974,104.397997 84.5119974,99.077997 L84.5119974,73.9143978 L76.6383977,69.3391979 L76.6383977,62.7955981 L84.5651974,67.370798 Z" id="Path"></path>
                    </g>
                    <path d="M20.7055994,11.4791996 L16.3431995,8.97879964 L0.915199943,0.0411999045 L0.915199943,59.0399982 L20.7055994,70.4779978 C25.1211992,73.0315977 27.5151992,71.0099978 27.5151992,65.157998 L27.5151992,24.4599992 C28.0789671,19.1541824 25.3914562,14.0311148 20.7055994,11.4791996 Z" id="Path"></path>
                </g>
                <path d="M215.619594,201.202394 L204.500794,205.937194 L225.780793,218.332794 L223.120793,222.907993 L190.402794,204.021994 L191.839194,215.991994 L203.543194,222.695193 L200.883194,227.270393 L186.944794,219.237194 L184.710395,200.723594 L172.633995,193.647994 C170.683662,195.927866 168.086053,197.560649 165.185995,198.329594 L164.068795,198.329594 L164.068795,226.951193 L180.028795,238.229593 L180.028795,254.189592 L174.708795,254.189592 L174.708795,239.878793 L164.068795,232.643593 L164.068795,254.615192 L158.748795,254.615192 L158.748795,219.183994 L148.108796,225.993593 L148.108796,238.655193 L142.788796,238.655193 L142.788796,222.695193 L158.748795,211.363594 L158.748795,198.489194 C157.063127,198.246104 155.438605,197.686547 153.960795,196.839994 C152.433792,195.958584 151.081414,194.804555 149.970796,193.435194 L126.243596,206.681994 L123.689996,225.142393 L109.591997,232.962793 L107.038397,228.334393 L118.795596,221.790793 L120.444796,209.873994 L98.7923971,221.897193 L96.2387972,217.268794 L129.275996,198.914794 L118.210397,194.020394 L106.399997,200.563994 L103.846397,195.935594 L117.891197,188.061994 L134.968396,195.722794 L147.363996,188.806794 L147.044796,187.902394 C146.258911,184.990287 146.388937,181.906802 147.417196,179.071195 L123.955996,165.398795 L106.772397,172.687195 L92.8339973,164.547595 L95.4939972,160.025595 L107.144797,166.781995 L118.210397,162.100395 L96.9303971,149.651596 L99.5903971,145.076396 L132.308396,164.068795 L130.871996,152.045596 L119.221196,145.289196 L121.881196,140.713996 L135.713196,148.959996 L137.894396,167.526795 L150.130396,174.655595 C154.736623,169.171267 162.619069,167.79287 168.813112,171.388564 C175.007155,174.984259 177.719066,182.51277 175.240795,189.232394 L198.755194,202.798394 L215.991994,195.456794 L229.930393,203.489994 L227.323593,208.065194 L215.619594,201.202394 Z M169.388795,188.806794 C171.643207,184.866341 170.802579,179.882387 167.38041,176.899385 C163.95824,173.916382 158.906192,173.763867 155.310313,176.535004 C151.714433,179.306141 150.574692,184.230309 152.5873,188.299579 C154.599909,192.368848 159.205186,194.451604 163.589995,193.275594 C166.041172,192.618186 168.128544,191.009569 169.388795,188.806794 L169.388795,188.806794 Z M205.990394,230.355993 L210.937994,233.228793 L213.597994,228.600393 L208.650394,225.780793 L205.990394,230.355993 Z M231.047593,221.311993 L228.387593,225.940393 L240.729993,233.069193 L243.389993,228.440793 L231.047593,221.311993 Z M142.788796,243.975193 L142.788796,249.295193 L148.108796,249.295193 L148.108796,243.975193 L142.788796,243.975193 Z M158.748795,259.935192 L158.748795,275.895192 L164.068795,275.895192 L164.068795,259.935192 L158.748795,259.935192 Z M101.079997,203.383594 L98.4731971,198.755194 L93.5255972,201.521594 L96.0791972,206.149994 L101.079997,203.383594 Z M78.2039977,227.110793 L80.7575976,231.792393 L93.2063972,224.876393 L90.4399973,220.194793 L78.2039977,227.110793 Z M116.401597,137.575196 L111.719997,134.702396 L109.059997,139.330796 L113.954397,142.203596 L116.401597,137.575196 Z M94.0043972,141.937596 L81.6619976,134.808796 L79.0019977,139.383996 L91.3443973,146.565996 L94.0043972,141.937596 Z" id="Shape" stroke="url(#linearGradient-2)" stroke-width="1.39999998" fill="#000000" fill-rule="nonzero"></path>
                <line x1="161.515195" y1="0" x2="161.515195" y2="68.415198" id="Path" stroke="#0B1624" stroke-width="5.31999984"></line>
                <g id="Group" transform="translate(153.759996, 31.919999)">
                    <circle id="Oval" stroke="#0B1624" stroke-width="5.31999984" cx="7.75519968" cy="7.87359977" r="7.60759977"></circle>
                    <circle id="Oval" fill="#0B1624" fill-rule="nonzero" cx="7.75519968" cy="7.87359977" r="7.60759977"></circle>
                </g>
            </g>
            <path d="M300.965,136.081 C301.575,136.081 302.2225,135.8385 302.9075,135.3535 C303.5925,134.8685 304.2325,134.2635 304.8275,133.5385 C305.4225,132.8135 305.905,132.106 306.275,131.416 C307.725,130.626 308.69,130.191 309.17,130.111 C309.27,130.101 309.32,130.051 309.32,129.961 C309.32,129.871 309.2575,129.7835 309.1325,129.6985 C309.0075,129.6135 308.855,129.571 308.675,129.571 C308.605,129.571 308.55,129.576 308.51,129.586 C308.34,129.616 307.74,129.886 306.71,130.396 C306.76,130.256 306.785,130.106 306.785,129.946 C306.785,129.846 306.775,129.776 306.755,129.736 C306.695,129.566 306.505,129.436 306.185,129.346 C305.995,129.246 305.77,129.196 305.51,129.196 C304.97,129.196 304.3475,129.3985 303.6425,129.8035 C302.9375,130.2085 302.255,130.726 301.595,131.356 C302.195,130.316 302.9325,129.276 303.8075,128.236 C304.6825,127.196 305.5425,126.321 306.3875,125.611 C307.2325,124.901 307.92,124.496 308.45,124.396 C308.58,124.366 308.645,124.296 308.645,124.186 C308.645,124.056 308.5575,123.8935 308.3825,123.6985 C308.2075,123.5035 308.0025,123.336 307.7675,123.196 C307.5325,123.056 307.33,122.991 307.16,123.001 C306.56,123.051 305.5925,123.8185 304.2575,125.3035 C302.9225,126.7885 301.7125,128.4285 300.6275,130.2235 C299.5425,132.0185 299,133.401 299,134.371 C299,134.471 299.005,134.546 299.015,134.596 C299.045,134.856 299.24,135.096 299.6,135.316 C299.66,135.476 299.755,135.616 299.885,135.736 L299.885,135.736 L299.945,135.781 C300.245,135.981 300.585,136.081 300.965,136.081 Z M301.43,133.186 C301.83,132.636 302.2925,132.0935 302.8175,131.5585 C303.3425,131.0235 303.845,130.586 304.325,130.246 C304.805,129.906 305.185,129.731 305.465,129.721 C305.475,130.101 305.29,130.631 304.91,131.311 C303.55,132.001 302.39,132.626 301.43,133.186 Z M300.513281,135.50725 L300.425,135.496 C300.545,135.246 300.92,134.881 301.55,134.401 C302.18,133.921 302.945,133.396 303.845,132.826 C303.215,133.616 302.5725,134.276 301.9175,134.806 C301.2625,135.336 300.765,135.566 300.425,135.496 L300.513281,135.50725 Z M309.2,141.856 C309.4,141.856 309.57,141.776 309.71,141.616 C309.85,141.456 309.92,141.321 309.92,141.211 C309.92,141.141 309.88,141.131 309.8,141.181 C309.66,141.271 309.505,141.316 309.335,141.316 C309.215,141.316 309.12,141.306 309.05,141.286 C309.09,140.556 309.5775,139.236 310.5125,137.326 C311.4475,135.416 312.45,133.611 313.52,131.911 C314.59,130.211 315.275,129.336 315.575,129.286 C315.655,129.266 315.695,129.236 315.695,129.196 C315.695,129.126 315.6225,129.0385 315.4775,128.9335 C315.3325,128.8285 315.1525,128.736 314.9375,128.656 C314.7225,128.576 314.51,128.536 314.3,128.536 C314.2,128.536 314.125,128.541 314.075,128.551 C313.985,128.561 313.835,128.706 313.625,128.986 C313.405,129.206 313.1675,129.446 312.9125,129.706 C312.6575,129.966 312.395,130.231 312.125,130.501 C311.125,131.531 310.2875,132.3835 309.6125,133.0585 C308.9375,133.7335 308.385,134.261 307.955,134.641 C308.115,134.071 308.3925,133.4485 308.7875,132.7735 C309.1825,132.0985 309.58,131.4935 309.98,130.9585 C310.38,130.4235 310.61,130.141 310.67,130.111 C310.8,130.071 310.865,130.011 310.865,129.931 C310.865,129.831 310.77,129.721 310.58,129.601 C310.39,129.481 310.175,129.3835 309.935,129.3085 C309.695,129.2335 309.525,129.206 309.425,129.226 C309.185,129.276 308.8275,129.666 308.3525,130.396 C307.8775,131.126 307.4525,131.931 307.0775,132.811 C306.7025,133.691 306.515,134.376 306.515,134.866 C306.515,135.066 306.55,135.216 306.62,135.316 C306.68,135.386 306.84,135.511 307.1,135.691 C307.36,135.871 307.57,135.996 307.73,136.066 C307.78,136.096 307.825,136.111 307.865,136.111 C307.915,136.111 307.975,136.086 308.045,136.036 C308.155,135.946 308.6425,135.3885 309.5075,134.3635 C310.3725,133.3385 311.235,132.301 312.095,131.251 C311.045,132.961 310.085,134.741 309.215,136.591 C308.345,138.441 307.91,139.756 307.91,140.536 C307.91,140.816 308.0025,141.0685 308.1875,141.2935 C308.3725,141.5185 308.565,141.671 308.765,141.751 C308.875,141.821 309.02,141.856 309.2,141.856 Z" id="by" fill="#19A3FF" fill-rule="nonzero"></path>
            <g id="logo" transform="translate(322.627500, 125.036000)" fill="#A900FF" fill-rule="nonzero">
                <path d="M14.0306388,5.05295956 C15.7947304,7.11266427 16.5148979,9.86857257 15.9839986,12.5279989 C18.7531184,11.423519 19.8273583,9.57167918 20.1542383,7.71983934 C20.1542383,7.71983934 21.0981582,4.21055964 22.5655181,2.75183976 C19.6660783,3.20687972 19.3730383,2.06927982 14.0306388,5.05583956" id="Shape"></path>
                <path d="M9.59471917,8.63999926 C9.01506248,6.84947158 8.01548653,5.22358687 6.67943942,3.89807966 C6.67943942,3.89807966 10.7114391,4.95791957 13.0327189,12.4833589 C10.8424791,11.822399 9.90791915,9.66095917 9.59039917,8.63999926 M14.5835987,13.5647988 L14.5835987,13.5647988 C14.6483987,13.2047989 15.7168786,9.56447918 13.6000788,6.60815943 C10.0555191,2.67983977 4.71311959,2.12831982 4.71311959,2.12831982 C5.7556795,4.14431964 5.7887995,6.02639948 6.9278394,9.86399915 C8.30807928,13.8369588 13.4006388,14.1047988 13.7779188,14.1119988 C14.1199188,14.6519987 14.9039987,15.3791987 16.6989586,15.7550386 L16.8976785,14.8089587 C15.3489587,14.4849588 14.7823187,13.8887988 14.5879187,13.5604788" id="Shape"></path>
                <path d="M5.28479955,0.971999916 C3.03191974,2.03327982 2.12831982,4.6238396 2.12831982,8.58383926 C2.12831982,12.4718389 3.03047974,15.0782387 5.28479955,16.2158386 L5.03207957,17.1878385 C1.56959986,15.9739186 0,13.2753589 0,8.59967926 C0,3.88799967 1.56959986,1.1879999 5.03207957,0 L5.28479955,0.971999916 Z" id="Shape"></path>
                <path d="M21.9686381,0 C25.4339978,1.1865599 26.9999977,3.88799967 26.9999977,8.59823926 C26.9999977,13.2782389 25.4303978,15.9739186 21.9679181,17.1777585 L21.6979181,16.2071986 C23.9536779,15.0739187 24.8543979,12.4631989 24.8543979,8.57519926 C24.8543979,4.6151996 23.9522379,2.02751983 21.6979181,0.966239917 L21.9686381,0 Z" id="Shape"></path>
                <path d="M37.3219168,12.7497589 C36.2774285,13.150803 35.1644168,13.3430727 34.0459171,13.3156789 C31.2904773,13.3156789 29.9663974,12.121919 30.3926374,9.10655922 C30.7857573,6.26255946 31.8729573,5.10047956 34.755837,5.10047956 C35.8884532,5.08176388 37.0146874,5.27366072 38.0771967,5.66639951 L37.6855168,7.40879936 L35.118717,7.39295936 C33.9530371,7.39295936 33.5591971,7.78607933 33.3698371,9.19871921 C33.1646371,10.7539191 33.4339171,11.036159 34.567197,11.036159 C35.4191712,11.0412234 36.2707787,10.9994002 37.1181568,10.9108791 L37.3219168,12.7497589 Z" id="Shape"></path>
                <path d="M41.9219964,9.3412792 C41.7016764,10.9439991 41.8427964,11.319839 42.8680763,11.319839 C43.8602362,11.319839 44.1763162,10.8964791 44.4275962,9.12095921 C44.6788762,7.48799936 44.5067962,7.10495939 43.5448763,7.10495939 C42.5059163,7.10495939 42.1905564,7.49663935 41.9219964,9.3369592 M47.3860759,9.3427192 C46.954076,12.2803189 45.7646361,13.3156789 42.7658363,13.3156789 C39.7670366,13.3156789 38.5034367,12.185279 38.9433566,9.12239921 C39.3551966,6.15455947 40.5503965,5.10047956 43.5916762,5.10047956 C46.599116,5.10047956 47.8281559,6.26399946 47.3875159,9.3427192" id="Shape"></path>
                <path d="M53.5125554,6.9350394 C52.3151955,6.9350394 52.0322355,7.18559938 51.7953555,8.99279923 C51.6067156,10.4068791 51.5750356,10.9713591 52.2835155,10.9252791 C52.9472484,10.860834 53.5694407,10.5729653 54.0482353,10.1087991 L54.4723153,6.9407994 L53.5125554,6.9350394 Z M56.4883151,13.1270389 L54.2361553,13.1270389 L54.2051953,11.807999 C53.4068459,12.6778168 52.3108289,13.2159316 51.1343956,13.3156789 C49.3077558,13.3156789 48.4891158,12.026879 48.8815158,9.04319922 C49.3135158,5.7758395 50.5987156,5.10047956 52.2835155,5.10047956 C53.1286562,5.10020558 53.9720906,5.17635565 54.8035153,5.32799954 C54.7954008,4.79159375 54.832492,4.25545783 54.9143953,3.72527968 L55.1815152,2.14127982 L58.044955,2.14127982 L56.4883151,13.1270389 Z" id="Shape"></path>
                <path d="M63.1979946,8.47727927 C63.9071945,8.41391928 64.2837545,8.30447929 64.3499945,7.62911934 C64.3975145,7.11071939 64.1923145,7.0156794 63.4039145,7.03151939 C62.4419946,7.04735939 62.1273547,7.32959937 61.8760747,8.60255926 L63.1979946,8.47727927 Z M66.3328743,12.6878389 C65.189063,13.1334925 63.9679601,13.3469224 62.7407946,13.3156789 C59.4021549,13.3156789 58.492795,11.855519 58.7872749,9.12239921 C59.1472749,5.87231949 60.6311948,5.10191956 63.4492745,5.10191956 C66.5366343,5.10191956 67.3480742,6.12287947 67.1025542,7.90991932 C66.8815142,9.37151919 65.8893543,9.78911916 63.8207945,9.95183914 L61.6939147,10.1087991 C61.7270347,10.9425591 62.1352747,11.099519 63.0179946,11.099519 C63.7091945,11.099519 65.1837544,11.0203191 66.1348743,10.9108791 L66.3328743,12.6878389 Z" id="Shape"></path>
                <path d="M73.2621537,3.11183973 C72.3002338,3.11183973 71.9078338,3.33215971 71.7659938,4.33583963 L71.5931938,5.47199953 L73.9691936,5.47199953 L73.8100736,6.64271943 L71.4340738,6.64271943 L70.3943939,14.0097588 C70.3740535,14.6444438 70.0951445,15.2432284 69.6223815,15.6671787 C69.1496185,16.091129 68.5240968,16.3033925 67.8909542,16.2547186 C67.2542008,16.2503407 66.6182739,16.2080257 65.9865543,16.1279986 L66.2234343,14.9961587 L67.4042342,14.9961587 C68.3503141,14.9961587 68.7427141,14.7758387 68.8859941,13.7721588 L69.893994,6.64415943 L68.5259941,6.64415943 L68.6699941,5.54399952 L70.071834,5.46623953 L70.261194,4.09823965 C70.2800351,3.46310922 70.5603372,2.86395559 71.0358196,2.44245572 C71.511302,2.02095584 72.1397479,1.81453355 72.7725537,1.87199984 C73.5245597,1.86272863 74.2764321,1.89927631 75.0239935,1.98143983 L74.7727136,3.11903973 L73.2621537,3.11183973 Z" id="Shape"></path>
                <path d="M80.4441531,6.68735942 L80.0121531,6.68735942 C79.1481532,6.68735942 78.3115133,7.26335937 76.9802334,8.24255929 L76.3027134,13.1270389 L74.7741536,13.1270389 L75.8599135,5.46191953 L77.0263134,5.46191953 L76.9471134,7.22159938 C78.1711133,5.96591949 79.3713532,5.25743955 80.4124731,5.25743955 L80.822153,5.25743955 L80.4441531,6.68735942 Z" id="Shape"></path>
                <path d="M85.7519926,8.82287924 C86.6973525,8.76095925 87.1063125,8.49455927 87.2315925,7.61327934 C87.3755925,6.56063944 86.8391925,6.53327944 85.6101526,6.53327944 C84.0527928,6.53327944 83.5163928,6.9566394 83.1859128,9.06191922 L85.7519926,8.82287924 Z M87.9566324,12.8764789 C86.9305499,13.1898333 85.8612821,13.3385588 84.7886327,13.3171189 C82.1246329,13.3171189 81.213833,11.949119 81.590393,9.09215922 C82.0007929,6.10703947 83.0548728,5.25887955 85.8383926,5.25887955 C88.3583924,5.25887955 88.9732723,6.20207947 88.7522324,7.74143933 C88.5009524,9.2649592 87.6189525,9.81503915 85.7447926,9.95615914 L83.0807928,10.1923191 C83.0649528,11.731679 83.7892728,12.044159 85.0168727,12.044159 C85.8686326,12.044159 86.9702325,11.950559 87.8529524,11.855519 L87.9566324,12.8764789 Z" id="Shape"></path>
                <path d="M92.1758321,9.3254392 C91.0742322,8.80703924 90.5543922,8.21087929 90.6955122,7.09343939 C90.8690322,5.63327951 91.9245521,5.22143955 93.9405519,5.25599955 C95.0419607,5.27462541 96.1410304,5.36409016 97.2309516,5.52383952 L97.0415916,6.60383943 C96.0659917,6.57359943 95.1515918,6.54047944 93.9866319,6.52463944 C92.725912,6.52463944 92.2535921,6.55631944 92.1743921,7.19999938 C92.0966321,7.77599933 92.462392,7.93871932 93.089512,8.22095929 L95.1688718,9.16415921 C96.3647917,9.71423916 96.8543917,10.2009591 96.6952717,11.378879 C96.4598317,13.1227189 95.2149518,13.2955637 93.056392,13.2955637 C92.0603202,13.2976475 91.0655298,13.223995 90.0806322,13.0751989 L90.2541522,11.944799 C90.9633522,12.006719 91.9547921,12.023999 92.663992,12.023999 C94.6015119,12.023999 95.1055118,11.867039 95.1991118,11.237759 C95.2934318,10.6732791 94.9111118,10.5782391 94.2379119,10.2643191 L92.1758321,9.3254392 Z" id="Shape"></path>
                <path d="M101.375991,5.14799956 C101.286786,5.7831411 101.160572,6.41253215 100.997991,7.03295939 C102.333591,5.8550395 103.449591,5.25599955 104.554071,5.25599955 C105.119389,5.18277241 105.683342,5.40074431 106.052461,5.83513863 C106.42158,6.26953295 106.545666,6.86127326 106.382151,7.40735936 L105.563511,13.1241589 L104.051511,13.1241589 L104.791671,7.78463933 C104.917671,6.82559941 104.744151,6.54335944 104.083191,6.54335944 C103.137111,6.54335944 102.224871,7.18703938 100.906551,8.22383929 L100.229031,13.1198389 L98.6975915,13.1198389 L100.256391,2.12543982 L101.768391,2.12543982 L101.375991,5.14799956 Z" id="Shape"></path>
            </g>
        </g>
    </g>
</svg>