<?xml version="1.0" encoding="UTF-8"?>
<svg width="163px" height="33px" viewBox="0 0 163 33" version="1.1" xmlns="http://www.w3.org/2000/svg" xmlns:xlink="http://www.w3.org/1999/xlink">
    <!-- Generator: Sketch 54.1 (76490) - https://sketchapp.com -->
    <title>developer</title>
    <desc>Created with Sketch.</desc>
    <defs>
        <polygon id="path-1" points="0 0 32.7147887 0 32.7147887 32.9998263 0 32.9998263"></polygon>
    </defs>
    <g id="developer" stroke="none" stroke-width="1" fill="none" fill-rule="evenodd">
        <g id="Group-5">
            <g id="developer.com" transform="translate(39.531644, 8.447286)" fill="#2A4549" fill-rule="nonzero">
                <path d="M1.76663064,8.91954074 C1.76663064,9.99501826 1.99288107,10.8954045 2.44538872,11.6207266 C2.89789638,12.3460486 3.62313749,12.7087042 4.62113382,12.7087042 C5.3959757,12.7087042 6.03288616,12.3726225 6.53188433,11.7004491 C7.03088249,11.0282756 7.28037783,10.0637994 7.28037783,8.80699133 C7.28037783,7.53767775 7.02313419,6.59821221 6.50863919,5.98856652 C5.99414418,5.37892084 5.35878338,5.07410257 4.60253771,5.07410257 C3.75950975,5.07410257 3.07610947,5.39924205 2.55231637,6.04953079 C2.02852326,6.69981952 1.76663064,7.65647993 1.76663064,8.91954074 Z M4.28640381,3.60158112 C5.04884821,3.60158112 5.68730834,3.76415086 6.20180334,4.08929523 C6.49934262,4.27687852 6.83716861,4.60514435 7.21529144,5.07410257 L7.21529144,0 L8.82385513,0 L8.82385513,13.8248192 L7.31757006,13.8248192 L7.31757006,12.4273307 C6.92704975,13.0463555 6.46525092,13.4934223 5.93215972,13.7685445 C5.39906851,14.0436666 4.78850227,14.1812257 4.10044269,14.1812257 C2.99086913,14.1812257 2.03007962,13.7107113 1.21804533,12.7696685 C0.406011051,11.8286256 7.10542736e-14,10.576526 7.10542736e-14,9.01333191 C7.10542736e-14,7.55018227 0.37036886,6.2824509 1.11111769,5.21009977 C1.85186652,4.13774864 2.91028464,3.60158112 4.28640381,3.60158112 Z M15.444071,3.55468553 C16.1507268,3.55468553 16.8356767,3.72194479 17.4989414,4.05646832 C18.162206,4.39099185 18.6673953,4.82399011 19.0145245,5.35547609 C19.3492562,5.86195097 19.5724073,6.45282946 19.6839845,7.1281293 C19.7831643,7.59083474 19.8327534,8.32865127 19.8327534,9.34160103 L12.5337795,9.34160103 C12.5647731,10.3608036 12.8034209,11.1783418 13.2497298,11.7942403 C13.6960387,12.4101387 14.3871873,12.7180833 15.3231963,12.7180833 C16.1972179,12.7180833 16.8945651,12.4273336 17.4152589,11.8458254 C17.7127981,11.5081755 17.923552,11.1173828 18.0475267,10.6734357 L19.6932826,10.6734357 C19.6498914,11.0423495 19.505773,11.4534634 19.260923,11.9067897 C19.0160729,12.3601159 18.741783,12.7305874 18.438045,13.0182151 C17.9297487,13.5184372 17.3005866,13.856082 16.5505396,14.0311598 C16.1476219,14.1312042 15.6920217,14.1812257 15.1837254,14.1812257 C13.9439784,14.1812257 12.8933086,13.726343 12.0316844,12.8165641 C11.1700603,11.9067851 10.7392547,10.6328011 10.7392547,8.99457368 C10.7392547,7.3813574 11.1731596,6.07142043 12.0409825,5.06472345 C12.9088054,4.05802647 14.0431569,3.55468553 15.444071,3.55468553 Z M18.1126131,8.00038722 C18.044427,7.2688124 17.8863616,6.68418659 17.6384122,6.24649225 C17.1797058,5.43363134 16.4141735,5.02720698 15.3417924,5.02720698 C14.5731492,5.02720698 13.9284905,5.30701452 13.4077967,5.86663799 C12.887103,6.42626147 12.6112634,7.1375041 12.5802697,8.00038722 L18.1126131,8.00038722 Z M22.7058527,3.77978435 L25.3650967,11.9583748 L28.1452155,3.77978435 L29.9769325,3.77978435 L26.2205179,13.8248192 L24.4352911,13.8248192 L20.762559,3.77978435 L22.7058527,3.77978435 Z M35.5557661,3.55468553 C36.2624219,3.55468553 36.9473718,3.72194479 37.6106364,4.05646832 C38.2739011,4.39099185 38.7790904,4.82399011 39.1262196,5.35547609 C39.4609513,5.86195097 39.6841024,6.45282946 39.7956796,7.1281293 C39.8948594,7.59083474 39.9444485,8.32865127 39.9444485,9.34160103 L32.6454746,9.34160103 C32.6764682,10.3608036 32.9151159,11.1783418 33.3614249,11.7942403 C33.8077338,12.4101387 34.4988824,12.7180833 35.4348913,12.7180833 C36.308913,12.7180833 37.0062602,12.4273336 37.5269539,11.8458254 C37.8244932,11.5081755 38.035247,11.1173828 38.1592217,10.6734357 L39.8049777,10.6734357 C39.7615865,11.0423495 39.6174681,11.4534634 39.3726181,11.9067897 C39.127768,12.3601159 38.8534781,12.7305874 38.5497401,13.0182151 C38.0414438,13.5184372 37.4122817,13.856082 36.6622347,14.0311598 C36.259317,14.1312042 35.8037168,14.1812257 35.2954205,14.1812257 C34.0556735,14.1812257 33.0050037,13.726343 32.1433795,12.8165641 C31.2817554,11.9067851 30.8509497,10.6328011 30.8509497,8.99457368 C30.8509497,7.3813574 31.2848547,6.07142043 32.1526776,5.06472345 C33.0205005,4.05802647 34.154852,3.55468553 35.5557661,3.55468553 Z M38.2243081,8.00038722 C38.1561221,7.2688124 37.9980567,6.68418659 37.7501073,6.24649225 C37.2914009,5.43363134 36.5258686,5.02720698 35.4534875,5.02720698 C34.6848443,5.02720698 34.0401856,5.30701452 33.5194918,5.86663799 C32.9987981,6.42626147 32.7229585,7.1375041 32.6919648,8.00038722 L38.2243081,8.00038722 Z M42.0458091,0.0468955875 L43.7194592,0.0468955875 L43.7194592,13.8248192 L42.0458091,13.8248192 L42.0458091,0.0468955875 Z M50.1816081,12.7368416 C51.2911817,12.7368416 52.052065,12.3132223 52.4642809,11.4659711 C52.8764968,10.61872 53.0826016,9.67612807 53.0826016,8.63816721 C53.0826016,7.70025077 52.9338342,6.93742351 52.6362949,6.34966254 C52.1651911,5.42425166 51.3531689,4.96155316 50.2002042,4.96155316 C49.177413,4.96155316 48.4335759,5.35547215 47.9686708,6.14332196 C47.5037657,6.93117177 47.2713166,7.8815795 47.2713166,8.99457368 C47.2713166,10.0637984 47.5037657,10.9548057 47.9686708,11.6676222 C48.4335759,12.3804387 49.1712143,12.7368416 50.1816081,12.7368416 Z M50.2466945,3.48903171 C51.5298327,3.48903171 52.614595,3.9204668 53.5010141,4.78334992 C54.3874332,5.64623305 54.8306361,6.91552759 54.8306361,8.59127163 C54.8306361,10.2107407 54.4401217,11.5488147 53.6590811,12.6055339 C52.8780405,13.6622531 51.6662059,14.1906048 50.0235412,14.1906048 C48.6536207,14.1906048 47.5657591,13.7232168 46.7599235,12.7884267 C45.954088,11.8536367 45.5511763,10.5984106 45.5511763,9.02271103 C45.5511763,7.33446144 45.9757832,5.99013471 46.8250099,4.98969051 C47.6742366,3.98924631 48.8147867,3.48903171 50.2466945,3.48903171 Z M61.0231414,12.689946 C61.804182,12.689946 62.4534898,12.360117 62.9710841,11.7004491 C63.4886785,11.0407812 63.7474718,10.0544205 63.7474718,8.74133751 C63.7474718,7.94098214 63.6327969,7.25318707 63.4034437,6.67793166 C62.9695323,5.57119026 62.1761061,5.01782786 61.0231414,5.01782786 C59.863978,5.01782786 59.0705518,5.60245367 58.6428391,6.77172283 C58.4134859,7.39700046 58.298811,8.19109113 58.298811,9.15401868 C58.298811,9.92936293 58.4134859,10.5890209 58.6428391,11.1330125 C59.0767505,12.1709733 59.8701767,12.689946 61.0231414,12.689946 Z M56.6902473,3.82667994 L58.3174071,3.82667994 L58.3174071,5.15851462 C58.6521388,4.70206196 59.0178587,4.3487854 59.4145777,4.09867435 C59.9786626,3.72350777 60.6419173,3.5359273 61.4043617,3.5359273 C62.5325315,3.5359273 63.4902217,3.9720519 64.277461,4.84431419 C65.0647003,5.71657648 65.4583141,6.96242346 65.4583141,8.58189251 C65.4583141,10.7703642 64.8911384,12.3335348 63.7567699,13.2714513 C63.0377166,13.865465 62.2008999,14.1624674 61.2462947,14.1624674 C60.4962478,14.1624674 59.8670857,13.9967713 59.3587894,13.6653742 C59.0612501,13.4777909 58.7296228,13.1557778 58.3638974,12.6993251 L58.3638974,17.8297024 L56.6902473,17.8297024 L56.6902473,3.82667994 Z M71.5578388,3.55468553 C72.2644946,3.55468553 72.9494446,3.72194479 73.6127092,4.05646832 C74.2759738,4.39099185 74.7811632,4.82399011 75.1282923,5.35547609 C75.463024,5.86195097 75.6861751,6.45282946 75.7977524,7.1281293 C75.8969321,7.59083474 75.9465213,8.32865127 75.9465213,9.34160103 L68.6475473,9.34160103 C68.678541,10.3608036 68.9171887,11.1783418 69.3634976,11.7942403 C69.8098065,12.4101387 70.5009551,12.7180833 71.4369641,12.7180833 C72.3109857,12.7180833 73.008333,12.4273336 73.5290267,11.8458254 C73.826566,11.5081755 74.0373198,11.1173828 74.1612945,10.6734357 L75.8070504,10.6734357 C75.7636593,11.0423495 75.6195408,11.4534634 75.3746908,11.9067897 C75.1298408,12.3601159 74.8555509,12.7305874 74.5518129,13.0182151 C74.0435166,13.5184372 73.4143544,13.856082 72.6643075,14.0311598 C72.2613897,14.1312042 71.8057895,14.1812257 71.2974933,14.1812257 C70.0577463,14.1812257 69.0070764,13.726343 68.1454523,12.8165641 C67.2838281,11.9067851 66.8530225,10.6328011 66.8530225,8.99457368 C66.8530225,7.3813574 67.2869274,6.07142043 68.1547503,5.06472345 C69.0225732,4.05802647 70.1569247,3.55468553 71.5578388,3.55468553 Z M74.2263809,8.00038722 C74.1581948,7.2688124 74.0001294,6.68418659 73.75218,6.24649225 C73.2934737,5.43363134 72.5279414,5.02720698 71.4555602,5.02720698 C70.6869171,5.02720698 70.0422583,5.30701452 69.5215646,5.86663799 C69.0008708,6.42626147 68.7250313,7.1375041 68.6940376,8.00038722 L74.2263809,8.00038722 Z M78.0478819,3.77978435 L79.6378495,3.77978435 L79.6378495,5.51492109 C79.7680229,5.17727117 80.087253,4.7661573 80.5955492,4.28156714 C81.1038455,3.79697698 81.6896172,3.55468553 82.3528818,3.55468553 C82.3838755,3.55468553 82.436564,3.55781187 82.5109488,3.56406465 C82.5853336,3.57031742 82.7124058,3.58282279 82.8921691,3.60158112 L82.8921691,5.38361344 C82.7929893,5.36485511 82.7015593,5.35234975 82.6178764,5.34609697 C82.5341935,5.3398442 82.4427635,5.33671786 82.3435838,5.33671786 C81.5005558,5.33671786 80.8527977,5.61027271 80.4002901,6.15739064 C79.9477824,6.70450856 79.721532,7.33446632 79.721532,8.04728281 L79.721532,13.8248192 L78.0478819,13.8248192 L78.0478819,3.77978435 Z" id="developer"></path>
                <polygon id="." points="84.7424822 11.7801716 86.6857759 11.7801716 86.6857759 13.8248192 84.7424822 13.8248192"></polygon>
                <path d="M93.4733568,3.48903171 C94.5953278,3.48903171 95.5080778,3.76414974 96.2116343,4.31439405 C96.9151907,4.86463836 97.338248,5.81191975 97.4808189,7.15626665 L95.8536591,7.15626665 C95.7544794,6.5372418 95.5282289,6.02295867 95.174901,5.61340182 C94.8215731,5.20384498 94.2543974,4.99906963 93.4733568,4.99906963 C92.4071744,4.99906963 91.6447414,5.52429495 91.186035,6.57476136 C90.8884957,7.25631398 90.7397283,8.09729977 90.7397283,9.09774397 C90.7397283,10.1044409 90.9504821,10.9516794 91.3719961,11.6394848 C91.7935101,12.3272902 92.4567648,12.6711877 93.3617801,12.6711877 C94.0560384,12.6711877 94.6061679,12.4570334 95.012185,12.0287182 C95.4182022,11.600403 95.6986907,11.014214 95.8536591,10.2701337 L97.4808189,10.2701337 C97.2948569,11.601975 96.8299587,12.5758303 96.0861105,13.1917288 C95.3422623,13.8076272 94.3907708,14.1155718 93.2316073,14.1155718 C91.929873,14.1155718 90.8916004,13.6356785 90.1167586,12.6758773 C89.3419167,11.7160761 88.9545016,10.5171243 88.9545016,9.07898574 C88.9545016,7.31570283 89.3791085,5.94323903 90.2283352,4.96155316 C91.0775619,3.97986728 92.159225,3.48903171 93.4733568,3.48903171 Z M103.106143,12.7368416 C104.215716,12.7368416 104.9766,12.3132223 105.388816,11.4659711 C105.801031,10.61872 106.007136,9.67612807 106.007136,8.63816721 C106.007136,7.70025077 105.858369,6.93742351 105.56083,6.34966254 C105.089726,5.42425166 104.277704,4.96155316 103.124739,4.96155316 C102.101948,4.96155316 101.358111,5.35547215 100.893205,6.14332196 C100.4283,6.93117177 100.195851,7.8815795 100.195851,8.99457368 C100.195851,10.0637984 100.4283,10.9548057 100.893205,11.6676222 C101.358111,12.3804387 102.095749,12.7368416 103.106143,12.7368416 Z M103.171229,3.48903171 C104.454367,3.48903171 105.53913,3.9204668 106.425549,4.78334992 C107.311968,5.64623305 107.755171,6.91552759 107.755171,8.59127163 C107.755171,10.2107407 107.364656,11.5488147 106.583616,12.6055339 C105.802575,13.6622531 104.590741,14.1906048 102.948076,14.1906048 C101.578155,14.1906048 100.490294,13.7232168 99.6844582,12.7884267 C98.8786226,11.8536367 98.4757109,10.5984106 98.4757109,9.02271103 C98.4757109,7.33446144 98.9003179,5.99013471 99.7495446,4.98969051 C100.598771,3.98924631 101.739321,3.48903171 103.171229,3.48903171 Z M109.744955,3.77978435 L111.400009,3.77978435 L111.400009,5.20541021 C111.796728,4.71144089 112.156249,4.35191164 112.478583,4.1268117 C113.030271,3.74539235 113.656333,3.55468553 114.356791,3.55468553 C115.150229,3.55468553 115.788689,3.75164503 116.27219,4.14556993 C116.544934,4.37066988 116.79288,4.70206205 117.016035,5.13975639 C117.387959,4.60201763 117.824963,4.20340912 118.32706,3.94391891 C118.829158,3.68442869 119.393234,3.55468553 120.019307,3.55468553 C121.358233,3.55468553 122.269434,4.04239476 122.752935,5.01782786 C123.013282,5.54306107 123.143453,6.24961419 123.143453,7.13750841 L123.143453,13.8248192 L121.404717,13.8248192 L121.404717,6.84675577 C121.404717,6.17770871 121.238903,5.71813655 120.907271,5.4680255 C120.575639,5.21791445 120.171177,5.0928608 119.693875,5.0928608 C119.036809,5.0928608 118.471183,5.31483103 117.996979,5.75877814 C117.522776,6.20272526 117.285678,6.94366813 117.285678,7.98162899 L117.285678,13.8248192 L115.584134,13.8248192 L115.584134,7.26881606 C115.584134,6.58726345 115.503552,6.09017519 115.342384,5.77753638 C115.088236,5.30857816 114.61404,5.07410257 113.919782,5.07410257 C113.287511,5.07410257 112.712587,5.32108352 112.194992,5.81505285 C111.677398,6.30902217 111.418605,7.20315577 111.418605,8.49748045 L111.418605,13.8248192 L109.744955,13.8248192 L109.744955,3.77978435 Z" id="com"></path>
            </g>
            <g id="Group">
                <path d="M16.3573944,20.8421053 C13.9801197,20.8421053 12.0528169,18.8985789 12.0528169,16.5 C12.0528169,14.1014211 13.9801197,12.1578947 16.3573944,12.1578947 C18.734669,12.1578947 20.6619718,14.1014211 20.6619718,16.5 C20.6619718,18.8985789 18.734669,20.8421053 16.3573944,20.8421053 L16.3573944,20.8421053 Z M20.6619718,0.470105263 L20.6619718,8.64831579 C19.3860951,7.93505263 17.919669,7.52631579 16.3573944,7.52631579 C11.4438627,7.52631579 7.46126761,11.5436316 7.46126761,16.5 C7.46126761,21.4563684 11.4438627,25.4736842 16.3573944,25.4736842 C21.1739296,25.4736842 25.0859296,21.6103684 25.2391725,16.7894737 L25.2535211,16.7894737 L25.2535211,2.72278947 L20.6619718,0.470105263 Z" id="Fill-1" fill="#2A4549"></path>
                <g id="Group-5">
                    <mask id="mask-2" fill="white">
                        <use xlink:href="#path-1"></use>
                    </mask>
                    <g id="Clip-4"></g>
                    <path d="M27.2623239,4.20472105 L27.2623239,16.7893 C27.2623239,16.9039316 27.2531408,17.0156684 27.2347746,17.1245105 C26.9127923,22.9643526 22.1846444,27.4998263 16.3573944,27.4998263 C10.3441866,27.4998263 5.45246479,22.5654579 5.45246479,16.4998263 C5.45246479,10.4347737 10.3441866,5.49982632 16.3573944,5.49982632 C17.1304965,5.49982632 17.9007289,5.58377368 18.653169,5.74761579 C18.653169,5.74761579 18.6755528,0.304931579 18.7025282,0.171194737 C17.9363134,0.0606157895 17.1540282,-0.000173684214 16.3573944,-0.000173684214 C7.32352113,-0.000173684214 0,7.38719474 0,16.4998263 C0,25.6130368 7.32352113,32.9998263 16.3573944,32.9998263 C25.3912676,32.9998263 32.7147887,25.6130368 32.7147887,16.4998263 C32.7147887,11.6140895 30.6078415,7.22624737 27.2623239,4.20472105" id="Fill-3" fill="#2A4549" mask="url(#mask-2)"></path>
                </g>
            </g>
        </g>
    </g>
</svg>