<?xml version="1.0" encoding="UTF-8"?>
<svg width="119px" height="28px" viewBox="0 0 119 28" version="1.1" xmlns="http://www.w3.org/2000/svg" xmlns:xlink="http://www.w3.org/1999/xlink">
    <!-- Generator: Sketch 54.1 (76490) - https://sketchapp.com -->
    <title>fortune</title>
    <desc>Created with Sketch.</desc>
    <g id="fortune" stroke="none" stroke-width="1" fill="none" fill-rule="evenodd">
        <g id="Fortune-logo-2016-svg" fill="#2A4549" fill-rule="nonzero">
            <path d="M21.4894704,5.60520873e-05 C19.2706348,0.00943975988 17.0633846,1.19525548 15.961735,3.55681702 L15.4528004,4.6468747 L15.4528004,13.6539241 L15.4528004,22.6609734 L15.961735,23.7510311 C16.7515789,25.4441632 17.9741233,26.5130019 19.8064589,27.1030864 C21.1196384,27.5259838 23.2128952,27.303133 24.5481171,26.6015575 C25.4142178,26.1464739 26.6398614,24.7915746 27.112946,23.766384 L27.5462963,22.824738 L27.5462963,13.6539241 L27.5462963,4.48311017 L27.0726344,3.51075825 C25.9355281,1.15866229 23.708306,-0.00932438042 21.4894704,5.60520873e-05 Z M21.5902495,4.4626396 C21.6704952,4.4631309 21.7507565,4.47120449 21.8270805,4.48822781 C22.0829466,4.54530303 22.5096697,4.84658555 22.7794433,5.15863887 L23.2732611,5.7266971 L23.2732611,13.6129829 L23.2732611,21.4992688 L22.9104562,22.0366212 C22.7109135,22.3335443 22.3361474,22.6514063 22.0790283,22.7428557 C21.8219077,22.8343035 21.5316638,22.9079304 21.4340419,22.9066202 C21.0454569,22.9013306 20.4423059,22.4647901 20.0936794,21.939386 L19.7258356,21.3866807 L19.7258356,13.6743946 C19.7264161,6.3127334 19.7378533,5.93535113 20.0382509,5.43499152 C20.393533,4.84320709 21.0285299,4.45880424 21.5902495,4.4626396 Z" id="path3022"></path>
            <path d="M73.9438423,27.6929962 C72.0766688,26.9812015 70.8501183,25.755024 70.143321,23.8936299 C69.8945983,23.2385991 69.8696005,22.1323664 69.8739577,11.9733207 L69.8787578,0.77505094 L72.0543755,0.728988884 L74.2299916,0.682926829 L74.2323595,11.4075978 C74.2341957,19.6953539 74.2808199,22.2263166 74.4375556,22.5461683 C74.5491072,22.773813 74.8966917,23.1020751 75.2099665,23.2756414 C75.913858,23.6656226 76.5037688,23.5457904 77.1500345,22.8815445 L77.6126306,22.4060798 L77.6126306,11.5445025 L77.6126306,0.682926829 L79.7898301,0.728988884 L81.967028,0.77505094 L81.9665448,11.9795805 C81.9660615,22.9286843 81.9584103,23.2051328 81.6303742,24.1062849 C81.1565107,25.4080354 79.9476386,26.7148174 78.6040357,27.3777371 C77.2031727,28.068908 75.2725245,28.1995149 73.9438295,27.6929962 L73.9438423,27.6929962 Z" id="path3018"></path>
            <polygon id="path3016" points="0 14.3414634 0 0.682926829 5.37488716 0.682926829 10.7497742 0.682926829 10.7497742 3.02917851 10.7497742 5.3754302 7.6211085 5.3754302 4.492443 5.3754302 4.492443 8.56827652 4.492443 11.7611245 6.45788681 11.7325975 8.42333047 11.7040721 8.46796931 13.9864068 8.51260798 16.2687416 6.50252565 16.2687416 4.492443 16.2687416 4.492443 22.1343708 4.492443 28 2.2462215 28 4.56010391e-15 28 4.56010391e-15 14.3414634"></polygon>
            <path d="M34.2649051,14.3414634 L34.2649051,0.682926829 L37.7716522,0.682926829 C41.5901792,0.682926829 42.6353584,0.840053629 43.9644135,1.61391615 C44.9669819,2.19767697 46.0148313,3.37134413 46.54791,4.50762041 C46.9791745,5.42687679 46.9962833,5.5799982 47.0512091,9.01213036 C47.0969168,11.8683398 47.0548862,12.7712613 46.8368934,13.6167079 C46.5221567,14.8373353 45.9485149,15.8776801 45.1560571,16.6650352 L44.5957069,17.221779 L46.0741984,22.2524694 C46.8873678,25.0193504 47.6042118,27.4444495 47.6671851,27.6415799 C47.7805435,27.9964438 47.7575311,28 45.3475611,28 L42.9134436,28 L42.20502,25.2766722 C41.4990573,22.5627997 39.6965906,15.7637377 39.5437048,15.2379595 C39.4857715,15.0387292 39.6035914,14.9307094 39.9648032,14.8518838 C40.633966,14.7058581 41.8429259,13.6576769 42.1302647,12.9744048 C42.2970358,12.5778363 42.3613299,11.5804916 42.3613299,9.39006626 L42.3613299,6.355183 L41.8682779,5.86530576 C41.4100911,5.41006925 41.2848563,5.3754302 40.0971848,5.3754302 L38.819144,5.3754302 L38.819144,16.6877151 L38.819144,28 L36.5420246,28 L34.2649051,28 L34.2649051,14.3414634 L34.2649051,14.3414634 Z" id="path3014"></path>
            <path d="M55.9306735,27.8743079 C55.9296657,27.8051773 55.9108184,22.7335029 55.8886822,16.6039204 L55.8484361,5.4592249 L53.7908621,5.41216915 L51.7332882,5.36511339 L51.7332882,3.02402011 L51.7332882,0.682926829 L58.1159666,0.682926829 L64.498645,0.682926829 L64.498645,3.02917851 L64.498645,5.3754302 L62.4830623,5.3754302 L60.4674797,5.3754302 L60.4674797,16.6877151 L60.4674797,28 L58.1999492,28 C56.9528074,28 55.9316343,27.9434386 55.9306735,27.8743079 Z" id="path3012"></path>
            <path d="M88.0137824,14.3461912 L88.0137824,0.692382301 L90.2468554,0.692382301 L92.4799283,0.692382301 L92.6523812,1.32062504 C92.7472318,1.66615855 93.4845319,4.09745794 94.2908265,6.72351259 C95.0971227,9.34956724 95.9873076,12.270896 96.2690149,13.2153542 C96.5507237,14.1598125 96.8498961,14.932551 96.9338431,14.932551 C97.0271799,14.932551 97.0824474,12.1827041 97.0761043,7.85434952 L97.0657269,0.776148 L99.2583603,0.729537415 L101.450994,0.682926829 L101.450994,14.3414634 L101.450994,28 L98.9752138,28 L96.499434,28 L96.0359212,26.4503346 C95.7809897,25.5980186 95.3319195,24.1198388 95.0379876,23.1654912 C94.7440558,22.2111452 94.087319,20.0437078 93.5785714,18.3489635 C93.0698254,16.6542209 92.5931296,15.2676138 92.5192475,15.2676138 C92.4453671,15.2676138 92.3849191,18.1324007 92.3849191,21.6338069 L92.3849191,28 L90.1993475,28 L88.013776,28 L88.013776,14.3461912 L88.0137824,14.3461912 Z" id="path3010"></path>
            <polygon id="path3006" points="107.497742 14.3414634 107.497742 0.682926829 112.872624 0.682926829 118.247506 0.682926829 118.247506 3.02917851 118.247506 5.3754302 115.03508 5.3754302 111.822656 5.3754302 111.866306 8.51773156 111.909958 11.6600329 113.955788 11.6600329 116.001617 11.6600329 116.001457 13.9643873 116.001296 16.2687416 113.915521 16.2687416 111.829746 16.2687416 111.829746 19.7881191 111.829746 23.3074966 115.038631 23.3074966 118.247516 23.3074966 118.247516 25.6537483 118.247516 28 112.872634 28 107.497751 28 107.497751 14.3414634"></polygon>
        </g>
    </g>
</svg>