<?xml version="1.0" encoding="UTF-8"?>
<svg width="90px" height="30px" viewBox="0 0 90 30" version="1.1" xmlns="http://www.w3.org/2000/svg" xmlns:xlink="http://www.w3.org/1999/xlink">
    <!-- Generator: Sketch 54.1 (76490) - https://sketchapp.com -->
    <title>sd-times</title>
    <desc>Created with Sketch.</desc>
    <g id="sd-times" stroke="none" stroke-width="1" fill="none" fill-rule="evenodd">
        <g id="sd-times-svg-copy" fill="#2A4549" fill-rule="nonzero">
            <path d="M0.14634282,19.9421761 L1.42997841,19.9421761 C2.52964017,25.4029962 4.42425703,28.1648989 6.50180241,28.1648989 C7.90721613,28.1648989 8.94625015,26.9377365 8.94625015,24.9736468 C8.94625015,22.4579114 7.41853565,20.4943466 5.09638869,17.6101476 C3.56867419,15.5851722 2.16326046,14.1123674 1.36882802,12.578152 C0.513245174,10.9216402 0.08571508,9.14178239 0.08571508,7.36192455 C0.08571508,3.37338436 2.2238882,0.366364133 4.79063673,0.366364133 C6.25720084,0.366364133 7.29571221,1.59352652 7.96784387,1.59352652 C8.45704701,1.59352652 8.88457711,1.22506288 9.18980641,0.48866047 L10.2288404,0.48866047 L10.2288404,9.75483871 L8.9457275,9.75483871 C8.02899426,4.47772553 6.56243015,1.83916894 4.66833594,1.83916894 C3.32407262,1.83916894 2.46901243,3.00492072 2.46901243,4.60054675 C2.46901243,6.87063969 4.05735467,8.77331875 6.50180241,11.7189284 C7.17393408,12.5167414 8.39589662,13.8053144 9.67900955,16.0139967 C10.8054862,17.9501638 11.3960879,20.1535502 11.3896526,22.3959759 C11.3896526,26.6915692 9.25095681,29.6377037 6.50127976,29.6377037 C4.66833594,29.6377037 3.50700114,28.2877201 2.71256869,28.2877201 C2.10158742,28.2877201 1.79583546,28.7779552 1.18485419,29.6985894 L0.14634282,29.6985894 L0.14634282,19.9421761 Z M17.194236,25.7714598 L17.194236,4.23313286 C17.194236,2.69891744 17.4994653,2.14622198 18.5384993,2.14622198 C21.2881764,2.14622198 21.7768569,6.19617277 21.7768569,14.2351886 C21.7768569,23.1948387 21.5934057,27.7350246 18.4161985,27.7350246 C17.3165368,27.7355495 17.194236,27.2442646 17.194236,25.7714598 Z M11.9394835,29.2083543 L17.3165368,29.2083543 C22.8770413,29.2083543 26.1765492,24.1144232 26.1765492,14.9101804 C26.1765492,9.38742482 24.8322859,5.15324221 22.5101389,2.69839256 C20.921274,1.04188081 19.1494806,0.734827775 16.888484,0.734827775 L11.9389608,0.734827775 L11.9389608,2.08481137 C12.9779948,2.20763259 13.2827015,2.75980317 13.2827015,4.04837616 L13.2827015,25.8937562 C13.2827015,27.2437397 12.9779948,27.7350246 11.9389608,27.9182067 L11.9389608,29.2083543 L11.9394835,29.2083543 Z M42.1247806,10.9216402 L41.1474196,10.9216402 C40.4747653,5.52170585 39.3139532,2.51468562 37.8479117,2.02392564 L37.8479117,25.2812247 C37.8479117,27.1214434 38.0919906,27.7969601 39.4367766,27.9187315 L39.4367766,29.2083543 L32.348035,29.2083543 L32.348035,27.9187315 C33.6311479,27.7969601 33.9368999,27.1209185 33.9368999,25.2812247 L33.9368999,2.02392564 C32.4703357,2.51468562 31.3095236,5.52170585 30.5762415,10.9216402 L29.5983579,10.9216402 L29.7818091,0.735352652 L42.0024798,0.735352652 L42.1247806,10.9216402 L42.1247806,10.9216402 Z M48.6626461,28.0420776 L48.6626461,29.2088792 L42.8580627,29.2088792 L42.8580627,28.0420776 C43.7742732,27.7969601 44.0800252,27.3062001 44.0800252,25.9556916 L44.0800252,13.7444286 C44.0800252,12.3944451 43.8354236,11.8417496 42.8580627,11.7194533 L42.8580627,10.3689448 C44.3857772,10.308059 45.9735968,10.184713 47.4406835,10.0624166 L47.4406835,25.9556916 C47.4412062,27.2442646 47.6847624,27.7969601 48.6626461,28.0420776 Z M55.6902373,28.0420776 L55.6902373,29.2088792 L49.9462817,29.2088792 L49.9462817,28.0420776 C50.9241653,27.7969601 51.1081391,27.3062001 51.1081391,25.9556916 L51.1081391,13.7444286 C51.1081391,12.3944451 50.9858383,11.8417496 49.9462817,11.7194533 L49.9462817,10.3689448 C51.4133684,10.308059 52.9410829,10.184713 54.4071244,10.0624166 L54.4682748,12.8237944 C55.5062635,10.9216402 56.4229967,10.001006 57.7061097,10.001006 C59.1115234,10.001006 59.9671062,10.9830508 60.3334859,12.9466156 C61.4336703,10.9830508 62.4110313,10.001006 63.7552946,10.001006 C65.9551408,10.001006 66.5666447,12.0259814 66.5666447,16.260164 L66.5666447,25.9556916 C66.5666447,27.3670858 66.7495733,27.9187315 67.7274569,28.0420776 L67.7274569,29.2088792 L63.3277645,29.2088792 L63.3277645,15.8308147 C63.3277645,13.7444286 63.0836856,12.7623838 62.1669524,12.7623838 C61.2502192,12.7623838 60.5174598,14.173778 60.5174598,16.6895134 L60.5174598,25.9556916 C60.5174598,27.3670858 60.7003883,27.9187315 61.6782719,28.0420776 L61.6782719,29.2088792 L57.2785796,29.2088792 L57.2785796,15.8308147 C57.2785796,13.7444286 57.0345007,12.7623838 56.1789178,12.7623838 C55.1398838,12.7623838 54.5294252,14.2357135 54.5294252,17.057977 L54.5294252,25.9556916 C54.5294252,27.2442646 54.7123537,27.7969601 55.6902373,28.0420776 L55.6902373,28.0420776 Z M72.0048484,18.6536031 L72.0048484,18.2851394 C72.0048484,13.5601968 72.555202,11.1667578 73.6543411,11.1667578 C74.8161985,11.1667578 75.1825782,13.1912083 75.1825782,17.4259158 L75.1825782,18.6530782 L72.0048484,18.6530782 L72.0048484,18.6536031 Z M77.6876537,22.8258502 C77.321274,25.9556916 76.2216123,27.673614 74.6322247,27.673614 C72.9215817,27.673614 72.0048484,25.4029962 72.0048484,20.9851066 L72.0048484,20.2487042 L78.7266877,20.2487042 L78.7266877,20.0644724 C78.7266877,13.4987862 76.7709205,9.8781848 73.6543411,9.8781848 C70.5989121,9.8781848 68.21666,13.7444286 68.21666,20.0644724 C68.21666,25.8937562 70.5994347,29.6980645 73.7771645,29.6980645 C76.5885146,29.6980645 78.4209358,27.1823291 78.7272104,22.8253253 L77.6876537,22.8253253 L77.6876537,22.8258502 L77.6876537,22.8258502 Z M81.1706128,21.6606233 C81.7821167,26.0176271 83.370459,28.3486058 85.1427751,28.3486058 C86.1807638,28.3486058 86.9762415,27.3676107 86.9762415,26.0176271 C86.9762415,24.9741717 86.425888,23.8698305 85.386854,23.0106069 C83.1870078,21.230749 81.5375152,19.9421761 80.7430827,18.2242537 C80.2538796,17.3036195 80.0714737,16.260164 80.0714737,15.0944122 C80.0714737,12.1488026 81.7209664,9.8781848 83.7373613,9.8781848 C84.9593239,9.8781848 85.8149067,10.798819 86.4264107,10.798819 C86.73164,10.798819 87.0980197,10.4922909 87.2819935,9.93959541 L88.2598771,9.93959541 L88.2598771,16.9351558 L87.2208431,16.9351558 C86.3652603,13.1303226 85.1432977,11.2281684 83.6767336,11.2281684 C82.8211508,11.2281684 82.0883914,12.1482777 82.0883914,13.2531438 C82.0883914,14.8487698 83.1274254,15.6465828 84.7774407,16.9351558 C87.5877455,19.2057736 89.1159826,20.9851066 89.1159826,23.9926517 C89.1159826,27.182854 87.2213658,29.6985894 84.9603692,29.6985894 C83.4943277,29.6985894 82.6392675,28.6561837 82.0277636,28.6561837 C81.7225343,28.6561837 81.417305,29.0241225 80.9281019,29.6985894 L80.072519,29.6985894 L80.072519,21.6606233 L81.1706128,21.6606233 L81.1706128,21.6606233 Z" id="Shape"></path>
            <path d="M47.4412062,4.3554292 C47.4412062,5.70541279 46.5244729,6.74886823 45.4248112,6.74886823 C44.3251494,6.74886823 43.4084162,5.70593767 43.4084162,4.3554292 C43.4084162,3.06685621 44.3251494,1.96199016 45.4248112,1.96199016 C46.5244729,1.96251504 47.4412062,3.06685621 47.4412062,4.3554292 Z M50.1297328,6.38092947 C49.5793793,6.38092947 49.3353004,5.9515801 49.27415,5.33747403 L49.8846086,5.21465282 C49.8846086,5.70593767 50.0069094,5.82823401 50.1297328,5.82823401 C50.2509883,5.82823401 50.3126614,5.70593767 50.3126614,5.46029524 C50.3126614,5.09235648 50.251511,4.90812466 49.8851313,4.53966102 C49.5187516,4.17172225 49.2746726,3.80325861 49.2746726,3.37390924 C49.2746726,2.82173866 49.579902,2.39186441 50.0691051,2.39186441 C50.6194586,2.39186441 50.8018645,2.75980317 50.9246879,3.31249863 L50.313184,3.43531985 C50.313184,3.06685621 50.2520336,2.94403499 50.0691051,2.94403499 C49.9468043,2.94403499 49.8851313,3.06685621 49.8851313,3.31249863 C49.8851313,3.55814106 50.0074321,3.741848 50.251511,4.04890104 C50.7407141,4.47825041 50.9241653,4.90812466 50.9241653,5.39888464 C50.9241653,5.95105522 50.618936,6.38092947 50.1297328,6.38092947 L50.1297328,6.38092947 Z M52.3907294,4.41736468 C52.3907294,5.58311646 52.329579,5.82823401 52.0844548,5.82823401 C51.9015263,5.82823401 51.8403759,5.52170585 51.8403759,4.3554292 C51.8403759,3.25108803 51.9015263,3.0054456 52.0844548,3.0054456 C52.2684286,3.00597048 52.3907294,3.25108803 52.3907294,4.41736468 Z M53.001188,4.3554292 C53.001188,3.06685621 52.7571091,2.39186441 52.0844548,2.39186441 C51.4128458,2.39186441 51.2288719,3.06685621 51.2288719,4.4168398 C51.2288719,5.70541279 51.4128458,6.38040459 52.0844548,6.38040459 C52.7571091,6.38092947 53.001188,5.70593767 53.001188,4.3554292 Z M53.9790716,3.06685621 L53.9790716,3.98749043 L54.6506807,3.98749043 L54.6506807,4.60107162 L53.9790716,4.60107162 L53.9790716,6.31951886 L53.3675677,6.31951886 L53.3675677,2.45327501 L54.8346545,2.45327501 L54.8346545,3.06685621 L53.9790716,3.06685621 L53.9790716,3.06685621 Z M56.2400682,3.06685621 L56.2400682,6.31951886 L55.6290869,6.31951886 L55.6290869,3.06685621 L55.1398838,3.06685621 L55.1398838,2.45327501 L56.7893764,2.45327501 L56.7893764,3.06685621 L56.2400682,3.06685621 Z M59.050373,6.31951886 L58.5611699,6.31951886 L58.4399144,5.2765883 C58.378764,4.90864954 58.3176136,4.41736468 58.2559405,4.04942592 C58.2559405,4.41788956 58.1947902,4.90864954 58.1336398,5.2765883 L58.0123843,6.31951886 L57.4620307,6.31951886 L57.0345007,2.45379989 L57.5848542,2.45379989 L57.7061097,3.74237288 C57.7672601,4.04890104 57.7672601,4.47877529 57.8284104,4.84671405 C57.8284104,4.47825041 57.8895608,4.04890104 57.8895608,3.74237288 L58.0118616,2.45379989 L58.5000195,2.45379989 L58.6223202,3.74237288 C58.6834706,4.04890104 58.744621,4.47877529 58.744621,4.84671405 C58.744621,4.47825041 58.8057714,4.04890104 58.8057714,3.74237288 L58.9270269,2.45379989 L59.5385308,2.45379989 L59.050373,6.31951886 L59.050373,6.31951886 Z M60.6397605,4.90812466 L60.2733808,4.90812466 L60.3946363,4.23313286 C60.3946363,3.92607983 60.4557867,3.61955167 60.4557867,3.31249863 C60.4557867,3.61902679 60.5169371,3.92607983 60.5780875,4.23313286 L60.6397605,4.90812466 Z M61.434193,6.31951886 L60.8226891,2.45379989 L60.1510801,2.45379989 L59.5395761,6.31951886 L60.1510801,6.31951886 L60.2733808,5.46029524 L60.6998656,5.46029524 L60.8221664,6.31951886 L61.434193,6.31951886 Z M62.7784563,3.55814106 C62.7784563,3.98749043 62.6561555,4.11031165 62.4721817,4.11031165 L62.3509262,4.11031165 L62.3509262,3.00597048 L62.4721817,3.00597048 C62.6561555,3.00597048 62.7784563,3.12826681 62.7784563,3.55814106 Z M63.3889149,6.31951886 L63.0225352,4.47877529 C63.2666142,4.29454347 63.3889149,3.98801531 63.3889149,3.55866594 C63.3889149,2.76032805 62.9613848,2.45432477 62.5333321,2.45432477 L61.7388996,2.45432477 L61.7388996,6.32004374 L62.3504036,6.32004374 L62.3504036,4.60212138 L62.4716591,4.60212138 L62.7779337,6.32004374 L63.3889149,6.32004374 L63.3889149,6.31951886 Z M63.8169677,6.31951886 L63.8169677,2.45327501 L65.2223814,2.45327501 L65.2223814,3.06685621 L64.427949,3.06685621 L64.427949,3.98749043 L65.0384076,3.98749043 L65.0384076,4.60107162 L64.427949,4.60107162 L64.427949,5.7668234 L65.2835318,5.7668234 L65.2835318,6.31951886 L63.8169677,6.31951886 L63.8169677,6.31951886 Z M67.7274569,4.3554292 C67.7274569,5.52170585 67.6051561,5.7668234 67.3610772,5.7668234 L67.2387764,5.7668234 L67.2387764,3.0054456 L67.3610772,3.0054456 C67.6051561,3.00597048 67.7274569,3.25108803 67.7274569,4.3554292 L67.7274569,4.3554292 Z M68.3389608,4.3554292 C68.3389608,3.18967742 68.154987,2.45327501 67.4222276,2.45327501 L66.6277951,2.45327501 L66.6277951,6.31899432 L67.3605545,6.31899399 C68.0326862,6.31951886 68.3389608,5.70593767 68.3389608,4.3554292 Z M68.7053405,6.31951886 L68.7053405,2.45327501 L70.1112769,2.45327501 L70.1112769,3.06685621 L69.3157991,3.06685621 L69.3157991,3.98749043 L69.9273031,3.98749043 L69.9273031,4.60107162 L69.3157991,4.60107162 L69.3157991,5.7668234 L70.171382,5.7668234 L70.171382,6.31951886 L68.7053405,6.31951886 L68.7053405,6.31951886 Z M71.5767957,6.31951886 L70.9663371,6.31951886 L70.3548331,2.45379989 L70.9663371,2.45379989 L71.210416,4.35595407 C71.210416,4.66300711 71.2715664,5.09235648 71.2715664,5.33799891 C71.2715664,5.09288136 71.3327168,4.66300711 71.3327168,4.35595407 L71.5767957,2.45379989 L72.1882996,2.45379989 L71.5767957,6.31951886 L71.5767957,6.31951886 Z M72.4935289,6.31951886 L72.4935289,2.45327501 L73.8994653,2.45327501 L73.8994653,3.06685621 L73.1050329,3.06685621 L73.1050329,3.98749043 L73.7154915,3.98749043 L73.7154915,4.60107162 L73.1050329,4.60107162 L73.1050329,5.7668234 L73.9606157,5.7668234 L73.9606157,6.31951886 L72.4935289,6.31951886 L72.4935289,6.31951886 Z M74.3269954,6.31951886 L74.3269954,2.45327501 L74.9384993,2.45327501 L74.9384993,5.7668234 L75.6712587,5.7668234 L75.6712587,6.31951886 L74.3269954,6.31951886 L74.3269954,6.31951886 Z M77.0771951,4.41736468 C77.0771951,5.58311646 77.0160447,5.82823401 76.8320709,5.82823401 C76.587992,5.82823401 76.5268416,5.52170585 76.5268416,4.3554292 C76.5268416,3.25108803 76.587992,3.0054456 76.8320709,3.0054456 C77.0155221,3.00597048 77.0771951,3.25108803 77.0771951,4.41736468 Z M77.6876537,4.3554292 C77.6876537,3.06685621 77.5047252,2.39186441 76.8320709,2.39186441 C76.1604619,2.39186441 75.9153376,3.06685621 75.9153376,4.4168398 C75.9153376,5.70541279 76.0993115,6.38040459 76.7709205,6.38040459 C77.5047252,6.38092947 77.6876537,5.70593767 77.6876537,4.3554292 Z M79.1542178,3.61955167 C79.1542178,3.98801531 79.031917,4.17172225 78.8479432,4.17172225 L78.7266877,4.17172225 L78.7266877,3.00597048 L78.8479432,3.00597048 C79.0930674,3.00597048 79.1542178,3.12826681 79.1542178,3.61955167 Z M79.7646764,3.55814106 C79.7646764,2.75980317 79.3982967,2.45379989 78.9090936,2.45379989 L78.1146612,2.45379989 L78.1146612,6.31951886 L78.7261651,6.31951886 L78.7261651,4.72389284 L78.8474206,4.72389284 C79.3371464,4.72389284 79.7646764,4.3554292 79.7646764,3.55814106 L79.7646764,3.55814106 Z M81.6592933,6.31951886 L81.6592933,5.2765883 C81.6592933,4.84723893 81.6592933,4.41736468 81.7204437,3.98801531 C81.6334905,4.42093775 81.5316868,4.85071783 81.4152144,5.2765883 L81.1700902,6.44234008 L80.8648609,5.2765883 C80.8037105,4.90864954 80.680887,4.29454347 80.6197366,3.98801531 L80.6197366,6.31951886 L80.0704284,6.31951886 L80.0704284,2.45379989 L80.680887,2.45379989 L80.9260113,3.61955167 C81.0472667,3.98801531 81.1089398,4.41736468 81.1700902,4.72389284 C81.1700902,4.41736468 81.292391,3.98749043 81.354064,3.61955167 L81.5981429,2.45379989 L82.2096468,2.45379989 L82.2096468,6.31951886 L81.6592933,6.31951886 Z M82.6978047,6.31951886 L82.6978047,2.45327501 L84.1032184,2.45327501 L84.1032184,3.06685621 L83.3087859,3.06685621 L83.3087859,3.98749043 L83.9202899,3.98749043 L83.9202899,4.60107162 L83.3087859,4.60107162 L83.3087859,5.7668234 L84.1643688,5.7668234 L84.1643688,6.31951886 L82.6978047,6.31951886 L82.6978047,6.31951886 Z M85.7537563,6.31951886 L85.3863313,5.15376709 C85.2705593,4.74836154 85.1687556,4.33906374 85.081102,3.9266047 L85.081102,6.32004374 L84.5307485,6.32004374 L84.5307485,2.45432477 L85.081102,2.45432477 L85.3863313,3.4363696 C85.4474817,3.74289776 85.6314556,4.23418261 85.6926059,4.54071077 L85.6926059,2.45432477 L86.2419142,2.45432477 L86.2419142,6.32004374 L85.7537563,6.32004374 L85.7537563,6.31951886 L85.7537563,6.31951886 Z M87.7084783,3.06685621 L87.7084783,6.31951886 L87.097497,6.31951886 L87.097497,3.06685621 L86.5481888,3.06685621 L86.5481888,2.45327501 L88.1976814,2.45327501 L88.1976814,3.06685621 L87.7084783,3.06685621 Z" id="Shape"></path>
        </g>
    </g>
</svg>