<?xml version="1.0" encoding="UTF-8"?>
<svg width="176px" height="23px" viewBox="0 0 176 23" version="1.1" xmlns="http://www.w3.org/2000/svg" xmlns:xlink="http://www.w3.org/1999/xlink">
    <!-- Generator: Sketch 54.1 (76490) - https://sketchapp.com -->
    <title>techcrunch</title>
    <desc>Created with Sketch.</desc>
    <defs>
        <polygon id="path-1" points="0.0811985185 0.0526955556 14.1280652 0.0526955556 14.1280652 16.8666667 0.0811985185 16.8666667"></polygon>
        <polygon id="path-3" points="0.0523718519 0.0831407407 14.8691422 0.0831407407 14.8691422 22.4921089 0.0523718519 22.4921089"></polygon>
        <polygon id="path-5" points="0.0773311111 0.124932593 18.8286348 0.124932593 18.8286348 22.3185185 0.0773311111 22.3185185"></polygon>
        <polygon id="path-7" points="0.0983207407 0.0526955556 14.1453578 0.0526955556 14.1453578 16.8666667 0.0983207407 16.8666667"></polygon>
        <polygon id="path-9" points="0.0696814815 0.0831407407 14.8864519 0.0831407407 14.8864519 22.4921089 0.0696814815 22.4921089"></polygon>
    </defs>
    <g id="techcrunch" stroke="none" stroke-width="1" fill="none" fill-rule="evenodd">
        <g id="Group-26" transform="translate(0.000000, 0.000000)">
            <polygon id="Fill-1" fill="#2A4549" points="0 1.06164593 0 6.25657926 6.02480741 6.25657926 6.02480741 22.5794237 11.9881111 22.5794237 11.9881111 6.25657926 18.0129185 6.25657926 18.0129185 1.06164593"></polygon>
            <g id="Group-25" transform="translate(17.377778, 0.087230)">
                <path d="M7.24077481,10.1039852 C5.98020444,10.1039852 5.27350815,10.9645259 5.08899704,12.5627704 L9.70024148,12.5627704 C9.42270815,10.9336889 8.86883407,10.1039852 7.24077481,10.1039852 M14.5561378,16.006637 L5.08899704,16.006637 C5.27350815,17.7892222 6.31787852,18.5875778 7.8244637,18.5875778 C9.23819704,18.5875778 10.4069378,18.2798889 12.0050119,17.4501852 L14.1252711,20.9853704 C12.1281896,22.1529185 10.0679007,22.8296296 7.5484637,22.8296296 C2.6908637,22.8296296 0.0169007407,19.385763 0.0169007407,14.4370148 C0.0169007407,8.87425185 3.15171556,6.01560741 7.39376741,6.01560741 C11.8205007,6.01560741 14.5874859,8.93575556 14.5874859,14.9290444 C14.5874859,15.3912593 14.5874859,15.7289333 14.5561378,16.006637" id="Fill-2" fill="#2A4549"></path>
                <g id="Group-6" transform="translate(17.207407, 5.962963)">
                    <mask id="mask-2" fill="white">
                        <use xlink:href="#path-1"></use>
                    </mask>
                    <g id="Clip-5"></g>
                    <path d="M7.6425763,16.8667178 C2.90985778,16.8667178 0.0811985185,13.8550807 0.0811985185,8.41396222 C0.0811985185,3.46436222 2.60216889,0.0526955556 7.76575407,0.0526955556 C10.8089096,0.0526955556 12.5615096,1.46625852 13.9750726,3.7410437 L10.1635467,6.63052519 C9.3951763,5.21611037 8.87162815,4.54025111 7.67426519,4.54025111 C6.25916889,4.54025111 5.55230222,5.95449556 5.55230222,8.50545111 C5.55230222,11.05794 6.32067259,12.3783104 7.82725778,12.3783104 C8.87162815,12.3783104 9.61001333,11.7946215 10.6243985,10.2882067 L14.1280652,13.0236733 C12.2538207,15.7908289 10.5012207,16.8667178 7.6425763,16.8667178" id="Fill-4" fill="#2A4549" mask="url(#mask-2)"></path>
                </g>
                <g id="Group-9" transform="translate(34.414815, 0.000000)">
                    <mask id="mask-4" fill="white">
                        <use xlink:href="#path-3"></use>
                    </mask>
                    <g id="Clip-8"></g>
                    <path d="M9.3050163,22.4921089 L9.3050163,13.3311237 C9.3050163,11.2406793 8.59832,10.6878274 7.46092741,10.6878274 C6.29184593,10.6878274 5.58514963,11.2406793 5.58514963,13.2692793 L5.58514963,22.4921089 L0.0523718519,22.4921089 L0.0523718519,2.29640519 L5.58514963,0.0831237037 L5.58514963,7.4293237 C6.59953481,6.66095333 7.73692741,6.01559037 9.64252,6.01559037 C13.1780459,6.01559037 14.8691422,8.38220519 14.8691422,12.6240867 L14.8691422,22.4921089 L9.3050163,22.4921089 Z" id="Fill-7" fill="#2A4549" mask="url(#mask-4)"></path>
                </g>
                <g id="Group-12" transform="translate(52.644444, 0.511111)">
                    <mask id="mask-6" fill="white">
                        <use xlink:href="#path-5"></use>
                    </mask>
                    <g id="Clip-11"></g>
                    <path d="M9.88367926,22.3185696 C3.48984963,22.3185696 0.0773311111,17.5843178 0.0773311111,11.2216659 C0.0773311111,4.30565111 4.13504222,0.124932593 9.91383481,0.124932593 C15.2019607,0.124932593 17.2920644,2.39971778 18.7673015,6.45742889 L13.3577015,8.57854 C12.5877978,6.5804363 11.8509459,5.31986593 9.88367926,5.31986593 C7.39422741,5.31986593 6.31833852,7.80931778 6.31833852,11.2216659 C6.31833852,14.511177 7.36270889,17.1236363 9.94518296,17.1236363 C11.8194274,17.1236363 12.6193163,16.1092511 13.7866941,14.0804807 L18.8286348,16.7544437 C17.3835533,19.5829326 14.9855904,22.3185696 9.88367926,22.3185696" id="Fill-10" fill="#2A4549" mask="url(#mask-6)"></path>
                </g>
                <path d="M85.0833889,12.4395926 C84.3766926,11.6712222 83.578337,11.0875333 82.5026185,11.0875333 C81.1488556,11.0875333 80.3191519,11.7328963 80.3191519,13.6999926 L80.3191519,22.4921259 L74.7865444,22.4921259 L74.7865444,6.35328148 L80.3191519,6.35328148 L80.3191519,7.52151111 C81.2720333,6.5992963 82.3479222,6.01560741 83.7630185,6.01560741 C84.9303963,6.01560741 85.7301148,6.29177778 86.3754778,6.69163704 L85.0833889,12.4395926 Z" id="Fill-13" fill="#2A4549"></path>
                <path d="M98.2375148,22.4921089 L98.2375148,21.4146867 C97.2532852,22.1828867 96.085737,22.8296126 94.2114926,22.8296126 C90.676137,22.8296126 88.9848704,20.4633385 88.9848704,16.2197533 L88.9848704,6.35326444 L94.5491667,6.35326444 L94.5491667,15.51442 C94.5491667,17.6033311 95.255863,18.1568644 96.3934259,18.1568644 C97.5308185,18.1568644 98.2375148,17.6033311 98.2375148,15.5743904 L98.2375148,6.35326444 L103.801641,6.35326444 L103.801641,22.4921089 L98.2375148,22.4921089 Z" id="Fill-15" fill="#2A4549"></path>
                <path d="M117.045807,22.4921089 L117.045807,13.3311237 C117.045807,11.2406793 116.339281,10.6878274 115.201548,10.6878274 C114.032637,10.6878274 113.32577,11.2406793 113.32577,13.2692793 L113.32577,22.4921089 L107.793163,22.4921089 L107.793163,6.35326444 L113.32577,6.35326444 L113.32577,7.4293237 C114.340326,6.66095333 115.477719,6.01559037 117.383311,6.01559037 C120.918667,6.01559037 122.609933,8.38220519 122.609933,12.6240867 L122.609933,22.4921089 L117.045807,22.4921089 Z" id="Fill-17" fill="#2A4549"></path>
                <g id="Group-21" transform="translate(125.733333, 5.962963)">
                    <mask id="mask-8" fill="white">
                        <use xlink:href="#path-7"></use>
                    </mask>
                    <g id="Clip-20"></g>
                    <path d="M7.65986889,16.8667178 C2.92698,16.8667178 0.0983207407,13.8550807 0.0983207407,8.41396222 C0.0983207407,3.46436222 2.61929111,0.0526955556 7.78304667,0.0526955556 C10.8260319,0.0526955556 12.5788022,1.46625852 13.9923652,3.7410437 L10.1808393,6.63052519 C9.41246889,5.21611037 8.88875037,4.54025111 7.69138741,4.54025111 C6.27629111,4.54025111 5.56942444,5.95449556 5.56942444,8.50545111 C5.56942444,11.05794 6.33779481,12.3783104 7.84438,12.3783104 C8.88875037,12.3783104 9.62713556,11.7946215 10.6415207,10.2882067 L14.1453578,13.0236733 C12.2711133,15.7908289 10.518343,16.8667178 7.65986889,16.8667178" id="Fill-19" fill="#2A4549" mask="url(#mask-8)"></path>
                </g>
                <g id="Group-24" transform="translate(142.940741, 0.000000)">
                    <mask id="mask-10" fill="white">
                        <use xlink:href="#path-9"></use>
                    </mask>
                    <g id="Clip-23"></g>
                    <path d="M9.32232593,22.4921089 L9.32232593,13.3311237 C9.32232593,11.2406793 8.61562963,10.6878274 7.47806667,10.6878274 C6.30898519,10.6878274 5.60228889,11.2406793 5.60228889,13.2692793 L5.60228889,22.4921089 L0.0696814815,22.4921089 L0.0696814815,2.29640519 L5.60228889,0.0831237037 L5.60228889,7.4293237 C6.61667407,6.66095333 7.75423704,6.01559037 9.65982963,6.01559037 C13.1951852,6.01559037 14.8864519,8.38220519 14.8864519,12.6240867 L14.8864519,22.4921089 L9.32232593,22.4921089 Z" id="Fill-22" fill="#2A4549" mask="url(#mask-10)"></path>
                </g>
            </g>
        </g>
    </g>
</svg>