<?xml version="1.0" encoding="UTF-8"?>
<svg width="103px" height="35px" viewBox="0 0 103 35" version="1.1" xmlns="http://www.w3.org/2000/svg" xmlns:xlink="http://www.w3.org/1999/xlink">
    <!-- Generator: Sketch 54.1 (76490) - https://sketchapp.com -->
    <title>the-business-journals</title>
    <desc>Created with Sketch.</desc>
    <defs>
        <polygon id="path-1" points="0 34.981719 102.349138 34.981719 102.349138 0.059666932 0 0.059666932"></polygon>
    </defs>
    <g id="the-business-journals" stroke="none" stroke-width="1" fill="none" fill-rule="evenodd">
        <g id="Group">
            <polygon id="Fill-1" fill="#2A4549" points="0 0.436769863 0 3.34091257 2.27317339 3.34091257 2.27317339 14.948375 6.11660714 14.948375 6.11660714 3.34091257 8.39892324 3.34091257 8.39892324 0.436769863"></polygon>
            <polygon id="Fill-2" fill="#2A4549" points="18.1126219 14.9484014 18.1126219 0.436796264 14.2691881 0.436796264 14.2691881 5.62649929 13.1188202 5.62649929 13.1188202 0.436796264 9.2753864 0.436796264 9.2753864 14.9484014 13.1188202 14.9484014 13.1188202 8.85339786 14.2691881 8.85339786 14.2691881 14.9484014"></polygon>
            <polygon id="Fill-3" fill="#2A4549" points="26.3198844 12.0442587 23.4989551 12.0442587 23.4989551 8.85339786 25.899992 8.85339786 25.899992 6.09261419 23.4989551 6.09261419 23.4989551 3.34093897 26.0642919 3.34093897 26.0642919 0.436796264 19.6555214 0.436796264 19.6555214 14.9484014 26.3198844 14.9484014"></polygon>
            <g id="Group-24" transform="translate(0.000000, 0.072340)">
                <path d="M34.5637849,8.33284348 C35.1357421,8.35079636 35.488812,8.42551203 35.6227258,8.55685848 C35.7566396,8.68846895 35.8235965,9.06481945 35.8235965,9.68630599 L35.8235965,11.0397685 C35.8235965,11.6254813 35.7489759,11.9929873 35.6000035,12.1422867 C35.4507622,12.291718 35.105356,12.3752781 34.5637849,12.393231 L34.5637849,8.33284348 Z M34.5637849,2.84731392 C34.9593415,2.85325421 35.2255557,2.88018353 35.3625619,2.92796988 C35.4994337,2.97575623 35.6104907,3.09086589 35.695733,3.27303484 C35.7809753,3.4553358 35.8235965,3.77360344 35.8235965,4.22757374 C35.8235965,5.08812403 35.7718326,5.60954965 35.6684393,5.79171861 C35.5647771,5.97401956 35.3245121,6.06510404 34.9472409,6.06510404 C34.8559483,6.06510404 34.7280848,6.06814019 34.5637849,6.07408048 L34.5637849,2.84731392 Z M38.2337761,14.6159562 C38.732726,14.4426317 39.0965521,14.1197438 39.3247165,13.6474246 C39.5528808,13.1751054 39.6670303,12.4486737 39.6670303,11.4679975 L39.6670303,10.1228514 C39.6670303,9.17821302 39.5087807,8.47712657 39.1924161,8.01959208 C38.8757825,7.56232161 38.2733049,7.23494553 37.3845797,7.03759583 C38.1818778,6.85846303 38.716054,6.60184241 38.9868396,6.26733798 C39.2576251,5.93283354 39.3932868,5.34170849 39.3932868,4.49369882 C39.3932868,3.2396372 39.2014243,2.33064053 38.8181028,1.76618079 C38.4345123,1.20185306 37.9308566,0.827350656 37.3071356,0.642145555 C36.6831457,0.456940454 35.7656479,0.364403907 34.5546422,0.364403907 L30.7203511,0.364403907 L30.7203511,14.876009 L35.1662626,14.876009 C36.7121872,14.876009 37.7346917,14.7894128 38.2337761,14.6159562 L38.2337761,14.6159562 Z" id="Fill-4" fill="#2A4549"></path>
                <path d="M45.5281524,15.180812 C46.3254505,15.180812 47.0176074,15.059762 47.6050265,14.8177941 C48.1921767,14.5758263 48.6654463,14.2203328 49.024701,13.7511817 C49.3836868,13.2821627 49.5997506,12.8250242 49.6727578,12.3797663 C49.745765,11.9346405 49.7823359,11.1622705 49.7823359,10.0627885 L49.7823359,0.364403907 L45.9389021,0.364403907 L45.9389021,11.0577214 C45.9389021,11.7807209 45.9038102,12.2394434 45.833761,12.433493 C45.7639806,12.6278065 45.60721,12.7248313 45.3637181,12.7248313 C45.1506123,12.7248313 45.0091692,12.636783 44.9391199,12.4604223 C44.8693396,12.2843257 44.8342477,11.8793298 44.8342477,11.2458306 L44.8342477,0.364403907 L40.9908139,0.364403907 L40.9908139,8.95129387 C40.9908139,10.5885703 41.0212,11.6627071 41.0821066,12.1735722 C41.1428787,12.6845693 41.340657,13.1700892 41.675576,13.6301318 C42.0100916,14.0903064 42.5153607,14.4637527 43.1909801,14.7506028 C43.8665994,15.0374529 44.6456121,15.180812 45.5281524,15.180812" id="Fill-6" fill="#2A4549"></path>
                <path d="M55.4699617,15.180812 C56.4072239,15.180812 57.2288577,15.0150118 57.9348631,14.6832795 C58.6408685,14.3516792 59.1172306,13.9408751 59.3635459,13.450867 C59.6101302,12.9609909 59.7332878,12.1991815 59.7332878,11.1653067 C59.7332878,9.74320078 59.5111738,8.71236213 59.0669457,8.0729227 C58.6224486,7.43361529 57.5450879,6.61530708 55.8341911,5.61839409 C55.2374949,5.27214107 54.8754167,4.97631454 54.748091,4.73104648 C54.6145806,4.48604244 54.548027,4.12117651 54.548027,3.63684471 C54.548027,3.2600982 54.6073202,2.9791884 54.7260409,2.79385129 C54.8446273,2.60838218 55.0194144,2.51558162 55.25094,2.51558162 C55.4639114,2.51558162 55.6159762,2.584357 55.7074033,2.72177575 C55.7985614,2.85932651 55.8441405,3.17891421 55.8441405,3.68080287 L55.8441405,4.75652374 L59.4138308,4.75652374 L59.4138308,4.18282354 C59.4138308,3.02961488 59.2996814,2.21236272 59.071517,1.73133108 C58.8433526,1.25043145 58.3777467,0.851507843 57.6746992,0.534692275 C56.9717862,0.218008713 56.1212453,0.0597329353 55.1230766,0.0597329353 C54.2101501,0.0597329353 53.431003,0.204676058 52.7859042,0.494430296 C52.1406709,0.784316541 51.673586,1.18614429 51.3845151,1.69991353 C51.0954441,2.21394679 50.9509086,3.02657873 50.9509086,4.13794134 C50.9509086,4.90885922 51.0526885,5.54222635 51.256786,6.03817472 C51.4606147,6.53425509 51.7178206,6.92261818 52.0281349,7.20339598 C52.3385837,7.48443779 52.9715819,7.93550395 53.9271295,8.55685848 C54.8825426,9.17240473 55.4820624,9.61172232 55.7255542,9.87454724 C55.9628613,10.1375042 56.0815821,10.6961556 56.0815821,11.5506336 C56.0815821,11.9391287 56.0190621,12.2319191 55.8944254,12.4290048 C55.7696543,12.6262225 55.5794053,12.7248313 55.3239473,12.7248313 C55.0682203,12.7248313 54.8902064,12.6473435 54.789771,12.4918398 C54.6893357,12.3364682 54.6390508,11.986915 54.6390508,11.4431803 L54.6390508,9.67732954 L51.0694949,9.67732954 L51.0694949,10.6273802 C51.0694949,11.7151137 51.1821654,12.5545429 51.4073718,13.146064 C51.6325783,13.7377171 52.1088059,14.224821 52.8360546,14.6071118 C53.5633034,14.9895346 54.4414069,15.180812 55.4699617,15.180812" id="Fill-8" fill="#2A4549"></path>
                <mask id="mask-2" fill="white">
                    <use xlink:href="#path-1"></use>
                </mask>
                <g id="Clip-11"></g>
                <polygon id="Fill-10" fill="#2A4549" mask="url(#mask-2)" points="60.9383104 14.876075 64.7818786 14.876075 64.7818786 0.36446991 60.9383104 0.36446991"></polygon>
                <polygon id="Fill-12" fill="#2A4549" mask="url(#mask-2)" points="74.9063538 0.364430308 71.6929603 0.364430308 71.6929603 6.8987514 69.5382388 0.364430308 66.3248453 0.364430308 66.3248453 14.8760354 69.5382388 14.8760354 69.5382388 8.27901123 71.5376687 14.8760354 74.9063538 14.8760354"></polygon>
                <polygon id="Fill-13" fill="#2A4549" mask="url(#mask-2)" points="83.1136835 11.9719191 80.2927543 11.9719191 80.2927543 8.7810583 82.6937912 8.7810583 82.6937912 6.02027464 80.2927543 6.02027464 80.2927543 3.26859942 82.858091 3.26859942 82.858091 0.364456709 76.4491861 0.364456709 76.4491861 14.8760618 83.1136835 14.8760618"></polygon>
                <path d="M88.7819214,5.61832808 C88.1853596,5.27207507 87.823147,4.97638054 87.6958213,4.73111249 C87.5624453,4.48597644 87.4957573,4.12124252 87.4957573,3.63691072 C87.4957573,3.2601642 87.5550505,2.97912239 87.6737713,2.79378529 C87.792492,2.60831617 87.9672791,2.51564762 88.1986704,2.51564762 C88.4116417,2.51564762 88.5638409,2.584423 88.6551336,2.72184175 C88.7464262,2.85939251 88.7920053,3.17898022 88.7920053,3.68086888 L88.7920053,4.75645773 L92.3616956,4.75645773 L92.3616956,4.18275754 C92.3616956,3.02968088 92.2474117,2.21242872 92.0192473,1.73139708 C91.791083,1.25036544 91.325477,0.851573846 90.6224295,0.534758278 C89.9195165,0.218074716 89.0689756,0.059666932 88.0708069,0.059666932 C87.1580149,0.059666932 86.3788678,0.204610055 85.7336345,0.494364293 C85.0884012,0.784250538 84.6213163,1.18607828 84.3323798,1.69997954 C84.0433089,2.21388079 83.8987734,3.02651272 83.8987734,4.13800734 C83.8987734,4.90879322 84.0004188,5.54229235 84.2045163,6.03824072 C84.408345,6.53418909 84.6656854,6.92268418 84.9759997,7.20346198 C85.2864485,7.48437178 85.9193122,7.93543795 86.8748598,8.55692449 C87.8302729,9.17247074 88.4299271,9.61165632 88.673419,9.87448123 C88.9107261,10.1375702 89.0294469,10.6962216 89.0294469,11.5506996 C89.0294469,11.9391947 88.9669269,12.2318531 88.8422902,12.4290708 C88.7175191,12.6262885 88.5272701,12.7247653 88.2716776,12.7247653 C88.0160851,12.7247653 87.8380711,12.6472775 87.7375013,12.4917738 C87.6372004,12.3365342 87.5869155,11.986981 87.5869155,11.4431143 L87.5869155,9.67739555 L84.0173597,9.67739555 L84.0173597,10.6274462 C84.0173597,11.7150477 84.1298957,12.5544769 84.3552366,13.14613 C84.5803086,13.7376511 85.0566707,14.224755 85.7839194,14.6071778 C86.5111682,14.9894686 87.3891372,15.180746 88.417692,15.180746 C89.3549542,15.180746 90.176588,15.0149458 90.8827279,14.6833455 C91.5885988,14.3517452 92.0649609,13.9409411 92.3114107,13.450801 C92.5578605,12.9610569 92.6811526,12.1991155 92.6811526,11.1652407 C92.6811526,9.74313478 92.4589041,8.71229612 92.0148104,8.0728567 C91.5703134,7.43354928 90.4928182,6.61537308 88.7819214,5.61832808" id="Fill-14" fill="#2A4549" mask="url(#mask-2)"></path>
                <path d="M101.682701,8.0728963 C101.238339,7.43358889 100.160978,6.61528068 98.4499469,5.61836769 C97.8532506,5.27211467 97.4913069,4.97628814 97.3638468,4.73115209 C97.2303363,4.48601604 97.1637828,4.12115011 97.1637828,3.63695032 C97.1637828,3.26020381 97.2230759,2.979162 97.3417967,2.79382489 C97.460383,2.60835577 97.6351701,2.51555521 97.8666958,2.51555521 C98.0796672,2.51555521 98.2318664,2.58433059 98.3232935,2.72174935 C98.4143172,2.85930011 98.4600308,3.17888781 98.4600308,3.68090848 L98.4600308,4.75649733 L102.029587,4.75649733 L102.029587,4.18279714 C102.029587,3.02958847 101.915572,2.21233631 101.687273,1.73130468 C101.459108,1.25040504 100.993502,0.851481442 100.290589,0.53479788 C99.587542,0.218114318 98.7370011,0.059706534 97.7389668,0.059706534 C96.8259059,0.059706534 96.0467588,0.204649656 95.4017944,0.494403895 C94.7565611,0.78429014 94.2894762,1.18611789 94.0002708,1.70001914 C93.7111999,2.21392039 93.5667988,3.02655232 93.5667988,4.13791494 C93.5667988,4.90883282 93.6687131,5.54233195 93.8725418,6.03814831 C94.0765049,6.53422869 94.3335764,6.92272378 94.6438907,7.20350158 C94.9543395,7.48441138 95.5873376,7.93547755 96.5428852,8.55696409 C97.4984328,9.17251034 98.0979526,9.61169592 98.34131,9.87452083 C98.5787515,10.1376098 98.6974723,10.6962612 98.6974723,11.5507392 C98.6974723,11.9392343 98.6349523,12.2318927 98.5101812,12.4291104 C98.3855446,12.6263281 98.19543,12.7248049 97.939703,12.7248049 C97.6841105,12.7248049 97.5060966,12.6473171 97.4056612,12.4918134 C97.3050914,12.3364418 97.254941,11.9868886 97.254941,11.4431539 L97.254941,9.67730314 L93.6855196,9.67730314 L93.6855196,10.6274858 C93.6855196,11.7150873 93.7979211,12.5545165 94.0231276,13.1461696 C94.248334,13.7376907 94.7245616,14.2247946 95.4519449,14.6072174 C96.1790592,14.9895082 97.0572971,15.1807856 98.0858519,15.1807856 C99.0229797,15.1807856 99.8446134,15.0149854 100.550619,14.6833851 C101.256759,14.3516528 101.732986,13.9409807 101.979436,13.4508406 C102.22602,12.9609645 102.349178,12.1991551 102.349178,11.1652803 C102.349178,9.74317438 102.127064,8.71233572 101.682701,8.0728963" id="Fill-15" fill="#2A4549" mask="url(#mask-2)"></path>
                <path d="M16.4511496,30.3746398 C16.4511496,30.9244468 16.43878,31.294989 16.4147132,31.4861344 C16.390243,31.6774118 16.2988159,31.8388558 16.1407008,31.9700702 C15.9824512,32.1015487 15.7663875,32.1672879 15.4925096,32.1672879 C15.3889818,32.1672879 15.2215896,32.1583115 14.9904673,32.1404906 L14.9904673,34.6769952 L16.915411,34.6769952 C17.7667586,34.6769952 18.4037903,34.6128401 18.8266406,34.4843978 C19.2493565,34.3559555 19.5844099,34.1244161 19.8319353,33.7896476 C20.0790574,33.4551432 20.2183493,33.0801128 20.2487353,32.6648204 C20.2793903,32.2495279 20.2945833,31.3157141 20.2945833,29.8636427 L20.2945833,20.1653901 L16.4511496,20.1653901 L16.4511496,30.3746398 Z" id="Fill-16" fill="#2A4549" mask="url(#mask-2)"></path>
                <path d="M26.7215989,30.5628547 C26.7215989,31.4175967 26.6851625,31.9581632 26.6121553,32.1852144 C26.5391481,32.4123975 26.3714869,32.5257911 26.1099785,32.5257911 C25.854386,32.5257911 25.6914306,32.4271823 25.6215158,32.2299646 C25.5514665,32.0328789 25.5165091,31.5129053 25.5165091,30.6703079 L25.5165091,23.894151 C25.5165091,23.1472583 25.5697519,22.6975122 25.6763721,22.5451767 C25.7827233,22.3927092 25.9365359,22.3165414 26.1372722,22.3165414 C26.3747137,22.3165414 26.5313499,22.4107941 26.6074495,22.5989033 C26.6835491,22.7871446 26.7215989,23.2189378 26.7215989,23.894151 L26.7215989,30.5628547 Z M29.770827,21.3844436 C29.387371,20.8766147 28.8807573,20.495644 28.2508515,20.2415315 C27.6208113,19.987683 26.9101001,19.8606928 26.1191212,19.8606928 C25.2851179,19.8606928 24.5549112,19.9950754 23.9280978,20.2639726 C23.3011499,20.5328698 22.8035445,20.9183287 22.435416,21.4202174 C22.067153,21.9222381 21.8479969,22.4765333 21.7780821,23.0829711 C21.7080328,23.6895409 21.6730753,24.7218316 21.6730753,26.1798433 L21.6730753,28.6626213 C21.6730753,30.1565387 21.7096462,31.2022941 21.7826534,31.7998874 C21.8557951,32.3973488 22.0839595,32.950192 22.467281,33.4580209 C22.850737,33.9659819 23.3574851,34.3469526 23.9873909,34.6009331 C24.6172967,34.8547816 25.3278735,34.9817718 26.1191212,34.9817718 C26.9528557,34.9817718 27.6831968,34.8473892 28.3100102,34.578492 C28.9369581,34.3095948 29.4345635,33.9241358 29.8028265,33.4221152 C30.170955,32.9200945 30.3899767,32.3660633 30.4601604,31.7593615 C30.5299408,31.1530557 30.5650326,30.1206329 30.5650326,28.6626213 L30.5650326,26.1798433 C30.5650326,24.6859259 30.5284618,23.6403025 30.4554546,23.0425771 C30.3825818,22.4451158 30.154283,21.8924046 29.770827,21.3844436 L29.770827,21.3844436 Z" id="Fill-17" fill="#2A4549" mask="url(#mask-2)"></path>
                <path d="M36.8917339,30.8585756 C36.8917339,31.5818391 36.856642,32.0404297 36.7867272,32.2346112 C36.7166779,32.4287928 36.5599073,32.5258175 36.3166843,32.5258175 C36.1035785,32.5258175 35.962001,32.4377692 35.8919517,32.2614085 C35.8220369,32.0853119 35.7870794,31.680316 35.7870794,31.0468168 L35.7870794,20.1653901 L31.9436457,20.1653901 L31.9436457,28.7522801 C31.9436457,30.3895565 31.9740318,31.4636933 32.0349383,31.9745584 C32.0957105,32.4854235 32.2936232,32.9710754 32.6282733,33.431118 C32.9629234,33.8914246 33.4681925,34.264739 34.1438119,34.5515891 C34.8194312,34.8383072 35.5984438,34.9816662 36.4808498,34.9816662 C37.2781478,34.9816662 37.9703047,34.8607483 38.5578582,34.6186484 C39.1451429,34.3766805 39.6182781,34.021319 39.9773984,33.5520359 C40.3365186,33.0831489 40.5527168,32.6260104 40.6255896,32.1807526 C40.6985968,31.7357587 40.7351676,30.9632567 40.7351676,29.8636427 L40.7351676,20.1653901 L36.8917339,20.1653901 L36.8917339,30.8585756 Z" id="Fill-18" fill="#2A4549" mask="url(#mask-2)"></path>
                <path d="M47.2353249,24.5664204 C47.2353249,25.2058598 47.1484691,25.5837944 46.9750266,25.7002241 C46.801584,25.8167858 46.498799,25.8750007 46.0668059,25.8750007 L46.0668059,22.6482341 C46.5108996,22.6482341 46.816777,22.7199137 46.9843037,22.8634047 C47.1515615,23.0067638 47.2353249,23.3086626 47.2353249,23.7687052 L47.2353249,24.5664204 Z M50.3757112,26.4038187 C50.6618242,26.0155876 50.8048807,25.2565503 50.8048807,24.1272348 C50.8048807,22.890202 50.602531,21.9895218 50.1978317,21.424798 C49.7928634,20.8600743 49.2695778,20.509069 48.6274369,20.3715183 C47.985296,20.2342315 46.7573494,20.1654561 44.9438661,20.1654561 L42.2233722,20.1654561 L42.2233722,34.6769292 L46.0668059,34.6769292 L46.0668059,28.1337637 C46.5962764,28.1337637 46.9233972,28.2265643 47.0481682,28.4116373 C47.1728049,28.5969745 47.2353249,29.0780061 47.2353249,29.8547323 L47.2353249,34.6769292 L50.8048807,34.6769292 L50.8048807,30.8496652 C50.8048807,29.6785036 50.7730157,28.9628964 50.7090167,28.7028437 C50.6450177,28.4430549 50.4821968,28.1577889 50.220554,27.8470456 C49.9589112,27.5364343 49.4475917,27.2882621 48.6868645,27.103057 C49.5267837,27.0254372 50.0895981,26.7923138 50.3757112,26.4038187 L50.3757112,26.4038187 Z" id="Fill-19" fill="#2A4549" mask="url(#mask-2)"></path>
                <polygon id="Fill-20" fill="#2A4549" mask="url(#mask-2)" points="57.6609717 26.6996716 55.5065191 20.1653505 52.2928567 20.1653505 52.2928567 34.6769556 55.5065191 34.6769556 55.5065191 28.0800635 57.5058146 34.6769556 60.8744997 34.6769556 60.8744997 20.1653505 57.6609717 20.1653505"></polygon>
                <path d="M65.7012722,29.496229 C65.8014386,28.2116739 66.0473506,26.1799621 66.4388737,23.4012255 C66.6345008,25.8210364 66.829859,27.8526163 67.0244105,29.496229 L65.7012722,29.496229 Z M63.5060807,20.1653505 L61.5456418,34.6769556 L65.5192247,34.6769556 L65.7502126,32.0686395 L67.1251147,32.0686395 L67.3312291,34.6769556 L71.2592329,34.6769556 L69.0612179,20.1653505 L63.5060807,20.1653505 Z" id="Fill-21" fill="#2A4549" mask="url(#mask-2)"></path>
                <polygon id="Fill-22" fill="#2A4549" mask="url(#mask-2)" points="75.7554695 20.1654033 71.9119013 20.1654033 71.9119013 34.6770084 78.0925074 34.6770084 78.0925074 31.7728657 75.7554695 31.7728657"></polygon>
                <path d="M83.45952,25.4193011 C82.8629582,25.0730481 82.50088,24.7773536 82.3734199,24.5320855 C82.2400439,24.2869495 82.1733559,23.9222155 82.1733559,23.4378837 C82.1733559,23.0611372 82.232649,22.7800954 82.3513698,22.5947583 C82.4700906,22.4092892 82.6448777,22.3166206 82.8762689,22.3166206 C83.0892402,22.3166206 83.2414395,22.385396 83.3328665,22.5228148 C83.4240247,22.6603655 83.4696038,22.9799532 83.4696038,23.4818419 L83.4696038,24.5574308 L87.0392941,24.5574308 L87.0392941,23.9837306 C87.0392941,22.8306539 86.9251447,22.0134017 86.6968459,21.5323701 C86.4686815,21.0513385 86.0030755,20.6525469 85.3000281,20.3357313 C84.597115,20.0190477 83.7465742,19.86064 82.7485398,19.86064 C81.8356134,19.86064 81.0564663,20.0055831 80.4113675,20.2953373 C79.7661342,20.5852236 79.2990493,20.9870513 79.0099783,21.5009526 C78.7209074,22.0148538 78.5763719,22.8274857 78.5763719,23.9389804 C78.5763719,24.7097662 78.6781518,25.3432654 78.8821149,25.8392137 C79.086078,26.3351621 79.3432839,26.7236572 79.6535982,27.004435 C79.964047,27.2853448 80.5969107,27.736411 81.5524583,28.3578975 C82.5080059,28.9733117 83.1075256,29.4126293 83.3510175,29.6754543 C83.5883246,29.9385432 83.7070454,30.4970626 83.7070454,31.3516726 C83.7070454,31.7400357 83.6445254,32.0328261 83.5198887,32.2299118 C83.3951176,32.4271295 83.2048686,32.5257383 82.9492761,32.5257383 C82.6936836,32.5257383 82.5156697,32.4483825 82.4152343,32.2928789 C82.3147989,32.1373752 82.264514,31.7879541 82.264514,31.2440873 L82.264514,29.4783686 L78.6949582,29.4783686 L78.6949582,30.4284193 C78.6949582,31.5160207 78.8074942,32.3554499 79.0328351,32.947103 C79.2579071,33.5386241 79.7342692,34.025728 80.4615179,34.4080188 C81.1887667,34.7904416 82.0668702,34.981719 83.095425,34.981719 C84.0325527,34.981719 84.8541865,34.8159189 85.5603264,34.4843186 C86.2663318,34.1527183 86.7425594,33.7417821 86.9890092,33.251774 C87.2355935,32.7620299 87.3587511,32.0000885 87.3587511,30.9662137 C87.3587511,29.5442398 87.1366371,28.5134011 86.692409,27.8738297 C86.2479119,27.2345223 85.1705512,26.4163461 83.45952,25.4193011" id="Fill-23" fill="#2A4549" mask="url(#mask-2)"></path>
            </g>
        </g>
    </g>
</svg>