<?xml version="1.0" encoding="UTF-8"?>
<svg width="145px" height="15px" viewBox="0 0 145 15" version="1.1" xmlns="http://www.w3.org/2000/svg" xmlns:xlink="http://www.w3.org/1999/xlink">
    <!-- Generator: Sketch 54.1 (76490) - https://sketchapp.com -->
    <title>hillsven</title>
    <desc>Created with Sketch.</desc>
    <defs>
        <polygon id="path-1" points="0 14.9356071 144.418902 14.9356071 144.418902 -0.000107142857 0 -0.000107142857"></polygon>
    </defs>
    <g id="hillsven" stroke="none" stroke-width="1" fill="none" fill-rule="evenodd">
        <g id="Group-12-Copy">
            <path d="M77.0988068,6.18525 C76.2299053,6.18525 75.3533144,6.16275 74.4953977,6.01917857 C73.605625,5.86917857 72.4697917,5.54025 72.1753977,4.59203571 C71.8480492,3.53882143 72.9102841,2.69560714 73.7495265,2.25846429 C74.8578977,1.67989286 77.9325568,0.653464286 82.5022538,3.62239286 C82.8801326,3.86882143 83.3920265,3.76917857 83.644678,3.39953571 C83.8973295,3.03096429 83.7951705,2.53167857 83.4161932,2.28525 C81.397178,0.974892857 79.0464205,-0.00867857143 76.5836174,0.000964285714 C74.3086553,0.00846428571 71.5152083,0.954535714 70.6342235,3.19382143 C70.2453598,4.18167857 70.5057008,5.40632143 71.2142235,6.19703571 C71.3647159,6.36525 71.5316856,6.51953571 71.7118371,6.65560714 C74.2757008,8.61417857 77.8512689,7.08632143 80.6238447,8.50596429 C81.4993371,8.95382143 82.2836553,9.72525 82.3704356,10.73025 C82.4572159,11.7320357 81.7706629,12.8709643 80.0680114,13.1538214 C79.3803598,13.2459643 78.6872159,13.3059643 77.9929735,13.3263214 C76.9823674,13.3541786 75.964072,13.2995357 74.9688447,13.1184643 C74.2789962,12.9931071 73.5968371,12.8088214 72.9520265,12.5366786 C72.7290341,12.4423929 72.5104356,12.3384643 72.300625,12.2195357 C71.9842614,12.0406071 71.7305114,11.8048929 71.4547917,11.57025 C71.2208144,11.3709643 70.9242235,11.1898929 70.6067614,11.2970357 C70.1761553,11.4416786 69.9696402,11.9206071 70.1333144,12.3341786 C70.4397917,13.1120357 72.7850568,14.9356071 77.5250189,14.9356071 C78.3774432,14.9356071 79.3078598,14.8766786 80.3173674,14.7416786 C82.670322,14.3516786 84.190625,12.6470357 84.0126705,10.59525 C83.8226326,8.39989286 81.6113826,6.18525 77.0988068,6.18525" id="Fill-1" fill="#FFFFFF"></path>
            <mask id="mask-2" fill="white">
                <use xlink:href="#path-1"></use>
            </mask>
            <g id="Clip-4"></g>
            <polygon id="Fill-3" fill="#FFFFFF" mask="url(#mask-2)" points="23.0714773 14.3891786 24.7192045 14.3891786 24.7192045 0.419892857 23.0714773 0.419892857"></polygon>
            <polygon id="Fill-5" fill="#FFFFFF" mask="url(#mask-2)" points="35.3011288 0.42 33.6534015 0.42 33.6534015 14.3614286 45.8279091 14.3614286 45.8279091 12.7542857 35.3011288 12.7542857"></polygon>
            <polygon id="Fill-6" fill="#FFFFFF" mask="url(#mask-2)" points="53.8793636 0.42 52.2316364 0.42 52.2316364 14.3614286 64.4061439 14.3614286 64.4061439 12.7542857 53.8793636 12.7542857"></polygon>
            <polygon id="Fill-7" fill="#FFFFFF" mask="url(#mask-2)" points="112.99103 7.05685714 122.099667 7.05685714 122.099667 5.44971429 111.343303 5.44971429 111.343303 6.98935714 111.343303 7.05685714 111.343303 14.3607857 123.517811 14.3607857 123.517811 12.7536429 112.99103 12.7536429"></polygon>
            <polygon id="Fill-8" fill="#FFFFFF" mask="url(#mask-2)" points="12.6385076 6.18525 1.64816667 6.18525 1.64816667 0.419892857 0.000439393939 0.419892857 0.000439393939 14.3891786 1.64816667 14.3891786 1.64816667 7.79239286 12.6385076 7.79239286 12.6385076 14.3891786 14.2862348 14.3891786 14.2862348 0.419892857 12.6385076 0.419892857"></polygon>
            <polygon id="Fill-9" fill="#FFFFFF" mask="url(#mask-2)" points="111.189735 2.13310714 124.430871 2.13310714 124.430871 0.525964286 111.189735 0.525964286"></polygon>
            <path d="M142.770845,0.52575 L142.770845,11.6964643 L133.346943,0.834321429 C133.130542,0.564321429 132.763648,0.45825 132.42861,0.568607143 C132.096867,0.680035714 131.872777,0.985392857 131.872777,1.32825 L131.872777,14.3611071 L133.520504,14.3611071 L133.520504,3.66932143 L142.747777,13.96575 C142.979557,14.2571786 143.266261,14.3611071 143.518913,14.3611071 C143.621072,14.3611071 143.717739,14.3439643 143.80342,14.3150357 C144.10111,14.2153929 144.418572,13.9250357 144.418572,13.4064643 L144.418572,0.52575 L142.770845,0.52575 Z" id="Fill-10" fill="#FFFFFF" mask="url(#mask-2)"></path>
            <path d="M97.0620114,11.7861429 L90.565572,0.525428571 L89.1056856,1.27114286 L96.3512917,13.9300714 C96.4929962,14.1947143 96.7742083,14.3607857 97.0806856,14.3607857 L97.0894735,14.3607857 C97.3992462,14.3575714 97.6804583,14.1850714 97.8188674,13.914 L104.698678,1.25507143 L103.222314,0.5415 L97.0620114,11.7861429 Z" id="Fill-11" fill="#FFFFFF" mask="url(#mask-2)"></path>
        </g>
    </g>
</svg>