<?xml version="1.0" encoding="UTF-8"?>
<svg width="101px" height="42px" viewBox="0 0 101 42" version="1.1" xmlns="http://www.w3.org/2000/svg" xmlns:xlink="http://www.w3.org/1999/xlink">
    <!-- Generator: Sketch 54.1 (76490) - https://sketchapp.com -->
    <title>m12</title>
    <desc>Created with Sketch.</desc>
    <g id="m12" stroke="none" stroke-width="1" fill="none" fill-rule="evenodd">
        <g fill="#FFFFFF" fill-rule="nonzero" id="Group">
            <g>
                <polygon id="Path" points="0.1 0.4 0.1 28.7 6.8 28.7 6.8 14 15.2 19.5 15.2 11.8"></polygon>
                <polygon id="Path" points="17.9 9.7 23.5 14 23.5 28.7 30.2 28.7 30.2 0.4"></polygon>
                <path d="M48,22.9 L53.4,17 C56.1,14.3 57.7,12 57.7,9 C57.7,3.8 53.4,0 46.1,0 C39,0 34.4,3.9 34.4,10.3 L34.4,10.5 L42,10.5 L42,10.1 C42,7.2 43.5,5.6 46.2,5.6 C48.5,5.6 50,7 50,9 C50,10.3 49.2,11.8 47.5,13.5 L33.4,28.5 L54.3,28.5 L58.3,22.7 L48,22.7 L48,22.9 Z" id="Path"></path>
            </g>
            <g transform="translate(0.000000, 35.000000)">
                <polygon id="Path" points="4.3 6 4.3 2.6 4.3 2.6 3.1 6 2.3 6 1.1 2.6 1.1 2.6 1.1 6 0 6 0 1.2 1.6 1.2 2.7 4.3 2.7 4.3 3.7 1.2 5.4 1.2 5.4 6"></polygon>
                <polygon id="Path" points="6.4 6 6.4 1.2 7.6 1.2 7.6 6"></polygon>
                <path d="M11.9,5.9 C11.5460281,6.02370345 11.1748614,6.0911883 10.8,6.1 C10.4576953,6.09089287 10.1194763,6.02324907 9.8,5.9 C9.18992696,5.68945029 8.71054971,5.21007304 8.5,4.6 C8.38555313,4.2780294 8.31819159,3.94122166 8.3,3.6 C8.30910713,3.25769529 8.37675093,2.91947632 8.5,2.6 C8.71054971,1.98992696 9.18992696,1.51054971 9.8,1.3 C10.1219706,1.18555313 10.4587783,1.11819159 10.8,1.1 C11.1412217,1.11819159 11.4780294,1.18555313 11.8,1.3 C12.0999651,1.40627701 12.3730247,1.57693931 12.6,1.8 L11.8,2.6 C11.7,2.5 11.6,2.3 11.4,2.3 C11.2435838,2.22760387 11.0722289,2.19333289 10.9,2.2 C10.6948523,2.1842383 10.4889467,2.2185559 10.3,2.3 C10.1495119,2.3748097 10.013954,2.47647812 9.9,2.6 C9.77816006,2.75254941 9.67726598,2.92070621 9.6,3.1 C9.46666667,3.48888889 9.46666667,3.91111111 9.6,4.3 C9.7,4.5 9.8,4.6 9.9,4.8 C10,5 10.2,5 10.3,5.1 C10.4535417,5.1808367 10.6271782,5.21556399 10.8,5.2 C11.0051477,5.2157617 11.2110533,5.1814441 11.4,5.1 C11.5786885,5.02141655 11.7214166,4.87868851 11.8,4.7 L12.6,5.5 C12.3939771,5.67628055 12.1564687,5.81199961 11.9,5.9 L11.9,5.9 Z" id="Path"></path>
                <path d="M15.8,6 L14.8,4.1 L14.4,4.1 L14.4,6 L13.3,6 L13.3,1.2 L15.1,1.2 C15.3377632,1.18390155 15.5762549,1.21797179 15.8,1.3 C16.012492,1.32071349 16.2175783,1.38907558 16.4,1.5 C16.6,1.6 16.7,1.8 16.8,1.9 C16.9251106,2.11252833 16.9939469,2.35345525 17,2.6 C17.0074896,2.8954741 16.8999272,3.18230722 16.7,3.4 C16.5107791,3.62108968 16.2705078,3.79271202 16,3.9 L17.2,5.9 L15.8,5.9 L15.8,6 Z M15.7,2.7 C15.7132315,2.59007489 15.6765403,2.48000117 15.6,2.4 C15.6,2.3 15.5,2.3 15.4,2.2 C15.3,2.1 15.2,2.1 15.1,2.1 L14.2,2.1 L14.2,3.2 L15,3.2 C15.1099251,3.21323153 15.2199988,3.17654029 15.3,3.1 C15.4,3.1 15.4,3 15.5,2.9 C15.6,2.8 15.7,2.8 15.7,2.7 L15.7,2.7 Z" id="Shape"></path>
                <path d="M22.7,3.6 C22.6908929,3.94230471 22.6232491,4.28052368 22.5,4.6 C22.2894503,5.21007304 21.810073,5.68945029 21.2,5.9 C20.8780294,6.01444687 20.5412217,6.08180841 20.2,6.1 C19.8587783,6.08180841 19.5219706,6.01444687 19.2,5.9 C18.589927,5.68945029 18.1105497,5.21007304 17.9,4.6 C17.7855531,4.2780294 17.7181916,3.94122166 17.7,3.6 C17.7091071,3.25769529 17.7767509,2.91947632 17.9,2.6 C18.1105497,1.98992696 18.589927,1.51054971 19.2,1.3 C19.5219706,1.18555313 19.8587783,1.11819159 20.2,1.1 C20.5412217,1.11819159 20.8780294,1.18555313 21.2,1.3 C21.810073,1.51054971 22.2894503,1.98992696 22.5,2.6 C22.6232491,2.91947632 22.6908929,3.25769529 22.7,3.6 Z M21.4,3.6 C21.4157617,3.39485232 21.3814441,3.18894671 21.3,3 C21.2,2.8 21.1,2.7 21,2.5 C20.9,2.3 20.7,2.3 20.6,2.2 C20.5,2.1 20.2,2.1 20,2.1 C19.7948523,2.0842383 19.5889467,2.1185559 19.4,2.2 C19.2495119,2.2748097 19.113954,2.37647812 19,2.5 C18.8781601,2.65254941 18.777266,2.82070621 18.7,3 C18.5666667,3.38888889 18.5666667,3.81111111 18.7,4.2 C18.8,4.4 18.9,4.5 19,4.7 C19.1,4.9 19.3,4.9 19.4,5 C19.5,5.1 19.8,5.1 20,5.1 C20.2051477,5.1157617 20.4110533,5.0814441 20.6,5 C20.7504881,4.9251903 20.886046,4.82352188 21,4.7 C21.1218399,4.54745059 21.222734,4.37929379 21.3,4.2 C21.3814441,4.01105329 21.4157617,3.80514768 21.4,3.6 Z" id="Shape"></path>
                <path d="M25.9,2.5 C25.786046,2.37647812 25.6504881,2.2748097 25.5,2.2 C25.3464583,2.1191633 25.1728218,2.08443601 25,2.1 L24.8,2.1 C24.7,2.1 24.7,2.1 24.6,2.2 C24.5,2.3 24.5,2.3 24.4,2.3 C24.3,2.3 24.3,2.4 24.3,2.5 C24.3,2.6 24.3,2.6 24.4,2.7 C24.4,2.75522847 24.4447715,2.8 24.5,2.8 C24.6,2.8 24.6,2.9 24.7,2.9 C24.8,2.9 24.9,3 25,3 C25.1,3 25.3,3.1 25.5,3.2 C25.7,3.3 25.8,3.4 26,3.5 C26.2,3.6 26.3,3.7 26.4,3.9 C26.4814441,4.08894671 26.5157617,4.29485232 26.5,4.5 C26.4939469,4.74654475 26.4251106,4.98747167 26.3,5.2 C26.2250721,5.40600313 26.0845311,5.58167945 25.9,5.7 L25.3,6 C25.078174,6.08940287 24.8379858,6.12371547 24.6,6.1 C24.2587783,6.08180841 23.9219706,6.01444687 23.6,5.9 C23.3000349,5.79372299 23.0269753,5.62306069 22.8,5.4 L23.6,4.6 C23.74607,4.75721674 23.9145537,4.89200366 24.1,5 C24.2889467,5.0814441 24.4948523,5.1157617 24.7,5.1 L24.9,5.1 C25,5.1 25.1,5.1 25.1,5 C25.1,4.9 25.2,4.9 25.2,4.8 C25.2,4.7 25.3,4.7 25.3,4.6 C25.3,4.5 25.3,4.4 25.2,4.4 C25.1,4.4 25.1,4.3 25,4.2 C24.9199988,4.12345971 24.8099251,4.08676847 24.7,4.1 C24.6,4.1 24.4,4 24.3,4 C24.1433444,3.99700119 23.9963924,3.92352518 23.9,3.8 C23.8,3.7 23.6,3.6 23.5,3.5 C23.3764781,3.38604602 23.2748097,3.25048812 23.2,3.1 C23.1191633,2.94645831 23.084436,2.77282183 23.1,2.6 C23.1060531,2.35345525 23.1748894,2.11252833 23.3,1.9 C23.4016388,1.71027709 23.5372154,1.54080632 23.7,1.4 L24.3,1.1 C24.521826,1.01059713 24.7620142,0.976284529 25,1 C25.2705499,0.983769419 25.5417699,1.01767192 25.8,1.1 C26.0634814,1.1718078 26.3043673,1.30945687 26.5,1.5 L25.9,2.5 Z" id="Path"></path>
                <path d="M32.4,3.6 C32.3908929,3.94230471 32.3232491,4.28052368 32.2,4.6 C31.9894503,5.21007304 31.510073,5.68945029 30.9,5.9 C30.5780294,6.01444687 30.2412217,6.08180841 29.9,6.1 C29.5587783,6.08180841 29.2219706,6.01444687 28.9,5.9 C28.289927,5.68945029 27.8105497,5.21007304 27.6,4.6 C27.4855531,4.2780294 27.4181916,3.94122166 27.4,3.6 C27.4091071,3.25769529 27.4767509,2.91947632 27.6,2.6 C27.8105497,1.98992696 28.289927,1.51054971 28.9,1.3 C29.2219706,1.18555313 29.5587783,1.11819159 29.9,1.1 C30.2412217,1.11819159 30.5780294,1.18555313 30.9,1.3 C31.510073,1.51054971 31.9894503,1.98992696 32.2,2.6 C32.3232491,2.91947632 32.3908929,3.25769529 32.4,3.6 Z M31.2,3.6 C31.2157617,3.39485232 31.1814441,3.18894671 31.1,3 C31,2.8 30.9,2.7 30.8,2.5 C30.7,2.3 30.5,2.3 30.4,2.2 C30.3,2.1 30,2.1 29.8,2.1 C29.5948523,2.0842383 29.3889467,2.1185559 29.2,2.2 C29.0495119,2.2748097 28.913954,2.37647812 28.8,2.5 C28.6781601,2.65254941 28.577266,2.82070621 28.5,3 C28.3666667,3.38888889 28.3666667,3.81111111 28.5,4.2 C28.6,4.4 28.7,4.5 28.8,4.7 C28.9,4.9 29.1,4.9 29.2,5 C29.3,5.1 29.6,5.1 29.8,5.1 C30.0051477,5.1157617 30.2110533,5.0814441 30.4,5 C30.5504881,4.9251903 30.686046,4.82352188 30.8,4.7 C30.9218399,4.54745059 31.022734,4.37929379 31.1,4.2 C31.1,4 31.2,3.8 31.2,3.6 Z" id="Shape"></path>
                <polygon id="Path" points="34.3 2.2 34.3 3.2 36.1 3.2 36.1 4.2 34.3 4.2 34.3 6.1 33.2 6.1 33.2 1.3 36.3 1.3 36.3 2.3 34.3 2.3"></polygon>
                <polygon id="Path" points="39.1 2.2 39.1 6 37.9 6 37.9 2.2 36.6 2.2 36.6 1.2 40.4 1.2 40.4 2.2"></polygon>
                <polygon id="Path" points="41.6 3.1 40.8 3.1 41.3 1.3 42.3 1.3"></polygon>
                <path d="M45.5,2.5 C45.386046,2.37647812 45.2504881,2.2748097 45.1,2.2 C44.9464583,2.1191633 44.7728218,2.08443601 44.6,2.1 L44.4,2.1 C44.3,2.1 44.3,2.1 44.2,2.2 C44.1,2.3 44.1,2.3 44,2.3 C43.9,2.3 43.9,2.4 43.9,2.5 L43.9,2.7 C43.9,2.72652165 43.9105357,2.75195704 43.9292893,2.77071068 C43.948043,2.78946432 43.9734784,2.8 44,2.8 C44.1,2.8 44.1,2.9 44.2,2.9 C44.3,2.9 44.4,3 44.5,3 C44.6,3 44.8,3.1 45,3.2 C45.2,3.3 45.3,3.4 45.5,3.5 C45.7,3.6 45.8,3.7 45.9,3.9 C45.9814441,4.08894671 46.0157617,4.29485232 46,4.5 C45.9939469,4.74654475 45.9251106,4.98747167 45.8,5.2 C45.7250721,5.40600313 45.5845311,5.58167945 45.4,5.7 L44.8,6 C44.578174,6.08940287 44.3379858,6.12371547 44.1,6.1 C43.7587783,6.08180841 43.4219706,6.01444687 43.1,5.9 C42.8000349,5.79372299 42.5269753,5.62306069 42.3,5.4 L43.1,4.6 C43.24607,4.75721674 43.4145537,4.89200366 43.6,5 C43.7889467,5.0814441 43.9948523,5.1157617 44.2,5.1 L44.4,5.1 C44.5,5.1 44.6,5.1 44.6,5 C44.6,4.9 44.7,4.9 44.7,4.8 C44.7,4.7 44.8,4.7 44.8,4.6 C44.8,4.5 44.8,4.4 44.7,4.4 C44.6,4.4 44.6,4.3 44.5,4.2 C44.4199988,4.12345971 44.3099251,4.08676847 44.2,4.1 C44.1,4.1 43.9,4 43.8,4 C43.6433444,3.99700119 43.4963924,3.92352518 43.4,3.8 C43.3,3.7 43.1,3.6 43,3.5 C42.8764781,3.38604602 42.7748097,3.25048812 42.7,3.1 C42.6191633,2.94645831 42.584436,2.77282183 42.6,2.6 C42.6060531,2.35345525 42.6748894,2.11252833 42.8,1.9 C42.9016388,1.71027709 43.0372154,1.54080632 43.2,1.4 L43.8,1.1 C44.021826,1.01059713 44.2620142,0.976284529 44.5,1 C44.7705499,0.983769419 45.0417699,1.01767192 45.3,1.1 C45.5634814,1.1718078 45.8043673,1.30945687 46,1.5 L45.5,2.5 Z" id="Path"></path>
                <polygon id="Path" points="50.9 6 49.7 6 47.9 1.2 49.2 1.2 50.3 4.6 50.3 4.6 51.4 1.2 52.7 1.2"></polygon>
                <polygon id="Path" points="53.1 6 53.1 1.2 56.3 1.2 56.3 2.2 54.2 2.2 54.2 3.1 56.2 3.1 56.2 4 54.2 4 54.2 5 56.4 5 56.4 6"></polygon>
                <polygon id="Path" points="60.3 6 58.3 2.9 58.3 2.9 58.3 6 57.2 6 57.2 1.2 58.5 1.2 60.4 4.3 60.4 4.3 60.4 1.2 61.5 1.2 61.5 6"></polygon>
                <polygon id="Path" points="64.6 2.2 64.6 6 63.4 6 63.4 2.2 62.1 2.2 62.1 1.2 66 1.2 66 2.2"></polygon>
                <path d="M70.4,5 C70.3024372,5.22166503 70.1670897,5.42468628 70,5.6 C69.8043673,5.79054313 69.5634814,5.9281922 69.3,6 C69.0417699,6.08232808 68.7705499,6.11623058 68.5,6.1 C68.2293099,6.12131791 67.9571137,6.08729338 67.7,6 C67.5,5.9 67.2,5.8 67.1,5.6 C66.9329103,5.42468628 66.7975628,5.22166503 66.7,5 C66.5408737,4.75940798 66.4383078,4.48589893 66.4,4.2 L66.4,1.2 L67.5,1.2 L67.5,4.1 C67.4850362,4.24095982 67.5204626,4.38266549 67.6,4.5 C67.6,4.6 67.7,4.7 67.8,4.8 C67.9,4.9 68,5 68.1,5 C68.35,5.13333333 68.65,5.13333333 68.9,5 C69,4.9 69.1,4.9 69.2,4.8 C69.3,4.7 69.3,4.6 69.4,4.5 L69.4,1.2 L70.6,1.2 L70.6,4.2 C70.5,4.5 70.5,4.8 70.4,5 Z" id="Path"></path>
                <path d="M74,6 L73,4.1 L72.6,4.1 L72.6,6 L71.5,6 L71.5,1.2 L73.3,1.2 C73.5377632,1.18390155 73.7762549,1.21797179 74,1.3 C74.212492,1.32071349 74.4175783,1.38907558 74.6,1.5 C74.8,1.6 74.9,1.8 75,1.9 C75.1251106,2.11252833 75.1939469,2.35345525 75.2,2.6 C75.2074896,2.8954741 75.0999272,3.18230722 74.9,3.4 C74.7107791,3.62108968 74.4705078,3.79271202 74.2,3.9 L75.4,5.9 L74,5.9 L74,6 Z M74,2.7 C74.0132315,2.59007489 73.9765403,2.48000117 73.9,2.4 C73.9,2.3 73.8,2.3 73.7,2.2 C73.6,2.1 73.5,2.1 73.4,2.1 L72.5,2.1 L72.5,3.2 L73.3,3.2 C73.4099251,3.21323153 73.5199988,3.17654029 73.6,3.1 C73.7,3.1 73.7,3 73.8,2.9 C73.9063667,2.89069926 73.9906993,2.80636671 74,2.7 L74,2.7 Z" id="Shape"></path>
                <polygon id="Path" points="75.9 6 75.9 1.2 79.1 1.2 79.1 2.2 77 2.2 77 3.1 79 3.1 79 4 77 4 77 5 79.2 5 79.2 6"></polygon>
                <polygon id="Path" points="82.9 2.2 82.9 3.2 84.7 3.2 84.7 4.2 82.9 4.2 82.9 6.1 81.8 6.1 81.8 1.3 84.9 1.3 84.9 2.3 82.9 2.3"></polygon>
                <path d="M89.5,5 C89.4024372,5.22166503 89.2670897,5.42468628 89.1,5.6 C88.9043673,5.79054313 88.6634814,5.9281922 88.4,6 C88.1417699,6.08232808 87.8705499,6.11623058 87.6,6.1 C87.3293099,6.12131791 87.0571137,6.08729338 86.8,6 C86.6,5.9 86.3,5.8 86.2,5.6 C86.0329103,5.42468628 85.8975628,5.22166503 85.8,5 C85.7127066,4.74288632 85.6786821,4.47069009 85.7,4.2 L85.7,1.2 L86.8,1.2 L86.8,4.1 C86.7850362,4.24095982 86.8204626,4.38266549 86.9,4.5 C86.9,4.6 87,4.7 87.1,4.8 C87.2,4.9 87.3,5 87.4,5 C87.65,5.13333333 87.95,5.13333333 88.2,5 C88.3,4.9 88.4,4.9 88.5,4.8 C88.6,4.7 88.6,4.6 88.7,4.5 L88.7,1.2 L89.9,1.2 L89.9,4.2 C89.7079833,4.43305076 89.5712306,4.70655616 89.5,5 Z" id="Path"></path>
                <polygon id="Path" points="93.6 6 91.7 2.9 91.7 2.9 91.7 6 90.6 6 90.6 1.2 91.9 1.2 93.8 4.3 93.8 4.3 93.8 1.2 94.9 1.2 94.9 6"></polygon>
                <path d="M100.4,3.6 C100.391188,3.97486135 100.323703,4.34602806 100.2,4.7 C100.052448,4.97361661 99.8478309,5.21233705 99.6,5.4 C99.329894,5.59239872 99.0238103,5.72843595 98.7,5.8 C98.3743897,5.88785774 98.0365601,5.92164069 97.7,5.9 L95.9,5.9 L95.9,1.1 L97.6,1.1 C97.9364466,1.08361321 98.2734606,1.11731462 98.6,1.2 C98.9171281,1.29086865 99.2200426,1.42549729 99.5,1.6 C99.7765008,1.75502008 99.989092,2.00304322 100.1,2.3 C100.257624,2.71798608 100.358522,3.15521079 100.4,3.6 Z M99.2,3.6 C99.2237155,3.36201422 99.1894029,3.12182602 99.1,2.9 C99.0214166,2.72131149 98.8786885,2.57858345 98.7,2.5 C98.5,2.4 98.4,2.3 98.2,2.3 C98,2.3 97.8,2.2 97.6,2.2 L97,2.2 L97,5 L97.5,5 C97.7051477,5.0157617 97.9110533,4.9814441 98.1,4.9 C98.3,4.8 98.5,4.8 98.6,4.7 L99,4.3 C99.1251106,4.08747167 99.1939469,3.84654475 99.2,3.6 Z" id="Shape"></path>
            </g>
        </g>
    </g>
</svg>