<?xml version="1.0" encoding="UTF-8"?>
<svg width="189px" height="27px" viewBox="0 0 189 27" version="1.1" xmlns="http://www.w3.org/2000/svg" xmlns:xlink="http://www.w3.org/1999/xlink">
    <!-- Generator: Sketch 54.1 (76490) - https://sketchapp.com -->
    <title>streamlined-ventures</title>
    <desc>Created with Sketch.</desc>
    <g id="streamlined-ventures" stroke="none" stroke-width="1" fill="none" fill-rule="evenodd">
        <g fill="#FFFFFF" fill-rule="nonzero">
            <path d="M62.3592,2.63412 L62.3592,0.65772 L116.2728,0.65772 L116.2728,2.63412 L62.3592,2.63412 Z M50.17896,2.63412 L50.17896,0.65772 L59.92272,0.65772 L59.92272,2.63412 L50.17896,2.63412 Z M39.94812,2.63412 L39.94812,0.65772 L47.74356,0.65772 L47.74356,2.63412 L39.94812,2.63412 Z M31.66668,2.63412 L31.66668,0.65772 L37.51272,0.65772 L37.51272,2.63412 L31.6656,2.63412 L31.66668,2.63412 Z M24.03432,2.63412 L24.03432,0.65772 L29.2302,0.65772 L29.2302,2.63412 L24.03432,2.63412 Z M17.05104,2.63412 L17.05104,0.65772 L21.59784,0.65772 L21.59784,2.63412 L17.05104,2.63412 Z M10.71792,2.63412 L10.71792,0.65772 L14.61564,0.65772 L14.61564,2.63412 L10.71684,2.63412 L10.71792,2.63412 Z M5.03388,2.63412 L5.03388,0.65772 L8.28144,0.65772 L8.28144,2.63412 L5.03388,2.63412 L5.03388,2.63412 Z M0,2.63412 L0,0.65772 L2.59848,0.65772 L2.59848,2.63412 L0,2.63412 Z" id="Shape"></path>
            <g id="Group" transform="translate(0.000000, 5.400000)">
                <path d="M1.39428,16.70004 C2.1654,17.5608 3.23352,18.24228 4.36104,18.24228 C5.42808,18.24228 6.17004,17.64828 6.17004,16.70004 C6.17004,15.74964 5.24988,15.2766 4.15368,14.71284 C2.55096,13.88124 0.50436,12.90276 0.50436,9.90684 C0.50436,7.71228 2.13624,5.8428 5.07276,5.8428 C6.64264988,5.84063215 8.15231672,6.44682145 9.28476,7.53408 L7.92072,9.78912 C7.35696,9.10656 6.31908,8.48232 5.16132,8.48232 C4.24224,8.48232 3.62016,9.07632 3.62016,9.81828 C3.62016,10.67796 4.47876,11.15208 5.54796,11.68668 C7.209,12.5172 9.34416,13.52592 9.34416,16.61148 C9.34416,19.1322 7.38612,20.88288 4.65696,20.88288 C2.5218,20.88288 0.94932,20.14092 2.66453526e-15,19.01448 L1.39428,16.70004 L1.39428,16.70004 Z M11.8584,17.23356 L11.8584,9.10656 L10.52136,9.10656 L10.52136,6.1992 L11.85624,6.1992 L11.85624,2.28312 L15.20964,2.28312 L15.20964,6.1992 L17.01864,6.1992 L17.01864,9.10656 L15.20964,9.10656 L15.20964,16.58016 C15.20964,17.47116 15.41592,17.91612 16.00884,17.91612 C16.3217383,17.9197077 16.618279,17.7766329 16.8102,17.52948 L17.49276,20.17008 C16.98948,20.58588 16.18704,20.88288 15.14916,20.88288 C12.80556,20.88288 11.85624,19.69488 11.85624,17.23248 L11.8584,17.23356 Z M18.94644,6.1992 L22.29876,6.1992 L22.29876,8.1864 C22.86144,6.88068 24.25572,5.87196 25.50096,5.87196 L25.50096,9.16488 C25.2884586,9.10632216 25.0690619,9.07653652 24.84864,9.07632 C23.87016,9.07632 22.86144,9.8766 22.29876,10.88532 L22.29876,20.52648 L18.94644,20.52648 L18.94644,6.1992 Z M29.71296,12.1014 L33.74676,12.1014 C33.74676,10.50084 33.39036,8.57196 31.75956,8.57196 C30.12876,8.57196 29.71296,10.5894 29.71296,12.1014 L29.71296,12.1014 Z M31.8492,5.8428 C35.4672,5.8428 36.9792,9.07632 36.9792,13.2894 L36.9792,14.445 L29.71296,14.445 C29.74212,16.551 30.63312,18.15372 32.53068,18.15372 C33.33204,18.15372 34.25112,17.61912 34.90452,16.72812 L36.53532,18.59868 C35.4078,20.08152 33.80616,20.88288 32.17428,20.88288 C28.4364,20.88288 26.47944,17.73792 26.47944,13.34772 C26.47944,9.19512 28.25928,5.84172 31.8492,5.84172 L31.8492,5.8428 Z M45.198,15.2172 C44.8416,14.32728 44.1288,13.73328 43.38792,13.73328 C42.23124,13.73328 41.66748,14.8014 41.66748,16.16652 C41.66748,17.55972 42.23124,18.62784 43.38792,18.62784 C44.12988,18.62784 44.8416,18.06516 45.198,17.145 L45.198,15.2172 L45.198,15.2172 Z M45.198,19.16136 C44.57484,20.28888 43.24104,20.88288 42.20208,20.88288 C39.94812,20.88288 38.31624,19.04364 38.31624,16.10604 C38.31624,13.19976 39.94704,11.45016 42.20208,11.45016 C43.24104,11.45016 44.604,11.98368 45.198,13.05072 L45.198,11.30112 C45.198,9.66924 44.54568,8.69076 43.0326,8.69076 C42.0822,8.69076 41.07456,9.13572 40.12524,10.1142 L38.87892,7.74144 C40.18464,6.34716 42.23124,5.8428 43.71516,5.8428 C46.65168,5.8428 48.55032,7.32564 48.55032,10.53 L48.55032,20.52648 L45.198,20.52648 L45.198,19.16136 L45.198,19.16136 Z M63.90036,10.32156 C63.90036,9.25344 63.51588,8.80956 62.80308,8.80956 C61.884,8.80956 61.17228,9.8172 60.87528,10.67796 L60.87528,20.5254 L57.49272,20.5254 L57.49272,10.32156 C57.49272,9.34308 57.16764,8.80956 56.39652,8.80956 C55.5066,8.80956 54.76464,9.8172 54.46872,10.67796 L54.46872,20.5254 L51.1164,20.5254 L51.1164,6.1992 L54.46872,6.1992 L54.46872,8.0676 C54.972,6.99948 56.45484,5.8428 57.81996,5.8428 C59.33304,5.8428 60.51888,6.58368 60.75648,8.21556 C61.29,7.02864 62.80308,5.8428 64.2276,5.8428 C66.00636,5.8428 67.25268,6.76188 67.25268,9.10548 L67.25268,20.5254 L63.90036,20.5254 L63.90036,10.32156 Z M69.84576,20.5254 L73.19808,20.5254 L73.19808,0.7398 L69.84576,0.7398 L69.84576,20.5254 Z M75.77928,20.52648 L79.1316,20.52648 L79.1316,6.1992 L75.77928,6.1992 L75.77928,20.52648 Z M75.39372,2.04552 C75.39372,0.918 76.34196,1.77635684e-15 77.44032,1.77635684e-15 C78.56784,1.77635684e-15 79.488,0.918 79.488,2.04552 C79.488,3.17304 78.56784,4.06404 77.44032,4.06404 C76.34196,4.06404 75.39372,3.17304 75.39372,2.04444 L75.39372,2.04552 Z M88.09128,10.32156 C88.09128,9.31284 87.73488,8.80956 86.99292,8.80956 C86.13432,8.80956 85.39236,9.75996 85.06512,10.67796 L85.06512,20.5254 L81.71388,20.5254 L81.71388,6.1992 L85.06512,6.1992 L85.06512,8.0676 C85.62996,6.912 87.1128,5.8428 88.41744,5.8428 C90.58284,5.8428 91.47384,7.11828 91.47384,9.10548 L91.47384,20.5254 L88.09128,20.5254 L88.09128,10.32156 Z M96.70104,12.1014 L100.73484,12.1014 C100.73484,10.50084 100.37844,8.57196 98.74764,8.57196 C97.11684,8.57196 96.70104,10.5894 96.70104,12.1014 L96.70104,12.1014 Z M98.83728,5.8428 C102.45528,5.8428 103.96836,9.07632 103.96836,13.2894 L103.96836,14.445 L96.70104,14.445 C96.7302,16.551 97.6212,18.15372 99.51984,18.15372 C100.32012,18.15372 101.2392,17.61912 101.8926,16.72812 L103.5234,18.59868 C102.39588,20.08152 100.79424,20.88288 99.16236,20.88288 C95.42556,20.88288 93.46752,17.73792 93.46752,13.34772 C93.46752,9.19512 95.24736,5.84172 98.83728,5.84172 L98.83728,5.8428 Z M112.47876,10.53 C112.18284,9.5796 111.50028,8.80956 110.78856,8.80956 C109.30464,8.80956 108.88992,10.82592 108.88992,13.37796 C108.88992,15.89868 109.30464,17.91612 110.78856,17.91612 C111.50136,17.91612 112.18284,17.145 112.47876,16.19568 L112.47876,10.53 Z M112.47876,18.74556 C111.8556,20.17008 110.69892,20.88288 109.6902,20.88288 C106.87248,20.88288 105.44796,17.97552 105.44796,13.37688 C105.44796,8.86896 106.87356,5.8428 109.6902,5.8428 C110.69892,5.8428 111.88476,6.4962 112.47876,7.97904 L112.47876,0.74196 L115.83108,0.74196 L115.83108,20.52648 L112.47876,20.52648 L112.47876,18.74448 L112.47876,18.74556 Z M117.38412,6.1992 L118.9566,6.1992 L121.47732,18.74556 L124.02828,6.1992 L125.60076,6.1992 L122.27868,20.52648 L120.6468,20.52648 L117.38412,6.1992 Z M128.4768,12.66516 L133.78824,12.66516 C133.78824,10.17252 133.25472,7.08804 131.14872,7.08804 C129.01248,7.08804 128.47788,10.44036 128.47788,12.66516 L128.4768,12.66516 Z M131.17788,5.8428 C134.2332,5.8428 135.30024,9.31284 135.30024,13.31748 L135.30024,13.82184 L128.47788,13.82184 C128.47788,17.29188 129.57624,19.63548 131.7114,19.63548 C132.543,19.63548 133.43184,18.95292 134.055,17.76708 L135.06372,18.50904 C134.26236,19.93248 133.10568,20.8818 131.62284,20.8818 C128.36016,20.8818 126.96588,17.6202 126.96588,13.34772 C126.96588,9.19404 128.21112,5.8428 131.17788,5.8428 L131.17788,5.8428 Z M143.59896,9.16488 C143.59896,7.77168 143.0946,7.14852 142.14528,7.14852 C140.95944,7.14852 139.92048,8.39376 139.44528,9.72756 L139.44528,20.52756 L137.99268,20.52756 L137.99268,6.1992 L139.44636,6.1992 L139.44636,8.27496 C140.06844,6.97032 141.28452,5.8428 142.56108,5.8428 C144.31068,5.8428 145.0818,6.88068 145.0818,8.8992 L145.0818,20.52648 L143.59896,20.52648 L143.59896,9.16488 Z M148.8672,18.03492 L148.8672,7.47468 L147.38436,7.47468 L147.38436,6.1992 L148.86828,6.1992 L148.86828,2.28312 L150.32196,2.28312 L150.32196,6.1992 L152.33832,6.1992 L152.33832,7.47468 L150.32196,7.47468 L150.32196,17.88588 C150.32196,19.0134 150.52932,19.57716 151.30044,19.57716 C151.71624,19.57716 152.04132,19.36872 152.30916,19.0134 L152.93232,20.02212 C152.48736,20.55564 151.95276,20.88288 151.09308,20.88288 C149.54868,20.88288 148.86828,19.96272 148.86828,18.03492 L148.8672,18.03492 Z M160.58952,18.51012 C159.96636,19.81368 158.868,20.88288 157.47372,20.88288 C155.72412,20.88288 154.98324,19.9638 154.98324,17.82648 L154.98324,6.20028 L156.43584,6.20028 L156.43584,17.55972 C156.43584,18.95292 156.9402,19.57608 157.88952,19.57608 C159.07752,19.57608 160.1154,18.36 160.58952,17.05428 L160.58952,6.20028 L162.07236,6.20028 L162.07236,20.52648 L160.58952,20.52648 L160.58952,18.51012 Z M165.39336,6.1992 L166.84704,6.1992 L166.84704,8.6022 C167.55876,6.99948 168.5664,5.9022 170.19828,5.9022 L170.19828,7.50384 C170.05032,7.44444 169.84188,7.44444 169.72308,7.44444 C168.38928,7.44444 167.37948,8.71992 166.84704,10.0548 L166.84704,20.52648 L165.39336,20.52648 L165.39336,6.1992 Z M173.10348,12.66516 L178.41384,12.66516 C178.41384,10.17252 177.88032,7.08804 175.77432,7.08804 C173.63808,7.08804 173.10348,10.44036 173.10348,12.66516 L173.10348,12.66516 Z M175.80348,5.8428 C178.85988,5.8428 179.92584,9.31284 179.92584,13.31748 L179.92584,13.82184 L173.10348,13.82184 C173.10348,17.29188 174.20184,19.63548 176.337,19.63548 C177.1686,19.63548 178.05744,18.95292 178.6806,17.76708 L179.68932,18.50904 C178.88796,19.93248 177.73128,20.8818 176.24844,20.8818 C172.98684,20.8818 171.59148,17.6202 171.59148,13.34772 C171.59148,9.19404 172.83672,5.8428 175.80348,5.8428 L175.80348,5.8428 Z M182.63556,18.09432 C183.34836,19.0728 184.14756,19.66572 185.30532,19.66572 C186.49116,19.66572 187.53012,18.74664 187.53012,17.26272 C187.53012,15.54336 186.37452,14.68152 185.15628,13.73328 C183.76308,12.6954 182.25108,11.59704 182.25108,9.16488 C182.25108,7.23708 183.73284,5.8428 185.69088,5.8428 C186.93612,5.8428 188.00424,6.37632 188.8056,7.41528 L188.03448,8.3646 C187.41132,7.47468 186.61104,7.0578 185.72004,7.0578 C184.4748,7.0578 183.64428,8.0082 183.64428,9.1638 C183.64428,10.7082 184.74156,11.56788 185.92848,12.48804 C187.38216,13.52484 188.95356,14.71284 188.95356,17.23356 C188.95356,19.45836 187.29252,20.88288 185.39388,20.88288 C183.85164,20.88288 182.72412,20.34828 181.80396,19.10304 L182.63556,18.09432 Z" id="Shape"></path>
            </g>
        </g>
    </g>
</svg>