<svg width="136" height="60" viewBox="0 0 136 60" fill="none" xmlns="http://www.w3.org/2000/svg">
<path d="M44.0301 52.1541H45.53L47.855 58.0807L50.171 52.1541H51.6389L48.4295 59.9225H47.2396L44.0301 52.1541ZM54.1099 52.1541H59.8313V53.3668H55.4639V55.3727H59.3344V56.5854H55.4639V58.6551H59.886V59.8678H54.1099V52.1541ZM62.6396 52.1541H63.8979L68.0328 57.488V52.1541H69.3686V59.8678H68.2334L63.9754 54.3788V59.8678H62.6396V52.1541ZM74.3971 53.4078H71.9489V52.1495H78.2083V53.4078H75.7602V59.8678H74.3971V53.4078ZM80.6702 56.5945V52.1541H82.0242V56.5443C82.0242 57.9758 82.7627 58.7508 83.9754 58.7508C85.1744 58.7508 85.9175 58.0214 85.9175 56.599V52.1586H87.2715V56.5352C87.2715 58.8375 85.9722 60 83.9526 60C81.9467 59.9909 80.6702 58.8329 80.6702 56.5945ZM90.2804 52.1495H93.7223C94.6934 52.1495 95.4547 52.4367 95.9471 52.92C96.3574 53.3394 96.5854 53.9138 96.5854 54.584V54.6068C96.5854 55.8742 95.824 56.6355 94.7436 56.9455L96.827 59.8678H95.2268L93.3303 57.178H91.6344V59.8678H90.2758V52.1495H90.2804ZM93.622 55.979C94.5931 55.979 95.2086 55.473 95.2086 54.6889V54.6661C95.2086 53.8363 94.6159 53.385 93.6084 53.385H91.6344V55.9745H93.622V55.979ZM99.3982 52.1541H105.124V53.3668H100.757V55.3727H104.627V56.5854H100.757V58.6551H105.179V59.8678H99.3982V52.1541ZM107.417 58.7463L108.233 57.7752C108.972 58.4135 109.71 58.7782 110.672 58.7782C111.511 58.7782 112.04 58.3953 112.04 57.8072V57.7844C112.04 57.2327 111.73 56.9364 110.299 56.6036C108.657 56.207 107.732 55.7237 107.732 54.3013V54.2785C107.732 52.9565 108.835 52.0401 110.367 52.0401C111.493 52.0401 112.387 52.382 113.166 53.0112L112.437 54.0369C111.744 53.5218 111.046 53.2437 110.34 53.2437C109.546 53.2437 109.081 53.654 109.081 54.16V54.1828C109.081 54.78 109.432 55.0444 110.914 55.3955C112.546 55.7921 113.394 56.3757 113.394 57.6522V57.6749C113.394 59.1201 112.259 59.9818 110.641 59.9818C109.455 59.9818 108.343 59.5715 107.417 58.7463ZM32.8197 47.5906C26.8065 47.5906 22.439 43.173 22.439 37.0914C22.439 29.8245 27.5131 26.5147 32.2316 26.5147C37.9348 26.5147 40.4924 31.1375 40.4924 35.7192C40.4924 36.1614 40.4149 36.7814 40.4103 36.8088L40.3829 37.023H24.6592C24.7641 42.0242 28.0875 45.4889 32.8197 45.4889C36.444 45.4889 38.7053 43.1137 38.7281 43.091L38.9423 42.8676L40.1276 44.6683L39.9863 44.8097C39.8678 44.9236 37.1142 47.5906 32.8197 47.5906ZM38.2585 35.0034C38.0488 31.8304 36.362 28.5389 32.1906 28.5389C28.4066 28.5389 25.5391 31.0645 24.8188 35.0034H38.2585ZM43.8933 47.121V45.1014H47.0344V29.633C47.0344 29.1999 46.8475 29.013 46.4144 29.013H43.3007V26.9934H46.6469C48.3702 26.9934 49.1725 27.7547 49.1725 29.3959V30.7727C49.1725 30.8776 49.1726 30.9824 49.168 31.0827C50.4126 28.3656 52.537 26.8338 55.1311 26.8338C55.7374 26.8338 56.2982 26.9524 56.3209 26.9569L56.517 26.9979V29.1361L56.2298 29.0859C56.2252 29.0859 55.7739 29.013 55.3681 29.013C50.8548 29.013 49.1725 34.7664 49.1725 38.3907V45.0969H52.3137V47.1165H43.8933V47.121ZM69.5555 47.276C68.4522 47.276 66.8521 47.0618 65.5163 46.036C63.8888 44.7869 63.0636 42.6761 63.0636 39.7629V29.0084H59.3298V26.9888H63.0636V21.5272H65.2017V26.9888H70.3487V29.0084H65.2017V39.6444C65.2017 44.527 67.9781 45.2519 69.633 45.2519C70.1436 45.2519 70.481 45.1789 70.4855 45.1789L70.7819 45.1151V47.1529L70.5858 47.194C70.5721 47.1985 70.1664 47.276 69.5555 47.276ZM83.2596 47.5906C77.2464 47.5906 72.8789 43.173 72.8789 37.0914C72.8789 29.8245 77.953 26.5147 82.6715 26.5147C88.3747 26.5147 90.9323 31.1375 90.9323 35.7192C90.9323 36.1614 90.8548 36.7814 90.8502 36.8088L90.8229 37.023H75.0992C75.204 42.0242 78.5275 45.4889 83.2596 45.4889C86.8749 45.4889 89.1452 43.1137 89.168 43.091L89.3823 42.8676L90.5676 44.6683L90.4263 44.8097C90.3077 44.9236 87.5541 47.5906 83.2596 47.5906ZM88.6984 35.0034C88.4887 31.8304 86.8019 28.5389 82.6305 28.5389C78.8466 28.5389 75.979 31.0645 75.2587 35.0034H88.6984ZM10.4764 47.121L3.76568 29.7424C3.55141 29.2045 3.22316 29.013 2.51197 29.013H0V26.9888H2.48462C4.54069 26.9888 5.15614 27.4219 5.93571 29.4324L11.2651 43.369C11.3289 43.5286 11.3836 43.6882 11.4292 43.8432C11.4748 43.6882 11.5295 43.524 11.5933 43.369L17.0823 29.013H14.0916V26.9934H22.1245V29.013H19.3754L12.382 47.121H10.4764ZM111.261 47.121C109.013 47.121 108.311 46.5557 107.203 44.7504C106.038 42.8445 104.876 40.9374 103.716 39.029C103.556 38.7919 103.41 38.5411 103.301 38.3406C103.196 38.5411 103.05 38.801 102.872 39.0745L97.9713 47.121H93.426V45.1014H96.7951L101.988 36.6264C101.431 35.7283 98.1354 30.4171 97.7844 29.8427C97.3513 29.1361 97.0868 29.013 95.9972 29.013H93.4306V26.9934H95.9198C98.108 26.9934 98.8238 27.5587 99.8678 29.2637C100.907 30.9597 102.918 34.2603 102.918 34.2603C103.077 34.4974 103.223 34.7527 103.333 34.9487C103.437 34.7481 103.583 34.4883 103.761 34.2147L108.233 26.9934H113.016V29.013H109.451L104.655 36.6629L109.46 44.3538C109.779 44.8644 110.326 45.1014 111.178 45.1014H113.257V47.121H111.261ZM120.296 11.1876H129.907L135.072 5.3613L120.296 11.1876ZM108.179 14.1965L117.78 25.5072L117.661 12.3273L108.179 14.1965ZM120.442 0L118.769 11.0919L134.037 4.03009L120.442 0ZM118.486 1.29474L108.525 12.4459L117.78 11.2423L118.486 1.29474ZM124.709 21.7552L132.46 24.3082L129.806 12.8926L124.709 21.7552ZM118.541 13.581L119.243 26.3278L123.383 21.9603L118.541 13.581ZM130.449 11.9489L133.513 22.6898L135.815 6.82471L130.449 11.9489ZM124.08 22.4618L120.716 26.7837L131.566 25.4479L124.08 22.4618Z" fill="white"/>
</svg>
