<?xml version="1.0" encoding="UTF-8"?>
<svg width="133px" height="45px" viewBox="0 0 133 45" version="1.1" xmlns="http://www.w3.org/2000/svg" xmlns:xlink="http://www.w3.org/1999/xlink">
    <!-- Generator: Sketch 54.1 (76490) - https://sketchapp.com -->
    <title>viola-ventures</title>
    <desc>Created with Sketch.</desc>
    <defs>
        <polygon id="path-1" points="0 45 132.408 45 132.408 0 0 0"></polygon>
    </defs>
    <g id="viola-ventures" stroke="none" stroke-width="1" fill="none" fill-rule="evenodd">
        <g id="Group-20">
            <path d="M66.4893,13.4941 C66.3913,13.5771 66.3193,13.6741 66.2743,13.7821 L63.8573,19.8451 C63.8423,19.8821 63.8273,19.9201 63.8133,19.9591 C63.7993,19.9221 63.7843,19.8851 63.7693,19.8481 L61.3393,13.7801 C61.2913,13.6611 61.2183,13.5611 61.1213,13.4831 C61.0123,13.3931 60.8743,13.3481 60.7113,13.3481 L59.4083,13.3481 L63.1163,22.4461 L64.5033,22.4461 L68.2113,13.3481 L66.9033,13.3481 C66.7443,13.3481 66.6013,13.3991 66.4893,13.4941" id="Fill-1" fill="#FFFFFF"></path>
            <mask id="mask-2" fill="white">
                <use xlink:href="#path-1"></use>
            </mask>
            <g id="Clip-4"></g>
            <polygon id="Fill-3" fill="#FFFFFF" mask="url(#mask-2)" points="70.583 22.447 72.247 22.447 72.247 13.349 70.583 13.349"></polygon>
            <path d="M79.7246,14.7607 C80.1546,14.7607 80.5466,14.8327 80.8886,14.9747 C81.2286,15.1157 81.5216,15.3207 81.7596,15.5807 C81.9986,15.8447 82.1876,16.1737 82.3206,16.5607 C82.4546,16.9507 82.5226,17.4027 82.5226,17.9007 C82.5226,18.3987 82.4546,18.8487 82.3206,19.2387 C82.1876,19.6217 81.9996,19.9487 81.7596,20.2127 C81.5216,20.4737 81.2296,20.6767 80.8896,20.8157 C80.5436,20.9567 80.1516,21.0287 79.7246,21.0287 C79.3016,21.0287 78.9116,20.9567 78.5656,20.8167 C78.2246,20.6757 77.9316,20.4727 77.6916,20.2117 C77.4506,19.9497 77.2616,19.6217 77.1286,19.2387 C76.9946,18.8487 76.9266,18.3987 76.9266,17.9007 C76.9266,17.4027 76.9946,16.9507 77.1286,16.5597 C77.2616,16.1737 77.4506,15.8457 77.6916,15.5817 C77.9316,15.3207 78.2256,15.1157 78.5666,14.9747 C78.9086,14.8327 79.2986,14.7607 79.7246,14.7607 M81.5506,22.1957 L81.5506,22.1967 C82.1016,21.9707 82.5816,21.6477 82.9766,21.2357 C83.3696,20.8257 83.6786,20.3307 83.8936,19.7617 C84.1076,19.1997 84.2166,18.5737 84.2166,17.9007 C84.2166,17.2267 84.1076,16.6007 83.8936,16.0377 C83.6796,15.4717 83.3706,14.9747 82.9766,14.5617 C82.5806,14.1477 82.1006,13.8227 81.5516,13.5957 C81.0006,13.3667 80.3856,13.2517 79.7246,13.2517 C79.0626,13.2517 78.4496,13.3667 77.9006,13.5957 C77.3536,13.8227 76.8746,14.1477 76.4776,14.5627 C76.0846,14.9747 75.7756,15.4717 75.5606,16.0377 C75.3466,16.6037 75.2386,17.2297 75.2386,17.9007 C75.2386,18.5717 75.3466,19.1977 75.5606,19.7607 C75.7766,20.3307 76.0856,20.8257 76.4776,21.2357 C76.8726,21.6477 77.3516,21.9707 77.9006,22.1957 C78.4476,22.4217 79.0606,22.5357 79.7246,22.5357 C80.3886,22.5357 81.0026,22.4217 81.5506,22.1957" id="Fill-5" fill="#FFFFFF" mask="url(#mask-2)"></path>
            <polygon id="Fill-6" fill="#FFFFFF" mask="url(#mask-2)" points="92.3706 20.9687 88.6506 20.9687 88.6506 13.3487 86.9866 13.3487 86.9866 22.4467 92.3706 22.4467"></polygon>
            <path d="M98.1304,15.543 C98.1374,15.561 98.1444,15.579 98.1514,15.596 L99.3704,18.754 L96.8884,18.754 L98.1084,15.603 C98.1154,15.583 98.1224,15.564 98.1304,15.543 L98.1304,15.543 Z M100.6304,22.012 L100.6304,22.014 C100.6794,22.134 100.7524,22.234 100.8494,22.313 C100.9594,22.401 101.0964,22.446 101.2584,22.446 L102.5274,22.446 L98.9534,13.506 L98.8894,13.349 L97.3694,13.349 L93.7994,22.274 L93.7314,22.446 L95.0004,22.446 C95.1584,22.446 95.2964,22.399 95.4104,22.306 C95.5114,22.224 95.5854,22.124 95.6304,22.01 L96.3714,20.095 L99.8874,20.095 L100.6304,22.012 Z" id="Fill-7" fill="#FFFFFF" mask="url(#mask-2)"></path>
            <path d="M66.4893,28.4941 C66.3913,28.5771 66.3193,28.6741 66.2743,28.7821 L63.8573,34.8451 C63.8423,34.8821 63.8273,34.9201 63.8133,34.9591 C63.7993,34.9211 63.7843,34.8841 63.7693,34.8471 L61.3393,28.7801 C61.2913,28.6611 61.2183,28.5611 61.1213,28.4831 C61.0123,28.3931 60.8743,28.3481 60.7113,28.3481 L59.4083,28.3481 L63.1163,37.4461 L64.5033,37.4461 L68.2113,28.3481 L66.9033,28.3481 C66.7443,28.3481 66.6013,28.3991 66.4893,28.4941" id="Fill-8" fill="#FFFFFF" mask="url(#mask-2)"></path>
            <polygon id="Fill-9" fill="#FFFFFF" mask="url(#mask-2)" points="70.3667 37.4463 76.1647 37.4463 76.1647 35.9983 72.0367 35.9983 72.0367 33.5643 75.3787 33.5643 75.3787 32.1523 72.0367 32.1523 72.0367 29.7963 76.1647 29.7963 76.1647 28.3483 70.3667 28.3483"></polygon>
            <path d="M84.9707,34.502 L80.4647,28.638 C80.3747,28.527 80.2947,28.457 80.2147,28.415 C80.1267,28.37 80.0167,28.349 79.8687,28.349 L79.0187,28.349 L79.0187,37.446 L80.5387,37.446 L80.5387,31.279 L85.0427,37.141 C85.1257,37.246 85.2117,37.321 85.3057,37.371 C85.4027,37.421 85.5197,37.446 85.6527,37.446 L86.4907,37.446 L86.4907,28.349 L84.9707,28.349 L84.9707,34.502 Z" id="Fill-10" fill="#FFFFFF" mask="url(#mask-2)"></path>
            <polygon id="Fill-11" fill="#FFFFFF" mask="url(#mask-2)" points="88.8945 29.8262 91.6845 29.8262 91.6845 37.4462 93.3485 37.4462 93.3485 29.8262 96.1265 29.8262 96.1265 28.3482 88.8945 28.3482"></polygon>
            <path d="M104.1348,33.8242 C104.1348,34.1552 104.0878,34.4622 103.9958,34.7342 C103.9048,35.0012 103.7718,35.2312 103.6008,35.4222 C103.4328,35.6092 103.2238,35.7582 102.9788,35.8622 C102.7308,35.9692 102.4428,36.0222 102.1228,36.0222 C101.8038,36.0222 101.5148,35.9682 101.2648,35.8582 C101.0198,35.7542 100.8088,35.6042 100.6378,35.4152 C100.4668,35.2242 100.3348,34.9932 100.2448,34.7282 C100.1518,34.4552 100.1048,34.1482 100.1048,33.8182 L100.1048,28.3482 L98.4468,28.3482 L98.4468,33.8242 C98.4468,34.3462 98.5318,34.8412 98.6988,35.2922 C98.8688,35.7462 99.1158,36.1452 99.4338,36.4772 C99.7528,36.8112 100.1448,37.0762 100.5988,37.2642 C101.0508,37.4522 101.5638,37.5482 102.1228,37.5482 C102.6818,37.5482 103.1948,37.4522 103.6468,37.2642 C104.1008,37.0762 104.4918,36.8112 104.8098,36.4772 C105.1258,36.1432 105.3718,35.7442 105.5398,35.2922 C105.7078,34.8412 105.7928,34.3472 105.7928,33.8242 L105.7928,28.3482 L104.1348,28.3482 L104.1348,33.8242 Z" id="Fill-12" fill="#FFFFFF" mask="url(#mask-2)"></path>
            <path d="M110.7485,29.7666 L111.7705,29.7666 C112.3795,29.7666 112.8365,29.8806 113.1275,30.1056 C113.4025,30.3166 113.5365,30.6296 113.5365,31.0646 C113.5365,31.2816 113.4985,31.4806 113.4245,31.6566 C113.3515,31.8296 113.2425,31.9786 113.0985,32.1016 C112.9525,32.2286 112.7635,32.3296 112.5385,32.4016 C112.3045,32.4756 112.0275,32.5126 111.7165,32.5126 L110.7485,32.5126 L110.7485,29.7666 Z M113.3085,33.5296 C113.4905,33.4636 113.6615,33.3866 113.8165,33.2976 C114.1025,33.1366 114.3485,32.9376 114.5495,32.7066 C114.7495,32.4736 114.9055,32.2086 115.0125,31.9176 C115.1175,31.6266 115.1705,31.3116 115.1705,30.9806 C115.1705,30.5836 115.1015,30.2186 114.9655,29.8956 C114.8255,29.5656 114.6075,29.2796 114.3185,29.0446 C114.0335,28.8156 113.6725,28.6396 113.2475,28.5226 C112.8305,28.4076 112.3335,28.3486 111.7705,28.3486 L109.0905,28.3486 L109.0905,37.4466 L110.7485,37.4466 L110.7485,33.8586 L111.3805,33.8586 C111.5455,33.8586 111.6095,33.8846 111.6235,33.8916 C111.6685,33.9146 111.7145,33.9596 111.7605,34.0246 L113.9815,37.0806 C114.1275,37.3206 114.3635,37.4466 114.6625,37.4466 L116.1885,37.4466 L113.3915,33.6396 C113.3655,33.6016 113.3375,33.5646 113.3085,33.5296 L113.3085,33.5296 Z" id="Fill-13" fill="#FFFFFF" mask="url(#mask-2)"></path>
            <polygon id="Fill-14" fill="#FFFFFF" mask="url(#mask-2)" points="118.3784 37.4463 124.1764 37.4463 124.1764 35.9983 120.0484 35.9983 120.0484 33.5643 123.3904 33.5643 123.3904 32.1523 120.0484 32.1523 120.0484 29.7963 124.1764 29.7963 124.1764 28.3483 118.3784 28.3483"></polygon>
            <path d="M132.2065,33.5771 C132.0745,33.3051 131.8965,33.0691 131.6775,32.8801 C131.4665,32.6971 131.2235,32.5431 130.9555,32.4231 C130.7035,32.3101 130.4415,32.2081 130.1605,32.1121 C129.9075,32.0261 129.6615,31.9421 129.4195,31.8611 C129.1955,31.7881 128.9895,31.6971 128.8065,31.5921 C128.6425,31.4971 128.5095,31.3831 128.4135,31.2531 C128.3295,31.1401 128.2865,30.9901 128.2865,30.8061 C128.2865,30.6541 128.3135,30.5101 128.3685,30.3781 C128.4215,30.2511 128.5005,30.1411 128.6085,30.0441 C128.7165,29.9471 128.8565,29.8681 129.0255,29.8091 C129.1965,29.7491 129.4005,29.7191 129.6325,29.7191 C129.8815,29.7191 130.0905,29.7481 130.2535,29.8051 C130.4365,29.8711 130.5855,29.9381 130.7075,30.0101 C130.8395,30.0891 130.9475,30.1591 131.0275,30.2221 C131.2695,30.4001 131.5275,30.4231 131.7205,30.2761 C131.7865,30.2271 131.8445,30.1601 131.9025,30.0641 L132.2725,29.3401 L132.1415,29.2111 C131.8225,28.9011 131.4445,28.6611 131.0175,28.4961 C130.5935,28.3341 130.1215,28.2521 129.6145,28.2521 C129.1585,28.2521 128.7455,28.3241 128.3845,28.4681 C128.0275,28.6101 127.7205,28.8061 127.4715,29.0501 C127.2245,29.2921 127.0335,29.5741 126.9025,29.8891 C126.7725,30.2011 126.7065,30.5301 126.7065,30.8661 C126.7065,31.2811 126.7735,31.6391 126.9055,31.9271 C127.0375,32.2141 127.2135,32.4591 127.4315,32.6561 C127.6435,32.8441 127.8865,32.9991 128.1555,33.1181 C128.4225,33.2341 128.6855,33.3331 128.9355,33.4111 L129.6915,33.6511 C129.9225,33.7241 130.1265,33.8121 130.2985,33.9151 C130.4585,34.0081 130.5885,34.1241 130.6855,34.2601 C130.7725,34.3821 130.8165,34.5481 130.8165,34.7541 C130.8165,34.9551 130.7825,35.1391 130.7155,35.3011 C130.6505,35.4561 130.5545,35.5941 130.4335,35.7071 C130.3055,35.8231 130.1495,35.9131 129.9695,35.9751 C129.7805,36.0421 129.5605,36.0761 129.3145,36.0761 C129.0145,36.0761 128.7605,36.0371 128.5615,35.9591 C128.3525,35.8771 128.1705,35.7851 128.0225,35.6871 C127.8685,35.5841 127.7395,35.4891 127.6385,35.4061 C127.3165,35.1351 127.0595,35.1971 126.8985,35.2981 C126.8265,35.3471 126.7655,35.4061 126.7065,35.4881 L126.2715,36.2031 L126.4025,36.3421 C126.7485,36.7091 127.1705,37.0041 127.6565,37.2181 C128.1435,37.4321 128.6895,37.5421 129.2785,37.5421 C129.7655,37.5421 130.2075,37.4661 130.5905,37.3141 C130.9775,37.1641 131.3105,36.9521 131.5815,36.6831 C131.8505,36.4181 132.0585,36.0981 132.1995,35.7351 C132.3375,35.3781 132.4085,34.9911 132.4085,34.5861 C132.4085,34.1941 132.3405,33.8541 132.2065,33.5771" id="Fill-15" fill="#FFFFFF" mask="url(#mask-2)"></path>
            <polygon id="Fill-16" fill="#FFFFFF" mask="url(#mask-2)" points="28 45 0 0 9 0 27.893 30.363"></polygon>
            <polygon id="Fill-17" fill="#FFFFFF" mask="url(#mask-2)" points="27.7861 45 55.7861 0 46.7861 0 27.8931 30.363"></polygon>
            <polygon id="Fill-18" fill="#FFFFFF" mask="url(#mask-2)" points="27.8931 15.7207 18.7891 15.7207 18.7891 0.7207"></polygon>
            <polygon id="Fill-19" fill="#FFFFFF" opacity="0.754813058" mask="url(#mask-2)" points="37.731 0 27.893 15.721 27.893 30.36 46.784 0"></polygon>
        </g>
    </g>
</svg>