<?xml version="1.0" encoding="UTF-8"?> <svg xmlns="http://www.w3.org/2000/svg" width="222" height="54" viewBox="0 0 222 54" fill="none"><path fill-rule="evenodd" clip-rule="evenodd" d="M25.1816 0L7 9.28401L28.8173 32L47 22.716L25.1816 0Z" fill="black"></path><path fill-rule="evenodd" clip-rule="evenodd" d="M22 52L15 50.0997V39L22 40.9003V52Z" fill="black"></path><path fill-rule="evenodd" clip-rule="evenodd" d="M0 23.4233V46L15 38.5757V16L0 23.4233Z" fill="#1D66A8"></path><path fill-rule="evenodd" clip-rule="evenodd" d="M29 32.0303V54L47 44.9697V23L29 32.0303Z" fill="#1D66A8"></path><path fill-rule="evenodd" clip-rule="evenodd" d="M25.1816 0L7 9.28401L28.8173 32L47 22.716L25.1816 0Z" fill="#247DDC"></path><path fill-rule="evenodd" clip-rule="evenodd" d="M22 52L15 50.0997V39L22 40.9003V52Z" fill="#247DDC"></path><path fill-rule="evenodd" clip-rule="evenodd" d="M82.0466 29.0546H65.9534V17H62V45H65.9534V32.7498H82.0466V45H86V17H82.0466V29.0546Z" fill="#33322B"></path><path fill-rule="evenodd" clip-rule="evenodd" d="M117.901 38.1561C115.984 40.0465 113.314 41.0883 110.38 41.0883C107.454 41.0883 104.79 40.0465 102.876 38.1561C100.925 36.2292 99.8517 33.4946 99.8517 30.4572C99.8517 27.4186 100.925 24.6851 102.876 22.7582C104.79 20.8667 107.454 19.826 110.38 19.826C113.314 19.826 115.984 20.8667 117.901 22.7582C119.853 24.684 120.926 27.4186 120.926 30.4572C120.926 33.4957 119.853 36.2303 117.901 38.1561ZM110.38 16.0732C101.922 16.0732 95.7845 22.1223 95.7845 30.4572C95.7845 38.792 101.922 44.8412 110.38 44.8412C118.837 44.8412 124.976 38.792 124.976 30.4572C124.976 22.1223 118.837 16.0732 110.38 16.0732Z" fill="#33322B"></path><path fill-rule="evenodd" clip-rule="evenodd" d="M144.543 40.0431L134.239 16.4628H130.066L142.213 44.2298L142.31 44.4511H146.714L158.939 16.4628H154.864L144.543 40.0431Z" fill="#33322B"></path><path fill-rule="evenodd" clip-rule="evenodd" d="M170.801 32.1874H185.351V28.5323H170.801V20.1373H187.949V16.4629H166.89V44.4511H188.126V40.7767H170.801V32.1874Z" fill="#33322B"></path><path fill-rule="evenodd" clip-rule="evenodd" d="M202.298 29.0186V20.1371H209.52C213.504 20.1371 215.524 21.6118 215.524 24.5193C215.524 27.5053 213.504 29.0186 209.52 29.0186H202.298ZM212.381 32.4653C215.93 31.9208 219.552 29.6233 219.552 24.5193C219.552 21.948 218.669 19.9373 216.928 18.5421C215.207 17.1619 212.727 16.4627 209.559 16.4627H198.387V44.452H202.298V32.5964H208.009L216.522 44.452H221.226L212.381 32.4653Z" fill="#33322B"></path></svg> 