<svg width="254" height="151" viewBox="0 0 254 151" fill="none"
    xmlns="http://www.w3.org/2000/svg">
    <path d="M130.794 23.8882C139.134 33.6256 142.539 46.6543 140.029 59.2269C153.12 54.0054 158.199 45.2507 159.744 36.496C159.744 36.496 164.207 19.9057 171.144 13.0095C157.436 15.1607 156.051 9.78268 130.794 23.9018" fill="currentColor"/>
    <path d="M109.824 40.8462C107.084 32.3814 102.359 24.6949 96.0423 18.4285C96.0423 18.4285 115.104 23.439 126.078 59.0159C115.723 55.8912 111.305 45.6729 109.804 40.8462H109.824ZM133.41 64.1285C133.716 62.4266 138.767 45.2168 128.76 31.2406C112.003 12.6692 86.7464 10.0619 86.7464 10.0619C91.6751 19.5926 91.8317 28.4903 97.2166 46.6328C103.742 65.4152 127.817 66.6814 129.601 66.7154C131.218 69.2683 134.924 72.7062 143.41 74.483L144.35 70.0104C137.028 68.4786 134.349 65.6602 133.43 64.1081" fill="currentColor"/>
    <path d="M89.4492 4.59519C78.7986 9.61245 74.5268 21.8595 74.5268 40.5806C74.5268 58.9613 78.7918 71.2832 89.4492 76.6613L88.2545 81.2565C71.8854 75.5176 64.465 62.76 64.465 40.6555C64.465 18.3807 71.8854 5.61634 88.2545 0L89.4492 4.59519Z" fill="currentColor"/>
    <path d="M168.322 0C184.705 5.60953 192.108 18.3807 192.108 40.6487C192.108 62.7736 184.688 75.5176 168.319 81.2088L167.042 76.6205C177.707 71.2628 181.965 58.9205 181.965 40.5398C181.965 21.8186 177.7 9.58522 167.042 4.56796L168.322 0Z" fill="currentColor"/>
    <path d="M23.3405 139.081C19.8616 140.417 16.1545 141.058 12.4292 140.966C3.25166 140.966 -1.15843 136.99 0.261241 126.947C1.5706 117.475 5.19172 113.604 14.7937 113.604C18.5661 113.542 22.3172 114.181 25.8561 115.489L24.5515 121.292L16.0023 121.24C12.1198 121.24 10.8081 122.549 10.1774 127.254C9.49391 132.434 10.3908 133.374 14.1654 133.374C17.0031 133.391 19.8395 133.251 22.6619 132.957L23.3405 139.081Z" fill="currentColor"/>
    <path d="M38.6617 127.729C37.9279 133.067 38.398 134.319 41.8128 134.319C45.1174 134.319 46.1702 132.909 47.0071 126.995C47.8441 121.556 47.2709 120.28 44.0671 120.28C40.6066 120.28 39.5562 121.585 38.6617 127.715V127.729ZM56.8609 127.734C55.422 137.518 51.4604 140.966 41.4723 140.966C31.4842 140.966 27.2756 137.201 28.7408 127C30.1125 117.115 34.0934 113.604 44.2229 113.604C54.2398 113.604 58.3333 117.479 56.8657 127.734" fill="currentColor"/>
    <path d="M77.2671 119.714C73.2791 119.714 72.3366 120.549 71.5477 126.568C70.9194 131.278 70.8138 133.158 73.1736 133.005C75.3843 132.79 77.4566 131.831 79.0513 130.285L80.4638 119.734L77.2671 119.714ZM87.1785 140.338H79.6772L79.5741 135.945C76.915 138.842 73.2645 140.634 69.3462 140.966C63.2622 140.966 60.5356 136.674 61.8426 126.736C63.2814 115.854 67.562 113.604 73.1736 113.604C75.9885 113.603 78.7977 113.857 81.5669 114.362C81.5399 112.575 81.6634 110.79 81.9362 109.024L82.8259 103.748H92.3631L87.1785 140.338Z" fill="currentColor"/>
    <path d="M109.525 124.851C111.887 124.64 113.142 124.276 113.362 122.026C113.521 120.3 112.837 119.983 110.211 120.036C107.007 120.089 105.959 121.029 105.122 125.269L109.525 124.851ZM119.967 138.875C116.157 140.36 112.09 141.071 108.003 140.966C96.8826 140.966 93.8538 136.103 94.8346 127C96.0336 116.175 100.976 113.609 110.362 113.609C120.645 113.609 123.348 117.01 122.53 122.962C121.794 127.83 118.489 129.221 111.6 129.763L104.516 130.285C104.626 133.062 105.986 133.585 108.926 133.585C111.228 133.585 116.139 133.321 119.307 132.957L119.967 138.875Z" fill="currentColor"/>
    <path d="M143.046 106.98C139.842 106.98 138.535 107.714 138.063 111.057L137.487 114.841H145.401L144.871 118.74H136.957L133.494 143.278C133.426 145.392 132.497 147.386 130.923 148.798C129.348 150.21 127.265 150.917 125.156 150.755C123.035 150.74 120.917 150.599 118.813 150.333L119.602 146.563H123.535C126.686 146.563 127.993 145.829 128.47 142.486L131.828 118.745H127.271L127.751 115.081L132.42 114.822L133.051 110.265C133.113 108.15 134.047 106.154 135.631 104.751C137.214 103.347 139.307 102.659 141.415 102.851C143.92 102.82 146.424 102.941 148.914 103.215L148.077 107.004L143.046 106.98Z" fill="currentColor"/>
    <path d="M166.968 118.889H165.529C162.651 118.889 159.865 120.808 155.431 124.069L153.174 140.338H148.083L151.699 114.808H155.584L155.32 120.669C159.397 116.486 163.395 114.127 166.863 114.127H168.227L166.968 118.889Z" fill="currentColor"/>
    <path d="M184.646 126.002C187.795 125.796 189.157 124.908 189.574 121.973C190.054 118.467 188.267 118.376 184.174 118.376C178.987 118.376 177.2 119.786 176.1 126.798L184.646 126.002ZM191.989 139.503C188.572 140.547 185.01 141.042 181.438 140.971C172.565 140.971 169.531 136.414 170.785 126.899C172.152 116.956 175.663 114.131 184.934 114.131C193.327 114.131 195.375 117.273 194.639 122.4C193.802 127.474 190.865 129.307 184.622 129.777L175.749 130.563C175.697 135.69 178.109 136.731 182.198 136.731C185.035 136.731 188.704 136.419 191.644 136.103L191.989 139.503Z" fill="currentColor"/>
    <path d="M206.042 127.676C202.373 125.949 200.642 123.964 201.112 120.242C201.69 115.379 205.205 114.007 211.92 114.122C215.589 114.184 219.249 114.482 222.879 115.014L222.249 118.611C218.999 118.51 215.954 118.4 212.074 118.347C207.875 118.347 206.301 118.453 206.038 120.597C205.779 122.515 206.997 123.057 209.086 123.997L216.011 127.139C219.994 128.971 221.625 130.592 221.095 134.515C220.311 140.324 216.165 140.899 208.975 140.899C205.658 140.906 202.344 140.661 199.064 140.165L199.642 136.4C202.004 136.606 205.306 136.664 207.668 136.664C214.122 136.664 215.8 136.141 216.112 134.045C216.426 132.165 215.153 131.849 212.911 130.803L206.042 127.676Z" fill="currentColor"/>
    <path d="M236.685 113.762C236.388 115.878 235.967 117.974 235.426 120.04C239.874 116.117 243.591 114.122 247.27 114.122C249.153 113.878 251.031 114.604 252.261 116.051C253.49 117.498 253.903 119.469 253.359 121.287L250.632 140.328H245.596L248.061 122.544C248.481 119.35 247.903 118.41 245.702 118.41C242.55 118.41 239.512 120.554 235.121 124.007L232.865 140.314H227.764L232.956 103.695H237.992L236.685 113.762Z" fill="currentColor"/>
</svg>
