<?xml version="1.0" encoding="UTF-8"?>
<svg width="1069px" height="674px" viewBox="0 0 1069 674" version="1.1" xmlns="http://www.w3.org/2000/svg" xmlns:xlink="http://www.w3.org/1999/xlink">
    <!-- Generator: Sketch 58 (84663) - https://sketch.com -->
    <title>5cdd90ea95678d171cf6dc7e_Group 8_open</title>
    <desc>Created with Sketch.</desc>
    <defs>
        <linearGradient x1="87.109375%" y1="14.0898438%" x2="15.765625%" y2="78.8203125%" id="linearGradient-1">
            <stop stop-color="#2AAD96" offset="0%"></stop>
            <stop stop-color="#2AAD96" stop-opacity="0.205720061" offset="37.2052909%"></stop>
            <stop stop-color="#2AAD96" stop-opacity="0" offset="100%"></stop>
        </linearGradient>
    </defs>
    <g id="Pages" stroke="none" stroke-width="1" fill="none" fill-rule="evenodd">
        <g id="homw-copy-11" transform="translate(-148.000000, -689.000000)" fill-rule="nonzero">
            <g id="Group-12" transform="translate(148.000000, 308.000000)">
                <g id="5cdd90ea95678d171cf6dc7e_Group-8_open" transform="translate(0.000000, 381.000000)">
                    <path d="M916.714847,540.805294 C662.024825,535.305045 520.31567,651.643655 396.340271,668.954952 C234.32882,691.577412 113.422138,627.142314 90.225821,542.533755 C62.4530441,441.232558 100.543089,407.529193 78.2716916,334.932632 C65.9800184,294.8663 32.0175428,279.864852 12.3492589,199.429923 C-8.36746129,114.707336 69.0790501,29.1609297 187.761034,46.698826 C296.979589,62.8382906 458.073452,111.114604 574.093549,75.1133911 C695.238586,37.5219011 753.302049,-31.034727 866.396364,17.0084767 C962.395971,57.7897364 915.605905,180.912036 954.232997,243.446327 C1001.60215,320.133348 1031.96182,318.029754 1059.22873,375.720236 C1087.02597,434.532766 1060.28959,543.905912 916.714847,540.805294 Z" id="Path-2" fill-opacity="0.0413843969" fill="#2AAD96"></path>
                    <path d="M173.792392,543.61062 C56.205661,546.055516 34.2443399,457.345144 56.9759887,409.663917 C79.2739542,362.892373 104.139927,364.613021 142.890617,302.445757 C174.489797,251.751575 136.096337,151.881448 214.696682,118.855946 C307.293439,79.9495708 354.887912,135.5745 454.128421,166.118469 C549.170642,195.370301 681.079171,156.298146 770.520345,143.262598 C867.711305,129.097562 931.19056,198.509943 914.273076,267.206659 C898.211757,332.426759 870.40508,344.575895 860.361599,377.062191 C842.163721,435.924415 873.379433,463.275008 850.69271,545.41292 C831.744355,614.015963 732.758827,666.211747 600.057258,647.787278 C498.510546,633.688394 382.381776,539.273574 173.792392,543.61062 Z" id="Path-2-Copy" fill-opacity="0.204709353" fill="#2AAD96" opacity="0.149999991" style="mix-blend-mode: multiply;"></path>
                    <circle id="Oval-Copy-7" fill="url(#linearGradient-1)" opacity="0.300000012" cx="48.5" cy="265.5" r="48.5"></circle>
                </g>
            </g>
        </g>
    </g>
</svg>