<svg width="33" height="32" viewBox="0 0 33 32" fill="none" xmlns="http://www.w3.org/2000/svg">
<g opacity="0.8">
<path d="M2.24012 0H13.3703C13.7252 0.00129289 14.0652 0.142859 14.3162 0.39383C14.5671 0.644801 14.7088 0.984819 14.7101 1.33974V2.43912H14.7393V6.85586L13.5272 4.96648L12.1383 5.45722L12.4622 7.96986L12.0353 8.22995L10.0281 6.69882L8.89937 7.64596L10.0624 9.88868L9.77783 10.2273L7.35841 9.47155L6.62229 10.7475L8.47733 12.4553C8.41354 12.6222 8.35465 12.7841 8.30067 12.946L5.78313 13.0785L5.65062 13.8294H2.26936C1.91404 13.8294 1.57326 13.6882 1.32201 13.437C1.07076 13.1857 0.929625 12.845 0.929625 12.4896V2.44393H0.900391V1.33974C0.900391 0.984421 1.04152 0.643652 1.29277 0.392402C1.54402 0.141151 1.8848 0 2.24012 0Z" fill="#1D9A91"/>
<path d="M19.8436 0H30.9689C31.3242 0 31.665 0.141151 31.9162 0.392402C32.1675 0.643652 32.3087 0.984421 32.3087 1.33974V12.4552C32.3087 12.8105 32.1675 13.1513 31.9162 13.4025C31.665 13.6538 31.3242 13.7949 30.9689 13.7949H27.5729L27.4404 13.0441L24.918 12.9312L24.7659 12.4405L26.6307 10.7228L25.8945 9.44689L23.4752 10.2026C23.4752 10.2026 23.3034 10.0309 23.1611 9.86894L24.3242 7.62622L23.1954 6.67907L21.1883 8.21021C20.9969 8.09243 20.7908 7.95011 20.7908 7.95011L21.1147 5.43748L19.7308 4.94673L18.5039 6.86065V1.33974C18.5039 0.984421 18.645 0.643652 18.8963 0.392402C19.1475 0.141151 19.4883 0 19.8436 0Z" fill="#1D9A91"/>
<path d="M12.0943 25.936L12.4182 23.4381C12.271 23.3596 12.1336 23.2762 11.9913 23.1878L10.0283 24.6993L8.89955 23.7473L10.043 21.5389C9.93998 21.4211 9.83692 21.2984 9.73877 21.1757L7.31936 21.9315L6.58323 20.6506L7.24082 20.0421H0.900391V30.0681C0.900391 30.4234 1.04152 30.7642 1.29277 31.0155C1.54402 31.2667 1.8848 31.4079 2.24012 31.4079H13.3703C13.7256 31.4079 14.0664 31.2667 14.3176 31.0155C14.5689 30.7642 14.7101 30.4234 14.7101 30.0681V24.5227L13.4783 26.4415L12.0943 25.936Z" fill="#1D9A91"/>
<path d="M8.43828 18.9428C8.37448 18.7858 8.3156 18.6288 8.26653 18.4521L5.76858 18.3343L5.64098 17.5884H2.24012C1.8848 17.5884 1.54402 17.7295 1.29277 17.9808C1.04152 18.232 0.900391 18.5728 0.900391 18.9281V20.0274H7.24082L8.43828 18.9428Z" fill="#1D9A91"/>
<path d="M26.6159 20.6501L25.875 21.9309L23.4654 21.1752C23.3721 21.293 23.2788 21.4058 23.1807 21.5138L24.3389 23.7467L23.2102 24.6988L21.2177 23.1774C21.0754 23.2658 20.9282 23.3541 20.7761 23.4375L21.0999 25.9354L19.716 26.4262L18.5039 24.5319V30.0675C18.5039 30.4229 18.645 30.7636 18.8963 31.0149C19.1475 31.2661 19.4883 31.4073 19.8436 31.4073H30.9689C31.3242 31.4073 31.665 31.2661 31.9162 31.0149C32.1675 30.7636 32.3087 30.4229 32.3087 30.0675V20.0416H25.9289L26.6159 20.6501Z" fill="#1D9A91"/>
<path d="M24.9278 18.4663C24.8787 18.6282 24.8198 18.7852 24.756 18.957L25.9534 20.0563H32.3332V18.9423C32.3332 18.7663 32.2985 18.5921 32.2312 18.4296C32.1639 18.267 32.0652 18.1193 31.9408 17.9949C31.8164 17.8705 31.6686 17.7718 31.5061 17.7045C31.3436 17.6372 31.1694 17.6025 30.9934 17.6025H27.6122L27.4797 18.3485L24.9278 18.4663Z" fill="#1D9A91"/>
<path d="M26.1105 13.81H19.8436C19.4883 13.81 19.1475 13.6689 18.8963 13.4176C18.645 13.1664 18.5039 12.8256 18.5039 12.4703V6.88557L18.3665 7.1015C18.3665 7.1015 18.1113 7.07696 17.8757 7.04261L17.3261 4.58887H15.8538L15.3042 7.04261L14.8576 7.1015L14.7055 6.86103V12.4899C14.7042 12.8448 14.5626 13.1849 14.3116 13.4358C14.0606 13.6868 13.7206 13.8284 13.3657 13.8297H5.61683L5.49414 14.5314L7.82519 15.5129V15.9252L5.50888 16.9066L5.63642 17.6133H13.3657C13.721 17.6133 14.0618 17.7545 14.3131 18.0057C14.5643 18.257 14.7055 18.5977 14.7055 18.9531V24.5231L14.8379 24.3169C14.9999 24.3513 15.1618 24.3807 15.3287 24.4004L15.8735 26.8541H17.3457L17.8904 24.4004C18.0475 24.4004 18.1996 24.3513 18.3517 24.3169L18.499 24.5476V20.0425V18.9433C18.499 18.7673 18.5336 18.5931 18.6009 18.4306C18.6683 18.268 18.7669 18.1203 18.8914 17.9959C19.0158 17.8715 19.1635 17.7728 19.326 17.7055C19.4886 17.6382 19.6628 17.6035 19.8387 17.6035H27.5827L27.7054 16.8968L25.3694 15.9153C25.3694 15.9153 25.3694 15.5571 25.3694 15.4786L27.7005 14.4971L27.5778 13.7953H26.1056L26.1105 13.81ZM16.5998 17.471C16.2529 17.472 15.9134 17.3699 15.6246 17.1778C15.3357 16.9857 15.1104 16.7121 14.9772 16.3918C14.844 16.0714 14.8088 15.7188 14.8763 15.3785C14.9437 15.0381 15.1107 14.7255 15.356 14.4802C15.6013 14.2349 15.9139 14.0679 16.2542 14.0005C16.5945 13.9331 16.9472 13.9682 17.2675 14.1014C17.5879 14.2346 17.8615 14.4599 18.0536 14.7488C18.2458 15.0376 18.3478 15.377 18.3468 15.7239C18.3468 16.1873 18.1627 16.6317 17.8351 16.9593C17.5075 17.2869 17.0631 17.471 16.5998 17.471Z" fill="#00FDC0"/>
<path d="M8.50776 13.8096H13.371C13.726 13.8083 14.066 13.6667 14.3169 13.4157C14.5679 13.1648 14.7095 12.8247 14.7108 12.4698V6.86057L13.4986 4.97119L12.1098 5.46194L12.4337 7.97457L12.0068 8.23467L9.99959 6.70353L8.87091 7.65068L10.034 9.8934L9.74931 10.232L7.32013 9.48117L6.58401 10.7571L8.43905 12.4649C8.37525 12.622 8.31637 12.7839 8.26239 12.9557L5.73993 13.0685L5.60742 13.8194H8.49302L8.50776 13.8096Z" fill="#0DD2A3"/>
<path d="M24.918 12.9469L24.7659 12.4561L26.6307 10.7385L25.8945 9.46256L23.4752 10.2183C23.4752 10.2183 23.3034 10.0466 23.1611 9.88461L24.3242 7.64189L23.1954 6.69474L21.1883 8.22588C20.9969 8.1081 20.7908 7.96578 20.7908 7.96578L21.1147 5.45315L19.7308 4.9624L18.5039 6.87632V12.4905C18.5039 12.8458 18.645 13.1866 18.8963 13.4378C19.1475 13.6891 19.4883 13.8302 19.8436 13.8302H27.5729L27.4404 13.0794L24.918 12.9469Z" fill="#0DD2A3"/>
<path d="M14.7097 20.0416H7.24047L6.58288 20.6501L7.31901 21.9309L9.7286 21.1752C9.82675 21.2979 9.9298 21.4206 10.0329 21.5383L8.88938 23.7467L10.0181 24.6988L11.9811 23.1873C12.1234 23.2756 12.2608 23.359 12.4081 23.4375L12.0842 25.9354L13.4681 26.4262L14.6999 24.5074V20.0416H14.7097Z" fill="#0DD2A3"/>
<path d="M8.26618 18.4663C8.31525 18.6282 8.37413 18.7852 8.43793 18.957L7.24047 20.0563H14.7097V18.9423C14.7097 18.7663 14.675 18.5921 14.6077 18.4296C14.5404 18.267 14.4417 18.1193 14.3173 17.9949C14.1929 17.8705 14.0452 17.7718 13.8826 17.7045C13.7201 17.6372 13.5458 17.6025 13.3699 17.6025H5.64062L5.76822 18.3485L8.26618 18.4663Z" fill="#0DD2A3"/>
<path d="M19.3309 17.7051C19.4935 17.6378 19.6677 17.6031 19.8436 17.6031L19.8584 17.5884H27.6023L27.4699 18.3343L24.9425 18.4521C24.8934 18.6288 24.8346 18.7858 24.7708 18.9428L25.9682 20.0421L26.6161 20.6506L25.8751 21.9315L23.4655 21.1757C23.3723 21.2935 23.279 21.4064 23.1809 21.5144L24.3391 23.7473L23.2103 24.6993L21.2179 23.178C21.0756 23.2663 20.9284 23.3547 20.7763 23.4381L21.1001 25.936L19.731 26.4415L18.5188 24.5472V20.0421H18.5039V18.9428C18.5039 18.7669 18.5385 18.5927 18.6059 18.4301C18.6732 18.2676 18.7719 18.1199 18.8963 17.9955C19.0207 17.8711 19.1684 17.7724 19.3309 17.7051Z" fill="#0DD2A3"/>
</g>
</svg>
