<svg width="143" height="24" viewBox="0 0 143 24" fill="none" xmlns="http://www.w3.org/2000/svg">
<path d="M18.7754 7.37637C21.136 10.1326 22.0997 13.8204 21.3893 17.3791C25.0948 15.9012 26.5323 13.4231 26.9697 10.9451C26.9697 10.9451 28.2328 6.24911 30.1964 4.29712C26.3165 4.90603 25.9244 3.38375 18.7754 7.38023" fill="white"/>
<path d="M12.839 12.1763C12.0633 9.78028 10.7257 7.60459 8.93788 5.83086C8.93788 5.83086 14.3333 7.24909 17.4396 17.3193C14.5087 16.4348 13.2581 13.5425 12.8332 12.1763H12.839ZM19.5149 18.7664C19.6016 18.2847 21.0314 13.4134 18.1988 9.45737C13.4556 4.20067 6.30664 3.46265 6.30664 3.46265C7.70175 6.16037 7.74607 8.67888 9.27028 13.8142C11.1173 19.1306 17.9319 19.489 18.4368 19.4987C18.8944 20.2213 19.9436 21.1944 22.3456 21.6973L22.6115 20.4313C20.539 19.9978 19.7808 19.2 19.5207 18.7607" fill="white"/>
<path d="M7.07188 1.91543C4.05718 3.33559 2.84802 6.80216 2.84802 12.1013C2.84802 17.304 4.05525 20.7918 7.07188 22.3141L6.7337 23.6147C2.10037 21.9903 0 18.3792 0 12.1225C0 5.81749 2.10037 2.20447 6.7337 0.614746L7.07188 1.91543Z" fill="white"/>
<path d="M29.3974 0.614746C34.0346 2.20255 36.1302 5.81749 36.1302 12.1205C36.1302 18.3831 34.0298 21.9903 29.3965 23.6013L29.0352 22.3025C32.0537 20.786 33.259 17.2924 33.259 12.0897C33.259 6.7906 32.0518 3.32788 29.0352 1.90773L29.3974 0.614746Z" fill="white"/>
<path d="M49.9428 17.6758C48.5452 18.2125 47.0558 18.4698 45.559 18.4331C41.8718 18.4331 40.1 16.8357 40.6704 12.8007C41.1964 8.99495 42.6513 7.4399 46.509 7.4399C48.0246 7.41486 49.5317 7.67165 50.9535 8.19719L50.4294 10.5288L46.9946 10.5076C45.4348 10.5076 44.9077 11.0337 44.6543 12.924C44.3798 15.0051 44.7401 15.3828 46.2566 15.3828C47.3967 15.3895 48.5363 15.3336 49.6702 15.2151L49.9428 17.6758Z" fill="white"/>
<path d="M56.0979 13.1148C55.803 15.2595 55.9919 15.7624 57.3639 15.7624C58.6915 15.7624 59.1145 15.1959 59.4507 12.82C59.787 10.6348 59.5567 10.1222 58.2695 10.1222C56.8792 10.1222 56.4572 10.6464 56.0979 13.109V13.1148ZM63.4096 13.1167C62.8316 17.0477 61.2399 18.4332 57.227 18.4332C53.2142 18.4332 51.5233 16.9205 52.112 12.8219C52.6631 8.85046 54.2624 7.43994 58.3321 7.43994C62.3566 7.43994 64.0012 8.99691 63.4116 13.1167" fill="white"/>
<path d="M71.6081 9.89477C70.0058 9.89477 69.6272 10.2301 69.3102 12.6484C69.0578 14.5406 69.0154 15.296 69.9634 15.2343C70.8516 15.1481 71.6842 14.7629 72.3249 14.1418L72.8924 9.90248L71.6081 9.89477ZM75.5901 18.1806H72.5764L72.5349 16.4156C71.4666 17.5795 70 18.2996 68.4257 18.4331C65.9814 18.4331 64.8859 16.7084 65.411 12.7158C65.9891 8.34359 67.7089 7.43985 69.9634 7.43985C71.0943 7.43948 72.223 7.54138 73.3356 7.74431C73.3247 7.02651 73.3743 6.30908 73.4839 5.59962L73.8414 3.47998H77.6731L75.5901 18.1806Z" fill="white"/>
<path d="M84.5685 11.9587C85.5175 11.8739 86.0214 11.7274 86.11 10.8237C86.1736 10.13 85.899 10.0028 84.844 10.024C83.5568 10.0452 83.1358 10.4229 82.7995 12.1263L84.5685 11.9587ZM88.7634 17.593C87.2328 18.1894 85.5988 18.475 83.9566 18.4332C79.489 18.4332 78.2722 16.4793 78.6662 12.8219C79.148 8.47281 81.1337 7.44189 84.9047 7.44189C89.0361 7.44189 90.1219 8.8081 89.7934 11.1994C89.4976 13.1553 88.1699 13.7141 85.4019 13.9318L82.5558 14.1419C82.6001 15.2576 83.1464 15.4676 84.3276 15.4676C85.2525 15.4676 87.2257 15.3616 88.4985 15.2152L88.7634 17.593Z" fill="white"/>
<path d="M98.0367 4.77868C96.7495 4.77868 96.2244 5.0735 96.0346 6.41658L95.8033 7.93694H98.9828L98.7699 9.50354H95.5904L94.1991 19.3618C94.1719 20.2111 93.7987 21.0124 93.1661 21.5797C92.5335 22.147 91.6964 22.431 90.8492 22.3659C89.9971 22.36 89.1461 22.3034 88.3008 22.1963L88.6178 20.6817H90.1979C91.4639 20.6817 91.989 20.3869 92.1807 19.0438L93.5295 9.50547H91.6989L91.8916 8.03328L93.7675 7.92923L94.0209 6.09863C94.0461 5.24873 94.4212 4.44697 95.0575 3.88294C95.6937 3.31891 96.5347 3.04268 97.3815 3.11958C98.3878 3.10717 99.3939 3.15608 100.394 3.26603L100.058 4.78831L98.0367 4.77868Z" fill="white"/>
<path d="M107.647 9.56336H107.069C105.913 9.56336 104.793 10.3341 103.012 11.6445L102.105 18.1806H100.06L101.512 7.92353H103.073L102.967 10.2783C104.605 8.59796 106.211 7.6499 107.605 7.6499H108.153L107.647 9.56336Z" fill="white"/>
<path d="M114.75 12.421C116.015 12.3382 116.562 11.9817 116.73 10.8024C116.922 9.39381 116.205 9.3572 114.56 9.3572C112.476 9.3572 111.758 9.92372 111.316 12.7409L114.75 12.421ZM117.7 17.8454C116.327 18.2647 114.896 18.4637 113.461 18.435C109.896 18.435 108.677 16.6044 109.181 12.7814C109.73 8.78683 111.141 7.65186 114.865 7.65186C118.238 7.65186 119.06 8.914 118.765 10.9739C118.428 13.0126 117.248 13.7487 114.74 13.9375L111.175 14.2536C111.154 16.3135 112.123 16.7316 113.766 16.7316C114.906 16.7316 116.38 16.6064 117.561 16.4792L117.7 17.8454Z" fill="white"/>
<path d="M123.346 13.0937C121.872 12.4 121.176 11.6022 121.365 10.1069C121.597 8.15301 123.009 7.6019 125.707 7.64815C127.181 7.67307 128.652 7.79279 130.11 8.00656L129.857 9.45177C128.551 9.4113 127.328 9.36698 125.769 9.34579C124.082 9.34579 123.45 9.38818 123.344 10.2495C123.24 11.0203 123.729 11.238 124.568 11.6157L127.351 12.8779C128.951 13.614 129.606 14.2653 129.393 15.8415C129.078 18.175 127.413 18.4063 124.524 18.4063C123.191 18.4091 121.86 18.3106 120.542 18.1115L120.774 16.5988C121.723 16.6817 123.05 16.7048 123.999 16.7048C126.592 16.7048 127.266 16.4947 127.391 15.6527C127.518 14.8973 127.006 14.7701 126.105 14.3501L123.346 13.0937Z" fill="white"/>
<path d="M135.656 7.50364C135.537 8.35356 135.368 9.19578 135.151 10.026C136.938 8.44977 138.431 7.64816 139.909 7.64816C140.666 7.55017 141.42 7.84185 141.914 8.42314C142.408 9.00442 142.574 9.79627 142.355 10.527L141.26 18.177H139.237L140.227 11.0319C140.396 9.74853 140.163 9.37085 139.279 9.37085C138.013 9.37085 136.792 10.2322 135.028 11.6196L134.122 18.1712H132.072L134.158 3.45898H136.181L135.656 7.50364Z" fill="white"/>
</svg>
