<svg width="100" height="16" viewBox="0 0 100 16" fill="none" xmlns="http://www.w3.org/2000/svg">
<path d="M13.0615 4.70386C14.7037 6.62122 15.3741 9.18667 14.8799 11.6623C17.4576 10.6342 18.4576 8.91029 18.7619 7.18643C18.7619 7.18643 19.6406 3.91968 21.0066 2.56177C18.3075 2.98536 18.0347 1.92638 13.0615 4.70654" fill="#19A99B"/>
<path d="M8.93096 8.04262C8.39136 6.37583 7.46086 4.86231 6.21715 3.62841C6.21715 3.62841 9.9705 4.61501 12.1314 11.6204C10.0925 11.0051 9.22251 8.99302 8.92693 8.04262H8.93096ZM13.5751 12.6271C13.6354 12.2919 14.63 8.90321 12.6595 6.1512C9.35991 2.49436 4.38672 1.98096 4.38672 1.98096C5.35723 3.85763 5.38806 5.60964 6.44838 9.18203C7.73323 12.8804 12.4739 13.1298 12.8251 13.1365C13.1434 13.6391 13.8733 14.3161 15.5442 14.6659L15.7292 13.7852C14.2875 13.4836 13.76 12.9287 13.5791 12.623" fill="#19A99B"/>
<path d="M4.91957 0.904826C2.82239 1.89276 1.98123 4.30429 1.98123 7.99062C1.98123 11.6099 2.82105 14.0362 4.91957 15.0952L4.68432 16C1.46113 14.87 0 12.3579 0 8.00536C0 3.6193 1.46113 1.1059 4.68432 0L4.91957 0.904826Z" fill="#2F5C68"/>
<path d="M20.4503 0C23.6761 1.10456 25.1339 3.6193 25.1339 8.00402C25.1339 12.3606 23.6728 14.87 20.4496 15.9906L20.1982 15.0871C22.2981 14.0322 23.1366 11.6019 23.1366 7.98257C23.1366 4.29625 22.2968 1.8874 20.1982 0.899464L20.4503 0Z" fill="#2F5C68"/>
<path d="M34.7431 11.8686C33.7708 12.242 32.7347 12.4209 31.6935 12.3954C29.1285 12.3954 27.896 11.2842 28.2927 8.47721C28.6587 5.82976 29.6708 4.74799 32.3544 4.74799C33.4087 4.73057 34.4571 4.9092 35.4462 5.2748L35.0816 6.89678L32.6922 6.88204C31.6071 6.88204 31.2405 7.24799 31.0642 8.563C30.8732 10.0107 31.1238 10.2735 32.1788 10.2735C32.9719 10.2782 33.7646 10.2392 34.5535 10.1568L34.7431 11.8686Z" fill="#2F5C68"/>
<path d="M39.0249 8.69577C38.8198 10.1877 38.9512 10.5376 39.9056 10.5376C40.8292 10.5376 41.1234 10.1435 41.3573 8.49067C41.5912 6.97057 41.4311 6.614 40.5356 6.614C39.5685 6.614 39.2749 6.97861 39.0249 8.69175V8.69577ZM44.1114 8.69711C43.7092 11.4317 42.602 12.3955 39.8104 12.3955C37.0189 12.3955 35.8426 11.3432 36.2521 8.49201C36.6355 5.72928 37.7481 4.74805 40.5792 4.74805C43.3788 4.74805 44.5229 5.83116 44.1127 8.69711" fill="#2F5C68"/>
<path d="M49.8146 6.45539C48.7 6.45539 48.4366 6.68863 48.2161 8.37094C48.0405 9.68729 48.011 10.2128 48.6705 10.1699C49.2884 10.1099 49.8676 9.8419 50.3133 9.40981L50.7081 6.46075L49.8146 6.45539ZM52.5847 12.2195H50.4882L50.4594 10.9916C49.7162 11.8013 48.696 12.3022 47.6008 12.3951C45.9004 12.3951 45.1384 11.1953 45.5037 8.41785C45.9058 5.3763 47.1022 4.74761 48.6705 4.74761C49.4573 4.74736 50.2424 4.81824 51.0164 4.95941C51.0088 4.46007 51.0434 3.96099 51.1196 3.46745L51.3683 1.99292H54.0338L52.5847 12.2195Z" fill="#2F5C68"/>
<path d="M58.8301 7.89112C59.4902 7.83213 59.8408 7.73026 59.9024 7.10157C59.9467 6.619 59.7557 6.53053 59.0217 6.54527C58.1263 6.56002 57.8334 6.82275 57.5995 8.00774L58.8301 7.89112ZM61.7483 11.8107C60.6835 12.2255 59.5468 12.4242 58.4045 12.3951C55.2965 12.3951 54.45 11.0359 54.7242 8.49165C55.0593 5.46618 56.4406 4.74902 59.064 4.74902C61.938 4.74902 62.6933 5.69943 62.4648 7.36297C62.259 8.72356 61.3354 9.1123 59.4098 9.26377L57.4299 9.40988C57.4608 10.186 57.8408 10.3321 58.6625 10.3321C59.3059 10.3321 60.6786 10.2584 61.564 10.1565L61.7483 11.8107Z" fill="#2F5C68"/>
<path d="M68.1995 2.89659C67.3041 2.89659 66.9388 3.10169 66.8068 4.036L66.6459 5.09364H68.8577L68.7096 6.18346H66.4978L65.53 13.0414C65.511 13.6322 65.2514 14.1896 64.8113 14.5842C64.3712 14.9789 63.7889 15.1765 63.1995 15.1312C62.6068 15.1271 62.0148 15.0877 61.4268 15.0132L61.6473 13.9596H62.7465C63.6272 13.9596 63.9924 13.7545 64.1258 12.8202L65.0641 6.1848H63.7907L63.9247 5.16067L65.2297 5.08828L65.406 3.81482C65.4235 3.22359 65.6844 2.66584 66.1271 2.27347C66.5697 1.8811 67.1547 1.68894 67.7438 1.74244C68.4438 1.73381 69.1437 1.76783 69.8396 1.84432L69.6057 2.9033L68.1995 2.89659Z" fill="#19A99B"/>
<path d="M74.8846 6.2249H74.4824C73.6782 6.2249 72.8993 6.76109 71.6601 7.67262L71.0294 12.2195H69.6064L70.6172 5.08415H71.703L71.6292 6.72222C72.7686 5.55332 73.8859 4.8938 74.8551 4.8938H75.2365L74.8846 6.2249Z" fill="#19A99B"/>
<path d="M79.8246 8.2132C80.7046 8.15556 81.0853 7.90757 81.2019 7.0872C81.336 6.1073 80.8367 6.08184 79.6926 6.08184C78.2428 6.08184 77.7435 6.47594 77.4359 8.43572L79.8246 8.2132ZM81.8769 11.9867C80.9217 12.2784 79.9263 12.4168 78.9278 12.3968C76.4479 12.3968 75.6001 11.1234 75.9506 8.46387C76.3326 5.68505 77.3139 4.89551 79.905 4.89551C82.2509 4.89551 82.8232 5.77352 82.6175 7.2065C82.3836 8.62473 81.5625 9.13679 79.8179 9.26816L77.338 9.488C77.3232 10.921 77.9975 11.2119 79.1403 11.2119C79.9332 11.2119 80.9586 11.1247 81.7804 11.0363L81.8769 11.9867Z" fill="#19A99B"/>
<path d="M85.8059 8.68091C84.7804 8.19833 84.2965 7.64338 84.4279 6.60316C84.5894 5.24391 85.572 4.86053 87.4486 4.89271C88.4739 4.91004 89.497 4.99333 90.5116 5.14204L90.3354 6.1474C89.4272 6.11925 88.576 6.08842 87.4915 6.07367C86.3179 6.07367 85.8783 6.10316 85.8045 6.70236C85.7321 7.23855 86.0726 7.39002 86.6564 7.65276L88.5921 8.53077C89.7053 9.04284 90.1611 9.49592 90.013 10.5924C89.7938 12.2158 88.635 12.3766 86.6256 12.3766C85.6983 12.3786 84.7723 12.31 83.8555 12.1715L84.017 11.1192C84.6772 11.1769 85.6001 11.193 86.2603 11.193C88.0639 11.193 88.5331 11.0469 88.6202 10.4611C88.708 9.9356 88.3521 9.84713 87.7254 9.5549L85.8059 8.68091Z" fill="#19A99B"/>
<path d="M94.3693 4.79219C94.2862 5.38344 94.1687 5.96933 94.0174 6.54688C95.2607 5.45037 96.2996 4.89272 97.3277 4.89272C97.854 4.82456 98.3789 5.02747 98.7225 5.43184C99.0661 5.83621 99.1817 6.38706 99.0295 6.89541L98.2674 12.2171H96.8599L97.5489 7.24661C97.6662 6.35385 97.5047 6.09112 96.8894 6.09112C96.0087 6.09112 95.1595 6.69031 93.9323 7.65546L93.3016 12.2131H91.876L93.327 1.97852H94.7346L94.3693 4.79219Z" fill="#19A99B"/>
</svg>
