<?xml version="1.0" encoding="UTF-8"?>
<svg width="148px" height="24px" viewBox="0 0 148 24" version="1.1" xmlns="http://www.w3.org/2000/svg" xmlns:xlink="http://www.w3.org/1999/xlink">
    <g id="logo-white-green" stroke="none" stroke-width="1" fill="none" fill-rule="evenodd">
        <g id="logo" fill-rule="nonzero">
            <path d="M19.487,7.018 C21.9371274,9.87870122 22.9373602,13.706352 22.2,17.4 C26.046,15.866 27.538,13.294 27.992,10.722 C27.992,10.722 29.303,5.848 31.341,3.822 C27.314,4.454 26.907,2.874 19.487,7.022" id="Shape" fill="#4DBEA4"></path>
            <path d="M13.326,12 C12.5209212,9.5131558 11.1326211,7.25498239 9.277,5.414 C9.277,5.414 14.877,6.886 18.101,17.338 C15.059,16.42 13.761,13.418 13.32,12 M20.255,18.84 C20.345,18.34 21.829,13.284 18.889,9.178 C13.966,3.722 6.546,2.956 6.546,2.956 C7.994,5.756 8.04,8.37 9.622,13.7 C11.539,19.218 18.612,19.59 19.136,19.6 C19.611,20.35 20.7,21.36 23.193,21.882 L23.469,20.568 C21.318,20.118 20.531,19.29 20.261,18.834" id="Shape" fill="#4DBEA4"></path>
            <path d="M7.34,1.35 C4.211,2.824 2.956,6.422 2.956,11.922 C2.956,17.322 4.209,20.942 7.34,22.522 L6.989,23.872 C2.18,22.186 0,18.438 0,11.944 C0,5.4 2.18,1.65 6.989,0 L7.34,1.35 Z" id="Shape" fill="#FFFFFF"></path>
            <path d="M30.512,0 C35.325,1.648 37.5,5.4 37.5,11.942 C37.5,18.442 35.32,22.186 30.511,23.858 L30.136,22.51 C33.269,20.936 34.52,17.31 34.52,11.91 C34.52,6.41 33.267,2.816 30.136,1.342 L30.512,0 Z" id="Shape" fill="#FFFFFF"></path>
            <path d="M51.836,17.708 C50.3853217,18.2650057 48.839472,18.532047 47.286,18.494 C43.459,18.494 41.62,16.836 42.212,12.648 C42.758,8.698 44.268,7.084 48.272,7.084 C49.8450782,7.058006 51.4092925,7.32452941 52.885,7.87 L52.341,10.29 L48.776,10.268 C47.157,10.268 46.61,10.814 46.347,12.776 C46.062,14.936 46.436,15.328 48.01,15.328 C49.1932976,15.3350338 50.3760858,15.276946 51.553,15.154 L51.836,17.708 Z" id="Shape" fill="#FFFFFF"></path>
            <path d="M58.225,12.974 C57.919,15.2 58.115,15.722 59.539,15.722 C60.917,15.722 61.356,15.134 61.705,12.668 C62.054,10.4 61.815,9.868 60.479,9.868 C59.036,9.868 58.598,10.412 58.225,12.968 M65.814,12.976 C65.214,17.056 63.562,18.494 59.397,18.494 C55.232,18.494 53.477,16.924 54.088,12.67 C54.66,8.548 56.32,7.084 60.544,7.084 C64.721,7.084 66.428,8.7 65.816,12.976" id="Shape" fill="#FFFFFF"></path>
            <path d="M74.323,9.632 C72.66,9.632 72.267,9.98 71.938,12.49 C71.676,14.454 71.632,15.238 72.616,15.174 C73.5378514,15.0844929 74.4020074,14.6846753 75.067,14.04 L75.656,9.64 L74.323,9.632 Z M78.456,18.232 L75.328,18.232 L75.285,16.4 C74.1761812,17.6080804 72.6539353,18.3554621 71.02,18.494 C68.483,18.494 67.346,16.704 67.891,12.56 C68.491,8.022 70.276,7.084 72.616,7.084 C73.7898067,7.08361948 74.9612433,7.18938347 76.116,7.4 C76.1047299,6.65499189 76.1562454,5.9103586 76.27,5.174 L76.641,2.974 L80.618,2.974 L78.456,18.232 Z" id="Shape" fill="#FFFFFF"></path>
            <path d="M87.775,11.774 C88.76,11.686 89.283,11.534 89.375,10.596 C89.441,9.876 89.156,9.744 88.061,9.766 C86.725,9.788 86.288,10.18 85.939,11.948 L87.775,11.774 Z M92.129,17.622 C90.5403731,18.2409634 88.8443967,18.5373938 87.14,18.494 C82.503,18.494 81.24,16.466 81.649,12.67 C82.149,8.156 84.21,7.086 88.124,7.086 C92.412,7.086 93.539,8.504 93.198,10.986 C92.891,13.016 91.513,13.596 88.64,13.822 L85.686,14.04 C85.732,15.198 86.299,15.416 87.525,15.416 C88.485,15.416 90.533,15.306 91.854,15.154 L92.129,17.622 Z" id="Shape" fill="#FFFFFF"></path>
            <path d="M101.753,4.322 C100.417,4.322 99.872,4.628 99.675,6.022 L99.435,7.6 L102.735,7.6 L102.514,9.226 L99.214,9.226 L97.77,19.458 C97.7417493,20.339507 97.3543758,21.1711523 96.6977604,21.7599722 C96.041145,22.3487921 95.1723648,22.6436027 94.293,22.576 C93.4086202,22.5699195 92.5253885,22.5111487 91.648,22.4 L91.977,20.828 L93.617,20.828 C94.931,20.828 95.476,20.522 95.675,19.128 L97.075,9.228 L95.175,9.228 L95.375,7.7 L97.322,7.592 L97.585,5.692 C97.6111682,4.80987433 98.0004768,3.97771644 98.6608691,3.3922999 C99.3212613,2.80688336 100.194103,2.52018571 101.073,2.6 C102.117453,2.58712331 103.16172,2.63788399 104.2,2.752 L103.851,4.332 L101.753,4.322 Z" id="Shape" fill="#4DBEA4"></path>
            <path d="M111.728,9.288 L111.128,9.288 C109.928,9.288 108.766,10.088 106.917,11.448 L105.976,18.232 L103.853,18.232 L105.361,7.586 L106.981,7.586 L106.871,10.03 C108.571,8.286 110.238,7.302 111.684,7.302 L112.253,7.302 L111.728,9.288 Z" id="Shape" fill="#4DBEA4"></path>
            <path d="M119.1,12.254 C120.413,12.168 120.981,11.798 121.155,10.574 C121.355,9.112 120.61,9.074 118.903,9.074 C116.74,9.074 115.995,9.662 115.536,12.586 L119.1,12.254 Z M122.162,17.884 C120.736885,18.3192145 119.251791,18.5257776 117.762,18.496 C114.062,18.496 112.797,16.596 113.32,12.628 C113.89,8.482 115.354,7.304 119.22,7.304 C122.72,7.304 123.574,8.614 123.267,10.752 C122.918,12.868 121.693,13.632 119.09,13.828 L115.39,14.156 C115.368,16.294 116.374,16.728 118.079,16.728 C119.262,16.728 120.792,16.598 122.018,16.466 L122.162,17.884 Z" id="Shape" fill="#4DBEA4"></path>
            <path d="M128.022,12.952 C126.492,12.232 125.77,11.404 125.966,9.852 C126.207,7.824 127.673,7.252 130.473,7.3 C132.002735,7.32586925 133.52922,7.45012586 135.043,7.672 L134.78,9.172 C133.425,9.13 132.155,9.084 130.537,9.062 C128.786,9.062 128.13,9.106 128.02,10 C127.912,10.8 128.42,11.026 129.291,11.418 L132.179,12.728 C133.84,13.492 134.52,14.168 134.299,15.804 C133.972,18.226 132.243,18.466 129.245,18.466 C127.861567,18.4689564 126.479913,18.3666613 125.112,18.16 L125.353,16.59 C126.338,16.676 127.715,16.7 128.7,16.7 C131.391,16.7 132.091,16.482 132.221,15.608 C132.352,14.824 131.821,14.692 130.886,14.256 L128.022,12.952 Z" id="Shape" fill="#4DBEA4"></path>
            <path d="M140.8,7.15 C140.676104,8.03214111 140.500806,8.90629542 140.275,9.768 C142.13,8.132 143.68,7.3 145.214,7.3 C145.999165,7.19829563 146.782432,7.50103441 147.295097,8.10435991 C147.807762,8.7076854 147.980104,9.52954701 147.753,10.288 L146.616,18.228 L144.516,18.228 L145.544,10.812 C145.719,9.48 145.478,9.088 144.56,9.088 C143.246,9.088 141.979,9.982 140.148,11.422 L139.207,18.222 L137.08,18.222 L139.245,2.952 L141.345,2.952 L140.8,7.15 Z" id="Shape" fill="#4DBEA4"></path>
        </g>
    </g>
</svg>