<?xml version="1.0" encoding="UTF-8"?>
<svg width="167px" height="56px" viewBox="0 0 167 56" version="1.1" xmlns="http://www.w3.org/2000/svg" xmlns:xlink="http://www.w3.org/1999/xlink">
    <!-- Generator: Sketch 58 (84663) - https://sketch.com -->
    <title>microsoft-azure</title>
    <desc>Created with Sketch.</desc>
    <defs>
        <rect id="path-1" x="0" y="0" width="167" height="56"></rect>
        <filter x="-0.6%" y="-1.8%" width="101.2%" height="103.6%" filterUnits="objectBoundingBox" id="filter-2">
            <feOffset dx="0" dy="-2" in="SourceAlpha" result="shadowOffsetInner1"></feOffset>
            <feComposite in="shadowOffsetInner1" in2="SourceAlpha" operator="arithmetic" k2="-1" k3="1" result="shadowInnerInner1"></feComposite>
            <feColorMatrix values="0 0 0 0 0.156862745   0 0 0 0 0.419607843   0 0 0 0 0.454901961  0 0 0 0.2 0" type="matrix" in="shadowInnerInner1"></feColorMatrix>
        </filter>
    </defs>
    <g id="microsoft-azure" stroke="none" stroke-width="1" fill="none" fill-rule="evenodd">
        <g id="Rectangle-Copy-3">
            <use fill="#FFFFFF" fill-rule="evenodd" xlink:href="#path-1"></use>
            <use fill="black" fill-opacity="1" filter="url(#filter-2)" xlink:href="#path-1"></use>
        </g>
        <g id="Group" transform="translate(10.000000, 13.000000)">
            <g id="Asset-2" fill="#00ABE3" fill-rule="nonzero">
                <path d="M0,0 L6.62446673,0 C6.62446673,2.20815558 6.62446673,4.41631115 6.62446673,6.62446673 L0,6.62446673 L0,0 Z" id="Path"></path>
                <path d="M7.3008387,0 L13.9253054,0 C13.9253054,2.20815558 13.9253054,4.41631115 13.9253054,6.62446673 L7.30123657,6.62446673 C7.30123657,4.41631115 7.30123657,2.20815558 7.30123657,0 L7.3008387,0 Z" id="Path"></path>
                <path d="M59.737571,2.52406108 C60.3482951,2.12619521 61.1372631,2.08959155 61.8255711,2.2789757 C61.831539,2.68798181 61.8255711,3.09738579 61.8283561,3.50678977 C61.5013104,3.36276233 61.1165741,3.26807025 60.7724201,3.41010837 C60.4994841,3.51832788 60.3371548,3.79842546 60.2949811,4.07852303 C60.2436564,4.43381725 60.2770771,4.79468159 60.268324,5.15276088 C60.9669765,5.15276088 61.665629,5.15276088 62.3642814,5.15276088 C62.3694537,4.69919378 62.3587113,4.24522883 62.3702494,3.79166174 C62.8453013,3.65638734 63.3151809,3.50480044 63.7878455,3.36236446 C63.7918242,3.95916327 63.7822754,4.5579514 63.7930178,5.1559438 C64.2652846,5.14918008 64.7379492,5.1559438 65.2106139,5.15276088 L65.2106139,6.31612068 C64.7363578,6.29662525 64.2617038,6.31094842 63.7874477,6.30935696 C63.7874477,6.97816948 63.7874477,7.64698201 63.7874477,8.3161924 C63.7950071,8.68660553 63.7675544,9.05900798 63.8109217,9.42822751 C63.8371809,9.64586014 63.9163562,9.88696686 64.1204614,9.9995629 C64.4622282,10.1909364 64.895902,10.1073845 65.2098181,9.89731137 L65.2098181,11.0722093 C64.8004142,11.2500553 64.3428684,11.3041651 63.9000437,11.2711422 C63.4798973,11.2401087 63.0446321,11.0873282 62.7705025,10.7539166 C62.4522098,10.3763419 62.3726366,9.86508423 62.3658729,9.38684946 C62.3622921,8.36035552 62.3658729,7.33386157 62.3658729,6.30696976 C61.66669,6.30696976 60.9677722,6.30696976 60.2691198,6.30696976 C60.2691198,7.91806129 60.2691198,9.5290202 60.2691198,11.1398465 L58.8368026,11.1398465 C58.8368026,9.52928544 58.8368026,7.91885702 58.8368026,6.30856123 C58.5045846,6.30219537 58.1719688,6.30856123 57.8397508,6.30338897 C57.8397508,5.92103987 57.8425358,5.5382929 57.8397508,5.15554594 C58.1703773,5.14798649 58.5014017,5.15116941 58.8344154,5.15355661 C58.8586853,4.64508403 58.7811014,4.12189041 58.9330862,3.6265474 C59.0608329,3.17360147 59.3477673,2.78198061 59.7411518,2.52366321 L59.737571,2.52406108 Z" id="Path"></path>
                <path d="M29.0629082,2.60761291 C29.3517588,2.56384766 29.6644814,2.6625184 29.8558548,2.88850621 C30.0812358,3.14715887 30.1209712,3.5190829 29.9553213,3.81951235 C29.7715073,4.14576236 29.3585225,4.29695139 29.0004432,4.21737822 C28.6284386,4.15053675 28.3185011,3.80479131 28.3352115,3.41925928 C28.3244691,3.0134361 28.6638487,2.65177602 29.0617146,2.60641931 L29.0629082,2.60761291 Z" id="Path"></path>
                <path d="M18.0830038,2.78506109 L20.1666273,2.78506109 C20.8151487,4.43196054 21.4649963,6.07819689 22.1161701,7.72377012 C22.2820802,8.1355613 22.4372478,8.55212686 22.6111152,8.96073511 C23.4466336,6.90297284 24.2917007,4.85038281 25.1176702,2.78983548 C25.785687,2.7790931 26.4541017,2.78744828 27.1225163,2.78585682 C27.1209249,5.5709179 27.1209249,8.35597899 27.1225163,11.1410401 C26.6403029,11.1410401 26.1584873,11.1450187 25.6766718,11.138255 C25.681844,9.0832778 25.6766718,7.02830058 25.6790589,4.97133404 C25.6790589,4.87902916 25.6766718,4.78672428 25.6703059,4.69282793 C25.6421728,4.73559251 25.6170466,4.78026117 25.5951092,4.82651086 C24.7671504,6.93002771 23.9240726,9.02757658 23.1000924,11.1330828 C22.757132,11.1454166 22.4137738,11.1330828 22.0704155,11.1394486 C21.2161975,9.03593176 20.3727218,6.92764052 19.5240739,4.8225322 C19.5017935,4.77876696 19.4779215,4.73619531 19.4520602,4.69521513 C19.4345541,5.59558559 19.4492752,6.49675178 19.4445008,7.39712225 C19.4445008,8.64376864 19.4445008,9.89041503 19.4445008,11.1370614 C18.9897401,11.1370614 18.5349794,11.1370614 18.0806166,11.1370614 C18.0806166,8.35200033 18.0806166,5.56693925 18.0806166,2.78187816 L18.0830038,2.78506109 Z" id="Path"></path>
                <path d="M33.0057589,5.14639502 C33.7021829,4.95233674 34.4386929,4.9545398 35.1339435,5.15276088 C35.2769227,5.19165605 35.4142664,5.24889372 35.5425517,5.32304747 C35.5345944,5.77939962 35.5425517,6.23813897 35.5381752,6.69289966 C35.0762529,6.33999263 34.4901965,6.11639201 33.9029465,6.19039506 C33.4308983,6.23323082 32.9988124,6.47318221 32.7129297,6.85125027 C32.3548504,7.3183448 32.2716964,7.93861769 32.3333656,8.50995308 C32.3795181,8.95715432 32.5645257,9.40395769 32.9122605,9.70036776 C33.2735227,10.0214455 33.7800059,10.1352352 34.2526706,10.0982336 C34.7197651,10.0445217 35.1606005,9.8467824 35.5381752,9.57066349 C35.5421539,10.0031437 35.5361859,10.4356239 35.5413581,10.8681041 C34.9556996,11.2166346 34.2534663,11.3057565 33.5830623,11.2735294 C32.8971416,11.2373236 32.2132101,10.9775172 31.7166735,10.4953038 C31.1771674,9.97529308 30.8843381,9.2336711 30.8497238,8.49085552 C30.8147116,7.71859787 30.9718686,6.91291948 31.4162848,6.26797891 C31.7886872,5.71773041 32.3711629,5.32821972 33.0077483,5.14520142 L33.0057589,5.14639502 Z" id="Path"></path>
                <path d="M48.6558129,5.05528374 C49.3182596,4.93870904 50.0117398,5.0242502 50.6387764,5.26177612 C50.6387764,5.69942858 50.6387764,6.1398661 50.6387764,6.57871215 C50.1977877,6.27502116 49.6716703,6.11938739 49.1364349,6.13429598 C48.8686711,6.14464049 48.5742504,6.25803226 48.4521056,6.51266642 C48.3550263,6.76451551 48.4222656,7.09474418 48.6597916,7.24553535 C49.0660126,7.51727774 49.5506132,7.63265884 49.9727489,7.87615275 C50.3041712,8.06235398 50.6256468,8.30584789 50.7935462,8.65676559 C51.1090539,9.31404 50.9753709,10.1825812 50.4207459,10.6727519 C49.8911864,11.1676971 49.1284776,11.3045629 48.42704,11.2783038 C47.928912,11.2460767 47.4283967,11.1478038 46.9704531,10.9440965 C46.9704531,10.4821742 46.967668,10.0206498 46.9728403,9.55912538 C47.3576415,9.84284221 47.8022665,10.0347373 48.2726681,10.1201163 C48.6001117,10.1734303 48.9562016,10.1758175 49.2613648,10.0294028 C49.5533983,9.8841818 49.6059166,9.46920769 49.4324471,9.21536927 C49.2701178,9.01961926 49.0317962,8.91179761 48.8070019,8.80596529 C48.3848663,8.61618327 47.9412458,8.45743479 47.5704348,8.17296069 C47.3045614,7.97055531 47.1148676,7.68426206 47.0321223,7.36051859 C46.9175369,6.88307954 46.9525491,6.34755208 47.2310552,5.93138438 C47.5493479,5.44638589 48.0968114,5.15554594 48.6566086,5.05607947 L48.6558129,5.05528374 Z" id="Path"></path>
                <path d="M38.7461677,5.24387216 C39.1416464,5.00515264 39.644151,4.98645294 40.0758354,5.13167398 C40.0758354,5.60911303 40.0758354,6.08655207 40.0758354,6.56399111 C39.7876176,6.38184818 39.4466073,6.30170934 39.1074299,6.33641184 C38.700811,6.38256428 38.3785396,6.69449112 38.211436,7.0525704 C38.0300091,7.43173658 37.9957927,7.86063598 38.0073308,8.27521222 C38.0073308,9.23009031 38.0073308,10.1849684 38.0073308,11.1398465 L36.5949069,11.1398465 C36.5949069,9.14494701 36.5949069,7.14991492 36.5949069,5.1547502 C37.066378,5.14878222 37.5378491,5.15116941 38.0093201,5.1547502 C38.0093201,5.49731272 38.0093201,5.83987523 38.0093201,6.18283561 C38.1624985,5.81003529 38.3904756,5.44797735 38.7497485,5.24466789 L38.7461677,5.24387216 Z" id="Path"></path>
                <path d="M28.4665072,5.15395447 C28.9415591,5.15395447 29.4170088,5.14719075 29.8920606,5.15634167 C29.8864905,7.15084327 29.8920606,9.14574274 29.8896734,11.1402443 L28.467303,11.1402443 C28.467303,9.14481439 28.467303,7.14938443 28.467303,5.15395447 L28.4665072,5.15395447 Z" id="Path"></path>
                <path d="M46.0147793,6.55006581 C45.7642972,5.99105901 45.3197723,5.5417285 44.7634911,5.28525021 C44.1269057,4.99480813 43.4000048,4.95581727 42.7124926,5.04334776 C41.990366,5.13445905 41.287337,5.4742365 40.8289955,6.04994841 C40.4104406,6.56399111 40.2067333,7.22444846 40.1677424,7.88013141 C40.1100519,8.65238906 40.2389604,9.47159489 40.6925275,10.1165355 C41.0788553,10.6735477 41.6871922,11.055101 42.3476495,11.1959456 C42.9008524,11.3111223 43.4718492,11.3111223 44.0250521,11.1959456 C44.6691969,11.0634562 45.2707701,10.7069684 45.6698296,10.1809897 C46.0597381,9.68564673 46.2554881,9.06099731 46.2996512,8.43754149 C46.3446101,7.80016037 46.2801558,7.1389073 46.0147793,6.55006581 Z M44.6310018,9.29852324 C44.4955719,9.61200218 44.2430011,9.8601469 43.9271771,9.99001412 C43.5525727,10.127307 43.144646,10.1452363 42.7594407,10.0413388 C42.3685909,9.93293127 42.0421689,9.66363671 41.8614575,9.30051256 C41.6306953,8.83978389 41.5960809,8.30584789 41.6438248,7.80175183 C41.6871922,7.34221676 41.8471343,6.8695521 42.1972562,6.552453 C42.4510947,6.31373348 42.797238,6.19954598 43.1398005,6.18044842 C43.5702914,6.15219994 44.0286328,6.2739469 44.3381725,6.58706733 C44.6691969,6.91252162 44.7973097,7.3847884 44.8327198,7.83517257 C44.8581832,8.32812838 44.8394835,8.84177322 44.6310018,9.29852324 L44.6310018,9.29852324 Z" id="Shape"></path>
                <path d="M57.4888331,6.72393319 C57.2678571,6.12181073 56.8286056,5.6247592 56.2582339,5.33140265 C55.6057339,5.00196971 54.8466058,4.95382794 54.1316409,5.04255203 C53.5551332,5.11655508 52.9885722,5.33538131 52.5485326,5.72170907 C52.0114137,6.18442708 51.6963039,6.86477771 51.6036011,7.56064512 C51.5108984,8.25651252 51.5451149,8.98938145 51.8287932,9.64068788 C52.1079895,10.2853879 52.6313381,10.7931419 53.2841866,11.0527139 C53.920772,11.3037672 54.6309625,11.33122 55.3021623,11.2233983 C55.9884809,11.1100065 56.6385937,10.7491422 57.0635145,10.1937214 C57.5174794,9.61999886 57.7128316,8.87758115 57.711638,8.15426099 C57.7215846,7.66886463 57.661109,7.17789815 57.4888331,6.72393319 Z M56.1965647,8.75304913 C56.1416592,9.0681589 56.032644,9.38247293 55.8261516,9.63193483 C55.6196592,9.88139673 55.308926,10.0353708 54.9906333,10.082319 C54.6476729,10.1336437 54.2864107,10.108976 53.9657308,9.97091655 C53.6195875,9.82450191 53.3514259,9.52490892 53.2097857,9.18035707 C53.0398969,8.76975949 53.0060783,8.31499881 53.0398969,7.87575489 C53.0725219,7.45043627 53.1930753,7.01397741 53.4739686,6.68215728 C53.7301942,6.37341336 54.1232857,6.20471823 54.5195601,6.18044842 C54.9241897,6.15219994 55.3550784,6.24569842 55.6674031,6.51903227 C55.9542644,6.75775179 56.1130129,7.11344388 56.1846288,7.47391036 C56.2641246,7.89623846 56.2681657,8.3293111 56.1965647,8.75304913 Z" id="Shape"></path>
                <path d="M0,7.30044084 C2.20815558,7.30044084 4.41631115,7.30044084 6.62446673,7.30044084 C6.62446673,9.50859641 6.62446673,11.7166194 6.62446673,13.9245097 L0,13.9245097 L0,7.30044084 Z" id="Path"></path>
                <path d="M7.30123657,7.30123657 C9.5091269,7.30123657 11.7171499,7.30123657 13.9253054,7.30123657 L13.9253054,13.9253054 L7.3008387,13.9253054 C7.3008387,11.7171499 7.3008387,9.5091269 7.3008387,7.30123657 L7.30123657,7.30123657 Z" id="Path"></path>
            </g>
            <path d="M74.25,2.25 L74.25,30.75" id="Line" stroke="#00ABE3" stroke-width="0.75" stroke-linecap="square"></path>
            <g id="Asset-3" transform="translate(82.500000, 2.500000)" fill="#00ABE3" fill-rule="nonzero">
                <path d="M9.885,10.625 L8.385,10.625 C8.09934606,10.6443216 7.83814436,10.4639681 7.755,10.19 L7.035,8.135 L2.835,8.135 L2.085,10.19 C2.04824511,10.3136671 1.96842901,10.4200885 1.86,10.49 C1.7586374,10.5742749 1.63178271,10.6218454 1.5,10.625 L0,10.625 L3.975,0.5 L5.895,0.5 L9.885,10.625 Z M3.33,6.8 L6.555,6.8 L5.325,3.5 C5.325,3.35 5.205,3.17 5.13,2.96 C5.055,2.75 4.995,2.54 4.935,2.3 C4.935,2.54 4.8,2.765 4.74,2.975 C4.68,3.185 4.62,3.29 4.5,3.5 L3.33,6.8 Z" id="Shape"></path>
                <path d="M18.3,0.5 L18.3,1.19 C18.3043487,1.39926589 18.2412379,1.60437615 18.12,1.775 L12.915,9.125 L18.165,9.125 L18.165,10.625 L10.5,10.625 L10.5,9.875 C10.4844999,9.79070663 10.4844999,9.70429337 10.5,9.62 C10.5308909,9.53100417 10.571115,9.44552801 10.62,9.365 L15.855,2 L10.8,2 L10.8,0.5 L18.3,0.5 Z" id="Path"></path>
                <path d="M24,9.11 C24.3337466,9.11555895 24.6652385,9.05436044 24.975,8.93 C25.2523035,8.81291628 25.4987371,8.63322515 25.695,8.405 C25.9046005,8.175957 26.0631052,7.90496522 26.16,7.61 C26.2665469,7.270436 26.3172071,6.91581458 26.31,6.56 L26.31,0.5 L28.2000703,0.5 L28.2000703,6.5 C28.2031331,7.07359575 28.1014646,7.64293955 27.9,8.18 C27.695466,8.67801898 27.3888833,9.12767372 27,9.5 C26.6198916,9.87912537 26.1653318,10.1753554 25.665,10.37 C24.5343987,10.7703724 23.3006013,10.7703724 22.17,10.37 C21.6723147,10.1787676 21.2219807,9.88195657 20.85,9.5 C20.4837086,9.12125946 20.1979592,8.67222469 20.01,8.18 C19.8136481,7.64198526 19.7170678,7.07267008 19.725,6.5 L19.725,0.5 L21.615,0.5 L21.615,6.5 C21.6077929,6.85581458 21.6584531,7.210436 21.765,7.55 C21.86021,7.84247783 22.0132411,8.11283286 22.215,8.345 C22.4112629,8.57322515 22.6576965,8.75291628 22.935,8.87 C23.2689655,9.02461337 23.631998,9.10642349 24,9.11 Z" id="Path"></path>
                <path d="M32.13,6.665 L32.13,10.625 L30.24,10.625 L30.24,0.5 L33.33,0.5 C33.9267442,0.490376394 34.5220745,0.561008794 35.1,0.71 C35.5398575,0.829896069 35.9524146,1.03362793 36.315,1.31 C36.6242784,1.55247415 36.8626108,1.8737048 37.005,2.24 C37.1574681,2.61103498 37.2339766,3.00887951 37.23,3.41 C37.2341424,3.74105042 37.1834574,4.07050339 37.08,4.385 C36.9805413,4.68170283 36.8336354,4.9603176 36.645,5.21 C36.4471455,5.4623775 36.2089348,5.68031495 35.94,5.855 C35.6497194,6.05218803 35.331053,6.20393396 34.995,6.305 C35.2447775,6.44674256 35.4559534,6.64761719 35.61,6.89 L38.145,10.625 L36.45,10.625 C36.2923183,10.644032 36.1329754,10.606852 36,10.52 C35.8767643,10.4597576 35.7728459,10.366231 35.7,10.25 L33.615,7.01 C33.5500531,6.90297749 33.4631397,6.81095153 33.36,6.74 C33.2214287,6.71171426 33.0785713,6.71171426 32.94,6.74 L32.13,6.665 Z M32.13,5.315 L33.3,5.315 C33.6152836,5.32095075 33.9294214,5.27535009 34.23,5.18 C34.4679255,5.10669707 34.6877108,4.98402621 34.875,4.82 C35.0456734,4.66720668 35.1790843,4.47735273 35.265,4.265 C35.3591106,4.02147912 35.4000265,3.76064043 35.385,3.5 C35.416268,3.04583024 35.2263313,2.60450673 34.875,2.315 C34.4376374,2.00780477 33.9082925,1.8595882 33.375,1.895 L32.175,1.895 L32.13,5.315 Z" id="Shape"></path>
                <polygon id="Path" points="45.885 0.5 45.885 2 41.385 2 41.385 4.805 45 4.805 45 6.305 41.385 6.305 41.385 9.125 45.885 9.125 45.885 10.625 39.495 10.625 39.495 0.5"></polygon>
                <path d="M3,23.57 L3,27.125 L1.05,27.125 L1.05,17 L4.335,17 C4.93358902,16.9925714 5.53000251,17.073441 6.105,17.24 C6.55244564,17.3782652 6.96621863,17.6081391 7.32,17.915 C7.64422767,18.186961 7.89231618,18.5384198 8.04,18.935 C8.19471495,19.3524349 8.27099455,19.7948566 8.265,20.24 C8.27076011,20.701101 8.18933141,21.1591375 8.025,21.59 C7.86336623,21.9915187 7.61194158,22.3506968 7.29,22.64 C6.92950252,22.9488458 6.51148246,23.1833448 6.06,23.33 C5.50024411,23.495845 4.91876854,23.5767459 4.335,23.57 L3,23.57 Z M3,22.07 L4.41,22.07 C4.72036892,22.075941 5.02957136,22.0303209 5.325,21.935 C5.56067975,21.8593025 5.77609502,21.7310791 5.955,21.56 C6.13000369,21.4019914 6.25949047,21.199992 6.33,20.975 C6.42358406,20.7310008 6.46941484,20.4712931 6.465,20.21 C6.46936705,19.9584568 6.42347004,19.7085731 6.33,19.475 C6.25044528,19.2587163 6.12212606,19.063671 5.955,18.905 C5.77406463,18.743451 5.55856646,18.6254401 5.325,18.56 C5.00113621,18.4816695 4.66595319,18.4613554 4.335,18.5 L3,18.5 L3,22.07 Z" id="Shape"></path>
                <path d="M17.685,27.125 L16.185,27.125 C16.0399173,27.1354137 15.8959915,27.092769 15.78,27.005 C15.6769439,26.9294904 15.5986335,26.8250766 15.555,26.705 L14.805,24.635 L10.65,24.635 L9.9,26.705 C9.84902293,26.8209457 9.77203425,26.9235972 9.675,27.005 C9.55900849,27.092769 9.4150827,27.1354137 9.27,27.125 L7.77,27.125 L11.79,17 L13.71,17 L17.685,27.125 Z M11.13,23.315 L14.355,23.315 L13.125,20 C13.125,19.85 13.005,19.67 12.945,19.475 C12.885,19.28 12.81,19.055 12.75,18.815 L12.555,19.475 C12.4996757,19.6583484 12.4345827,19.838606 12.36,20.015 L11.13,23.315 Z" id="Shape"></path>
                <path d="M20.82,23.18 L20.82,27.125 L18.93,27.125 L18.93,17 L22.02,17 C22.6227561,16.9881684 23.2240344,17.0639598 23.805,17.225 C24.2414157,17.3419067 24.6496252,17.5460115 25.005,17.825 C25.3131905,18.0623095 25.5515813,18.3784364 25.695,18.74 C25.8494517,19.1156939 25.9259986,19.5188408 25.92,19.925 C25.9224977,20.2510249 25.8718333,20.5752768 25.77,20.885 C25.5699687,21.49922 25.1682361,22.0278156 24.63,22.385 C24.3363852,22.576307 24.0185889,22.7276386 23.685,22.835 C23.9373101,22.9665475 24.1496961,23.1633931 24.3,23.405 L26.835,27.14 L25.14,27.14 C24.999476,27.1456683 24.8598975,27.1146508 24.735,27.05 C24.6111652,26.9837415 24.5075178,26.8852764 24.435,26.765 L22.305,23.525 C22.244108,23.4188978 22.1561022,23.330892 22.05,23.27 C21.9187878,23.2092705 21.7741216,23.1834372 21.63,23.195 L20.82,23.18 Z M20.82,21.83 L21.99,21.83 C22.3053516,21.8370506 22.6196689,21.7914239 22.92,21.695 C23.1645308,21.6192015 23.3897085,21.4912596 23.58,21.32 C23.7433474,21.1640272 23.8712391,20.9747475 23.955,20.765 C24.0421475,20.5405008 24.0829665,20.3006888 24.075,20.06 C24.0959829,19.6107681 23.9142973,19.1758238 23.58,18.875 C23.1359949,18.5834673 22.6103987,18.4415563 22.08,18.47 L20.88,18.47 L20.82,21.83 Z" id="Shape"></path>
                <polygon id="Path" points="34.935 17 34.935 18.5 31.935 18.5 31.935 27.065 30 27.065 30 18.5 27 18.5 27 17"></polygon>
                <path d="M37.5,17 L37.665,17 L37.785,17.09 C37.8372039,17.1386895 37.882612,17.1941884 37.92,17.255 L43.245,24.02 L43.245,23.54 L43.245,17 L44.895,17 L44.895,27.125 L43.92,27.125 C43.8014631,27.151501 43.6785369,27.151501 43.56,27.125 C43.4424049,27.0631839 43.3399535,26.9761003 43.26,26.87 L37.875,20 L37.875,20.45 L37.875,27.065 L36.225,27.065 L36.225,17 L37.5,17 Z" id="Path"></path>
                <polygon id="Path" points="53.385 17 53.385 18.5 48.885 18.5 48.885 21.32 52.5 21.32 52.5 22.82 48.885 22.82 48.885 25.685 53.385 25.685 53.385 27.185 46.995 27.185 46.995 17"></polygon>
                <path d="M57.09,23.18 L57.09,27.125 L55.215,27.125 L55.215,17 L58.305,17 C58.9028235,16.9881303 59.4991596,17.0639357 60.075,17.225 C60.5172974,17.3383868 60.9310999,17.5427338 61.29,17.825 C61.5941506,18.0662801 61.8316528,18.3812288 61.98,18.74 C62.1344517,19.1156939 62.2109986,19.5188408 62.205,19.925 C62.2015662,20.25056 62.1510427,20.5739101 62.055,20.885 C61.9525759,21.1804249 61.8059056,21.4585927 61.62,21.71 C61.4221843,21.9666288 61.1841002,22.189516 60.915,22.37 C60.6197693,22.5584085 60.3023572,22.7095572 59.97,22.82 C60.2195033,22.9554938 60.4309741,23.1514911 60.585,23.39 L63.12,27.125 L61.5,27.125 C61.354842,27.1287511 61.2108754,27.0979011 61.08,27.035 C60.9636458,26.9640691 60.8659309,26.8663542 60.795,26.75 L58.665,23.51 C58.6026673,23.399801 58.5085782,23.3109391 58.395,23.255 C58.2646907,23.1914532 58.1192495,23.1654816 57.975,23.18 L57.09,23.18 Z M57.09,21.83 L58.275,21.83 C58.590167,21.8341345 58.9040167,21.7885757 59.205,21.695 C59.444981,21.6189988 59.6652226,21.4909513 59.85,21.32 C60.0177089,21.1645946 60.1506221,20.9754488 60.24,20.765 C60.3200139,20.5385894 60.3606023,20.3001325 60.36,20.06 C60.3772197,19.6083356 60.1898544,19.1729869 59.85,18.875 C59.4073344,18.5804988 58.8807353,18.438317 58.35,18.47 L57.135,18.47 L57.09,21.83 Z" id="Shape"></path>
            </g>
        </g>
    </g>
</svg>