<svg width="127" height="143" viewBox="0 0 127 143" fill="none" xmlns="http://www.w3.org/2000/svg">
<path fill-rule="evenodd" clip-rule="evenodd" d="M54.5 0H23.5V23.3615L36.7377 37.8248C36.9064 38.0092 37 38.2501 37 38.5V82C37 82.5523 36.5523 83 36 83C35.4477 83 35 82.5523 35 82V38.8885L23.5 26.3237V76.5C23.5 77.0523 23.0523 77.5 22.5 77.5C21.9477 77.5 21.5 77.0523 21.5 76.5V24.1385L8.26233 9.67516C8.09359 9.49079 8 9.24993 8 9V0H0V143H8V80.5C8 79.9477 8.44771 79.5 9 79.5C9.55229 79.5 10 79.9477 10 80.5V143H21.5V96C21.5 95.4477 21.9477 95 22.5 95C23.0523 95 23.5 95.4477 23.5 96V143H54.5V138.374L38.7459 120.286C38.5873 120.104 38.5 119.871 38.5 119.63V109C38.5 108.448 38.9477 108 39.5 108C40.0523 108 40.5 108.448 40.5 109V119.255L54.5 135.329V90.5C54.5 89.9477 54.9477 89.5 55.5 89.5C56.0523 89.5 56.5 89.9477 56.5 90.5V143H77V82C77 81.4477 77.4477 81 78 81C78.5523 81 79 81.4477 79 82V143H94V133.5C94 132.948 94.4477 132.5 95 132.5C95.5523 132.5 96 132.948 96 133.5V143H110.462V100C110.462 99.4477 110.91 99 111.462 99C112.014 99 112.462 99.4477 112.462 100V143H127V0H112.5V56.5C112.5 56.7524 112.405 56.9955 112.233 57.1805L99.5 70.8927V104.5C99.5 105.052 99.0523 105.5 98.5 105.5C97.9477 105.5 97.5 105.052 97.5 104.5V70.5C97.5 70.2476 97.5955 70.0045 97.7672 69.8195L110.5 56.1073V0H96V18.5C96 18.7251 95.924 18.9436 95.7844 19.1202L79 40.3476V74.5C79 75.0523 78.5523 75.5 78 75.5C77.4477 75.5 77 75.0523 77 74.5V40C77 39.7749 77.076 39.5564 77.2156 39.3798L94 18.1524V0H79V5C79 5.22782 78.9222 5.44881 78.7795 5.62639L56.5 33.352V42.5C56.5 43.0523 56.0523 43.5 55.5 43.5C54.9477 43.5 54.5 43.0523 54.5 42.5V33C54.5 32.7722 54.5778 32.5512 54.7205 32.3736L77 4.648V0H56.5V9C56.5 9.55228 56.0523 10 55.5 10C54.9477 10 54.5 9.55228 54.5 9V0ZM10 26C10 25.4477 9.55229 25 9 25C8.44771 25 8 25.4477 8 26V47.5C8 48.0523 8.44771 48.5 9 48.5C9.55229 48.5 10 48.0523 10 47.5V26ZM56.5 48C56.5 47.4477 56.0523 47 55.5 47C54.9477 47 54.5 47.4477 54.5 48V51C54.5 51.5523 54.9477 52 55.5 52C56.0523 52 56.5 51.5523 56.5 51V48ZM10 55C10 54.4477 9.55229 54 9 54C8.44771 54 8 54.4477 8 55V58C8 58.5523 8.44771 59 9 59C9.55229 59 10 58.5523 10 58V55ZM56.5 57C56.5 56.4477 56.0523 56 55.5 56C54.9477 56 54.5 56.4477 54.5 57V77C54.5 77.5523 54.9477 78 55.5 78C56.0523 78 56.5 77.5523 56.5 77V57ZM112.462 89C112.462 88.4477 112.014 88 111.462 88C110.91 88 110.462 88.4477 110.462 89V92C110.462 92.5523 110.91 93 111.462 93C112.014 93 112.462 92.5523 112.462 92V89ZM40.5 99.5C40.5 98.9477 40.0523 98.5 39.5 98.5C38.9477 98.5 38.5 98.9477 38.5 99.5V102.5C38.5 103.052 38.9477 103.5 39.5 103.5C40.0523 103.5 40.5 103.052 40.5 102.5V99.5ZM99.5 112C99.5 111.448 99.0523 111 98.5 111C97.9477 111 97.5 111.448 97.5 112V115C97.5 115.552 97.9477 116 98.5 116C99.0523 116 99.5 115.552 99.5 115V112Z" fill="#0a2540"/>
<path d="M10 0V8.61146L21.5 21.1763V0H10Z" fill="#0a2540"/>
</svg>
