<?xml version="1.0" encoding="UTF-8"?>
<svg width="100px" height="15px" viewBox="0 0 100 15" version="1.1" xmlns="http://www.w3.org/2000/svg" xmlns:xlink="http://www.w3.org/1999/xlink">
    <!-- Generator: Sketch 59 (86127) - https://sketch.com -->
    <title>Shape</title>
    <desc>Created with Sketch.</desc>
    <g id="Page-1" stroke="none" stroke-width="1" fill="none" fill-rule="evenodd">
        <path d="M0.000465116279,11.2897674 L0.000465116279,10.5581395 L0.000465116279,11.2897674 Z M0,0 L0,10.5581395 C0.737209302,11.1953488 1.73255814,11.4739535 2.71348837,11.5837209 C6.63116279,12.0218605 9.10511628,9.08976744 12.1413953,7.29767442 C17.0995349,4.37581395 23.0776744,2.90232558 28.8618605,2.86744186 C34.0190698,2.83767442 38.8674419,3.78837209 43.8948837,4.78372093 C46.5930233,5.31627907 49.2409302,6.02325581 51.9888372,6.28186047 C54.7813953,6.5455814 57.787907,6.58046512 60.5855814,6.41116279 C63.2488372,6.24697674 65.7776744,5.67953488 68.4702326,5.86372093 C74.3093023,6.26186047 79.7497674,8.66139535 84.9418605,11.0655814 C88.4711628,12.6981395 92.2344186,13.9827907 96.1218605,14.5353488 L99.8004651,14.8888372 L99.8004651,0 L0,0 L0,0 Z" id="Shape" fill="#F5FCFA" fill-rule="nonzero"></path>
    </g>
</svg>