<svg xmlns="http://www.w3.org/2000/svg" xmlns:xlink="http://www.w3.org/1999/xlink" viewBox="0 0 2002.23 789.23"><defs><style>.cls-1{mask:url(#mask);filter:url(#luminosity-noclip-10);}.cls-10,.cls-12,.cls-14,.cls-16,.cls-18,.cls-2,.cls-4,.cls-6,.cls-8{mix-blend-mode:multiply;}.cls-2{fill:url(#linear-gradient);}.cls-3{mask:url(#mask-2);filter:url(#luminosity-noclip-15);}.cls-4{fill:url(#linear-gradient-2);}.cls-5{mask:url(#mask-3);filter:url(#luminosity-noclip-16);}.cls-6{fill:url(#linear-gradient-3);}.cls-7{mask:url(#mask-4);filter:url(#luminosity-noclip-17);}.cls-8{fill:url(#linear-gradient-4);}.cls-9{mask:url(#mask-5);filter:url(#luminosity-noclip-18);}.cls-10{fill:url(#linear-gradient-5);}.cls-11{mask:url(#mask-6);filter:url(#luminosity-noclip-11);}.cls-12{fill:url(#linear-gradient-6);}.cls-13{mask:url(#mask-7);filter:url(#luminosity-noclip-12);}.cls-14{fill:url(#linear-gradient-7);}.cls-15{mask:url(#mask-8);filter:url(#luminosity-noclip-13);}.cls-16{fill:url(#linear-gradient-8);}.cls-17{mask:url(#mask-9);filter:url(#luminosity-noclip-14);}.cls-18{fill:url(#linear-gradient-9);}.cls-19{mask:url(#mask-10);}.cls-20{fill:url(#linear-gradient-10);}.cls-21{opacity:0.8;}.cls-22{mask:url(#mask-11);}.cls-23{fill:url(#linear-gradient-11);}.cls-24{opacity:0.67;}.cls-25{mask:url(#mask-12);}.cls-26{fill:url(#linear-gradient-12);}.cls-27{opacity:0.33;}.cls-28{mask:url(#mask-13);}.cls-29{fill:url(#linear-gradient-13);}.cls-30{opacity:0.19;}.cls-31{mask:url(#mask-14);}.cls-32{fill:url(#linear-gradient-14);}.cls-33{opacity:0.07;}.cls-34{mask:url(#mask-15);}.cls-35{fill:url(#linear-gradient-15);}.cls-36{mask:url(#mask-16);}.cls-37{fill:url(#linear-gradient-16);}.cls-38{mask:url(#mask-17);}.cls-39{fill:url(#linear-gradient-17);}.cls-40{mask:url(#mask-18);}.cls-41{fill:url(#linear-gradient-18);}.cls-42{filter:url(#luminosity-noclip-9);}.cls-43{filter:url(#luminosity-noclip-8);}.cls-44{filter:url(#luminosity-noclip-7);}.cls-45{filter:url(#luminosity-noclip-6);}.cls-46{filter:url(#luminosity-noclip-5);}.cls-47{filter:url(#luminosity-noclip-4);}.cls-48{filter:url(#luminosity-noclip-3);}.cls-49{filter:url(#luminosity-noclip-2);}.cls-50{filter:url(#luminosity-noclip);}</style><filter id="luminosity-noclip" x="27.73" y="-7360.48" width="1939.82" height="32766" filterUnits="userSpaceOnUse" color-interpolation-filters="sRGB"><feFlood flood-color="#fff" result="bg"/><feBlend in="SourceGraphic" in2="bg"/></filter><mask id="mask" x="27.73" y="-7360.48" width="1939.82" height="32766" maskUnits="userSpaceOnUse"><g class="cls-50"/></mask><linearGradient id="linear-gradient" x1="677.68" y1="189.49" x2="677.68" y2="-289.16" gradientTransform="matrix(-1.18, 0.06, -0.05, -1, 1797.9, 293.76)" gradientUnits="userSpaceOnUse"><stop offset="0"/><stop offset="1" stop-color="#fff"/></linearGradient><filter id="luminosity-noclip-2" x="62.41" y="-7360.48" width="1939.82" height="32766" filterUnits="userSpaceOnUse" color-interpolation-filters="sRGB"><feFlood flood-color="#fff" result="bg"/><feBlend in="SourceGraphic" in2="bg"/></filter><mask id="mask-2" x="62.41" y="-7360.48" width="1939.82" height="32766" maskUnits="userSpaceOnUse"><g class="cls-49"/></mask><linearGradient id="linear-gradient-2" x1="656.69" y1="3.04" x2="656.69" y2="-475.62" xlink:href="#linear-gradient"/><filter id="luminosity-noclip-3" x="21.23" y="-7360.48" width="1939.82" height="32766" filterUnits="userSpaceOnUse" color-interpolation-filters="sRGB"><feFlood flood-color="#fff" result="bg"/><feBlend in="SourceGraphic" in2="bg"/></filter><mask id="mask-3" x="21.23" y="-7360.48" width="1939.82" height="32766" maskUnits="userSpaceOnUse"><g class="cls-48"/></mask><linearGradient id="linear-gradient-3" x1="681.62" y1="224.45" x2="681.62" y2="-254.2" xlink:href="#linear-gradient"/><filter id="luminosity-noclip-4" x="0" y="-7360.48" width="1939.82" height="32766" filterUnits="userSpaceOnUse" color-interpolation-filters="sRGB"><feFlood flood-color="#fff" result="bg"/><feBlend in="SourceGraphic" in2="bg"/></filter><mask id="mask-4" x="0" y="-7360.48" width="1939.82" height="32766" maskUnits="userSpaceOnUse"><g class="cls-47"/></mask><linearGradient id="linear-gradient-4" x1="697.12" y1="279.19" x2="697.12" y2="-199.47" xlink:href="#linear-gradient"/><filter id="luminosity-noclip-5" x="4.39" y="-7360.48" width="1939.82" height="32766" filterUnits="userSpaceOnUse" color-interpolation-filters="sRGB"><feFlood flood-color="#fff" result="bg"/><feBlend in="SourceGraphic" in2="bg"/></filter><mask id="mask-5" x="4.39" y="-7360.48" width="1939.82" height="32766" maskUnits="userSpaceOnUse"><g class="cls-46"/></mask><linearGradient id="linear-gradient-5" x1="691.66" y1="318.51" x2="691.66" y2="-160.15" xlink:href="#linear-gradient"/><filter id="luminosity-noclip-6" x="35.02" y="-7360.48" width="1939.82" height="32766" filterUnits="userSpaceOnUse" color-interpolation-filters="sRGB"><feFlood flood-color="#fff" result="bg"/><feBlend in="SourceGraphic" in2="bg"/></filter><mask id="mask-6" x="35.02" y="-7360.48" width="1939.82" height="32766" maskUnits="userSpaceOnUse"><g class="cls-45"/></mask><linearGradient id="linear-gradient-6" x1="673.27" y1="150.29" x2="673.27" y2="-328.36" xlink:href="#linear-gradient"/><filter id="luminosity-noclip-7" x="41.92" y="-7360.48" width="1939.82" height="32766" filterUnits="userSpaceOnUse" color-interpolation-filters="sRGB"><feFlood flood-color="#fff" result="bg"/><feBlend in="SourceGraphic" in2="bg"/></filter><mask id="mask-7" x="41.92" y="-7360.48" width="1939.82" height="32766" maskUnits="userSpaceOnUse"><g class="cls-44"/></mask><linearGradient id="linear-gradient-7" x1="669.1" y1="113.22" x2="669.1" y2="-365.44" xlink:href="#linear-gradient"/><filter id="luminosity-noclip-8" x="48.03" y="-7360.48" width="1939.82" height="32766" filterUnits="userSpaceOnUse" color-interpolation-filters="sRGB"><feFlood flood-color="#fff" result="bg"/><feBlend in="SourceGraphic" in2="bg"/></filter><mask id="mask-8" x="48.03" y="-7360.48" width="1939.82" height="32766" maskUnits="userSpaceOnUse"><g class="cls-43"/></mask><linearGradient id="linear-gradient-8" x1="665.4" y1="80.37" x2="665.4" y2="-398.28" xlink:href="#linear-gradient"/><filter id="luminosity-noclip-9" x="54.92" y="-7360.48" width="1939.82" height="32766" filterUnits="userSpaceOnUse" color-interpolation-filters="sRGB"><feFlood flood-color="#fff" result="bg"/><feBlend in="SourceGraphic" in2="bg"/></filter><mask id="mask-9" x="54.92" y="-7360.48" width="1939.82" height="32766" maskUnits="userSpaceOnUse"><g class="cls-42"/></mask><linearGradient id="linear-gradient-9" x1="661.22" y1="43.3" x2="661.22" y2="-435.36" xlink:href="#linear-gradient"/><filter id="luminosity-noclip-10" x="27.73" y="127.96" width="1939.82" height="476.4" filterUnits="userSpaceOnUse" color-interpolation-filters="sRGB"><feFlood flood-color="#fff" result="bg"/><feBlend in="SourceGraphic" in2="bg"/></filter><mask id="mask-10" x="27.73" y="127.96" width="1939.82" height="476.4" maskUnits="userSpaceOnUse"><g class="cls-1"><path class="cls-2" d="M27.73,279c57.62-42.38,125-77.32,201-103.79a900.94,900.94,0,0,1,190.22-42A965,965,0,0,1,529.56,128C705.88,130.9,888.87,184.18,1027,288.36c1.59,1.07,4.58,2.15,6.18,3.21,73.74,58.43,150.69,111.65,247.06,142,23.75,7.59,47.1,13.07,71.85,18.57,33.33,6.64,64.67,10.11,97.22,12.55,53.51,2.65,103.44,1.08,154.78-7.82,21.38-5,43.35-6.89,62.94-14,2.6-1,5.59.06,8.19-1,106.12-29.3,194.31-79.75,263.37-143q14.48,77.2,29,154.42c-57.62,42.38-125,77.32-201,103.79a901.42,901.42,0,0,1-190.22,42,967,967,0,0,1-110.64,5.13C1289.4,601.42,1106.41,548.14,968.29,444c-1.6-1.07-4.59-2.15-6.18-3.21C888.37,382.32,811.42,329.1,715,298.74c-23.74-7.59-47.09-13.07-71.84-18.57-33.33-6.64-64.68-10.11-97.22-12.55-53.52-2.65-103.44-1.08-154.79,7.82-21.38,5-43.35,6.89-62.94,14-2.6,1-5.59-.06-8.19,1C214,319.72,125.75,370.17,56.7,433.4Q42.21,356.2,27.73,279Z"/></g></mask><linearGradient id="linear-gradient-10" x1="677.68" y1="189.49" x2="677.68" y2="-289.16" gradientTransform="matrix(-1.18, 0.06, -0.05, -1, 1797.9, 293.76)" gradientUnits="userSpaceOnUse"><stop offset="0" stop-color="#fff"/><stop offset="1" stop-color="#90d6c4"/></linearGradient><filter id="luminosity-noclip-11" x="35.02" y="166.83" width="1939.82" height="476.4" filterUnits="userSpaceOnUse" color-interpolation-filters="sRGB"><feFlood flood-color="#fff" result="bg"/><feBlend in="SourceGraphic" in2="bg"/></filter><mask id="mask-11" x="35.02" y="166.83" width="1939.82" height="476.4" maskUnits="userSpaceOnUse"><g class="cls-11"><path class="cls-12" d="M35,317.86c57.62-42.39,125-77.33,201-103.79A900.32,900.32,0,0,1,426.2,172a967.29,967.29,0,0,1,110.65-5.14c176.32,2.89,359.31,56.17,497.44,160.35,1.59,1.06,4.58,2.14,6.18,3.21,73.74,58.43,150.69,111.65,247.06,142,23.75,7.58,47.1,13.07,71.85,18.57,33.33,6.63,64.67,10.11,97.22,12.54,53.51,2.66,103.44,1.08,154.78-7.82,21.38-5,43.35-6.89,62.94-14,2.6-1,5.59.06,8.19-1,106.12-29.3,194.31-79.75,263.37-143q14.47,77.21,29,154.41c-57.62,42.38-125,77.33-201,103.79a900.18,900.18,0,0,1-190.22,42A967,967,0,0,1,1473,643.17C1296.69,640.28,1113.7,587,975.58,482.82c-1.6-1.06-4.59-2.14-6.18-3.21C895.66,421.18,818.71,368,722.33,337.6,698.59,330,675.24,324.53,650.49,319c-33.33-6.64-64.68-10.11-97.22-12.54-53.52-2.66-103.44-1.08-154.79,7.82-21.38,5-43.35,6.88-62.94,14-2.6,1-5.59-.06-8.19,1C221.24,358.59,133,409,64,472.27Q49.5,395.07,35,317.86Z"/></g></mask><linearGradient id="linear-gradient-11" x1="673.27" y1="150.29" x2="673.27" y2="-328.36" xlink:href="#linear-gradient-10"/><filter id="luminosity-noclip-12" x="41.92" y="203.59" width="1939.82" height="476.4" filterUnits="userSpaceOnUse" color-interpolation-filters="sRGB"><feFlood flood-color="#fff" result="bg"/><feBlend in="SourceGraphic" in2="bg"/></filter><mask id="mask-12" x="41.92" y="203.59" width="1939.82" height="476.4" maskUnits="userSpaceOnUse"><g class="cls-13"><path class="cls-14" d="M41.92,354.62c57.62-42.38,125-77.32,201-103.79A900.8,900.8,0,0,1,433.1,208.78a964.74,964.74,0,0,1,110.64-5.13c176.33,2.88,359.32,56.16,497.44,160.34,1.6,1.07,4.59,2.15,6.18,3.21,73.74,58.43,150.69,111.65,247.07,142,23.74,7.59,47.09,13.07,71.84,18.57,33.33,6.64,64.68,10.11,97.22,12.55,53.52,2.65,103.44,1.08,154.79-7.82,21.38-5,43.35-6.89,62.94-14,2.6-1,5.59,0,8.19-1,106.11-29.29,194.31-79.75,263.36-143q14.49,77.2,29,154.42c-57.62,42.38-125,77.32-201,103.79a900.94,900.94,0,0,1-190.22,42,967.29,967.29,0,0,1-110.65,5.13c-176.32-2.88-359.31-56.16-497.44-160.34-1.59-1.07-4.58-2.15-6.18-3.21C902.55,458,825.6,404.73,729.23,374.37c-23.75-7.59-47.1-13.07-71.85-18.57-33.33-6.64-64.67-10.11-97.22-12.55-53.51-2.65-103.44-1.08-154.78,7.82-21.38,5-43.35,6.89-62.94,14-2.6,1-5.59,0-8.19,1C228.13,395.35,139.94,445.8,70.88,509q-14.47-77.22-29-154.42Z"/></g></mask><linearGradient id="linear-gradient-12" x1="669.1" y1="113.22" x2="669.1" y2="-365.44" xlink:href="#linear-gradient-10"/><filter id="luminosity-noclip-13" x="48.03" y="236.15" width="1939.82" height="476.4" filterUnits="userSpaceOnUse" color-interpolation-filters="sRGB"><feFlood flood-color="#fff" result="bg"/><feBlend in="SourceGraphic" in2="bg"/></filter><mask id="mask-13" x="48.03" y="236.15" width="1939.82" height="476.4" maskUnits="userSpaceOnUse"><g class="cls-15"><path class="cls-16" d="M48,387.19c57.62-42.39,125-77.33,201-103.8a900.8,900.8,0,0,1,190.22-42,967,967,0,0,1,110.64-5.14c176.33,2.89,359.31,56.16,497.44,160.34,1.59,1.07,4.59,2.15,6.18,3.21,73.74,58.43,150.69,111.65,247.07,142,23.74,7.59,47.09,13.08,71.84,18.58,33.33,6.63,64.68,10.11,97.22,12.54,53.51,2.66,103.44,1.08,154.79-7.82,21.38-5,43.35-6.89,62.94-14,2.6-1,5.59.06,8.19-1,106.11-29.3,194.31-79.75,263.36-143q14.49,77.2,29,154.41c-57.62,42.38-125,77.32-201,103.79a900.85,900.85,0,0,1-190.21,42.05A967.29,967.29,0,0,1,1486,712.5c-176.33-2.89-359.31-56.17-497.44-160.35-1.59-1.06-4.59-2.14-6.18-3.21-73.74-58.43-150.69-111.65-247.06-142-23.75-7.58-47.1-13.07-71.85-18.57-33.33-6.64-64.67-10.11-97.22-12.55-53.51-2.65-103.44-1.07-154.79,7.83-21.38,5-43.35,6.88-62.94,14-2.59,1-5.59-.06-8.19,1-106.11,29.3-194.3,79.75-263.36,143Q62.5,464.4,48,387.19Z"/></g></mask><linearGradient id="linear-gradient-13" x1="665.4" y1="80.37" x2="665.4" y2="-398.28" xlink:href="#linear-gradient-10"/><filter id="luminosity-noclip-14" x="54.92" y="272.92" width="1939.82" height="476.4" filterUnits="userSpaceOnUse" color-interpolation-filters="sRGB"><feFlood flood-color="#fff" result="bg"/><feBlend in="SourceGraphic" in2="bg"/></filter><mask id="mask-14" x="54.92" y="272.92" width="1939.82" height="476.4" maskUnits="userSpaceOnUse"><g class="cls-17"><path class="cls-18" d="M54.92,424c57.62-42.38,125-77.32,201-103.79A900.94,900.94,0,0,1,446.1,278.11,967.29,967.29,0,0,1,556.75,273c176.32,2.89,359.31,56.17,497.44,160.35,1.59,1.06,4.58,2.14,6.18,3.21,73.74,58.43,150.69,111.65,247.06,142,23.75,7.59,47.1,13.07,71.85,18.57,33.33,6.64,64.67,10.11,97.22,12.55,53.51,2.65,103.44,1.07,154.78-7.83,21.38-5,43.35-6.88,62.94-14,2.6-1,5.59.06,8.19-1,106.12-29.3,194.31-79.75,263.37-143q14.48,77.2,29,154.42c-57.62,42.38-125,77.32-201,103.79a900.8,900.8,0,0,1-190.22,42,967,967,0,0,1-110.64,5.14c-176.33-2.89-359.32-56.16-497.44-160.34-1.6-1.07-4.59-2.15-6.18-3.21-73.74-58.43-150.69-111.65-247.07-142-23.74-7.59-47.09-13.07-71.84-18.57-33.34-6.64-64.68-10.11-97.22-12.55-53.52-2.66-103.44-1.08-154.79,7.82-21.38,5-43.35,6.89-62.94,14-2.6,1-5.59-.06-8.19,1-106.11,29.29-194.31,79.74-263.37,143Q69.41,501.16,54.92,424Z"/></g></mask><linearGradient id="linear-gradient-14" x1="661.22" y1="43.3" x2="661.22" y2="-435.36" xlink:href="#linear-gradient-10"/><filter id="luminosity-noclip-15" x="62.41" y="312.84" width="1939.82" height="476.4" filterUnits="userSpaceOnUse" color-interpolation-filters="sRGB"><feFlood flood-color="#fff" result="bg"/><feBlend in="SourceGraphic" in2="bg"/></filter><mask id="mask-15" x="62.41" y="312.84" width="1939.82" height="476.4" maskUnits="userSpaceOnUse"><g class="cls-3"><path class="cls-4" d="M62.41,463.87c57.62-42.39,125-77.33,201-103.79A900.18,900.18,0,0,1,453.59,318a967,967,0,0,1,110.64-5.14c176.33,2.89,359.32,56.17,497.44,160.35,1.6,1.06,4.59,2.14,6.18,3.21,73.74,58.43,150.69,111.65,247.07,142,23.74,7.58,47.09,13.07,71.84,18.57,33.34,6.63,64.68,10.11,97.22,12.54,53.52,2.66,103.44,1.08,154.79-7.82,21.38-5,43.35-6.89,62.94-14,2.6-1,5.59.06,8.19-1,106.11-29.3,194.31-79.75,263.37-143q14.48,77.2,29,154.41c-57.62,42.38-125,77.33-201,103.79a900.32,900.32,0,0,1-190.22,42,967.29,967.29,0,0,1-110.65,5.14C1324.08,786.29,1141.09,733,1003,628.83c-1.59-1.06-4.58-2.14-6.18-3.21C923,567.19,846.09,514,749.72,483.61,726,476,702.62,470.54,677.87,465c-33.33-6.64-64.67-10.11-97.22-12.54-53.51-2.66-103.44-1.08-154.78,7.82-21.38,5-43.35,6.88-62.94,14-2.6,1-5.59-.06-8.19,1-106.12,29.3-194.31,79.75-263.37,143q-14.48-77.21-29-154.41Z"/></g></mask><linearGradient id="linear-gradient-15" x1="656.69" y1="3.04" x2="656.69" y2="-475.62" xlink:href="#linear-gradient-10"/><filter id="luminosity-noclip-16" x="21.23" y="93.3" width="1939.82" height="476.4" filterUnits="userSpaceOnUse" color-interpolation-filters="sRGB"><feFlood flood-color="#fff" result="bg"/><feBlend in="SourceGraphic" in2="bg"/></filter><mask id="mask-16" x="21.23" y="93.3" width="1939.82" height="476.4" maskUnits="userSpaceOnUse"><g class="cls-5"><path class="cls-6" d="M21.23,244.33c57.62-42.39,125-77.33,201-103.79a900.18,900.18,0,0,1,190.22-42,967.07,967.07,0,0,1,110.65-5.14c176.32,2.89,359.31,56.17,497.43,160.35,1.6,1.06,4.59,2.14,6.19,3.21,73.74,58.43,150.68,111.65,247.06,142,23.75,7.58,47.1,13.07,71.84,18.57,33.34,6.63,64.68,10.11,97.23,12.54,53.51,2.66,103.44,1.08,154.78-7.82,21.38-5,43.35-6.89,62.94-14,2.6-1,5.59.06,8.19-1,106.12-29.3,194.31-79.75,263.37-143q14.48,77.21,29,154.41c-57.62,42.38-125,77.33-201,103.79a900.18,900.18,0,0,1-190.22,42,967.07,967.07,0,0,1-110.65,5.14c-176.32-2.89-359.31-56.17-497.43-160.35-1.6-1.06-4.59-2.14-6.19-3.21-73.74-58.43-150.68-111.65-247.06-142-23.74-7.58-47.1-13.07-71.84-18.57C603.36,238.86,572,235.39,539.48,233,486,230.3,436,231.88,384.69,240.78c-21.38,5-43.35,6.88-62.94,14-2.6,1-5.59-.06-8.19,1-106.11,29.3-194.31,79.75-263.37,143q-14.47-77.21-29-154.41Z"/></g></mask><linearGradient id="linear-gradient-16" x1="681.62" y1="224.45" x2="681.62" y2="-254.2" gradientTransform="matrix(-1.18, 0.06, -0.05, -1, 1797.9, 293.76)" gradientUnits="userSpaceOnUse"><stop offset="0" stop-color="#fff"/><stop offset="1" stop-color="#5fc4a9"/></linearGradient><filter id="luminosity-noclip-17" x="0" y="39.61" width="1939.82" height="476.4" filterUnits="userSpaceOnUse" color-interpolation-filters="sRGB"><feFlood flood-color="#fff" result="bg"/><feBlend in="SourceGraphic" in2="bg"/></filter><mask id="mask-17" x="0" y="39.61" width="1939.82" height="476.4" maskUnits="userSpaceOnUse"><g class="cls-7"><path class="cls-8" d="M0,190.64c57.62-42.38,125-77.33,201-103.79a900.18,900.18,0,0,1,190.22-42,967.07,967.07,0,0,1,110.65-5.14C678.15,42.55,861.14,95.83,999.26,200c1.6,1.06,4.59,2.14,6.19,3.21,73.74,58.43,150.68,111.65,247.06,142,23.74,7.58,47.1,13.07,71.84,18.57,33.34,6.64,64.68,10.11,97.22,12.54,53.52,2.66,103.45,1.08,154.79-7.82,21.38-5,43.35-6.88,62.94-14,2.6-1,5.59.06,8.19-1,106.11-29.3,194.31-79.75,263.37-143q14.48,77.2,29,154.41c-57.62,42.39-125,77.33-201,103.79a900.18,900.18,0,0,1-190.22,42.05A967.07,967.07,0,0,1,1438,516c-176.32-2.89-359.31-56.17-497.43-160.35-1.6-1.06-4.59-2.14-6.19-3.21-73.74-58.43-150.68-111.65-247.06-142-23.75-7.58-47.1-13.07-71.84-18.57-33.34-6.63-64.68-10.11-97.23-12.54-53.51-2.66-103.44-1.08-154.78,7.82-21.38,5-43.35,6.89-62.94,14-2.6,1-5.59-.06-8.19,1C186.21,231.37,98,281.82,29,345.05Q14.48,267.84,0,190.64Z"/></g></mask><linearGradient id="linear-gradient-17" x1="697.12" y1="279.19" x2="697.12" y2="-199.47" gradientTransform="matrix(-1.18, 0.06, -0.05, -1, 1797.9, 293.76)" gradientUnits="userSpaceOnUse"><stop offset="0" stop-color="#fff"/><stop offset="1" stop-color="#4dbea4"/></linearGradient><filter id="luminosity-noclip-18" x="4.39" y="0" width="1939.82" height="476.4" filterUnits="userSpaceOnUse" color-interpolation-filters="sRGB"><feFlood flood-color="#fff" result="bg"/><feBlend in="SourceGraphic" in2="bg"/></filter><mask id="mask-18" x="4.39" y="0" width="1939.82" height="476.4" maskUnits="userSpaceOnUse"><g class="cls-9"><path class="cls-10" d="M4.39,151c57.62-42.38,125-77.32,201-103.79A900.8,900.8,0,0,1,395.57,5.19,967,967,0,0,1,506.21.05C682.54,2.94,865.53,56.22,1003.65,160.4c1.6,1.07,4.59,2.15,6.18,3.21,73.74,58.43,150.69,111.65,247.07,142,23.74,7.59,47.09,13.07,71.84,18.57,33.33,6.64,64.68,10.11,97.22,12.55,53.51,2.65,103.44,1.08,154.79-7.82,21.38-5,43.35-6.89,62.94-14,2.6-1,5.59.06,8.19-1,106.11-29.3,194.31-79.75,263.36-143q14.49,77.2,29,154.42c-57.62,42.38-125,77.32-201,103.79a901.56,901.56,0,0,1-190.22,42,967.29,967.29,0,0,1-110.65,5.13c-176.32-2.88-359.31-56.16-497.44-160.34-1.59-1.07-4.58-2.15-6.18-3.21C865,254.36,788.07,201.14,691.7,170.78c-23.75-7.59-47.1-13.07-71.85-18.57-33.33-6.64-64.67-10.11-97.22-12.55-53.51-2.65-103.44-1.08-154.78,7.82-21.38,5-43.36,6.89-62.94,14-2.6,1-5.6-.06-8.19,1-106.12,29.29-194.31,79.74-263.37,143Q18.88,228.24,4.39,151Z"/></g></mask><linearGradient id="linear-gradient-18" x1="691.66" y1="318.51" x2="691.66" y2="-160.15" xlink:href="#linear-gradient-17"/></defs><title>waves</title><g id="Layer_2" data-name="Layer 2"><g id="Layer_1-2" data-name="Layer 1"><g class="cls-19"><path class="cls-20" d="M27.73,279c57.62-42.38,125-77.32,201-103.79a900.94,900.94,0,0,1,190.22-42A965,965,0,0,1,529.56,128C705.88,130.9,888.87,184.18,1027,288.36c1.59,1.07,4.58,2.15,6.18,3.21,73.74,58.43,150.69,111.65,247.06,142,23.75,7.59,47.1,13.07,71.85,18.57,33.33,6.64,64.67,10.11,97.22,12.55,53.51,2.65,103.44,1.08,154.78-7.82,21.38-5,43.35-6.89,62.94-14,2.6-1,5.59.06,8.19-1,106.12-29.3,194.31-79.75,263.37-143q14.48,77.2,29,154.42c-57.62,42.38-125,77.32-201,103.79a901.42,901.42,0,0,1-190.22,42,967,967,0,0,1-110.64,5.13C1289.4,601.42,1106.41,548.14,968.29,444c-1.6-1.07-4.59-2.15-6.18-3.21C888.37,382.32,811.42,329.1,715,298.74c-23.74-7.59-47.09-13.07-71.84-18.57-33.33-6.64-64.68-10.11-97.22-12.55-53.52-2.65-103.44-1.08-154.79,7.82-21.38,5-43.35,6.89-62.94,14-2.6,1-5.59-.06-8.19,1C214,319.72,125.75,370.17,56.7,433.4Q42.21,356.2,27.73,279Z"/></g><g class="cls-21"><g class="cls-22"><path class="cls-23" d="M35,317.86c57.62-42.39,125-77.33,201-103.79A900.32,900.32,0,0,1,426.2,172a967.29,967.29,0,0,1,110.65-5.14c176.32,2.89,359.31,56.17,497.44,160.35,1.59,1.06,4.58,2.14,6.18,3.21,73.74,58.43,150.69,111.65,247.06,142,23.75,7.58,47.1,13.07,71.85,18.57,33.33,6.63,64.67,10.11,97.22,12.54,53.51,2.66,103.44,1.08,154.78-7.82,21.38-5,43.35-6.89,62.94-14,2.6-1,5.59.06,8.19-1,106.12-29.3,194.31-79.75,263.37-143q14.47,77.21,29,154.41c-57.62,42.38-125,77.33-201,103.79a900.18,900.18,0,0,1-190.22,42A967,967,0,0,1,1473,643.17C1296.69,640.28,1113.7,587,975.58,482.82c-1.6-1.06-4.59-2.14-6.18-3.21C895.66,421.18,818.71,368,722.33,337.6,698.59,330,675.24,324.53,650.49,319c-33.33-6.64-64.68-10.11-97.22-12.54-53.52-2.66-103.44-1.08-154.79,7.82-21.38,5-43.35,6.88-62.94,14-2.6,1-5.59-.06-8.19,1C221.24,358.59,133,409,64,472.27Q49.5,395.07,35,317.86Z"/></g></g><g class="cls-24"><g class="cls-25"><path class="cls-26" d="M41.92,354.62c57.62-42.38,125-77.32,201-103.79A900.8,900.8,0,0,1,433.1,208.78a964.74,964.74,0,0,1,110.64-5.13c176.33,2.88,359.32,56.16,497.44,160.34,1.6,1.07,4.59,2.15,6.18,3.21,73.74,58.43,150.69,111.65,247.07,142,23.74,7.59,47.09,13.07,71.84,18.57,33.33,6.64,64.68,10.11,97.22,12.55,53.52,2.65,103.44,1.08,154.79-7.82,21.38-5,43.35-6.89,62.94-14,2.6-1,5.59,0,8.19-1,106.11-29.29,194.31-79.75,263.36-143q14.49,77.2,29,154.42c-57.62,42.38-125,77.32-201,103.79a900.94,900.94,0,0,1-190.22,42,967.29,967.29,0,0,1-110.65,5.13c-176.32-2.88-359.31-56.16-497.44-160.34-1.59-1.07-4.58-2.15-6.18-3.21C902.55,458,825.6,404.73,729.23,374.37c-23.75-7.59-47.1-13.07-71.85-18.57-33.33-6.64-64.67-10.11-97.22-12.55-53.51-2.65-103.44-1.08-154.78,7.82-21.38,5-43.35,6.89-62.94,14-2.6,1-5.59,0-8.19,1C228.13,395.35,139.94,445.8,70.88,509q-14.47-77.22-29-154.42Z"/></g></g><g class="cls-27"><g class="cls-28"><path class="cls-29" d="M48,387.19c57.62-42.39,125-77.33,201-103.8a900.8,900.8,0,0,1,190.22-42,967,967,0,0,1,110.64-5.14c176.33,2.89,359.31,56.16,497.44,160.34,1.59,1.07,4.59,2.15,6.18,3.21,73.74,58.43,150.69,111.65,247.07,142,23.74,7.59,47.09,13.08,71.84,18.58,33.33,6.63,64.68,10.11,97.22,12.54,53.51,2.66,103.44,1.08,154.79-7.82,21.38-5,43.35-6.89,62.94-14,2.6-1,5.59.06,8.19-1,106.11-29.3,194.31-79.75,263.36-143q14.49,77.2,29,154.41c-57.62,42.38-125,77.32-201,103.79a900.85,900.85,0,0,1-190.21,42.05A967.29,967.29,0,0,1,1486,712.5c-176.33-2.89-359.31-56.17-497.44-160.35-1.59-1.06-4.59-2.14-6.18-3.21-73.74-58.43-150.69-111.65-247.06-142-23.75-7.58-47.1-13.07-71.85-18.57-33.33-6.64-64.67-10.11-97.22-12.55-53.51-2.65-103.44-1.07-154.79,7.83-21.38,5-43.35,6.88-62.94,14-2.59,1-5.59-.06-8.19,1-106.11,29.3-194.3,79.75-263.36,143Q62.5,464.4,48,387.19Z"/></g></g><g class="cls-30"><g class="cls-31"><path class="cls-32" d="M54.92,424c57.62-42.38,125-77.32,201-103.79A900.94,900.94,0,0,1,446.1,278.11,967.29,967.29,0,0,1,556.75,273c176.32,2.89,359.31,56.17,497.44,160.35,1.59,1.06,4.58,2.14,6.18,3.21,73.74,58.43,150.69,111.65,247.06,142,23.75,7.59,47.1,13.07,71.85,18.57,33.33,6.64,64.67,10.11,97.22,12.55,53.51,2.65,103.44,1.07,154.78-7.83,21.38-5,43.35-6.88,62.94-14,2.6-1,5.59.06,8.19-1,106.12-29.3,194.31-79.75,263.37-143q14.48,77.2,29,154.42c-57.62,42.38-125,77.32-201,103.79a900.8,900.8,0,0,1-190.22,42,967,967,0,0,1-110.64,5.14c-176.33-2.89-359.32-56.16-497.44-160.34-1.6-1.07-4.59-2.15-6.18-3.21-73.74-58.43-150.69-111.65-247.07-142-23.74-7.59-47.09-13.07-71.84-18.57-33.34-6.64-64.68-10.11-97.22-12.55-53.52-2.66-103.44-1.08-154.79,7.82-21.38,5-43.35,6.89-62.94,14-2.6,1-5.59-.06-8.19,1-106.11,29.29-194.31,79.74-263.37,143Q69.41,501.16,54.92,424Z"/></g></g><g class="cls-33"><g class="cls-34"><path class="cls-35" d="M62.41,463.87c57.62-42.39,125-77.33,201-103.79A900.18,900.18,0,0,1,453.59,318a967,967,0,0,1,110.64-5.14c176.33,2.89,359.32,56.17,497.44,160.35,1.6,1.06,4.59,2.14,6.18,3.21,73.74,58.43,150.69,111.65,247.07,142,23.74,7.58,47.09,13.07,71.84,18.57,33.34,6.63,64.68,10.11,97.22,12.54,53.52,2.66,103.44,1.08,154.79-7.82,21.38-5,43.35-6.89,62.94-14,2.6-1,5.59.06,8.19-1,106.11-29.3,194.31-79.75,263.37-143q14.48,77.2,29,154.41c-57.62,42.38-125,77.33-201,103.79a900.32,900.32,0,0,1-190.22,42,967.29,967.29,0,0,1-110.65,5.14C1324.08,786.29,1141.09,733,1003,628.83c-1.59-1.06-4.58-2.14-6.18-3.21C923,567.19,846.09,514,749.72,483.61,726,476,702.62,470.54,677.87,465c-33.33-6.64-64.67-10.11-97.22-12.54-53.51-2.66-103.44-1.08-154.78,7.82-21.38,5-43.35,6.88-62.94,14-2.6,1-5.59-.06-8.19,1-106.12,29.3-194.31,79.75-263.37,143q-14.48-77.21-29-154.41Z"/></g></g><g class="cls-36"><path class="cls-37" d="M21.23,244.33c57.62-42.39,125-77.33,201-103.79a900.18,900.18,0,0,1,190.22-42,967.07,967.07,0,0,1,110.65-5.14c176.32,2.89,359.31,56.17,497.43,160.35,1.6,1.06,4.59,2.14,6.19,3.21,73.74,58.43,150.68,111.65,247.06,142,23.75,7.58,47.1,13.07,71.84,18.57,33.34,6.63,64.68,10.11,97.23,12.54,53.51,2.66,103.44,1.08,154.78-7.82,21.38-5,43.35-6.89,62.94-14,2.6-1,5.59.06,8.19-1,106.12-29.3,194.31-79.75,263.37-143q14.48,77.21,29,154.41c-57.62,42.38-125,77.33-201,103.79a900.18,900.18,0,0,1-190.22,42,967.07,967.07,0,0,1-110.65,5.14c-176.32-2.89-359.31-56.17-497.43-160.35-1.6-1.06-4.59-2.14-6.19-3.21-73.74-58.43-150.68-111.65-247.06-142-23.74-7.58-47.1-13.07-71.84-18.57C603.36,238.86,572,235.39,539.48,233,486,230.3,436,231.88,384.69,240.78c-21.38,5-43.35,6.88-62.94,14-2.6,1-5.59-.06-8.19,1-106.11,29.3-194.31,79.75-263.37,143q-14.47-77.21-29-154.41Z"/></g><g class="cls-38"><path class="cls-39" d="M0,190.64c57.62-42.38,125-77.33,201-103.79a900.18,900.18,0,0,1,190.22-42,967.07,967.07,0,0,1,110.65-5.14C678.15,42.55,861.14,95.83,999.26,200c1.6,1.06,4.59,2.14,6.19,3.21,73.74,58.43,150.68,111.65,247.06,142,23.74,7.58,47.1,13.07,71.84,18.57,33.34,6.64,64.68,10.11,97.22,12.54,53.52,2.66,103.45,1.08,154.79-7.82,21.38-5,43.35-6.88,62.94-14,2.6-1,5.59.06,8.19-1,106.11-29.3,194.31-79.75,263.37-143q14.48,77.2,29,154.41c-57.62,42.39-125,77.33-201,103.79a900.18,900.18,0,0,1-190.22,42.05A967.07,967.07,0,0,1,1438,516c-176.32-2.89-359.31-56.17-497.43-160.35-1.6-1.06-4.59-2.14-6.19-3.21-73.74-58.43-150.68-111.65-247.06-142-23.75-7.58-47.1-13.07-71.84-18.57-33.34-6.63-64.68-10.11-97.23-12.54-53.51-2.66-103.44-1.08-154.78,7.82-21.38,5-43.35,6.89-62.94,14-2.6,1-5.59-.06-8.19,1C186.21,231.37,98,281.82,29,345.05Q14.48,267.84,0,190.64Z"/></g><g class="cls-40"><path class="cls-41" d="M4.39,151c57.62-42.38,125-77.32,201-103.79A900.8,900.8,0,0,1,395.57,5.19,967,967,0,0,1,506.21.05C682.54,2.94,865.53,56.22,1003.65,160.4c1.6,1.07,4.59,2.15,6.18,3.21,73.74,58.43,150.69,111.65,247.07,142,23.74,7.59,47.09,13.07,71.84,18.57,33.33,6.64,64.68,10.11,97.22,12.55,53.51,2.65,103.44,1.08,154.79-7.82,21.38-5,43.35-6.89,62.94-14,2.6-1,5.59.06,8.19-1,106.11-29.3,194.31-79.75,263.36-143q14.49,77.2,29,154.42c-57.62,42.38-125,77.32-201,103.79a901.56,901.56,0,0,1-190.22,42,967.29,967.29,0,0,1-110.65,5.13c-176.32-2.88-359.31-56.16-497.44-160.34-1.59-1.07-4.58-2.15-6.18-3.21C865,254.36,788.07,201.14,691.7,170.78c-23.75-7.59-47.1-13.07-71.85-18.57-33.33-6.64-64.67-10.11-97.22-12.55-53.51-2.65-103.44-1.08-154.78,7.82-21.38,5-43.36,6.89-62.94,14-2.6,1-5.6-.06-8.19,1-106.12,29.29-194.31,79.74-263.37,143Q18.88,228.24,4.39,151Z"/></g></g></g></svg>