<svg xmlns="http://www.w3.org/2000/svg" xmlns:xlink="http://www.w3.org/1999/xlink" viewBox="0 0 452.06 448.51">
  <defs>
    <linearGradient id="linear-gradient" x1="226.03" x2="226.03" y2="448.51" gradientUnits="userSpaceOnUse">
      <stop offset="0.05" stop-color="#4dbea4" stop-opacity="0.1"/>
      <stop offset="0.65" stop-color="#4dbea4" stop-opacity="0"/>
    </linearGradient>
  </defs>
  <title>bg</title>
  <g id="Layer_2" data-name="Layer 2">
    <g id="Layer_1-2" data-name="Layer 1">
      <path d="M273.49,258.54H321.2V204.69L308.31,191.8H273.49Zm35.14-64.87,10.69,10.7H308.63Zm-34-.77h32.94v12.57H320.1v52H274.59Zm14.06,14.74h-8.83v-1.1h8.83Zm12.14,0H292v-1.1h8.83Zm-12.14,18.64h-8.83v-1.1h8.83Zm12.14,0H292v-1.1h8.83Zm-21,23.74h8.83v1.1h-8.83ZM292,250h8.83v1.1H292ZM292,219h22.91v1.1H292Zm17.39,13.52H286.44v-1.1h22.91Zm-23.73-19.73h5.15v1.09h-5.15Zm7.91,0H312.2v1.09H293.53Zm-7.91,31.05h5.15v1.1h-5.15Zm7.91,0H312.2v1.1H293.53Zm-.84-4.85v-1.1H297V239Zm6.6-1.1h15.58V239H299.29ZM233.8,141.68a18,18,0,0,0,.24,2.93h-.6a14.46,14.46,0,0,0,0,28.92h7.23l12,14.2,12-14.2h8.07a16.95,16.95,0,1,0,0-33.89,16.25,16.25,0,0,0-2.86.25,18.12,18.12,0,0,0-36.15,1.8ZM252.7,186l-10.59-12.49h6.54V160.91h8.11v12.61h6.54Zm-.77-61.37a17,17,0,0,1,17,15.93l.05.63.62-.13a16.13,16.13,0,0,1,3.24-.34,15.85,15.85,0,1,1,0,31.69h-15V159.81H247.56v12.61H233.44a13.36,13.36,0,1,1,0-26.72c.41,0,.82,0,1.22.06l.73.06-.15-.72a17.07,17.07,0,0,1,16.69-20.46ZM176.41,115a17.91,17.91,0,0,0,.24,2.93h-.6a14.46,14.46,0,1,0,0,28.92h14.12v12.87h10.3V146.86h15a16.95,16.95,0,0,0,0-33.89,16.28,16.28,0,0,0-2.87.25,18.12,18.12,0,0,0-36.15,1.8Zm23,30.74v12.87h-8.1V145.76H185l10.37-12.23,10.37,12.23ZM194.54,98a17.07,17.07,0,0,1,17,15.93l0,.63.62-.13a16.16,16.16,0,0,1,3.25-.34,15.85,15.85,0,0,1,0,31.69h-8.3l-11.81-13.93-11.81,13.93h-7.46a13.36,13.36,0,0,1,0-26.72c.41,0,.82,0,1.22.06l.73.06-.14-.72A17,17,0,0,1,194.54,98Zm-66.66,246.7V333.55H121.5v11.13Zm-5.28-10h4.18v8.94H122.6Zm6.92,10h6.38V329.42h-6.38Zm1.1-14.16h4.18v13.07h-4.18Zm13.3-4.88h-6.38v19h6.38Zm-1.1,17.95h-4.18V326.74h4.18Zm-.6,19.15.55-.17L138.9,352.5l-.48.14a18.18,18.18,0,0,1-23.14-17.5A18.09,18.09,0,0,1,131.81,317l.5,0V306.19l-.58,0a29,29,0,0,0,1.74,57.88A28.7,28.7,0,0,0,142.22,362.74ZM105.6,335.13a27.89,27.89,0,0,1,25.61-27.77V316a19.29,19.29,0,1,0,7,37.85l3.1,8a27.87,27.87,0,0,1-35.73-26.74Zm45.84-2.72.08.5,10.78-.63-.07-.58a28.9,28.9,0,0,0-27-25.48l-.58,0V317l.5,0A18.11,18.11,0,0,1,151.44,332.41Zm-15.7-25.05a27.8,27.8,0,0,1,25.33,23.89l-8.62.5A19.2,19.2,0,0,0,135.74,316Zm21.79,43.9a28.78,28.78,0,0,0,4.92-16.07v-.59l-10.79.64,0,.5a18.07,18.07,0,0,1-2.75,9l-.27.43,8.59,6.53Zm-7.45-6.32a19.34,19.34,0,0,0,2.64-8.66l8.62-.51a27.73,27.73,0,0,1-4.4,14.39Zm-4.6,16.54a29.16,29.16,0,0,0,9.93-7.44l.38-.44-8.58-6.54-.34.37a17.9,17.9,0,0,1-5.34,4l-.45.23L145,361.73Zm1.86-12.94,6.85,5.22a28.31,28.31,0,0,1-8.64,6.48l-3.09-8A19.15,19.15,0,0,0,147.34,348.54ZM31.4,172.07H45.92A7.08,7.08,0,0,0,53,165v-3.33h2L56.21,158l1.68-.7L61.36,159l3.26-3.26-1.75-3.47.7-1.68,3.69-1.22v-4.6l-3.69-1.22-.7-1.68,1.75-3.48-3.26-3.25-3.47,1.74-1.68-.69L55,132.53H53v-7.18a7.08,7.08,0,0,0-7.08-7.07H31.4a7.08,7.08,0,0,0-7.07,7.07V165A7.08,7.08,0,0,0,31.4,172.07Zm23.92-35,2.62,1.08,3.21-1.61,2.13,2.13-1.62,3.21,1.09,2.61,3.41,1.13v3l-3.41,1.13-1.09,2.61,1.62,3.21-2.13,2.13-3.21-1.61-2.62,1.08-1.12,3.41h-3l-1.13-3.41-2.61-1.08-3.21,1.61-2.14-2.13,1.62-3.21-1.08-2.61-3.42-1.13v-3l3.42-1.13,1.08-2.61-1.62-3.21,2.14-2.13,3.21,1.61L50.05,137l1.13-3.41h3Zm-4.94-4.51-1.21,3.69-1.69.69L44,135.17l-3.26,3.25,1.75,3.48-.7,1.68-3.69,1.22v4.6l3.69,1.22.7,1.68-1.75,3.48L44,159l3.47-1.75,1.69.7,1.21,3.69H51.9v.84H25.43V126.88H51.9v5.65Zm-19-13.15H45.92a6,6,0,0,1,6,6v.43H25.43v-.43A6,6,0,0,1,31.4,119.38Zm-6,44.23H51.9V165a6,6,0,0,1-6,6H31.4a6,6,0,0,1-6-6Zm15.92-40.48H36V122h5.38Zm-.93,44.69H36.91v-1.1h3.51Zm5.35-20.72a6.92,6.92,0,1,0,6.92-6.92A6.92,6.92,0,0,0,45.77,147.1Zm6.92-5.82a5.82,5.82,0,1,1-5.82,5.82A5.83,5.83,0,0,1,52.69,141.28Zm0,10.23a4.41,4.41,0,1,0-4.42-4.41A4.42,4.42,0,0,0,52.69,151.51Zm0-7.72a3.31,3.31,0,1,1-3.32,3.31A3.31,3.31,0,0,1,52.69,143.79ZM288.24,28.16a5.49,5.49,0,0,0,.58,0c5.41-.33,8.93-5,9.08-5.22l.26-.36-.29-.33c-.18-.2-4.23-4.8-9-5.18a4.21,4.21,0,0,0-.62,0,4.35,4.35,0,0,0-.63,0c-4.78.38-8.83,5-9,5.18l-.28.33.26.36c.15.2,3.67,4.89,9.07,5.22A5.68,5.68,0,0,0,288.24,28.16Zm-4.48-5.58a4.48,4.48,0,1,1,4.48,4.48A4.49,4.49,0,0,1,283.76,22.58Zm13,0a14.85,14.85,0,0,1-4,3.25,5.55,5.55,0,0,0,.18-6.29A19.2,19.2,0,0,1,296.73,22.61Zm-17,0a18.55,18.55,0,0,1,3.8-3,5.54,5.54,0,0,0-.89,3,5.6,5.6,0,0,0,1.06,3.27A14.42,14.42,0,0,1,279.75,22.61Zm8.49-2.2a2.17,2.17,0,1,0,2.17,2.17A2.18,2.18,0,0,0,288.24,20.41Zm0,3.24a1.07,1.07,0,1,1,1.07-1.07A1.08,1.08,0,0,1,288.24,23.65Zm0,15.55h0a16.52,16.52,0,0,0,11.34-4.5l5.75,5.75-2.62,2.61L319.63,60l6-6L308.72,37.05l-2.62,2.62-5.75-5.75a16.57,16.57,0,1,0-12.11,5.28ZM324.09,54l-4.46,4.45L304.27,43.06l4.45-4.45ZM277.27,11.61a15.5,15.5,0,1,1-4.55,11A15.47,15.47,0,0,1,277.27,11.61Zm11,24a13,13,0,0,0,9.17-22.16h0a13,13,0,1,0-9.17,22.16Zm-8.4-21.38a11.88,11.88,0,1,1-3.48,8.4A11.86,11.86,0,0,1,279.84,14.18ZM395,353.45h-.14a21.93,21.93,0,0,1-10.79-3.38,24.68,24.68,0,0,0-6.48-14l-.08-.09-.49-.5-.09-.09-.79-.76-.15-.17h0a24.79,24.79,0,0,0-33.08,0h-.14l-.11.21c-.25.23-.49.47-.73.71l-.1.1c-.15.15-.31.3-.46.47a.44.44,0,0,0-.09.1A24.74,24.74,0,0,0,334.59,353v.12a24.68,24.68,0,0,0,7,17.11l.11.13a24.87,24.87,0,0,0,28,5.28c4.32,7.46,10,9.08,10.38,9.16l.34.15.18-.05c.62-.17,15.23-4.43,15-30.93v-.55Zm-24.15-1H360v-10h.54a33.53,33.53,0,0,0,8.68-1.09A33.11,33.11,0,0,1,370.88,352.48ZM360,341.35V329.73a21.62,21.62,0,0,1,8.81,10.61A34.93,34.93,0,0,1,360,341.35Zm-1.1,0a41.31,41.31,0,0,1-8.67-1.27,21.57,21.57,0,0,1,8.67-10.34Zm0,1.16v10H348a32.4,32.4,0,0,1,1.81-11.39A42.74,42.74,0,0,0,358.87,342.5Zm-12,10H335.71a23.59,23.59,0,0,1,5.61-14.76,35,35,0,0,0,7.39,3.06A33.71,33.71,0,0,0,346.86,352.49Zm0,1.1a42.77,42.77,0,0,0,.76,6.51,40.41,40.41,0,0,0,1.35,5.1,35,35,0,0,0-7.67,3.13,23.57,23.57,0,0,1-5.61-14.74Zm1.84,6.3a41.42,41.42,0,0,1-.74-6.3h10.9v10a42.7,42.7,0,0,0-8.82,1.31A39.76,39.76,0,0,1,348.72,359.89Zm10.16,4.82v12c-3.13-.8-6.34-5-8.46-10.71A41.36,41.36,0,0,1,358.88,364.71Zm1.1,0a34.58,34.58,0,0,1,5.9.41,40.12,40.12,0,0,0,1.07,4.23c-2.05,4.07-4.55,6.7-7,7.33Zm0-1.1v-10h4.9v.49a58,58,0,0,0,.79,9.89A36.26,36.26,0,0,0,360,363.59Zm10.27-22.47a25.54,25.54,0,0,0,7.23-3.49,23.6,23.6,0,0,1,5.4,11.67,25,25,0,0,1-2.23-1.64l-.36-.3-.36.3a29.9,29.9,0,0,1-7.95,4.56A34.19,34.19,0,0,0,370.25,341.12Zm5.27-5.51h0l.65.63.39-.4-.31.48c.14.13.28.27.47.47h0l0,0,0,0a24,24,0,0,1-6.9,3.24,22.71,22.71,0,0,0-8.37-10.65,23.54,23.54,0,0,1,13.9,6.07Zm-33.37,1.15c.14-.16.29-.3.47-.47l.07-.08.63-.6h.13l.11-.22a23.59,23.59,0,0,1,13.79-6,22.82,22.82,0,0,0-8.24,10.4,33.87,33.87,0,0,1-7.06-2.9l0,0Zm.22,32.76c-.11-.11-.2-.23-.31-.35a34.33,34.33,0,0,1,7.3-2.94c1.73,4.75,4.19,8.46,6.85,10.33a23.46,23.46,0,0,1-13.76-6.94Zm20.27,7a17,17,0,0,0,4.8-5.8,30.4,30.4,0,0,0,1.72,3.95A23.49,23.49,0,0,1,362.64,376.56Zm17.83,7.25,0,0c-.14,0-14.25-4.07-14.45-29.18,6.8-.23,12.79-4.62,14.31-5.82,1.5,1.21,7.4,5.59,14.2,5.76C394.52,378.19,382.06,383.26,380.47,383.81Zm-.29-12.14L388.07,358l.95.55-8.62,14.89-8.18-8.39.79-.77Zm24.4-105.12H381.69v10.9H359.05v46.32h68.17V277.45H404.58Zm-21.79,1.1h20.69v9.8H382.79Zm-22.64,55V296.06l26,5.36v4h14v-4l26-5.36v26.61Zm27.07-18.33v-6.73h11.83v6.73Zm38.9-9.4-26,5.36v-3.79h-14v3.79l-26-5.36V278.55h66ZM183,26.06l5.46,14.56h9.21l-5.17-13.88c14.87,2,22.63,9,22.71,9.08l.93.85V24a5.7,5.7,0,0,0,0-11.33V0l-.93.85c-.1.1-10.62,9.62-30.73,9.62A7.86,7.86,0,0,0,183,26.06Zm37.08-7.72a4.69,4.69,0,0,1-3.94,4.55v-9.1A4.68,4.68,0,0,1,220.05,18.34Zm-24,21.18H189.2l-5-13.33.25,0a60.52,60.52,0,0,1,6.79.38ZM215,34.26c-2.8-2.15-11.91-8.16-26.88-9V11.45c15-.88,24.08-6.89,26.88-9ZM184.45,11.57c.88,0,1.73,0,2.58-.07V25.17c-.85,0-1.7-.06-2.58-.06a6.77,6.77,0,1,1,0-13.54Zm.07,436.71H245v-46.5H184.52Zm1.1-45.4h58.29v44.31H185.62Zm20.12,4.82v26.48l24.77-13.24Zm1.1,1.84,21.33,11.4-21.33,11.4Zm-5.21,28h-5.69v2.26h-3.69v1.1h3.69v2.32h5.69v-2.32h35.65v-1.1H201.63Zm-1.1,4.58H197v-3.49h3.49Zm86.75-118.17a23.12,23.12,0,1,0,23.12,23.12A23.14,23.14,0,0,0,287.28,323.93Zm21.11,16.89L292,345.21a5.09,5.09,0,0,0-1.73-2.23l8.5-14.72A22.09,22.09,0,0,1,308.39,340.82Zm-25.07,6.23a4,4,0,1,1,4,4A4,4,0,0,1,283.32,347.05Zm4-22a21.9,21.9,0,0,1,10.53,2.68l-8.49,14.71a5,5,0,0,0-2-.44,5.07,5.07,0,0,0-5.06,5.07,6.31,6.31,0,0,0,.07.76l-16.41,4.4A22,22,0,0,1,287.28,325Zm-21.12,28.24,16.41-4.39a5.07,5.07,0,0,0,1.72,2.23l-8.49,14.72A22.11,22.11,0,0,1,266.16,353.27Zm21.12,15.79a21.9,21.9,0,0,1-10.53-2.68l8.49-14.71a5,5,0,0,0,2,.44,5.07,5.07,0,0,0,5.06-5.06,4.78,4.78,0,0,0-.08-.77l16.42-4.4a22,22,0,0,1-21.4,27.18ZM111.15,296.49l9.23-24.41H69.07L61.33,251.6l-.14-.36H52.58v1.1h7.85l7.46,19.74h0l6.75,17.84,5.52,14.61a5.09,5.09,0,1,0,7.35,5.08h13a5.07,5.07,0,1,0,.08-1.1H87.51A5.09,5.09,0,0,0,82.46,304a4.87,4.87,0,0,0-1.27.18l-2.89-7.65Zm-5.52,9a4,4,0,1,1-4,4A4,4,0,0,1,105.63,305.46Zm-19.17,3.6a4,4,0,1,1-4-4A4,4,0,0,1,86.46,309.06Zm32.32-35.88-8.39,22.21H77.88l-8.39-22.21ZM291.43,376.36H255.14v48h48V384.83l-8.46-8.47Zm-1.1,1.1v9.87H274.42v-9.87Zm-17,0v9.87H268v-9.87ZM267,423.28V401.82h24.4v21.46Zm35.11,0h-9.62V400.72H265.85v22.56h-9.61V377.46h10.63v11h24.56v-11h2.8l7.83,7.82ZM269.8,406.43h18.7v1.1H269.8Zm0,5.61h18.7v1.1H269.8Zm0,5.61h18.7v1.1H269.8Zm19.33-31.13v-8.24H286v8.24Zm-2-7.14H288v6h-.94ZM391.47,137.82a4.06,4.06,0,0,0-4,4.16v51.46a4.06,4.06,0,0,0,4,4.15h33.28a4.06,4.06,0,0,0,4-4.15V142a4.07,4.07,0,0,0-4-4.16ZM427.61,142v51.46a3,3,0,0,1-2.86,3.05H391.47a3,3,0,0,1-2.85-3.05V142a3,3,0,0,1,2.85-3.06h33.28A3,3,0,0,1,427.61,142Zm-36.53,46.64H424.6l.55,0V144.4H391.08Zm1.1-43.12h31.87v42H392.18Zm17.53-3.36h-3.19V141h3.19ZM406.16,192h3.91v1.1h-3.91Zm-10.53-36h25v-5h-25Zm1.1-3.88H419.5v2.78H396.73Zm12.92,19.65h11v-11h-11Zm1.1-9.85h8.75v8.75h-8.75Zm-15.12,9.85h10.95v-11H395.63Zm1.1-9.85h8.75v8.75h-8.75Zm-.55,13.38H406v1.1h-9.85Zm14,0h9.85v1.1H410.2Zm-14,4.2H406v1.1h-9.85Zm14,0h9.85v1.1H410.2ZM306.8,138.18h63.26v-7H306.8Zm1.1-5.92H369v4.82H307.9Zm46,27.87h16.15V144H353.91Zm1.1-15H369V159H355Zm-24.65,15H346.5V144H330.36Zm1.1-15H345.4V159H331.46Zm-24.66,15H323V144H306.8Zm1.1-15h14V159h-14ZM307.35,164h15v1.1h-15Zm23.56,0h15v1.1h-15Zm23.55,0h15.05v1.1H354.46Zm21.34-39.28H301.06a2,2,0,0,0-2,2v44.21h78.8V126.72A2,2,0,0,0,375.8,124.69Zm.93,45.14h-76.6V126.72a.93.93,0,0,1,.93-.93H375.8a.93.93,0,0,1,.93.93ZM297,119a3.51,3.51,0,0,0-3.51,3.51V183.3a3.51,3.51,0,0,0,3.51,3.51h33l-2.15,9.68h-5.89v1.1h33v-1.1H349l-2.15-9.68h33a3.51,3.51,0,0,0,3.51-3.51V122.48a3.51,3.51,0,0,0-3.51-3.51Zm50.91,77.52H329l2.15-9.68h14.66Zm32-10.78H297a2.41,2.41,0,0,1-2.41-2.41v-6.82h87.69v6.82A2.41,2.41,0,0,1,379.86,185.71Zm2.41-63.23v52.9H294.58v-52.9a2.41,2.41,0,0,1,2.41-2.41h82.87A2.41,2.41,0,0,1,382.27,122.48ZM334,180.71h8.88v1.1H334Zm23.78-99.56h-3.91v2.78l-6.65-6.17L331.52,92.31h3.26v16.21h24.86V92.31h3.26l-5.13-4.76ZM355,82.25h1.71v4.28L355,85Zm-10.7,25.17v-8a2.93,2.93,0,1,1,5.86,0v8Zm14.28-16.21v16.21h-7.32v-8a4,4,0,0,0-8.06,0v8h-7.28V91.21h-1.56l12.89-11.95L360.1,91.21Zm-44.82,24.6h67V62.63h-67Zm1.1-1.1V71.91H379.6v42.8Zm64.78-51v7.08H314.82V63.73Zm-58.69,4.09H317v-1.1h3.9Zm6.25,0h-3.91v-1.1h3.91Zm6.25,0H329.5v-1.1h3.91Zm-76.73,14.6H246.11v-1.1h10.57Zm0,4H246.11v-1.1h10.57Zm41.11.89a3.91,3.91,0,1,0-3.91-3.9A3.91,3.91,0,0,0,297.79,87.34Zm0-6.71A2.81,2.81,0,1,1,295,83.44,2.81,2.81,0,0,1,297.79,80.63Zm-57,8.45A4.16,4.16,0,0,0,245,93.23h60a4.16,4.16,0,0,0,4.16-4.15V77.29A4.17,4.17,0,0,0,305,73.13H245a4.17,4.17,0,0,0-4.16,4.16Zm1.1-11.79A3.06,3.06,0,0,1,245,74.23h60a3.06,3.06,0,0,1,3.06,3.06V89.08A3.07,3.07,0,0,1,305,92.14H245a3.07,3.07,0,0,1-3.06-3.06Zm14.74,28H246.11v-1.1h10.57Zm0,4H246.11v-1.1h10.57Zm41.11,1.35a3.91,3.91,0,1,0-3.91-3.91A3.91,3.91,0,0,0,297.79,110.7Zm0-6.72a2.81,2.81,0,1,1-2.81,2.81A2.81,2.81,0,0,1,297.79,104Zm-57,8a4.16,4.16,0,0,0,4.16,4.15h60A4.16,4.16,0,0,0,309.2,112v-11.8A4.16,4.16,0,0,0,305,96H245a4.16,4.16,0,0,0-4.16,4.15Zm1.1-11.8a3.06,3.06,0,0,1,3.06-3h60a3.06,3.06,0,0,1,3.06,3V112A3.06,3.06,0,0,1,305,115H245a3.06,3.06,0,0,1-3.06-3.05Zm14.74-40.67H246.11v-1.1h10.57Zm0,4H246.11v-1.1h10.57ZM245,70.33h60a4.16,4.16,0,0,0,4.16-4.15V54.38A4.16,4.16,0,0,0,305,50.23H245a4.16,4.16,0,0,0-4.16,4.15v11.8A4.16,4.16,0,0,0,245,70.33Zm-3.06-15.95A3.06,3.06,0,0,1,245,51.33h60a3.06,3.06,0,0,1,3.06,3.05v11.8a3.06,3.06,0,0,1-3.06,3H245a3.06,3.06,0,0,1-3.06-3Zm55.85,10.51A3.91,3.91,0,1,0,293.88,61,3.91,3.91,0,0,0,297.79,64.89Zm0-6.71A2.81,2.81,0,1,1,295,61,2.8,2.8,0,0,1,297.79,58.18Zm92.54,49.21c-7.47,5.22-4.58,14.86-4.55,15l.27.87,6.35-6.34c.61,2.32,1.1,3.92,1.16,4.12l.12.39h10l.11-.39c.07-.2.55-1.8,1.16-4.12l6.36,6.34.27-.87c0-.1,2.91-9.74-4.55-15,.61-3.72.92-7.41.41-9.92-1.35-6.56-8-15.43-8.3-15.81l-.44-.58-.44.58c-.28.38-7,9.25-8.3,15.81C389.4,100,389.71,103.67,390.33,107.39Zm-3.72,13.72c-.47-2.34-1.12-8.61,3.93-12.5.45,2.51,1,5,1.54,7Zm24.11,0-5.49-5.46c.53-2.07,1.09-4.53,1.55-7C411.9,112.54,411.21,118.78,410.72,121.11ZM398.66,82.92a70.58,70.58,0,0,1,5.27,8.55H393.39A70.58,70.58,0,0,1,398.66,82.92ZM391,97.7a23.43,23.43,0,0,1,1.84-5.13h11.63a23,23,0,0,1,1.85,5.13h0c1.25,6.06-2.76,20.08-3.5,22.59H394.5C393.75,117.78,389.75,103.76,391,97.7Zm7.66,6a4,4,0,1,0-4-4A4,4,0,0,0,398.66,103.71Zm0-6.85a2.88,2.88,0,1,1-2.88,2.87A2.88,2.88,0,0,1,398.66,96.86Zm.55,26.27v11.55h-1.1V123.13Zm3.63,0v5.1h-1.1v-5.1Zm-7.26,0v5.1h-1.1v-5.1ZM178.66,27.93h-67V81.11h67Zm-1.1,1.1v7.08H112.79V29ZM112.79,80V37.21h64.77V80Zm6.09-46.89H115V32h3.91Zm6.24,0h-3.9V32h3.9Zm6.25,0h-3.9V32h3.9Zm13.8,15.93a6.76,6.76,0,0,0-6.75,6.75v6.26a6.75,6.75,0,0,0,13.5,0V55.8A6.75,6.75,0,0,0,145.17,49.05Zm5.65,13a5.65,5.65,0,0,1-11.3,0V55.8a5.65,5.65,0,0,1,11.3,0Zm-18-12.46h1.1V68.26h-1.1V59.48H122.66V49.6h1.1v8.78h9.06Zm33.76,0h1.1V68.26h-1.1V59.48H156.43V49.6h1.1v8.78h9.05ZM109.45,366a26.9,26.9,0,1,0-26.9,26.9A26.93,26.93,0,0,0,109.45,366Zm-26.9,25.8a25.8,25.8,0,1,1,25.8-25.8A25.83,25.83,0,0,1,82.55,391.79Zm2.94-31.49h1.1v11.39h-1.1v-5.15H79v5.15h-1.1V360.3H79v5.14h6.47Zm-13.36-.55H66.85v11.94H68v-5.15h4.18a3.4,3.4,0,0,0,0-6.79Zm0,5.69H68v-4.59h4.18a2.3,2.3,0,0,1,0,4.59Zm22.72-5.69H89.58v11.94h1.1v-5.15h4.17a3.4,3.4,0,1,0,0-6.79Zm0,5.69H90.68v-4.59h4.17a2.3,2.3,0,1,1,0,4.59ZM421.66,200.29a26.9,26.9,0,1,0,26.9,26.89A26.92,26.92,0,0,0,421.66,200.29Zm0,52.69a25.8,25.8,0,1,1,25.8-25.8A25.82,25.82,0,0,1,421.66,253Zm-6.06-31.33h-.41a3.66,3.66,0,0,0-3.65,3.66v6.86h1.1v-4.44h5.52v4.44h1.1v-6.86A3.66,3.66,0,0,0,415.6,221.65Zm-3,5v-1.32a2.56,2.56,0,0,1,2.55-2.56h.41a2.56,2.56,0,0,1,2.56,2.56v1.32Zm15.2-4.43h1.1v7l-3.86,3.7-3.86-3.7v-7h1.1v6.56l2.76,2.65,2.76-2.65Zm7.13-.55h-.42a3.66,3.66,0,0,0-3.65,3.66v6.86H432v-4.44h5.52v4.44h1.1v-6.86A3.66,3.66,0,0,0,435,221.65Zm-3,5v-1.32a2.56,2.56,0,0,1,2.55-2.56H435a2.56,2.56,0,0,1,2.55,2.56v1.32Zm-23.52-4.43h1.1v6.86a3.66,3.66,0,0,1-3.65,3.66h-.42a3.66,3.66,0,0,1-3.65-3.66H403a2.56,2.56,0,0,0,2.55,2.56h.42a2.56,2.56,0,0,0,2.55-2.56ZM210.1,41A26.9,26.9,0,1,0,237,67.91,26.93,26.93,0,0,0,210.1,41Zm0,52.7a25.8,25.8,0,1,1,25.8-25.8A25.84,25.84,0,0,1,210.1,93.71Zm15.4-23a3.39,3.39,0,0,1-3.36,3.44h-4.76V73.06h4.76a2.3,2.3,0,0,0,0-4.6h-2a3.4,3.4,0,0,1,0-6.8H225v1.1h-4.77a2.3,2.3,0,0,0,0,4.6h2A3.36,3.36,0,0,1,225.5,70.71Zm-27.44-9h4.76v1.1h-4.76A2.26,2.26,0,0,0,195.8,65V70.8a2.26,2.26,0,0,0,2.26,2.26h4.76v1.09h-4.76a3.36,3.36,0,0,1-3.36-3.35V65A3.37,3.37,0,0,1,198.06,61.66Zm16.37,9a3.38,3.38,0,0,1-3.35,3.44h-4.77V73.06h4.77a2.3,2.3,0,0,0,0-4.6h-2a3.4,3.4,0,0,1,0-6.8h4.76v1.1h-4.76a2.3,2.3,0,0,0,0,4.6h2A3.35,3.35,0,0,1,214.43,70.71ZM326.71,316.19a26.9,26.9,0,1,0-26.9-26.89A26.93,26.93,0,0,0,326.71,316.19Zm0-52.69a25.8,25.8,0,1,1-25.8,25.8A25.83,25.83,0,0,1,326.71,263.5Zm-13.33,29.05v-6a3.48,3.48,0,0,1,3.48-3.48h5v1.1h-5a2.38,2.38,0,0,0-2.38,2.38v6a2.39,2.39,0,0,0,2.38,2.38h5V296h-5A3.48,3.48,0,0,1,313.38,292.55ZM327,296.26l1.05.32,1.4-4.46h4l-1.3,4.14,1.06.32,1.39-4.46h2.24V291H335l1.07-3.44h3.42v-1.1h-3.07l1.29-4.14-1.06-.33-1.39,4.47h-4l1.29-4.14-1-.33-1.39,4.47H326.7v1.1h3L328.67,291h-3.43v1.1h3.08Zm3.86-8.68h4L333.85,291h-4ZM100.12,207.12a26.9,26.9,0,1,0-26.9-26.89A26.93,26.93,0,0,0,100.12,207.12Zm0-52.69a25.8,25.8,0,1,1-25.8,25.8A25.83,25.83,0,0,1,100.12,154.43Zm1.75,30.78h-1.1v-9.92l5,4.05,5-4.05v9.92h-1.1V177.6l-3.89,3.16-3.89-3.16Zm18.16.55h-7.17V175.24H114v9.42H120Zm-37.52-.55h-1.1v-10h1.1v4.44H88v-4.44h1.1v10H88v-4.43H82.51Zm11.9-9.42H91.64v-1.1h6.63v1.1H95.51v9.42h-1.1ZM321,366.28c-2.41,0-4.36,1.46-4.36,3.25s1.67,3,3.81,3.22v6.7h-1.65v1.1h1.65v1h-3v1.1h4.07v-9.91c2.14-.2,3.8-1.56,3.8-3.22S323.41,366.28,321,366.28Zm0,5.41c-1.77,0-3.26-1-3.26-2.16s1.49-2.15,3.26-2.15,3.25,1,3.25,2.15S322.77,371.69,321,371.69Zm9.08-6.3a12.75,12.75,0,0,0-9.08-3.77h0a12.85,12.85,0,1,0,9.09,3.77Zm-.78,17.38a11.75,11.75,0,1,1-8.31-20h0a11.75,11.75,0,0,1,8.3,20Zm9.26,8.48-5-5A17.26,17.26,0,0,0,321,357.19h0a17.27,17.27,0,1,0,11.8,29.86l5,5-2.56,2.57,16.61,16.61,5.91-5.91-16.61-16.61Zm-29-5.34a16.19,16.19,0,0,1,0-22.88A16,16,0,0,1,321,358.29h0a16.17,16.17,0,0,1,11.43,27.61A16.19,16.19,0,0,1,309.57,385.91Zm42.27,23.75L336.78,394.6l4.36-4.36,15.05,15.06ZM7.58,268.48l-3,5.88,5.2,5.19,5.87-3,3.22,1.34L21,284.17h7.35l2.06-6.24,3.22-1.34,1.7.86L45,287.17a5.14,5.14,0,0,0,7.27-7.27l-9.72-9.72-.86-1.7,1.34-3.22,6.24-2.06v-7.35l-6.24-2.06-1.34-3.22,3-5.88-5.19-5.19-5.88,3-3.22-1.34-2.06-6.24H21l-2.06,6.24-3.22,1.34-5.87-3-5.2,5.19,3,5.88-1.34,3.22L0,255.85v7.35l6.24,2.06Zm43.93,17.91a4,4,0,0,1-5.71,0L26.87,267.46l-.23-.23-4.35,1.36-6.44-6.44.71-3.47L23,265.1l5.47-1.77,1.78-5.47-6.43-6.42,3.47-.71,6.44,6.44-1.36,4.35,19.16,19.16A4,4,0,0,1,51.51,286.39ZM36.25,263.86l-2.65-2.65L35,256.86l-7.33-7.33-6.05,1.24L29,258.16l-1.39,4.29-4.3,1.4-7.39-7.39-1.23,6.05L22,269.84l4.35-1.36L29,271.13a12.42,12.42,0,1,1,7.27-7.27ZM1.1,256.65l6-2,1.73-4.16L6,244.91,10,240.84l5.61,2.83,4.16-1.73,2-6h5.76l2,6,4.16,1.73,5.61-2.83,4.07,4.07-2.83,5.61,1.73,4.16,6,2v5.75l-6,2-1.61,3.87-3.53-3.53a13.28,13.28,0,0,0,1-5.18A13.5,13.5,0,1,0,24.65,273a13.28,13.28,0,0,0,5.18-1l3.53,3.53-3.87,1.61-2,6H21.77l-2-6-4.16-1.73L10,278.21,6,274.14l2.83-5.61-1.73-4.16-6-2Zm179,112.58h-67v53.18h67Zm-1.1,1.1v7.08H114.19v-7.08Zm-64.77,51v-42.8H179v42.8Zm6.09-46.89h-3.91v-1.1h3.91Zm6.24,0h-3.9v-1.1h3.9Zm6.25,0h-3.9v-1.1h3.9Zm30.24,31h-6.78v-1.83h6.57v-7.52h-6.57v-2.93h-9.11v-1.83h6.57v-7.52H139.46v7.52H146v1.83h-9.11v2.93h-6.56v7.52h6.56v1.83h-6.77v2.92h-3.35V416h7.8v-7.65h-3.35v-1.82h9.49v1.82h-3.35V416h7.79v-7.65h-3.34v-1.82h9.49v1.82H148V416h7.79v-7.65h-3.34v-1.82h9.49v1.82h-3.35V416h7.79v-7.65H163Zm-22.45-20.53h12v5.32h-12Zm-7.07,30h-5.6v-5.45h5.6Zm10.58,0h-5.59v-5.45h5.59Zm10.59,0h-5.59v-5.45h5.59Zm7-12.4h-12v-5.32h12Zm-30.25-5.32h12v5.32h-12Zm6.56,6.42h6.57v-7.52H138v-1.83h17.12v1.83h-6.56v7.52h6.56v1.83H138Zm27.24,11.3h-5.59v-5.45h5.59ZM60,125.53l12.9-12.91L54.34,94.11,39.92,92.59,41.44,107ZM53.84,95.16,71.3,112.62,60,124,42.49,106.51,41.15,93.82Zm-8.68,6.19a2.49,2.49,0,0,0,3.52,0,2.49,2.49,0,0,0,0-3.52,2.49,2.49,0,0,0-3.52,3.52Zm.78-2.74a1.39,1.39,0,1,1,0,2A1.39,1.39,0,0,1,45.94,98.61ZM76.69,72.42a7,7,0,0,0,6.23-3.84l11.71,4.81a6.84,6.84,0,0,0-.34,2.13,7,7,0,1,0,.76-3.15l-11.71-4.8a7.2,7.2,0,0,0,.33-2.14,7,7,0,0,0-1.41-4.19l8.48-7.5a7.06,7.06,0,1,0-.73-.83l-8.48,7.5a7,7,0,1,0-4.84,12Zm24.58-2.78a5.88,5.88,0,1,1-5.88,5.88A5.88,5.88,0,0,1,101.27,69.64ZM95.58,42.83a5.89,5.89,0,1,1-5.89,5.89A5.89,5.89,0,0,1,95.58,42.83ZM76.69,59.55a5.89,5.89,0,1,1-5.88,5.88A5.88,5.88,0,0,1,76.69,59.55Zm229,354.16,12.06,4.5,4.51,12.07,14.86-31.43Zm2.82-.12,24.83-11.74L318,417.15Zm10.31,4.33,15.29-15.29-11.73,24.83ZM245,35.86a13.21,13.21,0,1,0-13.21-13.2A13.21,13.21,0,0,0,245,35.86Zm0-25.31a12.11,12.11,0,1,1-12.11,12.11A12.12,12.12,0,0,1,245,10.55ZM229.59,30.72,226.92,36l4.73,4.73,5.3-2.67,2.86,1.19,1.86,5.63h6.69l1.86-5.63,2.86-1.19,5.3,2.67L263.11,36l-2.67-5.3,1.19-2.86L267.26,26V19.31l-5.63-1.86-1.19-2.86,2.67-5.3-4.73-4.73-5.3,2.67L250.22,6,248.36.41h-6.69L239.81,6,237,7.23l-5.3-2.67-4.73,4.73,2.67,5.3-1.19,2.86-5.63,1.86V26l5.63,1.86ZM223.87,20.1l5.36-1.77,1.57-3.78-2.54-5,3.61-3.61,5,2.54,3.79-1.57,1.76-5.36h5.11l1.77,5.36,3.78,1.57,5-2.54,3.61,3.61-2.54,5,1.57,3.78,5.36,1.77v5.11L260.8,27l-1.57,3.78,2.54,5-3.61,3.61-5-2.54-3.78,1.57-1.77,5.36h-5.11l-1.76-5.36-3.79-1.57-5,2.54-3.61-3.61,2.54-5L229.23,27l-5.36-1.77Zm19.5,8.21-1-.4L246.66,17l1,.4Zm5.95-2.76,2.9-2.89-2.9-2.9.78-.78,3.67,3.68-3.67,3.67Zm-9.38.78-3.68-3.67L239.94,19l.77.78-2.89,2.9,2.89,2.89ZM261.6,325.88H239.9l-6.62,7.45H198.83v38.76H261.6ZM260.5,371H199.93V334.43h33.84l6.62-7.45H260.5Zm36.12-82.29H289V278.16c0-.45,0-.9,0-1.35,0-4,.06-8.19-2.45-10.73-1.56-1.56-3.89-2.33-7.13-2.33s-5.46.77-7,2.34c-2.57,2.58-2.56,6.88-2.55,10.67v1.39c0,2.35,0,8.67,0,10.55h-7.64v32h34.43Zm-25.69-10.54v-1.4c0-3.76,0-7.64,2.23-9.9,1.35-1.35,3.39-2,6.24-2s5,.66,6.35,2c2.19,2.21,2.16,6.14,2.13,9.95,0,.45,0,.9,0,1.35V288.7H270.93C270.92,286.82,270.91,280.51,270.93,278.16Zm24.59,41.46H263.29V289.8h32.23Zm-5.2-25H268.49v9.18h21.83Zm-1.1,8.08H269.59v-7h19.63Zm-15.32-1.63h-1.1v-3.72h1.1Zm4,0h-1.1v-3.72h1.1Zm4,0h-1.1v-3.72H282Zm4,0h-1.1v-3.72H286ZM127.62,224l.92,16.21,11.23-2.67,2.81,17.79,32.58-12.69-.18-.5c0-.12-4.27-12.18-1-19.2,4.17-9,8-27.44.64-38.69-4.3-6.55-11.75-9.73-22.09-9.45-15.32.41-26,10-26.52,23.84,0,.16-1.59,15.58-2.81,18.62s-2.48,5.9-2.49,5.93l-.31.69.75.08A42.29,42.29,0,0,0,127.62,224ZM122,223c.45-1,1.31-3,2.2-5.25,1.28-3.18,2.82-18.28,2.89-19,.52-13.26,10.75-22.43,25.45-22.82,9.94-.27,17.06,2.75,21.15,9,7.14,10.87,3.34,28.84-.73,37.61-3.1,6.67,0,17.09.8,19.53l-30.33,11.81-2.78-17.62-11.1,2.64-.92-16-.56,0A44.71,44.71,0,0,1,122,223Zm10.07-20.64v-3.68a4.2,4.2,0,0,1,4.19-4.19h3.63v1.1h-3.63a3.09,3.09,0,0,0-3.09,3.09v3.68a3.08,3.08,0,0,0,3.09,3.08h3.63v1.1h-3.63A4.19,4.19,0,0,1,132.09,202.32Zm13.31,4.18a4.19,4.19,0,0,0,4.19-4.18v-3.68a4.19,4.19,0,1,0-8.37,0v3.68A4.18,4.18,0,0,0,145.4,206.5Zm-3.08-7.86a3.09,3.09,0,1,1,6.17,0v3.68a3.09,3.09,0,0,1-6.17,0Zm18.38,3.68v-3.68a4.2,4.2,0,0,0-4.19-4.19h-4.18V206.5h4.18A4.19,4.19,0,0,0,160.7,202.32Zm-7.28-6.77h3.09a3.09,3.09,0,0,1,3.09,3.09v3.68a3.08,3.08,0,0,1-3.09,3.08h-3.09Zm17.84,10.95h-7.83V194.45h7.83v1.1h-6.73v4.38h6.73V201h-6.73v4.37h6.73ZM169.9,363.56h21.37l5.8-40.15,2-7.11-8-9.19H170.12l-8,9.19,2,7.11ZM166.59,333h28l-2.28,15.81H168.88Zm23.72,29.45H170.85L169,349.92h23.09Zm4.42-30.55h-28.3l-1.16-8.07H195.9Zm-29.68-9.17L163.44,317h34.28l-1.6,5.76Zm5.57-14.53h19.92l6.7,7.67H163.93Zm10,27.37a5.34,5.34,0,1,0,5.34,5.34A5.34,5.34,0,0,0,180.58,335.58Zm0,9.57a4.24,4.24,0,1,1,4.24-4.23A4.24,4.24,0,0,1,180.58,345.15ZM99.75,230.48a16.76,16.76,0,1,0,16.76,16.75A16.77,16.77,0,0,0,99.75,230.48Zm8.29,30-.8-1.38-.95.55.8,1.39a15.42,15.42,0,0,1-6.79,1.81v-4H99.2v4a15.38,15.38,0,0,1-6.79-1.81l.8-1.39-.95-.55-.8,1.38a15.72,15.72,0,0,1-5-5l1.38-.79-.55-1-1.39.81a15.6,15.6,0,0,1-1.81-6.8h4v-1.1h-4a15.59,15.59,0,0,1,1.81-6.79l1.39.8.55-.95-1.38-.8a15.8,15.8,0,0,1,5-5l.8,1.38.95-.55-.8-1.4a15.55,15.55,0,0,1,6.79-1.8v4h1.1v-4a15.42,15.42,0,0,1,6.79,1.81l-.72,1.25.95.55L108,234a15.8,15.8,0,0,1,5,5l-1.38.8.55.95,1.39-.8a15.59,15.59,0,0,1,1.81,6.79h-4v1.1h4a15.6,15.6,0,0,1-1.81,6.8l-1.39-.81-.55,1,1.38.79A15.72,15.72,0,0,1,108,260.49Zm3-31.73,1.87-3.24,1.63.94,3.06-5.31-4.2-2.43L110.34,224,112,225l-1.87,3.24a21.59,21.59,0,0,0-8.39-2.54v-3.84h3.23V215.1H94.56v6.73h3.23v3.84a21.59,21.59,0,0,0-8.39,2.54L87.53,225l1.63-.94-3.07-5.31-4.21,2.43L85,226.46l1.63-.94,1.87,3.24a21.66,21.66,0,1,0,22.6,0Zm2.76-8.54,2.3,1.33-2,3.41-2.3-1.33Zm-30.42,1.33,2.3-1.33,2,3.41L85.35,225ZM98,216.2H99.2v4.53H98Zm2.32,0h1.22v4.53H100.3Zm3.54,4.53h-1.22V216.2h1.22Zm-8.18-4.53h1.22v4.53H95.66Zm3.23,5.63h1.72v3.76l-.86,0-.86,0Zm.86,46a20.57,20.57,0,1,1,20.56-20.57A20.59,20.59,0,0,1,99.75,267.8Zm4.65-33-4.15,9.84a2.73,2.73,0,0,0-.5,0,2.67,2.67,0,1,0,1.51.48l4.16-9.84Zm-4.65,14a1.56,1.56,0,1,1,1.55-1.56A1.55,1.55,0,0,1,99.75,248.79ZM8.18,182.15h-4v-1.1h4Zm6.42,0h-4v-1.1h4Zm6.41,0H17v-1.1h4Zm-1.2,11.57H7v-1.1H19.81Zm17.65,0H24.62v-1.1H37.46ZM19.81,212.25H7v-1.1H19.81Zm17.65,0H24.62v-1.1H37.46ZM15.4,198.8h7.49v1.1H15.4Zm11.5,0H54v1.1H26.9Zm-7.62,24.7h7.48v1.1H19.28Zm44.51,18.78.36.15.18-.05c.18,0,17.78-5.17,17.49-36.14v-.55h-.55a24.91,24.91,0,0,1-11.71-3.35v-25.5H.81v54.57H51.7C56.87,240.33,63.72,242.26,63.79,242.28Zm.42-1-.07,0c-.17-.05-16.8-4.73-17-34.37,8.07-.23,15.18-5.51,16.86-6.85,1.65,1.34,8.66,6.61,16.73,6.77C80.8,234.78,66,240.67,64.21,241.27ZM68.46,178v7.29H1.91V178ZM1.91,230.32v-44H68.46v15.39a33.14,33.14,0,0,1-4.1-2.83l-.36-.31-.36.3A34.3,34.3,0,0,1,52.06,205H24.62v1.1H46v.26a66.94,66.94,0,0,0,.86,11H16.6v1.1H47.09a48.34,48.34,0,0,0,1.23,5.07H30.77v1.1h17.9a37.41,37.41,0,0,0,2.42,5.72Zm61.77-25.91a35.76,35.76,0,0,1-12.61,5.4l-.47.1,0,.48c1.1,19.92,10.44,25.82,13.27,27.15l.25.11.24-.12c3.57-1.84,12-8.18,12.88-27.19l0-.48-.47-.09a34.7,34.7,0,0,1-12.53-5.36l-.31-.2Zm12.47,6.35c-1,18.05-9.14,24.09-12,25.66C61.2,235,52.91,229.19,51.75,210.8A36.83,36.83,0,0,0,64,205.53,35.78,35.78,0,0,0,76.15,210.76ZM25.43,308.34h1.75a4.82,4.82,0,0,0,9.31,0h1.76v1.91h1.1v-3H36.67c0-.06,0-.11,0-.16v-.94H38.8V305H36.68v-1.1h2.67v-3h-1.1v1.91H36.68v-1a4.86,4.86,0,0,0-3-4.49,2.25,2.25,0,0,1,.64-1.16,1.35,1.35,0,0,1,1.08-.28l.11-1.1a2.46,2.46,0,0,0-1.9.54,3.27,3.27,0,0,0-1,1.72,5.82,5.82,0,0,0-.73-.07,5.82,5.82,0,0,0-.73.07,3.29,3.29,0,0,0-1-1.72,2.4,2.4,0,0,0-1.9-.54l.12,1.1a1.33,1.33,0,0,1,1.07.28,2.12,2.12,0,0,1,.64,1.16A4.86,4.86,0,0,0,27,301.8v1H25.43v-1.91h-1.1v3H27V305H24.88v1.1H27v.94c0,.05,0,.1,0,.16H24.33v3h1.1Zm6.41,2.48a3.74,3.74,0,0,1-3.75-3.74v-4.35h7.49v4.35A3.74,3.74,0,0,1,31.84,310.82Zm0-12.76a3.74,3.74,0,0,1,3.72,3.57H28.11A3.75,3.75,0,0,1,31.84,298.06Zm1.72,2.59h-1.1v-1.24h1.1Zm-2.35,0h-1.1v-1.24h1.1ZM43.64,316l5,5-2.57,2.56,16.61,16.61,5.91-5.9L52,317.59l-2.57,2.57-5-5A17.26,17.26,0,0,0,31.84,286.1h0a17.27,17.27,0,0,0-12.22,29.49h0a17.25,17.25,0,0,0,24,.36ZM67,334.21l-4.36,4.35L47.61,323.5,52,319.15ZM20.4,291.93a16.09,16.09,0,0,1,11.44-4.74h0A16.18,16.18,0,1,1,20.4,314.81h0A16.19,16.19,0,0,1,20.4,291.93Zm11.44,24.28a12.84,12.84,0,1,0,0-25.68h0a12.84,12.84,0,1,0,0,25.68Zm-8.31-21.15a11.7,11.7,0,0,1,8.31-3.43h0a11.73,11.73,0,1,1-8.31,3.43ZM348,223l-8.59,10.5,18.43,18.67,18.44-18.67-8.6-10.5Zm9.84,11h5.14l-5.14,15.61L352.65,234Zm-4.93-1.1,4.93-8.3,4.93,8.3h-9.86Zm5.9-8.82h7.82l-3,8.1Zm-6.75,8.1-3-8.1h7.82Zm-.91.72h-9.84l6.77-8.28ZM346,234h5.5l5.05,15.31L341.41,234Zm18.1,0h10.08l-15.12,15.31Zm5.5-1.1h-5.11l3.07-8.28,6.78,8.28Zm21.69-27.52h-67v53.18h67Zm-1.1,1.1v7.08H325.4v-7.08Zm-64.78,51v-42.8h64.78v42.8Zm6.09-46.89h-3.9v-1.1h3.9Zm6.25,0h-3.9v-1.1h3.9Zm6.25,0h-3.9v-1.1H344Zm-210,80.3h-6.86v6.86H134Zm-1.1,5.76h-4.66v-4.66h4.66Zm12.28-5.76h-6.86v6.86h6.86Zm-1.1,5.76h-4.66v-4.66h4.66Zm23.45-5.76h-18v6.86h18Zm-1.1,5.76H150.6v-4.66h15.84Zm12.28-5.76h-6.86v6.86h6.86Zm-1.1,5.76H173v-4.66h4.66Zm12.28-5.76H183v6.86h6.87Zm-1.1,5.76h-4.67v-4.66h4.67Zm12.27-5.76h-6.86v6.86h6.86ZM200,296.6h-4.66v-4.66H200ZM134,281h-6.86v6.87H134Zm-1.1,5.77h-4.66v-4.67h4.66ZM145.19,281h-6.86v6.87h6.86Zm-1.1,5.77h-4.66v-4.67h4.66ZM156.37,281H149.5v6.87h6.87Zm-1.1,5.77H150.6v-4.67h4.67ZM167.54,281h-6.86v6.87h6.86Zm-1.1,5.77h-4.66v-4.67h4.66ZM178.72,281h-6.86v6.87h6.86Zm-1.1,5.77H173v-4.67h4.66ZM189.9,281H183v6.87h6.87Zm-1.1,5.77h-4.67v-4.67h4.67ZM134,271.21h-6.86v6.86H134Zm-1.1,5.77h-4.66v-4.67h4.66Zm12.28-5.77h-6.86v6.86h6.86Zm-1.1,5.77h-4.66v-4.67h4.66Zm12.28-5.77H149.5v6.86h6.87Zm-1.1,5.77H150.6v-4.67h4.67Zm12.27-5.77h-6.86v6.86h6.86Zm-1.1,5.77h-4.66v-4.67h4.66Zm12.28-5.77h-6.86v6.86h6.86Zm-1.1,5.77H173v-4.67h4.66Zm12.28-5.77H183v6.86h6.87ZM188.8,277h-4.67v-4.67h4.67Zm12.27-5.77h-6.86V285h6.86Zm-1.1,12.7h-4.66v-11.6H200Zm5.78-17.37H165.13v-1.07a1.21,1.21,0,0,1,1.32-1.06h5.7a2.42,2.42,0,0,0,2.42-2.42v-.11a2.42,2.42,0,0,0-2.42-2.42H156.07a1.32,1.32,0,0,1-1.32-1.32V258a1.32,1.32,0,0,1,1.32-1.32h6.64a2.43,2.43,0,0,0,2.42-2.42V252H164v2.25a1.32,1.32,0,0,1-1.32,1.32h-6.64a2.42,2.42,0,0,0-2.42,2.42v.11a2.43,2.43,0,0,0,2.42,2.42h16.08a1.32,1.32,0,0,1,1.32,1.32V262a1.32,1.32,0,0,1-1.32,1.32h-5.7a2.31,2.31,0,0,0-2.42,2.16v1.07H122.48v35.84h83.27Zm-1.1,34.74H123.58V267.64h81.07Zm28.66,17.22a7.09,7.09,0,0,0,7.08-7.08V271.78a7.09,7.09,0,0,0-7.08-7.08H218.79a7.08,7.08,0,0,0-7.07,7.08v39.64a7.08,7.08,0,0,0,7.07,7.08Zm6-9.56H212.82V273.31h26.47Zm-20.5-43.14h14.52a6,6,0,0,1,6,6v.43H212.82v-.43A6,6,0,0,1,218.79,265.8Zm-6,45.62V310h26.47v1.38a6,6,0,0,1-6,6H218.79A6,6,0,0,1,212.82,311.42Zm15.92-41.86h-5.38v-1.1h5.38Zm-.93,44.69H224.3v-1.1h3.51Zm-6.88-36.41h-5.85v5.86h5.85Zm-1.1,4.76h-3.65v-3.66h3.65Zm9.15-4.76h-5.86v5.86H229Zm-1.1,4.76h-3.66v-3.66h3.66Zm9.14-4.76h-5.85v5.86H237Zm-1.09,4.76h-3.66v-3.66h3.66Zm-15,2.89h-5.85v5.85h5.85Zm-1.1,4.75h-3.65v-3.65h3.65Zm9.15-4.75h-5.86v5.85H229Zm-1.1,4.75h-3.66v-3.65h3.66Zm9.14-4.75h-5.85v5.85H237Zm-1.09,4.75h-3.66v-3.65h3.66Zm-15,8.74v-5.85h-5.85V299Zm-4.75-4.75h3.65v3.65h-3.65Zm12.8-1.1h-5.86V299H229Zm-1.1,4.75h-3.66v-3.65h3.66Zm9.14,2.89h-5.85v5.86H237Zm-1.09,4.76h-3.66v-3.66h3.66Zm11.13,13h4.29a3.49,3.49,0,0,0,3.48-3.49V276.35l-5.63-11.89-5.62,11.89V315A3.49,3.49,0,0,0,247.06,318.5Zm4.29-1.1h-4.29a2.38,2.38,0,0,1-2.38-2.39v-2.53h9V315A2.39,2.39,0,0,1,251.35,317.4Zm2.06-41.48H245l2.85-6h2.72Zm-3,1.1v34.36h-2.31V277Zm1.1,0h2.27v34.36h-2.27ZM247,277v34.36h-2.27V277ZM250,268.8h-1.67l.83-1.77ZM128.6,112.88h-4.4v-2.73a9.42,9.42,0,0,0-6.37-8.89,5.5,5.5,0,0,1,1.61-3.21,3.44,3.44,0,0,1,2.65-.71l.12-1.09a4.47,4.47,0,0,0-3.48,1,6.54,6.54,0,0,0-2,3.75,9.65,9.65,0,0,0-2-.2,9.8,9.8,0,0,0-2,.2,6.49,6.49,0,0,0-2-3.75,4.45,4.45,0,0,0-3.47-1l.11,1.09a3.42,3.42,0,0,1,2.65.71,5.56,5.56,0,0,1,1.62,3.21,9.42,9.42,0,0,0-6.37,8.89v2.73H101v-6.33h-1.1V114h5.5v3.43h-5v1.1h5V121a9.1,9.1,0,0,0,0,.91H99.91v7.43H101V123h4.62A9.39,9.39,0,0,0,124,123h4.62v6.33h1.1v-7.43h-5.55a9.08,9.08,0,0,0,0-.91v-2.52h5v-1.1h-5V114h5.5v-7.43h-1.1Zm-13.8-11a8.3,8.3,0,0,1,8.3,8.29v.22H106.51v-.22A8.3,8.3,0,0,1,114.8,101.86Zm0,27.47a8.31,8.31,0,0,1-8.29-8.3v-9.56H123.1V121A8.31,8.31,0,0,1,114.8,129.33Zm3-21.56h-1.1v-2.55h1.1Zm-4.84,0h-1.09v-2.55h1.09Zm36.28-21.88H80.4a6,6,0,0,0-5.92,6v47.79H69.1V145c0,3,3.63,5.39,8.08,5.39h75.25c4.45,0,8.07-2.42,8.07-5.39v-5.39h-5.37V91.85A6,6,0,0,0,149.21,85.89Zm-73.63,6A4.84,4.84,0,0,1,80.4,87h68.81A4.85,4.85,0,0,1,154,91.85v47.79H75.58Zm83.82,48.89V145c0,2.37-3.12,4.29-7,4.29H77.18c-3.85,0-7-1.92-7-4.29v-4.29h89.2ZM149.21,89.69H80.4a2.15,2.15,0,0,0-2.13,2.16V137h73.07V91.85A2.15,2.15,0,0,0,149.21,89.69Zm1,46.16H79.37v-44a1,1,0,0,1,1-1.06h68.81a1,1,0,0,1,1,1.06Zm-28.85,9.73H108.22v-1.1h13.17Zm105.25,63.09,1,.41-9.59,24.26-1-.41Zm6.54,4.64,7.7,7.7-7.7,7.7-.78-.78,6.93-6.92-6.93-6.93Zm-20.87.77L205.39,221l6.92,6.92-.78.78-7.7-7.7,7.7-7.7Zm44.26-16.58H188.14a2.13,2.13,0,0,0-2.12,2.15v44.86H258.7V199.65A2.14,2.14,0,0,0,256.57,197.5Zm1,45.91H187.12V199.65a1,1,0,0,1,1-1.05h68.43a1,1,0,0,1,1,1.05Zm10.21,9.14v-5.36h-5.34V199.65a5.92,5.92,0,0,0-5.9-5.93H188.14a5.92,5.92,0,0,0-5.89,5.93v47.54H176.9v5.36c0,2.95,3.6,5.36,8,5.36h74.85C264.21,257.91,267.81,255.5,267.81,252.55Zm-84.47-52.9a4.83,4.83,0,0,1,4.8-4.83h68.43a4.82,4.82,0,0,1,4.8,4.83v47.54h-78ZM178,252.55v-4.26h88.71v4.26c0,2.35-3.11,4.26-6.93,4.26H184.93C181.11,256.81,178,254.9,178,252.55Zm37.81-.55h13.1v1.1h-13.1Zm101,97.32a5.13,5.13,0,0,0,7.25,0l8.39-8.38a5.37,5.37,0,0,0,.67-.84,5.51,5.51,0,0,0,.85-.68l8.38-8.39a5.13,5.13,0,0,0,0-7.25l-2.14-2.14a5.12,5.12,0,0,0-7.25,0L324.56,330a5.37,5.37,0,0,0-.67.84,5,5,0,0,0-.85.68l-8.38,8.39a5.13,5.13,0,0,0,0,7.25Zm16.93-26.91a4,4,0,0,1,5.69,0l2.15,2.15a4,4,0,0,1,0,5.69l-8.39,8.39a4,4,0,0,1-5.69,0l-2.15-2.15a3.8,3.8,0,0,1-.72-1l1.18-1.18a1.1,1.1,0,0,1,.14-.09,2.32,2.32,0,0,0,.6,1.08l2.15,2.15a2.33,2.33,0,0,0,3.29,0l8.38-8.39a2.32,2.32,0,0,0,0-3.29l-2.14-2.14a2.38,2.38,0,0,0-3.29,0l-6.69,6.69a5.14,5.14,0,0,0-2.2-.21Zm-9.92,13.88a5.1,5.1,0,0,0,.75,1l2.15,2.15a5,5,0,0,0,1,.75l-6.4,6.4a1.24,1.24,0,0,1-1.73,0l-2.15-2.15a1.22,1.22,0,0,1-.35-.87,1.19,1.19,0,0,1,.35-.86ZM327,334a1.12,1.12,0,0,1,.51.28l2.15,2.15a1.22,1.22,0,0,1,.3.5,1.23,1.23,0,0,1-.51-.29l-2.15-2.15A1.25,1.25,0,0,1,327,334Zm5.42-.33-2.15-2.15a5,5,0,0,0-1-.75l6.4-6.4a1.26,1.26,0,0,1,1.73,0l2.15,2.15a1.24,1.24,0,0,1,0,1.73l-6.4,6.4A5.1,5.1,0,0,0,332.44,333.69Zm-17,7,8.39-8.38a4,4,0,0,1,5.69,0l2.15,2.15a3.8,3.8,0,0,1,.72,1l-1.18,1.18a1.1,1.1,0,0,1-.14.09,2.32,2.32,0,0,0-.6-1.08l-2.15-2.15a2.33,2.33,0,0,0-3.29,0l-8.38,8.39a2.32,2.32,0,0,0,0,3.28l2.14,2.15a2.33,2.33,0,0,0,3.29,0l6.69-6.69a5.28,5.28,0,0,0,1.57.27c.21,0,.42,0,.63-.06l-7.69,7.69a4,4,0,0,1-5.69,0l-2.15-2.15a4,4,0,0,1,0-5.7ZM91,320.9a5.94,5.94,0,1,0,5.93,5.93A5.94,5.94,0,0,0,91,320.9Zm0,10.77a4.84,4.84,0,1,1,4.83-4.84A4.84,4.84,0,0,1,91,331.67Zm10.58-3.08v-3.52l-2.68-.88-.44-1.07,1.27-2.52-2.49-2.49-2.52,1.27-1.07-.45-.89-2.68H89.19l-.88,2.68-1.08.45-2.52-1.27-2.49,2.49,1.27,2.52-.44,1.07-2.68.88v3.52l2.68.89.44,1.07-1.27,2.52,2.49,2.49,2.52-1.27,1.08.44.88,2.68h3.52l.89-2.68,1.07-.44,2.52,1.27,2.49-2.49-1.27-2.52.44-1.07Zm-3.19,4.26L97,334.22l-2.26-1.14-2,.83-.79,2.4H90l-.79-2.4-2-.83-2.26,1.14-1.37-1.37,1.14-2.26-.83-2-2.4-.79v-1.93l2.4-.8.83-2-1.14-2.26,1.37-1.36,2.26,1.14,2-.83.79-2.41h1.94l.79,2.41,2,.83L97,319.45l1.37,1.36-1.14,2.26.83,2,2.4.8v1.93l-2.4.79-.83,2Zm93.8-159.52v4.47L195.7,179l.67,1.61-1.69,3.35,3.16,3.16,3.35-1.69,1.61.67,1.18,3.56h4.47l1.17-3.56,1.61-.67,3.35,1.69,3.16-3.16-1.68-3.35.66-1.61,3.57-1.18v-4.47l-3.57-1.17-.66-1.61,1.68-3.35L214.58,164l-3.35,1.68-1.61-.66-1.17-3.56H204l-1.18,3.56-1.61.66L197.84,164l-3.16,3.16,1.69,3.35-.67,1.61Zm3.88-5.92,2-2,3.09,1.55,2.54-1.05,1.08-3.28h2.88l1.09,3.28,2.54,1.05,3.09-1.55,2,2-1.55,3.1L215.9,173l3.29,1.09V177l-3.29,1.08-1.05,2.54,1.55,3.09-2,2-3.09-1.56-2.54,1.05-1.09,3.29h-2.88l-1.08-3.29-2.54-1.05-3.09,1.56-2-2,1.56-3.09-1.05-2.54L193.24,177v-2.88l3.29-1.09,1.05-2.53Zm10.19,14.85a6.69,6.69,0,1,0-6.69-6.69A6.7,6.7,0,0,0,206.21,182.26Zm0-12.28a5.59,5.59,0,1,1-5.59,5.59A5.6,5.6,0,0,1,206.21,170Zm0,9.86a4.28,4.28,0,1,0-4.27-4.27A4.28,4.28,0,0,0,206.21,179.84Zm0-7.45a3.18,3.18,0,1,1-3.17,3.18A3.19,3.19,0,0,1,206.21,172.39ZM313.94,327.12a3.19,3.19,0,1,0-3.18-3.18A3.19,3.19,0,0,0,313.94,327.12Zm0-5.27a2.09,2.09,0,1,1-2.08,2.09A2.1,2.1,0,0,1,313.94,321.85Zm-4.27,8.23,1.76-.88.57.23.62,1.87h2.65l.61-1.87.58-.23,1.75.88,1.88-1.87-.89-1.76.24-.57,1.87-.62v-2.65l-1.87-.61-.24-.58.89-1.75-1.88-1.88-1.75.89-.58-.24-.61-1.87h-2.65l-.62,1.87-.57.24-1.76-.89-1.87,1.88.88,1.75-.24.58-1.86.61v2.65l1.86.62.24.57-.88,1.76Zm-2-5.61v-1.06l1.59-.53.62-1.51-.75-1.49.75-.75,1.49.75,1.51-.62.52-1.59h1.06l.53,1.59,1.51.62,1.49-.75.75.75-.76,1.49.63,1.51,1.59.53v1.06l-1.59.52L318,326.5l.76,1.49-.75.75-1.49-.75-1.51.62-.53,1.59h-1.06l-.52-1.59-1.51-.62-1.49.75-.75-.75.75-1.49-.62-1.51Zm95.6,9.31a6.69,6.69,0,1,0,6.7,6.69A6.7,6.7,0,0,0,403.28,333.78Zm0,12.28a5.59,5.59,0,1,1,5.6-5.59A5.6,5.6,0,0,1,403.28,346.06Zm9.85-10.61,1.69-3.35-3.17-3.16-3.35,1.69-1.6-.67-1.18-3.56h-4.47L399.87,330l-1.6.67-3.36-1.69-3.16,3.16,1.69,3.35-.67,1.61-3.56,1.17v4.48l3.56,1.17.67,1.61-1.69,3.35,3.16,3.16,3.36-1.69,1.6.67,1.18,3.56h4.47L406.7,351l1.6-.67,3.35,1.69,3.17-3.16-1.69-3.35.66-1.61,3.57-1.17v-4.48l-3.57-1.17Zm3.13,6.46L413,343l-1.05,2.53,1.56,3.09-2,2-3.09-1.56-2.54,1.06-1.08,3.28h-2.89l-1.08-3.28-2.54-1.06-3.09,1.56-2-2,1.56-3.09-1-2.53-3.29-1.09V339l3.29-1.09,1-2.53-1.56-3.1,2-2,3.09,1.55,2.54-1.05,1.08-3.28h2.89l1.08,3.28,2.54,1.05,3.09-1.55,2,2-1.56,3.1,1.05,2.53,3.29,1.09Zm-13-5.72a4.28,4.28,0,1,0,4.28,4.28A4.28,4.28,0,0,0,403.28,336.19Zm0,7.46a3.18,3.18,0,1,1,3.18-3.18A3.18,3.18,0,0,1,403.28,343.65ZM339.09,52.8a6.7,6.7,0,1,0-6.69-6.69A6.7,6.7,0,0,0,339.09,52.8Zm0-12.29a5.6,5.6,0,1,1-5.59,5.6A5.6,5.6,0,0,1,339.09,40.51Zm-9.84,10.61-1.69,3.36,3.17,3.16L334.08,56l1.6.66,1.18,3.57h4.47l1.18-3.57,1.6-.66,3.35,1.69,3.17-3.17-1.69-3.35.66-1.6,3.57-1.18V43.87l-3.57-1.18-.66-1.6,1.69-3.36-3.17-3.16-3.35,1.69-1.6-.66L341.33,32h-4.47l-1.18,3.57-1.6.66-3.35-1.69-3.17,3.16,1.69,3.36-.66,1.6L325,43.87v4.47l3.57,1.18Zm-3.13-6.46,3.29-1.08,1-2.54L328.9,38l2-2L334,37.47l2.54-1,1.08-3.29h2.89l1.08,3.29,2.54,1,3.09-1.56,2,2L347.73,41l1,2.54,3.29,1.08v2.89l-3.29,1.08-1,2.54,1.56,3.09-2,2-3.09-1.56-2.54,1-1.08,3.29h-2.89l-1.08-3.29-2.54-1-3.09,1.56-2-2,1.56-3.09-1-2.54-3.29-1.08Zm13,5.72a4.28,4.28,0,1,0-4.27-4.27A4.28,4.28,0,0,0,339.09,50.38Zm0-7.45a3.18,3.18,0,1,1-3.17,3.18A3.18,3.18,0,0,1,339.09,42.93ZM165,173.86l3.35-1.69,1.6.67,1.18,3.56h4.47l1.18-3.56,1.6-.67,3.36,1.69,3.16-3.16-1.69-3.36.66-1.6,3.57-1.18v-4.47l-3.57-1.18-.66-1.6,1.69-3.35-3.16-3.17-3.36,1.69-1.6-.66-1.18-3.57h-4.47L170,151.82l-1.6.66L165,150.79,161.85,154l1.69,3.35-.66,1.6-3.57,1.18v4.47l3.57,1.18.66,1.6-1.69,3.36Zm-1.32-9-3.29-1.08v-2.88l3.29-1.09,1.05-2.54-1.56-3.09,2-2,3.09,1.56,2.54-1.05,1.08-3.29h2.89l1.08,3.29,2.54,1.05,3.09-1.56,2,2L182,157.26l1,2.54,3.29,1.09v2.88l-3.29,1.08-1,2.54,1.56,3.09-2,2L178.45,171l-2.54,1-1.08,3.29h-2.89L170.86,172l-2.54-1-3.09,1.56-2-2,1.56-3.09Zm9.69,4.17a6.7,6.7,0,1,0-6.7-6.69A6.7,6.7,0,0,0,173.39,169Zm0-12.29a5.6,5.6,0,1,1-5.6,5.6A5.6,5.6,0,0,1,173.39,156.73Zm0,9.87a4.28,4.28,0,1,0-4.28-4.27A4.28,4.28,0,0,0,173.39,166.6Zm0-7.45a3.18,3.18,0,1,1-3.18,3.18A3.18,3.18,0,0,1,173.39,159.15ZM54.28,348.86l3.57-1.18v-4.47L54.28,342l-.66-1.6,1.69-3.35-3.16-3.17-3.36,1.69-1.6-.66L46,331.37H41.54l-1.18,3.57-1.6.66-3.35-1.69-3.17,3.17,1.69,3.35-.66,1.6-3.57,1.18v4.47l3.57,1.18.66,1.6-1.69,3.36L35.41,357l3.35-1.69,1.6.66,1.18,3.57H46L47.19,356l1.6-.66L52.15,357l3.16-3.17-1.69-3.35ZM54,353.6l-2,2-3.09-1.56-2.54,1.05-1.08,3.29H42.33l-1.08-3.29-2.54-1.05-3.09,1.56-2-2,1.56-3.09-1-2.54-3.29-1.08V344l3.29-1.09,1-2.54-1.56-3.09,2-2,3.09,1.56,2.54-1.05,1.08-3.29h2.89l1.08,3.29,2.54,1.05,3.09-1.56,2,2-1.56,3.09,1.05,2.54L56.75,344v2.88L53.46,348l-1.05,2.54ZM43.78,338.75a6.7,6.7,0,1,0,6.69,6.7A6.71,6.71,0,0,0,43.78,338.75Zm0,12.29a5.6,5.6,0,1,1,5.59-5.59A5.6,5.6,0,0,1,43.78,351Zm0-9.87a4.28,4.28,0,1,0,4.27,4.28A4.28,4.28,0,0,0,43.78,341.17Zm0,7.45A3.18,3.18,0,1,1,47,345.45,3.17,3.17,0,0,1,43.78,348.62ZM100,396.4a5.94,5.94,0,1,0,5.94,5.93A5.94,5.94,0,0,0,100,396.4Zm0,10.77a4.84,4.84,0,1,1,4.84-4.84A4.84,4.84,0,0,1,100,407.17Zm7.46-8.55,1.27-2.52-2.49-2.49-2.52,1.27-1.07-.45-.89-2.68H98.19l-.88,2.68-1.07.45-2.52-1.27-2.49,2.49,1.27,2.52-.45,1.07-2.68.88v3.52l2.68.89.45,1.07-1.27,2.52,2.49,2.49,2.52-1.27,1.07.44.88,2.68h3.52l.89-2.68,1.07-.44,2.52,1.27,2.49-2.49-1.27-2.52.44-1.07,2.68-.89v-3.52l-2.68-.88Zm2,4.68-2.4.79-.83,2,1.14,2.26L106,409.72l-2.26-1.14-2,.83-.79,2.4H99l-.8-2.4-2-.83-2.26,1.14-1.36-1.37,1.13-2.26-.82-2-2.41-.79v-1.93l2.41-.8.82-2-1.13-2.26L93.93,395l2.26,1.13,2-.82.8-2.41h1.93l.79,2.41,2,.82L106,395l1.37,1.36-1.14,2.26.83,2,2.4.8Zm62.28,25.83a5.94,5.94,0,1,0,5.94,5.93A5.94,5.94,0,0,0,171.71,429.13Zm0,10.77a4.84,4.84,0,1,1,4.84-4.84A4.84,4.84,0,0,1,171.71,439.9Zm7.46-8.55,1.27-2.52L178,426.34l-2.52,1.27-1.07-.45-.89-2.67H170l-.88,2.67-1.07.45-2.52-1.27L163,428.83l1.27,2.52-.45,1.07-2.68.88v3.53l2.68.88.45,1.07L163,441.3l2.49,2.49,2.52-1.27,1.07.44.88,2.68h3.52l.89-2.68,1.07-.44,2.52,1.27,2.49-2.49-1.27-2.52.44-1.07,2.68-.88V433.3l-2.68-.88Zm2,4.68-2.4.79-.83,2,1.14,2.26-1.37,1.37-2.26-1.14-2,.83-.79,2.4h-1.93l-.8-2.4-2-.83-2.26,1.14-1.36-1.37,1.13-2.26-.82-2-2.41-.79V434.1l2.41-.79.82-2L164.33,429l1.36-1.36,2.26,1.14,2-.83.8-2.4h1.93l.79,2.4,2,.83,2.26-1.14L179.1,429,178,431.3l.83,2,2.4.79ZM362,384.46a5.94,5.94,0,1,0,5.93,5.94A5.94,5.94,0,0,0,362,384.46Zm0,10.77a4.84,4.84,0,1,1,4.84-4.83A4.84,4.84,0,0,1,362,395.23Zm7.46-8.55,1.27-2.52-2.49-2.49-2.52,1.27-1.07-.44-.89-2.68h-3.52l-.88,2.68-1.07.44-2.52-1.27-2.5,2.49,1.27,2.52-.44,1.07-2.68.89v3.52l2.68.88.44,1.07-1.27,2.52,2.5,2.49,2.52-1.27,1.07.45.88,2.68h3.52l.89-2.68,1.07-.45,2.52,1.27,2.49-2.49-1.27-2.52.44-1.07,2.68-.88v-3.52l-2.68-.89Zm2,4.68-2.4.79-.83,2,1.14,2.26L368,397.78l-2.26-1.14-2,.83-.79,2.41H361l-.79-2.41-2-.83L356,397.78l-1.37-1.36,1.14-2.26-.83-2-2.4-.79v-1.93l2.4-.79.83-2-1.14-2.26L356,383l2.26,1.14,2-.83.79-2.4H363l.79,2.4,2,.83L368,383l1.37,1.37-1.14,2.26.83,2,2.4.79Zm-233-233.76a5.94,5.94,0,1,0,5.93,5.93A5.95,5.95,0,0,0,138.51,157.6Zm0,10.77a4.84,4.84,0,1,1,4.83-4.84A4.84,4.84,0,0,1,138.51,168.37Zm10.58-3.08v-3.52l-2.68-.88-.45-1.07,1.27-2.52-2.49-2.49-2.52,1.27-1.07-.45-.88-2.68h-3.52l-.89,2.68-1.07.45-2.52-1.27-2.49,2.49,1.27,2.52-.44,1.07-2.68.88v3.52l2.68.89.44,1.07-1.27,2.52,2.49,2.49,2.52-1.27,1.07.44.89,2.68h3.52l.88-2.68,1.07-.44,2.52,1.27,2.49-2.49L146,167.25l.45-1.07Zm-3.2,4.26-1.36,1.37-2.26-1.14-2,.83-.8,2.4h-1.93l-.79-2.4-2-.83-2.26,1.14-1.37-1.37,1.14-2.26-.83-2-2.4-.79v-1.93l2.4-.8.83-2-1.14-2.26,1.37-1.36,2.26,1.14,2-.83.79-2.41h1.93l.8,2.41,2,.83,2.26-1.14,1.36,1.36-1.13,2.26.82,2,2.41.8v1.93l-2.41.79-.82,2ZM171,100.16A5.94,5.94,0,1,0,165,94.22,5.95,5.95,0,0,0,171,100.16Zm0-10.77a4.84,4.84,0,1,1-4.83,4.83A4.84,4.84,0,0,1,171,89.39Zm-10.58,3.07V96l2.68.89.44,1.07-1.26,2.52,2.48,2.49,2.53-1.27,1.07.44.88,2.68h3.52l.89-2.68,1.07-.44,2.52,1.27,2.49-2.49-1.27-2.52.44-1.07,2.68-.89V92.46l-2.68-.88-.44-1.07L179.68,88l-2.49-2.49-2.52,1.27-1.07-.45-.89-2.68h-3.52l-.88,2.68-1.07.45-2.53-1.27L162.23,88l1.26,2.52-.44,1.07Zm3.19-4.26,1.37-1.36L167.19,88l2-.82.79-2.41h1.94l.79,2.41,2,.82L177,86.84l1.37,1.36-1.14,2.26.83,2,2.4.8v1.93L178,96l-.83,2,1.14,2.26L177,101.61l-2.26-1.14-2,.83-.79,2.4H170l-.79-2.4-2-.83-2.26,1.14-1.37-1.37L164.7,98l-.83-2-2.4-.79V93.26l2.4-.8.83-2ZM63.77,89.94A5.94,5.94,0,1,0,57.84,84,5.95,5.95,0,0,0,63.77,89.94Zm0-10.77A4.84,4.84,0,1,1,58.94,84,4.84,4.84,0,0,1,63.77,79.17Zm-7.46,8.55-1.26,2.52,2.49,2.49,2.52-1.27,1.07.44L62,94.58h3.52l.89-2.68,1.07-.44L70,92.73l2.49-2.49-1.27-2.52.44-1.07,2.68-.88V82.24l-2.68-.88-.44-1.07,1.27-2.52L70,75.28l-2.52,1.27-1.07-.45-.89-2.67H62l-.88,2.67-1.07.45-2.52-1.27-2.49,2.49,1.26,2.52-.44,1.07-2.68.88v3.53l2.68.88Zm-2-4.68,2.4-.79.83-2L56.39,78l1.36-1.36L60,77.76l2-.83.8-2.4h1.93l.79,2.4,2,.83,2.26-1.14L71.16,78,70,80.24l.83,2,2.4.79V85l-2.4.79-.83,2L71.16,90l-1.37,1.37-2.26-1.14-2,.83-.79,2.4H62.81l-.8-2.4-2-.83-2.26,1.14L56.39,90l1.13-2.26-.83-2L54.29,85Zm8.35,223.54a5.94,5.94,0,1,0-5.94-5.93A5.94,5.94,0,0,0,62.64,306.58Zm0-10.77a4.84,4.84,0,1,1-4.84,4.84A4.84,4.84,0,0,1,62.64,295.81ZM56.4,309.37l2.52-1.27,1.07.45.88,2.67H64.4l.88-2.67,1.07-.45,2.52,1.27,2.49-2.49-1.27-2.52.45-1.07,2.67-.88v-3.53L70.54,298l-.45-1.07,1.27-2.52-2.49-2.49-2.52,1.27-1.07-.45-.88-2.67H60.87L60,292.75l-1.07.44-2.52-1.27-2.49,2.49,1.27,2.52L54.74,298l-2.68.88v3.53l2.68.88.44,1.07-1.27,2.52Zm-3.24-7.76v-1.93l2.4-.79.83-2-1.14-2.26,1.37-1.37,2.26,1.14,2-.83.79-2.4H63.6l.79,2.4,2,.83,2.26-1.14L70,294.63l-1.14,2.26.83,2,2.41.79v1.93l-2.41.79-.83,2L70,306.67,68.66,308l-2.26-1.14-2,.83-.79,2.4H61.67l-.79-2.4-2-.83L56.62,308l-1.37-1.36,1.14-2.26-.83-2Zm189.61,79.75a5.93,5.93,0,1,0,5.94,5.93A5.94,5.94,0,0,0,242.77,381.36Zm0,10.76a4.83,4.83,0,1,1,4.84-4.83A4.83,4.83,0,0,1,242.77,392.12Zm8.73,1.4L250.23,391l.44-1.07,2.68-.89v-3.52l-2.68-.89-.44-1.07,1.27-2.51-2.49-2.5-2.52,1.27-1.07-.44-.89-2.68H241l-.88,2.68-1.07.44-2.52-1.27-2.49,2.5,1.27,2.51-.45,1.07-2.68.89v3.52l2.68.89.45,1.07-1.27,2.51,2.49,2.5,2.52-1.27,1.07.44.88,2.68h3.52l.89-2.68,1.07-.44L249,396Zm-5,0-2,.83-.79,2.4h-1.93l-.8-2.4-2-.83-2.26,1.14-1.36-1.37,1.13-2.26-.83-2-2.4-.79v-1.94l2.4-.79.83-2-1.13-2.26,1.36-1.37L239,381l2-.83.8-2.4h1.93l.79,2.4,2,.83,2.26-1.14,1.37,1.37L249,383.53l.83,2,2.4.79v1.94l-2.4.79-.83,2,1.14,2.26-1.37,1.37Zm-53.31-4.47a5.94,5.94,0,1,0-5.94-5.93A5.94,5.94,0,0,0,193.22,389.07Zm0-10.77a4.84,4.84,0,1,1-4.84,4.84A4.84,4.84,0,0,1,193.22,378.3ZM187,391.86l2.52-1.26,1.07.44.88,2.68H195l.88-2.68,1.07-.44,2.52,1.26,2.49-2.49-1.27-2.52.45-1.07,2.67-.88v-3.52l-2.67-.89-.45-1.07,1.27-2.52-2.49-2.49-2.52,1.27-1.07-.44-.88-2.68h-3.53l-.88,2.68-1.07.44L187,374.41l-2.49,2.49,1.27,2.52-.45,1.07-2.67.89v3.52l2.67.88.45,1.07-1.27,2.52Zm-3.24-7.76v-1.93l2.4-.79.83-2-1.14-2.26,1.37-1.37,2.26,1.14,2-.83.79-2.4h1.93l.79,2.4,2,.83,2.25-1.14,1.37,1.37-1.14,2.26.83,2,2.4.79v1.93l-2.4.8-.83,2,1.14,2.26-1.36,1.36L197,389.39l-2,.82-.79,2.41h-1.93l-.79-2.41-2-.82-2.26,1.13-1.37-1.36L187,386.9l-.83-2Zm23.37-64a3.19,3.19,0,1,0,3.18,3.18A3.19,3.19,0,0,0,207.11,320.11Zm0,5.27a2.09,2.09,0,1,1,2.08-2.09A2.1,2.1,0,0,1,207.11,325.38Zm7.36-.76V322l-1.86-.62-.24-.58.88-1.75-1.87-1.87-1.75.88-.58-.24-.62-1.86h-2.65l-.61,1.86-.58.24-1.75-.88L201,319l.88,1.75-.24.58-1.86.62v2.65l1.86.61.24.58-.88,1.75,1.87,1.88,1.75-.89.58.24.61,1.87h2.65l.62-1.87.58-.24,1.75.89,1.87-1.88-.88-1.75.24-.58Zm-2.56,2.73-.74.75-1.5-.76-1.51.63-.52,1.59h-1.06l-.52-1.59-1.51-.63-1.5.76-.74-.75.75-1.5-.63-1.5-1.59-.53v-1.06l1.59-.52.63-1.51-.75-1.49.74-.75,1.5.75,1.51-.62.52-1.59h1.06l.52,1.59,1.51.62,1.49-.75.75.75-.75,1.49.63,1.51,1.58.52v1.06l-1.58.53-.63,1.5Zm-.65,62.14a3.19,3.19,0,1,0,3.18,3.18A3.19,3.19,0,0,0,211.26,389.49Zm0,5.27a2.09,2.09,0,1,1,2.08-2.09A2.1,2.1,0,0,1,211.26,394.76Zm7.36-.76v-2.65l-1.86-.62-.24-.57.88-1.76-1.87-1.87-1.76.88-.57-.24-.62-1.86h-2.65l-.61,1.86-.58.24-1.75-.88-1.88,1.87.89,1.76-.24.57-1.87.62V394l1.87.61.24.58-.89,1.75,1.88,1.88,1.75-.89.58.24.61,1.87h2.65l.62-1.87.57-.24,1.76.89,1.87-1.88-.88-1.75.24-.58Zm-2.56,2.73-.75.75-1.49-.75-1.51.62-.52,1.59h-1.06l-.52-1.59-1.51-.62-1.5.75-.75-.75.76-1.49-.63-1.51L205,393.2v-1.05l1.59-.53.63-1.51-.76-1.49.75-.75,1.5.75,1.51-.62.52-1.59h1.06l.52,1.59,1.51.62,1.49-.75.75.75-.75,1.49.62,1.51,1.59.53v1.05l-1.59.53-.62,1.51Zm7.38-18.67a3.19,3.19,0,1,0,3.18,3.19A3.18,3.18,0,0,0,223.44,378.06Zm0,5.27a2.09,2.09,0,1,1,2.08-2.08A2.09,2.09,0,0,1,223.44,383.33Zm7.36-.76v-2.65l-1.86-.61-.24-.58.88-1.75-1.87-1.88L226,376l-.58-.23-.62-1.87h-2.64l-.62,1.87-.58.23-1.75-.88L217.3,377l.88,1.75-.24.58-1.86.61v2.65l1.86.62.24.57-.88,1.76,1.87,1.87,1.75-.88.58.23.62,1.87h2.64l.62-1.87.58-.23,1.75.88,1.87-1.87-.88-1.76.24-.57Zm-2.56,2.73-.74.75-1.5-.75-1.51.62-.52,1.59h-1.06l-.52-1.59-1.51-.62-1.5.75-.74-.75.75-1.49-.63-1.51-1.58-.53v-1l1.58-.53.63-1.51-.75-1.49.74-.75,1.5.75,1.51-.62.52-1.59H224l.52,1.59,1.51.62,1.5-.75.74.75-.75,1.49.63,1.51,1.58.53v1l-1.58.53-.63,1.51Zm-76.47,42.8a3.19,3.19,0,1,0,3.19,3.18A3.19,3.19,0,0,0,151.77,428.1Zm0,5.27a2.09,2.09,0,1,1,2.09-2.09A2.09,2.09,0,0,1,151.77,433.37Zm5.26-4.61.89-1.75L156,425.14l-1.75.88-.58-.24-.61-1.86h-2.65l-.62,1.86-.57.24-1.76-.88L145.63,427l.88,1.75-.24.58-1.86.62v2.65l1.86.61.24.58-.88,1.75,1.87,1.88,1.76-.89.57.24.62,1.87h2.65l.61-1.87.58-.24,1.75.89,1.88-1.88L157,433.8l.24-.58,1.87-.61V430l-1.87-.62Zm1,3.05-1.59.52-.63,1.51.76,1.5-.75.75-1.5-.76-1.5.63-.53,1.59h-1.06l-.52-1.59-1.51-.63-1.49.76-.75-.75.75-1.5-.62-1.51-1.59-.52v-1.06l1.59-.52.62-1.51-.75-1.49.75-.75,1.49.75,1.51-.63.52-1.58h1.06l.53,1.58,1.5.63,1.5-.75.75.75-.76,1.49.63,1.51,1.59.52ZM70.63,317.75a3.19,3.19,0,1,0,3.19,3.19A3.19,3.19,0,0,0,70.63,317.75Zm0,5.27a2.09,2.09,0,1,1,2.09-2.08A2.08,2.08,0,0,1,70.63,323Zm7.37-.76v-2.65L76.13,319l-.24-.58.88-1.76-1.87-1.87-1.75.89-.58-.24L72,313.57H69.31l-.62,1.87-.58.24-1.75-.89-1.87,1.88.88,1.75-.24.58-1.86.61v2.65l1.86.62.24.57-.88,1.76,1.87,1.87,1.75-.88.58.23.62,1.87H72l.61-1.87.58-.23,1.75.88,1.87-1.87-.88-1.76.24-.57ZM75.43,325l-.74.75-1.5-.75-1.51.62-.52,1.59H70.1l-.52-1.59L68.07,325l-1.49.75-.75-.75.75-1.49L66,322l-1.58-.52v-1.06l1.58-.53.63-1.51-.75-1.49.75-.75,1.49.75,1.51-.62.52-1.59h1.06l.52,1.59,1.51.62,1.5-.75.74.75-.75,1.49.63,1.51,1.59.53v1.06l-1.59.52-.63,1.51ZM67.17,170A3.19,3.19,0,1,0,64,166.84,3.19,3.19,0,0,0,67.17,170Zm0-5.27a2.09,2.09,0,1,1-2.09,2.09A2.09,2.09,0,0,1,67.17,164.75ZM62.89,173l1.76-.88.58.24.61,1.86h2.65l.61-1.86.58-.24,1.76.88,1.87-1.87-.88-1.76.24-.57,1.86-.62v-2.65l-1.86-.61-.24-.58.88-1.76-1.87-1.87-1.76.89-.58-.24-.61-1.87H65.84l-.61,1.87-.58.24-1.76-.89L61,162.56l.89,1.76-.24.58-1.87.61v2.65l1.87.62.24.57L61,171.11Zm-2-5.62v-1.05l1.59-.53.62-1.51-.75-1.49.75-.75,1.49.75,1.51-.62.53-1.59h1l.53,1.59,1.51.62,1.49-.75.75.75-.75,1.49.62,1.51,1.59.53v1.05l-1.59.53-.62,1.51.75,1.49-.75.75-1.49-.75-1.51.62-.53,1.59h-1l-.53-1.59-1.51-.62-1.49.75-.75-.75.75-1.49-.62-1.51ZM301.19,267.68a3.19,3.19,0,1,0-3.18,3.19A3.19,3.19,0,0,0,301.19,267.68Zm-5.27,0a2.09,2.09,0,1,1,2.09,2.09A2.09,2.09,0,0,1,295.92,267.68Zm3.41,7.37.62-1.87.58-.24,1.75.89,1.87-1.88-.88-1.75.24-.58,1.86-.61v-2.65l-1.86-.62-.24-.57.88-1.76-1.87-1.87-1.75.88-.58-.24-.62-1.86h-2.65l-.61,1.86-.58.24-1.75-.88-1.88,1.87.89,1.76-.24.57-1.87.62V269l1.87.61.24.58-.89,1.75,1.88,1.88,1.75-.89.58.24.61,1.87Zm-3.88-3.32-1.5.76-.75-.75.76-1.5-.63-1.5-1.59-.53v-1.06l1.59-.52.63-1.51-.76-1.49.75-.75,1.5.75L297,263l.52-1.59h1.06l.52,1.59,1.51.62,1.49-.75.75.75-.75,1.49.62,1.51,1.59.52v1.06l-1.59.53-.62,1.5.75,1.5-.75.75-1.49-.76-1.51.63-.52,1.59h-1.06l-.52-1.59ZM131.21,252.56a3.19,3.19,0,1,0,3.19,3.18A3.19,3.19,0,0,0,131.21,252.56Zm0,5.27a2.09,2.09,0,1,1,2.09-2.09A2.09,2.09,0,0,1,131.21,257.83Zm7.37-.76v-2.65l-1.87-.61-.24-.58.89-1.76-1.88-1.87-1.75.88-.58-.23-.61-1.87h-2.65l-.62,1.86-.58.24-1.75-.88-1.87,1.87.88,1.76-.24.58-1.86.61v2.65l1.86.61.24.58-.88,1.76,1.87,1.87,1.75-.88.58.24.62,1.86h2.65l.61-1.87.58-.23,1.75.88,1.88-1.87-.89-1.76.24-.58ZM136,259.8l-.75.75-1.5-.75-1.51.62-.52,1.59h-1.06l-.52-1.59-1.51-.62-1.49.75-.75-.75.75-1.49-.62-1.51-1.59-.53v-1l1.59-.53.62-1.51-.75-1.49.75-.75,1.49.75,1.51-.62.52-1.59h1.06l.52,1.59,1.51.62,1.5-.75.75.75-.76,1.49.63,1.51,1.59.53v1l-1.59.53-.63,1.51Zm49.35-73.63a3.19,3.19,0,1,0-3.19-3.18A3.19,3.19,0,0,0,185.37,186.17Zm0-5.27a2.09,2.09,0,1,1-2.09,2.09A2.09,2.09,0,0,1,185.37,180.9Zm-4.27,8.23,1.75-.88.58.24.61,1.86h2.65l.62-1.86.57-.24,1.76.88,1.87-1.87-.88-1.76.24-.57,1.86-.62v-2.65l-1.86-.61-.24-.58.88-1.76-1.87-1.87-1.76.89-.57-.24-.62-1.87H184l-.61,1.87-.58.24-1.75-.89-1.88,1.87.89,1.76-.24.58-1.87.61v2.65l1.87.62.24.57-.89,1.76Zm-2-5.62v-1l1.59-.53.63-1.51-.76-1.49.75-.75,1.49.75,1.51-.62.53-1.59h1.06l.52,1.59,1.51.62,1.49-.75.75.75-.75,1.49.62,1.51,1.59.53v1L190,184l-.62,1.51.75,1.49-.75.75-1.49-.75-1.51.62-.52,1.59h-1.06l-.53-1.59L182.8,187l-1.49.75-.75-.75.76-1.49-.63-1.51Zm51.15,3a3.18,3.18,0,1,0-3.18-3.18A3.18,3.18,0,0,0,230.25,186.48Zm0-5.26a2.09,2.09,0,1,1-2.08,2.08A2.09,2.09,0,0,1,230.25,181.22Zm-7.36.76v2.64l1.86.62.24.58-.88,1.75,1.87,1.87,1.76-.88.57.24.62,1.86h2.65l.61-1.86.58-.24,1.75.88,1.88-1.87-.89-1.75.24-.58,1.87-.62V182l-1.87-.62-.24-.58.89-1.75-1.88-1.87-1.75.88-.58-.24-.61-1.86h-2.65l-.62,1.86-.57.24-1.76-.88L224.11,179l.88,1.75-.24.58Zm2.56-2.74.75-.74,1.49.75,1.51-.63.53-1.58h1.05l.53,1.58,1.51.63,1.49-.75.75.74-.75,1.5.62,1.51,1.59.52v1.06l-1.59.52-.62,1.51.75,1.5-.75.74-1.49-.75-1.51.63-.53,1.58h-1.05L229.2,188l-1.51-.63-1.49.75-.75-.74.75-1.5-.62-1.51-1.59-.52v-1.06l1.59-.52.62-1.51Zm35.62,84.85a3.19,3.19,0,1,0,3.18,3.18A3.18,3.18,0,0,0,261.07,264.09Zm0,5.27a2.09,2.09,0,1,1,2.08-2.09A2.1,2.1,0,0,1,261.07,269.36Zm1.94,3.41.58-.24,1.75.89,1.87-1.88-.88-1.75.24-.58,1.86-.61V266l-1.86-.62-.24-.58.88-1.75-1.87-1.87-1.75.88-.58-.24-.61-1.86h-2.65l-.62,1.86-.58.24-1.75-.88L254.93,263l.88,1.75-.24.58-1.86.62v2.65l1.86.61.24.58-.88,1.75,1.87,1.88,1.75-.89.58.24.62,1.87h2.65Zm-1.41.77h-1.06L260,272l-1.51-.63-1.5.76-.74-.75.75-1.5-.63-1.51-1.58-.52v-1.06l1.58-.52.63-1.51-.75-1.49.74-.75,1.5.75,1.51-.62.52-1.59h1.06l.52,1.59,1.51.62,1.49-.75.75.75-.75,1.49.62,1.51,1.59.52v1.06l-1.59.52-.62,1.51.75,1.5-.74.75-1.5-.76-1.51.63ZM438,177a3.19,3.19,0,1,0-3.18-3.19A3.19,3.19,0,0,0,438,177Zm0-5.27a2.09,2.09,0,1,1-2.08,2.08A2.09,2.09,0,0,1,438,171.72Zm-5.26,4.6-.88,1.75L433.7,180l1.76-.89.57.24.62,1.87h2.65l.61-1.87.58-.24,1.75.89,1.88-1.88-.89-1.75.24-.58,1.87-.61v-2.65l-1.87-.62-.24-.57.89-1.76-1.88-1.87-1.75.88-.58-.24-.61-1.86h-2.65L436,168.3l-.57.24-1.76-.88-1.87,1.87.88,1.76-.24.57-1.86.62v2.65l1.86.61Zm-1-3,1.59-.52.62-1.51-.75-1.49.75-.75,1.49.75,1.51-.62.52-1.59h1.06l.53,1.59,1.51.62L442,169l.75.75-.76,1.49.63,1.51,1.59.52v1.06l-1.59.53-.63,1.51.76,1.49-.75.75-1.49-.76-1.51.63-.53,1.59h-1.06l-.52-1.59-1.51-.63-1.49.76-.75-.75.75-1.49-.62-1.51-1.59-.53ZM270.37,43.87a3.19,3.19,0,1,0-3.19-3.19A3.18,3.18,0,0,0,270.37,43.87Zm0-5.27a2.09,2.09,0,1,1-2.09,2.08A2.08,2.08,0,0,1,270.37,38.6Zm-6.14-2.19.88,1.76-.24.57-1.86.62V42l1.86.61.24.58L264.23,45l1.87,1.87,1.75-.89.58.24.62,1.87h2.64l.62-1.87.58-.24,1.75.89L276.51,45l-.88-1.76.24-.58,1.86-.61V39.36l-1.86-.62-.24-.57.88-1.76-1.87-1.87-1.75.88-.58-.24-.62-1.86h-2.64l-.62,1.86-.58.24-1.75-.88Zm3.58.22,1.51-.62.52-1.59h1.06l.52,1.59,1.51.62,1.5-.75.74.75-.75,1.49.63,1.51,1.58.52v1.06l-1.58.53-.63,1.51.75,1.49-.74.75-1.5-.76-1.51.63L270.9,47h-1.06l-.52-1.59-1.51-.63-1.5.76-.74-.75.75-1.49-.63-1.51-1.59-.53V40.15l1.59-.52.63-1.51-.75-1.49.74-.75ZM228.43,98.14a5.94,5.94,0,1,0,5.93,5.94A5.95,5.95,0,0,0,228.43,98.14Zm0,10.77a4.84,4.84,0,1,1,4.83-4.83A4.84,4.84,0,0,1,228.43,108.91Zm6.23-13.56-2.52,1.27-1.07-.45-.88-2.67h-3.52l-.89,2.67-1.07.45-2.52-1.27-2.49,2.49,1.27,2.52-.44,1.07-2.68.88v3.53l2.68.88.44,1.07-1.27,2.52,2.49,2.49,2.52-1.27,1.07.45.89,2.67h3.52l.88-2.67,1.07-.45,2.52,1.27,2.49-2.49-1.26-2.52.44-1.07,2.68-.88v-3.53l-2.68-.88-.44-1.07,1.26-2.52Zm3.25,7.76V105l-2.41.79-.82,2,1.13,2.25-1.36,1.37-2.26-1.14-2,.83-.79,2.4h-1.94l-.79-2.4-2-.83-2.26,1.14L221,110.1l1.14-2.26-.83-2L219,105v-1.93l2.4-.79.83-2L221,98.06l1.37-1.37,2.26,1.14,2-.83.79-2.4h1.94l.79,2.4,2,.83,2.26-1.14,1.36,1.37-1.13,2.25.82,2ZM12.34,169.74a5.93,5.93,0,1,0-5.93-5.93A5.94,5.94,0,0,0,12.34,169.74Zm0-10.76a4.84,4.84,0,1,1-4.83,4.83A4.84,4.84,0,0,1,12.34,159Zm-7.45,8.55-1.27,2.52,2.49,2.49,2.52-1.27,1.07.44.88,2.68H14.1l.89-2.68,1.07-.44,2.52,1.27,2.49-2.49-1.27-2.52.44-1.07,2.68-.89v-3.52l-2.68-.88-.44-1.07,1.27-2.52-2.49-2.5-2.52,1.27L15,155.91l-.89-2.68H10.58l-.88,2.68-1.07.44-2.52-1.27-2.49,2.5,1.27,2.52-.45,1.07-2.68.88v3.52l2.68.89Zm-2-4.69,2.41-.79.83-2L5,157.79l1.36-1.37,2.26,1.14,2-.83.8-2.4h1.93l.79,2.4,2,.83,2.26-1.14,1.37,1.37-1.14,2.26.83,2,2.4.79v1.94l-2.4.79-.83,2,1.14,2.26-1.37,1.37-2.26-1.14-2,.83-.79,2.4H11.38l-.8-2.4-2-.83L6.32,171.2,5,169.83l1.14-2.26-.83-2-2.41-.79Zm12.62-15.55a3.19,3.19,0,1,0-3.19-3.18A3.18,3.18,0,0,0,15.48,147.29Zm0-5.27a2.09,2.09,0,1,1-2.09,2.09A2.09,2.09,0,0,1,15.48,142Zm-5.26,4.61-.89,1.75,1.87,1.87,1.76-.88.58.24.61,1.86H16.8l.62-1.86.57-.24,1.76.88,1.87-1.87-.88-1.75.24-.58,1.86-.62v-2.64L21,142.17l-.24-.58.88-1.75L19.75,138l-1.76.88-.57-.24-.62-1.86H14.15l-.61,1.86-.58.24L11.2,138l-1.87,1.87.89,1.75-.24.58-1.87.62v2.64l1.87.62Zm-1-3,1.59-.52.62-1.51-.75-1.5.75-.74,1.49.75,1.51-.63.53-1.59H16l.53,1.59,1.51.63,1.49-.75.75.74-.75,1.5.62,1.51,1.59.52v1.06l-1.59.52-.62,1.51.75,1.49-.75.75L18,148.16l-1.51.63L16,150.37H15l-.53-1.58-1.51-.63-1.49.75-.75-.75.75-1.49-.62-1.51-1.59-.52ZM317.49,34.52a3.18,3.18,0,1,0-3.18-3.18A3.18,3.18,0,0,0,317.49,34.52Zm0-5.26a2.08,2.08,0,1,1-2.08,2.08A2.09,2.09,0,0,1,317.49,29.26Zm-5.26,4.6-.88,1.75,1.87,1.87L315,36.6l.57.24.62,1.86h2.65l.61-1.86.58-.24,1.75.88,1.88-1.87-.89-1.75.24-.58,1.87-.62V30L323,29.4l-.24-.58.89-1.75-1.88-1.87-1.75.88-.58-.24L318.82,24h-2.65l-.62,1.86-.57.24-1.76-.88-1.87,1.87.88,1.75-.24.58-1.86.62v2.64l1.86.62Zm-1-3.05,1.59-.52.62-1.51-.75-1.5.75-.74,1.49.75,1.51-.63.52-1.58H318l.53,1.58,1.51.63,1.49-.75.75.74-.76,1.5.63,1.51,1.59.52v1.06l-1.59.52-.63,1.51.76,1.5-.75.74-1.49-.75-1.51.63L318,37.6H317L316.44,36l-1.51-.63-1.49.75-.75-.74.75-1.5-.62-1.51-1.59-.52Zm-28,153.49a3.19,3.19,0,1,0-3.19-3.18A3.19,3.19,0,0,0,283.21,184.3Zm0-5.27a2.09,2.09,0,1,1-2.09,2.09A2.09,2.09,0,0,1,283.21,179Zm-7.37.76v2.65l1.87.62.24.57-.89,1.76,1.87,1.87,1.76-.88.58.24.61,1.86h2.65l.62-1.86.57-.24,1.76.88,1.87-1.87-.88-1.76.24-.57,1.86-.62v-2.65l-1.86-.61-.24-.58.88-1.75L287.48,175l-1.76.89-.57-.24-.62-1.87h-2.65l-.61,1.87-.58.24-1.76-.89-1.87,1.88.89,1.75-.24.58Zm2.56-2.73.75-.75,1.49.76,1.51-.63.53-1.59h1.06l.52,1.59,1.51.63,1.49-.76.75.75-.75,1.49.62,1.51,1.59.53v1.06l-1.59.52-.62,1.51.75,1.49-.75.75-1.49-.75-1.51.62-.52,1.59h-1.06l-.53-1.59-1.51-.62-1.49.75-.75-.75.75-1.49-.62-1.51-1.59-.52v-1.06l1.59-.53.62-1.5ZM145.17,21.85A3.19,3.19,0,1,0,142,18.66,3.19,3.19,0,0,0,145.17,21.85Zm0-5.27a2.09,2.09,0,1,1-2.08,2.08A2.09,2.09,0,0,1,145.17,16.58Zm-5.26,4.6L139,22.94l1.87,1.87,1.75-.89.58.24.62,1.87h2.65l.61-1.87.58-.24,1.75.89,1.87-1.87-.88-1.76.24-.58,1.87-.61V17.34l-1.87-.62-.24-.57.88-1.76-1.87-1.87-1.75.88-.58-.24-.61-1.86h-2.65l-.62,1.86-.58.24-1.75-.88L139,14.39l.88,1.76-.24.57-1.86.62V20l1.86.61Zm-1-3,1.59-.53.62-1.51-.75-1.49.75-.75,1.49.75,1.51-.62.52-1.59h1.06l.52,1.59,1.51.62,1.5-.75.75.75-.76,1.49.63,1.51,1.59.53v1.05l-1.59.53-.63,1.51.76,1.49-.75.75-1.5-.75-1.51.62-.52,1.59h-1.06l-.52-1.59-1.51-.62-1.49.75-.75-.75.75-1.49-.62-1.51-1.59-.53ZM165,21A5.93,5.93,0,1,0,159.06,15,5.94,5.94,0,0,0,165,21Zm0-10.77A4.84,4.84,0,1,1,160.16,15,4.84,4.84,0,0,1,165,10.18Zm-7.46,8.55-1.27,2.53,2.49,2.49,2.52-1.27,1.08.44.88,2.68h3.52l.89-2.68,1.07-.44,2.52,1.27,2.49-2.5-1.27-2.52.44-1.07,2.68-.88V13.26l-2.68-.89-.44-1.07,1.27-2.52-2.49-2.49-2.52,1.27-1.07-.44-.89-2.68h-3.52l-.88,2.68-1.08.44-2.52-1.27-2.49,2.49,1.27,2.52-.44,1.07-2.68.89v3.52l2.68.88Zm-2-4.68,2.4-.79.83-2L157.6,9,159,7.63l2.26,1.14,2-.83.79-2.4H166l.79,2.4,2,.83L171,7.63,172.38,9l-1.14,2.26.83,2,2.4.79V16l-2.4.79-.83,2L172.38,21,171,22.41l-2.26-1.14-2,.83L166,24.5H164l-.79-2.4-2-.83L159,22.41,157.6,21l1.14-2.26-.83-2-2.4-.79Zm222.71,185.3a3.19,3.19,0,1,0-3.18-3.19A3.19,3.19,0,0,0,378.22,199.35Zm0-5.27a2.09,2.09,0,1,1-2.08,2.08A2.09,2.09,0,0,1,378.22,194.08Zm-7.36.76v2.65l1.86.61.24.58-.88,1.76,1.87,1.87,1.76-.89.57.24.62,1.87h2.65l.61-1.87.58-.24,1.75.89,1.88-1.87-.89-1.76.24-.58,1.87-.61v-2.65l-1.87-.61-.24-.58.89-1.76L382.49,190l-1.75.88-.58-.24-.61-1.86H376.9l-.62,1.86-.57.24L374,190l-1.87,1.87.88,1.76-.24.58Zm2.56-2.73.75-.75,1.49.75,1.51-.62.52-1.59h1.06l.53,1.59,1.51.62,1.49-.75.75.75-.76,1.49.63,1.51,1.59.53v1.05l-1.59.53-.63,1.51.76,1.49-.75.75-1.49-.75-1.51.62-.53,1.59h-1.06l-.52-1.59-1.51-.62-1.49.75-.75-.75.75-1.49-.62-1.51-1.59-.53v-1.05l1.59-.53.62-1.51ZM280.57,123a5.94,5.94,0,1,0,5.94,5.93A5.94,5.94,0,0,0,280.57,123Zm0,10.77a4.84,4.84,0,1,1,4.84-4.84A4.84,4.84,0,0,1,280.57,133.74Zm7.46-8.55,1.27-2.52-2.49-2.49-2.52,1.27-1.07-.45-.89-2.67h-3.52l-.88,2.67-1.07.45-2.52-1.27-2.49,2.49,1.26,2.52-.44,1.07-2.68.88v3.53l2.68.88.44,1.07-1.26,2.52,2.49,2.49,2.52-1.27,1.07.45.88,2.67h3.52l.89-2.67,1.07-.45,2.52,1.27,2.49-2.49L288,132.62l.44-1.07,2.68-.88v-3.53l-2.68-.88Zm2,4.68-2.4.79-.83,2,1.14,2.25-1.37,1.37-2.26-1.14-2,.83-.79,2.4H279.6l-.79-2.4-2-.83-2.26,1.14-1.36-1.37,1.13-2.25-.82-2-2.41-.79v-1.93l2.41-.79.82-2-1.13-2.25,1.36-1.37,2.26,1.14,2-.83.79-2.4h1.94l.79,2.4,2,.83,2.26-1.14,1.37,1.37-1.14,2.25.83,2,2.4.79Zm-24.5,54.82a3.19,3.19,0,1,0,3.18,3.19A3.19,3.19,0,0,0,265.55,184.69Zm0,5.27a2.09,2.09,0,1,1,2.08-2.08A2.09,2.09,0,0,1,265.55,190Zm7.36-.76v-2.65l-1.86-.61-.24-.58.88-1.75-1.87-1.88-1.75.89-.58-.24-.62-1.87h-2.64l-.62,1.87-.58.24-1.75-.89-1.87,1.88.88,1.75-.24.58-1.87.61v2.65l1.87.62.24.58-.88,1.75,1.87,1.87,1.75-.88.58.24.62,1.86h2.64l.62-1.86.58-.24,1.75.88,1.87-1.87-.88-1.76.24-.57Zm-2.56,2.73-.75.75-1.49-.75-1.51.62-.52,1.59H265l-.52-1.59-1.51-.62-1.5.75-.74-.75.75-1.49-.63-1.51-1.59-.52v-1.06l1.59-.53.63-1.5-.75-1.5.74-.75,1.5.76,1.51-.63.52-1.59h1.06l.52,1.59,1.51.63,1.49-.76.75.75-.75,1.49.63,1.51,1.58.53v1.06l-1.58.52-.63,1.51Zm148.36-60.52a3.18,3.18,0,1,0-3.18-3.18A3.18,3.18,0,0,0,418.71,131.41Zm0-5.26a2.08,2.08,0,1,1-2.08,2.08A2.09,2.09,0,0,1,418.71,126.15Zm-5.5.14-1.86.62v2.64l1.86.62.24.58-.88,1.75,1.87,1.87,1.75-.88.58.24.62,1.86H420l.61-1.86.58-.24,1.75.88,1.87-1.87-.88-1.75.24-.58,1.87-.62v-2.64l-1.87-.62-.24-.58.88-1.75L423,122.09l-1.75.88-.58-.24-.61-1.86h-2.65l-.62,1.86-.58.24-1.75-.88L412.57,124l.88,1.75Zm1.45-2.86,1.49.75,1.51-.63.52-1.58h1.06l.52,1.58,1.51.63,1.5-.75.75.74-.76,1.5.63,1.51,1.59.52v1.06l-1.59.52-.63,1.51.76,1.5-.75.74-1.5-.75-1.51.63-.52,1.58h-1.06l-.52-1.58-1.51-.63-1.49.75-.75-.74.75-1.5-.62-1.51-1.59-.52V127.7l1.58-.52.63-1.51-.75-1.5ZM258.43,432a5.94,5.94,0,1,0,5.94,5.93A5.94,5.94,0,0,0,258.43,432Zm0,10.77a4.84,4.84,0,1,1,4.84-4.84A4.84,4.84,0,0,1,258.43,442.77Zm7.46-8.55,1.27-2.52-2.49-2.49-2.52,1.27-1.07-.45-.88-2.68h-3.53l-.88,2.68-1.07.45-2.52-1.27-2.49,2.49,1.27,2.52-.45,1.07-2.67.88v3.52l2.67.89.45,1.07-1.27,2.52,2.49,2.49,2.52-1.27,1.07.44.88,2.68h3.53l.88-2.68,1.07-.44,2.52,1.27,2.49-2.49-1.27-2.52.44-1.07,2.68-.89v-3.52l-2.68-.88Zm2,4.68-2.4.79-.83,2,1.14,2.26-1.37,1.37-2.26-1.14-2,.83-.79,2.4h-1.93l-.79-2.4-2-.83-2.26,1.14L251.05,444l1.14-2.26-.83-2-2.4-.79V437l2.4-.8.83-2-1.14-2.26,1.36-1.36,2.26,1.14,2-.84.79-2.4h1.93l.79,2.4,2,.84,2.26-1.14,1.37,1.36-1.14,2.26.83,2,2.4.8ZM279.15,432a3.18,3.18,0,1,0,3.18,3.18A3.18,3.18,0,0,0,279.15,432Zm0,5.27a2.09,2.09,0,1,1,2.08-2.09A2.1,2.1,0,0,1,279.15,437.23Zm5.26-4.61.88-1.75L283.42,429l-1.76.88-.57-.24-.62-1.86h-2.65l-.61,1.86-.58.24-1.76-.88L273,430.87l.89,1.75-.24.58-1.87.62v2.64l1.87.62.24.58-.89,1.75,1.87,1.87,1.76-.88.58.24.61,1.86h2.65l.62-1.86.57-.24,1.76.88,1.87-1.87-.88-1.75.24-.58,1.86-.62v-2.64l-1.86-.62Zm1,3.05-1.59.52-.62,1.51.75,1.5-.75.74-1.49-.75-1.51.63-.52,1.58h-1.06l-.53-1.58-1.51-.63-1.49.75-.75-.74.75-1.5-.62-1.51-1.59-.52v-1.06l1.59-.52.62-1.51-.75-1.5.75-.74,1.49.75,1.51-.63.53-1.58h1.06l.52,1.58,1.51.63,1.49-.75.75.74-.75,1.5.62,1.51,1.59.52ZM57.08,273.5a3.19,3.19,0,1,0-3.18-3.18A3.19,3.19,0,0,0,57.08,273.5Zm0-5.27A2.09,2.09,0,1,1,55,270.32,2.1,2.1,0,0,1,57.08,268.23Zm-4.27,8.23,1.76-.88.57.24.62,1.86h2.65l.61-1.86.58-.24,1.75.88,1.88-1.87-.89-1.76.24-.57,1.87-.62V269l-1.87-.61-.24-.58.89-1.75-1.88-1.88-1.75.89-.58-.24L58.41,263H55.76l-.62,1.87-.57.24-1.76-.89-1.87,1.88.88,1.75-.24.58-1.86.61v2.65l1.86.62.24.57-.88,1.76Zm-2-5.61v-1.06l1.59-.53.62-1.5-.75-1.5.75-.75,1.49.76,1.51-.63.52-1.59h1.06l.53,1.59,1.51.63,1.49-.76.75.75-.76,1.5.63,1.5,1.59.53v1.06l-1.59.52-.63,1.51.76,1.49-.75.75-1.49-.75-1.51.62-.53,1.59H56.55L56,275l-1.51-.62-1.49.75-.75-.75.75-1.49-.62-1.51ZM163.75,115.53a3.19,3.19,0,1,0-3.18-3.18A3.19,3.19,0,0,0,163.75,115.53Zm0-5.27a2.09,2.09,0,1,1-2.08,2.09A2.1,2.1,0,0,1,163.75,110.26Zm-7.36.76v2.65l1.86.62.24.58-.88,1.75,1.87,1.87,1.76-.88.57.24.62,1.86h2.65l.61-1.86.58-.24,1.75.88,1.88-1.87-.89-1.75.24-.58,1.87-.62V111l-1.87-.61-.24-.58.89-1.75L168,106.2l-1.75.89-.58-.24-.61-1.87h-2.65l-.62,1.87-.57.24-1.76-.89-1.87,1.88.88,1.75-.24.58Zm2.56-2.73.75-.75,1.49.76,1.51-.63.52-1.59h1.06l.53,1.59,1.51.63,1.49-.76.75.75-.76,1.5.63,1.5,1.59.53v1.06l-1.59.52-.63,1.51.76,1.49-.75.75-1.49-.75-1.51.62-.53,1.59h-1.06L162.7,117l-1.51-.62-1.49.75-.75-.75.75-1.49-.62-1.51-1.59-.52v-1.06l1.59-.53.62-1.5Zm191.1,206.53a3.18,3.18,0,1,0,3.19,3.18A3.18,3.18,0,0,0,350.05,314.82Zm0,5.26a2.08,2.08,0,1,1,2.09-2.08A2.08,2.08,0,0,1,350.05,320.08Zm7.37-.76v-2.64l-1.87-.62-.24-.58.89-1.75-1.88-1.87-1.75.88-.58-.24-.61-1.86h-2.65l-.62,1.86-.58.24-1.75-.88-1.87,1.87.88,1.75-.24.58-1.86.62v2.64l1.86.62.24.58-.88,1.75,1.87,1.87,1.75-.88.58.24.62,1.86h2.65l.61-1.86.58-.24,1.75.88,1.88-1.87-.89-1.75.24-.58Zm-2.56,2.74-.75.74-1.5-.75-1.51.63-.52,1.58h-1.06l-.52-1.58-1.51-.63-1.49.75-.75-.74.75-1.5-.63-1.51-1.58-.52v-1.06l1.58-.52.63-1.51-.75-1.5.75-.74,1.49.75,1.51-.63.52-1.58h1.06l.52,1.58,1.51.63,1.5-.75.75.74-.76,1.5.63,1.51,1.59.52v1.06l-1.59.52-.63,1.51Zm1-57a3.19,3.19,0,1,0,3.18,3.19A3.19,3.19,0,0,0,355.82,265.06Zm0,5.27a2.09,2.09,0,1,1,2.08-2.08A2.09,2.09,0,0,1,355.82,270.33Zm7.36-.76v-2.65l-1.86-.61-.24-.58L362,264l-1.87-1.88-1.75.89-.58-.24-.62-1.87h-2.65l-.61,1.87-.58.24-1.75-.89L349.67,264l.89,1.75-.24.58-1.87.61v2.65l1.87.62.24.57-.89,1.76,1.88,1.87,1.75-.88.58.24.61,1.86h2.65l.62-1.86.58-.24,1.75.88,1.87-1.87-.88-1.76.24-.57Zm-2.56,2.73-.75.75-1.49-.75-1.51.62-.52,1.59h-1.06l-.52-1.59-1.51-.62-1.5.75-.75-.75.76-1.49-.63-1.51-1.59-.52v-1.06l1.59-.53.63-1.51-.76-1.49.75-.75,1.5.76,1.51-.63.52-1.59h1.06l.52,1.59,1.51.63,1.49-.76.75.75-.75,1.49.62,1.51,1.59.53v1.06l-1.59.52-.62,1.51Zm74.14-11.59a5.94,5.94,0,1,0,5.93,5.94A5.95,5.95,0,0,0,434.76,260.71Zm0,10.77a4.84,4.84,0,1,1,4.83-4.83A4.84,4.84,0,0,1,434.76,271.48Zm7.46-8.55,1.26-2.52L441,257.92l-2.52,1.27-1.07-.44-.88-2.68H433l-.89,2.68-1.07.44-2.52-1.27L426,260.41l1.27,2.52-.44,1.07-2.68.89v3.52l2.68.88.44,1.07L426,272.88l2.49,2.49L431,274.1l1.07.45.89,2.68h3.52l.88-2.68,1.07-.45,2.52,1.27,2.49-2.49-1.26-2.52.44-1.07,2.68-.88v-3.52l-2.68-.89Zm2,4.68-2.41.79-.82,2,1.13,2.26L440.78,274l-2.26-1.14-2,.83-.79,2.41h-1.94l-.79-2.41-2-.83L428.74,274l-1.37-1.36,1.14-2.26-.83-2-2.4-.79v-1.93l2.4-.79.83-2-1.14-2.26,1.37-1.37L431,260.4l2-.83.79-2.4h1.94l.79,2.4,2,.83,2.26-1.14,1.36,1.37L441,262.89l.82,2,2.41.79Zm-29.73.54a3.19,3.19,0,1,0-3.19-3.18A3.19,3.19,0,0,0,414.51,268.15Zm0-5.27a2.09,2.09,0,1,1-2.09,2.09A2.09,2.09,0,0,1,414.51,262.88Zm-7.37.76v2.65l1.87.62.24.57-.89,1.76,1.87,1.87,1.76-.88.58.24.61,1.86h2.65l.62-1.86.57-.24,1.76.88,1.87-1.87-.88-1.76.24-.57,1.86-.62v-2.65L420,263l-.24-.58.88-1.75-1.87-1.88-1.76.89-.57-.24-.62-1.87h-2.65l-.61,1.87-.58.24-1.76-.89-1.87,1.88.89,1.75L409,263Zm2.56-2.73.75-.75,1.49.76,1.51-.63.53-1.59H415l.52,1.59,1.51.63,1.49-.76.75.75-.75,1.5.62,1.5,1.59.53v1.06l-1.59.52-.62,1.51.75,1.49-.75.75-1.49-.75-1.51.62-.52,1.59H414l-.53-1.59-1.51-.62-1.49.75-.75-.75.75-1.49-.62-1.51-1.59-.52v-1.06l1.59-.53.62-1.5ZM312.85,403.19a3.19,3.19,0,1,0-3.18-3.19A3.19,3.19,0,0,0,312.85,403.19Zm0-5.27a2.09,2.09,0,1,1-2.08,2.08A2.09,2.09,0,0,1,312.85,397.92Zm-7.36.76v2.65l1.86.61.24.58-.88,1.75,1.87,1.88,1.75-.89.58.24.62,1.87h2.65l.61-1.87.58-.24,1.75.89,1.87-1.88-.88-1.75.24-.58,1.86-.61v-2.65l-1.86-.62-.24-.58.88-1.75-1.87-1.87-1.75.88-.58-.24-.61-1.86h-2.65l-.62,1.86-.58.24-1.75-.88-1.87,1.87.88,1.75-.24.58Zm2.56-2.73.74-.75,1.5.75,1.51-.62.52-1.59h1.06l.52,1.58,1.51.63,1.5-.75.74.75-.75,1.49.63,1.51,1.58.52v1.06l-1.58.53-.63,1.5.75,1.5-.74.75-1.5-.76-1.51.63-.52,1.59h-1.06l-.52-1.59-1.51-.63-1.5.76-.74-.75.75-1.5-.63-1.5-1.58-.53v-1.06l1.58-.52.63-1.51Zm33.13,14.82a3.19,3.19,0,1,0,3.19,3.19A3.19,3.19,0,0,0,341.18,410.77Zm0,5.27a2.09,2.09,0,1,1,2.09-2.08A2.08,2.08,0,0,1,341.18,416Zm5.26-4.6.89-1.76-1.88-1.87-1.75.88-.58-.23-.61-1.87h-2.65l-.62,1.87-.57.23-1.76-.88L335,409.69l.88,1.75-.24.58-1.86.61v2.65l1.86.62.24.57-.88,1.76,1.87,1.87,1.76-.88.57.23.62,1.87h2.65l.61-1.87.58-.23,1.75.88,1.88-1.87-.89-1.76.24-.57,1.87-.62v-2.65l-1.87-.61Zm1,3-1.59.53-.62,1.51L346,418l-.75.75-1.49-.75-1.51.62-.53,1.59h-1.06l-.52-1.59-1.51-.62-1.49.75-.75-.75.75-1.49-.62-1.51-1.59-.53v-1.05l1.59-.53.62-1.51-.75-1.49.75-.75,1.49.75,1.51-.62.52-1.59h1.06l.53,1.59,1.51.62,1.49-.75.75.75-.75,1.49.62,1.51,1.59.53Zm-36.14,12a3.18,3.18,0,1,0,3.18,3.18A3.18,3.18,0,0,0,311.31,426.5Zm0,5.27a2.09,2.09,0,1,1,2.08-2.09A2.1,2.1,0,0,1,311.31,431.77Zm5.26-4.61.88-1.75-1.87-1.87-1.75.88-.58-.24-.62-1.86H310l-.61,1.86-.58.24-1.75-.88-1.88,1.87.89,1.75-.24.58-1.87.62V431l1.87.62.24.58-.89,1.75,1.88,1.87,1.75-.88.58.24L310,437h2.65l.62-1.86.58-.24,1.75.88,1.87-1.87-.88-1.75.24-.58,1.86-.62v-2.64l-1.86-.62Zm1,3-1.59.52-.62,1.51.75,1.5-.75.74-1.49-.75-1.51.63-.52,1.58h-1.06l-.52-1.58-1.51-.63-1.5.75-.75-.74.76-1.5-.63-1.51-1.59-.52v-1.06l1.59-.52.63-1.51-.76-1.5.75-.74,1.5.75,1.51-.63.52-1.58h1.06l.52,1.58,1.51.63,1.49-.75.75.74-.75,1.5.62,1.51,1.59.52ZM436.22,284.15a3.19,3.19,0,1,0,3.18,3.19A3.19,3.19,0,0,0,436.22,284.15Zm0,5.27a2.09,2.09,0,1,1,2.08-2.08A2.09,2.09,0,0,1,436.22,289.42Zm5.26-4.6.88-1.75-1.87-1.88-1.76.89-.57-.24-.62-1.87h-2.65l-.61,1.87-.58.24-1.75-.89-1.88,1.88.89,1.75-.24.58-1.87.61v2.65l1.87.62.24.58-.89,1.75,1.88,1.87,1.75-.88.58.24.61,1.86h2.65l.62-1.86.57-.24,1.76.88,1.87-1.87-.88-1.75.24-.58,1.86-.62V286l-1.86-.61Zm1,3.05-1.59.52-.62,1.51.75,1.49-.75.75-1.49-.75-1.51.63-.52,1.58h-1.06l-.53-1.58-1.51-.63-1.49.75-.75-.75.76-1.49-.63-1.51-1.59-.52v-1.06l1.59-.52.63-1.51-.76-1.5.75-.75,1.49.76,1.51-.63.53-1.59h1.06l.52,1.59,1.51.63,1.49-.76.75.75-.75,1.5.62,1.51,1.59.52ZM360.74,56.33a3.19,3.19,0,1,0-3.18-3.19A3.19,3.19,0,0,0,360.74,56.33Zm0-5.27a2.09,2.09,0,1,1-2.08,2.08A2.09,2.09,0,0,1,360.74,51.06Zm-5.26,4.6-.88,1.76,1.87,1.87,1.75-.89.58.24.62,1.87h2.65l.61-1.87.58-.24,1.75.89,1.87-1.87L366,55.66l.24-.58,1.86-.61V51.82l-1.86-.61-.24-.58.88-1.76L365,47l-1.75.88-.58-.23-.61-1.87h-2.65l-.62,1.87-.58.23L356.47,47l-1.87,1.87.88,1.76-.24.58-1.86.61v2.65l1.86.61Zm-1-3,1.58-.53.63-1.51-.75-1.49.74-.75,1.5.75,1.51-.62.52-1.59h1.06l.52,1.59,1.51.62,1.5-.75.74.75-.75,1.49.63,1.51,1.59.53v1.05l-1.59.53-.63,1.51.75,1.49-.74.75-1.5-.75-1.51.62-.52,1.59h-1.06l-.52-1.59-1.51-.62-1.5.75-.74-.75.75-1.49-.63-1.51-1.58-.53Zm35.73,27.21A3.19,3.19,0,1,0,387,76.65,3.19,3.19,0,0,0,390.21,79.83Zm0-5.27a2.09,2.09,0,1,1-2.09,2.09A2.09,2.09,0,0,1,390.21,74.56ZM385,79.16l-.89,1.76,1.88,1.87,1.75-.88.58.24.61,1.86h2.65l.62-1.86.58-.24,1.75.88,1.87-1.87-.88-1.76.24-.57,1.86-.62V75.32l-1.86-.61-.24-.58.88-1.76-1.87-1.87-1.75.89-.58-.24-.62-1.87h-2.65l-.61,1.87-.58.24-1.75-.89-1.88,1.87.89,1.76-.24.58-1.87.61V78l1.87.62Zm-1-3,1.59-.53.63-1.51-.76-1.49.75-.75,1.5.75,1.51-.62.52-1.59h1.06l.52,1.59,1.51.62,1.49-.75.75.75-.75,1.49.62,1.51,1.59.53v1l-1.59.53-.62,1.51L395,80.7l-.75.75-1.49-.75-1.51.62-.52,1.59h-1.06l-.52-1.59-1.51-.62-1.5.75-.75-.75.76-1.49-.63-1.51-1.59-.53Zm57.55,111.76a5.94,5.94,0,1,0,5.93,5.93A5.94,5.94,0,0,0,441.49,187.88Zm0,10.77a4.84,4.84,0,1,1,4.83-4.84A4.84,4.84,0,0,1,441.49,198.65Zm10.57-3.08v-3.52l-2.67-.88-.45-1.07,1.27-2.52-2.49-2.49-2.52,1.27-1.07-.45-.88-2.68h-3.52l-.89,2.68-1.07.45-2.52-1.27-2.49,2.49L434,190.1l-.44,1.07-2.68.88v3.52l2.68.89.44,1.07-1.27,2.52,2.49,2.49,2.52-1.27,1.07.44.89,2.68h3.52l.88-2.68,1.07-.44,2.52,1.27,2.49-2.49-1.27-2.52.45-1.07Zm-3.19,4.26-1.36,1.37-2.26-1.14-2,.83-.79,2.4h-1.93l-.79-2.4-2-.83-2.26,1.14-1.37-1.37,1.14-2.26-.83-2-2.4-.79v-1.93l2.4-.8.83-2-1.14-2.26,1.37-1.36,2.26,1.14,2-.83.79-2.41h1.93l.79,2.41,2,.83,2.26-1.14,1.36,1.36-1.14,2.26.83,2,2.41.8v1.93l-2.41.79-.83,2Zm-438,85.11A3.19,3.19,0,1,0,14,288.12,3.19,3.19,0,0,0,10.82,284.94Zm0,5.27a2.09,2.09,0,1,1,2.09-2.09A2.09,2.09,0,0,1,10.82,290.21ZM17,292.39l-.89-1.75.24-.58,1.87-.61V286.8l-1.87-.62-.24-.58.89-1.75L15.09,282l-1.75.88-.58-.24-.61-1.86H9.5l-.62,1.86-.57.24L6.55,282l-1.87,1.87.88,1.75-.24.58-1.86.62v2.65l1.86.61.24.58-.88,1.75,1.87,1.88,1.76-.89.57.24.62,1.87h2.65l.61-1.87.58-.24,1.75.89Zm-3.59-.22-1.5.63-.53,1.59H10.29l-.52-1.59-1.51-.63-1.49.76L6,292.18l.75-1.5-.62-1.5-1.59-.53v-1.06l1.59-.52.62-1.51L6,284.07l.75-.75,1.49.75,1.51-.62.52-1.59h1.06l.53,1.58,1.5.63,1.5-.75.75.75-.76,1.49.63,1.51,1.59.52v1.06l-1.59.53-.63,1.5.76,1.5-.75.75Zm387.1-38.94a3.18,3.18,0,1,0,3.19,3.18A3.18,3.18,0,0,0,400.48,253.23Zm0,5.26a2.09,2.09,0,1,1,2.09-2.08A2.08,2.08,0,0,1,400.48,258.49Zm4.27-8.22-1.75.88-.58-.24-.61-1.86h-2.65l-.62,1.86-.58.24-1.75-.88-1.87,1.87.88,1.75-.24.58-1.86.62v2.64l1.86.62.24.58-.88,1.75,1.87,1.87,1.75-.88.58.24.62,1.86h2.65l.61-1.86.58-.24,1.75.88,1.87-1.87-.88-1.75.24-.58,1.87-.62v-2.64l-1.87-.62-.24-.58.88-1.75Zm2,5.61v1.06l-1.59.52-.63,1.51.75,1.5-.74.74-1.5-.75-1.51.63-.52,1.58H400l-.52-1.58-1.51-.63-1.49.75-.75-.74.75-1.5-.63-1.51-1.58-.52v-1.06l1.58-.52.63-1.51-.75-1.5.75-.74,1.49.75,1.51-.63.52-1.58H401l.52,1.58,1.51.63,1.5-.75.74.74-.75,1.5.63,1.51Z" style="fill: url(#linear-gradient)"/>
    </g>
  </g>
</svg>
