<svg width="30" height="22" viewBox="0 0 30 22" fill="none" xmlns="http://www.w3.org/2000/svg">
<path d="M7.11255 21.54C5.19567 21.54 3.64145 20.8708 2.44988 19.5323C1.31012 18.1425 0.740234 16.3407 0.740234 14.1272C0.740234 11.2445 1.59506 8.56765 3.3047 6.09673C5.01435 3.57434 7.13845 1.69542 9.67702 0.459961L10.1433 1.38655C9.05533 2.21019 8.09689 3.26548 7.26797 4.55241C6.43905 5.83935 5.84327 7.43515 5.48062 9.33981L7.11255 9.7259C8.92581 10.1377 10.3246 10.9099 11.309 12.0424C12.3451 13.1234 12.8632 14.4361 12.8632 15.9804C12.8632 17.6277 12.2933 18.9661 11.1535 19.9956C10.0656 21.0252 8.71858 21.54 7.11255 21.54ZM23.5096 21.54C21.5927 21.54 20.0385 20.8708 18.8469 19.5323C17.7072 18.1425 17.1373 16.3407 17.1373 14.1272C17.1373 11.2445 17.9921 8.56765 19.7018 6.09673C21.4114 3.57434 23.5355 1.69542 26.0741 0.459961L26.5403 1.38655C25.4524 2.21019 24.4939 3.26548 23.665 4.55241C22.8361 5.83935 22.2403 7.43515 21.8777 9.33981L23.5096 9.7259C25.3229 10.1377 26.7217 10.9099 27.706 12.0424C28.7422 13.1234 29.2602 14.4361 29.2602 15.9804C29.2602 17.6277 28.6904 18.9661 27.5506 19.9956C26.4626 21.0252 25.1156 21.54 23.5096 21.54Z" fill="url(#paint0_linear)"/>
<defs>
<linearGradient id="paint0_linear" x1="7.39491" y1="-18.3615" x2="14.9802" y2="25.8948" gradientUnits="userSpaceOnUse">
<stop offset="0.538232" stop-color="#55E5C7"/>
<stop offset="0.927166" stop-color="#00ABE1"/>
</linearGradient>
</defs>
</svg>
