<?xml version="1.0" encoding="UTF-8"?> <svg xmlns="http://www.w3.org/2000/svg" width="140" height="34" viewBox="0 0 140 34" fill="none"><path d="M22.89 10.5307L28.5709 4.88669C25.4218 1.76864 21.1695 0.0192588 16.7379 0.0186471C14.5471 0.0113566 12.3763 0.435647 10.3495 1.26729C8.32272 2.09894 6.4796 3.32165 4.92534 4.86562C3.37108 6.40959 2.13619 8.24458 1.2911 10.2658C0.446003 12.2871 0.00726625 14.4549 0 16.6457C0.00605312 18.8369 0.443951 21.0053 1.28862 23.0271C2.13328 25.0489 3.36813 26.8843 4.92263 28.4286C6.47714 29.9728 8.32082 31.1954 10.3482 32.0266C12.3755 32.8579 14.5468 33.2813 16.7379 33.2728C18.9373 33.277 21.1156 32.8448 23.1467 32.0013C25.1779 31.1577 27.0215 29.9196 28.5709 28.3586L22.89 22.7239C21.2523 24.3439 19.0416 25.2526 16.7379 25.2526C14.4343 25.2526 12.2236 24.3439 10.5859 22.7239C9.77817 21.9234 9.13705 20.9709 8.69952 19.9213C8.26198 18.8718 8.03672 17.7459 8.03672 16.6088C8.03672 15.4717 8.26198 14.3458 8.69952 13.2962C9.13705 12.2466 9.77817 11.2941 10.5859 10.4937C12.2236 8.87361 14.4343 7.96492 16.7379 7.96492C19.0416 7.96492 21.2523 8.87361 22.89 10.4937" fill="black"></path><path d="M91.0332 19.1212C91.0353 20.6783 90.4817 22.185 89.4721 23.3704C88.8828 24.0179 88.1569 24.5263 87.3469 24.8586C86.5369 25.1909 85.6631 25.3388 84.7888 25.2917C79.8469 25.2917 78.5445 21.2181 78.5445 19.075V0.0185547H70.5542V19.1212C70.5542 26.003 75.5608 33.3097 84.835 33.3097C86.8527 33.3589 88.8571 32.9716 90.7113 32.1745C92.5654 31.3774 94.2255 30.1891 95.578 28.691C97.8492 26.0215 99.088 22.6261 99.0696 19.1212V0.0185547H91.0332V19.1212Z" fill="black"></path><path d="M50.9434 15.6572H44.1817V8.01795H50.9157C51.9139 8.00305 52.8776 8.38287 53.5972 9.07481C54.3168 9.76675 54.7342 10.7148 54.7584 11.7129V11.796C54.7584 12.8127 54.3545 13.7877 53.6356 14.5067C52.9167 15.2256 51.9416 15.6295 50.9249 15.6295L50.9434 15.6572ZM62.7948 11.796C62.7923 8.66985 61.55 5.67231 59.3404 3.46093C57.1307 1.24954 54.1342 0.00489129 51.0081 0H36.173L36.0991 33.2542H44.1263V23.6105H48.2277L53.5853 33.2449H62.7579L56.5966 22.1602C58.4606 21.1478 60.0173 19.6518 61.1031 17.8296C62.1889 16.0075 62.7637 13.9264 62.7671 11.8052" fill="black"></path><path d="M140 5.67131L134.319 0.0273438L123.271 11.0012L112.233 0.0273438L106.552 5.67131L117.59 16.6452L106.552 27.6098L112.233 33.2538L123.271 22.2799L134.319 33.2538L140 27.6098L128.952 16.6452L140 5.67131Z" fill="#ED1C24"></path></svg> 