<?xml version="1.0" encoding="UTF-8"?> <svg xmlns="http://www.w3.org/2000/svg" width="143.563" height="33.5" viewBox="0 0 143.563 33.5"><g id="pismo-logo-orange-transparent" transform="translate(-60 -60)"><path id="Path_8225" data-name="Path 8225" d="M466.184,60a1.675,1.675,0,0,0-1.675,1.675v.279a1.675,1.675,0,0,0,3.35,0v-.279A1.675,1.675,0,0,0,466.184,60Z" transform="translate(-348.046)" fill="#ffa945"></path><path id="Path_8226" data-name="Path 8226" d="M304.609,118.012a10.05,10.05,0,0,0-20.1,0v15.113a1.675,1.675,0,0,0,3.35,0v-7.579a10.054,10.054,0,0,0,16.75-7.534Zm-3.35.019a6.7,6.7,0,1,1-6.681-6.681A6.64,6.64,0,0,1,301.259,118.031Z" transform="translate(-193.171 -41.3)" fill="#ffa945" fill-rule="evenodd"></path><path id="Path_8227" data-name="Path 8227" d="M964.609,118.012A10.05,10.05,0,1,0,954.6,128.1,10.009,10.009,0,0,0,964.609,118.012Zm-3.35.019a6.7,6.7,0,1,1-6.682-6.681A6.64,6.64,0,0,1,961.259,118.031Z" transform="translate(-761.046 -41.3)" fill="#ffa945" fill-rule="evenodd"></path><path id="Path_8228" data-name="Path 8228" d="M681.359,118.05a10.053,10.053,0,0,0-18.423-5.566,10.056,10.056,0,0,0-18.427,5.566v8.375a1.675,1.675,0,0,0,3.35,0V118.05a6.7,6.7,0,0,1,13.4,0v8.375a1.675,1.675,0,0,0,3.35,0V118.05a6.7,6.7,0,0,1,13.4,0v8.375a1.675,1.675,0,0,0,3.35,0Z" transform="translate(-502.921 -41.3)" fill="#ffa945"></path><path id="Path_8229" data-name="Path 8229" d="M524.509,113.851A5.824,5.824,0,0,1,530.383,108a6.678,6.678,0,0,1,3.239.935A10.333,10.333,0,0,1,535.9,110.7a1.675,1.675,0,0,1-2.4,2.335,6.983,6.983,0,0,0-1.521-1.182,3.375,3.375,0,0,0-1.593-.5,2.475,2.475,0,0,0-2.524,2.5,1.592,1.592,0,0,0,.771,1.323,11.071,11.071,0,0,0,1.965,1.115h0l0,0,.185.09.064.031a1.672,1.672,0,0,1,.4.139c.125.062.262.129.408.2a14.882,14.882,0,0,1,2.663,1.538,4.914,4.914,0,0,1,2.058,3.962A5.825,5.825,0,0,1,530.5,128.1a6.679,6.679,0,0,1-3.239-.935,10.34,10.34,0,0,1-2.278-1.765,1.675,1.675,0,1,1,2.4-2.335,6.984,6.984,0,0,0,1.521,1.182,3.375,3.375,0,0,0,1.593.5,2.475,2.475,0,0,0,2.524-2.5,1.592,1.592,0,0,0-.771-1.323,11.073,11.073,0,0,0-1.965-1.115h0l-.252-.123a1.669,1.669,0,0,1-.4-.139c-.125-.062-.262-.128-.407-.2h0a14.88,14.88,0,0,1-2.663-1.538A4.914,4.914,0,0,1,524.509,113.851Z" transform="translate(-399.671 -41.3)" fill="#ffa945"></path><path id="Path_8230" data-name="Path 8230" d="M464.509,109.675a1.675,1.675,0,0,1,3.35,0v16.75a1.675,1.675,0,0,1-3.35,0Z" transform="translate(-348.046 -41.3)" fill="#ffa945"></path><path id="Path_8231" data-name="Path 8231" d="M144.325,97.636c2.223,2.3,4.456,4.619,6.846,2.331a3.013,3.013,0,0,0,.711-2.645c-1.241-5.433-8.529-5.655-11.737-2.883l0,.021C141.561,94.771,142.941,96.2,144.325,97.636Z" transform="translate(-68.959 -28.127)" fill="#ffa945"></path><path id="Path_8232" data-name="Path 8232" d="M196.709,156.941c-2.915-1.566-1.4-4.406.1-7.231.937-1.76,1.87-3.514,1.73-4.952l.019-.01c3.628,2.195,5.67,9.194.886,12.053A3.014,3.014,0,0,1,196.709,156.941Z" transform="translate(-116.2 -72.918)" fill="#ffa945"></path><path id="Path_8233" data-name="Path 8233" d="M119.948,231.664c.588-3.256,3.756-2.7,6.909-2.139,1.963.347,3.92.693,5.245.115l.016.015c-.966,4.129-6.992,8.233-11.19,4.567A3.013,3.013,0,0,1,119.948,231.664Z" transform="translate(-51.553 -145.495)" fill="#ffa945"></path><path id="Path_8234" data-name="Path 8234" d="M83.378,96.868c1.438,2.98-1.454,4.389-4.332,5.791-1.792.873-3.579,1.744-4.311,2.989l-.021,0c-1.645-3.908.817-10.771,6.368-10.272A3.014,3.014,0,0,1,83.378,96.868Z" transform="translate(-12.227 -30.414)" fill="#ffa945"></path><path id="Path_8235" data-name="Path 8235" d="M66.78,175.336c-.444-3.17-.891-6.356-4.169-5.91a3.013,3.013,0,0,0-2.13,1.722c-2.19,5.125,3.576,9.588,7.8,9.231l.009-.019C67.332,179.279,67.056,177.311,66.78,175.336Z" transform="translate(0 -94.116)" fill="#ffa945"></path></g></svg> 