<svg width="227" height="40" viewBox="0 0 227 40" fill="none" xmlns="http://www.w3.org/2000/svg">
<path d="M29.9187 11.7039C33.6804 16.4746 35.2162 22.8579 34.0841 29.0176C39.9888 26.4596 42.2796 22.1702 42.9766 17.881C42.9766 17.881 44.9895 9.75273 48.1184 6.37402C41.9357 7.42799 41.3108 4.79306 29.9187 11.7106" fill="#08B1AB"/>
<path d="M20.4602 20.0112C19.2241 15.8639 17.0926 12.098 14.2437 9.02785C14.2437 9.02785 22.8414 11.4826 27.7913 28.9132C23.1208 27.3824 21.128 22.3759 20.4509 20.0112H20.4602ZM31.0983 31.418C31.2365 30.5842 33.515 22.1525 29.0011 15.305C21.4428 6.20614 10.0507 4.92871 10.0507 4.92871C12.2738 9.59818 12.3444 13.9575 14.7733 22.8463C17.7166 32.0485 28.5758 32.6687 29.3804 32.6855C30.1096 33.9363 31.7816 35.6206 35.6092 36.4912L36.0329 34.2997C32.7304 33.5493 31.5221 32.1685 31.1076 31.408" fill="#08B1AB"/>
<path d="M11.2693 2.25136C6.46524 4.7095 4.53842 10.7098 4.53842 19.882C4.53842 28.8874 6.46218 34.9245 11.2693 37.5594L10.7304 39.8106C3.34701 36.999 0 30.7485 0 19.9186C0 9.00543 3.34701 2.75166 10.7304 0L11.2693 2.25136Z" fill="#0A2540"/>
<path d="M46.8467 0C54.2363 2.74832 57.5756 9.00544 57.5756 19.9155C57.5756 30.7553 54.2286 36.999 46.8451 39.7874L46.2694 37.5393C51.0795 34.9145 53.0002 28.8674 53.0002 19.8619C53.0002 10.6898 51.0766 4.69617 46.2694 2.23802L46.8467 0Z" fill="#0A2540"/>
<path d="M79.5852 29.5308C77.358 30.4597 74.9845 30.9051 72.5995 30.8416C66.7237 30.8416 63.9002 28.0765 64.8093 21.0923C65.6476 14.5051 67.9658 11.8134 74.1132 11.8134C76.5286 11.7701 78.93 12.2145 81.1958 13.1243L80.3606 17.1601L74.887 17.1233C72.4014 17.1233 71.5617 18.0338 71.1578 21.3058C70.7202 24.908 71.2945 25.5617 73.711 25.5617C75.5278 25.5733 77.3438 25.4766 79.1507 25.2715L79.5852 29.5308Z" fill="#0A2540"/>
<path d="M89.394 21.6361C88.9241 25.3483 89.2251 26.2188 91.4115 26.2188C93.5268 26.2188 94.2014 25.2383 94.7368 21.1257C95.2723 17.3435 94.9062 16.4563 92.8549 16.4563C90.6391 16.4563 89.9666 17.3636 89.394 21.6261V21.6361ZM101.045 21.6395C100.124 28.4435 97.5881 30.8417 91.1933 30.8417C84.7988 30.8417 82.1043 28.2235 83.0424 21.1291C83.9206 14.2549 86.4693 11.8135 92.9547 11.8135C99.3674 11.8135 101.988 14.5085 101.049 21.6395" fill="#0A2540"/>
<path d="M114.111 16.0633C111.558 16.0633 110.955 16.6436 110.449 20.8296C110.047 24.1049 109.979 25.4124 111.49 25.3056C112.905 25.1564 114.232 24.4896 115.253 23.4144L116.157 16.0766L114.111 16.0633ZM120.456 30.4054H115.654L115.588 27.3502C113.885 29.3648 111.549 30.6112 109.04 30.8422C105.145 30.8422 103.399 27.8571 104.235 20.9462C105.157 13.3784 107.897 11.8141 111.49 11.8141C113.292 11.8135 115.091 11.9898 116.864 12.3411C116.846 11.0986 116.925 9.85683 117.1 8.62884L117.669 4.95996H123.775L120.456 30.4054Z" fill="#0A2540"/>
<path d="M134.764 19.6355C136.276 19.4887 137.079 19.2351 137.22 17.671C137.321 16.4702 136.884 16.2501 135.202 16.2868C133.151 16.3235 132.48 16.9772 131.945 19.9257L134.764 19.6355ZM141.448 29.388C139.009 30.4202 136.405 30.9146 133.788 30.8421C126.67 30.8421 124.73 27.4602 125.358 21.1297C126.126 13.6018 129.29 11.8174 135.299 11.8174C141.883 11.8174 143.612 14.1822 143.089 18.3213C142.618 21.7067 140.502 22.674 136.091 23.0507L131.557 23.4145C131.627 25.3456 132.498 25.7091 134.379 25.7091C135.853 25.7091 138.998 25.5257 141.026 25.2722L141.448 29.388Z" fill="#0A2540"/>
<path d="M156.224 7.20709C154.172 7.20709 153.335 7.71741 153.033 10.0421L152.666 12.6737H157.732L157.393 15.3854H152.325L150.109 32.449C150.065 33.9191 149.47 35.3059 148.462 36.2878C147.455 37.2698 146.121 37.7616 144.77 37.6487C143.413 37.6386 142.056 37.5406 140.71 37.3554L141.214 34.7337H143.732C145.75 34.7337 146.586 34.2234 146.893 31.8986L149.042 15.3887H146.125L146.432 12.8405L149.421 12.6604L149.826 9.49183C149.865 8.02072 150.463 6.63295 151.477 5.65666C152.49 4.68037 153.83 4.20226 155.179 4.33536C156.783 4.31388 158.386 4.39854 159.981 4.58885L159.445 7.22378L156.224 7.20709Z" fill="#0A2540"/>
<path d="M171.54 15.4887H170.617C168.775 15.4887 166.991 16.8229 164.152 19.0909L162.708 30.4045H159.449L161.764 12.6504H164.251L164.083 16.7262C166.691 13.8178 169.251 12.1768 171.471 12.1768H172.345L171.54 15.4887Z" fill="#0A2540"/>
<path d="M182.857 20.4365C184.873 20.2933 185.744 19.6762 186.012 17.6349C186.318 15.1968 185.175 15.1335 182.555 15.1335C179.233 15.1335 178.09 16.1141 177.385 20.9903L182.857 20.4365ZM187.557 29.8256C185.369 30.5514 183.089 30.896 180.803 30.8462C175.122 30.8462 173.18 27.6776 173.983 21.0604C174.858 14.1462 177.105 12.1816 183.042 12.1816C188.414 12.1816 189.725 14.3663 189.254 17.9317C188.717 21.4606 186.837 22.7347 182.841 23.0616L177.161 23.6086C177.127 27.174 178.672 27.8978 181.289 27.8978C183.105 27.8978 185.454 27.681 187.337 27.4608L187.557 29.8256Z" fill="#0A2540"/>
<path d="M196.556 21.6003C194.207 20.3995 193.098 19.0188 193.399 16.4304C193.77 13.0484 196.02 12.0945 200.318 12.1745C202.668 12.2177 205.01 12.4249 207.336 12.7949L206.932 15.2964C204.852 15.2264 202.9 15.1497 200.416 15.1129C197.728 15.1129 196.722 15.1863 196.554 16.6772C196.387 18.0113 197.166 18.3883 198.504 19.042L202.938 21.2266C205.489 22.5008 206.532 23.6281 206.192 26.3564C205.691 30.3955 203.037 30.7958 198.433 30.7958C196.309 30.8007 194.188 30.63 192.089 30.2855L192.457 27.6672C193.97 27.8107 196.084 27.8506 197.596 27.8506C201.729 27.8506 202.802 27.4871 203.003 26.0296C203.203 24.7221 202.389 24.5019 200.953 23.7748L196.556 21.6003Z" fill="#0A2540"/>
<path d="M216.173 11.9227C215.983 13.3939 215.715 14.8517 215.367 16.2887C218.216 13.5605 220.596 12.1729 222.951 12.1729C224.156 12.0033 225.358 12.5082 226.145 13.5144C226.933 14.5205 227.198 15.8912 226.849 17.1559L225.103 30.3972H221.879L223.457 18.0298C223.727 15.8084 223.356 15.1547 221.946 15.1547C219.928 15.1547 217.983 16.6456 215.173 19.0471L213.729 30.3873H210.463L213.786 4.92188H217.01L216.173 11.9227Z" fill="#0A2540"/>
</svg>
