<?xml version="1.0" encoding="UTF-8"?> <svg xmlns="http://www.w3.org/2000/svg" width="104" height="29" viewBox="0 0 104 29" fill="none"><path d="M17.3735 8.54945C17.0093 6.98849 16.1447 5.8939 14.7179 5.29549C13.8856 4.9554 12.9934 4.78594 12.0943 4.79718C11.2317 4.77718 10.3761 4.95553 9.59337 5.31847C8.81062 5.68141 8.12168 6.21925 7.57965 6.89053C6.38497 8.28325 5.82064 10.3425 5.82064 13.1322C5.82064 15.922 6.45951 17.9131 7.73724 19.0758C8.90465 20.2026 10.4633 20.8331 12.0858 20.8348C13.6808 20.8348 15.0075 20.3706 16.0042 19.474C17.044 18.5296 17.7149 17.2467 17.8973 15.8538H12.6182V12.0036H22.1224V24.2208H18.9685L18.5021 21.3672C17.5736 22.432 16.7751 23.1922 16.0127 23.6565C14.752 24.421 13.223 24.8192 11.3639 24.8192C8.34203 24.8192 5.88666 23.7906 3.92747 21.6973C1.90227 19.6061 0.90564 16.7163 0.90564 13.0662C0.90564 9.37997 1.93421 6.42629 3.95942 4.20091C5.98462 1.97552 8.67424 0.846863 12.0283 0.846863C14.916 0.846863 17.2421 1.5773 19.0068 3.03817C19.8485 3.71218 20.5483 4.54624 21.0658 5.49217C21.5834 6.43811 21.9085 7.4772 22.0223 8.54945H17.3735Z" fill="black"></path><path d="M39.5783 22.1636C38.1515 23.9247 35.9942 24.7872 33.1044 24.7872C30.2146 24.7872 28.0595 23.9354 26.6306 22.1636C25.2017 20.3918 24.501 18.2793 24.501 15.8218C24.501 13.3984 25.1974 11.2731 26.6306 9.51407C28.0574 7.72099 30.2168 6.85852 33.1044 6.85852C35.9921 6.85852 38.1515 7.75293 39.5783 9.51407C41.0072 11.3072 41.7078 13.3984 41.7078 15.8218C41.7036 18.2793 40.9731 20.4046 39.5783 22.1636ZM36.0368 19.7402C36.7353 18.8117 37.0654 17.5169 37.0654 15.8239C37.0654 14.1309 36.7332 12.8426 36.0368 11.9396C35.3405 11.0367 34.3438 10.5767 33.0831 10.5767C31.7884 10.5767 30.7917 11.0431 30.1018 11.9396C29.4118 12.8362 29.0732 14.1629 29.0732 15.8239C29.0732 17.5276 29.4054 18.8053 30.1018 19.7402C30.7981 20.675 31.8054 21.101 33.0831 21.101C34.3609 21.101 35.3617 20.6367 36.0368 19.7402Z" fill="black"></path><path d="M58.3822 22.1636C56.9533 23.9247 54.796 24.7872 51.9084 24.7872C49.0207 24.7872 46.8613 23.9354 45.4345 22.1636C44.0077 20.3918 43.305 18.2793 43.305 15.8218C43.305 13.3984 44.0014 11.2731 45.4345 9.51407C46.8613 7.72099 49.0186 6.85852 51.9084 6.85852C54.7982 6.85852 56.9533 7.75293 58.3822 9.51407C59.809 11.3072 60.5118 13.3984 60.5118 15.8218C60.5075 18.2793 59.809 20.4046 58.3822 22.1636ZM54.8621 19.7402C55.5584 18.8117 55.8906 17.5169 55.8906 15.8239C55.8906 14.1309 55.5584 12.8426 54.8621 11.9396C54.1657 11.0367 53.1691 10.5767 51.9062 10.5767C50.6115 10.5767 49.617 11.0431 48.9249 11.9396C48.2328 12.8362 47.8963 14.1629 47.8963 15.8239C47.8963 17.5276 48.2285 18.8053 48.9249 19.7402C49.6212 20.675 50.6179 21.101 51.9062 21.101C53.1691 21.101 54.1636 20.6367 54.8621 19.7402Z" fill="black"></path><path d="M72.0966 7.66142C72.8838 8.11089 73.5463 8.74994 74.0238 9.52051V1.48572H78.5065V24.2293H74.2219V21.8975C73.6886 22.7901 72.9488 23.5416 72.0646 24.0888C71.266 24.553 70.2715 24.7532 69.0832 24.7532C67.1241 24.7532 65.4637 23.956 64.1022 22.3617C62.7393 20.7688 62.077 18.7415 62.077 16.2201C62.077 13.3296 62.7407 11.0715 64.0682 9.44598C65.397 7.78706 67.156 6.95653 69.392 6.95653C70.3401 6.94747 71.2735 7.19075 72.0966 7.66142V7.66142ZM73.1613 19.6465C73.8258 18.718 74.1239 17.517 74.1239 16.0604C74.1239 14.0032 73.5915 12.5423 72.5629 11.6458C71.9421 11.1186 71.152 10.8328 70.3376 10.8408C69.0428 10.8408 68.1143 11.3391 67.5159 12.3017C66.9175 13.2643 66.6194 14.493 66.6194 15.9219C66.6194 17.4829 66.9196 18.7117 67.55 19.6401C68.1477 20.5686 69.0769 21.0336 70.3376 21.035C71.5663 21.035 72.5289 20.5686 73.1613 19.6401V19.6465Z" fill="black"></path><path d="M84.1498 14.0606V24.4209L81.9904 24.3868V1.60065H90.9218C93.4446 1.60065 95.3704 2.0656 96.6992 2.9955C98.0281 3.92541 98.6925 5.45229 98.6925 7.57617C98.6925 9.0051 98.3922 10.1657 97.8407 10.9962C97.2891 11.8268 96.301 12.5487 95.0062 13.1556C95.6204 13.3495 96.1713 13.7047 96.6013 14.1842C96.9777 14.6375 97.2698 15.1546 97.4637 15.7111C97.6618 16.2754 102.575 26.2694 102.709 26.6016C102.876 26.9566 103.101 27.2818 103.373 27.5641C103.535 27.6982 103.714 27.81 103.906 27.8963V28.0944L101.514 28.1285C101.053 27.6841 100.701 27.1389 100.486 26.5356C100.219 25.803 95.1404 15.7451 94.8742 15.3788C94.6053 15.0218 94.2518 14.7371 93.8456 14.5504C93.4207 14.3395 92.9582 14.215 92.4848 14.1842C91.9787 14.1169 91.4686 14.0835 90.958 14.0841H84.1434L84.1498 14.0606ZM90.8557 12.2016C91.6056 12.2029 92.3528 12.1136 93.0811 11.9354C93.726 11.7921 94.3356 11.5213 94.8742 11.1389C95.3741 10.7717 95.7828 10.2944 96.0689 9.74405C96.3754 9.10295 96.5215 8.39699 96.4948 7.6869C96.5138 6.96139 96.3536 6.24239 96.0284 5.59355C95.7452 5.0575 95.3202 4.6096 94.7997 4.29879C94.2595 3.97044 93.663 3.74515 93.0407 3.63437C92.3623 3.50147 91.6726 3.43513 90.9814 3.43632H84.1498V12.2016H90.8557Z" fill="black"></path><path d="M103.827 14.525C103.428 14.7245 103.077 15.0078 102.798 15.3555C102.5 15.7196 95.9837 25.8137 95.594 26.5101C95.2618 27.1085 94.9296 27.7388 94.5654 28.1051L92.174 28.071V27.8708C92.3619 27.7779 92.5402 27.6666 92.7063 27.5386C92.9692 27.2484 93.1926 26.9247 93.3708 26.5761C93.5028 26.2439 99.8765 16.1839 100.209 15.6877C100.635 15.0488 100.635 15.0488 101.005 14.591C101.371 14.1651 103.135 14.2268 103.829 14.2268L103.827 14.525Z" fill="black"></path></svg> 