<?xml version="1.0" encoding="utf-8"?>
<!-- Generator: Adobe Illustrator 25.3.1, SVG Export Plug-In . SVG Version: 6.00 Build 0)  -->
<svg version="1.1" id="Layer_1" xmlns="http://www.w3.org/2000/svg" xmlns:xlink="http://www.w3.org/1999/xlink" x="0px" y="0px" width="120.3" height="40.9"
	 viewBox="0 0 120.3 40.9" enable-background="new 0 0 120.3 40.9" xml:space="preserve">
<g id="Layer_2_1_">
	<g id="Layer_1-2">
		<g id="Page-1">
			<g id="HomePage">
				<g id="navigation_desktop_main-nav">
					<g id="MNTN_Logo_Colored_White_Horizontal">
						<path id="Path" d="M56.9,29.1v-7.8c0-1.9-1-3.7-3-3.7s-3.1,1.7-3.1,3.7v7.8h-3.6V14.5h3.3l0.3,1.8c0.8-1.3,2.3-2.1,3.8-2
							c1.9-0.1,3.6,1,4.3,2.8c1-1.7,2.9-2.8,4.9-2.7c4.1,0,6.2,2.5,6.2,6.9v7.9h-3.6v-7.9c0-1.9-0.8-3.5-2.7-3.5
							c-1.8,0.1-3.3,1.6-3.2,3.4c0,0.1,0,0.1,0,0.2v7.8L56.9,29.1z"/>
						<path id="Path-2" d="M85.1,29.1v-7.6c0-2.2-1.2-3.9-3.5-3.9c-2.1,0.1-3.8,1.8-3.7,3.9c0,0,0,0.1,0,0.1v7.4h-3.6V14.5h3.2
							l0.2,2c1.2-1.4,3-2.2,4.8-2.2c3.4,0,6.2,2.6,6.2,7.1v7.7L85.1,29.1z"/>
						<path id="Path-3" d="M97.8,10.4v4.2h4v3.1h-4v6.3c-0.1,1,0.6,1.9,1.5,2c0.1,0,0.2,0,0.3,0c0.6,0,1.2-0.2,1.7-0.5l1,3.1
							c-1,0.4-2,0.6-3,0.6c-3.2,0.1-5.2-1.7-5.2-5.3v-6.3h-2.7v-3.1h2.7v-3.8L97.8,10.4z"/>
						<path id="Path-4" d="M116.7,29.1v-7.6c0-2.2-1.2-3.9-3.5-3.9c-2.1,0.1-3.8,1.8-3.7,3.9c0,0,0,0.1,0,0.1v7.4h-3.6V14.5h3.2
							l0.2,2c1.2-1.4,3-2.2,4.8-2.2c3.4,0,6.2,2.6,6.2,7.1v7.7L116.7,29.1z"/>
						<polygon id="Path-5" fill="none" points="19.5,19.6 19.5,19.6 22.6,24.9 22.6,24.9 19.5,19.6 						"/>
						<path id="Path-6" fill="#1AC9AA" d="M19.6,19.6L19.6,19.6L19.6,19.6L19.6,19.6l-0.5-0.9l-4.9-8.4c0-0.1-0.1-0.1-0.1-0.2
							c-0.2-0.2-0.5-0.3-0.8-0.3h-4c-0.7,0-1.2,0.5-1.2,1.2v17.7c0,0.4,0.3,0.8,0.7,1c0.4,0.1,0.8,0,1.1-0.2l3.6-3.5
							c0.3-0.3,0.8-0.4,1.2-0.2l4.4,2.2c0.4,0.2,1,0.1,1.3-0.3l2.2-2.8l0,0L19.6,19.6z"/>
						
							<linearGradient id="Path-7_1_" gradientUnits="userSpaceOnUse" x1="-1048.0823" y1="-85.8931" x2="-1047.4823" y2="-86.2231" gradientTransform="matrix(11.95 0 0 15.58 12548.0303 1359.3304)">
							<stop  offset="0" style="stop-color:#045562"/>
							<stop  offset="3.000000e-02" style="stop-color:#05606F"/>
							<stop  offset="0.1" style="stop-color:#06778A"/>
							<stop  offset="0.18" style="stop-color:#088BA0"/>
							<stop  offset="0.27" style="stop-color:#0999B1"/>
							<stop  offset="0.39" style="stop-color:#09A3BC"/>
							<stop  offset="0.55" style="stop-color:#0AA9C3"/>
							<stop  offset="1" style="stop-color:#0AABC5"/>
						</linearGradient>
						<path id="Path-7" fill="url(#Path-7_1_)" d="M30.3,9.8h-4c-0.4,0-0.8,0.2-1,0.6c-1.4,2.5-3.8,6.7-5.2,9.2
							c-0.1,0.1-0.2,0.1-0.3,0.2c-0.1,0-0.2,0-0.3-0.1l0,0l0,0l3,5.2l2.3-3c0.2-0.2,0.5-0.4,0.8-0.4c0.3,0,0.6,0.1,0.8,0.3l3.2,3.2
							c0.4,0.4,1,0.5,1.4,0.1c0.2-0.2,0.4-0.5,0.4-0.8V11C31.5,10.3,31,9.8,30.3,9.8C30.3,9.8,30.3,9.8,30.3,9.8L30.3,9.8z"/>
					</g>
				</g>
			</g>
		</g>
	</g>
</g>
</svg>
