<?xml version="1.0" encoding="UTF-8"?> <svg xmlns="http://www.w3.org/2000/svg" width="154" height="29" viewBox="0 0 154 29" fill="none"><g clip-path="url(#clip0)"><path d="M3.1927 23.0645C2.62533 23.0657 2.06779 22.9163 1.57705 22.6315C1.08631 22.3468 0.679955 21.9368 0.399503 21.4436C0.123344 20.9539 -0.0143843 20.3982 0.00107244 19.8362C0.0165292 19.2742 0.184588 18.727 0.487248 18.2531L6.23939 9.22033C6.53379 8.73487 6.95178 8.33625 7.45065 8.06519C7.94952 7.79413 8.5114 7.66034 9.0789 7.67749C9.64596 7.69108 10.1992 7.85508 10.6821 8.15273C11.165 8.45037 11.5601 8.87095 11.827 9.37145C12.3632 10.3854 12.2962 11.6053 11.654 12.5571L5.90547 21.5899C5.61396 22.0441 5.21249 22.4174 4.73827 22.6752C4.26406 22.933 3.73244 23.0669 3.1927 23.0645V23.0645Z" fill="#F62B54"></path><path d="M13.0592 23.0643C11.899 23.0643 10.8314 22.444 10.2709 21.4471C9.99532 20.9587 9.85791 20.4045 9.87337 19.844C9.88882 19.2834 10.0566 18.7376 10.3586 18.2652L16.0998 9.25308C16.3898 8.76079 16.8063 8.35507 17.3061 8.078C17.8058 7.80093 18.3705 7.66259 18.9417 7.67734C20.1116 7.70293 21.1719 8.35736 21.7081 9.38104C22.2407 10.4047 22.1627 11.6319 21.5009 12.5813L15.761 21.5934C15.4704 22.0457 15.0705 22.4175 14.5983 22.6746C14.1261 22.9317 13.5968 23.0657 13.0592 23.0643V23.0643Z" fill="#FFCC00"></path><path d="M22.705 23.1398C24.3405 23.1398 25.6664 21.8417 25.6664 20.2405C25.6664 18.6393 24.3405 17.3413 22.705 17.3413C21.0695 17.3413 19.7436 18.6393 19.7436 20.2405C19.7436 21.8417 21.0695 23.1398 22.705 23.1398Z" fill="#00CA72"></path><path d="M151.356 17.5096C152.25 17.5096 152.785 18.1458 152.785 19.1877V22.7585H154V19.1061C154 17.3341 153.165 16.3068 151.596 16.3068C150.981 16.3068 150.006 16.475 149.425 17.6047C149.29 17.2715 149.067 16.9811 148.78 16.7643C148.493 16.5476 148.153 16.4127 147.796 16.3738C147.571 16.3326 147.342 16.3191 147.113 16.3336C146.614 16.3738 145.724 16.6846 145.391 17.389V16.4421H144.175V22.7585H145.391V19.3498C145.391 18.0239 146.259 17.5096 147.128 17.5096C147.942 17.5096 148.477 18.1324 148.477 19.1743V22.7585H149.686V19.3498C149.686 18.2945 150.32 17.4974 151.356 17.5096ZM139.711 21.7031C140.267 21.7153 140.803 21.4935 141.192 21.0913C141.582 20.6892 141.789 20.142 141.768 19.5802C141.768 18.3079 140.832 17.5096 139.711 17.5096C138.589 17.5096 137.654 18.3079 137.654 19.5802C137.632 20.1407 137.839 20.6867 138.227 21.0877C138.614 21.4898 139.148 21.7128 139.701 21.7031H139.711ZM139.711 22.8876C137.934 22.8876 136.451 21.5751 136.451 19.5728C136.451 17.5706 137.934 16.2995 139.711 16.2995C141.488 16.2995 142.983 17.5706 142.983 19.5728C142.983 21.5751 141.479 22.8937 139.703 22.8937L139.711 22.8876ZM130.193 19.5728L130.181 19.5802C130.181 17.5779 131.703 16.3068 133.492 16.2995C133.942 16.2908 134.388 16.3766 134.802 16.5512C135.216 16.7259 135.589 16.9855 135.897 17.3134L134.975 18.0983C134.78 17.9061 134.548 17.7546 134.293 17.6525C134.039 17.5505 133.766 17.4998 133.492 17.5035C132.371 17.5035 131.396 18.3018 131.396 19.5728C131.396 20.432 131.907 21.2059 132.69 21.5349C133.474 21.864 134.376 21.6812 134.975 21.0743L135.91 21.8591C135.602 22.1903 135.227 22.4531 134.81 22.6303C134.394 22.8075 133.945 22.8951 133.492 22.8876C131.717 22.8876 130.193 21.5751 130.193 19.5728ZM126.302 21.5459C126.301 21.4355 126.321 21.3259 126.362 21.2233C126.403 21.1208 126.464 21.0274 126.541 20.9484C126.619 20.8694 126.711 20.8064 126.812 20.763C126.914 20.7195 127.023 20.6965 127.133 20.6952C127.244 20.6965 127.353 20.7195 127.454 20.763C127.556 20.8064 127.648 20.8694 127.725 20.9484C127.802 21.0274 127.863 21.1208 127.904 21.2233C127.945 21.3259 127.966 21.4355 127.964 21.5459C127.953 21.7597 127.861 21.9614 127.707 22.1097C127.553 22.2581 127.347 22.3419 127.133 22.3441C126.919 22.3419 126.714 22.2581 126.559 22.1097C126.405 21.9614 126.313 21.7597 126.302 21.5459Z" fill="#333333"></path><path fill-rule="evenodd" clip-rule="evenodd" d="M129.627 8.41213H125.299L122.266 16.2324L119.248 8.41213H114.921L120.182 20.7695L116.91 28.9395H121.206L129.627 8.41213ZM103.308 15.2854C103.308 17.2597 105.034 18.5588 106.729 18.5588C108.395 18.5588 110.032 17.3499 110.032 15.2842C110.032 13.2186 108.395 12.0084 106.729 12.0084C105.034 12.0084 103.308 13.3088 103.308 15.2842V15.2854ZM110.032 22.1856V20.622C109.154 21.9504 107.107 22.4525 106.056 22.4525C102.578 22.4525 99.0988 19.7105 99.0988 15.2842C99.0988 10.8592 102.577 8.11721 106.056 8.11721C106.932 8.11721 108.98 8.40969 110.032 9.94522V8.417H114.065V22.188L110.032 22.1868V22.1856ZM97.9508 22.1856H93.917V20.4746C93.2431 21.742 91.6088 22.4805 89.9124 22.4805C86.4039 22.4805 83.3048 19.6788 83.3048 15.3403C83.3048 10.9202 86.4039 8.11477 89.9124 8.11477C91.6064 8.11477 93.2455 8.8216 93.917 10.0902V0.909973H97.9508V22.1856ZM93.8292 15.2538C93.8292 13.1893 92.3388 11.9792 90.6729 11.9792C88.9472 11.9792 87.5141 13.2771 87.5141 15.2538C87.5141 17.2938 88.9472 18.5856 90.6717 18.5856C92.3693 18.5881 93.8292 17.2305 93.8292 15.2538V15.2538ZM73.3312 14.8979C73.3312 12.8042 74.4133 12.0962 75.8453 12.0962C77.2187 12.0962 78.2132 13.0102 78.2132 14.8382V22.1831H82.2762V13.9547C82.2762 10.033 80.3458 8.11477 77.276 8.11477C75.6686 8.11477 74.0611 9.02878 73.3299 10.4156V8.41213H69.2693V22.1831H73.3312V14.8979ZM61.0189 22.4196C57.1606 22.4196 53.9421 19.5886 53.9421 15.2525C53.9421 10.9141 57.1569 8.11112 61.0189 8.11112C64.8809 8.11112 68.1238 10.9141 68.1238 15.2525C68.1238 19.591 64.8772 22.4208 61.0189 22.4208V22.4196ZM61.0189 18.4101C62.7128 18.4101 64.118 17.1695 64.118 15.2538C64.118 13.3953 62.7141 12.1266 61.0189 12.1266C60.6107 12.1203 60.2055 12.197 59.828 12.3523C59.4504 12.5075 59.1084 12.738 58.8228 13.0297C58.5356 13.3229 58.3102 13.6709 58.1601 14.053C58.01 14.4351 57.9382 14.8434 57.9491 15.2538C57.9503 17.172 59.353 18.4101 61.0189 18.4101ZM46.658 12.0974C47.856 12.0974 48.9089 13.0419 48.9089 14.8394V22.1856H52.9427V14.3641C52.9427 10.206 50.921 8.11233 47.6805 8.11233C46.7178 8.11233 44.9044 8.40482 43.5882 10.5594C42.8277 8.96662 41.3666 8.14036 39.2071 8.14036C38.4573 8.13655 37.7223 8.34875 37.09 8.75159C36.4576 9.15443 35.9547 9.73086 35.6412 10.412V8.41335H31.5757V22.1844H35.6376V14.8979C35.6376 12.8042 36.7783 12.0962 38.0055 12.0962C39.1754 12.0962 40.2259 13.0102 40.2564 14.7504V22.1844H44.3194V14.8979C44.3194 12.8956 45.3723 12.0986 46.658 12.0986V12.0974Z" fill="#333333"></path></g><defs><clipPath id="clip0"><rect width="154" height="28.0295" fill="white" transform="translate(0 0.909973)"></rect></clipPath></defs></svg> 