<?xml version="1.0" encoding="UTF-8"?> <svg xmlns="http://www.w3.org/2000/svg" width="118" height="33" viewBox="0 0 118 33" fill="none"><g clip-path="url(#clip0)"><path d="M15.6362 32.6121C15.5195 32.5953 15.4037 32.5748 15.2871 32.5617C14.8119 32.5104 14.3331 32.487 13.8636 32.4049C13.4399 32.3285 13.0547 32.1106 12.7709 31.787C12.487 31.4633 12.3214 31.0529 12.301 30.6229C12.2935 30.5044 12.2916 30.384 12.2916 30.2654V7.16723C12.4867 7.10843 13.7375 7.09256 14.1053 7.1411C14.1128 7.20177 14.1249 7.26711 14.1268 7.32779C14.1268 7.45567 14.1268 7.58448 14.1268 7.71237V30.1571C14.1268 30.6855 14.0922 30.6089 14.573 30.6584C19.0899 31.1195 23.0254 29.8183 26.3186 26.6894C28.5318 24.5891 29.9422 22.01 30.4668 19.0071C31.319 14.127 30.0187 9.8593 26.6163 6.24685C26.1319 5.74157 25.6082 5.27556 25.05 4.85321C25.0239 4.83268 25.0005 4.80747 24.9567 4.7664L26.0507 3.31116C26.1533 3.3877 26.2373 3.44651 26.3158 3.50998C29.4465 6.01349 31.4441 9.21895 32.2534 13.1488C32.5667 14.6891 32.646 16.2679 32.4886 17.8319C32.1059 21.7524 30.52 25.1128 27.7281 27.8842C25.3431 30.2533 22.4746 31.7319 19.1665 32.3358C18.5131 32.4543 17.8466 32.4898 17.1857 32.5654C17.0924 32.5766 17.0037 32.5962 16.9131 32.6121H15.6362Z" fill="#28282A"></path><path d="M118 24.0141L116.492 23.9992C116.398 23.9992 116.305 23.9992 116.179 23.9992V21.8457L116.126 21.8327C116.094 21.8672 116.059 21.899 116.032 21.9354C115.124 23.0639 113.849 23.8381 112.428 24.1234C109.422 24.7441 106.828 23.9563 104.754 21.674C103.66 20.4717 103.086 19.0127 102.895 17.4044C102.704 15.7961 102.914 14.2195 103.624 12.7437C104.797 10.3083 106.726 8.82881 109.399 8.43303C111.943 8.05965 114.178 8.7644 116.014 10.6089C116.049 10.6453 116.086 10.6789 116.157 10.7452C116.168 10.6434 116.182 10.5744 116.182 10.5053C116.182 9.99375 116.182 9.47849 116.182 8.9707C116.182 8.87735 116.189 8.78401 116.195 8.65986H118.001L118 24.0141ZM116.112 16.2105C116.112 15.2901 116.112 14.3688 116.112 13.4484C116.115 13.3039 116.072 13.1621 115.988 13.0443C115.709 12.6352 115.381 12.2622 115.01 11.9335C113.442 10.5501 111.645 9.87334 109.543 10.2467C107.978 10.5268 106.702 11.3052 105.821 12.6438C104.713 14.324 104.471 16.1713 104.968 18.1073C105.341 19.5551 106.125 20.7377 107.41 21.5452C108.933 22.502 110.566 22.7988 112.308 22.2742C113.955 21.7776 115.16 20.7144 116.042 19.2638C116.089 19.1655 116.111 19.0566 116.105 18.9474C116.114 18.0354 116.112 17.1234 116.112 16.2105Z" fill="#28282A"></path><path d="M75.2303 23.9871H73.3634C73.3037 23.7612 73.3046 8.90068 73.3634 8.67852C73.4194 8.67852 73.4782 8.66732 73.5361 8.66732H75.1426C75.1911 8.89695 75.1622 9.11724 75.1668 9.33473C75.1715 9.55223 75.1668 9.77812 75.1668 10.0003V10.7162C76.722 8.95482 78.6355 8.20059 80.8889 8.35928C83.1609 8.5189 84.9139 9.58023 86.1059 11.5741C86.1834 11.4714 86.2431 11.3874 86.3038 11.3118C87.1887 10.1431 88.2781 9.23579 89.6754 8.74666C91.2763 8.18659 92.8986 8.15392 94.4911 8.74666C96.7416 9.58023 98.1063 11.2026 98.5833 13.5595C98.7199 14.2719 98.7855 14.9961 98.7794 15.7214C98.7837 18.3655 98.7837 21.0103 98.7794 23.6557V23.9488C98.5777 24.0048 97.2168 24.0179 96.8751 23.9684C96.8751 23.8751 96.8639 23.7761 96.8639 23.6781C96.8639 21.1447 96.8639 18.6113 96.8639 16.078C96.88 15.2843 96.8077 14.4912 96.6483 13.7135C96.4482 12.7847 95.9599 11.9427 95.2531 11.3077C94.5462 10.6728 93.6569 10.2773 92.7119 10.1776C91.3892 10.0255 90.1916 10.3643 89.0986 11.0989C88.1651 11.7281 87.4632 12.5617 86.9208 13.5399C86.8613 13.6435 86.8395 13.7646 86.8592 13.8825C87.0002 14.787 87.0086 15.699 87.0067 16.6119C87.003 18.9573 87.003 21.3031 87.0067 23.6492V23.9815C86.372 24.0113 85.7531 23.9899 85.1006 23.9964C85.095 23.8835 85.0875 23.7854 85.0875 23.6874C85.0875 21.4472 85.0875 19.2038 85.0875 16.9573C85.0875 16.386 85.0931 15.8138 85.0707 15.2435C85.0418 14.535 84.9671 13.8274 84.7123 13.16C84.0589 11.4359 82.7997 10.4054 80.972 10.1944C78.7653 9.93867 77.0515 10.8749 75.7055 12.5794C75.6998 12.5859 75.6952 12.5934 75.6905 12.5999C75.2294 13.2319 75.2294 13.2319 75.2294 14.0057V23.9843L75.2303 23.9871Z" fill="#28282A"></path><path d="M7.60709 27.8787C7.23371 28.3725 6.87807 28.8476 6.51309 29.333C6.42815 29.2714 6.35814 29.2257 6.2928 29.1734C3.19002 26.7119 1.18964 23.555 0.346732 19.6821C-0.0187242 17.9601 -0.0981965 16.1896 0.111503 14.4417C0.84706 7.92626 5.50683 2.45625 11.8646 0.659361C14.0499 0.0473503 16.3386 -0.10364 18.5854 0.215973C19.0424 0.276915 19.4629 0.497954 19.7723 0.839786C20.0816 1.18162 20.2597 1.62209 20.2749 2.08287C20.2749 2.14261 20.2749 2.20235 20.2749 2.26209C20.2749 9.90454 20.2749 17.5467 20.2749 25.1885C20.2749 25.2968 20.2665 25.4051 20.2619 25.5236H18.4519C18.4463 25.406 18.437 25.2987 18.437 25.1904C18.437 22.3334 18.437 19.4764 18.437 16.6195C18.437 11.9111 18.437 7.20314 18.437 2.49545C18.437 2.053 18.5219 2.05113 17.9945 1.99139C15.2875 1.68335 12.6739 2.05393 10.2151 3.23474C5.96609 5.27153 3.24509 8.59367 2.19029 13.1862C1.08416 18.0047 2.5198 22.966 6.05383 26.5019C6.50469 26.9537 7.00969 27.3522 7.48855 27.7751L7.60709 27.8787Z" fill="#28282A"></path><path d="M65.7512 10.7545V8.6869H67.5816V23.9843C66.988 24.0151 66.3962 23.9917 65.7932 23.9992C65.7222 23.75 65.7642 23.5129 65.7568 23.2786C65.7493 23.0443 65.7568 22.8016 65.7568 22.5626V21.8019C65.7076 21.8383 65.6608 21.8779 65.6167 21.9204C64.4583 23.3206 62.9499 24.0729 61.1651 24.2718C58.7186 24.5434 56.5726 23.8489 54.7775 22.1575C53.6266 21.0728 52.9181 19.7249 52.597 18.1829C52.1741 16.1601 52.3944 14.2092 53.3811 12.3787C54.6226 10.0684 56.567 8.73358 59.1694 8.40594C61.4162 8.1259 63.4278 8.71397 65.1556 10.2019C65.3106 10.3354 65.4506 10.4819 65.599 10.6266C65.6326 10.6593 65.6709 10.6873 65.7512 10.7545ZM65.6811 16.2114C65.6811 15.2911 65.6811 14.3707 65.6811 13.4494C65.6855 13.3049 65.6426 13.163 65.5589 13.0452C65.24 12.5801 64.8594 12.1606 64.4275 11.7981C63.0003 10.5986 61.377 9.96386 59.4933 10.1907C57.66 10.4119 56.2038 11.2838 55.2405 12.88C54.3071 14.4267 54.0821 16.1069 54.476 17.858C54.8961 19.7249 55.9406 21.1148 57.6936 21.9409C59.0994 22.6037 60.5444 22.7166 62.022 22.2294C63.6005 21.7085 64.7589 20.6668 65.6111 19.2657C65.6596 19.1672 65.6821 19.0579 65.6765 18.9483C65.683 18.0363 65.6811 17.1243 65.6811 16.2114Z" fill="#28282A"></path><path d="M48.5701 9.83315C48.2481 10.3391 47.9232 10.8478 47.5825 11.3808C47.4892 11.3248 47.4033 11.2763 47.3193 11.224C46.6929 10.8375 46.0461 10.4903 45.3236 10.3223C44.2921 10.0824 43.2625 10.0422 42.2432 10.3932C41.7528 10.5496 41.3093 10.8263 40.9532 11.1979C40.7186 11.4421 40.5437 11.7373 40.442 12.0603C40.3403 12.3833 40.3146 12.7255 40.367 13.0601C40.423 13.4867 40.6619 13.8162 40.9896 14.0869C41.2941 14.3384 41.6421 14.5321 42.0164 14.6581C42.7631 14.9092 43.5248 15.1435 44.2837 15.3694C45.0193 15.5879 45.7595 15.7923 46.467 16.0938C47.014 16.3138 47.524 16.6163 47.9792 16.9908C48.3415 17.2918 48.6359 17.6661 48.843 18.0891C49.0501 18.5121 49.1651 18.9742 49.1806 19.4449C49.245 20.6378 48.9314 21.7085 48.1314 22.6121C47.3986 23.44 46.4596 23.9189 45.3955 24.1662C44.4769 24.3819 43.5491 24.3725 42.6212 24.2596C41.2495 24.1041 39.9361 23.6175 38.7941 22.8417C38.5001 22.6391 38.2256 22.4104 37.9139 22.1715C38.3199 21.6627 38.7036 21.1801 39.0956 20.6873L39.3327 20.874C40.2923 21.6273 41.3508 22.1761 42.5559 22.416C43.4669 22.5962 44.3705 22.5925 45.2629 22.2891C45.8295 22.0949 46.3345 21.8009 46.7237 21.337C46.9614 21.0697 47.1316 20.7493 47.2201 20.4028C47.3086 20.0562 47.3129 19.6935 47.2325 19.345C47.133 18.8903 46.8757 18.4855 46.5063 18.2024C46.1881 17.9539 45.8352 17.7533 45.4589 17.6069C44.7252 17.3007 43.9551 17.1066 43.1906 16.8984C42.4262 16.6903 41.6598 16.4812 40.928 16.1722C40.5091 16.0006 40.1124 15.7793 39.7462 15.5132C38.9061 14.8868 38.4702 14.0411 38.4329 12.9985C38.3806 11.5554 38.9481 10.3923 40.0813 9.51204C41.1044 8.72048 42.2852 8.36017 43.5631 8.34056C45.2457 8.31062 46.9015 8.76418 48.3339 9.64739C48.3918 9.68286 48.4497 9.7202 48.5048 9.75941C48.5292 9.7815 48.5511 9.80624 48.5701 9.83315V9.83315Z" fill="#28282A"></path></g><defs><clipPath id="clip0"><rect width="118" height="32.5596" fill="white" transform="translate(0 0.0525513)"></rect></clipPath></defs></svg> 