<?xml version="1.0" encoding="UTF-8"?> <svg xmlns="http://www.w3.org/2000/svg" width="88" height="43" viewBox="0 0 88 43" fill="none"><g clip-path="url(#clip0)"><path d="M25.8081 22.8355L21.2287 16.2888V22.8355H16.4902V7.76904H21.2287V14.14L25.9337 7.8109H31.5456L25.7774 14.9186L31.6349 22.8355H25.8081Z" fill="black"></path><path d="M84.2603 42.6516C85.7937 42.6516 87.037 41.4224 87.037 39.9057C87.037 38.3893 85.7937 37.1597 84.2603 37.1597C82.7269 37.1597 81.4836 38.3893 81.4836 39.9057C81.4836 41.4224 82.7269 42.6516 84.2603 42.6516Z" fill="#00FF84"></path><path d="M35.9157 5.49192C37.4491 5.49192 38.6924 4.26252 38.6924 2.74596C38.6924 1.22941 37.4491 0 35.9157 0C34.3823 0 33.139 1.22941 33.139 2.74596C33.139 4.26252 34.3823 5.49192 35.9157 5.49192Z" fill="#00FF84"></path><path d="M38.285 7.76904H33.5465V22.8355H38.285V7.76904Z" fill="black"></path><path d="M33.4572 34.8268C33.4572 30.3368 36.2311 26.9099 40.5956 26.9099C42.7779 26.9099 44.4913 27.9396 45.3034 29.4661V27.3145H50.0418V42.3392H45.3034V40.2183C44.4913 41.7141 42.6216 42.7438 40.5342 42.7438C36.0469 42.7466 33.4572 39.3476 33.4572 34.8268ZM45.4903 34.8268C45.4903 32.6753 44.2736 30.8977 41.9044 30.8977C39.6914 30.8977 38.3185 32.5497 38.3185 34.8268C38.3185 37.1012 39.6886 38.7867 41.9044 38.7867C44.2764 38.7867 45.4903 37.0091 45.4903 34.8268Z" fill="black"></path><path d="M52.8325 27.3145H57.6016V30.4623C58.1318 28.2186 59.9094 27.0661 61.7485 27.0661C62.3094 27.0661 62.6219 27.0968 62.9959 27.1917L62.9707 31.6148C62.4098 31.5506 62.1531 31.5227 61.5615 31.5227C58.9746 31.5227 57.6016 33.2054 57.6016 36.5402V42.3391H52.8325V27.3145Z" fill="black"></path><path d="M63.9614 34.8268C63.9614 29.9014 67.1734 26.9099 72.0654 26.9099C76.7424 26.9099 79.9209 29.8093 79.9209 34.0483C79.9209 34.8268 79.8902 35.2957 79.7953 36.1356H68.6971C68.7892 38.1002 70.1008 39.1607 72.2188 39.1607C73.6839 39.1607 74.6188 38.756 75.0234 37.8212H79.7005C79.2344 40.782 76.2094 42.7466 72.2188 42.7466C67.1092 42.7466 63.9614 39.8472 63.9614 34.8268ZM75.216 33.1748C75.1853 31.1795 74.0634 30.1191 72.0375 30.1191C69.9808 30.1191 68.7334 31.3358 68.7027 33.1748H75.216Z" fill="black"></path><path d="M45.8085 18.3622V7.76904H41.0394V18.5157V22.8355H45.8085H52.612V18.3622H45.8085Z" fill="black"></path><path d="M59.9652 18.3622V7.76904H55.196V18.5157V22.8355H59.9652H66.7687V18.3622H59.9652Z" fill="black"></path><path d="M26.8797 27.3088V32.7198H21.1645V27.3088H16.4902V32.7198V37.0397V42.3781H21.1645V37.0397H26.8797V42.3781H31.5568V37.0397V32.7198V27.3088H26.8797Z" fill="black"></path><path d="M10.6077 33.4175L7.69431 32.6111C6.70923 32.318 6.36877 31.8855 6.36877 31.2743C6.36877 30.6074 6.89341 30.2139 7.57153 30.1358C8.55661 30.0214 9.31845 30.4483 9.31845 31.5115V31.5813H14.3304V31.5115H14.3276C14.3276 28.5116 11.7909 26.8568 7.55478 26.8568C3.69258 26.8568 1.13917 28.7321 1.13917 31.5757C1.13917 33.8557 2.50936 35.3877 4.90649 35.9793L7.91198 36.7328C8.80498 37.0146 9.16497 37.4528 9.16217 38.1392C9.15938 38.8899 8.40592 39.3141 7.63571 39.3504C6.51947 39.4006 5.7074 38.795 5.64601 37.8323H0.740112C0.812668 40.7066 3.6256 42.727 7.83663 42.727C11.8216 42.727 14.4085 40.8852 14.4085 37.7597C14.4057 35.4798 12.9741 34.0426 10.6077 33.4175Z" fill="black"></path><path d="M10.6077 13.9139L7.69431 13.1074C6.70923 12.8144 6.36877 12.3819 6.36877 11.7707C6.36877 11.1038 6.89341 10.7103 7.57153 10.6322C8.55661 10.5178 9.31845 10.9447 9.31845 12.0079V12.0777H14.3304V12.0079H14.3276C14.3276 9.00804 11.7909 7.35321 7.55478 7.35321C3.69258 7.35321 1.13917 9.2285 1.13917 12.0721C1.13917 14.3521 2.50936 15.8841 4.90649 16.4757L7.91198 17.2292C8.80498 17.511 9.16497 17.9492 9.16217 18.6356C9.15938 19.3863 8.40592 19.8105 7.63571 19.8468C6.51947 19.897 5.7074 19.2914 5.64601 18.3287H0.740112C0.812668 21.203 3.6256 23.2234 7.83663 23.2234C11.8216 23.2234 14.4085 21.3816 14.4085 18.2561C14.4057 15.9762 12.9741 14.539 10.6077 13.9139Z" fill="black"></path></g><defs><clipPath id="clip0"><rect width="86.5089" height="42.9754" fill="white" transform="translate(0.740112)"></rect></clipPath></defs></svg> 