<?xml version="1.0" encoding="UTF-8"?> <svg xmlns="http://www.w3.org/2000/svg" width="69" height="41" viewBox="0 0 69 41" fill="none"><g clip-path="url(#clip0)"><path d="M13.528 6.29727H6.43376C6.43376 12.9894 6.43159 19.5484 6.44215 26.107C6.44277 26.3695 6.48717 26.7215 6.64368 26.8807C8.9515 29.2304 11.2823 31.5539 13.637 33.9135V21.0742H18.7436V13.3828H13.528V6.29727ZM60.79 17.7558C60.9015 17.5758 61.013 17.3965 61.1248 17.2168C59.5541 15.6236 57.991 14.021 56.4032 12.4471C56.1949 12.2408 55.8536 12.0568 55.585 12.0734C53.2731 12.2147 50.9048 12.1179 48.668 12.6495C45.6547 13.3665 43.8655 16.0697 43.8043 19.168C43.7481 22.0216 45.1886 24.0309 48.3153 25.1583C50.0241 25.7744 51.8249 26.0906 53.5492 26.6627C54.0619 26.833 54.4572 27.4117 54.9062 27.8031C54.3693 28.1093 53.8402 28.6613 53.2946 28.6807C50.6604 28.7759 48.0215 28.7214 45.3845 28.7344C44.916 28.7368 44.4477 28.8079 43.9794 28.847C43.9207 28.9999 43.862 29.1529 43.8034 29.3058C44.3815 29.8521 45.1206 30.2909 45.5122 30.9632C47.5539 34.4709 50.6026 35.1778 54.069 34.5567C55.9269 34.2238 57.8661 33.8671 59.5358 33.0012C61.7704 31.8424 62.6246 29.5055 62.5799 26.8751C62.5361 24.299 61.2139 22.5746 59.0787 21.6676C57.505 20.999 55.8254 20.617 54.1907 20.1151C53.497 19.902 52.7676 19.7832 52.1155 19.4729C51.827 19.336 51.5559 18.8384 51.5361 18.4875C51.5246 18.2807 51.9932 17.9281 52.295 17.8426C52.7338 17.7181 53.2172 17.7595 53.6815 17.7581C56.0508 17.7525 58.4204 17.7558 60.79 17.7558ZM27.466 13.6109V6.2632H20.7586V34.4271C24.5691 34.9888 26.2875 34.7267 26.9393 33.5218C32.9977 36.2558 37.1687 35.6253 40.4546 31.4788C43.6447 27.4538 44.0878 21.9748 41.5713 17.68C38.6846 12.7534 34.7767 11.5932 27.466 13.6109ZM0.249023 0.755509C0.855791 0.675697 1.46256 0.526425 2.06932 0.526091C20.3875 0.513736 38.7055 0.528429 57.0237 0.487688C58.2198 0.484683 59.0483 0.875394 59.8544 1.78839C62.2414 4.49064 64.7194 7.09939 67.112 9.79597C67.4993 10.2324 67.8508 10.927 67.8533 11.5041C67.8905 20.9082 67.8694 30.3123 67.8567 39.7161C67.8564 39.818 67.793 39.9195 67.6995 40.1997C67.2204 40.2294 66.6742 40.2932 66.1283 40.2932C48.0169 40.2982 29.9058 40.3112 11.795 40.2518C10.9839 40.2487 9.98897 39.7866 9.39587 39.1808C6.29061 36.009 3.28752 32.7217 0.249023 29.4745V0.755509Z" fill="black"></path><path d="M32.5879 19.8552C34.5313 19.8842 36.0652 21.5632 36.0505 23.6453C36.0355 25.7075 34.4483 27.3932 32.528 27.3865C30.5846 27.3792 29.0714 25.705 29.0894 23.5815C29.1073 21.4536 30.6352 19.8262 32.5879 19.8552Z" fill="black"></path></g><defs><clipPath id="clip0"><rect width="68.1818" height="40" fill="white" transform="translate(0.249023 0.487671)"></rect></clipPath></defs></svg> 