<svg width="86" height="35" viewBox="0 0 86 35" fill="none" xmlns="http://www.w3.org/2000/svg">
<path d="M16.9535 27.1858C16.9535 28.3609 15.9647 29.3211 14.7465 29.3211H8.59857C7.38044 29.3211 6.3916 28.3609 6.3916 27.1858V23.2161C6.3916 22.041 7.38044 21.0808 8.59857 21.0808H14.7465C15.9647 21.0808 16.9535 22.041 16.9535 23.2161V27.1858V27.1858ZM6.3916 7.39477C6.3916 6.21963 7.38044 5.25946 8.59857 5.25946H14.7465C15.9647 5.25946 16.9535 6.21963 16.9535 7.39477V10.261C16.9535 11.4361 15.9647 12.3963 14.7465 12.3963H8.59857C7.38044 12.3963 6.3916 11.4361 6.3916 10.261V7.39477ZM23.3308 10.5046V5.91868C23.3308 2.65122 20.6079 0 17.2258 0H6.10498C2.73721 0 0 2.65122 0 5.91868V10.5046C0 12.9122 1.47609 14.9615 3.58274 15.893V16.7385C1.46176 17.6701 0 19.7337 0 22.127V28.6762C0 31.9437 2.72288 34.5949 6.10498 34.5949H17.2258C20.5936 34.5949 23.3308 31.9437 23.3308 28.6762V22.127C23.3308 19.7337 21.8547 17.6701 19.748 16.7385V15.893C21.8547 14.9615 23.3308 12.8978 23.3308 10.5046ZM53.0818 32.0727H61.8954V29.2781H56.077V27.1285H60.7489V24.3913H56.077V22.2416H61.8954V19.4471H53.0818V32.0727ZM71.0098 8.94251H67.9573V3.88369H64.9049V16.4949H67.9573V11.7227H71.0098V16.4949H74.0623V3.88369H71.0098V8.94251ZM64.9478 32.0727H73.7614V29.2781H67.9573V27.1285H72.6292V24.3913H67.9573V22.2416H73.7757V19.4471H64.9478V32.0727ZM81.801 24.9788H79.5224V22.127H81.801C82.5176 22.127 83.0622 22.3563 83.0622 23.4598C83.0622 24.5059 82.6322 24.9788 81.801 24.9788ZM82.1593 19.4471H76.5273V32.0583H79.5224V27.5871H82.1593C83.5924 27.5871 86 26.7702 86 23.5171C86 20.0347 83.6641 19.4471 82.1593 19.4471ZM57.3954 11.6797H59.1868C59.1868 13.5427 58.5276 14.0013 57.2665 14.0013C55.8907 14.0013 55.4034 13.2418 55.4034 11.6797V7.89635C55.4034 6.85019 56.1773 6.2053 57.2665 6.2053C58.5276 6.2053 59.0005 6.96484 59.0005 7.89635H62.1247C62.1247 5.74671 60.6199 3.59707 57.2665 3.59707C53.8557 3.59707 52.3509 5.23079 52.3509 7.89635V11.6797C52.3509 13.8294 53.0675 16.6239 57.2665 16.6239C61.2791 16.6239 62.182 14.245 62.182 11.7944V9.35811H57.3811L57.3954 11.6797ZM35.942 24.4486C34.5089 24.2193 34.1506 23.5744 34.1506 23.1731C34.1506 22.3563 34.7525 21.955 35.77 21.955C36.9165 21.955 37.2031 22.6572 37.2031 23.0585H40.0837C40.0837 21.6111 39.0662 19.1605 35.77 19.1605C32.1157 19.1605 31.1555 21.4821 31.1555 23.2305C31.1555 25.2655 32.8322 26.5409 35.2971 26.8992C36.1426 27.0138 37.3321 27.2431 37.3321 28.2893C37.3321 29.1062 36.8592 29.6221 35.77 29.6221C35.0535 29.6221 34.1506 29.5074 34.1506 27.931H31.1411C31.1411 29.5074 31.5567 32.2303 35.7557 32.2303C39.8974 32.2303 40.3703 29.3784 40.3703 28.2176C40.3703 25.7957 38.6936 24.9215 35.942 24.4486ZM40.1266 13.6574H34.3083V11.5077H38.9802V8.77054H34.3083V6.6209H40.1266V3.82636H31.3131V16.4376H40.1266V13.6574ZM45.945 19.4471H42.9498V32.0583H50.3303V29.1491H45.9593V19.4471H45.945ZM79.5224 16.4949H82.6466V6.79287H85.3981V3.88369H76.6992V6.79287H79.5224V16.4949ZM45.0422 13.772H42.9498V16.5092H50.2013V13.772H48.0373V6.6209H50.1296V3.88369H42.8782V6.6209H45.0422V13.772Z" fill="black"/>
</svg>
