<?xml version="1.0" encoding="UTF-8"?> <svg xmlns="http://www.w3.org/2000/svg" width="120" height="29" viewBox="0 0 120 29" fill="none"><g clip-path="url(#clip0)"><path fill-rule="evenodd" clip-rule="evenodd" d="M14.4039 0.0146484L4.6579 4.99121L16.3528 17.1678L26.0993 12.1912L14.4039 0.0146484Z" fill="black"></path><path fill-rule="evenodd" clip-rule="evenodd" d="M12.6984 27.8885L8.94617 26.8699V20.92L12.6984 21.9387V27.8885Z" fill="black"></path><path fill-rule="evenodd" clip-rule="evenodd" d="M0.90564 12.5704V24.6723L8.94618 20.6926V8.59125L0.90564 12.5704Z" fill="#1D66A8"></path><path fill-rule="evenodd" clip-rule="evenodd" d="M16.4507 17.1841V28.9606L26.0993 24.1201V12.3435L16.4507 17.1841Z" fill="#1D66A8"></path><path fill-rule="evenodd" clip-rule="evenodd" d="M14.4039 0.0146484L4.6579 4.99121L16.3528 17.1678L26.0993 12.1912L14.4039 0.0146484Z" fill="#247DDC"></path><path fill-rule="evenodd" clip-rule="evenodd" d="M12.6984 27.8885L8.94617 26.8699V20.92L12.6984 21.9387V27.8885Z" fill="#247DDC"></path><path fill-rule="evenodd" clip-rule="evenodd" d="M44.8855 15.589H36.259V9.12726H34.1398V24.1363H36.259V17.5697H44.8855V24.1363H47.0047V9.12726H44.8855V15.589Z" fill="#33322B"></path><path fill-rule="evenodd" clip-rule="evenodd" d="M64.1048 20.4677C63.0772 21.481 61.646 22.0395 60.0733 22.0395C58.5048 22.0395 57.0768 21.481 56.0509 20.4677C55.0051 19.4348 54.4297 17.969 54.4297 16.3408C54.4297 14.712 55.0051 13.2468 56.0509 12.2139C57.0768 11.2 58.5048 10.6421 60.0733 10.6421C61.646 10.6421 63.0772 11.2 64.1048 12.2139C65.1512 13.2462 65.7263 14.712 65.7263 16.3408C65.7263 17.9696 65.1512 19.4354 64.1048 20.4677ZM60.0733 8.63049C55.5395 8.63049 52.2496 11.873 52.2496 16.3408C52.2496 20.8086 55.5395 24.0512 60.0733 24.0512C64.6065 24.0512 67.8973 20.8086 67.8973 16.3408C67.8973 11.873 64.6065 8.63049 60.0733 8.63049Z" fill="#33322B"></path><path fill-rule="evenodd" clip-rule="evenodd" d="M78.3859 21.4792L72.8626 8.83929H70.6257L77.137 23.7234L77.189 23.842H79.5497L86.1027 8.83929H83.9184L78.3859 21.4792Z" fill="#33322B"></path><path fill-rule="evenodd" clip-rule="evenodd" d="M92.4612 17.2683H100.261V15.309H92.4612V10.809H101.653V8.83936H90.3647V23.842H101.748V21.8724H92.4612V17.2683Z" fill="#33322B"></path><path fill-rule="evenodd" clip-rule="evenodd" d="M109.345 15.5696V10.8088H113.216C115.351 10.8088 116.434 11.5993 116.434 13.1578C116.434 14.7584 115.351 15.5696 113.216 15.5696H109.345ZM114.749 17.4171C116.652 17.1253 118.593 15.8937 118.593 13.1578C118.593 11.7795 118.12 10.7017 117.187 9.95381C116.264 9.21397 114.935 8.83917 113.237 8.83917H107.248V23.8424H109.345V17.4874H112.406L116.969 23.8424H119.491L114.749 17.4171Z" fill="#33322B"></path></g><defs><clipPath id="clip0"><rect width="119" height="28.9459" fill="white" transform="translate(0.90564 0.0147095)"></rect></clipPath></defs></svg> 