<svg width="110" height="22" viewBox="0 0 83 16" fill="none" xmlns="http://www.w3.org/2000/svg">
<g clip-path="url(#clip0_919_17516)">
<path d="M17.7425 2.60938C16.942 2.60934 16.1522 2.79346 15.4342 3.1475C14.7162 3.50154 14.0893 4.016 13.602 4.65109C13.1146 5.28618 12.7799 6.02487 12.6237 6.81001C12.4675 7.59514 12.4941 8.40569 12.7013 9.17893C12.9085 9.95218 13.2908 10.6674 13.8186 11.2693C14.3464 11.8711 15.0056 12.3435 15.7452 12.6498C16.4848 12.9561 17.285 13.0882 18.0838 13.0358C18.8826 12.9834 19.6586 12.748 20.3519 12.3477V13.047H22.9613V7.82819C22.9613 7.14284 22.8263 6.46421 22.564 5.83103C22.3018 5.19786 21.9174 4.62254 21.4327 4.13793C20.9481 3.65332 20.3728 3.2689 19.7396 3.00663C19.1065 2.74436 18.4278 2.60938 17.7425 2.60938ZM17.7425 10.4376C17.2264 10.4376 16.7219 10.2846 16.2928 9.99783C15.8637 9.71111 15.5292 9.30357 15.3317 8.82676C15.1342 8.34996 15.0825 7.82529 15.1832 7.31912C15.2839 6.81294 15.5324 6.34799 15.8974 5.98306C16.2623 5.61813 16.7272 5.36961 17.2334 5.26892C17.7396 5.16824 18.2643 5.21991 18.7411 5.41741C19.2179 5.61491 19.6254 5.94936 19.9121 6.37848C20.1988 6.80759 20.3519 7.3121 20.3519 7.82819C20.3519 8.52025 20.077 9.18396 19.5876 9.67332C19.0983 10.1627 18.4345 10.4376 17.7425 10.4376Z" fill="#FF6536"/>
<path d="M33.9593 4.138L32.1139 5.98337C31.7489 5.6187 31.284 5.37042 30.778 5.2699C30.2719 5.16938 29.7474 5.22114 29.2708 5.41864C28.7941 5.61613 28.3867 5.9505 28.1 6.37948C27.8134 6.80846 27.6603 7.3128 27.6602 7.82875V13.0476H25.0508V2.60993H27.6602V3.30821C28.6551 2.73398 29.8117 2.50405 30.9506 2.65408C32.0895 2.80411 33.147 3.32571 33.9593 4.138V4.138Z" fill="#FF6536"/>
<path d="M5.21881 2.60938C3.8347 2.60938 2.50727 3.15921 1.52855 4.13793C0.549838 5.11665 0 6.44407 0 7.82819L0 15.6564H2.60941V12.3487C3.30268 12.7487 4.07864 12.9838 4.8773 13.0359C5.67596 13.088 6.47591 12.9558 7.21529 12.6494C7.95466 12.3429 8.61366 11.8706 9.14131 11.2688C9.66895 10.667 10.0511 9.95189 10.2583 9.1788C10.4654 8.40571 10.4919 7.59533 10.3358 6.81034C10.1797 6.02536 9.84518 5.28679 9.35804 4.65175C8.8709 4.01672 8.24423 3.50223 7.52649 3.14809C6.80875 2.79394 6.01917 2.60962 5.21881 2.60938V2.60938ZM5.21881 10.4052C4.70272 10.4052 4.19822 10.2522 3.7691 9.96547C3.33999 9.67875 3.00554 9.27121 2.80804 8.79441C2.61054 8.3176 2.55886 7.79294 2.65955 7.28676C2.76023 6.78059 3.00875 6.31563 3.37368 5.9507C3.73862 5.58577 4.20357 5.33725 4.70974 5.23656C5.21592 5.13588 5.74058 5.18755 6.21739 5.38505C6.6942 5.58255 7.10173 5.91701 7.38846 6.34612C7.67518 6.77524 7.82822 7.27974 7.82822 7.79583C7.82822 8.48789 7.5533 9.1516 7.06394 9.64096C6.57458 10.1303 5.91087 10.4052 5.21881 10.4052Z" fill="#FF6536"/>
<path d="M57.9493 7.82822V13.047H55.3399V7.82822C55.3399 7.13616 55.065 6.47245 54.5757 5.98309C54.0863 5.49373 53.4226 5.21881 52.7305 5.21881C52.0385 5.21881 51.3748 5.49373 50.8854 5.98309C50.396 6.47245 50.1211 7.13616 50.1211 7.82822V13.047H47.5117V0H50.1211V3.30768C50.9146 2.8496 51.8146 2.60846 52.7308 2.6085C53.6469 2.60854 54.5469 2.84976 55.3403 3.30791C56.1337 3.76607 56.7925 4.42501 57.2505 5.21849C57.7085 6.01198 57.9495 6.91205 57.9493 7.82822Z" fill="#FF6536"/>
<path d="M70.4767 2.60938V7.82819C70.4767 9.2123 69.9269 10.5397 68.9481 11.5184C67.9694 12.4972 66.642 13.047 65.2579 13.047C63.8738 13.047 62.5463 12.4972 61.5676 11.5184C60.5889 10.5397 60.0391 9.2123 60.0391 7.82819V2.60938H62.6485V7.82819C62.6485 8.52025 62.9234 9.18396 63.4127 9.67332C63.9021 10.1627 64.5658 10.4376 65.2579 10.4376C65.9499 10.4376 66.6136 10.1627 67.103 9.67332C67.5924 9.18396 67.8673 8.52025 67.8673 7.82819V2.60938H70.4767Z" fill="#FF6536"/>
<path d="M77.7813 2.60941C76.8652 2.60809 75.965 2.84899 75.1719 3.30768V0H72.5625V7.82822C72.5625 8.8604 72.8686 9.86941 73.442 10.7276C74.0155 11.5859 74.8305 12.2548 75.7842 12.6498C76.7378 13.0448 77.7871 13.1481 78.7995 12.9468C79.8118 12.7454 80.7417 12.2483 81.4716 11.5185C82.2014 10.7886 82.6985 9.85871 82.8998 8.84636C83.1012 7.83401 82.9979 6.78468 82.6029 5.83107C82.2079 4.87745 81.539 4.06239 80.6807 3.48894C79.8225 2.91548 78.8135 2.60941 77.7813 2.60941ZM77.7813 10.4376C77.2652 10.4376 76.7607 10.2846 76.3316 9.99786C75.9025 9.71114 75.568 9.3036 75.3705 8.8268C75.173 8.34999 75.1214 7.82533 75.222 7.31915C75.3227 6.81297 75.5713 6.34802 75.9362 5.98309C76.3011 5.61816 76.7661 5.36964 77.2722 5.26895C77.7784 5.16827 78.3031 5.21994 78.7799 5.41744C79.2567 5.61494 79.6642 5.9494 79.951 6.37851C80.2377 6.80763 80.3907 7.31213 80.3907 7.82822C80.3907 8.52028 80.1158 9.18399 79.6264 9.67335C79.1371 10.1627 78.4734 10.4376 77.7813 10.4376Z" fill="#FF6536"/>
<path d="M45.7367 13.047H42.047L38.1328 9.13397V13.047H35.5234V0H38.1328V6.52143L42.0459 2.60941H45.7356L40.5178 7.82822L45.7367 13.047Z" fill="#FF6536"/>
</g>
<defs>
<clipPath id="clip0_919_17516">
<rect width="83" height="15.6564" fill="white"/>
</clipPath>
</defs>
</svg>
