<?xml version="1.0" encoding="UTF-8"?>
<svg width="40px" height="40px" viewBox="0 0 40 40" version="1.1" xmlns="http://www.w3.org/2000/svg" xmlns:xlink="http://www.w3.org/1999/xlink">
    <!-- Generator: Sketch 53.2 (72643) - https://sketchapp.com -->
    <title>helm</title>
    <desc>Created with Sketch.</desc>
    <g id="helm" stroke="none" stroke-width="1" fill="none" fill-rule="evenodd">
        <g id="ico-helm" transform="translate(2.000000, 1.000000)" fill="#082038">
            <polygon id="Path" points="8.08282158 24.0281481 8.08282158 14.5096296 5.55684647 14.5096296 5.55684647 18.1837037 2.5259751 18.1837037 2.5259751 14.5096296 0 14.5096296 0 24.0281481 2.5259751 24.0281481 2.5259751 20.3540741 5.55684647 20.3540741 5.55684647 24.0281481"></polygon>
            <polygon id="Path" points="18.5228216 14.5096296 18.5228216 24.0281481 19.8702075 24.0281481 21.0487967 24.0281481 24.753361 24.0281481 24.753361 21.8577778 21.0487967 21.8577778 21.0487967 14.5096296"></polygon>
            <polygon id="Path" points="16.5017427 16.68 16.5017427 14.5096296 12.6283817 14.5096296 11.6185892 14.5096296 10.1024066 14.5096296 10.1024066 24.0281481 11.6185892 24.0281481 12.6283817 24.0281481 16.5017427 24.0281481 16.5017427 21.8577778 12.6283817 21.8577778 12.6283817 20.3540741 15.6592531 20.3540741 15.6592531 18.1837037 12.6283817 18.1837037 12.6283817 16.68"></polygon>
            <polygon id="Path" points="35.1769295 14.5096296 33.1020747 14.5096296 31.1437344 19.6577778 29.1853942 14.5096296 27.1105394 14.5096296 26.4368465 14.5096296 26.4368465 24.0281481 28.9628216 24.0281481 28.9628216 20.3540741 28.4564315 18.0162963 30.4984232 23.4162963 31.7890456 23.4162963 33.8295436 18.0162963 33.3246473 20.3540741 33.3246473 24.0281481 35.8506224 24.0281481 35.8506224 14.5096296"></polygon>
            <path d="M6.35153527,12.3244444 L8.08431535,13.3614815 C10.1214334,9.98494174 13.797252,7.91793395 17.7647303,7.91793395 C21.7322086,7.91793395 25.4080272,9.98494174 27.4451452,13.3614815 L29.1779253,12.3244444 C28.4347997,11.0945651 27.4937315,9.99359449 26.3920332,9.06518519 C26.9768552,8.631586 27.4894761,8.10968684 27.9112033,7.51851852 C29.0046473,6.02666667 29.4049793,4.46518519 28.8074689,4.03111111 C28.2099585,3.59703704 26.8312033,4.4562963 25.7392531,5.94814815 C25.3010017,6.52905218 24.9581749,7.1750621 24.7234855,7.86222222 C22.9319499,6.77018976 20.9056376,6.1133402 18.8096266,5.94518519 C19.0235498,5.25528009 19.1278695,4.53655006 19.1188382,3.81481481 C19.1188382,1.97037037 18.5213278,0.475555556 17.7744398,0.475555556 C17.0275519,0.475555556 16.4300415,1.97037037 16.4300415,3.81481481 C16.4174851,4.53806689 16.5187863,5.25883373 16.7302905,5.95111111 C14.6332518,6.11880746 12.6058642,6.77567377 10.813444,7.86814815 C10.5774532,7.18154287 10.2347298,6.53572783 9.79767635,5.95407407 C8.70572614,4.46222222 7.33145228,3.60444444 6.72946058,4.03703704 C6.12746888,4.46962963 6.52481328,6.03259259 7.61825726,7.52444444 C8.03974075,8.11666645 8.55237403,8.63957808 9.13742739,9.07407407 C8.03648545,9.99980584 7.09545718,11.0977272 6.35153527,12.3244444 Z" id="Path"></path>
            <path d="M26.3920332,29.1466667 C27.2668154,28.4094445 28.0415673,27.5628872 28.6969295,26.6281481 L27.0806639,25.4266667 C24.976487,28.482365 21.4850304,30.308598 17.7540173,30.3050403 C14.0230041,30.3014826 10.5350949,28.4685945 8.43684647,25.4088889 L6.75784232,26.5185185 C7.42774423,27.497111 8.22821658,28.3811979 9.13742739,29.1466667 C8.55302725,29.5807425 8.04047597,30.1025708 7.61825726,30.6933333 C6.52481328,32.1851852 6.12448133,33.7466667 6.72946058,34.1807407 C7.33443983,34.6148148 8.70572614,33.7555556 9.79767635,32.2637037 C10.2347591,31.6826077 10.5774917,31.0372752 10.813444,30.3511111 C12.6059739,31.4431157 14.6333658,32.0994757 16.7302905,32.2666667 C16.5163672,32.9565718 16.4120475,33.6753018 16.4210788,34.397037 C16.4210788,36.2414815 17.0185892,37.7362963 17.7654772,37.7362963 C18.5123651,37.7362963 19.1098755,36.2414815 19.1098755,34.397037 C19.1189069,33.6753018 19.0145871,32.9565718 18.8006639,32.2666667 C20.8965611,32.099017 22.9228775,31.4426737 24.7145228,30.3511111 C24.9492404,31.037802 25.2920713,31.6833196 25.7302905,32.2637037 C26.8222407,33.7555556 28.1965145,34.6148148 28.7985062,34.1807407 C29.4004979,33.7466667 29.0031535,32.1851852 27.9022407,30.6933333 C27.4827382,30.1032409 26.9732463,29.5814489 26.3920332,29.1466667 Z" id="Path"></path>
        </g>
    </g>
</svg>