<?xml version="1.0" encoding="UTF-8"?>
<svg width="40px" height="40px" viewBox="0 0 40 40" version="1.1" xmlns="http://www.w3.org/2000/svg" xmlns:xlink="http://www.w3.org/1999/xlink">
    <!-- Generator: Sketch 53.2 (72643) - https://sketchapp.com -->
    <title>jenkins</title>
    <desc>Created with Sketch.</desc>
    <g id="jenkins" stroke="none" stroke-width="1" fill="none" fill-rule="evenodd">
        <g transform="translate(2.000000, 0.000000)" fill="#082038" fill-rule="nonzero" id="Shape">
            <path d="M36.1796875,33.203125 C36.0703125,32.328125 34.6953125,31.3984375 33.9765625,30.7109375 C33.578125,30.3203125 31.7109375,28.90625 31.6015625,28.375 C31.4921875,27.859375 32.359375,26.6953125 32.640625,26.1171875 C33.0390625,25.28125 33.328125,24.265625 33.5234375,23.5703125 C34.9921875,18.40625 35.140625,11.3125 33.0390625,7.0703125 C32.2421875,5.4609375 30.0234375,3.2421875 28.6328125,2.1875 C25.3515625,-0.2890625 19.2890625,-0.5703125 15.34375,0.890625 C14.2421875,1.296875 13.171875,1.65625 12.2109375,2.2265625 C9.625,3.7421875 6.875,4.765625 6.109375,7.8203125 C4.21875,8.6640625 3.6484375,11.0859375 3.7421875,13.8984375 C3.7578125,14.4453125 4.0625,15.1328125 3.953125,15.6484375 C3.8984375,15.90625 3.546875,16.2421875 3.4765625,16.4140625 C2.5703125,18.578125 3.296875,21.4140625 4.34375,22.953125 C4.9765625,23.8828125 6.0234375,24.703125 7.40625,24.921875 C7.4609375,25.75 7.6640625,26.4609375 8.046875,27.296875 C8.2890625,27.828125 9.1953125,28.78125 8.859375,29.4609375 C8.6875,29.8046875 7.21875,30.5390625 6.7265625,30.8359375 C5.078125,31.8125 3.8828125,32.421875 2.359375,33.515625 C1.375,34.21875 -0.1640625,34.3125 0.078125,35.9453125 C0.2421875,37.046875 0.8671875,38.4140625 1.2265625,39.5234375 C1.28125,39.6796875 1.3359375,39.84375 1.390625,39.9921875 L34.359375,39.9921875 C34.7421875,38.796875 35.1171875,37.578125 35.5,36.3046875 C35.765625,35.4140625 36.296875,34.1328125 36.1796875,33.203125 Z M14.2109375,2.6328125 C14.3515625,2.59375 14.4765625,2.6875 14.59375,2.8203125 C14.578125,3.2265625 14.171875,3.21875 13.8984375,3.3515625 C13.4765625,3.875 12.8515625,4.1171875 12.3359375,4.6953125 C11.8046875,5.28125 11.2109375,6.859375 10.5078125,7.0390625 C10.15625,7.125 9.75,6.9765625 9.4453125,7 C8.6328125,7.0546875 8.0625,7.46875 7.234375,7.5859375 C8.296875,5.25 11.6171875,3.3671875 14.2109375,2.6328125 L14.2109375,2.6328125 Z M6.0234375,9.9453125 C7.078125,8.78125 8.53125,8.0625 10.3046875,7.921875 C11.21875,10.2421875 9.6484375,13 10.234375,15.546875 C10.4140625,16.3203125 11.03125,17.53125 10.046875,17.5546875 C10.0703125,15.34375 7.328125,13.9375 5.2578125,15.2421875 C5.1171875,13.5625 4.875,11.203125 6.0234375,9.9453125 Z M8.890625,25.5859375 C8.8125,25.265625 8.6796875,24.578125 8.7109375,24.40625 C8.8359375,23.7265625 10.046875,23.4296875 9.5703125,22.4765625 C8.6875,22.46875 8.4921875,23.2734375 7.6875,23.359375 C5.6015625,23.5625 4.125,20.59375 4.21875,18.796875 C4.296875,17.2734375 5.59375,15.8125 7.3515625,16 C8.6015625,16.140625 9.0234375,17.5 9.265625,18.7109375 C9.984375,18.75 11.0234375,18.6796875 11.3671875,18.1171875 C11.3203125,16.75 10.6796875,15.6484375 10.7265625,14.390625 C10.8046875,12.0234375 12.09375,9.890625 11.1015625,7.5625 C12.1640625,5.1484375 15.28125,3.2421875 17.59375,2.09375 C20.453125,0.6640625 25.0078125,1.8046875 27.6953125,3.328125 C29.234375,4.1953125 30.3828125,5.8828125 31.46875,7.2890625 C29.9453125,6.8359375 28.6484375,7.6171875 28.8828125,8.875 C30.15625,7.7109375 32.3359375,8.859375 32.984375,10.15625 C33.6015625,11.390625 33.59375,13.2265625 33.6875,15.0625 C33.9140625,19.515625 32.875,24.1171875 30.6328125,27.3359375 C30.03125,28.1953125 29.53125,29.1328125 28.6875,29.7265625 C26.65625,31.1484375 23.578125,32.4375 20.9375,31.5546875 C17.4453125,30.3828125 15.859375,28.0546875 13.9453125,25.3984375 C14,26.859375 15.0234375,28.0625 16.0390625,29.1796875 C16.921875,30.15625 17.9921875,31.2578125 19.140625,31.7109375 C18.1796875,31.484375 16.7109375,31.4140625 16.3125,32.2734375 C14.078125,32.125 12.0078125,31.8984375 10.9453125,30.3828125 C10.1171875,29.1796875 9.2734375,27.1484375 8.890625,25.5859375 Z M26.234375,35.28125 C26.5546875,35.046875 27.1015625,35.0546875 27.59375,35 C27.171875,34.7890625 26.578125,34.7109375 26.0859375,34.828125 C26.078125,34.5 25.9296875,34.296875 25.8359375,34.03125 C26.6640625,33.734375 28.609375,31.8046875 29.7109375,32.4453125 C30.234375,32.75 30.453125,34.4921875 30.5,35.3359375 C30.53125,36.0390625 30.4375,36.7421875 30.1484375,37.1171875 C28.6796875,37.0703125 27.3515625,36.8984375 26.1875,36.5703125 C26.2578125,36.09375 26.109375,35.625 26.234375,35.28125 L26.234375,35.28125 Z M24.890625,33.71875 C23.578125,33.78125 22.859375,33.625 21.8984375,32.875 C21.9140625,32.8125 22.0078125,32.8359375 22.015625,32.765625 C23.421875,33.390625 25.203125,32.5078125 26.625,32.3828125 C26.0078125,32.78125 25.484375,33.2890625 24.890625,33.71875 L24.890625,33.71875 Z M23.9453125,36.3125 C23.8203125,35.578125 23.671875,35.375 23.7265625,34.734375 C25.6796875,33.4375 26.046875,36.96875 23.9453125,36.3125 Z M15.78125,34.265625 C14.875,34.2109375 12.0234375,33.171875 12.7734375,32.4140625 C13.5078125,32.921875 14.921875,32.796875 16,32.984375 C16.0625,33.328125 15.78125,33.78125 15.78125,34.265625 Z M2.6328125,38.8359375 C2.296875,37.84375 1.9140625,36.875 1.4765625,35.953125 C3.8828125,34.09375 6.578125,32.1328125 9.4609375,30.9921875 C9.6796875,30.90625 11.2734375,32.9765625 11.5078125,33.1484375 C12.796875,34.0625 14.3984375,34.7890625 15.8984375,35.5078125 C15.9921875,36.1953125 16.203125,37.0859375 16.578125,38.28125 C16.6328125,38.4609375 16.6875,38.6484375 16.75,38.84375 L2.6328125,38.84375 L2.6328125,38.8359375 Z M21.449375,39.2976563 L21.369375,39.2976563 C21.399375,39.2776562 21.419375,39.2576563 21.449375,39.2476562 L21.449375,39.2976563 Z M22.015625,38.8359375 C22.1796875,38.7265625 22.3515625,38.6171875 22.515625,38.5 C22.6015625,38.609375 22.6875,38.71875 22.765625,38.8359375 L22.015625,38.8359375 L22.015625,38.8359375 Z M23.1953125,36.90625 C22.3515625,37.4765625 21.5859375,38.3359375 20.59375,38.875 C20.125,39.1328125 18.484375,39.7890625 17.984375,39.671875 C17.703125,39.609375 17.6796875,39.2578125 17.5625,38.9296875 C17.3203125,38.2265625 16.7734375,37.1015625 16.71875,36.0390625 C16.65625,34.6953125 16.5234375,32.4453125 17.96875,32.7265625 C19.1328125,32.953125 20.4921875,33.484375 21.3984375,33.984375 C21.953125,34.2890625 22.265625,34.65625 23.109375,34.7265625 C23.1015625,34.8359375 23.1015625,34.9453125 23.09375,35.0625 C22.6328125,35.3671875 21.8984375,35.359375 21.390625,35.6171875 C22.1328125,35.6484375 22.71875,35.828125 23.2265625,36.078125 C23.21875,36.34375 23.203125,36.625 23.1953125,36.90625 L23.1953125,36.90625 Z M27.3671875,38.8359375 L26.2734375,38.8359375 C26.265625,38.5859375 26.0546875,38.3828125 25.796875,38.3828125 C25.5390625,38.3828125 25.3359375,38.5859375 25.3203125,38.8359375 L23.9609375,38.8359375 C23.7421875,38.4921875 23.515625,38.1640625 23.265625,37.859375 C23.4296875,37.6875 23.578125,37.4921875 23.734375,37.3203125 C24.4375,37.609375 24.890625,36.9375 25.4296875,36.9921875 C26.046875,37.0546875 26.5390625,37.90625 27.4140625,37.8515625 L27.3671875,38.8359375 L27.3671875,38.8359375 Z M28.046875,38.8359375 C28.0625,38.5234375 28.078125,38.2265625 28.09375,37.9375 C29.3125,37.3671875 30.359375,38.0390625 30.8828125,38.8359375 L28.046875,38.8359375 Z M34.5625,35.9453125 C34.3828125,36.8203125 34.109375,37.8203125 33.7890625,38.84375 C33.7734375,38.8359375 33.7578125,38.8359375 33.7421875,38.8359375 L31.5625,38.8359375 C31.609375,38.75 31.65625,38.6640625 31.7109375,38.578125 C31.5078125,38.1015625 31.0078125,37.8984375 30.859375,37.3671875 C31.8046875,35.59375 31.3671875,30.0703125 28.96875,31.234375 C29.3046875,30.7421875 30.1875,30.3359375 30.59375,29.7265625 C31.609375,30.5390625 32.21875,31.3125 33.1875,32.1796875 C33.71875,32.6484375 34.75,33.21875 34.859375,33.984375 C34.921875,34.4140625 34.65625,35.4609375 34.5625,35.9453125 Z M15.484375,10.1953125 C15.90625,9.03125 17.609375,7.484375 19,7.6953125 C19.6015625,7.7890625 20.40625,8.3359375 19.953125,9.078125 C17.59375,8.53125 16.421875,10.0625 15.703125,11.6640625 C15.0703125,11.5078125 15.3203125,10.640625 15.484375,10.1953125 L15.484375,10.1953125 Z M29.8671875,15.125 C30.5078125,14.84375 31.6171875,15.0703125 32.1796875,14.7109375 C31.8515625,13.8125 31.375,13.0390625 31.453125,11.765625 C31.4921875,11.765625 31.53125,11.765625 31.5625,11.7734375 C32.09375,12.8828125 32.5546875,14.0546875 33.234375,15.03125 C32.7890625,16.0859375 29.828125,17.015625 29.8671875,15.125 L29.8671875,15.125 Z M22.3046875,15.3359375 C21.7734375,14.484375 20.8203125,12.796875 21.171875,11.796875 C21.6796875,12.7265625 21.84375,13.703125 22.5625,14.3984375 C22.8828125,14.7109375 23.515625,15.1015625 23.203125,15.9765625 C23.1328125,16.1875 22.59375,16.6484375 22.2890625,16.734375 C21.1640625,17.0703125 18.546875,16.8046875 19.4296875,15.3984375 C20.359375,15.453125 21.609375,16.0078125 22.3046875,15.3359375 L22.3046875,15.3359375 Z M24.4375,20.8046875 C24.734375,21.3203125 24.546875,22.265625 25.3828125,22.4140625 C26.9609375,22.6796875 28.7890625,21.453125 29.921875,21.0234375 C30.625,19.8359375 29.859375,19.40625 29.2265625,18.640625 C27.9296875,17.078125 26.1953125,15.140625 26.2578125,12.8046875 C26.78125,12.421875 26.828125,13.3828125 26.8984375,13.5625 C27.578125,15.1484375 29.2734375,17.171875 30.515625,18.5234375 C30.8203125,18.859375 31.3203125,19.1796875 31.375,19.3984375 C31.5390625,20.0390625 30.953125,20.8046875 31.0234375,21.234375 C29.328125,22.3203125 27.4453125,23.5078125 24.6640625,23.234375 C24.0859375,22.7109375 23.859375,21.5625 24.4375,20.8046875 L24.4375,20.8046875 Z M8.7109375,20.0859375 C8.1796875,19.78125 8.0546875,18.4453125 7.4296875,18.4140625 C6.5390625,18.359375 6.703125,20.1484375 6.703125,21.1875 C6.09375,20.6328125 5.984375,18.9140625 6.4296875,18.0390625 C5.9140625,17.7890625 5.6875,18.3203125 5.40625,18.5 C5.7734375,15.8359375 9.296875,17.265625 8.7109375,20.0859375 Z M32.1171875,22.3359375 C31.328125,23.8359375 30.2109375,25.4921875 27.8984375,25.5390625 C27.8515625,25.0546875 27.8125,24.3203125 27.8984375,24.0234375 C29.671875,23.8515625 30.7578125,22.953125 32.1171875,22.3359375 Z M21.03125,23.3046875 C22.5078125,24.078125 25.21875,24.1640625 27.2265625,24.1015625 C27.3359375,24.5390625 27.328125,25.0859375 27.3359375,25.6171875 C24.7578125,25.7578125 21.7109375,25.1171875 21.03125,23.3046875 L21.03125,23.3046875 Z M28.234375,26.953125 C28.1015625,27.2890625 27.8203125,27.6796875 27.46875,27.8203125 C26.5234375,28.203125 23.90625,28.5 22.59375,27.796875 C21.7578125,27.3515625 21.2265625,26.3515625 20.765625,25.765625 C20.546875,25.484375 19.4453125,24.7578125 20.75,24.7578125 C21.7734375,27.3125 25.28125,27.0234375 28.234375,26.953125 L28.234375,26.953125 Z"></path>
        </g>
    </g>
</svg>