<svg width="1629" height="231" viewBox="0 0 1629 231" fill="none" xmlns="http://www.w3.org/2000/svg">
<path d="M1459.65 180.988L895.157 180.755" stroke="#73FFCD" stroke-width="22" stroke-linecap="round" stroke-linejoin="round"/>
<path d="M1317.9 137.365L1534.69 137.178" stroke="#73FFCD" stroke-width="11" stroke-linecap="round" stroke-linejoin="round"/>
<path d="M704.353 225.727L991.567 225.48L1079.33 137.568L1280.42 137.395" stroke="#73FFCD" stroke-width="9" stroke-linecap="round" stroke-linejoin="round"/>
<path d="M704.314 181.692L1338.21 181.146" stroke="#19B99A" stroke-width="9" stroke-linecap="round" stroke-linejoin="round"/>
<path d="M704.279 137.654L1027.75 137.375" stroke="#19B99A" stroke-width="9" stroke-linecap="round" stroke-linejoin="round"/>
<path d="M704.242 93.619L1235.47 93.1614" stroke="#19B99A" stroke-width="11" stroke-linecap="round" stroke-linejoin="round"/>
<path d="M704.204 49.5823L1096.82 49.2441L1183.36 135.639" stroke="#73FFCD" stroke-width="11" stroke-linecap="round" stroke-linejoin="round"/>
<path d="M704.162 5.54562L930.58 5.35059" stroke="#19B99A" stroke-width="9" stroke-linecap="round" stroke-linejoin="round"/>
<path d="M972.879 5.31314L1054.11 5.24316" stroke="#19B99A" stroke-width="9" stroke-linecap="round" stroke-linejoin="round"/>
<path d="M1570.57 136.911L1622.93 136.866" stroke="#73FFCD" stroke-width="11" stroke-linecap="round" stroke-linejoin="round"/>
<path d="M169.594 181.598L734.085 180.704" stroke="#73FFCD" stroke-width="22" stroke-linecap="round" stroke-linejoin="round"/>
<path d="M311.292 137.809L94.502 137.876" stroke="#73FFCD" stroke-width="11" stroke-linecap="round" stroke-linejoin="round"/>
<path d="M924.942 225.452L637.728 225.541L549.867 137.733L348.772 137.795" stroke="#73FFCD" stroke-width="9" stroke-linecap="round" stroke-linejoin="round"/>
<path d="M924.929 181.417L291.033 181.614" stroke="#19B99A" stroke-width="9" stroke-linecap="round" stroke-linejoin="round"/>
<path d="M924.913 137.379L601.439 137.479" stroke="#19B99A" stroke-width="9" stroke-linecap="round" stroke-linejoin="round"/>
<path d="M924.899 93.3442L393.675 93.5088" stroke="#19B99A" stroke-width="11" stroke-linecap="round" stroke-linejoin="round"/>
<path d="M924.885 49.3073L532.269 49.429L445.826 135.925" stroke="#73FFCD" stroke-width="11" stroke-linecap="round" stroke-linejoin="round"/>
<path d="M924.875 5.27068L698.457 5.34082" stroke="#19B99A" stroke-width="9" stroke-linecap="round" stroke-linejoin="round"/>
<path d="M656.159 5.35276L574.925 5.37793" stroke="#19B99A" stroke-width="9" stroke-linecap="round" stroke-linejoin="round"/>
<path d="M58.6198 137.651L6.2627 137.667" stroke="#73FFCD" stroke-width="11" stroke-linecap="round" stroke-linejoin="round"/>
</svg>
