<svg xmlns="http://www.w3.org/2000/svg" width="84.514" height="26.279" viewBox="0 0 84.514 26.279">
    <path d="M51.1,1.014h5.663v2.3A7.446,7.446,0,0,1,62.78.365a7.118,7.118,0,0,1,6.3,3.649A8.539,8.539,0,0,1,76.307.365a7.762,7.762,0,0,1,6.939,3.9,12.476,12.476,0,0,1,1.272,6.257v15.35H78.851v-13.7a11.7,11.7,0,0,0-.522-4.426,3.226,3.226,0,0,0-3.237-2.189,4.164,4.164,0,0,0-3.355,1.824c-.983,1.416-1.1,3.543-1.1,5.666V25.869H64.974v-13.7a11.7,11.7,0,0,0-.522-4.426,3.226,3.226,0,0,0-3.237-2.189,4.161,4.161,0,0,0-3.351,1.824c-.983,1.416-1.1,3.543-1.1,5.666V25.869H51.1Zm-19.615,0h5.667V3.258A9.869,9.869,0,0,1,39.52,1.193,6.432,6.432,0,0,1,42.99.365a8.269,8.269,0,0,1,4.452,1.182L45.116,6.8a5.055,5.055,0,0,0-2.891-.887A4.355,4.355,0,0,0,38.7,7.272C37.137,8.983,37.137,11.344,37.137,13V25.869H31.488ZM5.777,13.529c0,4.309,2.658,7.91,6.764,7.91,3.573,0,6.878-2.656,6.878-7.852,0-5.433-3.294-8.027-6.878-8.027C8.436,5.561,5.777,9.1,5.777,13.529ZM19.072,1.014H24.75V25.869H19.076v-2.6a9.265,9.265,0,0,1-7.282,3.364C4.291,26.635,0,20.261,0,13.412,0,5.323,5.438.365,11.855.365a8.8,8.8,0,0,1,7.228,3.543Z" transform="translate(-0.004 -0.358)" fill="currentColor"/>
</svg>