<svg xmlns="http://www.w3.org/2000/svg" width="103.001" height="27.282" viewBox="0 0 103.001 27.282">
    <path d="M-402.42-826.312c-.111-.3-1.05-2.213-2.13-4.37-1.387,2.154-2.6,4.056-2.762,4.345a7.911,7.911,0,0,1-1.029,1.595l-2.392-.034v-.2a3.2,3.2,0,0,0,.533-.332,4.456,4.456,0,0,0,.664-.963c.075-.188,2.141-3.48,3.985-6.4-1.221-2.416-2.359-4.63-2.482-4.8a2.7,2.7,0,0,0-1.029-.828,3.569,3.569,0,0,0-1.361-.366,11.555,11.555,0,0,0-1.527-.1h-6.808v10.337l-2.16-.034v-22.786h8.932a10.036,10.036,0,0,1,5.778,1.395,5.2,5.2,0,0,1,1.993,4.58,6.162,6.162,0,0,1-.851,3.42,6.8,6.8,0,0,1-2.835,2.16,3.592,3.592,0,0,1,1.6,1.029,4.918,4.918,0,0,1,.862,1.526c.058.166.526,1.15,1.159,2.464.849-1.339,1.487-2.34,1.586-2.488a9.708,9.708,0,0,1,.8-1.1c.366-.427,2.129-.365,2.823-.365l0,.3a3.109,3.109,0,0,0-1.028.831c-.138.169-1.608,2.422-3.187,4.863,1.416,2.916,3.021,6.2,3.1,6.383a3.579,3.579,0,0,0,.665.962,2.286,2.286,0,0,0,.532.332v.2l-2.391.034A4.13,4.13,0,0,1-402.42-826.312Zm-16.336-14.333h6.706a9.309,9.309,0,0,0,2.225-.266,4.951,4.951,0,0,0,1.794-.8,4.047,4.047,0,0,0,1.194-1.395,4.378,4.378,0,0,0,.426-2.057,4.419,4.419,0,0,0-.466-2.093,3.3,3.3,0,0,0-1.228-1.294,5.1,5.1,0,0,0-1.76-.664,10.534,10.534,0,0,0-2.059-.2h-6.831Zm-80.222,9.495C-501-833.241-502-836.131-502-839.781a12.671,12.671,0,0,1,3.054-8.865A10.4,10.4,0,0,1-490.877-852a10.594,10.594,0,0,1,6.979,2.191,8.166,8.166,0,0,1,2.058,2.454,8.139,8.139,0,0,1,.957,3.057h-4.648a4.374,4.374,0,0,0-2.656-3.254,6.7,6.7,0,0,0-2.624-.5,5.63,5.63,0,0,0-2.5.521,5.633,5.633,0,0,0-2.013,1.572c-1.2,1.392-1.76,3.452-1.76,6.242s.639,4.781,1.917,5.944a6.271,6.271,0,0,0,4.349,1.759,5.679,5.679,0,0,0,3.918-1.361,5.93,5.93,0,0,0,1.894-3.62h-5.279v-3.85h9.5v12.217h-3.154l-.466-2.853a11.459,11.459,0,0,1-2.489,2.289,8.763,8.763,0,0,1-4.649,1.163A9.7,9.7,0,0,1-498.978-831.15Zm41.507.467a9.785,9.785,0,0,1-2.129-6.342,9.693,9.693,0,0,1,2.129-6.307c1.427-1.794,3.584-2.656,6.474-2.656s5.045.895,6.474,2.656a9.8,9.8,0,0,1,2.129,6.307,9.786,9.786,0,0,1-2.129,6.342c-1.429,1.76-3.587,2.623-6.474,2.623S-456.044-828.912-457.471-830.683Zm3.49-10.224a6.32,6.32,0,0,0-1.029,3.884,6.387,6.387,0,0,0,1.029,3.916A3.468,3.468,0,0,0-451-831.746a3.554,3.554,0,0,0,2.956-1.361,6.394,6.394,0,0,0,1.029-3.916,6.239,6.239,0,0,0-1.029-3.884A3.535,3.535,0,0,0-451-842.27,3.554,3.554,0,0,0-453.981-840.907Zm-22.295,10.224a9.78,9.78,0,0,1-2.129-6.342,9.7,9.7,0,0,1,2.129-6.307c1.427-1.794,3.586-2.656,6.475-2.656s5.046.895,6.474,2.656a9.788,9.788,0,0,1,2.129,6.307,9.968,9.968,0,0,1-2.129,6.342c-1.427,1.76-3.584,2.623-6.474,2.623S-474.846-828.912-476.276-830.683Zm3.471-10.224a6.338,6.338,0,0,0-1.029,3.884,6.393,6.393,0,0,0,1.029,3.916,3.48,3.48,0,0,0,2.982,1.361,3.5,3.5,0,0,0,2.954-1.361,6.382,6.382,0,0,0,1.029-3.916,6.239,6.239,0,0,0-1.029-3.884,3.533,3.533,0,0,0-2.954-1.364A3.552,3.552,0,0,0-472.8-840.907Zm34,10.422a9.067,9.067,0,0,1-2.026-6.142,10.422,10.422,0,0,1,1.992-6.774,6.454,6.454,0,0,1,5.323-2.489,5.342,5.342,0,0,1,2.7.7,5.443,5.443,0,0,1,1.928,1.859v-8.035h4.482v22.744h-4.284v-2.332a6.5,6.5,0,0,1-2.157,2.192,5.867,5.867,0,0,1-2.982.664A6.315,6.315,0,0,1-438.8-830.485Zm6.235-11.521a3.078,3.078,0,0,0-2.822,1.461,6.794,6.794,0,0,0-.9,3.62,6.5,6.5,0,0,0,.931,3.719,3.087,3.087,0,0,0,2.788,1.4,3.219,3.219,0,0,0,2.823-1.4v.006a6.018,6.018,0,0,0,.963-3.587c0-2.057-.533-3.518-1.561-4.414a3.382,3.382,0,0,0-2.191-.8Z" transform="translate(502 852)" fill="currentColor"/>
</svg>