<svg width="119" height="33" viewBox="0 0 119 33" fill="none"
    xmlns="http://www.w3.org/2000/svg">
    <path d="M7.8444 28.8394C8.09612 28.5042 8.34731 28.1697 8.60708 27.8262L8.48853 27.7225C8.33576 27.5876 8.18033 27.4552 8.02484 27.3227C7.69296 27.04 7.36084 26.757 7.05382 26.4493C3.51978 22.9134 2.08414 17.9521 3.19028 13.1337C4.24507 8.54112 6.96608 5.21898 11.2151 3.18219C13.6738 2.00138 16.2875 1.6308 18.9945 1.93884C19.449 1.99032 19.4487 1.99883 19.44 2.28337C19.4386 2.32897 19.4369 2.38181 19.4369 2.4429V25.1378C19.4369 25.2119 19.4413 25.2855 19.4459 25.3622C19.448 25.3977 19.4501 25.4339 19.4519 25.4711H21.2618C21.2634 25.4312 21.2654 25.3924 21.2674 25.3544C21.2712 25.2796 21.2749 25.2078 21.2749 25.136V2.03032C21.2597 1.56954 21.0816 1.12907 20.7723 0.787234C20.4629 0.445403 20.0423 0.224364 19.5854 0.163422C17.3386 -0.156192 15.0499 -0.00520092 12.8645 0.60681C6.50682 2.4037 1.84704 7.8737 1.11149 14.3892C0.901788 16.137 0.981261 17.9075 1.34672 19.6296C2.18962 23.5024 4.19 26.6593 7.29278 29.1209C7.33501 29.1546 7.3792 29.1857 7.4281 29.2201C7.45486 29.2389 7.48303 29.2587 7.51308 29.2805L7.8444 28.8394Z" fill="currentColor"/>
    <path d="M16.5183 32.5417C16.5575 32.5478 16.5968 32.5539 16.6362 32.5595H17.9131C17.9408 32.5547 17.9683 32.5495 17.9958 32.5443C18.0583 32.5325 18.1209 32.5206 18.1857 32.5129C18.4006 32.4883 18.616 32.4679 18.8314 32.4476C19.2784 32.4054 19.7257 32.3632 20.1665 32.2832C23.4746 31.6793 26.3431 30.2007 28.7281 27.8316C31.52 25.0602 33.1059 21.6998 33.4886 17.7793C33.646 16.2153 33.5667 14.6366 33.2534 13.0962C32.4441 9.16639 30.4465 5.96093 27.3157 3.45742C27.2621 3.414 27.2059 3.37276 27.1428 3.32654C27.1137 3.30519 27.0831 3.28278 27.0506 3.2586L25.9566 4.71384C25.9721 4.72833 25.985 4.74084 25.9964 4.75187C26.0173 4.7721 26.0331 4.78736 26.05 4.80065C26.6082 5.223 27.1319 5.68901 27.6163 6.19429C31.0187 9.80674 32.319 14.0745 31.4668 18.9545C30.9422 21.9574 29.5318 24.5366 27.3185 26.6368C24.0253 29.7657 20.0899 31.067 15.573 30.6058C15.5141 30.5998 15.463 30.5956 15.4185 30.592C15.2823 30.5809 15.2092 30.5749 15.1702 30.5354C15.1251 30.4897 15.1255 30.3991 15.1265 30.2037C15.1266 30.1734 15.1268 30.1402 15.1268 30.1046V7.27522C15.1255 7.2324 15.119 7.18725 15.1127 7.14306C15.1101 7.12464 15.1075 7.10638 15.1053 7.08853C14.7375 7.04 13.4867 7.05586 13.2916 7.11467V30.2129C13.2916 30.3314 13.2935 30.4518 13.301 30.5704C13.3214 31.0004 13.487 31.4107 13.7708 31.7344C14.0547 32.0581 14.4399 32.2759 14.8635 32.3523C15.1818 32.408 15.5044 32.4367 15.8272 32.4653C15.9805 32.479 16.1341 32.4926 16.2871 32.5091C16.3644 32.5178 16.4413 32.5297 16.5183 32.5417Z" fill="currentColor"/>
    <path fill-rule="evenodd" clip-rule="evenodd" d="M117.492 23.9467L119 23.9616L119.001 8.6073H117.195C117.193 8.64723 117.191 8.68397 117.189 8.71855C117.185 8.79149 117.182 8.85481 117.182 8.91814V10.4527C117.182 10.4968 117.176 10.5408 117.169 10.5933L117.164 10.6369L117.16 10.6645L117.157 10.6926L117.111 10.6499C117.069 10.6101 117.04 10.584 117.014 10.5563C115.177 8.71184 112.943 8.00709 110.399 8.38047C107.726 8.77625 105.797 10.2558 104.624 12.6911C103.914 14.1669 103.704 15.7435 103.895 17.3518C104.086 18.9602 104.66 20.4192 105.754 21.6214C107.828 23.9037 110.422 24.6915 113.428 24.0708C114.849 23.7856 116.124 23.0113 117.032 21.8828C117.051 21.8579 117.073 21.8351 117.095 21.8122L117.11 21.797L117.126 21.7801L117.179 21.7932V23.9467H117.492ZM117.112 13.3959L117.112 16.6707C117.112 17.4124 117.113 18.1536 117.105 18.8948C117.111 19.004 117.089 19.1129 117.042 19.2113C116.159 20.6619 114.955 21.725 113.308 22.2216C111.566 22.7462 109.933 22.4494 108.41 21.4926C107.125 20.6852 106.341 19.5025 105.968 18.0547C105.471 16.1188 105.713 14.2715 106.821 12.5913C107.702 11.2527 108.978 10.4742 110.543 10.1942C112.645 9.82078 114.442 10.4975 116.01 11.8809C116.381 12.2096 116.709 12.5827 116.988 12.9917C117.072 13.1095 117.115 13.2514 117.112 13.3959Z" fill="currentColor"/>
    <path d="M76.2303 23.9345H74.3634C74.3037 23.7086 74.3046 8.84814 74.3634 8.62598C74.3912 8.62598 74.4197 8.62322 74.4483 8.62044C74.4775 8.61762 74.5069 8.61477 74.5361 8.61477H76.1426C76.1765 8.77518 76.1726 8.93103 76.1687 9.08455C76.1671 9.15059 76.1654 9.21683 76.1668 9.28219C76.17 9.42705 76.1689 9.57563 76.1679 9.72436C76.1674 9.79883 76.1668 9.87365 76.1668 9.94774V10.6637C77.722 8.90228 79.6355 8.14805 81.8889 8.30674C84.1609 8.46636 85.9139 9.52769 87.1059 11.5215C87.1332 11.4853 87.1583 11.4515 87.1821 11.4194C87.2255 11.3608 87.2646 11.3081 87.3038 11.2592C88.1887 10.0906 89.2781 9.18324 90.6754 8.69412C92.2763 8.13405 93.8986 8.10138 95.4911 8.69412C97.7416 9.52769 99.1063 11.15 99.5833 13.507C99.7199 14.2194 99.7855 14.9435 99.7793 15.6688C99.7837 18.313 99.7837 20.9578 99.7793 23.6032V23.8963C99.5777 23.9523 98.2168 23.9653 97.8751 23.9159C97.8751 23.8698 97.8724 23.8223 97.8696 23.7742C97.868 23.7457 97.8663 23.7168 97.8652 23.6881C97.8644 23.6672 97.8639 23.6464 97.8639 23.6256V16.0254C97.88 15.2317 97.8077 14.4387 97.6483 13.661C97.4482 12.7321 96.9599 11.8902 96.2531 11.2552C95.5462 10.6202 94.6569 10.2247 93.7119 10.1251C92.3892 9.97294 91.1916 10.3118 90.0986 11.0464C89.1651 11.6756 88.4632 12.5091 87.9208 13.4874C87.8612 13.591 87.8395 13.7121 87.8592 13.83C88.0002 14.7345 88.0086 15.6464 88.0067 16.5594C88.003 18.9048 88.003 21.2506 88.0067 23.5966V23.9289C87.5967 23.9482 87.1933 23.9461 86.7832 23.9439C86.5584 23.9427 86.3316 23.9416 86.1006 23.9439C86.0991 23.9138 86.0975 23.8849 86.0959 23.8567C86.0916 23.7789 86.0875 23.7067 86.0875 23.6349L86.0878 16.6191C86.0886 16.143 86.0894 15.666 86.0707 15.1909C86.0418 14.4824 85.9671 13.7749 85.7123 13.1075C85.0589 11.3834 83.7996 10.3529 81.972 10.1419C79.7653 9.88613 78.0515 10.8224 76.7054 12.5269C76.703 12.5297 76.7008 12.5326 76.6987 12.5357L76.6905 12.5474C76.4588 12.8649 76.3435 13.0229 76.2862 13.1997C76.2294 13.3747 76.2294 13.5682 76.2294 13.9532V23.9317L76.2303 23.9345Z" fill="currentColor"/>
    <path fill-rule="evenodd" clip-rule="evenodd" d="M66.7511 10.7019V8.63434H68.5816V23.9317C68.2035 23.9513 67.8262 23.949 67.4462 23.9466C67.2296 23.9453 67.0121 23.9439 66.7932 23.9466C66.7437 23.773 66.7491 23.6053 66.7544 23.4404C66.7567 23.3685 66.759 23.2971 66.7567 23.226C66.7518 23.0699 66.7534 22.91 66.7551 22.75C66.7559 22.6699 66.7567 22.5897 66.7567 22.51V21.7493C66.7076 21.7858 66.6608 21.8254 66.6167 21.8678C65.4583 23.268 63.9499 24.0204 62.1651 24.2192C59.7185 24.4908 57.5726 23.7963 55.7775 22.1049C54.6266 21.0203 53.9181 19.6724 53.597 18.1303C53.1741 16.1075 53.3944 14.1566 54.3811 12.3261C55.6226 10.0158 57.5669 8.68101 60.1694 8.35337C62.4162 8.07334 64.4278 8.66141 66.1556 10.1493C66.2691 10.2471 66.3745 10.3518 66.4811 10.4577C66.5201 10.4964 66.5592 10.5353 66.599 10.574C66.6201 10.5946 66.643 10.6132 66.6771 10.6409C66.6972 10.6574 66.7213 10.6769 66.7511 10.7019ZM66.6811 13.3968C66.6855 13.2523 66.6426 13.1104 66.5589 12.9926C66.24 12.5276 65.8594 12.108 65.4275 11.7455C64.0003 10.546 62.377 9.9113 60.4933 10.1381C58.66 10.3594 57.2038 11.2312 56.2405 12.8274C55.3071 14.3741 55.0821 16.0543 55.476 17.8055C55.8961 19.6724 56.9406 21.0623 58.6936 21.8884C60.0994 22.5511 61.5444 22.6641 63.022 22.1768C64.6005 21.6559 65.7589 20.6142 66.6111 19.2131C66.6596 19.1146 66.6821 19.0054 66.6765 18.8957C66.6818 18.1498 66.6815 17.4038 66.6813 16.6574L66.6811 13.3968Z" fill="currentColor"/>
    <path d="M48.5825 11.3283C48.9232 10.7953 49.2481 10.2865 49.5701 9.78062C49.5511 9.7537 49.5292 9.72897 49.5048 9.70687C49.4497 9.66767 49.3918 9.63033 49.3339 9.59486C47.9015 8.71165 46.2457 8.25809 44.5631 8.28803C43.2852 8.30764 42.1044 8.66795 41.0813 9.45951C39.9481 10.3398 39.3806 11.5028 39.4328 12.9459C39.4702 13.9886 39.9061 14.8343 40.7462 15.4606C41.1123 15.7268 41.5091 15.9481 41.928 16.1197C42.6598 16.4286 43.4261 16.6377 44.1906 16.8459C44.277 16.8694 44.3634 16.8927 44.4498 16.9161C45.1286 17.0993 45.8081 17.2828 46.4589 17.5544C46.8352 17.7008 47.188 17.9014 47.5062 18.1499C47.8757 18.433 48.133 18.8378 48.2325 19.2925C48.3128 19.641 48.3086 20.0037 48.2201 20.3502C48.1316 20.6968 47.9614 21.0171 47.7237 21.2844C47.3345 21.7484 46.8295 22.0424 46.2629 22.2366C45.3705 22.5399 44.4669 22.5437 43.5559 22.3635C42.3508 22.1236 41.2923 21.5747 40.3327 20.8214L40.0956 20.6348L39.9456 20.8233C39.6051 21.2514 39.268 21.6752 38.9138 22.1189C39.0119 22.1941 39.1063 22.2683 39.1988 22.341C39.4003 22.4992 39.5926 22.6503 39.7941 22.7892C40.936 23.565 42.2495 24.0516 43.6212 24.2071C44.5491 24.32 45.4769 24.3293 46.3954 24.1137C47.4596 23.8664 48.3986 23.3875 49.1314 22.5595C49.9313 21.6559 50.245 20.5853 50.1806 19.3923C50.1651 18.9216 50.05 18.4595 49.843 18.0365C49.6359 17.6135 49.3415 17.2392 48.9792 16.9383C48.5239 16.5638 48.014 16.2613 47.467 16.0413C46.8486 15.7777 46.2052 15.5884 45.5618 15.399C45.4691 15.3717 45.3763 15.3444 45.2837 15.3169C44.5248 15.091 43.7631 14.8567 43.0164 14.6056C42.6421 14.4795 42.294 14.2859 41.9896 14.0343C41.6619 13.7636 41.423 13.4341 41.367 13.0075C41.3146 12.673 41.3403 12.3308 41.442 12.0078C41.5437 11.6848 41.7186 11.3896 41.9532 11.1453C42.3093 10.7737 42.7528 10.4971 43.2432 10.3407C44.2625 9.98971 45.2921 10.0298 46.3236 10.2697C47.046 10.4378 47.6929 10.785 48.3193 11.1715C48.3705 11.2034 48.4225 11.2339 48.4764 11.2655C48.5109 11.2857 48.5461 11.3064 48.5825 11.3283Z" fill="currentColor"/>
</svg>
