<svg xmlns="http://www.w3.org/2000/svg" width="80.368" height="39.811" viewBox="0 0 80.368 39.811">
    <path d="M-674.122-819.566c0-4.587,2.991-7.373,7.548-7.373,4.356,0,7.316,2.7,7.316,6.648a14.984,14.984,0,0,1-.117,1.944h-10.336c.086,1.83,1.308,2.817,3.28,2.817,1.365,0,2.235-.376,2.613-1.247h4.355c-.434,2.758-3.251,4.587-6.968,4.587C-671.19-812.19-674.122-814.89-674.122-819.566Zm4.416-1.539h6.066a2.632,2.632,0,0,0-2.96-2.846A2.8,2.8,0,0,0-669.706-821.1Zm-32.824,1.539c0-4.182,2.583-7.373,6.648-7.373a4.8,4.8,0,0,1,4.384,2.38v-2h4.413v13.992H-691.5v-1.976a5.031,5.031,0,0,1-4.441,2.352C-700.119-812.19-702.53-815.356-702.53-819.566Zm4.527,0c0,2.118,1.277,3.688,3.34,3.688,2.209,0,3.339-1.655,3.339-3.688,0-2-1.133-3.659-3.339-3.659C-696.724-823.225-698-821.686-698-819.566Zm-35,2.8h4.569a1.593,1.593,0,0,0,1.852,1.414c.718-.034,1.419-.429,1.422-1.128,0-.639-.332-1.047-1.164-1.309l-2.8-.7c-2.233-.551-3.509-1.977-3.509-4.1,0-2.648,2.378-4.394,5.974-4.394,3.945,0,6.308,1.541,6.308,4.335h0v.065h-4.668v-.065c0-.99-.709-1.388-1.627-1.281a1.107,1.107,0,0,0-1.12,1.06c0,.569.317.971,1.234,1.245l2.714.751c2.2.582,3.537,1.92,3.54,4.044,0,2.91-2.41,4.626-6.12,4.626C-730.312-812.208-732.933-814.09-733-816.767Zm75.2,1.931a2.571,2.571,0,0,1,2.586-2.557,2.572,2.572,0,0,1,2.586,2.557,2.571,2.571,0,0,1-2.586,2.557A2.571,2.571,0,0,1-657.8-814.836Zm-50.853,2.3V-817.5h-5.323v4.971h-4.353v-14.034h4.353v5.039h5.323v-5.039h4.355v14.034Zm24.169-.036v-13.992h4.441v2.931a3.916,3.916,0,0,1,3.862-3.162,4.3,4.3,0,0,1,1.162.117l-.023,4.12a9.428,9.428,0,0,0-1.313-.086c-2.409,0-3.688,1.567-3.688,4.673v5.4ZM-733-834.93h4.569a1.593,1.593,0,0,0,1.852,1.413c.718-.034,1.419-.428,1.422-1.127,0-.64-.332-1.048-1.164-1.31l-2.8-.7c-2.233-.552-3.509-1.978-3.509-4.1,0-2.649,2.378-4.395,5.974-4.395,3.945,0,6.308,1.541,6.308,4.334h0v.065h-4.668v-.065c0-.99-.709-1.387-1.627-1.281a1.108,1.108,0,0,0-1.12,1.06c0,.569.317.972,1.234,1.245l2.714.751c2.2.583,3.537,1.921,3.54,4.044,0,2.911-2.41,4.626-6.12,4.626C-730.312-830.372-732.933-832.254-733-834.93Zm50.714,4.2v-14.031h4.441v9.865h6.337v4.166Zm-13.184,0v-14.031h4.442v9.865h6.336v4.166Zm-6.978,0v-14.031h4.413v14.031Zm-7.207,0-4.265-6.1v6.1h-4.413v-14.031h4.413v5.933l4.381-5.894h5.227l-5.372,6.62,5.455,7.373Zm6.827-18.71A2.572,2.572,0,0,1-700.241-852a2.572,2.572,0,0,1,2.586,2.557,2.573,2.573,0,0,1-2.586,2.558A2.573,2.573,0,0,1-702.827-849.443Z" transform="translate(733 852)" fill="currentColor"/>
</svg>