<svg xmlns="http://www.w3.org/2000/svg" width="138.413" height="25.768" viewBox="0 0 138.413 25.768">
    <path d="M99.519,18.295V16.47c-.843.725-2.6.76-4.142,1.032-1.544.31-2.944.827-2.944,2.62,0,1.823,1.434,2.273,3.049,2.273C99.379,22.394,99.519,19.363,99.519,18.295ZM35.035,14.368h8.1c-.456-2.482-1.544-3.791-3.965-3.791A3.889,3.889,0,0,0,35.035,14.368Zm17.868,0h8.106c-.458-2.482-1.544-3.791-3.967-3.791A3.889,3.889,0,0,0,52.9,14.368Zm35.319-.723H83.345a3.378,3.378,0,0,0-3.684-3.068c-3.191,0-4.248,3.172-4.248,5.789,0,2.548,1.021,5.614,4.14,5.614a3.81,3.81,0,0,0,3.968-3.616h4.236c.85-2.413,3.361-3.11,5.866-3.447,3.054-.447,5.9-.345,5.9-2.343,0-2.1-1.474-2.411-3.23-2.411-1.892,0-3.121,1.549-3.294,3.477Zm50.552,3.82H125.688c.138,3.1,1.684,4.515,4.453,4.515,2,0,3.614-1.205,3.93-2.306h4.388c-1.407,4.2-4.388,5.994-8.491,5.994-4.423,0-7.55-2.311-8.735-5.91-.172,4.455-4.224,5.91-8.274,5.91-3.977,0-7.861-1.38-8.458-5.51v1.065a8.966,8.966,0,0,0,.633,3.961h-5.055a7.217,7.217,0,0,1-.35-1.721,8.4,8.4,0,0,1-6.105,2.2c-3.145,0-5.7-1.416-6.117-4.451-1.381,2.9-4.219,4.451-7.916,4.451-4.659,0-8.017-2.745-8.915-6.856v6.372H65.692V17.466H52.9c.138,3.1,1.684,4.515,4.458,4.515,2,0,3.612-1.205,3.927-2.306h4.386c-1.4,4.2-4.386,5.994-8.491,5.994-5.3,0-8.736-3.319-9.207-8.2H35.035c.138,3.1,1.685,4.515,4.456,4.515,2,0,3.614-1.205,3.93-2.306h4.386c-1.4,4.2-4.386,5.994-8.493,5.994-5.718,0-9.262-3.859-9.262-9.374A9.01,9.01,0,0,1,39.315,6.89c5.152,0,8.082,3.547,8.707,7.9a8.919,8.919,0,0,1,9.16-7.9,8.377,8.377,0,0,1,8.509,6.856V.588h4.983V14.074C71.539,9.82,74.714,6.89,79.7,6.89c3.953,0,7.6,1.882,8.388,5.749.616-4.7,4.64-5.749,8.455-5.749,3.612,0,7.962.793,7.962,5.068V19.4h4.664c.037,2.134,1.862,3,3.828,3,1.434,0,3.261-.55,3.261-2.273,0-1.483-2.07-2-5.649-2.756-2.878-.62-5.754-1.619-5.754-4.756,0-4.547,4-5.72,7.892-5.72,3.969,0,7.615,1.31,8,5.684H116.01c-.138-1.892-1.617-2.411-3.4-2.411-1.126,0-2.774.211-2.774,1.655,0,1.758,2.8,2,5.65,2.653,2.184.49,4.333,1.193,5.268,2.918a10.763,10.763,0,0,1-.049-1.095,9.01,9.01,0,0,1,9.262-9.405C136.143,6.89,139.124,11.989,138.774,17.466Zm-13.086-3.1h8.1c-.456-2.482-1.541-3.791-3.962-3.791A3.889,3.889,0,0,0,125.688,14.368ZM27.225,2.031V7.374h3.647V10.21H27.225v9.256c0,1.652.42,2.067,2.1,2.067a8.042,8.042,0,0,0,1.544-.136V25.22a19.33,19.33,0,0,1-2.912.17c-3.053,0-5.717-.69-5.717-4.237V10.21H15.3l0-2.287c-.177-2.96-2.318-3.717-4.948-3.717-1.755,0-3.79.721-3.79,2.788,0,1.892,1.194,2.137,7.474,3.723,1.824.448,7.439,1.583,7.439,7.163,0,4.514-3.614,7.888-10.421,7.888C5.512,25.768.32,23.08.39,17.017H5.722c0,3.274,2.6,4.549,5.545,4.549,1.928,0,4.876-.55,4.876-3.066,0-2.654-3.754-3.1-7.437-4.064-3.72-.965-7.475-2.378-7.475-6.993C1.231,2.413,6.074,0,10.6,0c5.055,0,9.717,2.094,10.02,7.374h1.623V2.031Z" transform="translate(-0.389)" fill="currentColor"/>
</svg>