<svg xmlns="http://www.w3.org/2000/svg" width="56.535" height="33.282" viewBox="0 0 56.535 33.282">
    <path d="M-820.347-818.757a3.111,3.111,0,0,1-2.006-.9c-2.6-2.651-5.107-5.4-7.647-8.115v-24.009a11.808,11.808,0,0,1,1.521-.192q22.971-.016,45.942-.032a2.873,2.873,0,0,1,2.366,1.088c2,2.259,4.067,4.44,6.067,6.694a2.429,2.429,0,0,1,.62,1.428c.031,7.862.014,15.724,0,23.585a1.927,1.927,0,0,1-.131.4c-.4.025-.857.078-1.314.078q-8.374,0-16.751,0Q-806.013-818.719-820.347-818.757Zm23.959-7.334a10.247,10.247,0,0,0,.933-11.536c-2.413-4.119-5.68-5.089-11.792-3.4v-6.143h-5.608v23.545c3.186.469,4.622.251,5.167-.757C-802.622-822.1-799.135-822.625-796.388-826.091Zm4.121-2.294c-.391,0-.783.061-1.174.094-.049.128-.1.256-.147.384a7.187,7.187,0,0,1,1.429,1.385c1.707,2.932,4.255,3.523,7.154,3a16.027,16.027,0,0,0,4.57-1.3c1.868-.968,2.582-2.922,2.545-5.121a4.528,4.528,0,0,0-2.927-4.353,41.188,41.188,0,0,0-4.086-1.3,12.531,12.531,0,0,1-1.735-.537,1.124,1.124,0,0,1-.484-.824c-.009-.173.382-.467.635-.539a3.194,3.194,0,0,1,.921-.074l.238,0c1.981-.005,3.962,0,5.943,0,.093-.151.186-.3.28-.451-1.314-1.332-2.621-2.672-3.948-3.987a1.023,1.023,0,0,0-.684-.313,34.076,34.076,0,0,0-5.782.482,5.457,5.457,0,0,0-4.066,5.45c-.047,2.386,1.157,4.065,3.771,5.008,1.428.515,2.934.779,4.375,1.258.429.142.759.626,1.135.953-.449.256-.892.717-1.348.734-1.514.054-3.029.05-4.545.045l-1.232,0Zm-32.556-2.2a1.033,1.033,0,0,0,.168.647c1.929,1.965,3.878,3.906,5.846,5.879V-834.79h4.269v-6.43h-4.36v-5.924h-5.931C-824.829-841.549-824.832-836.065-824.823-830.582Zm21.807,1.07a3,3,0,0,1-2.874-3.181,2.972,2.972,0,0,1,2.925-3.115,3.036,3.036,0,0,1,2.895,3.168,3.062,3.062,0,0,1-2.936,3.128Z" transform="translate(830 852)" fill="currentColor"/>
</svg>