<svg xmlns="http://www.w3.org/2000/svg" width="88.384" height="23.089" viewBox="0 0 88.384 23.089">
    <path d="M-823.612-829.135a2.883,2.883,0,0,1-1.77-2.678,2.85,2.85,0,0,1,.837-2.03,2.852,2.852,0,0,1,2.03-.834,2.885,2.885,0,0,1,2.677,1.774,2.885,2.885,0,0,1-.624,3.15,2.881,2.881,0,0,1-2.038.843A2.88,2.88,0,0,1-823.612-829.135Zm-10.011.151v-11.04h-2.722V-844.6h2.722v-4.885h5.516v4.885h2.725v4.573h-2.725v11.04Zm-9.519,0v-8.445a2.71,2.71,0,0,0-2.614-2.949c-1.61,0-3.149.693-3.149,3.422v7.972h-5.516V-844.6h5.516v2.021h.115a5.653,5.653,0,0,1,1.948-1.567,8.353,8.353,0,0,1,3.634-.8,5.854,5.854,0,0,1,4.011,1.69,6.813,6.813,0,0,1,1.57,4.689v9.581Zm-19,0V-844.6h5.512v15.613Zm-12.865,0-6.844-15.613h5.774l3.661,9.119,3.66-9.119h5.689l-6.844,15.613Zm-13.284,0V-844.6h5.512v15.613Zm-12.864,0L-908-844.6h5.774l3.661,9.119,3.665-9.119h5.685l-6.844,15.613Zm13.567-18.1a2.874,2.874,0,0,1-.826-2.051,2.843,2.843,0,0,1,.834-2.031,2.843,2.843,0,0,1,2.03-.834,2.878,2.878,0,0,1,2.047.833,2.877,2.877,0,0,1,.852,2.039,2.906,2.906,0,0,1-2.9,2.9A2.875,2.875,0,0,1-887.589-847.085Zm27.093.628a2.884,2.884,0,0,1-1.77-2.68,2.848,2.848,0,0,1,.834-2.03A2.853,2.853,0,0,1-859.4-852a2.885,2.885,0,0,1,2.679,1.771,2.884,2.884,0,0,1-.622,3.151,2.881,2.881,0,0,1-2.04.845A2.883,2.883,0,0,1-860.5-846.457Z" transform="translate(908 852)" fill="currentColor"/>
</svg>