<?xml version="1.0" encoding="UTF-8"?>
<svg width="40px" height="40px" viewBox="0 0 40 40" version="1.1" xmlns="http://www.w3.org/2000/svg" xmlns:xlink="http://www.w3.org/1999/xlink">
    <!-- Generator: Sketch 53.2 (72643) - https://sketchapp.com -->
    <title>bitbucket</title>
    <desc>Created with Sketch.</desc>
    <g id="bitbucket" stroke="none" stroke-width="1" fill="none" fill-rule="evenodd">
        <g transform="translate(0.000000, 2.000000)" fill="#082038" fill-rule="nonzero" id="Shape">
            <path d="M1.296,0.08 C0.956515094,0.0757299123 0.629241073,0.206508296 0.386188105,0.443559956 C0.143135137,0.680611616 0.00421704318,1.00451443 -1.77635684e-15,1.344 C0.00134950302,1.41889792 0.00669041323,1.49367066 0.016,1.568 L5.448,34.536 C5.58676404,35.3709031 6.30567136,35.9851807 7.152,35.992 L33.208,35.992 C33.8410701,36.000406 34.3851728,35.5447199 34.488,34.92 L39.92,1.576 C40.0305871,0.88061434 39.5587548,0.226483296 38.864,0.112 C38.7896991,0.102403925 38.7149105,0.0970618823 38.64,0.096 L1.296,0.08 Z M24.168,23.904 L15.848,23.904 L13.6,12.144 L26.184,12.144 L24.168,23.904 Z"></path>
        </g>
    </g>
</svg>