<?xml version="1.0" encoding="UTF-8"?>
<svg width="40px" height="40px" viewBox="0 0 40 40" version="1.1" xmlns="http://www.w3.org/2000/svg" xmlns:xlink="http://www.w3.org/1999/xlink">
    <!-- Generator: Sketch 53.2 (72643) - https://sketchapp.com -->
    <title>docker</title>
    <desc>Created with Sketch.</desc>
    <g id="docker" stroke="none" stroke-width="1" fill="none" fill-rule="evenodd">
        <g transform="translate(0.000000, 6.000000)" fill="#082038" fill-rule="nonzero" id="Shape">
            <path d="M21.8970359,12.74883 L17.7722309,12.74883 L17.7722309,9.04212168 L21.8970359,9.04212168 L21.8970359,12.74883 Z M21.8970359,0 L17.7722309,0 L17.7722309,3.78783151 L21.8970359,3.78783151 L21.8970359,0 Z M26.7769111,9.03588144 L22.6521061,9.03588144 L22.6521061,12.7425897 L26.7769111,12.7425897 L26.7769111,9.03588144 L26.7769111,9.03588144 Z M17.0234009,4.53666147 L12.8985959,4.53666147 L12.8985959,8.28705148 L17.0234009,8.28705148 L17.0234009,4.53666147 Z M21.8970359,4.53666147 L17.7722309,4.53666147 L17.7722309,8.28705148 L21.8970359,8.28705148 L21.8970359,4.53666147 Z M39.1700468,10.7769111 C38.2714509,10.1716069 36.199688,9.95319813 34.6084243,10.2527301 C34.4024961,8.7550702 33.5663027,7.45085803 32.0436817,6.27769111 L31.1700468,5.69734789 L30.5897036,6.57098284 C29.4414977,8.30577223 29.1294852,11.1638066 30.3588144,13.0483619 C29.8159126,13.3416537 28.74883,13.7410296 27.3385335,13.7160686 L0.212168487,13.7160686 C-0.330733229,16.8861154 0.574102964,21.0046802 2.95787832,23.8315133 C5.27301092,26.5709828 8.7425897,27.9625585 13.2792512,27.9625585 C23.1014041,27.9625585 30.3712949,23.4383775 33.7722309,15.2199688 C35.1076443,15.2449298 37.9906396,15.226209 39.4695788,12.399376 C39.5631825,12.2433697 39.8814353,11.575663 40,11.3322933 L39.1700468,10.7769111 Z M7.27613105,9.03588144 L3.1575663,9.03588144 L3.1575663,12.7425897 L7.28237129,12.7425897 L7.28237129,9.03588144 L7.27613105,9.03588144 Z M12.149766,9.03588144 L8.024961,9.03588144 L8.024961,12.7425897 L12.149766,12.7425897 L12.149766,9.03588144 Z M17.0234009,9.03588144 L12.8985959,9.03588144 L12.8985959,12.7425897 L17.0234009,12.7425897 L17.0234009,9.03588144 Z M12.149766,4.53666147 L8.024961,4.53666147 L8.024961,8.28705148 L12.149766,8.28705148 L12.149766,4.53666147 Z"></path>
        </g>
    </g>
</svg>