<?xml version="1.0" encoding="UTF-8"?>
<svg width="40px" height="40px" viewBox="0 0 40 40" version="1.1" xmlns="http://www.w3.org/2000/svg" xmlns:xlink="http://www.w3.org/1999/xlink">
    <!-- Generator: Sketch 53.2 (72643) - https://sketchapp.com -->
    <title>github</title>
    <desc>Created with Sketch.</desc>
    <g id="github" stroke="none" stroke-width="1" fill="none" fill-rule="evenodd">
        <g fill="#082038" fill-rule="nonzero" id="Shape">
            <path d="M13.3790323,31.4032258 C13.3790323,31.5645161 13.1935484,31.6935484 12.9596774,31.6935484 C12.6935484,31.7177419 12.5080645,31.5887097 12.5080645,31.4032258 C12.5080645,31.2419355 12.6935484,31.1129032 12.9274194,31.1129032 C13.1693548,31.0887097 13.3790323,31.2177419 13.3790323,31.4032258 Z M10.8709677,31.0403226 C10.8145161,31.2016129 10.9758065,31.3870968 11.2177419,31.4354839 C11.4274194,31.516129 11.6693548,31.4354839 11.7177419,31.2741935 C11.766129,31.1129032 11.6129032,30.9274194 11.3709677,30.8548387 C11.1612903,30.7983871 10.9274194,30.8790323 10.8709677,31.0403226 Z M14.4354839,30.9032258 C14.2016129,30.9596774 14.0403226,31.1129032 14.0645161,31.2983871 C14.0887097,31.4596774 14.2983871,31.5645161 14.5403226,31.5080645 C14.7741935,31.4516129 14.9354839,31.2983871 14.9112903,31.1370968 C14.8870968,30.983871 14.6693548,30.8790323 14.4354839,30.9032258 Z M19.7419355,0 C8.55645161,0 0,8.49193548 0,19.6774194 C0,28.6209677 5.62903226,36.2741935 13.6693548,38.9677419 C14.7016129,39.1532258 15.0645161,38.516129 15.0645161,37.9919355 C15.0645161,37.4919355 15.0403226,34.733871 15.0403226,33.0403226 C15.0403226,33.0403226 9.39516129,34.25 8.20967742,30.6370968 C8.20967742,30.6370968 7.29032258,28.2903226 5.96774194,27.6854839 C5.96774194,27.6854839 4.12096774,26.4193548 6.09677419,26.4435484 C6.09677419,26.4435484 8.10483871,26.6048387 9.20967742,28.5241935 C10.9758065,31.6370968 13.9354839,30.7419355 15.0887097,30.2096774 C15.2741935,28.9193548 15.7983871,28.0241935 16.3790323,27.4919355 C11.8709677,26.9919355 7.32258065,26.3387097 7.32258065,18.5806452 C7.32258065,16.3629032 7.93548387,15.25 9.22580645,13.8306452 C9.01612903,13.3064516 8.33064516,11.1451613 9.43548387,8.35483871 C11.1209677,7.83064516 15,10.5322581 15,10.5322581 C16.6129032,10.0806452 18.3467742,9.84677419 20.0645161,9.84677419 C21.7822581,9.84677419 23.516129,10.0806452 25.1290323,10.5322581 C25.1290323,10.5322581 29.0080645,7.82258065 30.6935484,8.35483871 C31.7983871,11.1532258 31.1129032,13.3064516 30.9032258,13.8306452 C32.1935484,15.2580645 32.983871,16.3709677 32.983871,18.5806452 C32.983871,26.3629032 28.233871,26.983871 23.7258065,27.4919355 C24.4677419,28.1290323 25.0967742,29.3387097 25.0967742,31.233871 C25.0967742,33.9516129 25.0725806,37.3145161 25.0725806,37.9758065 C25.0725806,38.5 25.4435484,39.1370968 26.4677419,38.9516129 C34.5322581,36.2741935 40,28.6209677 40,19.6774194 C40,8.49193548 30.9274194,0 19.7419355,0 Z M7.83870968,27.8145161 C7.73387097,27.8951613 7.75806452,28.0806452 7.89516129,28.233871 C8.02419355,28.3629032 8.20967742,28.4193548 8.31451613,28.3145161 C8.41935484,28.233871 8.39516129,28.0483871 8.25806452,27.8951613 C8.12903226,27.766129 7.94354839,27.7096774 7.83870968,27.8145161 Z M6.96774194,27.1612903 C6.91129032,27.266129 6.99193548,27.3951613 7.15322581,27.4758065 C7.28225806,27.5564516 7.44354839,27.5322581 7.5,27.4193548 C7.55645161,27.3145161 7.47580645,27.1854839 7.31451613,27.1048387 C7.15322581,27.0564516 7.02419355,27.0806452 6.96774194,27.1612903 Z M9.58064516,30.0322581 C9.4516129,30.1370968 9.5,30.3790323 9.68548387,30.5322581 C9.87096774,30.7177419 10.1048387,30.7419355 10.2096774,30.6129032 C10.3145161,30.5080645 10.266129,30.266129 10.1048387,30.1129032 C9.92741935,29.9274194 9.68548387,29.9032258 9.58064516,30.0322581 Z M8.66129032,28.8467742 C8.53225806,28.9274194 8.53225806,29.1370968 8.66129032,29.3225806 C8.79032258,29.5080645 9.00806452,29.5887097 9.11290323,29.5080645 C9.24193548,29.4032258 9.24193548,29.1935484 9.11290323,29.0080645 C9,28.8225806 8.79032258,28.7419355 8.66129032,28.8467742 Z"></path>
        </g>
    </g>
</svg>