<?xml version="1.0" encoding="UTF-8"?>
<svg width="40px" height="40px" viewBox="0 0 40 40" version="1.1" xmlns="http://www.w3.org/2000/svg" xmlns:xlink="http://www.w3.org/1999/xlink">
    <!-- Generator: Sketch 53.2 (72643) - https://sketchapp.com -->
    <title>gitlab</title>
    <desc>Created with Sketch.</desc>
    <g id="gitlab" stroke="none" stroke-width="1" fill="none" fill-rule="evenodd">
        <g transform="translate(0.000000, 1.000000)" fill="#4DBEA4" fill-rule="nonzero" id="Shape">
            <path d="M8.26459144,0.536964981 C8.0233463,-0.155642023 7.04280156,-0.155642023 6.79377432,0.536964981 L2.39688716,14.1400778 L12.6692607,14.1400778 C12.6614786,14.1400778 8.26459144,0.536964981 8.26459144,0.536964981 Z M0.147859922,20.9883268 C-0.0544747082,21.6108949 0.171206226,22.3035019 0.700389105,22.7003891 L19.9922179,37.0194553 L2.38910506,14.1400778 L0.147859922,20.9883268 Z M12.6614786,14.1400778 L20,37.0194553 L27.3385214,14.1400778 L12.6614786,14.1400778 Z M39.8521401,20.9883268 L37.6108949,14.1400778 L20,37.0194553 L39.2918288,22.7003891 C39.8287938,22.3035019 40.0466926,21.6108949 39.8521401,20.9883268 L39.8521401,20.9883268 Z M33.2062257,0.536964981 C32.9649805,-0.155642023 31.9844358,-0.155642023 31.7354086,0.536964981 L27.3307393,14.1400778 L37.6031128,14.1400778 L33.2062257,0.536964981 Z"></path>
        </g>
    </g>
</svg>