<?xml version="1.0" encoding="utf-8"?>
<!-- Generator: Adobe Illustrator 25.3.1, SVG Export Plug-In . SVG Version: 6.00 Build 0)  -->
<svg version="1.1" id="Layer_1" xmlns="http://www.w3.org/2000/svg" xmlns:xlink="http://www.w3.org/1999/xlink" x="0px" y="0px"
	 viewBox="0 0 42 42" enable-background="new 0 0 42 42" xml:space="preserve">
<g id="Layer_x0020_1">
	<path fill="#082038" d="M18.7,26.7l-2.2,0.6c0.2,0.6,0.4,1.6,0.4,2.9v6.6h2.5v-7c0.5-0.6,1-0.8,1.5-0.8c0.3,0,0.5,0.1,0.7,0.2
		l0.7-2.3c-0.4-0.2-0.5-0.2-0.9-0.2c-0.3,0-0.6,0.1-0.8,0.1c-0.5,0.2-1,0.8-1.4,1.3C19,27.5,18.9,27.1,18.7,26.7L18.7,26.7z
		 M10.1,23.4L10.1,23.4H9.8v13.4h2.6v-6h3.3v-2.2h-3.3v-3.1h4.1l0.2-1.2C14.2,24.2,11.9,23.8,10.1,23.4L10.1,23.4z M4,38.6L4,38.6
		L5.2,40c1.2-0.5,2.6-1.5,3-3.2c0.1-0.5,0.2-0.9,0.2-2.6V23.4H5.8v11.1c0,1.4-0.1,2-0.3,2.5C5.3,37.5,4.7,38.2,4,38.6z M27.5,31.8
		L27.5,31.8c0,2.4-0.5,3.4-1.5,3.4c-0.5,0-1-0.3-1.3-0.8c-0.2-0.5-0.3-1.4-0.3-2.5c0-1,0.1-1.7,0.3-2.2c0.2-0.6,0.7-1,1.3-1
		c0.4,0,0.8,0.2,1.1,0.5C27.4,29.6,27.5,30.5,27.5,31.8L27.5,31.8z M29,35.7L29,35.7c0.8-1,1.2-2.1,1.2-3.8c0-1.6-0.3-2.7-1.1-3.6
		c-0.8-1-1.9-1.5-3.2-1.5c-2.5,0-4.2,2.1-4.2,5.2s1.7,5.1,4.2,5.1C27.4,37,28.3,36.5,29,35.7z M36.1,30.1L36.1,30.1
		c0,0.9-0.5,1.4-1.5,1.4c-0.9,0-1.4-0.4-1.4-1.4c0-0.9,0.5-1.5,1.5-1.5C35.6,28.6,36.1,29.2,36.1,30.1L36.1,30.1z M40.5,28L40.5,28
		l-1-1.7c-0.6,0.5-1.3,0.9-2,0.9c-0.3,0-0.5,0-1.2-0.2s-1.2-0.3-1.7-0.3c-2.4,0-4,1.3-4,3.4c0,1.5,0.7,2.4,2,2.7
		c-0.5,0.1-1.2,0.4-1.4,0.8c-0.2,0.2-0.3,0.5-0.3,0.9c0,0.3,0.1,0.6,0.2,0.8s0.3,0.4,0.5,0.5c0.4,0.2,1.2,0.3,2.3,0.3
		c0.6,0,0.9,0,1,0c0.7,0,1,0.1,1.3,0.3c0.3,0.1,0.4,0.5,0.4,0.9s-0.2,0.8-0.6,1c-0.3,0.2-0.9,0.3-1.6,0.3c-1.1,0-1.8-0.4-1.8-1.2
		c0-0.4,0-0.4,0.1-0.7h-2.3c-0.1,0.2-0.2,0.5-0.2,1c0,0.7,0.3,1.3,0.8,1.8c0.8,0.8,2.2,1.1,3.6,1.1c1.5,0,2.9-0.4,3.7-1.3
		c0.5-0.6,0.8-1.2,0.8-2.1c0-0.9-0.3-1.6-0.8-2.1c-0.7-0.7-1.4-0.9-2.9-0.9h-1.3c-0.3,0-0.4-0.1-0.4-0.2c0-0.3,0.4-0.5,1-0.8
		c0.2,0,0.3,0,0.4,0c2,0,3.5-1.2,3.5-2.9c0-0.7-0.2-1.2-0.5-1.6c0.3,0,0.4,0.1,0.7,0.1C39.4,28.7,39.9,28.5,40.5,28L40.5,28z
		 M9.4,11.7L9.4,11.7c-3.1,0.8-5.2,2.2-5.2,3.9c0,1,0.8,2,2.1,2.8c-0.4-0.7-0.6-1.3-0.6-2C5.8,14.6,7.1,13,9.4,11.7L9.4,11.7z
		 M42,18.3L42,18.3c0-1.1-0.7-2.1-1.8-3c0.1,0.3,0.2,0.7,0.2,1c0,3.2-4.5,5.9-10.8,7.1c0.7,0.1,1.4,0.1,2.2,0.1
		C37.4,23.6,42,21.2,42,18.3L42,18.3z M38.4,16.6L38.4,16.6c0-1.2-1-2.2-2.7-3.1c0.4,0.5,0.6,1,0.6,1.5c0,2.8-6,5.1-13.5,5.1
		c-7.4,0-13.5-2.3-13.5-5.1c0-0.4,0.1-0.7,0.3-1c-1.2,0.8-1.9,1.7-1.9,2.7c0,3.1,6.9,5.5,15.3,5.5C31.5,22.2,38.4,19.7,38.4,16.6
		L38.4,16.6z M31.7,16.5L31.7,16.5c-3.1,2-12.7,2.8-16.9,0.2c-3.3-2-2.1-5.2-11.4-12.3c-1.2-1,0.2-2,1.1-1.3s0.1,0.8,1.9,2.6
		c3.7,3.7,3.7,0.4,4.2,1.6c1.2,2.6,3.9,5.3,3.9,5.3c2.7,1.8,4.9,2.2,8.9-0.6c2.5-1.7,1.5,2.7,7.7-0.5c2.3-1.2,2.2-0.4,4.5-3.6
		c1-1.3,2.8,1,0.7,1.4c-0.8,0.1-2.2,1-2.8,2.5C32.8,14,33.1,15.5,31.7,16.5L31.7,16.5z M14.4,11L14.4,11c-0.8-0.3-1.6-1.7-1.9-2.2
		c0.9-0.8,0.5-2.2,0-3s-1.1-0.5-1.7-1.3c-0.7-0.6,0.2-2.5,1-1.1c3.1,5.3,5.1,3.1,7.7,2.8c2.4-0.3,4.6,1,5.2-2.7
		c0.1-0.6,0.7-0.8,0.8,0.3c0.1,1,0.4,3.5,1.8,3.8c1.3,0.3,2.4-0.3,2.7-0.7c0.3-0.4,0.5-0.3,0.6,0.6s0.5,2.1,2.4,0.7
		c3.8-2.7,2.7-3.8,4.2-4.5c0.9-0.4,2.2,0.9,0.3,1.9c-2.8,1.4-3.1,3.1-4.8,4.2c-2.9,1.9-2,0.1-6.8-0.6c-1.8-0.3-2.4,1.8-3.8,1.2
		C18.8,9,16.5,9.3,14.4,11L14.4,11z M24.6,1.1L24.6,1.1c0.1,0.8,0.3,0.8,0.5,0.9c0.3,0.1,0.7-0.4,0.7-0.8s-0.2-0.7-0.6-0.7
		C24.8,0.5,24.6,0.7,24.6,1.1z M38.9,2.6L38.9,2.6c0.3,0.3,1.3,0.1,1.5-0.1c0.5-0.6,0.6-1,0.3-1.4s-0.9-0.3-1.5,0.1
		C38.6,1.6,38.7,2.4,38.9,2.6z M38.7,6.7L38.7,6.7c-0.3,0.4-0.3,0.7-0.1,0.9c0.2,0.2,0.7,0.4,1,0.2c0.3-0.3,0.3-0.7,0-1
		C39.4,6.4,39,6.4,38.7,6.7L38.7,6.7z M9.4,1.8L9.4,1.8c0.5,0.1,0.7,0.6,1,0.1c0.2-0.2,0.2-0.5,0-0.9c-0.2-0.2-0.9-0.3-1.3,0
		S9.1,1.8,9.4,1.8L9.4,1.8z M0.3,1.6L0.3,1.6c0.8,0.5,1.3,1.2,2,0.6c0.2-0.2,0.5-0.7,0-1.4C2,0.1,0.9-0.1,0.5,0.1S-0.3,1.2,0.3,1.6z
		 M7.8,5.4L7.8,5.4c0.3,0.3,0.7,0.3,1,0.1C9,5.4,9,5,8.7,4.6c-0.1-0.2-0.6-0.3-0.9,0C7.4,4.9,7.6,5.2,7.8,5.4L7.8,5.4z"/>
</g>
</svg>
