<?xml version="1.0" encoding="UTF-8"?>
<svg width="40px" height="40px" viewBox="0 0 40 40" version="1.1" xmlns="http://www.w3.org/2000/svg" xmlns:xlink="http://www.w3.org/1999/xlink">
    <!-- Generator: Sketch 53.2 (72643) - https://sketchapp.com -->
    <title>slack</title>
    <desc>Created with Sketch.</desc>
    <g id="slack" stroke="none" stroke-width="1" fill="none" fill-rule="evenodd">
        <g fill="#4DBEA4" fill-rule="nonzero" id="Shape">
            <path d="M8.40357143,25.2767857 C8.40357143,27.5892857 6.51428571,29.4785714 4.20178571,29.4785714 C1.88928571,29.4785714 0,27.5892857 0,25.2767857 C0,22.9642857 1.88928571,21.075 4.20178571,21.075 L8.40357143,21.075 L8.40357143,25.2767857 Z M10.5214286,25.2767857 C10.5214286,22.9642857 12.4107143,21.075 14.7232143,21.075 C17.0357143,21.075 18.925,22.9642857 18.925,25.2767857 L18.925,35.7982143 C18.925,38.1107143 17.0357143,40 14.7232143,40 C12.4107143,40 10.5214286,38.1107143 10.5214286,35.7982143 L10.5214286,25.2767857 Z M14.7232143,8.40357143 C12.4107143,8.40357143 10.5214286,6.51428571 10.5214286,4.20178571 C10.5214286,1.88928571 12.4107143,0 14.7232143,0 C17.0357143,0 18.925,1.88928571 18.925,4.20178571 L18.925,8.40357143 L14.7232143,8.40357143 L14.7232143,8.40357143 Z M14.7232143,10.5214286 C17.0357143,10.5214286 18.925,12.4107143 18.925,14.7232143 C18.925,17.0357143 17.0357143,18.925 14.7232143,18.925 L4.20178571,18.925 C1.88928571,18.925 0,17.0357143 0,14.7232143 C0,12.4107143 1.88928571,10.5214286 4.20178571,10.5214286 L14.7232143,10.5214286 L14.7232143,10.5214286 Z M31.5964286,14.7232143 C31.5964286,12.4107143 33.4857143,10.5214286 35.7982143,10.5214286 C38.1107143,10.5214286 40,12.4107143 40,14.7232143 C40,17.0357143 38.1107143,18.925 35.7982143,18.925 L31.5964286,18.925 L31.5964286,14.7232143 L31.5964286,14.7232143 Z M29.4785714,14.7232143 C29.4785714,17.0357143 27.5892857,18.925 25.2767857,18.925 C22.9642857,18.925 21.075,17.0357143 21.075,14.7232143 L21.075,4.20178571 C21.075,1.88928571 22.9642857,0 25.2767857,0 C27.5892857,0 29.4785714,1.88928571 29.4785714,4.20178571 L29.4785714,14.7232143 Z M25.2767857,31.5964286 C27.5892857,31.5964286 29.4785714,33.4857143 29.4785714,35.7982143 C29.4785714,38.1107143 27.5892857,40 25.2767857,40 C22.9642857,40 21.075,38.1107143 21.075,35.7982143 L21.075,31.5964286 L25.2767857,31.5964286 Z M25.2767857,29.4785714 C22.9642857,29.4785714 21.075,27.5892857 21.075,25.2767857 C21.075,22.9642857 22.9642857,21.075 25.2767857,21.075 L35.7982143,21.075 C38.1107143,21.075 40,22.9642857 40,25.2767857 C40,27.5892857 38.1107143,29.4785714 35.7982143,29.4785714 L25.2767857,29.4785714 Z"></path>
        </g>
    </g>
</svg>