<svg width="148" height="50" viewBox="0 0 148 50" fill="none" xmlns="http://www.w3.org/2000/svg">
<path d="M9.15625 11.4766H15.0039V17.3243H9.15625V11.4766Z" fill="#B4F2FA"/>
<path d="M15.6016 11.4766H21.4493V17.3243H15.6016V11.4766Z" fill="#B4F2FA"/>
<path d="M61.8932 13.7048C62.4318 13.3534 63.1292 13.3216 63.7365 13.4885C63.7397 13.7048 63.7391 13.9211 63.7384 14.1375C63.738 14.2822 63.7376 14.4277 63.7383 14.5726C63.4496 14.4454 63.1106 14.3616 62.8061 14.4869C62.5651 14.5823 62.422 14.8295 62.385 15.0775C62.355 15.2865 62.3579 15.4977 62.3608 15.709C62.3623 15.8147 62.3638 15.9203 62.3611 16.0257H64.2115C64.2133 15.8587 64.2129 15.6917 64.2124 15.5247C64.2118 15.2911 64.2111 15.0573 64.2168 14.8242C64.4891 14.7462 64.7596 14.6626 65.0301 14.5791C65.1759 14.534 65.3224 14.4887 65.4686 14.4446C65.47 14.6551 65.4695 14.8659 65.4689 15.0768C65.468 15.3936 65.4672 15.7115 65.473 16.0283C65.7161 16.0247 65.9594 16.0253 66.2029 16.0259C66.3768 16.0263 66.5508 16.0268 66.7248 16.0257V17.0524C66.4426 17.0405 66.1603 17.0426 65.8783 17.0447C65.7414 17.0457 65.6044 17.0468 65.4677 17.0462V18.818C65.4701 18.9268 65.4689 19.036 65.4677 19.1452C65.4654 19.3637 65.463 19.5825 65.4889 19.7996C65.5119 19.9921 65.5816 20.2049 65.7626 20.3046C66.0636 20.4723 66.4468 20.3991 66.724 20.2137V21.251C66.3583 21.4022 65.9616 21.4628 65.5675 21.4275C65.1967 21.3993 64.8127 21.2642 64.5699 20.9702C64.2892 20.6365 64.2194 20.1854 64.2133 19.7635C64.2109 19.1591 64.2117 18.5551 64.2125 17.9509C64.2129 17.6488 64.2133 17.3467 64.2133 17.0444H62.362V21.311H61.0978V17.0462C60.9459 17.043 60.7937 17.0431 60.6414 17.0432C60.5001 17.0433 60.3588 17.0434 60.2177 17.0409C60.2177 16.9288 60.218 16.8166 60.2183 16.7044V16.7025C60.2189 16.4777 60.2194 16.2528 60.2177 16.0283C60.5085 16.0213 60.8003 16.0239 61.0938 16.0265L61.0952 16.0265C61.102 15.8882 61.1002 15.7486 61.0983 15.609C61.0942 15.2953 61.09 14.9807 61.1835 14.6785C61.2957 14.2786 61.5487 13.9328 61.8959 13.7048H61.8932Z" fill="#B4F2FA"/>
<path d="M34.8132 13.7789C34.9413 13.7581 35.0725 13.7698 35.1948 13.813C35.3172 13.8562 35.4267 13.9295 35.5133 14.0261C35.6103 14.1378 35.6708 14.2765 35.6866 14.4236C35.7023 14.5707 35.6727 14.7191 35.6016 14.8489C35.4391 15.1367 35.0745 15.27 34.7576 15.1994C34.4292 15.1411 34.1564 14.8356 34.1705 14.4949C34.1617 14.1365 34.461 13.8178 34.8123 13.7772L34.8132 13.7789Z" fill="#B4F2FA"/>
<path d="M25.12 13.9352H26.9598C27.5318 15.3892 28.1057 16.8423 28.6812 18.2953C28.7318 18.4216 28.7813 18.5484 28.8309 18.6751C28.9239 18.9133 29.0171 19.1517 29.1174 19.3874C29.3652 18.7773 29.6138 18.1679 29.8623 17.5586C30.354 16.3533 30.8457 15.1479 31.3305 13.9396C31.7315 13.9336 32.1325 13.9345 32.5337 13.9355C32.7226 13.9359 32.9115 13.9363 33.1006 13.9361C33.0988 16.3947 33.0988 18.8533 33.1006 21.3119C32.9868 21.3119 32.8731 21.3121 32.7595 21.3124C32.4472 21.3131 32.1354 21.3138 31.824 21.3092C31.8266 20.242 31.8262 19.1747 31.8257 18.1071C31.8254 17.3599 31.8251 16.6126 31.8258 15.865C31.8259 15.7831 31.8233 15.7013 31.8179 15.6196C31.7931 15.6574 31.7709 15.6969 31.7516 15.7379C31.4278 16.5603 31.1016 17.3817 30.7753 18.2032L30.7747 18.2048L30.7743 18.2059C30.3645 19.2376 29.9543 20.2704 29.549 21.3048C29.376 21.3109 29.203 21.31 29.0299 21.3092C28.8999 21.3085 28.7699 21.3079 28.6398 21.3101C28.1546 20.1154 27.6735 18.9189 27.1923 17.7224C26.9258 17.0596 26.6593 16.3968 26.3921 15.7343C26.3727 15.6957 26.3515 15.658 26.3286 15.6213C26.3191 16.1238 26.3205 16.6269 26.322 17.1299V17.1309C26.3228 17.4229 26.3237 17.715 26.3224 18.0067V21.3084H25.1174V13.9325L25.12 13.9352Z" fill="#B4F2FA"/>
<path d="M38.2941 16.0195C38.9089 15.8484 39.559 15.8505 40.1727 16.0257C40.299 16.0601 40.4199 16.1104 40.5338 16.1757C40.5299 16.3979 40.5303 16.6208 40.5307 16.8435C40.531 17.0244 40.5313 17.2051 40.5294 17.3852C40.1215 17.0735 39.6042 16.8758 39.086 16.9411C38.8799 16.9599 38.68 17.0215 38.4991 17.1219C38.3182 17.2224 38.1603 17.3596 38.0354 17.5247C37.7194 17.9369 37.6461 18.4852 37.7 18.9892C37.7415 19.3838 37.9048 19.7785 38.212 20.0398C38.5298 20.3232 38.9774 20.4238 39.395 20.3911C39.8069 20.3364 40.1977 20.1762 40.5294 19.9259C40.531 20.1075 40.5307 20.2893 40.5304 20.4712C40.5301 20.6711 40.5297 20.8711 40.532 21.0709C40.0156 21.379 39.395 21.4576 38.8035 21.4293C38.1979 21.3966 37.594 21.168 37.1562 20.7416C36.6795 20.2825 36.4208 19.6284 36.3908 18.9725C36.3599 18.2909 36.4985 17.5794 36.8904 17.01C37.2197 16.5244 37.7335 16.1801 38.2959 16.0186L38.2941 16.0195Z" fill="#B4F2FA"/>
<path d="M52.11 15.9391C52.6994 15.8427 53.3038 15.9058 53.8606 16.1219V17.2845C53.4712 17.0161 53.0065 16.8786 52.5338 16.8917C52.298 16.9005 52.0376 17.0012 51.9299 17.2263C51.8443 17.4487 51.9034 17.7401 52.1135 17.8734C52.3112 18.0053 52.5299 18.0957 52.7489 18.1861C52.9269 18.2597 53.1052 18.3333 53.2727 18.4295C53.5649 18.5937 53.8491 18.8091 53.9966 19.1181C54.2755 19.699 54.1572 20.4662 53.6682 20.8987C53.2003 21.3357 52.5267 21.4567 51.9078 21.4328C51.4651 21.4111 51.0296 21.3113 50.6216 21.138L50.6214 20.8659C50.6211 20.5492 50.6208 20.2322 50.6242 19.9153C50.9641 20.166 51.357 20.3355 51.7719 20.4105C52.0606 20.4573 52.3748 20.46 52.6441 20.3311C52.9019 20.2022 52.9487 19.8367 52.7951 19.6116C52.6567 19.445 52.4555 19.3504 52.2627 19.2597L52.2433 19.2505C52.1667 19.2161 52.0893 19.1827 52.0118 19.1494C51.7123 19.0204 51.4115 18.8909 51.1513 18.6917C50.9167 18.5131 50.7494 18.2605 50.6763 17.9749C50.5757 17.5529 50.6057 17.0806 50.8529 16.7125C51.1327 16.2843 51.6165 16.0283 52.1109 15.94L52.11 15.9391Z" fill="#B4F2FA"/>
<path d="M43.3614 16.106C43.711 15.895 44.1542 15.8782 44.5355 16.0071V17.2713C44.281 17.1103 43.9797 17.0394 43.6801 17.07C43.3217 17.1115 43.0374 17.3861 42.8891 17.703C42.7293 18.0376 42.6993 18.4163 42.709 18.7818V21.311H41.4625V16.0274C41.8783 16.0221 42.295 16.0239 42.7108 16.0274V16.9349C42.8458 16.6057 43.0471 16.2861 43.3641 16.1069L43.3614 16.106Z" fill="#B4F2FA"/>
<path d="M34.2871 16.0265C34.4147 16.0265 34.5423 16.026 34.6699 16.0254C34.9616 16.0241 35.2533 16.0228 35.5451 16.0283C35.5419 17.085 35.5425 18.1417 35.5431 19.1982C35.5436 19.9023 35.544 20.6072 35.5433 21.311H34.2871V16.0265Z" fill="#B4F2FA"/>
<path fill-rule="evenodd" clip-rule="evenodd" d="M49.7787 17.2585C49.5574 16.7648 49.1648 16.3681 48.6735 16.1417C48.112 15.8857 47.4702 15.8504 46.8637 15.9281C46.2254 16.0084 45.6048 16.3086 45.2005 16.8171C44.8306 17.2708 44.6514 17.8535 44.617 18.4326C44.5658 19.1141 44.6796 19.838 45.0804 20.4075C45.4212 20.8992 45.9579 21.2355 46.5415 21.36C47.0297 21.4616 47.5337 21.4616 48.0219 21.36C48.5978 21.2452 49.1132 20.9271 49.4742 20.464C49.8184 20.027 49.9906 19.4752 50.0303 18.9252C50.07 18.362 50.0127 17.7776 49.7787 17.2585ZM48.556 19.6862C48.4363 19.9628 48.2133 20.1817 47.9345 20.2962C47.6037 20.4174 47.2435 20.4331 46.9034 20.3412C46.7329 20.294 46.5742 20.2114 46.4376 20.0989C46.301 19.9863 46.1896 19.8463 46.1107 19.688C45.9076 19.281 45.8767 18.8096 45.9191 18.3638C45.9571 17.9586 46.0983 17.5419 46.4073 17.2611C46.6315 17.051 46.937 16.9504 47.2398 16.9327C47.6194 16.908 48.0246 17.0157 48.2974 17.292C48.5896 17.5798 48.7035 17.9965 48.7344 18.3938C48.7564 18.829 48.7397 19.2828 48.556 19.6862Z" fill="#B4F2FA"/>
<path fill-rule="evenodd" clip-rule="evenodd" d="M59.908 17.4121C59.7132 16.8805 59.3256 16.4415 58.8222 16.1823C58.2457 15.8919 57.5757 15.8495 56.9445 15.9281C56.4351 15.9934 55.9354 16.1859 55.547 16.5275C55.072 16.9354 54.7939 17.5366 54.7127 18.151C54.6306 18.7654 54.6606 19.4116 54.9113 19.9872C55.1579 20.5562 55.6197 21.0044 56.1958 21.2338C56.7582 21.4545 57.385 21.4792 57.9773 21.3838C58.5829 21.2841 59.1576 20.9654 59.5328 20.4745C59.9327 19.9687 60.1058 19.3137 60.1049 18.6745C60.1137 18.2463 60.0607 17.8129 59.908 17.4121ZM58.7674 19.2033C58.7189 19.4814 58.6227 19.7595 58.4408 19.9793C58.2581 20.2 57.9835 20.3351 57.7028 20.3766C57.3979 20.4282 57.0847 20.3943 56.7979 20.2786C56.4932 20.1418 56.2538 19.8916 56.1305 19.5811C55.9804 19.2183 55.9504 18.8166 55.9804 18.4291C56.0096 18.053 56.1155 17.6681 56.3636 17.375C56.5896 17.1022 56.9374 16.9539 57.287 16.9319C57.6436 16.9071 58.0241 16.9901 58.2996 17.2311C58.5529 17.4421 58.6933 17.7555 58.7569 18.0742C58.8275 18.4467 58.8301 18.829 58.7674 19.2033Z" fill="#B4F2FA"/>
<path d="M15.0048 17.9199H9.15705V23.7685H15.0048V17.9199Z" fill="#B4F2FA"/>
<path d="M21.4501 17.9208H15.6024V23.7685H21.4501V17.9208Z" fill="#B4F2FA"/>
<path d="M75.0342 13.1318V38.9539H74.3721V13.1318H75.0342Z" fill="#B4F2FA"/>
<path fill-rule="evenodd" clip-rule="evenodd" d="M89.3867 23.0636H90.7109L87.1885 14.1252H85.4935L81.9844 23.0636H83.3086C83.4249 23.0608 83.5369 23.0188 83.6264 22.9444C83.7221 22.8827 83.7926 22.7887 83.825 22.6796L84.4871 20.8654H88.1949L88.8305 22.6796C88.8662 22.797 88.9406 22.8989 89.0416 22.9687C89.1426 23.0384 89.2642 23.0719 89.3867 23.0636ZM87.7712 19.6869H84.9241L85.957 16.7736C86.0629 16.5882 86.1159 16.4955 86.1689 16.3101C86.1863 16.2491 86.2109 16.1867 86.236 16.1229C86.2874 15.9926 86.341 15.8564 86.341 15.7142C86.3887 15.9112 86.4461 16.1057 86.5132 16.2969C86.5367 16.3628 86.5653 16.4254 86.5924 16.4847C86.6413 16.592 86.6853 16.6883 86.6853 16.7736L87.7712 19.6869Z" fill="#B4F2FA"/>
<path d="M98.1374 14.1241V14.7333C98.1413 14.918 98.0855 15.0991 97.9785 15.2497L93.3835 21.7383H98.0182V23.0625H91.2515V22.4004C91.2379 22.326 91.2379 22.2497 91.2515 22.1753C91.2785 22.0966 91.314 22.0211 91.3575 21.9502L95.979 15.4483H91.5164V14.1241H98.1374Z" fill="#B4F2FA"/>
<path d="M103.169 21.7251C103.464 21.7304 103.756 21.6756 104.03 21.5662C104.275 21.4628 104.492 21.3042 104.666 21.1027C104.851 20.9005 104.991 20.6613 105.076 20.4009C105.17 20.1011 105.215 19.788 105.209 19.4739V14.1241H106.877V19.421C106.88 19.9273 106.79 20.4299 106.612 20.9041C106.432 21.3437 106.161 21.7407 105.818 22.0694C105.482 22.4042 105.081 22.6657 104.639 22.8374C103.642 23.1905 102.552 23.1905 101.554 22.8374C101.115 22.6686 100.717 22.4066 100.389 22.0694C100.065 21.735 99.8129 21.3386 99.647 20.9041C99.4737 20.4291 99.3884 19.9265 99.3954 19.421V14.1241H101.064V19.421C101.058 19.7352 101.102 20.0477 101.196 20.3479C101.28 20.6057 101.415 20.8449 101.594 21.0497C101.767 21.251 101.985 21.4099 102.229 21.5132C102.524 21.65 102.845 21.7215 103.169 21.7251Z" fill="#B4F2FA"/>
<path fill-rule="evenodd" clip-rule="evenodd" d="M110.348 23.0622V19.5663L111.063 19.6325C111.186 19.6075 111.312 19.6075 111.434 19.6325C111.525 19.6952 111.602 19.7764 111.659 19.8709L113.5 22.7312C113.564 22.8338 113.656 22.9163 113.765 22.9695C113.882 23.0462 114.023 23.079 114.162 23.0622H115.658L113.42 19.7649C113.284 19.5513 113.098 19.3739 112.877 19.2485C113.174 19.1593 113.455 19.0253 113.712 18.8512C113.949 18.697 114.159 18.5046 114.334 18.2818C114.679 17.825 114.861 17.2654 114.85 16.6928C114.854 16.3387 114.786 15.9874 114.652 15.6599C114.527 15.3368 114.316 15.0525 114.043 14.8389C113.722 14.5952 113.359 14.4151 112.97 14.3092C112.46 14.1777 111.934 14.1153 111.408 14.1238H108.68V23.0622H110.348ZM111.381 18.3745H110.348L110.388 15.3553H111.447C111.918 15.3241 112.385 15.4549 112.771 15.7261C112.924 15.8521 113.045 16.0127 113.123 16.1947C113.202 16.3766 113.235 16.5746 113.222 16.7722C113.235 17.0023 113.199 17.2326 113.116 17.4476C113.04 17.635 112.922 17.8026 112.771 17.9375C112.606 18.0823 112.412 18.1906 112.202 18.2553C111.937 18.3392 111.659 18.3798 111.381 18.3745Z" fill="#B4F2FA"/>
<path d="M122.492 14.1241V15.4483H118.52V17.9246H121.711V19.2488H118.52V21.7383H122.492V23.0625H116.851V14.1241H122.492Z" fill="#B4F2FA"/>
<path fill-rule="evenodd" clip-rule="evenodd" d="M84.6355 37.6289V34.4905H85.8141C86.3294 34.4965 86.8428 34.4251 87.3369 34.2787C87.7355 34.1492 88.1045 33.9422 88.4228 33.6695C88.7069 33.414 88.9288 33.097 89.0716 32.7426C89.2167 32.3622 89.2886 31.9579 89.2835 31.5508C89.2888 31.158 89.2217 30.7669 89.0849 30.3987C88.9542 30.0483 88.7353 29.7384 88.4492 29.4983C88.1367 29.2273 87.7713 29.0242 87.3766 28.9024C86.869 28.7553 86.3425 28.684 85.8141 28.6905H82.9141V37.6289H84.6355ZM85.8803 33.1663H84.6355V30.0147H85.8141C86.1062 29.9806 86.4021 29.9985 86.6881 30.0677C86.8942 30.1255 87.0845 30.2296 87.2442 30.3723C87.3918 30.5123 87.505 30.6845 87.5753 30.8755C87.6578 31.0817 87.6983 31.3023 87.6945 31.5243C87.6983 31.755 87.6579 31.9843 87.5753 32.1997C87.513 32.3983 87.3987 32.5766 87.2442 32.7161C87.0862 32.8671 86.8964 32.9801 86.6881 33.0472C86.4276 33.131 86.154 33.1716 85.8803 33.1663Z" fill="#B4F2FA"/>
<path fill-rule="evenodd" clip-rule="evenodd" d="M96.2753 37.6289H97.5995L94.0904 28.6905H92.3954L88.8465 37.6289H90.1707C90.2988 37.6381 90.4259 37.6005 90.5283 37.523C90.6139 37.4511 90.6819 37.3605 90.7269 37.2581L91.389 35.4307H95.057L95.7191 37.2581C95.7577 37.3641 95.8268 37.4563 95.9178 37.523C96.0202 37.6005 96.1472 37.6381 96.2753 37.6289ZM94.6598 34.2654H91.8127L92.8986 31.3522C92.9644 31.1964 93.0219 31.0373 93.0707 30.8755L93.2429 30.2928C93.2841 30.4578 93.3334 30.6148 93.3782 30.7575C93.3909 30.798 93.4033 30.8374 93.415 30.8755C93.4354 30.9415 93.4635 31.0056 93.4904 31.067C93.5337 31.1656 93.5739 31.2573 93.5739 31.3389L94.6598 34.2654Z" fill="#B4F2FA"/>
<path fill-rule="evenodd" clip-rule="evenodd" d="M100.367 37.6289V34.1462L101.082 34.1595C101.209 34.1493 101.337 34.1721 101.453 34.2257C101.547 34.2795 101.624 34.3571 101.678 34.4508L103.558 37.3111C103.623 37.4172 103.715 37.504 103.824 37.5623C103.934 37.6206 104.057 37.6482 104.181 37.6422H105.677L103.439 34.3449C103.307 34.1312 103.119 33.9582 102.896 33.8417C103.191 33.7469 103.471 33.6133 103.731 33.4444C104.206 33.1291 104.56 32.6624 104.737 32.1202C104.827 31.8468 104.872 31.5605 104.869 31.2727C104.875 30.9142 104.807 30.5583 104.671 30.2266C104.545 29.907 104.334 29.6281 104.062 29.4188C103.748 29.1725 103.387 28.9924 103.002 28.8891C102.489 28.747 101.959 28.6801 101.426 28.6905H98.6986V37.6289H100.367ZM101.4 32.9545H100.367L100.42 29.9882H101.479C101.948 29.9631 102.412 30.0884 102.804 30.3458C102.949 30.4769 103.064 30.6388 103.14 30.8197C103.215 31.0006 103.25 31.196 103.241 31.3919C103.248 31.6047 103.212 31.8165 103.135 32.0143C103.061 32.1994 102.948 32.3664 102.804 32.5042C102.636 32.6554 102.437 32.7684 102.221 32.8353C101.956 32.92 101.678 32.9606 101.4 32.9545Z" fill="#B4F2FA"/>
<path d="M112.825 28.6903V30.0145H110.177V37.5757H108.469V30.0145H105.82V28.6903H112.825Z" fill="#B4F2FA"/>
<path d="M115.235 28.6903L115.341 28.7698C115.387 28.8127 115.428 28.8617 115.461 28.9154L120.162 34.8876V28.6903H121.618V37.6287H120.757C120.653 37.6521 120.544 37.6521 120.44 37.6287C120.336 37.5741 120.245 37.4973 120.175 37.4036L115.421 31.3387V37.5757H113.964V28.6903H115.235Z" fill="#B4F2FA"/>
<path d="M129.113 28.6903V30.0145H125.141V32.504H128.332V33.8282H125.141V36.3575H129.113V37.6817H123.472V28.6903H129.113Z" fill="#B4F2FA"/>
<path fill-rule="evenodd" clip-rule="evenodd" d="M132.381 37.6287V34.146H133.162C133.29 34.1332 133.418 34.1561 133.533 34.2122C133.633 34.2616 133.717 34.3401 133.772 34.4374L135.652 37.2976C135.715 37.4004 135.801 37.4866 135.904 37.5492C136.019 37.6048 136.146 37.632 136.274 37.6287H137.704L135.467 34.3314C135.331 34.1204 135.144 33.9474 134.924 33.8282C135.217 33.7311 135.497 33.5969 135.758 33.431C135.995 33.2716 136.206 33.0749 136.38 32.8483C136.544 32.6264 136.674 32.3808 136.764 32.12C136.849 31.8454 136.894 31.5599 136.897 31.2725C136.902 30.9139 136.834 30.558 136.698 30.2264C136.567 29.9095 136.357 29.6314 136.089 29.4186C135.772 29.1697 135.407 28.9887 135.016 28.8889C134.508 28.7467 133.982 28.6798 133.454 28.6903H130.726V37.6287H132.381ZM133.427 32.9542H132.381L132.421 29.988H133.493C133.962 29.9601 134.427 30.0856 134.818 30.3456C134.966 30.4755 135.083 30.6368 135.161 30.8177C135.239 30.9987 135.275 31.1948 135.268 31.3917C135.268 31.6037 135.233 31.8142 135.162 32.0141C135.083 32.1994 134.966 32.3672 134.818 32.504C134.654 32.655 134.46 32.768 134.248 32.8351C133.983 32.9177 133.706 32.9579 133.427 32.9542Z" fill="#B4F2FA"/>
</svg>
