<svg width="127" height="50" viewBox="0 0 127 50" fill="none" xmlns="http://www.w3.org/2000/svg">
<path d="M19.6724 16.7402C19.6285 16.7402 19.5862 16.7572 19.5545 16.7876L19.5536 16.7867L15.8971 20.3479L14.5534 19.0387C14.5217 19.0081 14.4793 18.991 14.4351 18.991C14.391 18.991 14.3486 19.0081 14.3168 19.0387L13.924 19.4219C13.9085 19.4367 13.8962 19.4545 13.8878 19.4742C13.8793 19.494 13.875 19.5152 13.875 19.5366C13.875 19.5581 13.8793 19.5793 13.8878 19.599C13.8962 19.6187 13.9085 19.6366 13.924 19.6514L15.7797 21.4594C15.8114 21.49 15.8538 21.5071 15.8979 21.5071C15.9421 21.5071 15.9845 21.49 16.0162 21.4594L20.1831 17.3994C20.1986 17.3845 20.2109 17.3667 20.2193 17.347C20.2277 17.3273 20.2321 17.306 20.2321 17.2846C20.2321 17.2631 20.2277 17.2419 20.2193 17.2222C20.2109 17.2025 20.1986 17.1847 20.1831 17.1698L19.7902 16.7876C19.7585 16.7572 19.7163 16.7402 19.6724 16.7402Z" fill="#B4F2FA"/>
<path fill-rule="evenodd" clip-rule="evenodd" d="M9.57812 15.2516C9.57812 21.1046 12.954 25.1496 16.1091 26.465C16.2816 26.5366 16.4666 26.5726 16.6534 26.5726C16.8402 26.5726 17.0251 26.5357 17.1976 26.4641C19.7233 25.4118 23.7304 21.7764 23.7304 15.2525C23.7304 14.6796 23.3852 14.164 22.8608 13.946L17.1994 11.5871C17.0555 11.5271 16.8118 11.4785 16.6556 11.4785C16.5002 11.4785 16.2557 11.5271 16.1109 11.588L10.4512 13.9451C9.92242 14.164 9.57812 14.6796 9.57812 15.2516ZM10.9933 15.2516L16.6547 12.8928L22.3152 15.2516C22.3152 20.3763 19.4143 24.0082 16.6547 25.1585C13.7794 23.9614 10.9933 20.243 10.9933 15.2516Z" fill="#B4F2FA"/>
<path d="M63.706 13.8341C64.2004 13.8341 64.6533 13.9074 65.0647 14.053C65.4752 14.1987 65.8265 14.4062 66.1187 14.6728C66.41 14.9403 66.6378 15.2616 66.8011 15.6377C66.9644 16.0138 67.0466 16.4322 67.0466 16.8921C67.0466 17.2876 66.9883 17.654 66.8718 17.9904C66.7542 18.3292 66.5972 18.6531 66.4039 18.9553C66.2014 19.2717 65.9719 19.5701 65.7179 19.8469C65.447 20.1425 65.1721 20.4344 64.8934 20.7226L62.4745 23.1945C62.7035 23.1271 62.9364 23.0737 63.1719 23.0347C63.3988 22.9976 63.6169 22.9791 63.8252 22.9791H66.5787C66.7764 22.9791 66.9335 23.0347 67.0501 23.1459C67.1084 23.2032 67.154 23.2721 67.184 23.3481C67.214 23.4242 67.2276 23.5057 67.224 23.5873V24.6864H59.8614V24.0773C59.8634 23.9358 59.8933 23.796 59.9493 23.6661C60.0054 23.5361 60.0865 23.4184 60.188 23.3198L63.4456 20.0535C63.7184 19.7772 63.962 19.5123 64.1774 19.2598C64.3794 19.0261 64.5607 18.7753 64.7195 18.5103C64.8651 18.2631 64.9764 18.0115 65.0532 17.7573C65.13 17.5013 65.1679 17.2338 65.1679 16.9513C65.1724 16.7198 65.1347 16.4895 65.0567 16.2715C64.9885 16.0857 64.8796 15.9174 64.738 15.7789C64.597 15.6441 64.4283 15.5417 64.2436 15.4788C64.0369 15.4092 63.8199 15.3752 63.6018 15.3781C63.1613 15.3781 62.7985 15.4894 62.5142 15.7118C62.2256 15.9411 62.0168 16.2556 61.9175 16.6105C61.8627 16.7986 61.7806 16.9328 61.672 17.0149C61.5509 17.1 61.4051 17.1428 61.2571 17.1367C61.1821 17.1367 61.1009 17.1296 61.0117 17.1146L60.0468 16.9442C60.1076 16.4704 60.2533 16.0114 60.4767 15.5891C60.6769 15.2162 60.948 14.8861 61.2748 14.6172C61.6007 14.3539 61.9737 14.1549 62.3739 14.031C62.8051 13.8971 63.2545 13.8307 63.706 13.8341Z" fill="#B4F2FA"/>
<path d="M33.2316 16.1347C33.3147 16.0771 33.3804 15.9977 33.4214 15.9052L33.9114 14.9623C33.5172 14.5949 33.0522 14.312 32.5448 14.1307C32.0107 13.933 31.4271 13.8341 30.7933 13.8341C30.2345 13.8341 29.7366 13.9206 29.3013 14.0937C28.8661 14.2667 28.4989 14.4971 28.1987 14.784C27.8995 15.0709 27.6717 15.4002 27.5163 15.771C27.3601 16.1426 27.2824 16.5231 27.2824 16.9142C27.2824 17.4042 27.353 17.8164 27.4942 18.1501C27.6215 18.464 27.812 18.7483 28.0539 18.9853C28.2872 19.2084 28.5556 19.3916 28.8485 19.5273C29.1427 19.6649 29.4452 19.784 29.7542 19.884C30.0542 19.9806 30.3559 20.0718 30.6591 20.1576C30.9338 20.2333 31.2 20.3369 31.4536 20.4666C31.6701 20.5747 31.8612 20.7276 32.0142 20.9151C32.1555 21.0934 32.2261 21.3229 32.2261 21.6054C32.2261 22.1104 32.0698 22.498 31.7582 22.7672C31.4466 23.0374 31.006 23.1715 30.4366 23.1715C30.0659 23.1715 29.748 23.1212 29.4832 23.0197C29.2184 22.9182 28.9879 22.8052 28.7929 22.6816C28.5977 22.558 28.4283 22.4459 28.2844 22.3443C28.1413 22.2428 28.0072 22.1916 27.8836 22.1916C27.7933 22.1906 27.7045 22.2151 27.6275 22.2622C27.552 22.3083 27.4853 22.3675 27.4307 22.437L26.8516 23.3949C27.0661 23.6129 27.3038 23.8068 27.5605 23.9731C27.8302 24.149 28.1164 24.2983 28.415 24.4189C28.7232 24.5439 29.0424 24.6397 29.3684 24.705C29.6995 24.7712 30.0358 24.8047 30.3784 24.8047C30.9716 24.8047 31.4986 24.7147 31.9586 24.5337C32.3947 24.3684 32.7924 24.1157 33.1274 23.7913C33.4456 23.4786 33.6936 23.1019 33.8549 22.686C34.0208 22.2622 34.1038 21.8085 34.1038 21.3238C34.1038 20.878 34.0332 20.4993 33.8919 20.1877C33.7516 19.876 33.5644 19.613 33.3322 19.3975C33.0992 19.1821 32.8343 19.0038 32.5377 18.8626C32.2411 18.7213 31.9374 18.5977 31.6284 18.4918C31.3194 18.385 31.0158 18.2852 30.7191 18.1908C30.4225 18.0972 30.1577 17.9904 29.9246 17.8721C29.7109 17.7676 29.5206 17.6211 29.3649 17.4413C29.2237 17.2735 29.153 17.0625 29.153 16.8109C29.151 16.6239 29.1864 16.4384 29.2572 16.2654C29.3262 16.0996 29.4344 15.953 29.5724 15.8381C29.7256 15.7124 29.9019 15.6179 30.0915 15.56C30.326 15.489 30.5703 15.4554 30.8154 15.4602C31.0859 15.4547 31.3554 15.4935 31.6134 15.575C31.8176 15.6424 32.0152 15.7281 32.204 15.831C32.3717 15.9246 32.5183 16.0102 32.6419 16.087C32.7404 16.1553 32.8559 16.195 32.9756 16.2018C33.0655 16.2041 33.1543 16.1808 33.2316 16.1347Z" fill="#B4F2FA"/>
<path fill-rule="evenodd" clip-rule="evenodd" d="M45.9281 19.319C45.9281 20.1064 45.7974 20.8348 45.5352 21.5057C45.2869 22.154 44.9107 22.7457 44.4291 23.2457C43.9435 23.7431 43.3596 24.1339 42.7147 24.3933C42.0464 24.667 41.3066 24.8047 40.4953 24.8047C39.6831 24.8047 38.9416 24.6679 38.2715 24.3925C37.6246 24.1334 37.0384 23.7429 36.5501 23.2457C36.0665 22.7465 35.6891 22.1546 35.4404 21.5057C35.173 20.808 35.0394 20.0661 35.0466 19.319C35.0466 18.5333 35.1782 17.8041 35.4404 17.1332C35.6891 16.4842 36.0665 15.8923 36.5501 15.3931C37.0383 14.8956 37.6245 14.5049 38.2715 14.2455C38.9425 13.9718 39.684 13.8341 40.4953 13.8341C41.3066 13.8341 42.0464 13.9727 42.7147 14.249C43.3586 14.5103 43.9421 14.9009 44.4291 15.3967C44.9112 15.8949 45.2875 16.4856 45.5352 17.1332C45.7974 17.8041 45.9281 18.5324 45.9281 19.319ZM43.88 19.319C43.88 18.7301 43.8014 18.2022 43.646 17.7343C43.5063 17.2951 43.2777 16.8895 42.9742 16.5426C42.6806 16.2153 42.3162 15.9592 41.9087 15.7939C41.4594 15.6147 40.979 15.5262 40.4953 15.5335C39.97 15.5335 39.4977 15.62 39.0775 15.7939C38.6677 15.9591 38.3009 16.2154 38.0049 16.5434C37.7101 16.8701 37.4841 17.2673 37.3252 17.7352C37.1663 18.2031 37.0877 18.7301 37.0877 19.319C37.0877 19.9087 37.1671 20.4366 37.326 20.9045C37.4841 21.3724 37.7101 21.7679 38.0049 22.0919C38.302 22.4178 38.6686 22.6728 39.0775 22.8378C39.5285 23.0166 40.0103 23.1048 40.4953 23.0974C40.9789 23.105 41.4593 23.0168 41.9087 22.8378C42.3156 22.6727 42.6798 22.4177 42.9742 22.0919C43.2656 21.7679 43.4898 21.3715 43.6452 20.9045C43.8014 20.4366 43.88 19.9087 43.88 19.319Z" fill="#B4F2FA"/>
<path d="M54.8797 22.1545C54.9892 22.1545 55.0828 22.1969 55.1622 22.2808L55.9488 23.1345C55.5192 23.6693 54.9685 24.0942 54.3421 24.3739C53.7065 24.6617 52.9429 24.8047 52.0521 24.8047C51.2558 24.8047 50.539 24.6688 49.9034 24.3969C49.2859 24.1376 48.7305 23.7504 48.2737 23.2607C47.8132 22.7589 47.4608 22.1679 47.2382 21.5242C46.9924 20.8153 46.8708 20.0693 46.8789 19.319C46.8789 18.513 47.0122 17.7741 47.2797 17.1031C47.5329 16.4542 47.9169 15.8643 48.4079 15.3702C48.9043 14.8778 49.4965 14.4926 50.1479 14.2384C50.8241 13.9692 51.5692 13.8341 52.3867 13.8341C53.183 13.8341 53.8795 13.9612 54.4754 14.2164C55.0461 14.4541 55.5665 14.798 56.0088 15.2298L55.3406 16.1568C55.2998 16.2176 55.2483 16.2705 55.1887 16.313C55.1125 16.3616 55.023 16.3851 54.9327 16.3801C54.8046 16.375 54.6817 16.3279 54.5831 16.2459C54.2374 15.9872 53.8489 15.7912 53.4355 15.6668C53.1574 15.5785 52.8016 15.5344 52.3717 15.5344C51.8667 15.5344 51.4024 15.6218 50.9795 15.7975C50.5558 15.9731 50.1929 16.2239 49.8884 16.5505C49.5838 16.8771 49.3463 17.2744 49.1759 17.7423C48.9989 18.2488 48.9123 18.7825 48.9199 19.319C48.9199 19.9228 49.0055 20.4604 49.1759 20.9301C49.3463 21.4006 49.5776 21.7961 49.8698 22.1175C50.1611 22.4397 50.5054 22.686 50.9018 22.8564C51.2973 23.0268 51.7228 23.1124 52.1784 23.1124C52.4254 23.1141 52.6722 23.0994 52.9173 23.0682C53.138 23.0382 53.3401 22.9914 53.5264 22.927C53.7118 22.8626 53.8866 22.7796 54.0525 22.678C54.2287 22.5691 54.3943 22.4438 54.5469 22.3037C54.5936 22.261 54.6459 22.2248 54.7023 22.196C54.7576 22.1684 54.8179 22.1541 54.8797 22.1545Z" fill="#B4F2FA"/>
<path d="M81.3251 15.5943V13.9531H72.8555V15.5943H76.0989V24.6872H78.0967V15.5943H81.3251Z" fill="#B4F2FA"/>
<path d="M84.9808 27.0734C85.0756 26.9956 85.1486 26.8947 85.1927 26.7803L89.3418 17.0703H87.8729C87.7622 17.0692 87.654 17.1032 87.5639 17.1674C87.4757 17.228 87.4075 17.3134 87.3679 17.4128L85.8389 21.3537C85.7833 21.4923 85.7329 21.6282 85.6861 21.7624C85.6394 21.8957 85.5961 22.0343 85.5564 22.1773C85.5264 22.0396 85.4919 21.901 85.4531 21.7624C85.4125 21.6238 85.3657 21.4896 85.3118 21.3616L83.6857 17.4128C83.646 17.3237 83.5868 17.2442 83.5074 17.1754C83.4288 17.1056 83.3149 17.0712 83.1666 17.0712H81.5626L84.6436 24.123L83.2178 27.1731H84.5835C84.7619 27.1731 84.8943 27.1405 84.9808 27.0734Z" fill="#B4F2FA"/>
<path fill-rule="evenodd" clip-rule="evenodd" d="M90.4109 17.0712V27.1731H92.2445V24.0559C92.4774 24.2854 92.7502 24.4703 93.0496 24.6015C93.3498 24.7322 93.7144 24.7975 94.1443 24.7975C94.613 24.8046 95.0767 24.7018 95.4985 24.4973C95.9003 24.2986 96.253 24.0134 96.5314 23.6622C96.8265 23.2856 97.0492 22.8576 97.1882 22.3998C97.3454 21.888 97.4228 21.355 97.4177 20.8196C97.4177 20.1963 97.3498 19.6428 97.2138 19.1608C97.0779 18.6779 96.8845 18.2727 96.6356 17.9434C96.3849 17.6141 96.0882 17.3634 95.7439 17.1895C95.3997 17.0165 95.0201 16.9299 94.6051 16.9299C94.071 16.9299 93.6031 17.0385 93.2059 17.2566C92.8069 17.4746 92.4546 17.7589 92.1483 18.1103L91.9991 17.4049C91.9904 17.3539 91.9714 17.3053 91.9434 17.2619C91.9153 17.2185 91.8787 17.1812 91.8358 17.1524C91.7528 17.0977 91.6504 17.0712 91.5321 17.0712H90.4109ZM92.9975 18.6187C93.2677 18.4572 93.5926 18.3777 93.9739 18.3777C94.1977 18.3737 94.4196 18.4192 94.6237 18.511C94.8206 18.6058 94.9883 18.7519 95.1092 18.9339C95.2434 19.1272 95.3467 19.3788 95.4173 19.6878C95.4897 19.9968 95.525 20.3738 95.525 20.8187C95.525 21.2601 95.4835 21.6424 95.3988 21.9663C95.3149 22.2903 95.1948 22.5596 95.0395 22.7715C94.8832 22.9842 94.6925 23.1431 94.4674 23.2464C94.2423 23.3506 93.9916 23.4027 93.7144 23.4027C93.4319 23.4027 93.1688 23.3523 92.9243 23.2508C92.6788 23.1493 92.452 22.9701 92.2445 22.7123V19.2985C92.4767 19.0063 92.7283 18.7794 92.9975 18.6187Z" fill="#B4F2FA"/>
<path fill-rule="evenodd" clip-rule="evenodd" d="M103.278 17.1815C102.854 17.025 102.405 16.9472 101.954 16.952C101.384 16.952 100.873 17.0509 100.42 17.2495C99.985 17.4351 99.5933 17.7093 99.2699 18.0546C98.9556 18.3936 98.7146 18.7918 98.546 19.25C98.3782 19.7072 98.2944 20.1963 98.2944 20.7154C98.2944 21.3837 98.3906 21.9716 98.5831 22.4784C98.7566 22.9543 99.0272 23.389 99.3776 23.7549C99.7122 24.0977 100.117 24.3637 100.565 24.5344C101.02 24.7101 101.513 24.7984 102.043 24.7984C102.32 24.7975 102.596 24.7774 102.87 24.7384C103.156 24.6993 103.437 24.6309 103.709 24.5344C103.986 24.4367 104.252 24.3072 104.5 24.1486C104.752 23.988 104.979 23.7893 105.182 23.551L104.648 22.8827C104.611 22.8306 104.563 22.7874 104.507 22.7565C104.447 22.7258 104.381 22.7106 104.314 22.7123C104.19 22.7155 104.068 22.7515 103.962 22.8165C103.84 22.8853 103.699 22.9621 103.538 23.0469C103.357 23.1392 103.168 23.216 102.974 23.2764C102.759 23.3453 102.503 23.3806 102.206 23.3806C101.602 23.3806 101.117 23.197 100.751 22.8306C100.385 22.4651 100.175 21.8913 100.12 21.1091H104.826C104.897 21.1113 104.967 21.0999 105.034 21.0756C105.088 21.0535 105.133 21.0145 105.163 20.9644C105.2 20.8979 105.223 20.8246 105.231 20.749C105.243 20.6571 105.249 20.5424 105.249 20.4038C105.249 19.8547 105.168 19.3656 105.005 18.9374C104.841 18.5102 104.613 18.1482 104.321 17.8542C104.029 17.5594 103.681 17.336 103.278 17.1815ZM100.736 18.7185C101.037 18.4166 101.456 18.2665 101.991 18.2665C102.235 18.2609 102.478 18.3076 102.703 18.4033C102.898 18.4886 103.07 18.6169 103.208 18.7785C103.344 18.9409 103.445 19.1292 103.505 19.3321C103.569 19.5413 103.601 19.7655 103.601 20.003H100.157C100.242 19.4486 100.434 19.0204 100.736 18.7185Z" fill="#B4F2FA"/>
<path d="M109.955 24.6872H111.959V13.9531H109.955V24.6872Z" fill="#B4F2FA"/>
<path d="M114.617 24.6872H116.621V13.9531H114.617V24.6872Z" fill="#B4F2FA"/>
<path d="M17.9869 34.8098C17.9663 34.8006 17.9441 34.796 17.9216 34.7961C17.8955 34.796 17.8698 34.802 17.8466 34.8137C17.8229 34.8258 17.8009 34.8409 17.7812 34.8588L17.7115 34.9188C17.6043 35.0083 17.4817 35.0775 17.3495 35.1227C17.2661 35.1512 17.1801 35.1713 17.0926 35.1827C16.9999 35.1942 16.8958 35.2004 16.781 35.2004C16.5886 35.2004 16.4093 35.1651 16.2416 35.0927C16.0748 35.0203 15.93 34.917 15.8064 34.7811C15.6828 34.6451 15.5857 34.4783 15.5133 34.2787C15.4409 34.081 15.4056 33.855 15.4056 33.599C15.4025 33.3725 15.4392 33.1471 15.5142 32.9334C15.5784 32.7467 15.6806 32.5754 15.8143 32.4302C15.9432 32.2922 16.1004 32.1837 16.2752 32.1123C16.4616 32.0368 16.6611 31.9989 16.8622 32.0011C17.0143 31.9971 17.1661 32.0162 17.3125 32.0576C17.4868 32.1102 17.6505 32.193 17.7962 32.3021C17.8379 32.3366 17.8897 32.3564 17.9437 32.3587C17.9819 32.3609 18.0199 32.351 18.0522 32.3304C18.0773 32.3123 18.0988 32.2899 18.1158 32.2642L18.3983 31.8722C18.2191 31.6948 18.0028 31.5526 17.7512 31.4449C17.4996 31.3364 17.2048 31.2834 16.8684 31.2834C16.5241 31.2834 16.209 31.3399 15.9238 31.4538C15.6395 31.5677 15.3941 31.7274 15.1893 31.9323C14.9845 32.1371 14.8256 32.3807 14.7126 32.6632C14.5996 32.9466 14.5431 33.2591 14.5431 33.599C14.54 33.9159 14.5917 34.231 14.6958 34.5303C14.7859 34.8011 14.9329 35.0494 15.1269 35.2586C15.3208 35.4678 15.5574 35.6331 15.8205 35.7433C16.0889 35.8581 16.3917 35.9155 16.728 35.9155C17.1032 35.9155 17.4263 35.8546 17.6947 35.7336C17.959 35.6156 18.1913 35.4365 18.3727 35.211L18.0408 34.849C18.0258 34.8323 18.0074 34.8189 17.9869 34.8098Z" fill="#B4F2FA"/>
<path fill-rule="evenodd" clip-rule="evenodd" d="M26.6384 34.5224C26.7496 34.239 26.8044 33.9318 26.8044 33.599C26.8044 33.2671 26.7496 32.9598 26.6393 32.6756C26.5281 32.3931 26.3718 32.1485 26.1714 31.9428C25.971 31.7372 25.73 31.5756 25.4475 31.4591C25.1659 31.3417 24.8534 31.2834 24.5108 31.2834C24.1897 31.2794 23.8708 31.3385 23.5724 31.4573C23.2991 31.5665 23.0514 31.7312 22.845 31.9411C22.6437 32.1485 22.4875 32.394 22.3762 32.6765C22.2659 32.9598 22.2103 33.2671 22.2103 33.599C22.2074 33.9145 22.264 34.2278 22.3771 34.5224C22.4819 34.7963 22.6411 35.0461 22.845 35.2569C23.0513 35.4671 23.299 35.6321 23.5724 35.7416C23.8708 35.8604 24.1897 35.9195 24.5108 35.9155C24.8534 35.9155 25.165 35.8572 25.4475 35.7407C25.7197 35.6313 25.9661 35.4665 26.1711 35.2568C26.3761 35.0471 26.5353 34.797 26.6384 34.5224ZM25.8412 32.9298C25.9097 33.1462 25.9428 33.3721 25.9392 33.599C25.9422 33.826 25.9094 34.0519 25.8404 34.2682C25.775 34.4659 25.6814 34.6328 25.5579 34.7696C25.4333 34.9071 25.2795 35.0148 25.1076 35.0848C24.9311 35.158 24.7316 35.1942 24.5108 35.1942C24.2893 35.1942 24.0889 35.158 23.9123 35.0848C23.7349 35.0115 23.583 34.9064 23.4594 34.7696C23.335 34.6328 23.2396 34.4659 23.1725 34.2682C23.1054 34.0713 23.0719 33.8479 23.0719 33.599C23.0688 33.3722 23.1028 33.1465 23.1725 32.9307C23.2326 32.7451 23.3303 32.5738 23.4594 32.4275C23.5844 32.2889 23.7393 32.1806 23.9123 32.1106C24.0898 32.0373 24.2893 32.0011 24.5108 32.0011C24.715 31.9979 24.9179 32.0351 25.1076 32.1106C25.2795 32.1804 25.4331 32.2885 25.557 32.4266C25.6853 32.573 25.7821 32.7443 25.8412 32.9298Z" fill="#B4F2FA"/>
<path d="M33.2921 34.1931C33.2612 34.1207 33.2285 34.0519 33.1932 33.9848L31.839 31.4679C31.8222 31.437 31.8046 31.4114 31.786 31.3929C31.7666 31.3743 31.7463 31.3611 31.7251 31.3523C31.7031 31.3443 31.6775 31.339 31.651 31.3364C31.6245 31.3337 31.5918 31.3337 31.5539 31.3337H30.9174V35.8652H31.6607V32.9378L31.6563 32.755C31.6527 32.6888 31.6474 32.6217 31.6386 32.5529L33.0273 35.1315C33.0554 35.1869 33.0974 35.234 33.1491 35.2684C33.2016 35.3015 33.2627 35.3183 33.3248 35.3169H33.4404C33.5025 35.3183 33.5636 35.3015 33.6161 35.2684C33.6678 35.234 33.7098 35.1869 33.7379 35.1315L35.108 32.5617C35.1018 32.6275 35.0971 32.6934 35.0939 32.7594L35.0895 32.853V35.8652H35.8311V31.3337H35.1954L35.0983 31.3364C35.0733 31.3381 35.0486 31.3435 35.0251 31.3523C35.0022 31.361 34.9817 31.3749 34.965 31.3929C34.9448 31.4155 34.9275 31.4408 34.9138 31.4679L33.572 33.9786C33.5358 34.0472 33.5025 34.1173 33.4722 34.1887L33.3804 34.4112L33.2921 34.1931Z" fill="#B4F2FA"/>
<path fill-rule="evenodd" clip-rule="evenodd" d="M41.067 35.8652V34.2699H41.6999C41.9948 34.2699 42.2508 34.2337 42.4715 34.1605C42.6732 34.097 42.8596 33.9924 43.0189 33.8532C43.1637 33.7238 43.2765 33.5624 43.3481 33.3818C43.4214 33.1991 43.4576 32.9978 43.4576 32.778C43.4576 32.567 43.4232 32.3728 43.3543 32.1953C43.2855 32.0179 43.1786 31.8652 43.0347 31.738C42.8909 31.61 42.7081 31.5103 42.4856 31.4396C42.2649 31.369 42.0027 31.3337 41.6999 31.3337H40.2239V35.8652H41.067ZM41.6999 33.6122H41.067V31.9852H41.6999C41.8367 31.9827 41.9731 32.0011 42.1043 32.04C42.2098 32.0714 42.3071 32.1257 42.3894 32.1989C42.4648 32.268 42.5229 32.3538 42.5589 32.4496C42.5969 32.5476 42.6145 32.657 42.6145 32.778C42.6145 32.906 42.596 33.0208 42.5589 33.1249C42.5229 33.2276 42.4629 33.3201 42.3838 33.3947C42.3047 33.4694 42.2088 33.524 42.1043 33.554C41.9895 33.5928 41.8544 33.6122 41.6999 33.6122Z" fill="#B4F2FA"/>
<path d="M50.219 35.1695H48.4049V31.3337H47.5618V35.8652H50.219V35.1695Z" fill="#B4F2FA"/>
<path d="M54.3541 35.8652H55.2007V31.3337H54.3541V35.8652Z" fill="#B4F2FA"/>
<path fill-rule="evenodd" clip-rule="evenodd" d="M62.9985 35.8652H63.6509L61.8703 31.3337H61.0087L59.2289 35.8652H59.884C59.9444 35.8655 60.0036 35.8473 60.0534 35.8131C60.1033 35.7788 60.1415 35.7301 60.1629 35.6736L60.501 34.7493H62.3779L62.716 35.6736C62.7361 35.7317 62.7745 35.7818 62.8254 35.8163C62.8763 35.8508 62.937 35.868 62.9985 35.8652ZM62.1625 34.1543H60.7173L61.2964 32.5794L61.3521 32.4116L61.4377 32.1141C61.4651 32.2135 61.4951 32.3121 61.5277 32.4099L61.5569 32.4972L62.1625 34.1543Z" fill="#B4F2FA"/>
<path d="M68.0075 31.3337H67.5661V35.8652H68.3095V33.0826C68.3095 33.0278 68.3077 32.9678 68.3042 32.9016L68.2989 32.8027L68.29 32.7029L70.6595 35.7213C70.693 35.7685 70.7371 35.8072 70.7884 35.8343C70.8407 35.8567 70.8974 35.8672 70.9543 35.8652H71.3896V31.3337H70.6471V34.0881L70.6515 34.284C70.6549 34.3557 70.6608 34.4273 70.6692 34.4986L68.2574 31.4291L68.2273 31.3973C68.2104 31.381 68.191 31.3673 68.17 31.3567C68.1484 31.3469 68.1255 31.3406 68.102 31.3381L68.0075 31.3337Z" fill="#B4F2FA"/>
<path d="M78.9473 32.0258V31.3337H75.3719V32.0258H76.7402V35.8652H77.5833V32.0258H78.9473Z" fill="#B4F2FA"/>
</svg>
