<?xml version="1.0" encoding="utf-8"?>
<!-- Generator: Adobe Illustrator 25.3.1, SVG Export Plug-In . SVG Version: 6.00 Build 0)  -->
<svg version="1.1" id="Layer_1" xmlns="http://www.w3.org/2000/svg" xmlns:xlink="http://www.w3.org/1999/xlink" x="0px" y="0px"
	 viewBox="0 0 120 120" enable-background="new 0 0 120 120" xml:space="preserve">
<linearGradient id="SVGID_1_" gradientUnits="userSpaceOnUse" x1="60.2217" y1="576.1848" x2="73.0611" y2="620.3049" gradientTransform="matrix(1 0 0 1 0 -564)">
	<stop  offset="0" style="stop-color:#5E6294"/>
	<stop  offset="1" style="stop-color:#878BB2"/>
</linearGradient>
<circle opacity="0.2" fill="url(#SVGID_1_)" enable-background="new    " cx="66.2" cy="32.8" r="22.4"/>
<path opacity="0.14" fill-rule="evenodd" clip-rule="evenodd" fill="#5E6294" enable-background="new    " d="M66.2,60.7
	c15.4,0,27.9-12.5,27.9-27.9S81.6,4.9,66.2,4.9S38.3,17.4,38.3,32.8S50.8,60.7,66.2,60.7z M66.2,55.2c12.3,0,22.4-10,22.4-22.4
	s-10-22.4-22.4-22.4c-12.3,0-22.4,10-22.4,22.4S53.8,55.2,66.2,55.2z"/>
<path fill="#EF7B4D" d="M53.4,44.5c-3.1-1.3-5.2-4.4-5.2-7.9c0-3.3,1.9-6.2,4.6-7.6c-0.2-7.6,5.9-13.8,13.5-13.8S80.1,21.4,79.9,29
	c2.7,1.5,4.6,4.3,4.6,7.6c0,3.5-2.1,6.6-5.2,7.9l-0.5,13.3c0.2,3.4,1.2,3.7,5.1,4.8c0.4,0.1,0.8,0.2,1.2,0.4
	c-3.2,0.8-5.2,0.9-6.5,0.5l-0.3,6.1c-0.5,5.8-0.5,5.8,3.4,6.8c0.6,0.2,1.1,0.3,1.8,0.5c-8.4,1.9-8.5-1.9-8.6-5.4
	c0-0.7-0.1-1.4-0.1-2h-0.3c0,0.3-0.1,0.5-0.1,0.7l0,0c-0.4,4.8-0.5,6.5,0.3,7.2c0.4,0.4,1,0.5,2,0.7c1,0.2,2.4,0.5,4.2,1.2
	C71,80.7,71,77.6,71,72.2c0-0.9,0-1.7-0.1-2.7h-0.3c-0.5,10.4,0.1,10.5,3.6,11.3c1,0.3,2.1,0.5,3.6,1.1c-10.1,1.1-10.5-1.8-11.2-6.2
	c-0.1-0.8-0.2-1.6-0.4-2.5c-0.2,0.9-0.3,1.7-0.4,2.5c-0.6,4.4-1,7.3-11.1,6.2c1.4-0.6,2.6-0.9,3.6-1.1c3.5-0.9,4-1,3.6-11.3h-0.3
	c-0.1,0.9-0.1,1.8-0.1,2.7c0,5.4,0,8.5-9.9,7.1c1.9-0.7,3.2-1,4.2-1.2c1-0.2,1.6-0.3,2-0.7c0.8-0.7,0.6-2.4,0.3-7.2
	c0-0.2-0.1-0.5-0.1-0.7h-0.3c-0.1,0.6-0.1,1.3-0.1,2c-0.1,3.4-0.2,7.3-8.6,5.4c0.7-0.2,1.3-0.4,1.8-0.5c3.9-1,3.9-1,3.4-6.8
	l-0.3-6.1c-1.3,0.4-3.3,0.3-6.5-0.5c0.5-0.1,0.8-0.3,1.2-0.4c3.9-1.1,5-1.4,5.1-4.8L53.4,44.5z"/>
<circle fill="#FEFEFE" cx="56.4" cy="36.7" r="6.4"/>
<circle cx="56.3" cy="35.7" r="2.2"/>
<circle fill="#FEFEFE" cx="75.4" cy="36.7" r="6.4"/>
<circle cx="75.3" cy="35.7" r="2.2"/>
<path fill="#FAFAFA" d="M61.4,48.8c0,0,2.3,2.3,5,2.3s5-2.3,5-2.3v2.9c0,2.7-2.2,5-5,5c-2.7,0-5-2.2-5-5V48.8z"/>
<path fill="#202124" d="M61.4,51.1c0,0,2.3,2.3,5,2.3s5-2.3,5-2.3v0.6c0,2.7-2.2,5-5,5c-2.7,0-5-2.2-5-5V51.1z"/>
<path opacity="0.16" fill="none" stroke="#5E6294" stroke-width="3.4717" stroke-linecap="round" enable-background="new    " d="
	M47.6,46.8c-2.9-3.8-4.6-8.6-4.6-13.8c-0.1-8.4,4.4-15.8,11-19.9"/>
<g>
	<circle opacity="0.45" fill="#5E6294" enable-background="new    " cx="57" cy="11" r="1.2"/>
	<path fill="#5E6294" d="M36.8,26.2h0.3c0.7,0,1.2,0.5,1.2,1.2v11.1c0,0.7-0.5,1.2-1.2,1.2h-0.3c-0.7,0-1.2-0.5-1.2-1.2V27.4
		C35.7,26.7,36.2,26.2,36.8,26.2z"/>
	<path fill="#5E6294" d="M95.3,26.2h0.3c0.7,0,1.2,0.5,1.2,1.2v11.1c0,0.7-0.5,1.2-1.2,1.2h-0.3c-0.7,0-1.2-0.5-1.2-1.2V27.4
		C94.2,26.7,94.7,26.2,95.3,26.2z"/>
	<path fill-rule="evenodd" clip-rule="evenodd" fill="#5E6294" fill-opacity="0.2" d="M66.2,62.2c16.2,0,29.4-13.1,29.4-29.4
		S82.5,3.4,66.2,3.4C50,3.4,36.8,16.5,36.8,32.8S50,62.2,66.2,62.2z M66.2,60.7c15.4,0,27.9-12.5,27.9-27.9
		c0-15.4-12.5-27.9-27.9-27.9C50.8,4.9,38.3,17.4,38.3,32.8S50.8,60.7,66.2,60.7z"/>
</g>
<path fill="#F77F4F" d="M63.3,21.7c-0.3,1.4-1.5,2.3-2.7,2c-1.2-0.3-1.9-1.4-1.6-2.7c0.3-1.4,2.1-2.8,3.3-2.6
	C63.4,18.7,63.6,20.4,63.3,21.7z"/>
<path fill="#5C75C9" d="M107.9,116.6H84.8l4.4-53.5h11L107.9,116.6z"/>
<linearGradient id="SVGID_2_" gradientUnits="userSpaceOnUse" x1="-16198.502" y1="653.807" x2="21182.7148" y2="653.807" gradientTransform="matrix(1 0 0 1 0 -564)">
	<stop  offset="0" style="stop-color:#D6E6FD"/>
	<stop  offset="1" style="stop-color:#D2E3FD"/>
</linearGradient>
<path fill="url(#SVGID_2_)" d="M100.1,63.1l-3.6,36.4l-0.1,1.2L96,104l-0.6,5.3c-0.2,2-1.1,3.8-2.6,5.2c-1.5,1.4-3.4,2.1-5.4,2.1
	H23.3L28,70.3c0.2-2,1.1-3.8,2.6-5.2c1.5-1.3,3.4-2.1,5.4-2.1L100.1,63.1z"/>
<linearGradient id="SVGID_3_" gradientUnits="userSpaceOnUse" x1="-12722.5693" y1="631.9811" x2="20508.2324" y2="631.9811" gradientTransform="matrix(1 0 0 1 0 -564)">
	<stop  offset="0" style="stop-color:#373282"/>
	<stop  offset="1" style="stop-color:#2E419B"/>
</linearGradient>
<path fill="url(#SVGID_3_)" d="M36,63.1h64.1l-1,9.9H27.7l0.3-2.6c0.2-2,1.1-3.8,2.6-5.2C32.1,63.8,34,63.1,36,63.1z"/>
<path fill="#EF7B4D" d="M96.3,100.6l-0.4,3.4l-0.6,5.3c-0.2,2-1.1,3.8-2.6,5.2c-1.5,1.4-3.4,2.1-5.4,2.1h-8.8L96.3,100.6z"/>
<g opacity="0.71">
	<path opacity="0.71" fill="#A1BFF1" enable-background="new    " d="M39.6,85.6c2.3,0,4.2-1.9,4.2-4.2c0-2.3-1.9-4.2-4.2-4.2
		s-4.2,1.9-4.2,4.2C35.4,83.7,37.3,85.6,39.6,85.6z"/>
	<path opacity="0.71" fill="#FFFFFF" enable-background="new    " d="M54.9,85.6c2.3,0,4.2-1.9,4.2-4.2c0-2.3-1.9-4.2-4.2-4.2
		c-2.4,0-4.2,1.9-4.2,4.2C50.7,83.7,52.5,85.6,54.9,85.6z"/>
	<path opacity="0.71" fill="#A1BFF1" enable-background="new    " d="M70.4,85.6c2.3,0,4.2-1.9,4.2-4.2c0-2.3-1.9-4.2-4.2-4.2
		c-2.3,0-4.2,1.9-4.2,4.2C66.2,83.7,68.1,85.6,70.4,85.6z"/>
	<path opacity="0.71" fill="#FFFFFF" enable-background="new    " d="M86.2,85.6c2.3,0,4.2-1.9,4.2-4.2c0-2.3-1.9-4.2-4.2-4.2
		s-4.2,1.9-4.2,4.2C81.9,83.7,83.9,85.6,86.2,85.6z"/>
</g>
<g opacity="0.71">
	<path opacity="0.71" fill="#FFFFFF" enable-background="new    " d="M37.5,98.2c2.3,0,4.2-1.9,4.2-4.2c0-2.3-1.9-4.2-4.2-4.2
		c-2.4,0-4.2,1.9-4.2,4.2C33.3,96.3,35.1,98.2,37.5,98.2z"/>
	<path opacity="0.71" fill="#A1BFF1" enable-background="new    " d="M52.7,98.2c2.3,0,4.2-1.9,4.2-4.2c0-2.3-1.9-4.2-4.2-4.2
		s-4.2,1.9-4.2,4.2C48.5,96.3,50.4,98.2,52.7,98.2z"/>
	<path opacity="0.71" fill="#FFFFFF" enable-background="new    " d="M68.2,98.2c2.3,0,4.2-1.9,4.2-4.2c0-2.3-1.9-4.2-4.2-4.2
		c-2.4,0-4.2,1.9-4.2,4.2C64,96.3,65.9,98.2,68.2,98.2z"/>
	<path opacity="0.71" fill="#A1BFF1" enable-background="new    " d="M84,98.2c2.3,0,4.2-1.9,4.2-4.2c0-2.3-1.9-4.2-4.2-4.2
		c-2.3,0-4.2,1.9-4.2,4.2C79.8,96.3,81.7,98.2,84,98.2z"/>
</g>
<g opacity="0.71">
	<path opacity="0.71" fill="#A1BFF1" enable-background="new    " d="M34.5,111.3c2.3,0,4.2-1.9,4.2-4.2c0-2.3-1.9-4.2-4.2-4.2
		c-2.4,0-4.2,1.9-4.2,4.2C30.2,109.4,32.2,111.3,34.5,111.3z"/>
	<path opacity="0.71" fill="#FFFFFF" enable-background="new    " d="M49.7,111.3c2.3,0,4.2-1.9,4.2-4.2c0-2.3-1.9-4.2-4.2-4.2
		c-2.3,0-4.2,1.9-4.2,4.2C45.5,109.4,47.4,111.3,49.7,111.3z"/>
	<path opacity="0.71" fill="#A1BFF1" enable-background="new    " d="M65.3,111.3c2.3,0,4.2-1.9,4.2-4.2c0-2.3-1.9-4.2-4.2-4.2
		c-2.4,0-4.2,1.9-4.2,4.2C61.1,109.4,62.9,111.3,65.3,111.3z"/>
</g>
<linearGradient id="SVGID_4_" gradientUnits="userSpaceOnUse" x1="92.645" y1="662.0322" x2="75.4091" y2="675.8356" gradientTransform="matrix(1 0 0 1 0 -564)">
	<stop  offset="0" style="stop-color:#EF7B4D"/>
	<stop  offset="1" style="stop-color:#FF8F62"/>
</linearGradient>
<path fill="url(#SVGID_4_)" d="M96.3,100.6L96.3,100.6l-17.8,15.9v-12.9c0-0.8,0.3-1.6,0.9-2.1s1.3-0.9,2.1-0.9H96.3z"/>
<path opacity="0.35" fill="#EF7B4D" enable-background="new    " d="M96.3,100.6l-0.4,3.4l-14,12.5h-3.4L96.3,100.6z"/>
<linearGradient id="SVGID_5_" gradientUnits="userSpaceOnUse" x1="31.0545" y1="681.388" x2="31.0545" y2="653.079" gradientTransform="matrix(1 0 0 1 0 -564)">
	<stop  offset="0" style="stop-color:#5C75C9"/>
	<stop  offset="1" style="stop-color:#D2E3FD"/>
</linearGradient>
<path opacity="0.36" fill="url(#SVGID_5_)" enable-background="new    " d="M31.1,116.7c7.9,0,14.3-6.4,14.3-14.3S38.9,88,31.1,88
	s-14.3,6.4-14.3,14.3S23.2,116.7,31.1,116.7z"/>
<linearGradient id="SVGID_6_" gradientUnits="userSpaceOnUse" x1="25.6233" y1="628.742" x2="25.6233" y2="710.4898" gradientTransform="matrix(1 0 0 1 0 -564)">
	<stop  offset="0" style="stop-color:#5C75C9"/>
	<stop  offset="1" style="stop-color:#2E419B"/>
</linearGradient>
<path fill="url(#SVGID_6_)" d="M25.6,116.9c7.9,0,14.3-6.4,14.3-14.3s-6.4-14.3-14.3-14.3c-7.9,0-14.3,6.4-14.3,14.3
	S17.7,116.9,25.6,116.9z"/>
<path opacity="0.85" fill="#2E419B" enable-background="new    " d="M26.3,105.6c1.4,0,2.5-1.1,2.5-2.5s-1.1-2.5-2.5-2.5
	s-2.5,1.1-2.5,2.5C23.7,104.5,24.8,105.6,26.3,105.6z"/>
<path opacity="0.85" fill="#2E419B" enable-background="new    " d="M26.7,102.2l0.5,0.5l6.6-6.6l-0.5-0.5L26.7,102.2z"/>
<linearGradient id="SVGID_7_" gradientUnits="userSpaceOnUse" x1="27.9037" y1="4997.7603" x2="27.9037" y2="9465.9033" gradientTransform="matrix(1 0 0 1 0 -564)">
	<stop  offset="0" style="stop-color:#5C75C9"/>
	<stop  offset="1" style="stop-color:#2E419B"/>
</linearGradient>
<path fill="url(#SVGID_7_)" d="M39,102.9c0,3.4-1.2,6.6-3.4,9.2c-2.2,2.6-5.3,4.2-8.5,4.7c2.3-0.2,4.4-1,6.4-2.2s3.5-2.9,4.6-4.9
	c1.1-2,1.8-4.2,1.9-6.5c0.1-2.3-0.4-4.5-1.3-6.6c-1-2.1-2.4-3.9-4.1-5.3c-1.8-1.4-3.9-2.4-6.1-2.8s-4.5-0.4-6.7,0.3
	s-4.2,1.8-5.9,3.3c2.1-1.7,4.5-2.9,7.2-3.2s5.4,0.1,7.8,1.2c2.4,1.1,4.5,2.9,6,5.2C38.2,97.6,39,100.2,39,102.9L39,102.9z"/>
<path opacity="0.85" fill="#2E419B" enable-background="new    " d="M18.1,110.8l0.9,0.9l6.8-6.8l-0.9-0.9L18.1,110.8z"/>
<path opacity="0.85" fill="#2E419B" enable-background="new    " d="M20.3,97.6l-0.9,0.9l4.3,4.4l0.9-0.9L20.3,97.6z"/>
<path fill="#FFFFFF" d="M25.6,105c1.4,0,2.5-1.1,2.5-2.5c0-1.4-1.1-2.5-2.5-2.5s-2.5,1.1-2.5,2.5C23.1,103.9,24.2,105,25.6,105z"/>
<path fill="#FFFFFF" d="M17.4,110.1L17.4,110.1l6.8-6.8l0.9,0.9l-5.9,5.9c-0.3,0.3-0.6,0.4-0.9,0.4S17.7,110.3,17.4,110.1z"/>
<path fill="#FFFFFF" d="M20,97.8c0.1-0.1,0.3-0.2,0.4-0.3c0.2-0.1,0.3-0.1,0.5-0.1c0.2,0,0.4,0.1,0.5,0.1c0.2,0.1,0.3,0.2,0.4,0.3
	l3.4,3.4l-0.9,0.9L20,97.8z"/>
<path fill="#FFFFFF" d="M26.2,101.8l0.5,0.5l6.6-6.6l-0.5-0.5L26.2,101.8z"/>
<linearGradient id="SVGID_8_" gradientUnits="userSpaceOnUse" x1="93.7283" y1="682.9734" x2="93.7283" y2="642.5015" gradientTransform="matrix(1 0 0 1 0 -564)">
	<stop  offset="0" style="stop-color:#373282;stop-opacity:0"/>
	<stop  offset="1" style="stop-color:#2E419B"/>
</linearGradient>
<path opacity="0.51" fill="url(#SVGID_8_)" enable-background="new    " d="M100.1,63.1v50.1c0,0.9-0.4,1.8-1,2.5
	c-0.7,0.7-1.5,1-2.5,1h-9.2c2,0,3.9-0.8,5.4-2.1c1.5-1.4,2.4-3.2,2.6-5.2l0.9-8.6L100.1,63.1z"/>
</svg>
